<?xml version="1.0" encoding="UTF-8" standalone="no"?>
<svg
   xmlns:dc="http://purl.org/dc/elements/1.1/"
   xmlns:cc="http://creativecommons.org/ns#"
   xmlns:rdf="http://www.w3.org/1999/02/22-rdf-syntax-ns#"
   xmlns:svg="http://www.w3.org/2000/svg"
   xmlns="http://www.w3.org/2000/svg"
   viewBox="160.037 6.755 217.04 90.4533"
   version="1.1"
   id="svg2">
  <metadata
     id="metadata11">
    <rdf:RDF>
      <cc:Work
         rdf:about="">
        <dc:format>image/svg+xml</dc:format>
        <dc:type
           rdf:resource="http://purl.org/dc/dcmitype/StillImage" />
      </cc:Work>
    </rdf:RDF>
  </metadata>
  <defs
     id="defs9" />
  <g
     aria-label="The Quick BrownFox Jumps OverThe Lazy Dog"
     id="text4521"
     style="font-style:normal;font-variant:normal;font-weight:normal;font-stretch:normal;font-size:26.6667px;line-height:125%;font-family:'American Typewriter', serif;font-variant-ligatures:normal;font-variant-caps:normal;font-variant-numeric:normal;font-feature-settings:normal;text-align:left;letter-spacing:0px;word-spacing:0px;writing-mode:lr-tb;text-anchor:start;fill:#000000;fill-opacity:1;stroke:none;stroke-width:1px;stroke-linecap:butt;stroke-linejoin:miter;stroke-opacity:1">
    <path
       d="m 169.0507,21.608336 q 0,2 1.36,2 0.21333,0 0.64,-0.05333 0.42667,-0.08 0.64,-0.08 0.34667,0 0.58667,0.266666 0.26666,0.24 0.26666,0.586667 0,0.933333 -1.2,0.933333 -0.0533,0 -0.16,0 -0.13333,-0.02667 -0.18666,-0.02667 l -1.30667,-0.186667 q -0.74667,-0.106667 -1.68,-0.106667 -1.01333,0 -1.78667,0.106667 l -1.33333,0.186667 q -0.08,0 -0.18667,0.02667 -0.13333,0 -0.18666,0 -1.17334,0 -1.17334,-0.933333 0,-0.853333 0.85334,-0.853333 0.21333,0 0.64,0.08 0.42666,0.05333 0.64,0.05333 1.33333,0 1.33333,-2 v -1.866667 l 0.0267,-2.346666 v -2.266667 l -0.0267,-4.346666 q 0,-1.8933337 -1.94667,-1.8933337 h -0.82666 q -1.92,0 -1.92,1.8666667 0,0.666667 0.0267,0.906667 l 0.10667,0.986666 q 0.0267,0.24 0.0267,0.666667 0,1.68 -1.04,1.68 -0.98667,0 -0.98667,-1.226667 0,-0.346666 0.0533,-1.2 0.08,-1.28 0.08,-1.626666 0,-0.666667 -0.0533,-1.386667 -0.10667,-1.4133333 -0.10667,-1.2 0,-1.12 1.01334,-1.12 0.37333,0 1.73333,0.08 0.13333,0 2.18667,0.053333 l 3.04,0.053333 q 0.53333,0 2.85333,-0.053333 0.50667,0 1.73333,-0.08 1.09334,-0.08 1.70667,-0.08 1.33333,0 1.33333,1.0933333 v 0.053333 q 0,0.2666667 -0.08,0.9866667 -0.0533,0.7200003 -0.13333,1.5466663 v 0.293334 q 0,0.4 0.08,1.253333 0.10667,1.12 0.10667,1.386667 0,1.093333 -1.04,1.093333 -1.01334,0 -1.01334,-1.333333 0,-0.48 0.08,-1.413334 0.08,-0.96 0.08,-1.44 0,-1.8399997 -2.10666,-1.8399997 h -0.74667 q -0.98667,0 -1.41333,0.4266667 -0.42667,0.4 -0.48,1.36 l -0.08,1.866667 z"
       id="path13" />
    <path
       d="m 181.74401,7.955003 -0.10667,5.173333 q 1.06667,-1.013333 1.94667,-1.386666 0.88,-0.4 2.08,-0.4 2.29333,0 3.68,1.306666 1.38667,1.306667 1.38667,3.44 v 4.453333 q 0,1.573334 0.0267,1.733334 0.10667,1.333333 0.69334,1.333333 0.21333,0 0.61333,-0.106667 0.16,-0.02667 0.42667,-0.02667 0.98666,0 0.98666,0.88 0,0.88 -1.28,0.88 -0.34666,0 -1.01333,-0.08 -1.12,-0.133334 -1.81333,-0.133334 -0.69334,0 -1.06667,0.05333 -1.12,0.16 -1.38667,0.16 -0.48,0 -0.8,-0.266667 -0.32,-0.293333 -0.32,-0.72 0,-0.346667 0.26667,-0.586667 0.29333,-0.24 0.66667,-0.24 0.29333,0 0.69333,0.133334 0.24,0.08 0.45333,0.08 0.8,0 0.82667,-1.733334 0,-0.32 0.0267,-1.253333 l 0.0267,-1.146667 v -1.44 q 0,-2.719999 -0.53333,-3.653333 -0.77333,-1.386666 -2.72,-1.386666 -2.10667,0 -3.06667,1.44 -0.66666,0.986666 -0.69333,3.173333 l -0.0267,1.92 q 0,0.16 -0.0267,0.533333 0,0.346667 0,0.506667 0,1.52 0.0267,1.76 0.13334,1.306666 0.77334,1.306666 0.21333,0 0.58666,-0.08 0.4,-0.106666 0.58667,-0.106666 0.85333,0 0.85333,0.826666 0,0.933334 -1.17333,0.933334 -0.37333,0 -1.12,-0.08 -1.01333,-0.106667 -1.73333,-0.106667 -0.45334,0 -1.25334,0.08 -1.06666,0.106667 -1.36,0.106667 -1.09333,0 -1.09333,-0.96 0,-0.8 1.01333,-0.8 0.34667,0 0.50667,0.05333 0.45333,0.08 0.64,0.08 0.42667,0 0.56,-0.8 0.16,-0.826667 0.18667,-3.333333 l 0.0267,-4.773333 q 0,-4 -0.16,-5.0400003 -0.16,-1.0666667 -0.74666,-1.0666667 -0.18667,0 -0.56,0.08 -0.37334,0.08 -0.58667,0.08 -0.90667,0 -0.90667,-0.8533333 0,-0.3733333 0.32,-0.64 0.32,-0.2666666 0.77334,-0.2666666 0.13333,0 0.90666,0.08 0.50667,0.053333 1.09334,0.053333 0.24,0 0.66666,-0.053333 0.42667,-0.053333 0.61334,-0.053333 0.61333,0 0.61333,0.88 z"
       id="path15" />
    <path
       d="m 206.65065,17.288336 q 0,1.013333 -0.13333,1.253333 -0.13333,0.213334 -0.77333,0.213334 h -8.48 q -0.34667,0 -0.45334,0.106666 -0.10666,0.08 -0.10666,0.293334 0,2 1.2,3.333333 1.2,1.333333 2.98666,1.333333 1.17334,0 2.13334,-0.64 0.98666,-0.64 1.28,-1.626666 l 0.24,-0.773334 q 0.18666,-0.64 0.88,-0.64 0.98666,0 0.98666,1.013334 0,1.733333 -1.76,3.093333 -1.76,1.333333 -4,1.333333 -2.8,0 -4.45333,-1.866666 -1.65333,-1.893334 -1.65333,-5.066667 0,-3.253333 1.76,-5.28 1.76,-2.026666 4.58666,-2.026666 2.50667,0 4.13334,1.68 1.62666,1.68 1.62666,4.266666 z m -9.68,-0.693333 q 0,0.373333 0.58667,0.373333 h 6.37333 q 0.56,0 0.56,-0.373333 0,-1.413333 -1.06666,-2.453333 -1.06667,-1.04 -2.50667,-1.04 -1.49333,0 -2.72,1.093333 -1.22667,1.066667 -1.22667,2.4 z"
       id="path17" />
    <path
       d="m 230.70393,16.06167 q 0,6.239999 -4.29333,8.879999 v 2.026667 q 0,1.893333 1.54667,1.893333 0.88,0 1.2,-0.453333 0.21333,-0.32 0.26666,-1.226667 0.0533,-1.253333 0.96,-1.253333 1.04,0 1.04,1.306667 0,1.466666 -0.96,2.346666 -0.93333,0.906667 -2.45333,0.906667 -3.36,0 -3.36,-3.093333 v -1.866667 q -0.82667,0.186667 -1.65333,0.186667 -3.54667,0 -5.65334,-2.533334 -2.08,-2.533333 -2.08,-6.826666 0,-4.48 2.08,-7.04 2.08,-2.5599999 5.73334,-2.5599999 3.52,0 5.57333,2.5066666 2.05333,2.5066663 2.05333,6.8000003 z m -4.26666,5.306666 v 1.413333 q 0.77333,-0.96 1.12,-1.84 0.8,-2.133333 0.8,-4.933333 0,-3.493333 -1.38667,-5.413333 -1.38667,-1.92 -3.89333,-1.92 -2.61334,0 -4.08,2 -1.46667,2 -1.46667,5.6 0,5.013333 2.45333,6.96 -0.72,-1.173334 -0.72,-2.24 0,-1.306667 1.06667,-2.186667 1.09333,-0.906667 2.66667,-0.906667 1.62666,0 2.53333,0.933334 0.90667,0.906666 0.90667,2.533333 z m -3.41334,2.613333 q 0.66667,0 1.65334,-0.266666 v -2.053334 q 0,-2.106666 -1.78667,-2.106666 -0.96,0 -1.57333,0.586666 -0.61334,0.586667 -0.61334,1.52 0,1.04 0.64,1.68 0.64,0.64 1.68,0.64 z"
       id="path19" />
    <path
       d="m 243.63723,24.461669 v -0.826666 q -1.41333,1.946666 -4.18667,1.946666 -3.14666,0 -4.37333,-1.946666 -0.53333,-0.853334 -0.58666,-2 -0.0267,-0.56 -0.0267,-2.346667 v -2.213333 q 0,-3.653333 -0.77333,-3.653333 -0.16,0 -0.50667,0.08 -0.34667,0.05333 -0.53333,0.05333 -0.93334,0 -0.93334,-0.88 0,-0.853333 1.14667,-0.853333 0.26667,0 0.77333,0.05333 0.53334,0.05333 0.8,0.05333 0.24,0 0.82667,-0.08 0.4,-0.05333 0.45333,-0.05333 0.82667,0 0.82667,1.013333 v 0.56 l -0.0267,1.733334 -0.08,1.973333 v 1.733333 q 0,2.32 0.37333,3.333333 0.61334,1.68 2.93334,1.68 1.14666,0 2.02666,-0.506666 0.88,-0.533334 1.22667,-1.386667 0.42667,-1.04 0.42667,-3.946667 v -1.466666 q 0,-1.6 0,-1.733333 -0.13334,-1.28 -0.69334,-1.28 -0.29333,0 -0.48,0.05333 h -0.32 q -0.93333,0 -0.93333,-0.826667 0,-0.933333 1.04,-0.933333 0.24,0 0.72,0.05333 0.50667,0.05333 0.74667,0.05333 0.21333,0 0.64,-0.02667 0.42666,-0.05333 0.64,-0.05333 0.8,0 0.8,0.853333 0,0.373333 -0.0533,0.586667 -0.13333,1.013333 -0.13333,2.986666 v 4.106667 q 0,1.626666 0.0267,1.813333 0.13333,1.413333 0.74666,1.413333 0.18667,0 0.53334,-0.05333 0.34666,-0.08 0.53333,-0.08 0.90667,0 0.90667,0.88 0,0.906667 -1.12,0.906667 -0.24,0 -0.69334,-0.05333 -0.66666,-0.08 -0.82666,-0.08 -0.08,0 -0.56,0.05333 -0.32,0.08 -0.56,0.08 -0.74667,0 -0.74667,-0.773334 z"
       id="path21" />
    <path
       d="m 253.58388,17.395003 v 3.466666 q 0,1.333334 0.0267,1.573334 0.13333,1.2 0.72,1.2 0.13333,0 0.66667,-0.133334 0.13333,-0.05333 0.4,-0.05333 1.01333,0 1.01333,0.88 0,0.373333 -0.34667,0.64 -0.32,0.266667 -0.82666,0.266667 -0.42667,0 -1.30667,-0.106667 -0.85333,-0.133333 -1.28,-0.133333 -0.69333,0 -1.54667,0.106666 -1.04,0.133334 -1.38666,0.133334 -1.06667,0 -1.06667,-0.906667 0,-0.88 0.90667,-0.88 0.21333,0 0.61333,0.08 0.42667,0.08 0.64,0.08 0.64,0 0.77333,-1.706667 0,-0.106666 0,-2.32 v -2.186666 q 0,-2.213333 0,-2.32 -0.13333,-1.68 -0.8,-1.68 -0.21333,0 -0.61333,0.106667 -0.37333,0.08 -0.56,0.08 -0.96,0 -0.96,-0.853334 0,-0.906666 1.17333,-0.906666 0.50667,0 0.72,0.02667 0.85334,0.106667 1.09334,0.106667 0.21333,0 0.64,-0.05333 0.45333,-0.08 0.66666,-0.08 0.77334,0 0.77334,1.04 0,0.106666 -0.0267,0.32 -0.0267,0.213333 -0.0267,0.32 -0.0267,0.213333 -0.0533,1.653333 -0.0267,1.093333 -0.0267,2.24 z m -1.38666,-6.986667 q -0.61334,0 -1.06667,-0.4266664 -0.42667,-0.4533333 -0.42667,-1.0666666 0,-0.6133333 0.42667,-1.04 0.45333,-0.4266666 1.06667,-0.4266666 0.61333,0 1.04,0.4266666 0.45333,0.4266667 0.45333,1.04 0,0.6133333 -0.45333,1.0666666 -0.42667,0.4266664 -1.04,0.4266664 z"
       id="path23" />
    <path
       d="m 265.29054,16.328336 q 0,-1.066666 1.33333,-1.226666 -0.13333,-0.933334 -0.90666,-1.466667 -0.74667,-0.533333 -1.94667,-0.533333 -1.84,0 -2.96,1.466666 -1.12,1.466667 -1.12,3.893333 0,2.506667 1.04,3.946667 1.06667,1.413333 2.93333,1.413333 1.17334,0 2.02667,-0.666666 0.88,-0.666667 1.2,-1.84 0.26667,-0.933334 0.32,-1.066667 0.29333,-0.533333 0.85333,-0.533333 0.45334,0 0.74667,0.293333 0.29333,0.293333 0.29333,0.746667 0,0.666666 -0.42666,1.6 -0.42667,0.933333 -1.01334,1.546666 -1.57333,1.68 -4.08,1.68 -2.72,0 -4.4,-1.92 -1.65333,-1.92 -1.65333,-5.04 0,-3.306666 1.70667,-5.279999 1.73333,-2 4.58666,-2 2.13334,0 3.54667,1.173333 1.41333,1.146667 1.41333,2.933333 0,0.986667 -0.56,1.626667 -0.53333,0.64 -1.38666,0.64 -0.66667,0 -1.12,-0.4 -0.42667,-0.4 -0.42667,-0.986667 z"
       id="path25" />
    <path
       d="m 274.94381,18.381669 4.56,-4.266666 q 0.24,-0.213333 0.24,-0.48 0,-0.266667 -0.34666,-0.266667 -0.26667,0 -0.77334,0.106667 -0.50666,0.106667 -0.77333,0.106667 -0.93333,0 -0.93333,-0.853334 0,-0.933333 1.17333,-0.933333 0.29333,0 0.74667,0.05333 1.84,0.213334 2.8,0.213334 0.53333,0 0.90666,-0.05333 l 1.09334,-0.16 q 0.37333,-0.05333 0.61333,-0.05333 1.30667,0 1.30667,0.906667 0,0.853333 -0.90667,0.853333 -0.21333,0 -0.61333,-0.05333 -0.37334,-0.05333 -0.58667,-0.05333 -0.66667,0 -1.38667,0.666667 l -2.8,2.56 q -0.29333,0.266666 -0.29333,0.426666 0,0.133334 0.21333,0.4 l 3.41334,4.426667 q 1.30666,1.68 1.86666,1.68 0.13334,0 0.42667,-0.05333 0.32,-0.08 0.50667,-0.08 0.96,0 0.96,0.853333 0,0.906667 -1.22667,0.906667 -0.48,0 -1.44,-0.106667 -0.93333,-0.106667 -1.41333,-0.106667 -0.42667,0 -1.25334,0.106667 -0.8,0.106667 -1.2,0.106667 -1.01333,0 -1.01333,-0.906667 0,-0.853333 0.96,-0.853333 0.26667,0 0.42667,0.02667 0.48,0.133334 0.61333,0.133334 0.24,0 0.24,-0.186667 0,-0.02667 0,-0.08 -0.0267,-0.02667 -0.0267,-0.05333 l -0.26666,-0.373334 -0.34667,-0.506666 -2.66667,-3.546667 q -0.26666,-0.346667 -0.42666,-0.346667 -0.10667,0 -0.4,0.266667 l -1.97334,1.76 v 0.613333 q 0,1.28 0.0267,1.44 0.13333,0.933334 0.74667,0.933334 0.26666,0 0.45333,-0.02667 0.18667,-0.05333 0.50667,-0.05333 0.90666,0 0.90666,0.88 0,0.88 -1.01333,0.88 -0.45333,0 -1.38667,-0.106667 -0.90666,-0.133333 -1.38666,-0.133333 -0.61334,0 -1.41334,0.106666 -1.01333,0.133334 -1.36,0.133334 -1.04,0 -1.04,-0.88 0,-0.88 1.01334,-0.88 0.21333,0 0.50666,0.05333 0.42667,0.08 0.58667,0.08 0.64,0 0.72,-1.013333 l 0.08,-1.04 V 10.78167 q -0.0533,-1.4400003 -0.18667,-1.8133337 -0.13333,-0.4 -0.56,-0.4 -0.13333,0 -0.50666,0.053333 -0.37334,0.1333333 -0.74667,0.1333333 -0.88,0 -0.88,-0.8266666 0,-0.9066667 1.04,-0.9066667 0.53333,0 0.74667,0.026667 0.66666,0.08 0.88,0.08 0.21333,0 0.61333,-0.053333 0.42667,-0.08 0.61333,-0.08 h 0.18667 q 0.85333,0 0.85333,1.0933333 z"
       id="path27" />
    <path
       d="m 309.10375,11.528336 q 0,2.72 -3.09333,3.84 1.12,0.346667 1.84,0.773334 2.16,1.253333 2.16,3.759999 0,2.453334 -1.89334,3.92 -1.89333,1.44 -5.06666,1.44 -1.14667,0 -2.90667,-0.133333 -1.76,-0.133333 -2.58667,-0.133333 -0.72,0 -1.36,0.08 l -1.25333,0.16 q -0.0533,0 -0.18667,0.02667 -0.13333,0 -0.18666,0 -1.14667,-0.02667 -1.14667,-0.96 0,-0.853333 0.82667,-0.853333 0.21333,0 0.72,0.08 0.34666,0.05333 0.56,0.05333 1.36,0 1.36,-1.973333 v -10.72 q 0,-1.9999997 -1.36,-1.9999997 -0.24,0 -0.56,0.053333 -0.48,0.08 -0.72,0.08 -0.82667,0 -0.82667,-0.8533333 0,-0.9333334 1.22667,-0.9333334 h 0.34666 l 1.30667,0.1866667 q 0.56,0.08 1.52,0.08 1.01333,0 2.88,-0.16 1.25333,-0.1066667 2.69333,-0.1066667 2.69334,0 4.18667,1.1466667 1.52,1.12 1.52,3.1466663 z m -10.21333,1.146667 q 0,1.413333 0.24,1.76 0.26666,0.32 1.41333,0.32 h 1.49333 q 4.72,0 4.72,-3.066667 0,-2.7999997 -3.89333,-2.7999997 -2.72,0 -3.36,0.3466667 -0.61333,0.3466667 -0.61333,1.786667 z m 0,5.413333 v 2.96 q 0,1.733333 0.58666,2.133333 0.58667,0.4 3.2,0.4 4.98667,0 4.98667,-3.733333 0,-3.44 -4.8,-3.44 h -2.21333 q -1.44,0 -1.65334,0.64 -0.10666,0.32 -0.10666,1.04 z"
       id="path29" />
    <path
       d="m 316.43706,12.568336 v 0.72 q 1.38667,-1.946666 3.70666,-1.946666 1.86667,0 3.01334,1.066666 1.17333,1.04 1.17333,2.693334 0,1.173333 -0.58667,1.919999 -0.58666,0.72 -1.54666,0.72 -0.61334,0 -1.04,-0.373333 -0.42667,-0.373333 -0.42667,-0.906667 0,-0.426666 0.32,-0.746666 0.32,-0.346667 0.74667,-0.346667 0.08,0 0.34666,0.08 0.16,-0.32 0.16,-0.586666 0,-0.773334 -0.69333,-1.306667 -0.66667,-0.533333 -1.68,-0.533333 -2.08,0 -2.77333,1.866666 -0.42667,1.146667 -0.42667,3.466667 v 1.76 q 0,1.786666 0.0267,2 0.13333,1.52 0.82667,1.52 0.34666,0 0.72,-0.106667 0.29333,-0.08 0.50666,-0.08 0.85333,0 0.85333,0.853333 0,0.933334 -1.09333,0.933334 h -0.10666 q -0.4,0 -1.22667,-0.106667 -0.8,-0.08 -1.2,-0.08 -1.06667,0 -1.68,0.05333 l -1.49333,0.133334 q -1.09334,0 -1.09334,-0.933334 0,-0.826666 1.01334,-0.826666 0.26666,0 0.4,0.02667 l 0.4,0.08 q 0.26666,0.05333 0.37333,0.05333 0.66667,0 0.72,-1.226667 l 0.0533,-1.36 -0.08,-6.053333 q -0.08,-1.573333 -0.8,-1.573333 -0.21333,0 -0.58666,0.08 -0.37334,0.08 -0.58667,0.08 -0.88,0 -0.88,-0.853334 0,-0.933333 1.14667,-0.933333 0.26666,0 0.8,0.08 0.53333,0.05333 0.8,0.05333 0.21333,0 0.69333,-0.05333 0.21333,-0.05333 0.50667,-0.05333 0.69333,0 0.69333,0.746666 z"
       id="path31" />
    <path
       d="m 331.63705,25.581669 q -2.8,0 -4.48,-1.92 -1.68,-1.946666 -1.68,-5.2 0,-3.253333 1.68,-5.173333 1.70666,-1.946666 4.56,-1.946666 2.90666,0 4.58666,1.893333 1.68,1.893333 1.68,5.146666 0,3.253334 -1.73333,5.226667 -1.73333,1.973333 -4.61333,1.973333 z m 0.13333,-12.479999 q -1.86667,0 -2.93333,1.306666 -1.06667,1.306667 -1.17334,3.706667 0,0 0,0.346666 0,2.506667 1.04,3.946667 1.06667,1.413333 2.96,1.413333 1.94667,0 3.04,-1.413333 1.12,-1.44 1.12,-3.973333 0,-5.333333 -4.05333,-5.333333 z"
       id="path33" />
    <path
       d="m 343.50366,15.528336 1.94667,8.106667 2.08,-9.386667 q 0.32,-1.493333 0.69333,-1.973333 0.4,-0.506667 1.2,-0.506667 0.82667,0 1.2,0.506667 0.4,0.506667 0.72,1.973333 l 2,9.386667 1.97334,-8.106667 q 0.18666,-0.773333 0.18666,-1.333333 v -0.05333 q 0,-0.72 -0.61333,-0.72 -0.24,0 -0.69333,0.106666 -0.45334,0.08 -0.69334,0.08 -0.98666,0 -0.98666,-0.88 0,-0.933333 1.30666,-0.933333 0.18667,0 0.4,0.02667 l 1.09334,0.133333 q 0.42666,0.05333 1.33333,0.05333 0.72,0 1.38667,-0.08 l 0.88,-0.106666 q 0.10666,-0.02667 0.29333,-0.02667 1.14667,0 1.14667,0.906667 0,0.88 -0.88,0.88 -0.29334,0 -0.45334,-0.05333 -0.42666,-0.05333 -0.48,-0.05333 -0.72,0 -1.49333,2.96 l -1.81333,6.853333 q -0.32,1.253333 -0.74667,1.76 -0.42667,0.48 -1.17333,0.48 -1.41334,0 -1.89334,-2.24 l -2,-9.493333 -2.08,9.333333 q -0.29333,1.333333 -0.74666,1.893333 -0.45334,0.533334 -1.22667,0.533334 -1.25333,0 -1.68,-1.653334 l -2.56,-9.599999 q -0.24,-0.853334 -0.74667,-0.853334 -0.16,0 -0.48,0.08 -0.42666,0.05333 -0.58666,0.05333 -0.88,0 -0.88,-0.853334 0,-0.933333 1.2,-0.933333 0.21333,0 0.29333,0.02667 l 1.14667,0.16 q 0.37333,0.05333 0.98666,0.05333 0.74667,0 1.70667,-0.106667 1.2,-0.133333 1.38667,-0.133333 1.17333,0 1.17333,0.906667 0,0.88 -0.98667,0.88 -0.18666,0 -0.66666,-0.05333 -0.34667,-0.106666 -0.66667,-0.106666 -0.69333,0 -0.69333,0.8 0,0.533333 0.18666,1.306666 z"
       id="path35" />
    <path
       d="m 365.21029,12.62167 v 0.746666 q 1.6,-2.026666 4.26666,-2.026666 1.44,0 2.72,0.746666 1.28,0.72 1.73334,1.813334 0.37333,0.906666 0.37333,2.373333 v 5.066666 q 0,1.146667 0.0267,1.36 0.13333,0.906667 0.72,0.906667 0.24,0 0.61333,-0.05333 0.4,-0.08 0.56,-0.08 0.34667,0 0.58667,0.24 0.26666,0.24 0.26666,0.586666 0,0.4 -0.32,0.666667 -0.32,0.266667 -0.77333,0.266667 -0.37333,0 -1.22667,-0.106667 -0.85333,-0.106667 -1.6,-0.106667 -0.69333,0 -1.14666,0.05333 -1.33334,0.16 -1.41334,0.16 -1.06666,0 -1.06666,-0.933334 0,-0.826666 0.90666,-0.826666 0.21334,0 0.48,0.05333 0.50667,0.106667 0.64,0.106667 0.64,0 0.69334,-1.466667 l 0.0533,-1.36 0.0267,-1.626667 v -2.026666 q 0,-1.413333 -0.13334,-1.946667 -0.24,-1.013333 -1.04,-1.573333 -0.88,-0.613333 -2,-0.613333 -2.13333,0 -3.06666,1.52 -0.64,1.04 -0.64,3.546666 v 3.546667 q 0,1.173333 0.16,1.6 0.16,0.426666 0.58666,0.426666 0.21334,0 0.58667,-0.106666 0.37333,-0.106667 0.61333,-0.106667 0.82667,0 0.82667,0.906667 0,0.88 -1.06667,0.88 -0.21333,0 -1.38666,-0.16 -0.58667,-0.08 -1.30667,-0.08 -0.56,0 -1.49333,0.106666 -1.17334,0.133334 -1.33334,0.133334 -1.12,0 -1.12,-0.906667 0,-0.853333 0.85334,-0.853333 0.13333,0 0.48,0.08 0.37333,0.08 0.72,0.08 0.8,0 0.82666,-1.546667 l 0.0533,-2.96 V 15.90167 l -0.0533,-0.933334 q -0.0533,-0.906666 -0.24,-1.226666 -0.16,-0.346667 -0.58666,-0.346667 -0.18667,0 -0.56,0.08 -0.34667,0.05333 -0.53334,0.05333 -0.96,0 -0.96,-0.853333 0,-0.88 1.2,-0.88 0.16,0 0.26667,0.02667 l 0.98667,0.106666 q 0.42666,0 0.74666,-0.05333 0.69334,-0.05333 0.72,-0.05333 0.77334,0 0.77334,0.8 z"
       id="path37" />
    <path
       d="m 163.47737,50.701672 v -2.24 l -0.0267,-4.24 q 0,-1.973333 -1.36,-1.973333 -0.34667,0 -0.53333,0.05333 -0.42667,0.08 -0.69334,0.08 -0.34666,0 -0.58666,-0.24 -0.24,-0.266666 -0.24,-0.64 0,-0.933333 1.12,-0.933333 0.13333,0 0.4,0.02667 l 1.84,0.186666 q 1.04,0.106667 2.32,0.106667 0.69333,0 2.98666,-0.08 l 3.06667,-0.106667 q 0.61333,-0.02667 1.44,-0.08 0.37333,-0.02667 0.8,-0.02667 1.41333,0 1.41333,1.253333 0,0.48 -0.13333,1.466667 -0.13333,0.986666 -0.13333,1.493333 0,0.426666 0.0533,1.066666 0.0533,0.64 0.0533,1.173334 0,1.093333 -0.96,1.093333 -0.98666,0 -0.98666,-1.253333 0,-0.373334 0.0267,-1.146667 0.0533,-0.773333 0.0533,-1.146667 0,-1.413333 -0.8,-1.786666 -0.8,-0.373333 -3.78667,-0.373333 -2.53333,0 -2.88,0.453333 -0.26667,0.346667 -0.26667,2.453333 v 1.973333 q 0,0.746667 0.18667,0.933334 0.21333,0.16 1.12,0.16 h 0.88 q 1.73333,0 1.73333,-1.28 0,-0.293334 -0.08,-0.8 -0.0533,-0.506667 -0.0533,-0.773334 0,-1.013333 0.96,-1.013333 0.90667,0 0.90667,1.173333 0,0.16 -0.0533,0.64 l -0.16,1.44 q -0.10666,0.96 -0.10666,1.44 0,1.093334 0.24,2.773334 0.08,0.56 0.08,1.066666 0,1.04 -0.96,1.04 -0.90667,0 -0.90667,-1.12 0,-0.266666 0.0267,-0.8 0.0533,-0.533333 0.0533,-0.8 0,-0.826666 -0.45333,-1.066666 -0.29334,-0.186667 -1.22667,-0.186667 h -0.82667 q -0.93333,0 -1.14666,0.213333 -0.21334,0.213334 -0.21334,1.173334 v 3.173333 q 0,1.253333 0.26667,1.706667 0.29333,0.426666 1.06667,0.426666 0.18666,0 0.58666,-0.02667 0.4,-0.02667 0.58667,-0.02667 1.22667,0 1.22667,0.906667 0,0.373333 -0.29334,0.639999 -0.26666,0.266667 -0.66666,0.266667 -0.42667,0 -1.25334,-0.133333 -1.17333,-0.186667 -2.66666,-0.186667 -0.96,0 -2.05334,0.16 l -0.90666,0.133333 q -0.08,0 -0.18667,0.02667 -0.10667,0 -0.16,0 -1.17333,0 -1.17333,-0.96 0,-0.853333 0.82666,-0.853333 0.10667,0 0.69334,0.05333 0.29333,0.08 0.56,0.08 0.72,0 0.98666,-0.426666 0.29334,-0.453334 0.32,-1.573334 z"
       id="path39" />
    <path
       d="m 182.81065,58.915005 q -2.8,0 -4.48,-1.92 -1.68,-1.946666 -1.68,-5.2 0,-3.253333 1.68,-5.173333 1.70667,-1.946667 4.56,-1.946667 2.90667,0 4.58667,1.893334 1.68,1.893333 1.68,5.146666 0,3.253334 -1.73333,5.226667 -1.73334,1.973333 -4.61334,1.973333 z m 0.13334,-12.48 q -1.86667,0 -2.93334,1.306667 -1.06666,1.306667 -1.17333,3.706667 0,0 0,0.346666 0,2.506667 1.04,3.946667 1.06667,1.413333 2.96,1.413333 1.94667,0 3.04,-1.413333 1.12,-1.44 1.12,-3.973333 0,-5.333334 -4.05333,-5.333334 z"
       id="path41" />
    <path
       d="m 192.9973,55.795005 3.70667,-4.24 -3.70667,-4.373333 q -0.37333,-0.426667 -0.90667,-0.426667 -0.21333,0 -0.32,0.02667 l -0.45333,0.106667 q -0.10667,0.02667 -0.37333,0.02667 -0.88,0 -0.88,-0.853333 0,-0.906667 1.09333,-0.906667 h 0.08 q 0.0267,0 1.33333,0.106667 0.66667,0.05333 1.12,0.05333 0.45334,0 1.30667,-0.08 0.85333,-0.08 1.28,-0.08 1.09333,0 1.09333,0.906667 0,0.853333 -1.01333,0.853333 -0.21333,0 -0.4,-0.05333 l -0.4,-0.106667 h -0.16 q -0.10667,0 -0.10667,0.05333 0.0533,0.16 0.24,0.373333 l 2.42667,2.933333 2.53333,-2.933333 q 0.24,-0.266667 0.24,-0.373333 -0.0267,-0.05333 -0.13333,-0.05333 -0.13333,0 -0.45333,0.08 -0.29334,0.08 -0.45334,0.08 -0.96,0 -0.96,-0.906666 0,-0.88 1.12,-0.88 -0.0533,0 1.41334,0.133333 0.58666,0.05333 1.25333,0.05333 0.66667,0 1.41333,-0.08 0.74667,-0.08 1.06667,-0.08 1.17333,0 1.17333,0.906667 0,0.88 -0.90666,0.88 -0.21334,0 -0.61334,-0.106667 -0.4,-0.106666 -0.61333,-0.106666 -0.64,0 -1.76,1.28 l -3.09333,3.52 4.16,4.906666 q 0.37333,0.453334 0.90666,0.453334 0.16,0 0.48,-0.05333 0.34667,-0.05333 0.50667,-0.05333 0.96,0 0.96,0.853333 0,0.933333 -1.12,0.933333 h -0.21333 l -1.04,-0.133333 q -0.42667,-0.05333 -1.28,-0.05333 -0.72,0 -1.44,0.08 l -0.96,0.106666 h -0.29334 q -1.25333,0 -1.25333,-0.853333 0,-0.933333 0.98667,-0.933333 0.34666,0 0.98666,0.106667 0.0533,0.02667 0.18667,0.02667 0.26667,0 0.26667,-0.213333 0,-0.08 -0.08,-0.16 l -0.08,-0.106667 -2.96,-3.466666 -3.01334,3.466666 q -0.18666,0.213334 -0.18666,0.32 0,0.133334 0.26666,0.133334 0.18667,0 0.56,-0.05333 0.37334,-0.05333 0.56,-0.05333 1.14667,0 1.14667,0.933333 0,0.853333 -1.14667,0.853333 h -0.37333 l -1.06667,-0.106666 q -0.8,-0.08 -1.41333,-0.08 -0.48,0 -1.14667,0.08 -0.90666,0.106666 -1.33333,0.106666 -1.12,0 -1.12,-0.906666 0,-0.88 0.96,-0.88 0.16,0 0.48,0.05333 0.32,0.02667 0.48,0.02667 0.50667,0 1.44,-1.066667 z"
       id="path43" />
    <path
       d="m 217.34389,52.515005 q 0,-0.426666 0.37334,-0.72 -0.24,-0.133333 -0.4,-0.133333 -0.58667,0 -1.04,0.64 -0.42667,0.613333 -0.42667,1.44 0,1.466667 1.14667,2.426667 1.14666,0.96 2.93333,0.96 4.02667,0 4.48,-3.626667 0.18667,-1.52 0.18667,-4.186667 v -0.853333 l -0.0267,-4.24 q 0,-1.973333 -1.36,-1.973333 -0.37333,0 -0.56,0.05333 -0.42667,0.08 -0.72,0.08 -0.34667,0 -0.58667,-0.24 -0.24,-0.266666 -0.24,-0.64 0,-0.933333 1.17334,-0.933333 0.16,0 0.37333,0.02667 l 1.41333,0.186666 q 0.8,0.106667 1.65334,0.106667 0.8,0 1.81333,-0.133333 l 1.22667,-0.16 q 0.10666,-0.02667 0.37333,-0.02667 1.17333,0 1.17333,0.933333 0,0.88 -0.85333,0.88 -0.26667,0 -0.72,-0.08 -0.18667,-0.05333 -0.56,-0.05333 -1.36,0 -1.36,1.973333 v 5.093333 q 0,4 -0.32,5.36 -0.29333,1.2 -1.2,2.213334 -1.94667,2.159999 -5.28,2.159999 -2.8,0 -4.56,-1.439999 -1.73333,-1.466667 -1.73333,-3.76 0,-1.706667 1.06666,-2.853334 1.09334,-1.173333 2.69334,-1.173333 1.14666,0 1.86666,0.613333 0.72,0.586667 0.72,1.546667 0,0.666667 -0.42666,1.173333 -0.42667,0.48 -1.01334,0.48 -0.50666,0 -0.90666,-0.32 -0.37334,-0.346666 -0.37334,-0.8 z"
       id="path45" />
    <path
       d="m 241.63721,57.795005 v -0.826666 q -1.41333,1.946666 -4.18667,1.946666 -3.14666,0 -4.37333,-1.946666 -0.53333,-0.853334 -0.58667,-2 -0.0267,-0.56 -0.0267,-2.346667 v -2.213333 q 0,-3.653334 -0.77334,-3.653334 -0.16,0 -0.50666,0.08 -0.34667,0.05333 -0.53334,0.05333 -0.93333,0 -0.93333,-0.88 0,-0.853334 1.14667,-0.853334 0.26666,0 0.77333,0.05333 0.53333,0.05333 0.8,0.05333 0.24,0 0.82667,-0.08 0.4,-0.05333 0.45333,-0.05333 0.82667,0 0.82667,1.013333 v 0.56 l -0.0267,1.733333 -0.08,1.973334 v 1.733333 q 0,2.32 0.37333,3.333333 0.61334,1.68 2.93334,1.68 1.14666,0 2.02666,-0.506666 0.88,-0.533334 1.22667,-1.386667 0.42667,-1.04 0.42667,-3.946667 v -1.466666 q 0,-1.6 0,-1.733334 -0.13334,-1.28 -0.69334,-1.28 -0.29333,0 -0.48,0.05333 h -0.32 q -0.93333,0 -0.93333,-0.826667 0,-0.933333 1.04,-0.933333 0.24,0 0.72,0.05333 0.50667,0.05333 0.74667,0.05333 0.21333,0 0.64,-0.02667 0.42666,-0.05333 0.64,-0.05333 0.8,0 0.8,0.853334 0,0.373333 -0.0533,0.586666 -0.13333,1.013334 -0.13333,2.986667 v 4.106667 q 0,1.626666 0.0267,1.813333 0.13333,1.413333 0.74666,1.413333 0.18667,0 0.53334,-0.05333 0.34666,-0.08 0.53333,-0.08 0.90667,0 0.90667,0.88 0,0.906666 -1.12,0.906666 -0.24,0 -0.69334,-0.05333 -0.66666,-0.08 -0.82666,-0.08 -0.08,0 -0.56,0.05333 -0.32,0.08 -0.56,0.08 -0.74667,0 -0.74667,-0.773333 z"
       id="path47" />
    <path
       d="m 251.26386,45.928339 v 0.773333 q 0.96,-1.146667 1.81333,-1.573333 0.85334,-0.453334 2.13334,-0.453334 2.61333,0 3.84,2.026667 0.90666,-1.12 1.84,-1.573333 0.93333,-0.453334 2.4,-0.453334 1.52,0 2.72,0.64 1.33333,0.72 1.84,2.026667 0.34666,0.88 0.34666,2.773333 v 2.586667 l -0.0267,2 q 0,1.093333 0.0267,1.333333 0.13334,0.96 0.69334,0.96 0.18666,0 0.56,-0.08 0.37333,-0.08 0.56,-0.08 0.93333,0 0.93333,0.8 0,0.933333 -1.06667,0.933333 -0.4,0 -1.22666,-0.106666 -0.8,-0.08 -1.22667,-0.08 -0.45333,0 -1.33333,0.08 -0.85334,0.106666 -1.30667,0.106666 -1.12,0 -1.12,-0.933333 0,-0.8 0.85333,-0.8 0.10667,0 0.53334,0.05333 0.16,0.05333 0.42666,0.05333 0.45334,0 0.56,-0.453333 0.13334,-0.453334 0.16,-2.266667 l 0.0267,-1.626667 v -1.76 q 0,-1.84 -0.29333,-2.666666 -0.26667,-0.853334 -1.04,-1.333334 -0.77334,-0.48 -1.76,-0.48 -1.89334,0 -2.64,1.306667 -0.58667,1.04 -0.58667,3.626667 v 1.893333 q 0,2.506667 0.10667,3.146667 0.13333,0.613333 0.64,0.613333 0.16,0 0.45333,-0.05333 0.32,-0.08 0.48,-0.08 0.37333,0 0.61333,0.266666 0.26667,0.24 0.26667,0.613334 0,0.879999 -1.25333,0.879999 -0.4,0 -1.2,-0.106666 -0.77334,-0.106667 -1.17334,-0.106667 -0.56,0 -1.22666,0.106667 -0.66667,0.106666 -1.17334,0.106666 -1.09333,0 -1.09333,-0.906666 0,-0.826667 0.8,-0.826667 0.29333,0 0.45333,0.05333 0.37334,0.08 0.56,0.08 0.64,0 0.66667,-1.36 l 0.0267,-1.253334 q 0.0267,-0.586666 0.0267,-1.146666 0.0267,-0.48 0.0267,-0.506667 v -2.213333 q 0,-2.32 -0.64,-3.226667 -0.61333,-0.906667 -2.21333,-0.906667 -1.76,0 -2.69334,1.28 -0.77333,1.04 -0.77333,3.626667 v 3.546667 q 0,1.066666 0.0267,1.253333 0.10666,0.906667 0.58666,0.906667 0.13334,0 0.56,-0.106667 0.0533,0 0.16,-0.02667 0.10667,0 0.18667,0 1.04,0 1.04,0.88 0,0.853333 -1.2,0.853333 -0.45333,0 -1.12,-0.08 -0.90667,-0.106666 -1.54667,-0.106666 -0.32,0 -1.17333,0.08 -1.14667,0.106666 -1.38667,0.106666 -1.06666,0 -1.06666,-0.906666 0,-0.826667 1.01333,-0.826667 0.0533,0 0.16,0 0.10667,0.02667 0.16,0.02667 l 0.66667,0.133333 q 0.0267,0.02667 0.10666,0.02667 0.72,0 0.77334,-1.306667 l 0.0533,-1.52 v -4.08 q 0,-2.266666 -0.13333,-2.826666 -0.10667,-0.56 -0.64,-0.56 -0.10667,0 -0.74667,0.133333 -0.26667,0.05333 -0.42667,0.05333 -0.98666,0 -0.98666,-0.853333 0,-0.906667 1.09333,-0.906667 0.29333,0 0.8,0.05333 0.50667,0.05333 0.88,0.05333 0.13333,0 0.29333,-0.02667 0.16,0 0.18667,0 l 0.64,-0.08 h 0.08 q 0.64,0 0.64,0.773334 z"
       id="path49" />
    <path
       d="m 275.37049,45.901672 v 0.853333 q 1.49334,-2.08 4.08,-2.08 2.66667,0 4.24,1.84 1.57334,1.84 1.57334,4.986667 0,3.386667 -1.68,5.413333 -1.65334,2 -4.45334,2 -2.32,0 -3.76,-1.626666 v 2.213333 q 0,1.013333 0.0533,1.306666 0.16,0.826667 0.77333,0.826667 0.18667,0 0.56,-0.08 0.37333,-0.08 0.56,-0.08 0.85333,0 0.85333,0.88 0,0.88 -1.12,0.88 -0.4,0 -1.2,-0.106667 -0.58666,-0.08 -1.76,-0.08 -0.64,0 -1.06666,0.05333 -1.06667,0.133333 -1.41334,0.133333 -0.45333,0 -0.77333,-0.293333 -0.32,-0.266667 -0.32,-0.64 0,-0.853334 0.90667,-0.853334 0.16,0 0.50666,0.08 0.45334,0.106667 0.66667,0.106667 0.50667,0 0.61333,-0.533333 0.13334,-0.506667 0.16,-2.88 l 0.0267,-10.293333 q -0.0267,-1.226667 -0.69333,-1.226667 -0.18667,0 -0.58667,0.106667 -0.37333,0.08 -0.58667,0.08 -0.98666,0 -0.98666,-0.88 0,-0.853334 1.17333,-0.853334 0.29333,0 0.64,0.02667 0.66667,0.05333 0.98667,0.05333 0.24,0 0.69333,-0.02667 0.45333,-0.05333 0.66667,-0.05333 0.66666,0 0.66666,0.746667 z m 0.4,3.253333 q -0.24,1.04 -0.26666,2.533334 0,0.106666 -0.0267,0.4 0,0.24 0,0.373333 0,1.786667 0.29333,2.613333 0.29334,0.8 1.14667,1.44 0.88,0.64 2.16,0.64 1.92,0 2.96,-1.386666 1.06667,-1.413334 1.06667,-4 0,-5.333334 -3.78667,-5.333334 -1.28,0 -2.29333,0.773334 -0.98667,0.773333 -1.25334,1.946666 z"
       id="path51" />
    <path
       d="m 292.94378,44.675005 q 1.78667,0 2.98667,0.933334 v -0.106667 q 0,-0.986667 0.85333,-0.986667 0.88,0 0.88,0.853334 0,0.16 -0.0533,0.8 -0.10667,0.533333 -0.10667,1.066666 0,0.32 0.08,0.933334 0.10667,0.613333 0.10667,0.933333 0,1.013333 -0.88,1.013333 -0.85334,0 -0.88,-0.853333 l -0.0267,-0.88 q -0.0267,-0.8 -0.93333,-1.36 -0.88,-0.586667 -2.08,-0.586667 -1.22667,0 -2.05334,0.64 -0.82666,0.613334 -0.82666,1.546667 0,1.706667 2.34666,2.026667 l 1.54667,0.213333 q 4.53333,0.613333 4.53333,3.76 0,1.92 -1.46666,3.12 -1.46667,1.173333 -3.84,1.173333 -2.21334,0 -3.84,-1.253333 0.0267,0.266667 0.0267,0.506667 0,0.959999 -0.90666,0.959999 -0.98667,0 -0.98667,-1.093333 0,0.186667 0.16,-1.386666 0.0533,-0.373334 0.0533,-0.746667 0,-0.64 -0.10666,-1.2 -0.10667,-0.56 -0.10667,-0.88 0,-0.933333 0.85333,-0.933333 0.56,0 0.69334,0.266666 0.16,0.266667 0.18666,1.413334 0.0267,1.146666 1.2,1.866666 1.17334,0.72 2.98667,0.72 1.30667,0 2.16,-0.666666 0.85333,-0.666667 0.85333,-1.68 0,-1.813334 -2.88,-2.106667 -2.74666,-0.293333 -4.18666,-1.066667 -1.44,-0.8 -1.44,-2.773333 0,-1.866667 1.41333,-3.013333 1.41333,-1.173334 3.68,-1.173334 z"
       id="path53" />
    <path
       d="m 314.75702,59.048338 q -3.54666,0 -5.62666,-2.559999 -2.05334,-2.56 -2.05334,-6.933334 0,-4.426666 2.08,-6.933333 2.08,-2.533333 5.73334,-2.533333 3.49333,0 5.54666,2.453333 2.08,2.453333 2.08,6.64 0,4.533333 -2.10666,7.2 -2.08,2.666666 -5.65334,2.666666 z m 0.0533,-17.039999 q -2.56,0 -3.97334,1.973333 -1.41333,1.973333 -1.41333,5.546667 0,3.626666 1.41333,5.626666 1.41334,1.973334 3.94667,1.973334 2.48,0 3.92,-2.053334 1.46667,-2.08 1.46667,-5.626666 0,-3.573334 -1.38667,-5.493333 -1.38667,-1.946667 -3.97333,-1.946667 z"
       id="path55" />
    <path
       d="m 328.54367,48.301672 3.12,8.32 3.01333,-8.32 q 0.26667,-0.746667 0.26667,-0.96 0,-0.586667 -0.56,-0.586667 -0.21334,0 -0.64,0.106667 -0.4,0.08 -0.61334,0.08 -0.88,0 -0.88,-0.88 0,-0.933333 1.28,-0.933333 0.0533,0 0.21334,0 0.13333,0.02667 0.21333,0.02667 l 1.12,0.16 q 0.37333,0.05333 0.77333,0.05333 0.53334,0 1.76,-0.133334 0.74667,-0.08 1.06667,-0.08 1.14667,0 1.14667,0.88 0,0.88 -0.93334,0.88 -0.29333,0 -0.42666,-0.05333 -0.4,-0.08 -0.56,-0.08 -0.48,0 -0.98667,1.28 l -3.76,9.6 q -0.48,1.226666 -1.62667,1.226666 -1.09333,0 -1.57333,-1.226666 l -3.84,-9.866667 q -0.37333,-0.986666 -0.88,-0.986666 -0.18667,0 -0.56,0.08 -0.37333,0.08 -0.56,0.08 -0.88,0 -0.88,-0.826667 0,-0.96 1.22667,-0.96 0.21333,0 0.32,0.02667 l 1.12,0.106666 q 0.56,0.05333 1.12,0.05333 0.45333,0 1.33333,-0.08 l 0.88,-0.08 q 0.13333,-0.02667 0.37333,-0.02667 1.17334,0 1.17334,0.906667 0,0.853333 -1.01334,0.853333 -0.32,0 -0.45333,-0.02667 -0.50667,-0.106666 -0.64,-0.106666 -0.42667,0 -0.42667,0.373333 0,0.186667 0.10667,0.533333 z"
       id="path57" />
    <path
       d="m 352.33028,50.621672 q 0,1.013333 -0.13334,1.253333 -0.13333,0.213334 -0.77333,0.213334 h -8.48 q -0.34667,0 -0.45333,0.106666 -0.10667,0.08 -0.10667,0.293334 0,2 1.2,3.333333 1.2,1.333333 2.98667,1.333333 1.17333,0 2.13333,-0.64 0.98667,-0.64 1.28,-1.626666 l 0.24,-0.773334 q 0.18667,-0.64 0.88,-0.64 0.98667,0 0.98667,1.013334 0,1.733333 -1.76,3.093333 -1.76,1.333333 -4,1.333333 -2.8,0 -4.45334,-1.866666 -1.65333,-1.893334 -1.65333,-5.066667 0,-3.253333 1.76,-5.28 1.76,-2.026667 4.58667,-2.026667 2.50666,0 4.13333,1.68 1.62667,1.68 1.62667,4.266667 z m -9.68,-0.693333 q 0,0.373333 0.58666,0.373333 h 6.37334 q 0.56,0 0.56,-0.373333 0,-1.413334 -1.06667,-2.453334 -1.06667,-1.04 -2.50667,-1.04 -1.49333,0 -2.72,1.093334 -1.22666,1.066666 -1.22666,2.4 z"
       id="path59" />
    <path
       d="m 358.33028,45.901672 v 0.72 q 1.38666,-1.946667 3.70666,-1.946667 1.86667,0 3.01334,1.066667 1.17333,1.04 1.17333,2.693333 0,1.173334 -0.58667,1.92 -0.58666,0.72 -1.54666,0.72 -0.61334,0 -1.04,-0.373333 -0.42667,-0.373333 -0.42667,-0.906667 0,-0.426666 0.32,-0.746666 0.32,-0.346667 0.74667,-0.346667 0.08,0 0.34666,0.08 0.16,-0.32 0.16,-0.586667 0,-0.773333 -0.69333,-1.306666 -0.66667,-0.533334 -1.68,-0.533334 -2.08,0 -2.77333,1.866667 -0.42667,1.146667 -0.42667,3.466667 v 1.76 q 0,1.786666 0.0267,2 0.13333,1.52 0.82666,1.52 0.34667,0 0.72,-0.106667 0.29334,-0.08 0.50667,-0.08 0.85333,0 0.85333,0.853333 0,0.933333 -1.09333,0.933333 h -0.10667 q -0.4,0 -1.22666,-0.106666 -0.8,-0.08 -1.2,-0.08 -1.06667,0 -1.68,0.05333 l -1.49334,0.133333 q -1.09333,0 -1.09333,-0.933333 0,-0.826666 1.01333,-0.826666 0.26667,0 0.4,0.02667 l 0.4,0.08 q 0.26667,0.05333 0.37334,0.05333 0.66666,0 0.72,-1.226667 l 0.0533,-1.36 -0.08,-6.053333 q -0.08,-1.573334 -0.8,-1.573334 -0.21333,0 -0.58667,0.08 -0.37333,0.08 -0.58666,0.08 -0.88,0 -0.88,-0.853333 0,-0.933333 1.14666,-0.933333 0.26667,0 0.8,0.08 0.53334,0.05333 0.8,0.05333 0.21334,0 0.69334,-0.05333 0.21333,-0.05333 0.50666,-0.05333 0.69334,0 0.69334,0.746667 z"
       id="path61" />
    <path
       d="m 169.0507,88.275008 q 0,2 1.36,2 0.21333,0 0.64,-0.05333 0.42667,-0.08 0.64,-0.08 0.34667,0 0.58667,0.266667 0.26666,0.24 0.26666,0.586667 0,0.933333 -1.2,0.933333 -0.0533,0 -0.16,0 -0.13333,-0.02667 -0.18666,-0.02667 l -1.30667,-0.186666 q -0.74667,-0.106667 -1.68,-0.106667 -1.01333,0 -1.78667,0.106667 l -1.33333,0.186666 q -0.08,0 -0.18667,0.02667 -0.13333,0 -0.18666,0 -1.17334,0 -1.17334,-0.933333 0,-0.853334 0.85334,-0.853334 0.21333,0 0.64,0.08 0.42666,0.05333 0.64,0.05333 1.33333,0 1.33333,-2 v -1.866667 l 0.0267,-2.346666 v -2.266667 l -0.0267,-4.346667 q 0,-1.893333 -1.94667,-1.893333 h -0.82666 q -1.92,0 -1.92,1.866667 0,0.666666 0.0267,0.906666 l 0.10667,0.986667 q 0.0267,0.24 0.0267,0.666667 0,1.68 -1.04,1.68 -0.98667,0 -0.98667,-1.226667 0,-0.346667 0.0533,-1.2 0.08,-1.28 0.08,-1.626667 0,-0.666666 -0.0533,-1.386666 -0.10667,-1.413334 -0.10667,-1.2 0,-1.12 1.01334,-1.12 0.37333,0 1.73333,0.08 0.13333,0 2.18667,0.05333 l 3.04,0.05333 q 0.53333,0 2.85333,-0.05333 0.50667,0 1.73333,-0.08 1.09334,-0.08 1.70667,-0.08 1.33333,0 1.33333,1.093333 v 0.05333 q 0,0.266666 -0.08,0.986666 -0.0533,0.72 -0.13333,1.546667 v 0.293333 q 0,0.4 0.08,1.253334 0.10667,1.12 0.10667,1.386666 0,1.093334 -1.04,1.093334 -1.01334,0 -1.01334,-1.333334 0,-0.48 0.08,-1.413333 0.08,-0.96 0.08,-1.44 0,-1.84 -2.10666,-1.84 h -0.74667 q -0.98667,0 -1.41333,0.426667 -0.42667,0.4 -0.48,1.36 l -0.08,1.866666 z"
       id="path63" />
    <path
       d="m 181.74401,74.621675 -0.10667,5.173333 q 1.06667,-1.013333 1.94667,-1.386667 0.88,-0.4 2.08,-0.4 2.29333,0 3.68,1.306667 1.38667,1.306667 1.38667,3.44 v 4.453333 q 0,1.573333 0.0267,1.733333 0.10667,1.333334 0.69334,1.333334 0.21333,0 0.61333,-0.106667 0.16,-0.02667 0.42667,-0.02667 0.98666,0 0.98666,0.88 0,0.88 -1.28,0.88 -0.34666,0 -1.01333,-0.08 -1.12,-0.133333 -1.81333,-0.133333 -0.69334,0 -1.06667,0.05333 -1.12,0.16 -1.38667,0.16 -0.48,0 -0.8,-0.266666 -0.32,-0.293334 -0.32,-0.72 0,-0.346667 0.26667,-0.586667 0.29333,-0.24 0.66667,-0.24 0.29333,0 0.69333,0.133333 0.24,0.08 0.45333,0.08 0.8,0 0.82667,-1.733333 0,-0.32 0.0267,-1.253333 l 0.0267,-1.146667 v -1.44 q 0,-2.72 -0.53333,-3.653333 -0.77333,-1.386667 -2.72,-1.386667 -2.10667,0 -3.06667,1.44 -0.66666,0.986667 -0.69333,3.173334 l -0.0267,1.92 q 0,0.16 -0.0267,0.533333 0,0.346666 0,0.506666 0,1.52 0.0267,1.76 0.13334,1.306667 0.77334,1.306667 0.21333,0 0.58666,-0.08 0.4,-0.106667 0.58667,-0.106667 0.85333,0 0.85333,0.826667 0,0.933333 -1.17333,0.933333 -0.37333,0 -1.12,-0.08 -1.01333,-0.106666 -1.73333,-0.106666 -0.45334,0 -1.25334,0.08 -1.06666,0.106666 -1.36,0.106666 -1.09333,0 -1.09333,-0.96 0,-0.8 1.01333,-0.8 0.34667,0 0.50667,0.05333 0.45333,0.08 0.64,0.08 0.42667,0 0.56,-0.8 0.16,-0.826667 0.18667,-3.333333 l 0.0267,-4.773334 q 0,-4 -0.16,-5.04 -0.16,-1.066666 -0.74666,-1.066666 -0.18667,0 -0.56,0.08 -0.37334,0.08 -0.58667,0.08 -0.90667,0 -0.90667,-0.853334 0,-0.373333 0.32,-0.64 0.32,-0.266666 0.77334,-0.266666 0.13333,0 0.90666,0.08 0.50667,0.05333 1.09334,0.05333 0.24,0 0.66666,-0.05333 0.42667,-0.05333 0.61334,-0.05333 0.61333,0 0.61333,0.88 z"
       id="path65" />
    <path
       d="m 206.65065,83.955008 q 0,1.013333 -0.13333,1.253333 -0.13333,0.213334 -0.77333,0.213334 h -8.48 q -0.34667,0 -0.45334,0.106666 -0.10666,0.08 -0.10666,0.293334 0,1.999999 1.2,3.333333 1.2,1.333333 2.98666,1.333333 1.17334,0 2.13334,-0.64 0.98666,-0.64 1.28,-1.626667 l 0.24,-0.773333 q 0.18666,-0.64 0.88,-0.64 0.98666,0 0.98666,1.013333 0,1.733334 -1.76,3.093334 -1.76,1.333333 -4,1.333333 -2.8,0 -4.45333,-1.866667 -1.65333,-1.893333 -1.65333,-5.066666 0,-3.253333 1.76,-5.28 1.76,-2.026667 4.58666,-2.026667 2.50667,0 4.13334,1.68 1.62666,1.68 1.62666,4.266667 z m -9.68,-0.693333 q 0,0.373333 0.58667,0.373333 h 6.37333 q 0.56,0 0.56,-0.373333 0,-1.413334 -1.06666,-2.453334 -1.06667,-1.04 -2.50667,-1.04 -1.49333,0 -2.72,1.093334 -1.22667,1.066666 -1.22667,2.4 z"
       id="path67" />
    <path
       d="m 220.46393,87.955008 q 0,1.573333 0.32,1.866666 0.24,0.24 0.61334,0.293334 0.4,0.05333 1.76,0.05333 h 2.34666 q 1.84,0 2.45334,-0.48 0.61333,-0.506667 0.61333,-2 0,-0.4 -0.0267,-0.933333 -0.0533,-1.04 -0.0533,-1.253333 0,-1.173334 0.93333,-1.173334 1.12,0 1.12,1.066667 0,0.32 -0.0267,0.506667 l -0.18667,1.359999 q -0.08,0.586667 -0.08,1.226667 0,0.373333 0.0533,1.12 0.08,0.72 0.08,1.093333 0,1.2 -1.36,1.2 -0.26666,0 -1.22666,-0.05333 -0.64,-0.02667 -1.97334,-0.05333 l -2,-0.02667 h -4.26666 q -0.64,0 -2.13334,0.05333 -0.21333,0 -0.74666,0.05333 -0.50667,0.05333 -0.8,0.05333 -1.12,0 -1.12,-0.96 0,-0.853333 0.82666,-0.853333 0.21334,0 0.64,0.08 0.42667,0.05333 0.64,0.05333 1.36,0 1.36,-2 V 77.555008 q 0,-1.973333 -1.36,-1.973333 -0.37333,0 -0.56,0.05333 -0.42666,0.08 -0.72,0.08 -0.34666,0 -0.58666,-0.24 -0.24,-0.266667 -0.24,-0.64 0,-0.933333 1.14666,-0.933333 0.16,0 0.4,0.02667 l 1.41334,0.16 q 1.17333,0.133334 1.73333,0.133334 0.69333,0 1.70667,-0.133334 l 1.22666,-0.16 q 0.21334,-0.02667 0.34667,-0.02667 1.2,0 1.2,0.933333 0,0.373333 -0.24,0.64 -0.24,0.24 -0.58667,0.24 -0.26666,0 -0.72,-0.08 -0.18666,-0.05333 -0.56,-0.05333 -1.36,0 -1.36,1.973333 z"
       id="path69" />
    <path
       d="m 243.74391,92.141674 q -2.18667,0 -2.69333,-1.893333 -1.36,2 -4.26667,2 -2.16,0 -3.46667,-1.066667 -1.28,-1.066666 -1.28,-2.853333 0,-2.213333 1.89334,-3.253333 0.72,-0.4 1.22666,-0.506667 0.53334,-0.133333 2.10667,-0.32 2.24,-0.24 2.90667,-0.666666 0.69333,-0.426667 0.69333,-1.573334 0,-1.093333 -0.77333,-1.706666 -0.74667,-0.64 -2.10667,-0.64 -1.2,0 -2.24,0.666666 -0.4,0.266667 -0.4,0.56 0,0.106667 0.24,0.266667 0.37333,0.266667 0.37333,0.906667 0,0.533333 -0.4,0.88 -0.37333,0.346666 -0.96,0.346666 -0.69333,0 -1.17333,-0.48 -0.45333,-0.48 -0.45333,-1.173333 0,-1.493333 1.46666,-2.56 1.49334,-1.066667 3.6,-1.066667 4.85334,0 4.85334,4.666667 v 5.386666 q 0,1.28 0.0533,1.52 0.16,0.933334 0.90667,0.933334 0.93333,0 0.93333,-1.706667 v -1.306667 q 0,-0.853333 0.82667,-0.853333 0.88,0 0.88,1.28 v 0.133333 l -0.0267,1.52 q -0.0533,2.56 -2.72,2.56 z m -2.96,-5.306666 0.0267,-1.893333 q -0.58667,0.533333 -1.25334,0.746666 -0.64,0.213334 -2.32,0.373334 -3.04,0.293333 -3.04,2.239999 0,1.013334 0.72,1.6 0.74667,0.586667 2,0.586667 1.78667,0 2.8,-0.96 1.04,-0.986667 1.06667,-2.693333 z"
       id="path71" />
    <path
       d="m 247.85055,89.048341 8.69334,-8.8 h -4.08 q -2,0 -2.50667,0.133334 -0.50667,0.106666 -0.50667,0.613333 0,0.213333 0.0533,0.48 0.13333,0.693333 0.13333,1.306667 0,1.013333 -0.88,1.013333 -0.90667,0 -0.90667,-1.173333 0,-0.506667 0.0267,-0.693334 0.10667,-0.8 0.10667,-1.146666 0,-0.266667 -0.10667,-0.773334 -0.08,-0.533333 -0.08,-0.8 0,-0.826666 1.33333,-0.826666 0.42667,0 1.14667,0.02667 0.82667,0.05333 1.14667,0.05333 l 1.6,0.02667 h 4.53333 q 1.73333,0 1.73333,1.226667 0,0.56 -1.01333,1.573333 l -8.64,8.72 h 6.34667 q 1.57333,0 1.57333,-0.906667 v -0.506666 q 0,-0.453334 -0.0533,-0.773334 -0.0533,-1.013333 -0.0533,-0.96 0,-0.453333 0.26667,-0.746666 0.26667,-0.32 0.66667,-0.32 0.85333,0 0.85333,1.013333 0,0.453333 -0.0533,0.933333 -0.10667,0.96 -0.10667,1.386667 0,0.293333 0.0533,0.853333 0.08,0.56 0.08,0.853334 0,1.04 -1.17333,1.013333 l -1.62667,-0.05333 h -7.68 q -0.66666,0 -1.09333,-0.4 -0.42667,-0.4 -0.42667,-1.013334 0,-0.693333 0.64,-1.333333 z"
       id="path73" />
    <path
       d="m 265.58388,81.021675 3.06667,9.013333 3.25333,-8.88 q 0.13334,-0.373333 0.13334,-0.586667 0,-0.453333 -0.61334,-0.453333 -0.32,0 -0.50666,0.05333 -0.42667,0.05333 -0.56,0.05333 -0.88,0 -0.88,-0.853334 0,-0.906666 1.14666,-0.906666 0.16,0 0.53334,0.05333 l 0.96,0.133333 q 0.37333,0.05333 0.8,0.05333 0.45333,0 1.33333,-0.106667 0.88,-0.106667 1.33333,-0.106667 1.14667,0 1.14667,0.88 0,0.853334 -0.88,0.853334 -0.26667,0 -0.4,-0.05333 -0.34667,-0.08 -0.48,-0.08 -0.50667,0 -1.04,1.36 l -3.62667,9.066667 q -1.2,3.013333 -2.26666,4.373333 -1.81334,2.32 -4.53334,2.32 -1.62666,0 -2.74666,-0.826667 -1.09334,-0.826666 -1.09334,-2 0,-0.826666 0.48,-1.36 0.48,-0.506666 1.25334,-0.506666 0.61333,0 1.01333,0.346666 0.4,0.373334 0.4,0.906667 0,0.853333 -0.77333,1.093333 0.4,0.586667 1.52,0.586667 1.41333,0 2.53333,-1.066667 1.14667,-1.04 1.14667,-2.346666 0,-0.666667 -0.72,-2.48 l -2.93334,-7.413333 q 0,0 -0.32,-0.853334 -0.45333,-1.2 -1.04,-1.2 -0.16,0 -0.58666,0.08 -0.4,0.08 -0.53334,0.08 -0.93333,0 -0.93333,-0.853333 0,-0.906667 1.22667,-0.906667 0.4,0 0.61333,0.02667 l 1.06667,0.133333 q 0.0267,0 0.21333,0 0.18667,0.02667 0.32,0.02667 0.96,0 2.05333,-0.106667 0.82667,-0.08 1.09334,-0.08 1.12,0 1.12,0.88 0,0.88 -1.01334,0.88 -0.16,0 -0.50666,-0.05333 -0.34667,-0.08 -0.50667,-0.08 -0.37333,0 -0.37333,0.373333 0,0.213334 0.10666,0.533334 z"
       id="path75" />
    <path
       d="m 287.02382,77.555008 q 0,-2 -1.36,-2 -0.24,0 -0.56,0.05333 -0.48,0.08 -0.72,0.08 -0.82666,0 -0.82666,-0.853333 0,-0.933333 1.2,-0.933333 0.13333,0 0.34666,0.02667 l 1.41334,0.186667 q 0.8,0.106667 1.70666,0.106667 0.74667,0 1.49334,-0.08 l 1.73333,-0.186667 q 0.50667,-0.05333 1.33333,-0.05333 2.42667,0 4.05334,0.693333 2.13333,0.906667 3.36,3.146667 1.25333,2.24 1.25333,5.2 0,2.613333 -0.98667,4.719999 -0.98666,2.08 -2.69333,3.066667 -2.05333,1.2 -4.96,1.2 -0.58667,0 -1.2,-0.05333 l -1.84,-0.16 q -0.93333,-0.08 -1.94667,-0.08 -0.88,0 -1.44,0.08 l -1.28,0.186666 q -0.0533,0 -0.18666,0.02667 -0.13334,0 -0.21334,0 -1.14666,0 -1.14666,-0.933333 0,-0.373334 0.24,-0.613334 0.24,-0.266666 0.58666,-0.266666 0.29334,0 0.72,0.08 0.18667,0.05333 0.56,0.05333 1.36,0 1.36,-2 z m 2.24,-0.266667 v 11.28 q 0,1.226667 1.2,1.493333 0.4,0.106667 2.24,0.106667 3.2,0 4.64,-1.733333 1.73334,-2.08 1.73334,-5.493333 0,-2.666667 -1.06667,-4.506667 -1.04,-1.866667 -2.88,-2.4 -1.17333,-0.346667 -2.82667,-0.346667 -2.10666,0 -2.58666,0.24 -0.45334,0.24 -0.45334,1.36 z"
       id="path77" />
    <path
       d="m 309.63712,92.248341 q -2.8,0 -4.48,-1.92 -1.68,-1.946667 -1.68,-5.2 0,-3.253333 1.68,-5.173333 1.70667,-1.946667 4.56,-1.946667 2.90667,0 4.58667,1.893334 1.68,1.893333 1.68,5.146666 0,3.253333 -1.73333,5.226667 -1.73334,1.973333 -4.61334,1.973333 z m 0.13334,-12.48 q -1.86667,0 -2.93334,1.306667 -1.06666,1.306667 -1.17333,3.706667 0,0 0,0.346666 0,2.506667 1.04,3.946667 1.06667,1.413333 2.96,1.413333 1.94667,0 3.04,-1.413333 1.12,-1.44 1.12,-3.973333 0,-5.333334 -4.05333,-5.333334 z"
       id="path79" />
    <path
       d="m 324.38377,78.008341 q 0.69334,0 1.57334,0.213334 0.13333,-2.613334 3.04,-2.613334 1.22666,0 2.05333,0.64 0.82667,0.64 0.82667,1.626667 0,0.64 -0.42667,1.093333 -0.4,0.453334 -0.96,0.453334 -0.42667,0 -0.74667,-0.293334 -0.32,-0.293333 -0.32,-0.693333 0,-0.426667 0.58667,-0.88 -0.42667,-0.533333 -1.09333,-0.533333 -1.41334,0 -1.44,1.76 2.02666,1.36 2.02666,3.653333 0,1.84 -1.38666,3.066667 -1.38667,1.226666 -3.46667,1.226666 -1.46667,0 -3.04,-0.693333 -0.42667,-0.186667 -0.72,-0.186667 -0.37333,0 -0.66667,0.346667 -0.29333,0.32 -0.29333,0.773333 0,1.386667 2.8,1.386667 h 0.16 q 0.21333,0 0.48,-0.02667 0.26667,0 0.32,0 2.53333,0 4.10667,0.48 1.46666,0.453333 2.32,1.413333 0.85333,0.96 0.85333,2.16 0,1.946667 -1.81333,3.066667 -1.78667,1.146667 -4.85334,1.146667 -3.06666,0 -4.82666,-1.066667 -1.73334,-1.066667 -1.73334,-2.933333 0,-2.16 2.42667,-3.066667 -2.16,-0.853333 -2.16,-2.56 0,-1.866666 2.16,-2.56 -0.69333,-0.933333 -0.69333,-2.186666 0,-1.813334 1.38666,-3.013334 1.41334,-1.2 3.52,-1.2 z m 0.08,1.76 q -1.17333,0 -2,0.693334 -0.82666,0.693333 -0.90666,1.733333 0,0 0,0.16 0,1.173333 0.8,1.893333 0.8,0.72 2.08,0.72 1.33333,0 2.16,-0.72 0.85333,-0.72 0.85333,-1.84 0,-1.146666 -0.85333,-1.893333 -0.85334,-0.746667 -2.13334,-0.746667 z m 0.0267,10.346667 q -2.13333,0 -3.36,0.64 -1.22667,0.64 -1.22667,1.733333 0,1.093333 1.2,1.706667 1.2,0.64 3.22667,0.64 2.13333,0 3.36,-0.64 1.25333,-0.64 1.25333,-1.706667 0,-1.12 -1.17333,-1.733333 -1.17333,-0.64 -3.28,-0.64 z"
       id="path81" />
  </g>
</svg>
