<?xml version="1.0" encoding="UTF-8" standalone="no"?>
<svg
   xmlns:dc="http://purl.org/dc/elements/1.1/"
   xmlns:cc="http://creativecommons.org/ns#"
   xmlns:rdf="http://www.w3.org/1999/02/22-rdf-syntax-ns#"
   xmlns:svg="http://www.w3.org/2000/svg"
   xmlns="http://www.w3.org/2000/svg"
   viewBox="160.807 6.40437 236.016 90.7552"
   version="1.1"
   id="svg2">
  <metadata
     id="metadata11">
    <rdf:RDF>
      <cc:Work
         rdf:about="">
        <dc:format>image/svg+xml</dc:format>
        <dc:type
           rdf:resource="http://purl.org/dc/dcmitype/StillImage" />
      </cc:Work>
    </rdf:RDF>
  </metadata>
  <defs
     id="defs9" />
  <g
     aria-label="The Quick BrownFox Jumps OverThe Lazy Dog"
     id="text4521"
     style="font-style:normal;font-variant:normal;font-weight:normal;font-stretch:normal;font-size:26.6667px;line-height:125%;font-family:'Andale Mono', monospace;font-variant-ligatures:normal;font-variant-caps:normal;font-variant-numeric:normal;font-feature-settings:normal;text-align:left;letter-spacing:0px;word-spacing:0px;writing-mode:lr-tb;text-anchor:start;fill:#000000;fill-opacity:1;stroke:none;stroke-width:1px;stroke-linecap:butt;stroke-linejoin:miter;stroke-opacity:1">
    <path
       d="m 174.2833,8.4877113 h -5.66406 V 25.128336 h -2.12239 V 8.4877113 h -5.69011 V 6.7559406 h 13.47656 z"
       id="path13" />
    <path
       d="m 188.78851,25.128336 h -2.03125 v -8.697917 q 0,-1.809895 -0.58594,-2.617187 -0.57291,-0.820312 -1.80989,-0.820312 -1.86198,0 -3.9974,2.317708 v 9.817708 h -2.03125 V 6.7559406 h 2.03125 v 6.7968744 q 2.1875,-2.317708 4.60938,-2.317708 3.8151,0 3.8151,4.609375 z"
       id="path15" />
    <path
       d="m 205.19476,18.409586 h -9.30989 q 0,2.304688 1.32812,3.802083 1.34115,1.497396 3.28125,1.497396 1.84896,0 3.8151,-0.664062 l 0.35157,1.627604 q -1.79688,0.807291 -4.19271,0.807291 -3.02083,0 -4.86979,-1.940104 -1.84896,-1.940104 -1.84896,-5.234375 0,-3.229166 1.65365,-5.143229 1.66666,-1.927083 4.29687,-1.927083 2.34375,0 3.91927,1.783854 1.57552,1.783854 1.57552,4.752604 z m -2.21354,-1.653646 q 0,-1.588541 -0.98958,-2.66927 -0.98959,-1.09375 -2.21354,-1.09375 -1.57553,0 -2.61719,1.041666 -1.02865,1.041667 -1.14584,2.721354 z"
       id="path17" />
    <path
       d="m 238.31976,28.16219 q -1.13281,0.351563 -2.23958,0.351563 -2.86459,0 -3.71094,-3.125 -0.50781,0.09114 -0.85938,0.09114 -3.07291,0 -4.70052,-2.434895 -1.61458,-2.447917 -1.61458,-7.096354 0,-4.648438 1.61458,-7.0963543 1.61459,-2.4479166 4.70052,-2.4479166 3.08594,0 4.70053,2.4479166 1.6276,2.4348953 1.6276,7.0963543 0,6.770833 -3.38542,8.802083 0.48177,1.901041 1.83594,1.901041 0.75521,0 1.65365,-0.195312 z m -6.8099,-4.557292 q 4.0625,0 4.0625,-7.656249 0,-7.669271 -4.0625,-7.669271 -1.97916,0 -3.02083,1.992187 -1.02864,1.979167 -1.02864,5.677084 0,3.736979 1.02864,5.703125 1.02865,1.953124 3.02083,1.953124 z"
       id="path19" />
    <path
       d="m 252.77288,25.128336 h -2.03125 v -2.005208 q -2.1875,2.330729 -4.60937,2.330729 -3.81511,0 -3.81511,-4.622396 v -9.270833 h 2.03125 v 8.684896 q 0,1.73177 0.54688,2.591145 0.54687,0.846354 1.84896,0.846354 1.86198,0 3.99739,-2.317708 v -9.804687 h 2.03125 z"
       id="path21" />
    <path
       d="m 264.42653,6.4304197 q 0.57292,0 0.97657,0.4166667 0.40364,0.4036458 0.40364,0.9765625 0,0.5989583 -0.40364,1.0026041 -0.39063,0.4036458 -0.97657,0.4036458 -0.53385,0 -0.95052,-0.4166666 -0.40364,-0.4296875 -0.40364,-0.9895833 0,-0.5598959 0.40364,-0.9765625 0.41667,-0.4166667 0.95052,-0.4166667 z m 0.98959,18.6979163 h -2.03125 V 13.31844 h -3.9974 v -1.757812 h 6.02865 z"
       id="path23" />
    <path
       d="m 284.75205,24.672607 q -1.77083,0.807291 -3.89323,0.807291 -3.20312,0 -5.11718,-1.940104 -1.90105,-1.953125 -1.90105,-5.182291 0,-3.229167 1.91407,-5.169271 1.92708,-1.953125 5.05208,-1.953125 2.04427,0 3.89323,0.716146 l -0.53386,1.679687 q -1.84895,-0.63802 -3.33333,-0.63802 -2.23958,0 -3.55469,1.445312 -1.30208,1.445313 -1.30208,3.919271 0,2.265625 1.35417,3.815104 1.35416,1.536458 3.52864,1.536458 1.71875,0 3.54167,-0.664062 z"
       id="path25" />
    <path
       d="m 302.13486,25.128336 h -2.66927 l -5.75521,-6.744792 -1.32812,1.145834 v 5.598958 h -2.03125 V 6.7559406 h 2.03125 V 17.289794 l 6.36719,-5.729166 h 2.59114 l -6.18489,5.546875 z"
       id="path27" />
    <path
       d="m 329.76507,15.050211 q 1.83593,0.429688 2.8776,1.666667 1.04167,1.236979 1.04167,2.942708 0,2.5 -1.82292,3.984375 -1.8099,1.484375 -4.36198,1.484375 h -5.22135 V 6.7559406 h 5.09114 q 2.65625,0 4.15365,1.1718749 1.49739,1.1588542 1.49739,3.2812495 0,1.302084 -0.87239,2.317709 -0.85938,1.015625 -2.38281,1.471354 z m -5.35157,-0.989583 h 2.5 q 3.91927,0 3.91927,-2.799479 0,-1.2760419 -0.96354,-1.9531252 -0.96354,-0.6901041 -2.82552,-0.6901041 h -2.63021 z m 0,9.205729 h 2.42188 q 2.12239,0 3.35937,-0.963542 1.25,-0.963541 1.25,-2.643229 0,-1.783854 -1.22396,-2.760417 -1.22395,-0.976562 -3.54166,-0.976562 h -2.26563 z"
       id="path29" />
    <path
       d="m 349.02288,11.925211 -0.82031,1.953125 q -1.34115,-0.585937 -2.31771,-0.585937 -0.89844,0 -1.75781,0.520833 -0.85938,0.507813 -1.58854,1.471354 -0.71615,0.950521 -0.71615,1.067708 v 8.776042 h -2.01823 V 11.560628 h 2.01823 v 2.747396 q 1.62761,-3.072917 4.21875,-3.072917 1.53646,0 2.98177,0.690104 z"
       id="path31" />
    <path
       d="m 359.55674,11.235107 q 2.79948,0 4.45313,1.953125 1.65364,1.953125 1.65364,5.143229 0,3.216146 -1.65364,5.182292 -1.65365,1.966145 -4.45313,1.966145 -2.8125,0 -4.46614,-1.953125 -1.64063,-1.966145 -1.64063,-5.195312 0,-3.203125 1.65365,-5.143229 1.65364,-1.953125 4.45312,-1.953125 z m 0,12.473958 q 1.84896,0 2.91667,-1.5625 1.06771,-1.5625 1.06771,-3.789062 0,-2.34375 -1.05469,-3.854167 -1.05469,-1.510416 -2.92969,-1.510416 -1.88802,0 -2.92969,1.497395 -1.04166,1.484375 -1.04166,3.867188 0,2.265625 1.05469,3.815104 1.05468,1.536458 2.91666,1.536458 z"
       id="path33" />
    <path
       d="m 382.42132,11.560628 -1.95313,13.567708 h -1.54948 l -3.1901,-7.682292 -3.20313,7.682292 H 370.976 l -1.91406,-13.567708 h 2.01823 q 1.08073,9.505208 1.11979,9.973958 l 2.48698,-5.898437 h 2.08333 l 2.47396,5.859375 1.09375,-9.934896 z"
       id="path35" />
    <path
       d="m 396.82236,25.128336 h -2.03125 v -8.697917 q 0,-1.809895 -0.58594,-2.617187 -0.57291,-0.820312 -1.80989,-0.820312 -1.86198,0 -3.9974,2.317708 v 9.817708 h -2.03125 V 11.560628 h 2.03125 v 1.992187 q 2.1875,-2.317708 4.60938,-2.317708 3.8151,0 3.8151,4.609375 z"
       id="path37" />
    <path
       d="m 172.60362,41.951256 h -7.60417 v 6.002604 h 6.92708 v 1.861979 h -6.92708 v 8.645833 h -2.13542 V 40.089276 h 9.73959 z"
       id="path39" />
    <path
       d="m 183.5281,44.568443 q 2.79947,0 4.45312,1.953125 1.65365,1.953125 1.65365,5.143229 0,3.216146 -1.65365,5.182292 -1.65365,1.966145 -4.45312,1.966145 -2.8125,0 -4.46615,-1.953125 -1.64062,-1.966145 -1.64062,-5.195312 0,-3.203125 1.65364,-5.143229 1.65365,-1.953125 4.45313,-1.953125 z m 0,12.473958 q 1.84895,0 2.91666,-1.5625 1.06771,-1.5625 1.06771,-3.789062 0,-2.34375 -1.05469,-3.854167 -1.05468,-1.510417 -2.92968,-1.510417 -1.88803,0 -2.92969,1.497396 -1.04167,1.484375 -1.04167,3.867188 0,2.265625 1.05469,3.815104 1.05469,1.536458 2.91667,1.536458 z"
       id="path41" />
    <path
       d="m 205.27289,58.461672 h -2.29167 l -3.63281,-5.3125 -3.76302,5.3125 h -2.16146 l 4.83073,-6.796875 -4.83073,-6.770833 h 2.33073 l 3.64583,5.273437 3.71094,-5.273437 h 2.16146 l -4.80469,6.692708 z"
       id="path43" />
    <path
       d="m 234.81716,53.578859 q 0,2.526042 -1.32813,3.880209 -1.3151,1.354166 -3.86719,1.354166 -2.22656,0 -4.04948,-0.9375 l 0.63803,-1.705729 q 1.54947,0.768229 3.41145,0.768229 1.61459,0 2.33073,-0.846354 0.72917,-0.859375 0.72917,-2.669271 V 40.089276 h 2.13542 z"
       id="path45" />
    <path
       d="m 252.77288,58.461672 h -2.03125 v -2.005208 q -2.1875,2.330729 -4.60937,2.330729 -3.81511,0 -3.81511,-4.622396 v -9.270833 h 2.03125 v 8.684895 q 0,1.731771 0.54688,2.591146 0.54687,0.846354 1.84896,0.846354 1.86198,0 3.99739,-2.317708 v -9.804687 h 2.03125 z"
       id="path47" />
    <path
       d="m 269.86924,58.461672 h -2.03125 v -8.90625 q 0,-3.229167 -1.19791,-3.229167 -0.61198,0 -1.35417,1.119792 -0.72917,1.106771 -0.72917,1.223958 v 9.791667 h -2.01823 v -8.90625 q 0,-3.229167 -1.21093,-3.229167 -0.59896,0 -1.34115,1.119792 -0.72917,1.106771 -0.72917,1.223958 v 9.791667 h -2.03125 V 44.893964 h 1.95313 v 2.044271 q 0.57291,-1.08073 1.35416,-1.71875 0.79428,-0.651042 1.57553,-0.651042 0.82031,0 1.47135,0.651042 0.65104,0.63802 0.89844,1.71875 0.57291,-1.08073 1.36718,-1.71875 0.79428,-0.651042 1.5625,-0.651042 2.46094,0 2.46094,4.401042 z"
       id="path49" />
    <path
       d="m 276.37966,46.651776 q 0.67708,-0.9375 1.82291,-1.510416 1.15886,-0.572917 2.4349,-0.572917 2.34375,0 3.67187,1.940104 1.34115,1.927083 1.34115,5.026042 0,3.125 -1.40625,5.208333 -1.39323,2.070312 -3.76302,2.070312 -1.26302,0 -2.36979,-0.625 -1.09375,-0.63802 -1.73177,-1.679687 v 7.317708 h -2.03125 V 44.893964 h 2.03125 z m 0,2.018229 v 5.638021 q 0.57291,1.145833 1.54948,1.914063 0.97656,0.768229 2.01822,0.768229 1.64063,0 2.60417,-1.536459 0.97656,-1.536458 0.97656,-3.815104 0,-2.34375 -0.92448,-3.828125 -0.92447,-1.484375 -2.57812,-1.484375 -2.14844,0 -3.64583,2.34375 z"
       id="path51" />
    <path
       d="m 299.38747,46.834068 q -1.70573,-0.559896 -3.21615,-0.559896 -1.65365,0 -2.61719,0.559896 -0.96354,0.546875 -0.96354,1.471354 0,0.585938 0.44271,1.028646 0.44271,0.429687 1.77083,0.807292 l 1.94011,0.559895 q 1.34114,0.377605 2.1875,0.911459 0.84635,0.520833 1.26302,1.276041 0.42969,0.742188 0.42969,1.731771 0,1.940104 -1.62761,3.072917 -1.6276,1.119791 -4.14062,1.119791 -2.5,0 -4.12761,-0.755208 l 0.39063,-1.757812 q 1.70573,0.807291 3.65885,0.807291 1.69271,0 2.7474,-0.625 1.06771,-0.638021 1.06771,-1.679687 0,-0.703125 -0.53386,-1.25 -0.52083,-0.559896 -2.47396,-1.158854 -1.57552,-0.481771 -2.31771,-0.716146 -0.74218,-0.247396 -1.3802,-0.716146 -0.63802,-0.46875 -0.97657,-1.119792 -0.32552,-0.651041 -0.32552,-1.458333 0,-1.757812 1.53646,-2.786458 1.53646,-1.028646 4.07552,-1.028646 1.64063,0 3.64584,0.559896 z"
       id="path53" />
    <path
       d="m 327.52548,39.737714 q 3.08594,0 4.70052,2.447917 1.62761,2.434895 1.62761,7.096354 0,4.635416 -1.61459,7.083333 -1.61458,2.447916 -4.71354,2.447916 -3.07291,0 -4.70052,-2.434895 -1.61458,-2.447917 -1.61458,-7.096354 0,-4.648438 1.61458,-7.096354 1.61458,-2.447917 4.70052,-2.447917 z m 0,17.20052 q 4.0625,0 4.0625,-7.656249 0,-7.669271 -4.0625,-7.669271 -1.97916,0 -3.02083,1.992187 -1.02865,1.979167 -1.02865,5.677084 0,3.736979 1.02865,5.703124 1.02864,1.953125 3.02083,1.953125 z"
       id="path55" />
    <path
       d="m 349.42653,44.893964 -5.14323,13.567708 h -1.84896 l -5.11719,-13.567708 h 2.21355 l 3.84114,10.79427 3.84115,-10.79427 z"
       id="path57" />
    <path
       d="m 365.2208,51.742922 h -9.30989 q 0,2.304687 1.32812,3.802083 1.34115,1.497396 3.28125,1.497396 1.84896,0 3.81511,-0.664062 l 0.35156,1.627604 q -1.79687,0.807291 -4.19271,0.807291 -3.02083,0 -4.86979,-1.940104 -1.84896,-1.940104 -1.84896,-5.234375 0,-3.229166 1.65365,-5.143229 1.66666,-1.927083 4.29687,-1.927083 2.34375,0 3.91927,1.783854 1.57552,1.783854 1.57552,4.752604 z m -2.21354,-1.653646 q 0,-1.588541 -0.98958,-2.669271 -0.98958,-1.09375 -2.21354,-1.09375 -1.57552,0 -2.61719,1.041667 -1.02865,1.041667 -1.14583,2.721354 z"
       id="path59" />
    <path
       d="m 381.02809,45.258547 -0.82032,1.953125 q -1.34114,-0.585937 -2.3177,-0.585937 -0.89844,0 -1.75782,0.520833 -0.85937,0.507812 -1.58854,1.471354 -0.71614,0.950521 -0.71614,1.067708 v 8.776042 h -2.01823 V 44.893964 h 2.01823 v 2.747396 q 1.6276,-3.072917 4.21875,-3.072917 1.53645,0 2.98177,0.690104 z"
       id="path61" />
    <path
       d="m 174.2833,75.154383 h -5.66406 v 16.640625 h -2.12239 V 75.154383 h -5.69011 v -1.731771 h 13.47656 z"
       id="path63" />
    <path
       d="m 188.78851,91.795008 h -2.03125 v -8.697917 q 0,-1.809896 -0.58594,-2.617187 -0.57291,-0.820313 -1.80989,-0.820313 -1.86198,0 -3.9974,2.317709 v 9.817708 h -2.03125 V 73.422612 h 2.03125 v 6.796875 q 2.1875,-2.317708 4.60938,-2.317708 3.8151,0 3.8151,4.609375 z"
       id="path65" />
    <path
       d="m 205.19476,85.076258 h -9.30989 q 0,2.304687 1.32812,3.802083 1.34115,1.497396 3.28125,1.497396 1.84896,0 3.8151,-0.664063 l 0.35157,1.627605 q -1.79688,0.807291 -4.19271,0.807291 -3.02083,0 -4.86979,-1.940104 -1.84896,-1.940104 -1.84896,-5.234375 0,-3.229166 1.65365,-5.143229 1.66666,-1.927083 4.29687,-1.927083 2.34375,0 3.91927,1.783854 1.57552,1.783854 1.57552,4.752604 z m -2.21354,-1.653646 q 0,-1.588542 -0.98958,-2.669271 -0.98959,-1.09375 -2.21354,-1.09375 -1.57553,0 -2.61719,1.041667 -1.02865,1.041667 -1.14584,2.721354 z"
       id="path67" />
    <path
       d="m 236.87445,91.795008 h -10 V 73.422612 h 2.13541 v 16.510417 h 7.86459 z"
       id="path69" />
    <path
       d="m 253.13747,91.795008 h -2.01823 q -0.2474,-0.820313 -0.2474,-2.1875 -1.73177,2.539062 -4.71354,2.539062 -1.51042,0 -2.66927,-1.067708 -1.14583,-1.080729 -1.14583,-2.773438 0,-1.002604 0.40364,-1.770833 0.40365,-0.768229 1.1849,-1.289062 0.78125,-0.533854 1.90104,-0.833334 1.11979,-0.3125 2.65625,-0.429687 l 2.27864,-0.182292 v -0.651041 q 0,-3.489584 -3.2552,-3.489584 -0.76823,0 -1.95313,0.338542 -1.17187,0.325521 -2.01823,0.78125 l -0.53385,-1.458333 q 2.77344,-1.419271 5.15625,-1.419271 4.63541,0 4.63541,4.908854 v 5.833333 q 0,1.770833 0.33855,3.151042 z m -2.3698,-4.023438 v -2.460937 q -2.74739,0.247396 -3.77604,0.46875 -1.01562,0.208333 -1.77083,0.794271 -0.74219,0.585937 -0.74219,1.588541 0,0.911459 0.63802,1.471354 0.63802,0.559896 1.62761,0.559896 1.08073,0 2.14843,-0.638021 1.06771,-0.651041 1.875,-1.783854 z"
       id="path71" />
    <path
       d="m 268.61924,91.795008 h -10.42969 v -1.09375 l 7.73438,-10.690104 h -7.55208 V 78.2273 h 10.24739 v 1.002604 l -7.73437,10.78125 h 7.73437 z"
       id="path73" />
    <path
       d="m 285.41611,78.2273 -5.14322,13.567708 q -1.1198,2.994791 -2.22657,4.179687 -1.09375,1.184896 -2.5,1.184896 -1.25,0 -2.47396,-0.455729 l 0.33855,-1.627604 q 0.98958,0.3125 1.77083,0.3125 1.09375,0 1.79687,-0.846355 0.70313,-0.846354 1.41928,-2.773437 L 273.30674,78.2273 h 2.21354 l 3.84115,10.820312 3.84114,-10.820312 z"
       id="path75" />
    <path
       d="m 306.27549,73.422612 h 3.61979 q 3.60677,0 5.78125,2.460938 2.17448,2.447916 2.17448,6.73177 0,4.375 -2.21354,6.783854 -2.20052,2.395834 -5.65104,2.395834 h -3.71094 z m 2.13542,16.510417 h 1.51042 q 2.61718,0 4.14062,-1.940105 1.52344,-1.940104 1.52344,-5.377604 0,-3.411458 -1.53646,-5.364583 -1.52344,-1.966146 -4.1276,-1.966146 h -1.51042 z"
       id="path77" />
    <path
       d="m 327.55152,77.901779 q 2.79948,0 4.45313,1.953125 1.65364,1.953125 1.65364,5.143229 0,3.216146 -1.65364,5.182291 -1.65365,1.966146 -4.45313,1.966146 -2.8125,0 -4.46614,-1.953125 -1.64063,-1.966146 -1.64063,-5.195312 0,-3.203125 1.65365,-5.143229 1.65364,-1.953125 4.45312,-1.953125 z m 0,12.473958 q 1.84896,0 2.91667,-1.5625 1.06771,-1.5625 1.06771,-3.789062 0,-2.34375 -1.05469,-3.854167 -1.05469,-1.510417 -2.92969,-1.510417 -1.88802,0 -2.92968,1.497396 -1.04167,1.484375 -1.04167,3.867188 0,2.265624 1.05469,3.815104 1.05468,1.536458 2.91666,1.536458 z"
       id="path79" />
    <path
       d="m 342.12184,86.67782 q -1.90104,0.924479 -1.90104,1.627604 0,0.377605 0.42969,0.638021 0.44271,0.260417 1.19791,0.260417 l 4.57032,-0.130208 q 1.6276,0 2.52604,0.79427 0.91146,0.794271 0.91146,2.252605 0,2.304687 -2.0573,3.671874 -2.05729,1.367188 -4.80468,1.367188 -2.25261,0 -3.6849,-0.950521 -1.43229,-0.9375 -1.43229,-2.434896 0,-1.627604 2.21354,-2.747395 -1.83594,-0.859375 -1.83594,-2.109375 0,-1.432292 2.3698,-2.669271 -1.09375,-0.664063 -1.67969,-1.71875 -0.58594,-1.054688 -0.58594,-2.226563 0,-1.914062 1.30208,-3.13802 1.30209,-1.236979 3.25521,-1.236979 1.40625,0 2.53906,0.585937 l 4.02344,-0.611979 v 1.979166 h -2.59114 q 0.58593,1.028646 0.58593,2.421875 0,1.848959 -1.28906,3.125 -1.28906,1.276042 -3.26823,1.276042 -0.41666,0 -0.79427,-0.02604 z m 0.79427,-1.549479 q 1.11979,0 1.82292,-0.768229 0.71614,-0.78125 0.71614,-2.03125 0,-1.315104 -0.6901,-2.057292 -0.6901,-0.742187 -1.84896,-0.742187 -1.08073,0 -1.82291,0.78125 -0.72917,0.768229 -0.72917,2.018229 0,1.223958 0.72917,2.018229 0.74218,0.78125 1.82291,0.78125 z m 0.0781,10.455729 q 2.00521,0 3.41146,-0.898437 1.41927,-0.885417 1.41927,-2.200521 0,-1.354167 -2.00521,-1.354167 -0.66406,0 -2.29167,0.07813 -1.02864,0.05208 -1.61458,0.05208 -0.28646,0 -0.89844,0.46875 -0.59896,0.46875 -0.92448,0.9375 -0.3125,0.48177 -0.3125,0.989583 0,0.794271 0.88542,1.354166 0.88541,0.572917 2.33073,0.572917 z"
       id="path81" />
  </g>
</svg>
