<?xml version="1.0" encoding="UTF-8" standalone="no"?>
<svg
   xmlns:dc="http://purl.org/dc/elements/1.1/"
   xmlns:cc="http://creativecommons.org/ns#"
   xmlns:rdf="http://www.w3.org/1999/02/22-rdf-syntax-ns#"
   xmlns:svg="http://www.w3.org/2000/svg"
   xmlns="http://www.w3.org/2000/svg"
   viewBox="161.106 2.06844 190.378 100.677"
   version="1.1"
   id="svg2">
  <metadata
     id="metadata11">
    <rdf:RDF>
      <cc:Work
         rdf:about="">
        <dc:format>image/svg+xml</dc:format>
        <dc:type
           rdf:resource="http://purl.org/dc/dcmitype/StillImage" />
      </cc:Work>
    </rdf:RDF>
  </metadata>
  <defs
     id="defs9" />
  <g
     aria-label="The Quick BrownFox Jumps OverThe Lazy Dog"
     id="text4521"
     style="font-style:normal;font-variant:normal;font-weight:normal;font-stretch:normal;font-size:26.6667px;line-height:125%;font-family:'Apple Chancery', cursive;font-variant-ligatures:normal;font-variant-caps:normal;font-variant-numeric:normal;font-feature-settings:normal;text-align:left;letter-spacing:0px;word-spacing:0px;writing-mode:lr-tb;text-anchor:start;fill:#000000;fill-opacity:1;stroke:none;stroke-width:1px;stroke-linecap:butt;stroke-linejoin:miter;stroke-opacity:1">
    <path
       d="m 163.5281,15.02417 -2.1224,2.031249 q -0.29948,-1.015624 -0.29948,-1.992187 0,-3.580729 2.98177,-5.7942707 2.22656,-1.6536458 6.13281,-1.6536458 h 9.94792 q 1.19792,-2.4609374 3.28125,-3.9973957 2.09636,-1.5494791 4.23177,-1.5494791 0.65104,0 1.25,0.1432291 l -1.91406,1.875 q -0.74219,-0.2213542 -1.39323,-0.2213542 -3.88021,0 -4.55729,6.0416665 l -0.88542,8.0338539 q 1.52344,-2.291666 3.34636,-3.776041 1.83593,-1.497396 3.125,-1.497396 1.27604,0 1.27604,1.770833 0,0.507813 -0.15625,1.588542 l -0.70313,4.85677 q -0.20833,1.445313 -0.20833,2.304688 0,0.677083 0.3776,0.677083 0.91146,0 2.20052,-2.395833 0.3125,0.195312 0.3125,0.403646 0,0.859375 -1.45833,2.226562 -1.44531,1.367188 -2.34375,1.367188 -1.02864,0 -1.02864,-1.471355 0,-1.054687 0.27343,-2.942708 l 0.45573,-3.151041 q 0.22136,-1.54948 0.22136,-2.460938 0,-1.002604 -0.71615,-1.002604 -1.66667,0 -3.38542,2.265625 -1.70573,2.265625 -1.99218,4.84375 l -0.35157,3.125 -1.92708,0.794271 0.0391,-0.364584 0.10417,-0.963541 0.10417,-0.911459 1.26302,-11.406249 q 0.14323,-1.341146 0.53385,-2.6302087 h -6.86198 l -0.97656,8.8020827 -0.15625,1.445313 q -0.22135,1.848958 -0.80729,2.669271 -0.57292,0.820312 -2.22656,1.601562 l 3.78906,0.195313 -1.5625,1.510416 -6.35417,-0.286458 1.67969,-1.614583 1.41927,0.15625 q 1.57552,-1.002604 1.95312,-4.101563 l 0.13021,-1.263021 1.01563,-9.1145827 h -2.21354 q -5.45573,0 -5.45573,3.6067707 0,1.09375 0.61198,2.226563 z"
       id="path13" />
    <path
       d="m 198.87966,20.987711 q 0.32552,0.221354 0.32552,0.520833 0,0.403646 -0.83333,1.380209 -2.22657,2.578125 -4.40105,2.578125 -1.32812,0 -2.1875,-1.054688 -0.85937,-1.054687 -0.85937,-2.695312 0,-2.96875 2.23958,-6.002604 2.25261,-3.046875 4.45313,-3.046875 1.58854,0 1.58854,1.705729 0,1.914062 -1.86198,3.736979 -1.84896,1.822917 -4.51823,2.539062 0.26042,3.138021 2.47396,3.138021 2.1875,0 3.58073,-2.799479 z m -6.00261,-1.927083 q 0.37761,0.130208 0.69011,0.130208 1.61458,0 2.82552,-0.989583 1.21094,-0.989584 1.21094,-2.317708 0,-1.523438 -1.54948,-1.523438 -1.11979,0 -2.03125,1.341146 -0.89844,1.328125 -1.14584,3.359375 z"
       id="path15" />
    <path
       d="m 219.5958,24.242919 0.23438,0.234375 q 6.52343,6.067708 11.04166,6.067708 1.01563,0 1.67969,-0.598958 0.67708,-0.598958 0.67708,-1.510416 0,-0.416667 -0.22135,-0.872396 l 2.27865,-1.25 q 0.0911,0.364583 0.0911,0.598958 0,1.770833 -1.67969,3.138021 -1.66666,1.380208 -3.82812,1.380208 -2.53906,0 -6.04167,-1.71875 -3.5026,-1.705729 -6.58854,-4.453125 -1.43229,0.403646 -2.74739,0.403646 -2.48698,0 -4.10157,-2.018229 -1.61458,-2.03125 -1.61458,-5.169271 0,-4.596354 3.09896,-7.98177 3.11198,-3.3984378 7.33073,-3.3984378 2.63021,0 4.24479,1.9791666 1.61458,1.9791662 1.61458,5.1953122 0,6.40625 -5.46875,9.973958 z m -0.53385,-0.546875 q 3.54166,-2.447916 3.54166,-8.151041 0,-3.177083 -1.43229,-5.286458 -1.41927,-2.1223961 -3.55468,-2.1223961 -2.72136,0 -4.54428,2.5911461 -1.82291,2.578125 -1.82291,6.445312 0,3.385417 1.36719,5.325521 1.3802,1.940104 3.89322,2.109375 l 1.78386,-1.835938 q 0.16927,0.195313 0.22135,0.247396 l 0.36459,0.46875 q 0.0391,0.03906 0.18229,0.208333 z"
       id="path17" />
    <path
       d="m 236.17132,20.011149 q -1.48437,2.278645 -3.34635,3.867187 -1.86198,1.588542 -3.03386,1.588542 -1.28906,0 -1.28906,-1.71875 0,-0.638021 0.16927,-2.096354 l 0.46875,-4.270834 q 0.013,-0.09115 0.0651,-0.755208 l 0.0781,-0.846354 q 0.0391,-0.377604 0.0391,-0.677083 0,-0.755209 -0.42969,-0.755209 -0.98958,0 -2.13541,2.226563 -0.2474,-0.195313 -0.2474,-0.416667 0,-0.807292 1.43229,-2.148437 1.44532,-1.341146 2.29167,-1.341146 1.08073,0 1.08073,1.484375 0,0.351562 -0.0521,0.820312 l -0.11719,1.002604 -0.11719,1.09375 -0.41667,3.723959 q -0.10416,0.95052 -0.10416,1.927083 0,0.898437 0.66406,0.898437 1.47135,0 3.32031,-2.421875 1.86198,-2.421875 2.20052,-4.791666 l 0.44271,-3.085938 2.10938,-0.716145 q -0.36459,1.510416 -0.54688,2.695312 l -0.78125,5.442708 q -0.0651,0.494792 -0.10416,0.833334 l -0.0911,0.716145 q -0.0781,0.664063 -0.0781,0.9375 0,0.559896 0.3125,0.559896 1.10678,0 2.25261,-2.447916 0.35156,0.208333 0.35156,0.416666 0,0.455729 -1.13281,1.835938 -1.52344,1.875 -2.82552,1.875 -0.95052,0 -0.95052,-1.276042 0,-0.403646 0.0911,-1.080729 l 0.14323,-1.041667 q 0.11719,-0.846354 0.15625,-1.145833 z"
       id="path19" />
    <path
       d="m 248.00726,21.339274 q 0.35157,0.208333 0.35157,0.403645 0,0.46875 -1.13282,1.848959 -1.52343,1.875 -2.82552,1.875 -0.95052,0 -0.95052,-1.263021 0,-0.533854 0.39063,-3.28125 l 0.50781,-3.541667 0.13021,-0.898437 0.10416,-0.716146 q 0.0651,-0.455729 0.0651,-0.768229 0,-0.651042 -0.36459,-0.651042 -1.01562,0 -2.1875,2.239583 -0.24739,-0.221354 -0.24739,-0.442708 0,-0.794271 1.45833,-2.135416 1.47136,-1.341146 2.34375,-1.341146 0.97656,0 0.97656,1.354166 0,0.260417 -0.10416,1.067709 l -0.11719,0.872396 q -0.013,0.104166 -0.14323,1.054687 l -0.53385,3.723958 -0.13021,0.833334 q -0.16927,1.236979 -0.16927,1.653645 0,0.559896 0.32552,0.559896 1.09375,0 2.2526,-2.447916 z m -2.61718,-10.351563 1.09375,-2.6953121 q 1.45833,-0.5989584 2.39583,-1.6536458 0.13021,0.1822916 0.13021,0.3776041 0,1.7447916 -3.61979,3.9713538 z"
       id="path21" />
    <path
       d="m 258.6583,13.00594 -1.48437,1.783855 q -1.04167,-0.429688 -1.99219,-0.429688 -1.70573,0 -2.69531,1.445313 -0.97656,1.445312 -0.97656,3.958333 0,1.770833 0.70312,2.851562 0.71615,1.080729 1.86198,1.080729 1.94011,0 3.04688,-2.539062 0.28645,0.3125 0.28645,0.585937 0,1.08073 -1.6927,2.408854 -1.67969,1.315105 -3.08594,1.315105 -1.35417,0 -2.22656,-1.08073 -0.85938,-1.09375 -0.85938,-2.82552 0,-3.372396 2.29167,-6.132813 2.29166,-2.760416 5.09114,-2.760416 1.01563,0 1.73177,0.338541 z"
       id="path23" />
    <path
       d="m 263.30674,16.938232 q 0.97656,-1.822917 2.44791,-3.046875 1.48438,-1.223958 2.72136,-1.223958 1.66666,0 1.66666,1.71875 0,1.640625 -1.39322,3.007812 -1.38021,1.354167 -3.65886,1.953125 2.47396,4.440104 3.6849,4.440104 0.87239,0 1.83593,-1.523437 0.29948,0.221354 0.29948,0.429687 0,0.611979 -1.19791,1.679688 -1.19792,1.067708 -1.92709,1.09375 -1.30208,0.0651 -4.42708,-5.533854 l -0.32552,-0.585938 -0.58594,5.325521 -1.9401,0.794271 0.0391,-0.364584 0.10417,-0.963541 0.10416,-0.911459 1.27605,-11.406249 q 0.4427,-4.0494795 2.98177,-6.9010419 2.53906,-2.8515624 5.6901,-2.8515624 0.65104,0 1.25,0.1432291 l -1.91406,1.875 q -0.74219,-0.2213542 -1.40625,-0.2213542 -3.86719,0 -4.54427,6.0416665 z m -0.23438,2.018229 q 2.09636,0 3.50261,-0.9375 1.40625,-0.950521 1.40625,-2.34375 0,-1.40625 -0.98959,-1.40625 -0.91146,0 -2.03125,1.341146 -1.10677,1.328125 -1.88802,3.346354 z"
       id="path25" />
    <path
       d="m 280.72861,24.815836 1.65365,-1.757812 0.40365,0.09115 q 0.78125,0.195313 1.48437,0.286459 1.05469,-0.651042 1.41927,-1.5625 0.37761,-0.924479 0.67709,-3.580729 l 1.09375,-9.8046877 q -2.70834,0.1953125 -4.32292,1.4583333 -1.61458,1.2630204 -1.61458,3.1770834 0,1.145833 0.57291,2.161458 l -2.09635,1.848958 q -0.27344,-1.002604 -0.27344,-2.031249 0,-3.515625 2.99479,-5.7552087 3.00781,-2.2526041 7.68229,-2.2526041 6.02865,0 6.02865,3.4635418 0,2.955729 -3.89323,4.726562 3.80208,1.484375 3.80208,4.557292 0,2.5 -2.53906,3.984375 -2.53906,1.484375 -6.79687,1.484375 -2.61719,0 -6.27605,-0.494792 z m 8.84115,-16.4322913 -0.76823,6.9010413 q 0.76823,0.0651 1.32813,0.0651 0.625,0 1.49739,-0.09115 2.77344,-1.601563 2.77344,-3.854167 0,-3.0208333 -4.83073,-3.0208333 z m -0.88542,7.9427083 -0.19531,1.744791 -0.11719,1.09375 q -0.22135,1.940105 -0.78125,2.734375 -0.54687,0.78125 -2.34375,1.692709 2.57813,0.416666 5.09115,0.416666 4.0625,0 4.0625,-3.229166 0,-1.393229 -1.11979,-2.682292 -1.10677,-1.302083 -2.70834,-1.770833 l -0.33854,0.01302 -0.625,0.02604 -0.57291,-0.02604 z"
       id="path27" />
    <path
       d="m 303.02028,18.149169 q 2.89063,-5.48177 5.69011,-5.48177 0.72916,0 1.45833,0.338541 l -1.83594,2.005209 q -0.41666,-0.234375 -1.0677,-0.234375 -1.35417,0 -2.86459,2.20052 -1.49739,2.1875 -1.75781,4.557292 l -0.35156,3.177083 -1.92709,0.651042 0.0391,-0.390625 0.0911,-0.846354 0.10417,-0.846354 0.67708,-6.197917 0.0781,-0.677083 q 0.0911,-0.768229 0.0911,-1.25 0,-0.794271 -0.44271,-0.794271 -1.04166,0 -2.07031,2.226562 -0.32552,-0.247395 -0.3125,-0.507812 0.0391,-0.794271 1.44531,-2.096354 1.41928,-1.315104 2.23959,-1.315104 1.10677,0 1.10677,1.458333 0,0.351563 -0.0651,0.950521 l -0.0911,0.911458 -0.11719,1.09375 z"
       id="path29" />
    <path
       d="m 312.36924,25.466878 q -2.92969,0 -2.92969,-3.880209 0,-3.125 2.29167,-6.015624 2.29166,-2.903646 4.7526,-2.903646 2.96875,0 2.96875,3.880208 0,3.138021 -2.29167,6.028646 -2.29166,2.890625 -4.79166,2.890625 z m 1.57552,-1.458334 q 1.49739,0 2.5,-1.666666 1.01562,-1.666667 1.01562,-4.153646 0,-4.0625 -2.52604,-4.0625 -1.48437,0 -2.5,1.679688 -1.0026,1.666666 -1.0026,4.140624 0,4.0625 2.51302,4.0625 z"
       id="path31" />
    <path
       d="m 323.78851,25.427815 q 0,-3.020833 -0.42968,-5.742187 l -0.42969,-2.760417 q -0.36459,-2.356771 -1.25,-2.421875 -0.98959,-0.07813 -1.38021,1.966146 -0.41667,-0.117188 -0.41667,-0.520833 0,-0.989584 0.92448,-2.135417 0.9375,-1.145833 1.71875,-1.145833 1.14584,0 1.79688,1.888021 0.66406,1.88802 1.13281,6.484374 l 0.0781,0.794271 q 2.29167,-4.205729 3.42448,-7.682291 l 1.54948,-1.484375 q 0.15625,1.757812 0.29948,2.721354 l 0.3125,2.083333 0.22136,1.458333 0.57291,3.333334 0.3125,-0.507813 q 3.00782,-4.921875 3.00782,-6.315104 0,-0.755208 -0.79428,-1.289062 l 1.57553,-1.484375 q 0.96354,0.533854 0.96354,1.419271 0,1.067708 -1.48438,3.528645 l -0.79427,1.315104 -0.97656,1.70573 q -1.05469,1.835937 -1.53646,3.268229 l -1.5625,1.5625 q -0.18229,-2.34375 -0.63802,-4.934896 l -0.22135,-1.223958 -0.5599,-3.046875 -0.61198,1.119791 q -1.66667,3.046875 -2.8125,6.236979 z"
       id="path33" />
    <path
       d="m 341.1583,24.672607 -1.9401,0.794271 0.0391,-0.364584 0.10416,-0.963541 0.10417,-0.911459 0.67708,-6.041666 0.0781,-0.690104 q 0.0781,-0.807292 0.0781,-1.302084 0,-0.833333 -0.41666,-0.833333 -0.97656,0 -2.09636,2.213542 -0.29948,-0.247396 -0.29948,-0.429688 0,-0.78125 1.41928,-2.122396 1.43229,-1.354166 2.2526,-1.354166 1.11979,0 1.11979,1.432291 0,0.364584 -0.0651,0.976563 l -0.10417,1.054687 -0.10417,0.885417 -0.10416,0.924479 q 1.53646,-2.291666 3.35937,-3.776041 1.83594,-1.497396 3.125,-1.497396 1.26302,0 1.26302,1.757812 0,0.533854 -0.14323,1.601563 l -0.70312,4.85677 q -0.20833,1.458334 -0.20833,2.304688 0,0.677083 0.36458,0.677083 0.89844,0 2.21354,-2.395833 0.3125,0.195312 0.3125,0.403646 0,0.846354 -1.45833,2.226562 -1.44532,1.367188 -2.35677,1.367188 -1.01563,0 -1.01563,-1.458334 0,-1.067708 0.27344,-2.955729 l 0.45573,-3.151041 q 0.22135,-1.536459 0.22135,-2.434896 0,-1.028646 -0.71614,-1.028646 -1.66667,0 -3.38542,2.265625 -1.70573,2.252604 -1.99219,4.84375 z"
       id="path35" />
    <path
       d="m 170.10362,49.268964 h 2.78646 q 1.9401,0 3.99739,-0.351563 -1.53646,1.835938 -2.89062,1.835938 l -1.10677,-0.02604 -1.26303,-0.02604 -1.0026,-0.02604 h -0.67708 l -0.10417,0.95052 -0.13021,1.145834 q -0.22135,1.835937 -0.80729,2.669271 -0.57292,0.820312 -2.22656,1.601562 l 3.60677,0.195313 -1.5625,1.510416 -6.17188,-0.286458 1.67969,-1.614583 1.40625,0.15625 q 1.58854,-1.002605 1.95313,-4.101563 l 0.14323,-1.276042 1.02864,-9.270833 h -0.44271 q -2.52604,0 -3.97135,1.041667 -1.43229,1.028646 -1.43229,2.825521 0,1.080729 0.59896,2.213541 l -2.10938,2.03125 q -0.29948,-1.015625 -0.29948,-1.979166 0,-3.645834 3.03386,-5.898438 2.21354,-1.640625 6.28906,-1.640625 h 4.30989 q 2.42188,0 4.9349,-0.16927 l -1.04167,2.66927 -0.20833,0.481771 q -0.32552,0.768229 -0.83333,0.768229 -0.0911,0 -0.19532,-0.01302 0.15625,-0.664062 0.15625,-1.041666 0,-0.859375 -0.91145,-1.067708 -0.91146,-0.221355 -4.51823,-0.221355 h -1.25 z"
       id="path37" />
    <path
       d="m 181.84841,58.800213 q -2.92969,0 -2.92969,-3.880208 0,-3.125 2.29167,-6.015625 2.29166,-2.903645 4.7526,-2.903645 2.96875,0 2.96875,3.880208 0,3.138021 -2.29167,6.028646 -2.29166,2.890624 -4.79166,2.890624 z m 1.57552,-1.458333 q 1.49739,0 2.5,-1.666666 1.01562,-1.666667 1.01562,-4.153646 0,-4.0625 -2.52604,-4.0625 -1.48437,0 -2.5,1.679687 -1.0026,1.666667 -1.0026,4.140625 0,4.0625 2.51302,4.0625 z"
       id="path39" />
    <path
       d="m 195.76768,52.758547 -0.40365,-1.067708 q -0.44271,-1.132813 -0.48177,-1.223959 l -0.625,-1.393229 q -0.66406,-1.497396 -1.27604,-1.497396 -0.92448,0 -1.45833,1.731771 -0.39063,-0.143229 -0.39063,-0.416666 0,-0.807292 0.9375,-1.848959 0.9375,-1.041666 1.67969,-1.041666 1.45833,0 3.02083,4.192708 l 0.26042,0.690104 0.29948,-0.481771 q 2.77343,-4.401041 4.67448,-4.401041 0.49479,0 1.15885,0.286458 l -1.57552,1.653646 q -0.3125,-0.09115 -0.44271,-0.09115 -1.43229,0 -3.41146,3.294271 l -0.3776,0.625 0.29948,0.807291 q 1.71875,4.726563 2.82552,4.726563 1.01562,0 1.54948,-1.458334 0.36458,0.234375 0.36458,0.481771 0,0.651042 -1.04167,1.5625 -1.04166,0.911458 -1.79687,0.911458 -1.51042,0 -3.08594,-4.257812 l -0.36458,-0.963542 -0.37761,0.664063 q -2.65625,4.557291 -5.07812,4.557291 -0.91146,0 -1.54948,-0.455729 l 1.51042,-1.484375 q 0.39062,0.390625 0.91146,0.390625 1.47135,0 3.30729,-2.96875 l 0.67708,-1.09375 z"
       id="path41" />
    <path
       d="m 213.71039,48.357505 -2.1224,2.03125 q -0.29948,-1.015625 -0.29948,-2.018229 0,-3.359375 2.5,-5.390625 2.5,-2.03125 6.64063,-2.03125 h 1.02864 q -0.58594,2.981771 -0.70312,4.010417 l -1.14584,10.351562 q -0.52083,4.609375 -2.5,6.679688 -2.23958,2.34375 -5.35156,2.34375 -2.94271,0 -4.27083,-2.890625 l 2.08333,-1.588542 q 0.65104,3.333333 3.65886,3.333333 1.84895,0 2.78645,-1.419271 0.9375,-1.41927 1.30209,-4.804687 l 1.60156,-14.440104 h -0.40365 q -5.41666,0 -5.41666,3.580729 0,1.119792 0.61198,2.252604 z"
       id="path43" />
    <path
       d="m 232.70778,53.344484 q -1.48437,2.278646 -3.34635,3.867188 -1.86198,1.588541 -3.03386,1.588541 -1.28906,0 -1.28906,-1.718749 0,-0.638021 0.16927,-2.096355 l 0.46875,-4.270833 q 0.013,-0.09115 0.0651,-0.755208 l 0.0781,-0.846354 q 0.0391,-0.377604 0.0391,-0.677084 0,-0.755208 -0.42968,-0.755208 -0.98959,0 -2.13542,2.226563 -0.2474,-0.195313 -0.2474,-0.416667 0,-0.807292 1.43229,-2.148438 1.44532,-1.341145 2.29167,-1.341145 1.08073,0 1.08073,1.484375 0,0.351562 -0.0521,0.820312 l -0.11719,1.002604 -0.11719,1.09375 -0.41666,3.723958 q -0.10417,0.950521 -0.10417,1.927084 0,0.898437 0.66406,0.898437 1.47136,0 3.32031,-2.421875 1.86198,-2.421875 2.20052,-4.791666 l 0.44271,-3.085938 2.10938,-0.716146 q -0.36459,1.510417 -0.54688,2.695313 l -0.78125,5.442708 q -0.0651,0.494792 -0.10416,0.833333 l -0.0911,0.716146 q -0.0781,0.664063 -0.0781,0.9375 0,0.559896 0.3125,0.559896 1.10677,0 2.2526,-2.447917 0.35156,0.208334 0.35156,0.416667 0,0.455729 -1.13281,1.835938 -1.52344,1.874999 -2.82552,1.874999 -0.95052,0 -0.95052,-1.276041 0,-0.403646 0.0911,-1.080729 l 0.14323,-1.041667 q 0.11719,-0.846354 0.15625,-1.145833 z"
       id="path45" />
    <path
       d="m 248.39788,58.005943 -1.92708,0.79427 0.0391,-0.364583 0.10417,-0.963541 0.0911,-0.911459 0.65105,-5.846354 0.0911,-0.664062 q 0.0521,-0.520834 0.0521,-1.015625 0,-1.263021 -0.76823,-1.263021 -1.19792,0 -2.79948,2.447917 -1.58854,2.447916 -1.83594,4.661458 l -0.33854,3.125 -1.94011,0.79427 0.0391,-0.364583 0.10416,-0.963541 0.10417,-0.911459 0.66406,-6.041666 0.0781,-0.690104 q 0.0911,-0.807292 0.0911,-1.302084 0,-0.833333 -0.41666,-0.833333 -0.97657,0 -2.10938,2.213542 -0.29948,-0.247396 -0.29948,-0.429688 0,-0.78125 1.41927,-2.122396 1.43229,-1.354166 2.26563,-1.354166 1.11979,0 1.11979,1.432291 0,0.364584 -0.0651,0.976563 l -0.10417,1.054687 -0.10417,0.885417 -0.10416,0.924479 0.36458,-0.572917 q 2.91667,-4.70052 5.42969,-4.70052 1.21093,0 1.21093,1.744791 0,0.299479 -0.10416,1.263021 l -0.13021,1.197917 -0.18229,1.627604 q 1.21093,-2.513021 2.86458,-4.166667 1.66667,-1.666666 2.96875,-1.666666 1.28906,0 1.28906,1.666666 0,0.716146 -0.14323,1.705729 l -0.6901,4.830729 q -0.22135,1.497396 -0.22135,2.317709 0,0.690104 0.3776,0.690104 0.44271,0 1.10677,-0.742188 0.67708,-0.742187 1.08073,-1.679687 0.35156,0.234375 0.35156,0.429687 0,0.820313 -1.45833,2.200521 -1.44531,1.380208 -2.30469,1.380208 -1.10677,0 -1.10677,-1.484374 0,-0.9375 0.28646,-2.903646 l 0.45573,-3.138021 q 0.026,-0.169271 0.0911,-0.742187 0.026,-0.234375 0.0911,-0.794271 0.0651,-0.559896 0.0651,-0.859375 0,-1.106771 -0.72916,-1.106771 -1.22396,0 -2.85157,2.447917 -1.61458,2.447916 -1.86197,4.661458 z"
       id="path47" />
    <path
       d="m 262.16091,58.617922 -0.10417,1.028646 q -0.40364,4.036458 -2.91666,6.901041 -2.51303,2.864583 -5.65105,2.864583 -0.65104,0 -1.25,-0.15625 l 1.88802,-1.875 q 0.74219,0.221355 1.40625,0.221355 3.88021,0 4.47917,-6.041667 l 1.35417,-13.502604 q -0.61198,0.455729 -1.31511,1.054688 -0.85937,0.729166 -1.51041,1.145833 l 0.10416,-1.041667 q 2.20052,-1.302083 4.83073,-3.723958 l -0.59896,6.028646 q 1.38021,-2.421875 3.09896,-3.971354 1.71875,-1.549479 3.02084,-1.549479 1.875,0 1.875,3.203125 0,3.815104 -2.46094,6.627604 -2.46094,2.799479 -5.80729,2.799479 z m 0.19531,-1.940104 q 1.05469,0.664062 2.38281,0.664062 1.78386,0 2.89063,-2.083333 1.11979,-2.083333 1.11979,-5.403646 0,-1.940104 -1.05469,-1.940104 -1.15885,0 -2.74739,1.770833 -2.1224,2.356771 -2.44792,5.585938 z"
       id="path49" />
    <path
       d="m 271.7182,58.097089 1.79687,-1.471355 q 1.01563,1.08073 2.55209,1.08073 1.875,0 1.875,-1.809896 0,-1.002604 -1.71875,-2.799479 l -0.74219,-0.76823 q -1.62761,-1.705729 -1.62761,-2.760416 0,-1.510417 1.30209,-2.539063 1.3151,-1.028645 3.22916,-1.028645 1.04167,0 2.27865,0.390625 l -1.5625,1.445312 q -0.98958,-0.742187 -2.20052,-0.742187 -1.41927,0 -1.41927,1.184895 0,0.846355 1.57552,2.48698 l 0.80729,0.859374 q 1.79688,1.875 1.79688,3.020834 0,1.640625 -1.57552,2.903646 -1.57553,1.249999 -3.63282,1.249999 -1.45833,0 -2.73437,-0.703124 z"
       id="path51" />
    <path
       d="m 295.80674,58.995526 q -2.55208,0 -4.17969,-2.005208 -1.61458,-2.018229 -1.61458,-5.182292 0,-4.596354 3.09896,-7.98177 3.11198,-3.398438 7.33073,-3.398438 2.61719,0 4.24479,1.992188 1.6276,1.979166 1.6276,5.182291 0,4.635417 -3.125,8.020833 -3.11197,3.372396 -7.38281,3.372396 z m 1.70573,-1.054687 q 2.69531,0 4.50521,-2.591146 1.82292,-2.591146 1.82292,-6.432292 0,-3.216146 -1.41927,-5.32552 -1.41928,-2.122396 -3.56771,-2.122396 -2.72136,0 -4.54427,2.591146 -1.82292,2.578124 -1.82292,6.445312 0,3.229166 1.41927,5.338541 1.41927,2.096355 3.60677,2.096355 z"
       id="path53" />
    <path
       d="m 313.60622,55.909589 q 3.63281,-5.078125 3.63281,-7.070313 0,-0.742187 -0.7552,-1.171875 l 1.6276,-1.666666 q 0.95052,0.48177 0.95052,1.536458 0,1.302083 -2.48698,5.065104 -0.54687,0.807292 -0.76823,1.171875 l -0.32552,0.559896 -0.59896,0.950521 q -0.49479,0.78125 -1.04166,1.757812 l -1.8099,1.757812 q -0.49479,-4.192708 -1.61458,-7.604166 -1.11979,-3.411458 -2.00521,-3.411458 -0.98958,0 -1.38021,1.966146 -0.3776,-0.130209 -0.3776,-0.429688 0,-0.989583 0.84635,-2.135417 0.85938,-1.145833 1.61458,-1.184895 2.82552,-0.14323 4.49219,9.908854 z"
       id="path55" />
    <path
       d="m 327.64267,54.321047 q 0.32552,0.221354 0.32552,0.520833 0,0.403646 -0.83333,1.380209 -2.22657,2.578124 -4.40104,2.578124 -1.32813,0 -2.1875,-1.054687 -0.85938,-1.054687 -0.85938,-2.695312 0,-2.96875 2.23958,-6.002604 2.25261,-3.046875 4.45313,-3.046875 1.58854,0 1.58854,1.705729 0,1.914062 -1.86198,3.736979 -1.84896,1.822916 -4.51823,2.539062 0.26042,3.138021 2.47396,3.138021 2.1875,0 3.58073,-2.799479 z m -6.0026,-1.927083 q 0.3776,0.130208 0.6901,0.130208 1.61458,0 2.82552,-0.989583 1.21094,-0.989584 1.21094,-2.317709 0,-1.523437 -1.54948,-1.523437 -1.11979,0 -2.03125,1.341146 -0.89844,1.328125 -1.14583,3.359375 z"
       id="path57" />
    <path
       d="m 333.89267,51.482505 q 2.89063,-5.48177 5.69011,-5.48177 0.72917,0 1.45833,0.338541 l -1.83594,2.005209 q -0.41666,-0.234375 -1.0677,-0.234375 -1.35417,0 -2.86459,2.20052 -1.49739,2.1875 -1.75781,4.557292 l -0.35156,3.177083 -1.92709,0.651042 0.0391,-0.390625 0.0911,-0.846354 0.10417,-0.846354 0.67708,-6.197917 0.0781,-0.677083 q 0.0911,-0.768229 0.0911,-1.25 0,-0.794271 -0.4427,-0.794271 -1.04167,0 -2.07032,2.226562 -0.32552,-0.247395 -0.3125,-0.507812 0.0391,-0.794271 1.44532,-2.096354 1.41927,-1.315104 2.23958,-1.315104 1.10677,0 1.10677,1.458333 0,0.351562 -0.0651,0.950521 l -0.0912,0.911458 -0.11719,1.09375 z"
       id="path59" />
    <path
       d="m 163.5281,81.690841 -2.1224,2.03125 q -0.29948,-1.015625 -0.29948,-1.992187 0,-3.580729 2.98177,-5.794271 2.22656,-1.653646 6.13281,-1.653646 h 9.94792 q 1.19792,-2.460937 3.28125,-3.997395 2.09636,-1.54948 4.23177,-1.54948 0.65104,0 1.25,0.14323 l -1.91406,1.875 q -0.74219,-0.221355 -1.39323,-0.221355 -3.88021,0 -4.55729,6.041667 l -0.88542,8.033854 q 1.52344,-2.291667 3.34636,-3.776042 1.83593,-1.497395 3.125,-1.497395 1.27604,0 1.27604,1.770833 0,0.507812 -0.15625,1.588541 l -0.70313,4.856771 q -0.20833,1.445313 -0.20833,2.304688 0,0.677083 0.3776,0.677083 0.91146,0 2.20052,-2.395833 0.3125,0.195312 0.3125,0.403645 0,0.859375 -1.45833,2.226563 -1.44531,1.367187 -2.34375,1.367187 -1.02864,0 -1.02864,-1.471354 0,-1.054687 0.27343,-2.942708 l 0.45573,-3.151042 q 0.22136,-1.549479 0.22136,-2.460937 0,-1.002604 -0.71615,-1.002604 -1.66667,0 -3.38542,2.265625 -1.70573,2.265625 -1.99218,4.84375 l -0.35157,3.125 -1.92708,0.79427 0.0391,-0.364583 0.10417,-0.963542 0.10417,-0.911458 1.26302,-11.40625 q 0.14323,-1.341145 0.53385,-2.630208 h -6.86198 l -0.97656,8.802083 -0.15625,1.445313 q -0.22135,1.848958 -0.80729,2.66927 -0.57292,0.820313 -2.22656,1.601563 l 3.78906,0.195312 -1.5625,1.510417 -6.35417,-0.286458 1.67969,-1.614584 1.41927,0.15625 q 1.57552,-1.002604 1.95312,-4.101562 l 0.13021,-1.263021 1.01563,-9.114583 h -2.21354 q -5.45573,0 -5.45573,3.606771 0,1.09375 0.61198,2.226562 z"
       id="path61" />
    <path
       d="m 198.87966,87.654383 q 0.32552,0.221354 0.32552,0.520833 0,0.403646 -0.83333,1.380208 -2.22657,2.578125 -4.40105,2.578125 -1.32812,0 -2.1875,-1.054687 -0.85937,-1.054688 -0.85937,-2.695313 0,-2.968749 2.23958,-6.002604 2.25261,-3.046874 4.45313,-3.046874 1.58854,0 1.58854,1.705729 0,1.914062 -1.86198,3.736979 -1.84896,1.822916 -4.51823,2.539062 0.26042,3.138021 2.47396,3.138021 2.1875,0 3.58073,-2.799479 z M 192.87705,85.7273 q 0.37761,0.130208 0.69011,0.130208 1.61458,0 2.82552,-0.989583 1.21094,-0.989584 1.21094,-2.317709 0,-1.523437 -1.54948,-1.523437 -1.11979,0 -2.03125,1.341146 -0.89844,1.328125 -1.14584,3.359375 z"
       id="path63" />
    <path
       d="m 206.75726,91.456466 2.1875,-1.705729 q 1.0026,0.182292 1.69271,0.221354 1.49739,-0.572917 2.10937,-1.979167 0.61198,-1.41927 0.61198,-4.296874 l 0.0521,-2.01823 q 0,-3.893229 2.65625,-6.093749 2.21354,-1.822917 4.67448,-1.822917 1.05468,0 2.16145,0.481771 l -1.92708,1.888021 q -1.1849,-0.76823 -2.34375,-0.76823 -2.90365,0 -2.90365,4.752604 l -0.0521,1.796875 q 0,3.684896 -0.70312,5.403646 -0.70313,1.705729 -2.69532,2.825521 l 2.69532,0.221354 1.19791,0.09115 1.44532,0.09115 q 0.57291,0.03906 1.28906,0.03906 3.22916,0 5.03906,-1.875 0.20833,0.260417 0.20833,0.377604 0,0.429688 -1.25,1.471355 -2.13541,1.757812 -4.58333,1.757812 -1.0026,0 -2.46094,-0.104167 l -3.86718,-0.286458 q -3.02084,-0.221354 -5.23438,-0.46875 z"
       id="path65" />
    <path
       d="m 233.44997,86.625737 q -1.47136,2.421875 -3.24219,3.971354 -1.75781,1.536458 -3.05989,1.536458 -1.78386,0 -1.78386,-2.877604 0,-3.958333 2.59115,-6.848958 2.60416,-2.903646 6.15885,-2.903646 1.35417,0 2.30469,0.338542 -0.0651,0.234375 -0.0781,0.286458 l -0.15625,0.690104 q -0.15625,0.716146 -0.16927,0.833334 l -0.83333,5.755208 -0.11719,0.833333 q -0.16927,1.236979 -0.16927,1.653646 0,0.559896 0.32552,0.559896 1.09375,0 2.23959,-2.447917 0.35156,0.208334 0.35156,0.416667 0,0.455729 -1.11979,1.835937 -1.52344,1.875 -2.82552,1.875 -0.95053,0 -0.95053,-1.276041 0,-0.390625 0.0911,-1.080729 l 0.13021,-1.041667 0.16927,-1.145833 z m 0.74219,-5.169271 q -1.1849,-0.664062 -2.39584,-0.664062 -1.82291,0 -3.05989,2.226562 -1.23698,2.226563 -1.23698,5.520833 0,1.692709 1.0026,1.692709 1.15886,0 2.79948,-1.770834 2.21354,-2.382812 2.68229,-5.598958 z"
       id="path67" />
    <path
       d="m 238.26768,92.068445 1.08073,-2.083333 q 0.74219,-0.78125 1.43229,-1.666667 l 0.83333,-1.028646 q 0.41667,-0.533854 0.63802,-0.79427 l 0.59896,-0.729167 q 0.28646,-0.351562 0.91146,-1.171875 l 1.17188,-1.510417 1.0026,-1.328125 q 0.10417,-0.117187 0.29948,-0.364583 -0.26042,0.02604 -0.3776,0.02604 -0.91146,0 -2.47396,-0.442709 l -0.46875,-0.130208 -0.39063,-0.130208 q -0.36458,-0.104167 -0.63802,-0.104167 -0.91146,0 -0.91146,1.028646 0,0.390625 0.20834,0.794271 l -1.52344,1.315104 q -0.0521,-0.442708 -0.0521,-0.651042 0,-1.510416 1.0026,-2.630208 1.01562,-1.132812 2.36979,-1.132812 0.36458,0 0.92448,0.104166 l 0.75521,0.130208 0.625,0.09115 q 1.08073,0.182292 1.51042,0.182292 0.96354,0 2.04427,-0.429687 l -1.13282,2.083333 q -0.96354,1.067708 -1.96614,2.304687 l -1.02865,1.289063 -0.91146,1.132812 -0.59895,0.742188 -0.54688,0.664062 q -0.75521,0.924479 -0.84635,1.054688 l -0.625,0.898437 q -0.10417,0.143229 -0.48177,0.598958 0.71614,-0.07813 1.18489,-0.07813 0.83333,0 1.86198,0.14323 l 0.84635,0.117187 0.79428,0.104167 q 0.46875,0.0651 0.95052,0.0651 1.21093,0 1.77083,-0.755208 0.22135,0.208333 0.22135,0.377604 0,0.677083 -0.74218,1.302083 -0.74219,0.611979 -1.5625,0.611979 -0.37761,0 -0.95052,-0.0651 -0.48178,-0.05208 -0.84636,-0.07813 l -0.76823,-0.05208 q -0.95052,-0.07813 -1.86198,-0.07813 -1.88802,0 -3.33333,0.273437 z"
       id="path69" />
    <path
       d="m 259.55674,86.612716 q -1.3151,2.395833 -2.76041,3.958333 -1.4323,1.5625 -2.34375,1.5625 -1.25,0 -1.38021,-2.630208 l -0.0911,-1.809896 -0.16927,-3.684895 -0.0391,-1.054688 q -0.11719,-2.096354 -0.76823,-2.096354 -1.01563,0 -1.97917,1.927083 -0.33854,-0.234375 -0.33854,-0.507812 0,-0.703125 1.26302,-1.822917 1.26302,-1.119791 2.05729,-1.119791 0.82032,0 1.15886,0.742187 0.33854,0.729167 0.44271,2.708333 l 0.23437,4.557292 q 0.13021,2.604166 0.83333,2.604166 1.05469,0 2.61719,-2.408854 1.5625,-2.421875 2.00521,-4.752604 l 0.50781,-2.65625 2.31771,-0.807291 q -0.44271,1.145833 -0.91146,3.463541 l -1.74479,8.736979 q -1.02865,5.130208 -3.17708,7.578125 -3.21615,3.645835 -7.44792,3.645835 -0.88542,0 -1.99219,-0.39063 l 1.60157,-1.75781 q 1.22395,0.54688 2.55208,0.54688 2.70833,0 4.0625,-1.757817 1.35417,-1.757812 2.26562,-6.445312 z"
       id="path71" />
    <path
       d="m 273.08539,91.443445 1.80989,-1.914062 q 0.66406,0.247396 1.84896,0.442708 0.96354,-0.585937 1.3151,-1.484375 0.35157,-0.911458 0.65105,-3.567708 l 1.08072,-9.700521 q -5.89843,0.690104 -5.89843,4.257813 0,1.067708 0.57291,2.226562 l -2.10937,1.979167 q -0.28646,-0.638021 -0.28646,-1.888021 0,-3.90625 3.03385,-5.963542 3.04688,-2.070312 8.77605,-2.070312 9.45312,0 9.45312,6.575521 0,3.932291 -2.65625,7.252604 -3.52864,4.38802 -10.75521,4.38802 -3.03385,0 -6.83593,-0.533854 z m 8.84114,-16.523437 -1.09375,9.778646 -0.13021,1.223958 q -0.19531,1.705729 -0.72916,2.486979 -0.53386,0.78125 -2.09636,1.692708 2.85156,0.390625 5.32552,0.390625 2.30469,0 3.55469,-0.63802 1.26302,-0.651042 2.46094,-2.447917 1.67969,-2.5 1.67969,-5.611979 0,-6.875 -8.54167,-6.875 z"
       id="path73" />
    <path
       d="m 297.25205,92.133549 q -2.92969,0 -2.92969,-3.880208 0,-3.125 2.29167,-6.015625 2.29167,-2.903645 4.7526,-2.903645 2.96875,0 2.96875,3.880208 0,3.138021 -2.29166,6.028645 -2.29167,2.890625 -4.79167,2.890625 z m 1.57552,-1.458333 q 1.4974,0 2.5,-1.666667 1.01563,-1.666666 1.01563,-4.153645 0,-4.0625 -2.52605,-4.0625 -1.48437,0 -2.5,1.679687 -1.0026,1.666667 -1.0026,4.140625 0,4.0625 2.51302,4.0625 z"
       id="path75" />
    <path
       d="m 314.38747,81.456466 q -0.9375,-0.664062 -2.35677,-0.664062 -1.78385,0 -3.02083,2.239583 -1.22396,2.239583 -1.22396,5.507812 0,1.692709 1.0026,1.692709 1.14584,0 2.79948,-1.770834 2.29167,-2.460937 2.63021,-5.572916 z m 2.22656,-1.614583 q -0.0651,0.234375 -0.0781,0.286458 l -0.14323,0.690104 q -0.16927,0.755209 -0.18229,0.833334 l -0.52084,4.765625 q -0.1302,1.197916 -0.27343,4.205729 -0.18229,3.76302 -0.71615,5.572916 -0.53385,1.809896 -1.88802,3.229167 -3.09896,3.268224 -6.60156,3.268224 -1.69271,0 -2.8125,-1.14583 -1.11979,-1.14583 -1.11979,-2.864582 0,-3.502604 4.28385,-6.914062 -0.91146,-0.716146 -0.91146,-2.526042 0,-3.932291 2.59115,-6.835937 2.59114,-2.903646 6.11979,-2.903646 1.4974,0 2.2526,0.338542 z m -2.8125,6.835937 q -3.51562,5.364584 -6.36718,5.364584 -0.11719,0 -0.41667,-0.02604 -3.02083,3.046875 -3.02083,5.429687 0,1.627604 1.14583,2.721351 1.15885,1.10677 2.86458,1.10677 2.63021,0 4.03646,-2.317704 1.06771,-1.783854 1.48438,-8.502604 0.15625,-2.539063 0.27343,-3.776042 z"
       id="path77" />
  </g>
</svg>
