<?xml version="1.0" encoding="UTF-8" standalone="no"?>
<svg
   xmlns:dc="http://purl.org/dc/elements/1.1/"
   xmlns:cc="http://creativecommons.org/ns#"
   xmlns:rdf="http://www.w3.org/1999/02/22-rdf-syntax-ns#"
   xmlns:svg="http://www.w3.org/2000/svg"
   xmlns="http://www.w3.org/2000/svg"
   viewBox="160.156 5.70125 202.057 91.7057"
   version="1.1"
   id="svg2">
  <metadata
     id="metadata11">
    <rdf:RDF>
      <cc:Work
         rdf:about="">
        <dc:format>image/svg+xml</dc:format>
        <dc:type
           rdf:resource="http://purl.org/dc/dcmitype/StillImage" />
      </cc:Work>
    </rdf:RDF>
  </metadata>
  <defs
     id="defs9" />
  <g
     aria-label="The Quick BrownFox Jumps OverThe Lazy Dog"
     id="text4521"
     style="font-style:normal;font-variant:normal;font-weight:normal;font-stretch:normal;font-size:26.6667px;line-height:125%;font-family:Arial, sans-serif;font-variant-ligatures:normal;font-variant-caps:normal;font-variant-numeric:normal;font-feature-settings:normal;text-align:left;letter-spacing:0px;word-spacing:0px;writing-mode:lr-tb;text-anchor:start;fill:#000000;fill-opacity:1;stroke:none;stroke-width:1px;stroke-linecap:butt;stroke-linejoin:miter;stroke-opacity:1">
    <path
       d="M 166.44476,25.128336 V 8.2923989 H 160.1557 V 6.0397947 h 15.13021 V 8.2923989 H 168.9708 V 25.128336 Z"
       id="path13" />
    <path
       d="M 177.57758,25.128336 V 6.0397947 h 2.34375 v 6.8489583 q 1.64062,-1.901042 4.14062,-1.901042 1.53646,0 2.66927,0.611979 1.13281,0.598959 1.61458,1.666667 0.4948,1.067708 0.4948,3.098958 v 8.763021 h -2.34375 v -8.763021 q 0,-1.757812 -0.76823,-2.552083 -0.75521,-0.807292 -2.14844,-0.807292 -1.04167,0 -1.96615,0.546875 -0.91145,0.533855 -1.30208,1.458334 -0.39062,0.924479 -0.39062,2.552083 v 7.565104 z"
       id="path15" />
    <path
       d="m 201.87445,20.675211 2.42187,0.299479 q -0.57291,2.122396 -2.12239,3.294271 -1.54948,1.171875 -3.95833,1.171875 -3.03386,0 -4.81771,-1.861979 -1.77084,-1.875 -1.77084,-5.247396 0,-3.489583 1.79688,-5.416666 1.79687,-1.927084 4.66146,-1.927084 2.77343,0 4.53125,1.888021 1.75781,1.888021 1.75781,5.3125 0,0.208333 -0.013,0.625 h -10.3125 q 0.13021,2.278646 1.28906,3.489583 1.15886,1.210938 2.89063,1.210938 1.28906,0 2.20052,-0.677084 0.91146,-0.677083 1.44531,-2.161458 z m -7.69531,-3.789062 h 7.72135 q -0.15625,-1.744792 -0.88542,-2.617188 -1.11979,-1.354166 -2.90364,-1.354166 -1.61458,0 -2.72136,1.080729 -1.09375,1.080729 -1.21093,2.890625 z"
       id="path17" />
    <path
       d="m 229.41351,23.084065 q 1.75782,1.210938 3.24219,1.770833 l -0.74219,1.757813 q -2.05729,-0.742188 -4.10156,-2.34375 -2.1224,1.184896 -4.6875,1.184896 -2.59115,0 -4.70052,-1.25 -2.10938,-1.25 -3.25521,-3.515625 -1.13281,-2.265625 -1.13281,-5.104167 0,-2.82552 1.14583,-5.143229 1.14584,-2.317708 3.25521,-3.5286454 2.1224,-1.2109375 4.73958,-1.2109375 2.64323,0 4.76563,1.2630208 2.12239,1.25 3.22917,3.5156251 1.11979,2.252604 1.11979,5.091146 0,2.35677 -0.71615,4.244791 -0.71614,1.875 -2.16146,3.268229 z m -5.55989,-3.229166 q 2.1875,0.611979 3.60677,1.822916 2.22656,-2.03125 2.22656,-6.10677 0,-2.317709 -0.79427,-4.04948 -0.78125,-1.7317703 -2.30469,-2.6822912 -1.51041,-0.9635416 -3.39844,-0.9635416 -2.82552,0 -4.6875,1.9401041 -1.86197,1.9270837 -1.86197,5.7682287 0,3.723959 1.83593,5.716146 1.84896,1.992187 4.71354,1.992187 1.35417,0 2.55209,-0.507812 -1.1849,-0.768229 -2.5,-1.09375 z"
       id="path19" />
    <path
       d="m 244.45258,25.128336 v -2.03125 q -1.61459,2.34375 -4.38803,2.34375 -1.22395,0 -2.29166,-0.46875 -1.05469,-0.46875 -1.57552,-1.171875 -0.50782,-0.716146 -0.71615,-1.744792 -0.14323,-0.690104 -0.14323,-2.1875 v -8.567708 h 2.34375 v 7.669271 q 0,1.835937 0.14323,2.473958 0.22136,0.924479 0.9375,1.458334 0.71615,0.520833 1.77083,0.520833 1.05469,0 1.97917,-0.533854 0.92448,-0.546875 1.30208,-1.471354 0.39063,-0.9375 0.39063,-2.708334 v -7.408854 h 2.34375 v 13.828125 z"
       id="path21" />
    <path
       d="M 250.23382,8.7351072 V 6.0397947 h 2.34375 v 2.6953125 z m 0,16.3932288 V 11.300211 h 2.34375 v 13.828125 z"
       id="path23" />
    <path
       d="m 265.16872,20.063232 2.30468,0.299479 q -0.3776,2.382813 -1.9401,3.736979 -1.54948,1.341146 -3.8151,1.341146 -2.83855,0 -4.57032,-1.848958 -1.71875,-1.861979 -1.71875,-5.325521 0,-2.239583 0.74219,-3.919271 0.74219,-1.679687 2.2526,-2.513021 1.52344,-0.846354 3.3073,-0.846354 2.2526,0 3.68489,1.145834 1.43229,1.132812 1.83594,3.229166 l -2.27865,0.351563 q -0.32552,-1.393229 -1.15885,-2.096354 -0.82031,-0.703125 -1.99219,-0.703125 -1.77083,0 -2.8776,1.276041 -1.10677,1.263021 -1.10677,4.010417 0,2.786458 1.06771,4.049479 1.0677,1.263021 2.78645,1.263021 1.38021,0 2.30469,-0.846354 0.92448,-0.846355 1.17188,-2.604167 z"
       id="path25" />
    <path
       d="M 269.49164,25.128336 V 6.0397947 h 2.34375 V 16.925211 l 5.54687,-5.625 h 3.03385 l -5.28645,5.130208 5.82031,8.697917 h -2.89063 l -4.57031,-7.070312 -1.65364,1.588541 v 5.481771 z"
       id="path27" />
    <path
       d="M 290.41611,25.128336 V 6.0397947 h 7.16146 q 2.1875,0 3.5026,0.5859375 1.32812,0.5729167 2.07031,1.7838542 0.75521,1.1979166 0.75521,2.5130206 0,1.223958 -0.66406,2.304688 -0.66406,1.080729 -2.00521,1.744791 1.73177,0.507813 2.65625,1.731771 0.9375,1.223958 0.9375,2.890625 0,1.341146 -0.57292,2.5 -0.55989,1.145833 -1.39323,1.770833 -0.83333,0.625 -2.09635,0.950521 -1.25,0.3125 -3.07292,0.3125 z m 2.52604,-11.067708 h 4.1276 q 1.67969,0 2.40886,-0.221354 0.96354,-0.286459 1.44531,-0.950521 0.49479,-0.664063 0.49479,-1.666667 0,-0.950521 -0.45573,-1.6666663 -0.45573,-0.7291667 -1.30208,-0.9895834 -0.84636,-0.2734374 -2.90365,-0.2734374 h -3.8151 z m 0,8.815104 h 4.7526 q 1.22396,0 1.71875,-0.09115 0.8724,-0.15625 1.45834,-0.520833 0.58593,-0.364584 0.96354,-1.054688 0.3776,-0.703125 0.3776,-1.614583 0,-1.067708 -0.54687,-1.848958 -0.54688,-0.794271 -1.52344,-1.106771 -0.96354,-0.325521 -2.78646,-0.325521 h -4.41406 z"
       id="path29" />
    <path
       d="M 307.98122,25.128336 V 11.300211 h 2.10938 v 2.096354 q 0.80729,-1.471354 1.48437,-1.940104 0.69011,-0.46875 1.51042,-0.46875 1.18489,0 2.40885,0.755209 l -0.80729,2.174479 q -0.85937,-0.507813 -1.71875,-0.507813 -0.76823,0 -1.38021,0.46875 -0.61198,0.455729 -0.87239,1.276042 -0.39063,1.25 -0.39063,2.734375 v 7.239583 z"
       id="path31" />
    <path
       d="m 316.01507,18.214274 q 0,-3.841146 2.13542,-5.690104 1.78385,-1.536459 4.34896,-1.536459 2.85156,0 4.66145,1.875 1.8099,1.861979 1.8099,5.15625 0,2.669271 -0.80729,4.205729 -0.79427,1.523438 -2.33073,2.369792 -1.52344,0.846354 -3.33333,0.846354 -2.90365,0 -4.70053,-1.861979 -1.78385,-1.861979 -1.78385,-5.364583 z m 2.40885,0 q 0,2.65625 1.15886,3.984375 1.15885,1.315104 2.91667,1.315104 1.74479,0 2.90364,-1.328125 1.15886,-1.328125 1.15886,-4.049479 0,-2.565104 -1.17188,-3.880209 -1.15885,-1.328125 -2.89062,-1.328125 -1.75782,0 -2.91667,1.315105 -1.15886,1.315104 -1.15886,3.971354 z"
       id="path33" />
    <path
       d="m 334.27028,25.128336 -4.23177,-13.828125 h 2.42188 l 2.20052,7.981771 0.82031,2.96875 q 0.0521,-0.221354 0.71615,-2.851563 l 2.20052,-8.098958 h 2.40885 l 2.07031,8.020833 0.69011,2.64323 0.79427,-2.669271 2.36979,-7.994792 h 2.27865 l -4.32292,13.828125 h -2.4349 l -2.20052,-8.28125 -0.53385,-2.356771 -2.79948,10.638021 z"
       id="path35" />
    <path
       d="M 350.97601,25.128336 V 11.300211 h 2.10938 v 1.966146 q 1.52344,-2.278646 4.40104,-2.278646 1.25,0 2.29167,0.455729 1.05468,0.442709 1.57552,1.171875 0.52083,0.729167 0.72916,1.731771 0.13021,0.651042 0.13021,2.278646 v 8.502604 h -2.34375 v -8.411458 q 0,-1.432292 -0.27344,-2.135417 -0.27343,-0.716146 -0.97656,-1.132812 -0.6901,-0.429688 -1.6276,-0.429688 -1.4974,0 -2.59115,0.950521 -1.08073,0.950521 -1.08073,3.606771 v 7.552083 z"
       id="path37" />
    <path
       d="M 161.7182,58.461672 V 39.373131 h 12.8776 v 2.252604 h -10.35156 v 5.911458 h 8.95834 v 2.252604 h -8.95834 v 8.671875 z"
       id="path39" />
    <path
       d="m 176.70518,51.547609 q 0,-3.841145 2.13542,-5.690104 1.78385,-1.536458 4.34895,-1.536458 2.85157,0 4.66146,1.875 1.8099,1.861979 1.8099,5.15625 0,2.669271 -0.80729,4.205729 -0.79427,1.523438 -2.33073,2.369792 -1.52344,0.846354 -3.33334,0.846354 -2.90364,0 -4.70052,-1.861979 -1.78385,-1.861979 -1.78385,-5.364584 z m 2.40885,0 q 0,2.65625 1.15886,3.984375 1.15885,1.315105 2.91666,1.315105 1.7448,0 2.90365,-1.328125 1.15885,-1.328125 1.15885,-4.04948 0,-2.565104 -1.17187,-3.880208 -1.15885,-1.328125 -2.89063,-1.328125 -1.75781,0 -2.91666,1.315104 -1.15886,1.315105 -1.15886,3.971354 z"
       id="path41" />
    <path
       d="m 190.8458,58.461672 5.05209,-7.1875 -4.67448,-6.640625 h 2.92969 l 2.12239,3.242188 q 0.59896,0.924479 0.96354,1.549479 0.57292,-0.859375 1.05469,-1.523438 l 2.33073,-3.268229 h 2.79948 l -4.77865,6.510417 5.14323,7.317708 h -2.8776 l -2.83854,-4.296875 -0.75521,-1.158854 -3.63281,5.455729 z"
       id="path43" />
    <path
       d="m 212.16091,53.045005 2.27864,-0.3125 q 0.0911,2.1875 0.82031,2.994792 0.72917,0.807292 2.01823,0.807292 0.95052,0 1.64063,-0.429688 0.6901,-0.442708 0.95052,-1.184896 0.26042,-0.755208 0.26042,-2.395833 V 39.373131 h 2.52604 v 13.007812 q 0,2.395833 -0.58594,3.710937 -0.57292,1.315104 -1.83594,2.005209 -1.25,0.690104 -2.94271,0.690104 -2.51302,0 -3.85416,-1.445313 -1.32813,-1.445312 -1.27604,-4.296875 z"
       id="path45" />
    <path
       d="m 235.54633,58.461672 v -2.03125 q -1.61459,2.34375 -4.38803,2.34375 -1.22395,0 -2.29166,-0.46875 -1.05469,-0.46875 -1.57552,-1.171875 -0.50782,-0.716146 -0.71615,-1.744792 -0.14323,-0.690104 -0.14323,-2.1875 v -8.567708 h 2.34375 v 7.669271 q 0,1.835937 0.14323,2.473958 0.22136,0.924479 0.9375,1.458333 0.71615,0.520834 1.77083,0.520834 1.05469,0 1.97917,-0.533854 0.92448,-0.546875 1.30208,-1.471355 0.39063,-0.9375 0.39063,-2.708333 v -7.408854 h 2.34375 v 13.828125 z"
       id="path47" />
    <path
       d="M 241.31455,58.461672 V 44.633547 h 2.09636 v 1.940104 q 0.65104,-1.015625 1.73177,-1.627604 1.08073,-0.625 2.46093,-0.625 1.53646,0 2.51303,0.638021 0.98958,0.638021 1.39322,1.783854 1.64063,-2.421875 4.27084,-2.421875 2.05729,0 3.16406,1.145833 1.10677,1.132813 1.10677,3.502605 v 9.492187 h -2.33073 v -8.710937 q 0,-1.40625 -0.23437,-2.01823 -0.22136,-0.625 -0.82032,-1.002604 -0.59895,-0.377604 -1.40625,-0.377604 -1.45833,0 -2.42187,0.976563 -0.96354,0.963541 -0.96354,3.098958 v 8.033854 h -2.34375 v -8.984375 q 0,-1.5625 -0.57292,-2.34375 -0.57292,-0.78125 -1.875,-0.78125 -0.98958,0 -1.83594,0.520833 -0.83333,0.520834 -1.21093,1.523438 -0.37761,1.002604 -0.37761,2.890625 v 7.174479 z"
       id="path49" />
    <path
       d="M 263.52809,63.761151 V 44.633547 h 2.13542 v 1.796875 q 0.75521,-1.054687 1.70573,-1.575521 0.95052,-0.533854 2.30468,-0.533854 1.77084,0 3.125,0.911458 1.35417,0.911459 2.04428,2.578125 0.6901,1.653646 0.6901,3.632813 0,2.122396 -0.76823,3.828125 -0.75521,1.692708 -2.21354,2.604166 -1.44531,0.898438 -3.04688,0.898438 -1.17187,0 -2.10937,-0.494792 -0.92448,-0.494791 -1.52344,-1.25 v 6.731771 z m 2.1224,-12.135417 q 0,2.669271 1.08073,3.945313 1.08073,1.276042 2.61718,1.276042 1.5625,0 2.66927,-1.315105 1.1198,-1.328125 1.1198,-4.101562 0,-2.643229 -1.09375,-3.958333 -1.08073,-1.315104 -2.59115,-1.315104 -1.4974,0 -2.65625,1.40625 -1.14583,1.393229 -1.14583,4.062499 z"
       id="path51" />
    <path
       d="m 277.42133,54.334068 2.3177,-0.364584 q 0.19532,1.39323 1.08073,2.135417 0.89844,0.742188 2.5,0.742188 1.61459,0 2.39584,-0.651042 0.78125,-0.664063 0.78125,-1.549479 0,-0.794271 -0.69011,-1.25 -0.48177,-0.3125 -2.39583,-0.794271 -2.57813,-0.651042 -3.58073,-1.119792 -0.98958,-0.48177 -1.51042,-1.315104 -0.50781,-0.846354 -0.50781,-1.861979 0,-0.924479 0.41667,-1.705729 0.42968,-0.794271 1.15885,-1.315104 0.54688,-0.403646 1.48438,-0.677084 0.95052,-0.286458 2.03125,-0.286458 1.6276,0 2.85156,0.46875 1.23698,0.46875 1.82292,1.276042 0.58593,0.794271 0.80729,2.135416 l -2.29167,0.3125 q -0.15625,-1.067708 -0.91146,-1.666666 -0.74219,-0.598959 -2.10937,-0.598959 -1.61459,0 -2.30469,0.533855 -0.6901,0.533854 -0.6901,1.25 0,0.455729 0.28645,0.820312 0.28646,0.377604 0.89844,0.625 0.35156,0.130208 2.07031,0.598958 2.48698,0.664063 3.46355,1.09375 0.98958,0.416667 1.54947,1.223959 0.5599,0.807291 0.5599,2.005208 0,1.171875 -0.6901,2.213542 -0.67709,1.028645 -1.96615,1.601562 -1.28906,0.559896 -2.91667,0.559896 -2.69531,0 -4.11458,-1.119792 -1.40625,-1.119791 -1.79687,-3.320312 z"
       id="path53" />
    <path
       d="m 298.63226,49.164797 q 0,-4.752604 2.55209,-7.434896 2.55208,-2.695312 6.58854,-2.695312 2.64323,0 4.76562,1.263021 2.1224,1.263021 3.22917,3.528646 1.11979,2.252604 1.11979,5.117187 0,2.903646 -1.17187,5.195312 -1.17188,2.291667 -3.32032,3.476563 -2.14843,1.171875 -4.63541,1.171875 -2.69532,0 -4.81771,-1.302084 -2.1224,-1.302083 -3.21615,-3.554687 -1.09375,-2.252604 -1.09375,-4.765625 z m 2.60417,0.03906 q 0,3.45052 1.84896,5.442708 1.86198,1.979166 4.66146,1.979166 2.85156,0 4.6875,-2.005208 1.84895,-2.005208 1.84895,-5.690104 0,-2.330729 -0.79427,-4.0625 -0.78125,-1.744791 -2.30468,-2.695312 -1.51042,-0.963542 -3.39844,-0.963542 -2.68229,0 -4.6224,1.848958 -1.92708,1.835938 -1.92708,6.145834 z"
       id="path55" />
    <path
       d="m 323.68435,58.461672 -5.26042,-13.828125 h 2.47396 l 2.96875,8.28125 q 0.48177,1.341146 0.88541,2.786458 0.3125,-1.09375 0.8724,-2.630208 l 3.07292,-8.4375 h 2.40885 l -5.23437,13.828125 z"
       id="path57" />
    <path
       d="m 342.64267,54.008547 2.42188,0.299479 q -0.57292,2.122396 -2.1224,3.294271 -1.54948,1.171875 -3.95833,1.171875 -3.03385,0 -4.81771,-1.861979 -1.77083,-1.875 -1.77083,-5.247396 0,-3.489583 1.79687,-5.416667 1.79688,-1.927083 4.66146,-1.927083 2.77344,0 4.53125,1.888021 1.75781,1.888021 1.75781,5.3125 0,0.208333 -0.013,0.625 h -10.3125 q 0.13021,2.278646 1.28907,3.489583 1.15885,1.210938 2.89062,1.210938 1.28906,0 2.20052,-0.677084 0.91146,-0.677083 1.44531,-2.161458 z m -7.69531,-3.789062 h 7.72136 q -0.15625,-1.744792 -0.88542,-2.617188 -1.11979,-1.354167 -2.90365,-1.354167 -1.61458,0 -2.72135,1.08073 -1.09375,1.080729 -1.21094,2.890625 z"
       id="path59" />
    <path
       d="M 347.98122,58.461672 V 44.633547 h 2.10938 v 2.096354 q 0.80729,-1.471354 1.48437,-1.940104 0.69011,-0.46875 1.51042,-0.46875 1.18489,0 2.40885,0.755208 l -0.80729,2.17448 q -0.85937,-0.507813 -1.71875,-0.507813 -0.76823,0 -1.38021,0.46875 -0.61198,0.455729 -0.87239,1.276042 -0.39063,1.25 -0.39063,2.734375 v 7.239583 z"
       id="path61" />
    <path
       d="M 166.44476,91.795008 V 74.959071 h -6.28906 v -2.252605 h 15.13021 v 2.252605 h -6.31511 v 16.835937 z"
       id="path63" />
    <path
       d="M 177.57758,91.795008 V 72.706466 h 2.34375 v 6.848959 q 1.64062,-1.901042 4.14062,-1.901042 1.53646,0 2.66927,0.611979 1.13281,0.598959 1.61458,1.666667 0.4948,1.067708 0.4948,3.098958 v 8.763021 h -2.34375 v -8.763021 q 0,-1.757812 -0.76823,-2.552083 -0.75521,-0.807292 -2.14844,-0.807292 -1.04167,0 -1.96615,0.546875 -0.91145,0.533854 -1.30208,1.458333 -0.39062,0.92448 -0.39062,2.552084 v 7.565104 z"
       id="path65" />
    <path
       d="m 201.87445,87.341883 2.42187,0.299479 q -0.57291,2.122396 -2.12239,3.294271 -1.54948,1.171875 -3.95833,1.171875 -3.03386,0 -4.81771,-1.861979 -1.77084,-1.875 -1.77084,-5.247396 0,-3.489583 1.79688,-5.416667 1.79687,-1.927083 4.66146,-1.927083 2.77343,0 4.53125,1.888021 1.75781,1.888021 1.75781,5.3125 0,0.208333 -0.013,0.625 h -10.3125 q 0.13021,2.278645 1.28906,3.489583 1.15886,1.210937 2.89063,1.210937 1.28906,0 2.20052,-0.677083 0.91146,-0.677083 1.44531,-2.161458 z m -7.69531,-3.789063 h 7.72135 q -0.15625,-1.744791 -0.88542,-2.617187 -1.11979,-1.354167 -2.90364,-1.354167 -1.61458,0 -2.72136,1.080729 -1.09375,1.08073 -1.21093,2.890625 z"
       id="path67" />
    <path
       d="M 214.8432,91.795008 V 72.706466 h 2.52604 v 16.835938 h 9.40104 v 2.252604 z"
       id="path69" />
    <path
       d="m 238.50205,90.089279 q -1.30208,1.10677 -2.51302,1.5625 -1.19792,0.455729 -2.57812,0.455729 -2.27865,0 -3.50261,-1.106771 -1.22396,-1.119792 -1.22396,-2.851563 0,-1.015625 0.45573,-1.848958 0.46875,-0.846354 1.21094,-1.354166 0.75521,-0.507813 1.69271,-0.76823 0.6901,-0.182291 2.08333,-0.351562 2.83854,-0.338542 4.17969,-0.807292 0.013,-0.481771 0.013,-0.611979 0,-1.432292 -0.66406,-2.018229 -0.89844,-0.794271 -2.66927,-0.794271 -1.65365,0 -2.44792,0.585938 -0.78125,0.572916 -1.15885,2.04427 l -2.29167,-0.3125 q 0.3125,-1.471354 1.02865,-2.369791 0.71614,-0.911458 2.07031,-1.393229 1.35416,-0.494792 3.13802,-0.494792 1.77083,0 2.8776,0.416667 1.10677,0.416666 1.62761,1.054687 0.52083,0.625 0.72916,1.588542 0.11719,0.598958 0.11719,2.161458 v 3.125 q 0,3.268229 0.14323,4.140625 0.15625,0.859375 0.59896,1.653646 h -2.44792 q -0.36458,-0.729167 -0.46875,-1.705729 z m -0.19531,-5.234375 q -1.27604,0.520833 -3.82813,0.885416 -1.44531,0.208334 -2.04427,0.46875 -0.59895,0.260417 -0.92448,0.768229 -0.32552,0.494792 -0.32552,1.106771 0,0.9375 0.70313,1.5625 0.71614,0.625 2.08333,0.625 1.35417,0 2.40886,-0.585937 1.05468,-0.598959 1.54948,-1.627604 0.3776,-0.794271 0.3776,-2.34375 z"
       id="path71" />
    <path
       d="M 243.07236,91.795008 V 89.893966 L 251.87445,79.7898 q -1.4974,0.07813 -2.64323,0.07813 h -5.63802 v -1.901042 h 11.30208 v 1.549479 l -7.48698,8.776042 -1.44531,1.601562 q 1.57552,-0.117187 2.95573,-0.117187 h 6.39323 v 2.018229 z"
       id="path73" />
    <path
       d="m 257.53851,97.120528 -0.26042,-2.20052 q 0.76823,0.208333 1.34115,0.208333 0.78125,0 1.25,-0.260417 0.46875,-0.260416 0.76823,-0.729166 0.22135,-0.351563 0.71614,-1.744792 0.0651,-0.195312 0.20834,-0.572917 l -5.2474,-13.854166 h 2.52604 l 2.87761,8.007812 q 0.55989,1.523438 1.0026,3.203125 0.40365,-1.614583 0.96354,-3.151041 l 2.95573,-8.059896 h 2.34375 l -5.26041,14.0625 q -0.84636,2.278645 -1.31511,3.13802 -0.625,1.158855 -1.43229,1.692709 -0.80729,0.546875 -1.92708,0.546875 -0.67709,0 -1.51042,-0.286459 z"
       id="path75" />
    <path
       d="M 278.68434,91.795008 V 72.706466 h 6.57552 q 2.22657,0 3.39844,0.273438 1.64063,0.377604 2.79948,1.367187 1.51042,1.276042 2.25261,3.26823 0.7552,1.979166 0.7552,4.531249 0,2.17448 -0.50781,3.854167 -0.50781,1.679687 -1.30208,2.786458 -0.79427,1.09375 -1.74479,1.731771 -0.9375,0.625 -2.27865,0.950521 -1.32812,0.325521 -3.0599,0.325521 z m 2.52605,-2.252604 h 4.07552 q 1.88802,0 2.95573,-0.351563 1.08072,-0.351562 1.71875,-0.989583 0.89843,-0.898438 1.39322,-2.408854 0.50782,-1.523438 0.50782,-3.684896 0,-2.994792 -0.98959,-4.596354 -0.97656,-1.614583 -2.38281,-2.161458 -1.01562,-0.390625 -3.26823,-0.390625 h -4.01041 z"
       id="path77" />
    <path
       d="m 296.77027,84.880945 q 0,-3.841145 2.13542,-5.690104 1.78385,-1.536458 4.34896,-1.536458 2.85156,0 4.66146,1.875 1.80989,1.861979 1.80989,5.15625 0,2.669271 -0.80729,4.205729 -0.79427,1.523437 -2.33073,2.369792 -1.52344,0.846354 -3.33333,0.846354 -2.90365,0 -4.70052,-1.861979 -1.78386,-1.86198 -1.78386,-5.364584 z m 2.40886,0 q 0,2.65625 1.15885,3.984375 1.15886,1.315104 2.91667,1.315104 1.74479,0 2.90364,-1.328125 1.15886,-1.328125 1.15886,-4.049479 0,-2.565104 -1.17188,-3.880208 -1.15885,-1.328125 -2.89062,-1.328125 -1.75781,0 -2.91667,1.315104 -1.15885,1.315104 -1.15885,3.971354 z"
       id="path79" />
    <path
       d="m 312.04372,92.940841 2.27864,0.338542 q 0.14323,1.054687 0.79427,1.536458 0.8724,0.651042 2.38282,0.651042 1.6276,0 2.51302,-0.651042 0.88541,-0.651042 1.19791,-1.822917 0.18229,-0.716145 0.16927,-3.007812 -1.53645,1.809896 -3.82812,1.809896 -2.85156,0 -4.41406,-2.057292 -1.5625,-2.057292 -1.5625,-4.934896 0,-1.979166 0.71614,-3.645833 0.71615,-1.679687 2.07031,-2.591146 1.36719,-0.911458 3.20313,-0.911458 2.44792,0 4.03646,1.979167 v -1.666667 h 2.16146 v 11.953125 q 0,3.229166 -0.66407,4.570312 -0.65104,1.354167 -2.08333,2.135417 -1.41927,0.78125 -3.5026,0.78125 -2.47396,0 -3.9974,-1.119792 -1.52344,-1.106771 -1.47135,-3.346354 z m 1.9401,-8.307291 q 0,2.721354 1.08073,3.971354 1.08073,1.25 2.70833,1.25 1.61459,0 2.70834,-1.23698 1.09375,-1.25 1.09375,-3.906249 0,-2.539063 -1.13282,-3.828125 -1.11979,-1.289063 -2.70833,-1.289063 -1.5625,0 -2.65625,1.276042 -1.09375,1.263021 -1.09375,3.763021 z"
       id="path81" />
  </g>
</svg>
