<?xml version="1.0" encoding="UTF-8" standalone="no"?>
<svg
   xmlns:dc="http://purl.org/dc/elements/1.1/"
   xmlns:cc="http://creativecommons.org/ns#"
   xmlns:rdf="http://www.w3.org/1999/02/22-rdf-syntax-ns#"
   xmlns:svg="http://www.w3.org/2000/svg"
   xmlns="http://www.w3.org/2000/svg"
   viewBox="160.078 5.70125 165.638 91.7057"
   version="1.1"
   id="svg2">
  <metadata
     id="metadata11">
    <rdf:RDF>
      <cc:Work
         rdf:about="">
        <dc:format>image/svg+xml</dc:format>
        <dc:type
           rdf:resource="http://purl.org/dc/dcmitype/StillImage" />
      </cc:Work>
    </rdf:RDF>
  </metadata>
  <defs
     id="defs9" />
  <g
     aria-label="The Quick BrownFox Jumps OverThe Lazy Dog"
     id="text4521"
     style="font-style:normal;font-variant:normal;font-weight:normal;font-stretch:normal;font-size:26.6667px;line-height:125%;font-family:'Arial Narrow', sans-serif;font-variant-ligatures:normal;font-variant-caps:normal;font-variant-numeric:normal;font-feature-settings:normal;text-align:left;letter-spacing:0px;word-spacing:0px;writing-mode:lr-tb;text-anchor:start;fill:#000000;fill-opacity:1;stroke:none;stroke-width:1px;stroke-linecap:butt;stroke-linejoin:miter;stroke-opacity:1">
    <path
       d="M 165.23383,25.128336 V 8.2923989 h -5.15625 V 6.0397947 h 12.40885 v 2.2526042 h -5.18229 V 25.128336 Z"
       id="path13" />
    <path
       d="M 174.29633,25.128336 V 6.0397947 h 1.91406 v 6.8489583 q 0.67708,-0.950521 1.52344,-1.419271 0.85937,-0.481771 1.88802,-0.481771 1.80989,0 2.85156,1.158854 1.05469,1.145834 1.05469,4.21875 v 8.763021 h -1.91407 v -8.763021 q 0,-1.796875 -0.63802,-2.578125 -0.63802,-0.78125 -1.75781,-0.78125 -1.25,0 -2.13542,1.002605 -0.87239,1.002604 -0.87239,3.554687 v 7.565104 z"
       id="path15" />
    <path
       d="m 194.2182,20.675211 1.97917,0.299479 q -0.4948,2.213542 -1.79688,3.346354 -1.28906,1.119792 -3.20312,1.119792 -2.40886,0 -3.90625,-1.822917 -1.48438,-1.835937 -1.48438,-5.286458 0,-3.580729 1.4974,-5.455729 1.51041,-1.888021 3.8151,-1.888021 2.20052,0 3.67188,1.848959 1.47135,1.848958 1.47135,5.351562 l -0.013,0.625 h -8.46354 q 0.11719,2.330729 1.08073,3.515625 0.96354,1.184896 2.34375,1.184896 2.16146,0 3.00781,-2.838542 z m -6.3151,-3.789062 h 6.32812 q -0.13021,-1.796875 -0.76823,-2.682292 -0.92448,-1.289062 -2.35677,-1.289062 -1.28906,0 -2.20052,1.080729 -0.91146,1.067708 -1.0026,2.890625 z"
       id="path17" />
    <path
       d="m 216.90049,23.084065 q 1.44531,1.210938 2.65625,1.770833 l -0.61198,1.757813 q -1.71875,-0.755208 -3.35937,-2.34375 -1.73177,1.184896 -3.82813,1.184896 -3.4375,0 -5.55989,-3.007813 -1.91407,-2.708333 -1.91407,-6.848958 0,-3.098958 1.02865,-5.364583 1.02865,-2.2786458 2.69531,-3.3984374 1.67969,-1.1328125 3.77604,-1.1328125 2.07032,0 3.76302,1.171875 1.70573,1.1588541 2.70834,3.3984369 1.0026,2.226563 1.0026,5.273438 0,2.382812 -0.625,4.309896 -0.61198,1.927083 -1.73177,3.229166 z m -4.57031,-3.229166 q 1.78385,0.598958 2.95573,1.822916 1.82291,-2.057291 1.82291,-6.132812 0,-2.460938 -0.70312,-4.179688 -0.69011,-1.7187495 -1.92708,-2.6041662 -1.22396,-0.8854166 -2.6823,-0.8854166 -2.3177,0 -3.85416,1.953125 -1.52344,1.9401038 -1.52344,5.7682288 0,3.776042 1.54948,5.742188 1.54948,1.953124 3.82812,1.953124 1.09375,0 2.08334,-0.507812 -0.96354,-0.768229 -2.05729,-1.09375 z"
       id="path19" />
    <path
       d="m 229.1531,25.128336 v -2.03125 q -0.66407,1.171875 -1.5625,1.757812 -0.89844,0.585938 -2.03125,0.585938 -1.34115,0 -2.29167,-0.716146 -0.95052,-0.729167 -1.27604,-1.835937 -0.3125,-1.106771 -0.3125,-3.020834 v -8.567708 h 1.91406 v 7.669271 q 0,2.135417 0.20833,2.864583 0.22136,0.716146 0.79427,1.158854 0.58594,0.429688 1.32813,0.429688 1.38021,0 2.26562,-1.132813 0.75521,-0.976562 0.75521,-3.580729 v -7.408854 h 1.92709 v 13.828125 z"
       id="path21" />
    <path
       d="M 233.87965,8.7351072 V 6.0397947 h 1.91407 v 2.6953125 z m 0,16.3932288 V 11.300211 h 1.91407 v 13.828125 z"
       id="path23" />
    <path
       d="m 246.17132,20.063232 1.88802,0.299479 q -0.32552,2.473958 -1.64062,3.776042 -1.30208,1.302083 -3.13802,1.302083 -2.22656,0 -3.67188,-1.822917 -1.43229,-1.835937 -1.43229,-5.416666 0,-3.606771 1.44531,-5.403646 1.45834,-1.809896 3.73698,-1.809896 1.75782,0 2.95573,1.09375 1.21094,1.09375 1.54948,3.28125 l -1.86198,0.351563 q -0.27344,-1.40625 -0.95052,-2.096354 -0.67708,-0.703125 -1.6276,-0.703125 -1.41927,0 -2.35677,1.26302 -0.92448,1.25 -0.92448,3.984375 0,2.825521 0.88541,4.088542 0.89844,1.263021 2.29167,1.263021 1.09375,0 1.86198,-0.833334 0.78125,-0.846354 0.98958,-2.617187 z"
       id="path25" />
    <path
       d="M 249.72601,25.128336 V 6.0397947 h 1.91406 V 16.925211 l 4.55729,-5.625 h 2.48698 l -4.33593,5.130208 4.76562,8.697917 h -2.35677 l -3.76302,-7.070312 -1.35417,1.588541 v 5.481771 z"
       id="path27" />
    <path
       d="M 266.90049,25.128336 V 6.0397947 h 5.87239 q 1.78386,0 2.82552,0.5598959 1.04167,0.5468749 1.70573,1.7187499 0.66407,1.171875 0.66407,2.5911455 0,1.315104 -0.57292,2.369792 -0.57292,1.054687 -1.61458,1.692708 1.36718,0.494792 2.14843,1.692708 0.79427,1.184896 0.79427,2.929688 0,1.731771 -0.71614,3.046875 -0.70313,1.302083 -1.88802,1.901041 -1.1849,0.585938 -3.25521,0.585938 z m 2.07031,-11.067708 h 3.38542 q 1.32812,0 1.88802,-0.182292 0.80729,-0.273437 1.23698,-0.911458 0.4427,-0.651042 0.4427,-1.757813 0,-1.028645 -0.40364,-1.7057287 -0.39063,-0.6901041 -1.05469,-0.9505208 -0.65104,-0.2604166 -2.35677,-0.2604166 h -3.13802 z m 0,8.815104 h 3.89323 q 1.28906,0 1.90104,-0.234375 0.88542,-0.338542 1.34115,-1.106771 0.46875,-0.78125 0.46875,-1.953125 0,-1.080729 -0.44271,-1.822917 -0.44271,-0.755208 -1.19792,-1.09375 -0.74219,-0.351562 -2.34375,-0.351562 h -3.61979 z"
       id="path29" />
    <path
       d="M 281.27549,25.128336 V 11.300211 h 1.73177 v 2.096354 q 0.66406,-1.458333 1.21094,-1.927083 0.55989,-0.481771 1.25,-0.481771 0.96354,0 1.96614,0.755209 l -0.65104,2.174479 q -0.71614,-0.507813 -1.39323,-0.507813 -0.61198,0 -1.11979,0.429688 -0.50781,0.429687 -0.71614,1.197916 -0.36459,1.341146 -0.36459,2.851563 v 7.239583 z"
       id="path31" />
    <path
       d="m 287.83799,18.214274 q 0,-3.580729 1.4974,-5.403646 1.51041,-1.822917 3.8151,-1.822917 2.26563,0 3.78906,1.822917 1.52344,1.822917 1.52344,5.260416 0,3.723959 -1.49739,5.546875 -1.4974,1.822917 -3.81511,1.822917 -2.27864,0 -3.80208,-1.822917 -1.51042,-1.835937 -1.51042,-5.403645 z m 1.96615,0 q 0,2.682291 0.97656,3.997395 0.97656,1.302084 2.42188,1.302084 1.35416,0 2.3177,-1.315104 0.97657,-1.328125 0.97657,-3.984375 0,-2.669271 -0.97657,-3.971354 -0.97656,-1.315105 -2.42187,-1.315105 -1.36719,0 -2.33073,1.315105 -0.96354,1.315104 -0.96354,3.971354 z"
       id="path33" />
    <path
       d="m 302.79892,25.128336 -3.46354,-13.828125 h 1.99219 l 1.79688,7.981771 0.66406,2.96875 0.59896,-2.851563 1.79687,-8.098958 h 1.97917 l 1.69271,8.020833 0.57291,2.64323 0.65104,-2.669271 1.94011,-7.994792 h 1.875 l -3.55469,13.828125 h -1.99219 l -1.80989,-8.28125 -0.42969,-2.356771 -2.29167,10.638021 z"
       id="path35" />
    <path
       d="M 316.49684,25.128336 V 11.300211 h 1.73177 v 1.966146 q 0.625,-1.145833 1.52344,-1.705729 0.91146,-0.572917 2.08333,-0.572917 0.91146,0 1.67969,0.364584 0.78125,0.351562 1.25,0.9375 0.48177,0.572916 0.71615,1.497395 0.23437,0.92448 0.23437,2.838542 v 8.502604 h -1.92708 v -8.411458 q 0,-1.523438 -0.26042,-2.226563 -0.26042,-0.703125 -0.82031,-1.080729 -0.54688,-0.390625 -1.27604,-0.390625 -1.38021,0 -2.20052,1.028646 -0.82032,1.028646 -0.82032,3.528646 v 7.552083 z"
       id="path37" />
    <path
       d="M 161.36664,58.461672 V 39.373131 h 10.55989 v 2.252604 h -8.48958 v 5.911458 h 7.34375 v 2.252604 h -7.34375 v 8.671875 z"
       id="path39" />
    <path
       d="m 173.58018,51.547609 q 0,-3.580729 1.4974,-5.403645 1.51041,-1.822917 3.8151,-1.822917 2.26562,0 3.78906,1.822917 1.52344,1.822916 1.52344,5.260416 0,3.723959 -1.4974,5.546875 -1.49739,1.822917 -3.8151,1.822917 -2.27865,0 -3.80208,-1.822917 -1.51042,-1.835937 -1.51042,-5.403646 z m 1.96615,0 q 0,2.682292 0.97656,3.997396 0.97656,1.302084 2.42187,1.302084 1.35417,0 2.31771,-1.315105 0.97656,-1.328125 0.97656,-3.984375 0,-2.66927 -0.97656,-3.971354 -0.97656,-1.315104 -2.42187,-1.315104 -1.36719,0 -2.33073,1.315104 -0.96354,1.315105 -0.96354,3.971354 z"
       id="path41" />
    <path
       d="m 185.20778,58.461672 4.14063,-7.1875 -3.82813,-6.640625 h 2.39584 l 1.74479,3.242188 q 0.48177,0.898437 0.79427,1.549479 0.48177,-0.885417 0.85937,-1.523438 l 1.91407,-3.268229 h 2.29166 l -3.91927,6.510417 4.21875,7.317708 h -2.35677 l -2.33073,-4.296875 -0.61198,-1.158854 -2.98177,5.455729 z"
       id="path43" />
    <path
       d="m 202.6557,53.045005 1.86198,-0.3125 q 0.0781,2.1875 0.67708,2.994792 0.59896,0.807292 1.65365,0.807292 0.74219,0 1.30208,-0.403646 0.57292,-0.416667 0.76823,-1.041667 0.27344,-0.846354 0.27344,-2.565104 V 39.373131 h 2.07031 v 13.007812 q 0,3.515625 -1.15885,4.960937 -1.14584,1.445313 -3.24219,1.445313 -2.04427,0 -3.04688,-1.302084 -1.15885,-1.484375 -1.15885,-4.440104 z"
       id="path45" />
    <path
       d="m 221.84841,58.461672 v -2.03125 q -0.66406,1.171875 -1.5625,1.757812 -0.89844,0.585938 -2.03125,0.585938 -1.34115,0 -2.29167,-0.716146 -0.95052,-0.729167 -1.27604,-1.835937 -0.3125,-1.106771 -0.3125,-3.020834 v -8.567708 h 1.91406 v 7.669271 q 0,2.135416 0.20834,2.864583 0.22135,0.716146 0.79427,1.158854 0.58593,0.429688 1.32812,0.429688 1.38021,0 2.26563,-1.132813 0.75521,-0.976562 0.75521,-3.580729 v -7.408854 h 1.92708 v 13.828125 z"
       id="path47" />
    <path
       d="M 226.60102,58.461672 V 44.633547 h 1.71875 v 1.940104 q 0.57291,-1.080729 1.47135,-1.666666 0.89844,-0.585938 1.96615,-0.585938 1.19791,0 2.01822,0.625 0.83334,0.611979 1.1849,1.796875 0.67708,-1.210937 1.54948,-1.809896 0.88542,-0.611979 1.95312,-0.611979 1.62761,0 2.56511,1.106771 0.9375,1.106771 0.9375,3.541667 v 9.492187 h -1.91406 v -8.710937 q 0,-1.484375 -0.22136,-2.096355 -0.20833,-0.625 -0.6901,-0.963541 -0.48177,-0.338542 -1.08073,-0.338542 -1.23698,0 -2.01823,0.989583 -0.78125,0.976563 -0.78125,3.085938 v 8.033854 h -1.92708 v -8.984375 q 0,-1.71875 -0.53386,-2.421875 -0.52083,-0.703125 -1.44531,-0.703125 -1.3151,0 -2.08333,1.067708 -0.75521,1.054688 -0.75521,3.867188 v 7.174479 z"
       id="path49" />
    <path
       d="M 244.79111,63.761151 V 44.633547 h 1.75782 v 1.796875 q 0.65104,-1.119792 1.44531,-1.614583 0.79427,-0.494792 1.82292,-0.494792 1.34114,0 2.42187,0.794271 1.08073,0.794271 1.73177,2.421875 0.66406,1.614583 0.66406,3.893229 0,3.528646 -1.48437,5.442708 -1.47135,1.901042 -3.46354,1.901042 -0.88542,0 -1.65365,-0.455729 -0.76823,-0.455729 -1.32812,-1.289063 v 6.731771 z m 1.73178,-12.135417 q 0,2.682292 0.89843,3.958334 0.89844,1.263021 2.17448,1.263021 1.22396,0 2.14844,-1.315105 0.92448,-1.315104 0.92448,-4.0625 0,-2.708333 -0.89844,-4.010416 -0.89844,-1.302083 -2.1875,-1.302083 -1.15885,0 -2.10937,1.40625 -0.95052,1.393229 -0.95052,4.062499 z"
       id="path51" />
    <path
       d="m 256.22341,54.334068 1.90104,-0.364584 q 0.16927,1.458334 0.92448,2.17448 0.75521,0.703125 2.00521,0.703125 1.25,0 1.92708,-0.61198 0.69011,-0.625 0.69011,-1.57552 0,-0.820313 -0.58594,-1.276042 -0.40365,-0.3125 -1.95313,-0.78125 -2.23958,-0.690104 -2.99479,-1.171875 -0.75521,-0.481771 -1.17187,-1.289062 -0.41667,-0.807292 -0.41667,-1.835938 0,-1.770833 1.13281,-2.877604 1.13281,-1.106771 3.13802,-1.106771 1.26302,0 2.21354,0.455729 0.96355,0.455729 1.47136,1.223959 0.50781,0.768229 0.70312,2.20052 l -1.875,0.3125 q -0.26041,-2.265625 -2.46093,-2.265625 -1.25,0 -1.86198,0.507813 -0.61198,0.494792 -0.61198,1.276042 0,0.768229 0.58594,1.210937 0.35156,0.260417 2.08333,0.833333 2.38281,0.76823 3.08594,1.223959 0.70312,0.442708 1.09375,1.223958 0.39062,0.768229 0.39062,1.835937 0,1.979167 -1.26302,3.203125 -1.25,1.223959 -3.42448,1.223959 -4.07552,0 -4.72656,-4.453125 z"
       id="path53" />
    <path
       d="m 273.67132,49.164797 q 0,-4.882812 2.14844,-7.5 2.14844,-2.630208 5.35156,-2.630208 2.07032,0 3.77604,1.171875 1.70573,1.171875 2.69532,3.411458 1.0026,2.226563 1.0026,5.3125 0,4.244792 -1.92708,6.914062 -2.1224,2.942709 -5.5599,2.942709 -3.46354,0 -5.57291,-3.020834 -1.91407,-2.734375 -1.91407,-6.601562 z m 2.13542,0.03906 q 0,3.528645 1.54948,5.48177 1.5625,1.940104 3.78906,1.940104 2.27865,0 3.81511,-1.966145 1.54947,-1.966146 1.54947,-5.78125 0,-2.460938 -0.79427,-4.401042 -0.61198,-1.484375 -1.84895,-2.369791 -1.22396,-0.898438 -2.6823,-0.898438 -2.34375,0 -3.86718,1.953125 -1.51042,1.953125 -1.51042,6.041667 z"
       id="path55" />
    <path
       d="m 294.16611,58.461672 -4.30989,-13.828125 h 2.03125 l 2.43489,8.28125 q 0.41667,1.40625 0.72917,2.786458 0.24739,-1.09375 0.70312,-2.630208 l 2.52605,-8.4375 h 1.97916 l -4.29687,13.828125 z"
       id="path57" />
    <path
       d="m 309.68695,54.008547 1.97916,0.299479 q -0.49479,2.213542 -1.79687,3.346354 -1.28907,1.119792 -3.20313,1.119792 -2.40885,0 -3.90625,-1.822917 -1.48437,-1.835937 -1.48437,-5.286458 0,-3.580729 1.49739,-5.455729 1.51042,-1.888021 3.81511,-1.888021 2.20052,0 3.67187,1.848958 1.47136,1.848959 1.47136,5.351563 l -0.013,0.625 h -8.46355 q 0.11719,2.330729 1.08073,3.515625 0.96354,1.184896 2.34375,1.184896 2.16146,0 3.00782,-2.838542 z m -6.31511,-3.789062 h 6.32813 q -0.13021,-1.796875 -0.76823,-2.682292 -0.92448,-1.289063 -2.35677,-1.289063 -1.28907,0 -2.20052,1.08073 -0.91146,1.067708 -1.00261,2.890625 z"
       id="path59" />
    <path
       d="M 314.08798,58.461672 V 44.633547 h 1.73177 v 2.096354 q 0.66407,-1.458333 1.21094,-1.927083 0.5599,-0.481771 1.25,-0.481771 0.96354,0 1.96615,0.755208 l -0.65105,2.17448 q -0.71614,-0.507813 -1.39322,-0.507813 -0.61198,0 -1.1198,0.429688 -0.50781,0.429687 -0.71614,1.197916 -0.36459,1.341146 -0.36459,2.851563 v 7.239583 z"
       id="path61" />
    <path
       d="M 165.23383,91.795008 V 74.959071 h -5.15625 v -2.252605 h 12.40885 v 2.252605 h -5.18229 v 16.835937 z"
       id="path63" />
    <path
       d="M 174.29633,91.795008 V 72.706466 h 1.91406 v 6.848959 q 0.67708,-0.950521 1.52344,-1.419271 0.85937,-0.481771 1.88802,-0.481771 1.80989,0 2.85156,1.158854 1.05469,1.145833 1.05469,4.21875 v 8.763021 h -1.91407 v -8.763021 q 0,-1.796875 -0.63802,-2.578125 -0.63802,-0.78125 -1.75781,-0.78125 -1.25,0 -2.13542,1.002604 -0.87239,1.002604 -0.87239,3.554688 v 7.565104 z"
       id="path65" />
    <path
       d="m 194.2182,87.341883 1.97917,0.299479 q -0.4948,2.213542 -1.79688,3.346354 -1.28906,1.119792 -3.20312,1.119792 -2.40886,0 -3.90625,-1.822917 -1.48438,-1.835937 -1.48438,-5.286458 0,-3.580729 1.4974,-5.455729 1.51041,-1.888021 3.8151,-1.888021 2.20052,0 3.67188,1.848958 1.47135,1.848959 1.47135,5.351563 l -0.013,0.625 h -8.46354 q 0.11719,2.330729 1.08073,3.515625 0.96354,1.184895 2.34375,1.184895 2.16146,0 3.00781,-2.838541 z m -6.3151,-3.789063 h 6.32812 q -0.13021,-1.796875 -0.76823,-2.682291 -0.92448,-1.289063 -2.35677,-1.289063 -1.28906,0 -2.20052,1.080729 -0.91146,1.067709 -1.0026,2.890625 z"
       id="path67" />
    <path
       d="M 204.85622,91.795008 V 72.706466 h 2.07031 v 16.835938 h 7.70834 v 2.252604 z"
       id="path69" />
    <path
       d="m 224.25726,90.089279 q -0.96354,1.002604 -2.00521,1.510416 -1.04166,0.507813 -2.16146,0.507813 -1.77083,0 -2.82552,-1.067709 -1.05468,-1.067708 -1.05468,-2.877604 0,-1.197916 0.49479,-2.122395 0.49479,-0.92448 1.35416,-1.445313 0.85938,-0.520833 2.60417,-0.768229 2.34375,-0.338542 3.4375,-0.807292 l 0.013,-0.598958 q 0,-1.419271 -0.50781,-1.992188 -0.71615,-0.833333 -2.20052,-0.833333 -1.34115,0 -2.00521,0.559896 -0.66406,0.546875 -0.97656,2.070312 l -1.88802,-0.3125 q 0.40364,-2.226562 1.6276,-3.242187 1.23698,-1.015625 3.52865,-1.015625 1.78385,0 2.79948,0.677083 1.01562,0.664063 1.27604,1.653646 0.27343,0.989583 0.27343,2.890625 v 3.125 q 0,3.28125 0.11719,4.140625 0.13021,0.846354 0.49479,1.653646 h -2.0052 q -0.29948,-0.716146 -0.39063,-1.705729 z m -0.15625,-5.234375 q -1.05469,0.520833 -3.13802,0.885416 -1.21094,0.208334 -1.69271,0.481771 -0.48177,0.260417 -0.75521,0.755208 -0.26041,0.481771 -0.26041,1.119792 0,0.989583 0.61198,1.588542 0.61197,0.585937 1.6927,0.585937 1.02865,0 1.86198,-0.533854 0.84636,-0.533854 1.26302,-1.419271 0.41667,-0.898437 0.41667,-2.604166 z"
       id="path71" />
    <path
       d="M 228.04633,91.795008 V 89.893966 L 235.27289,79.7898 q -1.23698,0.07813 -2.17448,0.07813 h -4.6224 v -1.901042 h 9.27084 v 1.549479 l -6.14584,8.776042 -1.18489,1.601562 q 1.28906,-0.117187 2.42187,-0.117187 h 5.2474 v 2.018229 z"
       id="path73" />
    <path
       d="m 239.9083,97.120528 -0.20833,-2.20052 q 0.63802,0.208333 1.09375,0.208333 0.61198,0 1.00261,-0.247396 0.40364,-0.247396 0.66406,-0.768229 0.0911,-0.182292 0.75521,-2.291667 l -4.3099,-13.854166 h 2.07031 l 2.36979,8.007812 q 0.44271,1.497396 0.82032,3.203125 0.32552,-1.614583 0.78125,-3.151041 l 2.42187,-8.059896 h 1.92709 l -4.3099,14.0625 q -0.84635,2.734375 -1.34115,3.645833 -0.48177,0.924479 -1.10677,1.328125 -0.61198,0.403646 -1.39323,0.403646 -0.54687,0 -1.23698,-0.286459 z"
       id="path75" />
    <path
       d="M 257.21299,91.795008 V 72.706466 h 5.40365 q 2.0052,0 3.04687,0.351563 1.36719,0.455729 2.36979,1.666667 1.00261,1.210937 1.5625,3.059895 0.5599,1.835938 0.5599,4.361979 0,3.242188 -0.95052,5.507813 -0.95052,2.252604 -2.44792,3.203125 -1.48437,0.9375 -3.89323,0.9375 z m 2.07031,-2.252604 h 3.33334 q 2.01822,0 3.05989,-0.651042 1.04167,-0.664063 1.60156,-2.122396 0.74219,-1.940104 0.74219,-4.648437 0,-2.903646 -0.79427,-4.557292 -0.78125,-1.666666 -2.01823,-2.226562 -0.83333,-0.377604 -2.64323,-0.377604 h -3.28125 z"
       id="path77" />
    <path
       d="m 272.04372,84.880945 q 0,-3.580729 1.49739,-5.403645 1.51042,-1.822917 3.81511,-1.822917 2.26562,0 3.78906,1.822917 1.52344,1.822916 1.52344,5.260416 0,3.723958 -1.4974,5.546875 -1.49739,1.822917 -3.8151,1.822917 -2.27865,0 -3.80208,-1.822917 -1.51042,-1.835937 -1.51042,-5.403646 z m 1.96614,0 q 0,2.682292 0.97657,3.997396 0.97656,1.302083 2.42187,1.302083 1.35417,0 2.31771,-1.315104 0.97656,-1.328125 0.97656,-3.984375 0,-2.66927 -0.97656,-3.971354 -0.97656,-1.315104 -2.42187,-1.315104 -1.36719,0 -2.33073,1.315104 -0.96355,1.315104 -0.96355,3.971354 z"
       id="path79" />
    <path
       d="m 284.55674,92.940841 1.875,0.338542 q 0.13021,1.10677 0.78125,1.640625 0.65104,0.546875 1.8099,0.546875 1.26302,0 2.00521,-0.61198 0.7552,-0.598958 1.02864,-1.796874 0.16927,-0.729167 0.16927,-3.072917 -0.625,0.898437 -1.40625,1.354167 -0.78125,0.455729 -1.73177,0.455729 -2.03125,0 -3.37239,-1.71875 -1.53646,-1.979167 -1.53646,-5.299479 0,-2.226563 0.67708,-3.893229 0.67708,-1.666667 1.77083,-2.447917 1.10678,-0.78125 2.47396,-0.78125 1.00261,0 1.82292,0.494792 0.83333,0.494791 1.47135,1.484375 v -1.666667 h 1.77084 v 11.953125 q 0,3.190104 -0.52084,4.54427 -0.52083,1.367188 -1.70573,2.148438 -1.18489,0.794271 -2.85156,0.794271 -2.20052,0 -3.38541,-1.184896 -1.1849,-1.184896 -1.14584,-3.28125 z m 1.60156,-8.307291 q 0,2.721354 0.89844,3.971354 0.89844,1.25 2.20052,1.25 1.30209,0 2.21354,-1.223959 0.91146,-1.223958 0.91146,-3.893229 0,-2.604166 -0.9375,-3.867187 -0.9375,-1.276042 -2.27864,-1.276042 -1.19792,0 -2.10938,1.276042 -0.89844,1.263021 -0.89844,3.763021 z"
       id="path81" />
  </g>
</svg>
