<?xml version="1.0" encoding="UTF-8" standalone="no"?>
<svg
   xmlns:dc="http://purl.org/dc/elements/1.1/"
   xmlns:cc="http://creativecommons.org/ns#"
   xmlns:rdf="http://www.w3.org/1999/02/22-rdf-syntax-ns#"
   xmlns:svg="http://www.w3.org/2000/svg"
   xmlns="http://www.w3.org/2000/svg"
   viewBox="159.717 5.07501 211.173 92.4533"
   version="1.1"
   id="svg2">
  <metadata
     id="metadata11">
    <rdf:RDF>
      <cc:Work
         rdf:about="">
        <dc:format>image/svg+xml</dc:format>
        <dc:type
           rdf:resource="http://purl.org/dc/dcmitype/StillImage" />
      </cc:Work>
    </rdf:RDF>
  </metadata>
  <defs
     id="defs9" />
  <g
     aria-label="The Quick BrownFox Jumps OverThe Lazy Dog"
     id="text4521"
     style="font-style:normal;font-variant:normal;font-weight:normal;font-stretch:normal;font-size:26.6667px;line-height:125%;font-family:Avantgarde, 'TeX Gyre Adventor', 'URW Gothic L', sans-serif;font-variant-ligatures:normal;font-variant-caps:normal;font-variant-numeric:normal;font-feature-settings:normal;text-align:left;letter-spacing:0px;word-spacing:0px;writing-mode:lr-tb;text-anchor:start;fill:#000000;fill-opacity:1;stroke:none;stroke-width:1px;stroke-linecap:butt;stroke-linejoin:miter;stroke-opacity:1">
    <path
       d="m 159.71737,7.2083364 h 4.50666 V 25.128336 h 1.97334 V 7.2083364 h 4.50666 V 5.4216698 h -10.98666 z"
       id="path13" />
    <path
       d="m 172.57067,25.128336 h 1.97333 v -8 c 0,-3.573333 1.92,-5.12 4.45333,-5.12 2.66667,0 4.50667,1.653334 4.50667,5.28 v 7.84 h 1.97333 v -7.84 c 0,-4.88 -2.50667,-7.093333 -6.29333,-7.093333 -2,0 -3.65334,0.8 -4.64,2.24 V 5.4216698 h -1.97333 z"
       id="path15" />
    <path
       d="m 188.2773,17.768336 c 0,4.32 3.38666,7.706667 7.70666,7.706667 3.30667,0 6.16,-2.373334 7.09334,-5.146667 h -2.05334 c -0.82666,2 -2.88,3.333333 -5.09333,3.333333 -2.98667,0 -5.52,-2.293333 -5.68,-5.173333 h 13.2 c 0,-5.173333 -3.28,-8.293333 -7.6,-8.293333 -4.24,0 -7.57333,3.333333 -7.57333,7.573333 z m 2.02666,-1.066667 c 0.53334,-2.799999 2.74667,-4.693333 5.52,-4.693333 2.82667,0 4.98667,1.786667 5.65334,4.693333 z"
       id="path17" />
    <path
       d="m 213.05058,15.288336 c 0,5.653333 4.72,10.186667 10.64,10.186667 2.16,0 4.26667,-0.586667 5.92,-1.706667 1.36,1.253333 2.48,1.68 4.32,1.706667 v -1.84 c -0.16,0.02667 -0.42667,0.02667 -0.50667,0.02667 -0.82666,0 -1.44,-0.293333 -2.45333,-1.013333 2.13333,-1.813333 3.28,-4.4 3.28,-7.413333 0,-5.84 -4.50667,-10.1599999 -10.53333,-10.1599999 -6.08,0 -10.66667,4.3733332 -10.66667,10.2133329 z m 2,0.16 c 0,-4.853333 3.73333,-8.5599996 8.61333,-8.5599996 4.85334,0 8.58667,3.6266666 8.58667,8.3466666 0,2.32 -0.88,4.373333 -2.69333,6.106666 -3.28,-2.88 -6.05334,-4.346666 -10,-4.346666 -1.52,0 -2.69334,0.186666 -4.21334,0.693333 -0.21333,-0.96 -0.29333,-1.52 -0.29333,-2.24 z m 1.12,3.92 c 1.06667,-0.426667 1.86667,-0.56 3.09333,-0.56 3.36,0 5.89334,1.066667 8.74667,3.653333 -1.33333,0.826667 -2.66667,1.2 -4.32,1.2 -3.25333,0 -6.26667,-1.946666 -7.52,-4.293333 z"
       id="path19" />
    <path
       d="m 236.78387,18.408336 c 0,5.093333 2.48,7.066667 6.18666,7.066667 2.26667,0 3.70667,-0.8 4.69334,-2.613334 v 2.266667 h 1.97333 V 10.54167 h -1.97333 v 7.493333 c 0,3.973333 -1.86667,5.626666 -4.53334,5.626666 -2.82666,0 -4.37333,-1.546666 -4.37333,-5.253333 V 10.54167 h -1.97333 z"
       id="path21" />
    <path
       d="m 252.9972,25.128336 h 1.97333 V 10.54167 h -1.97333 z m 0,-16.1866663 h 1.97333 V 5.5816698 h -1.97333 z"
       id="path23" />
    <path
       d="m 257.7705,17.795003 c 0,4.346666 3.46666,7.68 7.94666,7.68 3.01334,0 5.38667,-1.306667 7.14667,-4.64 h -2.24 c -1.52,2.026666 -2.93333,2.826666 -4.98667,2.826666 -3.28,0 -5.86666,-2.586666 -5.86666,-5.813333 0,-3.28 2.53333,-5.84 5.78666,-5.84 2.16,0 3.94667,1.04 5.06667,2.96 h 2.21333 c -1.17333,-2.933333 -3.97333,-4.773333 -7.25333,-4.773333 -4.37333,0 -7.81333,3.36 -7.81333,7.6 z"
       id="path25" />
    <path
       d="m 275.58382,25.128336 h 1.97333 v -3.013333 l 2.29333,-2.826667 4.85334,5.84 h 2.45333 l -6.05333,-7.253333 5.68,-7.333333 h -2.42667 l -6.8,8.853333 V 5.4216698 h -1.97333 z"
       id="path27" />
    <path
       d="m 296.70374,25.128336 h 4.88 c 5.46667,0 7.6,-1.76 7.6,-5.653333 0,-2.4 -1.01333,-3.92 -3.30666,-4.853333 1.52,-0.853334 2.18666,-2.133334 2.18666,-4.08 0,-3.386667 -1.94666,-5.1200002 -6.74666,-5.1200002 h -4.61334 z m 1.97334,-1.786667 v -7.653333 h 2.34666 c 3.49334,0 6.16,0.213334 6.16,3.893333 0,2.853334 -1.78666,3.76 -5.81333,3.76 z m 0,-9.439999 V 7.2083364 h 2.37333 c 3.97333,0 5.01333,0.96 5.01333,3.3599996 0,2.48 -1.28,3.333334 -4.98666,3.333334 z"
       id="path29" />
    <path
       d="m 311.66373,25.128336 h 1.97334 v -8.506667 c 0,-2.719999 1.38666,-4.213333 4.13333,-4.479999 v -1.946667 c -2.10667,0.106667 -3.36,0.826667 -4.13333,2.426667 v -2.08 h -1.97334 z"
       id="path31" />
    <path
       d="m 318.33034,17.741669 c 0,4.48 3.28,7.733334 7.81334,7.733334 4.26666,0 7.41333,-3.226667 7.41333,-7.6 0,-4.453333 -3.2,-7.68 -7.57333,-7.68 -4.32,0 -7.65334,3.28 -7.65334,7.546666 z m 2,0.05333 c 0,-3.306667 2.42667,-5.786667 5.65334,-5.786667 3.2,0 5.57333,2.506667 5.57333,5.893333 0,3.333334 -2.29333,5.76 -5.46667,5.76 -3.36,0 -5.76,-2.453333 -5.76,-5.866666 z"
       id="path33" />
    <path
       d="m 334.3303,10.54167 5.57333,14.586666 h 2.13333 l 3.14667,-9.68 3.17333,9.68 h 2.10667 l 5.65333,-14.586666 h -1.92 l -4.74666,12.213333 -3.44,-10.426667 h -1.62667 l -3.44,10.426667 -4.64,-12.213333 z"
       id="path35" />
    <path
       d="m 357.98362,25.128336 h 1.97333 v -8.026667 c 0,-3.573333 1.81334,-5.093333 4.45334,-5.093333 2.69333,0 4.50666,1.493334 4.50666,5.466667 v 7.653333 h 1.97334 v -7.653333 c 0,-5.12 -2.58667,-7.28 -6.24,-7.28 -1.92,0 -3.46667,0.746667 -4.69334,2.24 V 10.54167 h -1.97333 z"
       id="path37" />
    <path
       d="m 161.55737,58.461672 h 1.97333 v -9.013333 h 7.73333 v -1.786667 h -7.73333 v -7.12 h 8.02667 v -1.786666 h -10 z"
       id="path39" />
    <path
       d="m 173.584,51.075005 c 0,4.48 3.28,7.733333 7.81333,7.733333 4.26667,0 7.41334,-3.226666 7.41334,-7.599999 0,-4.453334 -3.2,-7.68 -7.57334,-7.68 -4.32,0 -7.65333,3.28 -7.65333,7.546666 z m 2,0.05333 c 0,-3.306667 2.42667,-5.786667 5.65333,-5.786667 3.2,0 5.57334,2.506667 5.57334,5.893333 0,3.333334 -2.29334,5.76 -5.46667,5.76 -3.36,0 -5.76,-2.453333 -5.76,-5.866666 z"
       id="path41" />
    <path
       d="m 189.61062,58.461672 h 2.24 l 3.94667,-5.84 3.92,5.84 h 2.26666 l -5.09333,-7.44 5.09333,-7.146666 h -2.26666 l -3.92,5.626666 -3.94667,-5.626666 h -2.24 l 5.06667,7.146666 z"
       id="path43" />
    <path
       d="m 209.87723,53.795005 c 0.16,3.146667 2.13334,5.04 5.28,5.04 3.36,0 5.25334,-2.16 5.25334,-6.533333 V 38.755006 h -1.97334 v 13.546666 c 0,3.12 -1.12,4.72 -3.25333,4.72 -1.94667,0 -3.22667,-1.226667 -3.36,-3.226667 z"
       id="path45" />
    <path
       d="m 224.11719,51.741672 c 0,5.093333 2.48,7.066666 6.18667,7.066666 2.26667,0 3.70667,-0.799999 4.69333,-2.613333 v 2.266667 h 1.97334 V 43.875006 h -1.97334 v 7.493333 c 0,3.973333 -1.86666,5.626666 -4.53333,5.626666 -2.82667,0 -4.37333,-1.546666 -4.37333,-5.253333 v -7.866666 h -1.97334 z"
       id="path47" />
    <path
       d="m 240.33052,58.461672 h 1.97333 v -8.506667 c 0,-2.906666 1.46667,-4.613333 3.92,-4.613333 2.24,0 3.94667,1.36 3.94667,4.613333 v 8.506667 h 1.97333 v -8.453333 c 0,-3.306667 1.68,-4.693334 4,-4.693334 2.4,0 3.86667,1.413334 3.86667,4.693334 v 8.453333 h 1.97333 v -8.666667 c 0,-4.24 -2.4,-6.293333 -5.73333,-6.293333 -2.26667,0 -3.84,0.88 -5.06667,2.826667 -1.14666,-1.946667 -2.58666,-2.8 -4.77333,-2.8 -1.84,0 -2.98667,0.56 -4.10667,2.026666 v -1.679999 h -1.97333 z"
       id="path49" />
    <path
       d="m 265.74383,63.581672 h 1.97333 v -7.626667 c 1.28,1.866667 3.25333,2.853333 5.68,2.853333 4.34667,0 7.73333,-3.333333 7.73333,-7.599999 0,-4.346667 -3.33333,-7.68 -7.68,-7.68 -2.48,0 -4.50666,1.013333 -5.73333,2.853333 v -2.506666 h -1.97333 z m 1.84,-12.48 c 0,-3.226667 2.56,-5.76 5.78666,-5.76 3.28,0 5.76,2.506667 5.76,5.866667 0,3.28 -2.48,5.786666 -5.73333,5.786666 -3.33333,0 -5.81333,-2.533333 -5.81333,-5.893333 z"
       id="path51" />
    <path
       d="m 282.73047,54.168339 c 0,2.826666 1.89334,4.639999 4.69334,4.639999 2.61333,0 4.45333,-1.866666 4.45333,-4.533333 0,-1.786666 -0.82667,-3.013333 -2.53333,-3.733333 -2.21334,-0.906667 -2.32,-0.96 -2.74667,-1.173333 -0.90667,-0.453334 -1.33333,-1.066667 -1.33333,-1.92 0,-1.173334 0.93333,-2.106667 2.10666,-2.106667 1.28,0 2.13334,0.746667 2.13334,2.133333 h 2 c 0,-2.346666 -1.76,-3.946666 -4.10667,-3.946666 -2.37333,0 -4.13333,1.733333 -4.13333,4.106666 0,1.04 0.37333,1.946667 1.09333,2.613334 0.58667,0.56 0.64,0.586666 2.69333,1.413333 2.10667,0.853333 2.82667,1.333333 2.82667,2.8 0,1.466667 -1.04,2.533333 -2.45333,2.533333 -1.62667,0 -2.74667,-1.04 -2.74667,-2.826666 z"
       id="path53" />
    <path
       d="m 301.15707,48.488339 c 0,5.733333 4.64,10.319999 10.42666,10.319999 5.70667,0 10.4,-4.613333 10.4,-10.186666 0,-5.626666 -4.69333,-10.213333 -10.4,-10.213333 -5.65333,0 -10.42666,4.613333 -10.42666,10.08 z m 2,0.05333 c 0,-4.506666 3.86666,-8.32 8.42666,-8.32 4.58667,0 8.4,3.813334 8.4,8.426667 0,4.56 -3.81333,8.346666 -8.4,8.346666 -4.64,0 -8.42666,-3.786666 -8.42666,-8.453333 z"
       id="path55" />
    <path
       d="m 323.37038,43.875006 6.13333,14.586666 h 2.08 l 6.13333,-14.586666 h -2 l -5.22666,12.266666 -5.12,-12.266666 z"
       id="path57" />
    <path
       d="m 338.38364,51.101672 c 0,4.32 3.38667,7.706666 7.70667,7.706666 3.30666,0 6.16,-2.373333 7.09333,-5.146666 h -2.05333 c -0.82667,2 -2.88,3.333333 -5.09334,3.333333 -2.98666,0 -5.52,-2.293333 -5.68,-5.173333 h 13.2 c 0,-5.173333 -3.28,-8.293333 -7.6,-8.293333 -4.24,0 -7.57333,3.333333 -7.57333,7.573333 z m 2.02667,-1.066667 c 0.53333,-2.8 2.74666,-4.693333 5.52,-4.693333 2.82666,0 4.98666,1.786667 5.65333,4.693333 z"
       id="path59" />
    <path
       d="m 356.27697,58.461672 h 1.97333 v -8.506667 c 0,-2.72 1.38667,-4.213333 4.13334,-4.48 v -1.946666 c -2.10667,0.106667 -3.36,0.826666 -4.13334,2.426666 v -2.079999 h -1.97333 z"
       id="path61" />
    <path
       d="m 159.71737,73.875008 h 4.50666 v 17.92 h 1.97334 v -17.92 h 4.50666 v -1.786666 h -10.98666 z"
       id="path63" />
    <path
       d="m 172.57067,91.795008 h 1.97333 v -8 c 0,-3.573333 1.92,-5.12 4.45333,-5.12 2.66667,0 4.50667,1.653333 4.50667,5.28 v 7.84 h 1.97333 v -7.84 c 0,-4.88 -2.50667,-7.093333 -6.29333,-7.093333 -2,0 -3.65334,0.8 -4.64,2.24 v -7.013333 h -1.97333 z"
       id="path65" />
    <path
       d="m 188.2773,84.435008 c 0,4.32 3.38666,7.706666 7.70666,7.706666 3.30667,0 6.16,-2.373333 7.09334,-5.146666 h -2.05334 c -0.82666,2 -2.88,3.333333 -5.09333,3.333333 -2.98667,0 -5.52,-2.293333 -5.68,-5.173333 h 13.2 c 0,-5.173333 -3.28,-8.293333 -7.6,-8.293333 -4.24,0 -7.57333,3.333333 -7.57333,7.573333 z m 2.02666,-1.066667 c 0.53334,-2.8 2.74667,-4.693333 5.52,-4.693333 2.82667,0 4.98667,1.786667 5.65334,4.693333 z"
       id="path67" />
    <path
       d="m 213.90391,91.795008 h 10.13334 v -1.786667 h -8.16 V 72.088342 h -1.97334 z"
       id="path69" />
    <path
       d="m 225.31724,84.541675 c 0,4.346666 3.33334,7.599999 7.81334,7.599999 2.48,0 4.08,-0.826666 5.62666,-2.906666 v 2.56 h 1.97334 V 77.208341 h -1.97334 v 2.586667 c -1.44,-2.026667 -3.22666,-2.933333 -5.76,-2.933333 -4.37333,0 -7.68,3.306666 -7.68,7.68 z m 2,-0.133334 c 0,-3.173333 2.56,-5.733333 5.73334,-5.733333 3.2,0 5.70666,2.506667 5.70666,5.76 0,3.306666 -2.45333,5.893333 -5.6,5.893333 -3.30666,0 -5.84,-2.586667 -5.84,-5.92 z"
       id="path71" />
    <path
       d="m 242.6772,91.795008 h 10.8 v -1.786667 h -8.48 l 7.97334,-11.12 v -1.68 h -10.02667 v 1.786667 h 7.78667 l -8.05334,11.013333 z"
       id="path73" />
    <path
       d="m 253.98385,77.208341 5.65333,14.106667 -2.37333,5.6 h 2.10667 l 8.42666,-19.706667 h -2.10666 l -4.93334,11.626667 -4.61333,-11.626667 z"
       id="path75" />
    <path
       d="m 277.45046,91.795008 h 5.30667 c 7.70667,0 11.33333,-4.106667 11.33333,-9.786667 0,-3.706666 -1.54666,-6.64 -4.48,-8.373333 -1.86666,-1.12 -3.94666,-1.546666 -7.52,-1.546666 h -4.64 z m 1.97334,-1.786667 V 73.875008 h 2.74666 c 2.98667,0 4.85334,0.373333 6.34667,1.28 2.26667,1.36 3.57333,3.84 3.57333,6.773333 0,2.586667 -1.01333,4.853333 -2.82666,6.32 -1.57334,1.253333 -3.6,1.76 -7.09334,1.76 z"
       id="path77" />
    <path
       d="m 296.38378,84.408341 c 0,4.48 3.28,7.733333 7.81333,7.733333 4.26667,0 7.41333,-3.226666 7.41333,-7.599999 0,-4.453334 -3.19999,-7.68 -7.57333,-7.68 -4.32,0 -7.65333,3.28 -7.65333,7.546666 z m 2,0.05333 c 0,-3.306667 2.42667,-5.786667 5.65333,-5.786667 3.2,0 5.57334,2.506667 5.57334,5.893333 0,3.333333 -2.29334,5.76 -5.46667,5.76 -3.36,0 -5.76,-2.453333 -5.76,-5.866666 z"
       id="path79" />
    <path
       d="m 313.85041,84.568341 c 0,4.266667 3.33333,7.573333 7.6,7.573333 2.61333,0 4.42666,-1.066666 5.57333,-3.306666 v 0.986666 c 0,3.84 -1.84,5.893334 -5.36,5.893334 -2.45333,0 -3.86667,-0.826667 -5.36,-3.466667 h -1.92 c 1.06667,3.413333 3.65333,5.28 7.33333,5.28 2.53334,0 4.66667,-0.96 5.92,-2.613333 0.98667,-1.333334 1.36,-2.88 1.36,-5.733334 V 77.208341 h -1.97333 v 2.586667 c -1.46667,-2 -3.25333,-2.933333 -5.70667,-2.933333 -4.26666,0 -7.46666,3.306666 -7.46666,7.706666 z m 2,-0.16 c 0,-3.333333 2.34666,-5.733333 5.57333,-5.733333 3.14667,0 5.6,2.48 5.6,5.653333 0,3.413333 -2.4,6 -5.57333,6 -3.2,0 -5.6,-2.533333 -5.6,-5.92 z"
       id="path81" />
  </g>
</svg>
