<?xml version="1.0" encoding="UTF-8" standalone="no"?>
<svg
   xmlns:dc="http://purl.org/dc/elements/1.1/"
   xmlns:cc="http://creativecommons.org/ns#"
   xmlns:rdf="http://www.w3.org/1999/02/22-rdf-syntax-ns#"
   xmlns:svg="http://www.w3.org/2000/svg"
   xmlns="http://www.w3.org/2000/svg"
   viewBox="159.531 6.38167 202.64 91.6"
   version="1.1"
   id="svg2">
  <metadata
     id="metadata11">
    <rdf:RDF>
      <cc:Work
         rdf:about="">
        <dc:format>image/svg+xml</dc:format>
        <dc:type
           rdf:resource="http://purl.org/dc/dcmitype/StillImage" />
      </cc:Work>
    </rdf:RDF>
  </metadata>
  <defs
     id="defs9" />
  <g
     aria-label="The Quick BrownFox Jumps OverThe Lazy Dog"
     id="text4521"
     style="font-style:normal;font-variant:normal;font-weight:normal;font-stretch:normal;font-size:26.6667px;line-height:125%;font-family:Blippo, fantasy;font-variant-ligatures:normal;font-variant-caps:normal;font-variant-numeric:normal;font-feature-settings:normal;text-align:left;letter-spacing:0px;word-spacing:0px;writing-mode:lr-tb;text-anchor:start;fill:#000000;fill-opacity:1;stroke:none;stroke-width:1px;stroke-linecap:butt;stroke-linejoin:miter;stroke-opacity:1">
    <path
       d="m 169.42403,12.408336 h 4 V 7.3416697 h -13.36 v 5.0666663 h 4.05334 v 12.72 h 5.30666 z"
       id="path13" />
    <path
       d="m 180.22399,7.3416697 h -4.82666 V 25.128336 h 4.82666 v -6.96 -0.02667 -0.08 c 0.0267,-0.72 0.32,-1.093333 0.85334,-1.093333 l 0.42666,0.08 c 0.32,0.133333 0.48,0.56 0.48,1.306667 v 6.773333 h 4.82667 v -8.4 -0.02667 c 0,-1.013333 -0.26667,-1.919999 -0.74667,-2.773333 -0.82666,-1.36 -1.97333,-2.053333 -3.46666,-2.053333 -0.74667,0 -1.52,0.32 -2.37334,0.906667 z"
       id="path15" />
    <path
       d="m 202.41065,19.421669 0.0267,-0.906666 v -0.02667 c 0,-1.733333 -0.64,-3.253333 -1.92,-4.56 -1.36,-1.36 -2.98667,-2.053333 -4.85333,-2.053333 -1.76,0 -3.28,0.64 -4.58667,1.866667 -1.44,1.333333 -2.16,2.933333 -2.16,4.746666 v 0.02667 c 0,1.786666 0.58667,3.333333 1.81333,4.64 1.33334,1.493333 3.01334,2.24 5.01334,2.24 1.57333,0 3.01333,-0.506667 4.32,-1.52 l -2.8,-3.333334 c -0.45334,0.48 -0.93334,0.72 -1.46667,0.72 -0.42667,0 -0.8,-0.133333 -1.12,-0.4 l -0.0267,-0.02667 c -0.64,-0.533334 -0.93333,-1.333334 -0.93333,-2.4 v -0.02667 c 0,-0.4 0.0533,-0.773333 0.18667,-1.146667 0.37333,-1.04 1.01333,-1.573333 1.94666,-1.573333 0.16,0 0.29334,0.02667 0.42667,0.05333 0.69333,0.16 1.09333,0.639999 1.25333,1.386666 h -2.66666 c -0.16,0.426667 -0.24,0.88 -0.24,1.333333 v 0.02667 c 0,0.213333 0.0533,0.533333 0.16,0.933333 z"
       id="path17" />
    <path
       d="m 218.2773,26.755003 h 5.04 v -1.493334 c 1.52,-0.533333 2.82667,-1.333333 3.94667,-2.453333 1.89333,-1.866667 2.85333,-4.133333 2.85333,-6.773333 v -0.02667 c 0,-0.186666 -0.0267,-0.373333 -0.0267,-0.56 -0.16,-2.373333 -1.14667,-4.4 -2.96,-6.053333 -1.81334,-1.6533333 -3.92,-2.5066666 -6.32,-2.5066666 -0.21334,0 -0.4,0.026667 -0.58667,0.026667 -2.4,0.1599999 -4.42667,1.0933333 -6.13333,2.8266666 -1.76,1.7866663 -2.61334,3.8933333 -2.61334,6.2933333 v 0.02667 c 0,1.706666 0.42667,3.306666 1.30667,4.746666 1.22667,2.106667 3.04,3.6 5.49333,4.453333 z m 0.18667,-9.12 v 1.973333 c -1.22667,-0.906667 -1.81333,-2.08 -1.81333,-3.493333 v -0.02667 c 0,-0.933333 0.29333,-1.786666 0.93333,-2.586666 0.85333,-1.066667 1.92,-1.6 3.22667,-1.6 h 0.0267 c 0.93334,0 1.78667,0.32 2.56,0.96 1.04,0.88 1.57334,1.973333 1.57334,3.253333 v 0.02667 c -0.0267,1.386666 -0.64,2.533333 -1.81334,3.466666 v -1.973333 z"
       id="path19" />
    <path
       d="m 232.41061,12.328336 v 6.853333 0.02667 c 0,1.546667 0.4,2.853333 1.22667,3.973333 1.12,1.6 2.66666,2.4 4.69333,2.4 1.46667,0 2.74667,-0.506666 3.81333,-1.573333 1.22667,-1.2 1.84,-2.666667 1.84,-4.426667 v -7.253333 h -4.82666 v 7.333333 0.02667 c 0,0.106667 -0.0267,0.213333 -0.0533,0.32 -0.13333,0.533333 -0.42666,0.8 -0.90666,0.8 l -0.29334,-0.05333 c -0.45333,-0.133334 -0.66666,-0.506667 -0.66666,-1.093334 v -7.333333 z"
       id="path21" />
    <path
       d="m 251.69058,12.14167 h -4.88 v 12.986666 h 4.88 z m -2.42667,-5.7600003 c -0.48,0 -0.90666,0.1333334 -1.30666,0.4 -0.74667,0.48 -1.12,1.12 -1.12,1.92 v 0.026667 c 0,0.4 0.08,0.7733334 0.26666,1.0933334 l 0.0267,0.026667 c 0.42667,0.7999997 1.12,1.1733337 2.13333,1.1733337 h 0.0267 c 0.4,0 0.77333,-0.08 1.14667,-0.266667 0.82666,-0.426667 1.25333,-1.0933333 1.25333,-2.0533333 V 8.675003 c 0,-0.4266666 -0.13333,-0.8266666 -0.37333,-1.2 -0.50667,-0.7199999 -1.2,-1.0933333 -2.05334,-1.0933333 z"
       id="path23" />
    <path
       d="m 262.51722,18.888336 c -0.37333,0.96 -1.01333,1.44 -1.89333,1.44 -0.32,0 -0.64,-0.08 -0.93334,-0.266667 -0.64,-0.373333 -0.96,-0.906666 -0.96,-1.6 v -0.02667 c 0,-0.32 0.08,-0.613334 0.24,-0.906667 0.34667,-0.666667 0.90667,-1.013333 1.68,-1.013333 0.66667,0 1.22667,0.32 1.65334,0.906666 l 4.93333,-0.16 c -0.26667,-1.279999 -0.88,-2.426666 -1.84,-3.386666 -1.38667,-1.333333 -3.01333,-2 -4.90667,-2 -1.73333,0 -3.25333,0.64 -4.56,1.893333 -1.38666,1.333334 -2.08,2.933333 -2.08,4.746667 v 0.02667 c 0,1.76 0.58667,3.28 1.76,4.586667 1.30667,1.52 2.93334,2.266667 4.88,2.266667 1.65334,0 3.09334,-0.48 4.32,-1.493334 1.54667,-1.226666 2.37334,-2.906666 2.53334,-5.013333 z"
       id="path25" />
    <path
       d="m 274.35721,7.3416697 h -4.88 V 25.128336 h 4.88 z m 7.46666,4.8000003 h -5.06666 l -2.24,4.506666 3.06666,8.48 h 5.38667 l -3.54667,-8.266667 z"
       id="path27" />
    <path
       d="M 291.63719,7.3416697 V 25.128336 h 5.25333 V 12.115003 h 1.2 0.08 0.10667 c 0.61333,0.08 0.93333,0.373333 0.93333,0.906667 v 0.05333 c -0.0267,0.64 -0.50666,0.96 -1.44,0.96 v 4.746666 h 1.36 c 0.08,0 0.16,0.02667 0.26667,0.02667 l 0.0267,0.02667 c 0.37333,0.133333 0.58666,0.4 0.58666,0.8 l -0.0267,0.213333 c -0.10667,0.48 -0.42667,0.72 -0.96,0.72 h -1.25334 v 4.56 h 1.36 c 0.4,0 0.8,-0.02667 1.2,-0.08 0.72,-0.106667 1.38667,-0.346667 1.97334,-0.666667 1.6,-0.906666 2.42666,-2.346666 2.42666,-4.373333 l -0.0533,-0.72 c -0.26667,-1.546667 -1.2,-2.773333 -2.8,-3.706666 1.28,-1.093334 1.94667,-2.4 1.94667,-3.946667 v -0.02667 c 0,-1.066666 -0.4,-1.973333 -1.14667,-2.773333 -0.98667,-0.9866666 -2.21333,-1.4933333 -3.68,-1.4933333 z"
       id="path29" />
    <path
       d="m 313.6105,12.035003 c -0.53334,-0.106667 -1.06667,-0.16 -1.6,-0.16 -1.36,0 -2.56,0.48 -3.62667,1.413333 -1.28,1.12 -1.89333,2.453334 -1.89333,4.026667 v 7.813333 h 4.96 v -6.506667 l 0.0267,-0.426666 0.0267,-0.02667 c 0.13333,-0.746667 0.56,-1.12 1.28,-1.12 0.26667,0 0.53333,0.08 0.82667,0.213333 z"
       id="path31" />
    <path
       d="m 314.33048,18.568336 v 0.02667 c 0,1.76 0.58667,3.28 1.81333,4.586666 1.30667,1.493334 2.93334,2.213334 4.85334,2.213334 1.76,0 3.30666,-0.613334 4.64,-1.893334 1.41333,-1.333333 2.13333,-2.96 2.13333,-4.88 v -0.02667 c 0,-1.76 -0.64,-3.28 -1.86667,-4.586667 -1.36,-1.413333 -2.98666,-2.133333 -4.90666,-2.133333 -1.73334,0 -3.25334,0.613333 -4.53334,1.813333 -1.44,1.333334 -2.13333,2.96 -2.13333,4.88 z m 4.96,-0.02667 v -0.02667 c 0,-0.266667 0.0533,-0.506667 0.18667,-0.746667 l 0.0267,-0.02667 c 0.32,-0.586666 0.82667,-0.906666 1.52,-0.906666 0.29334,0 0.58667,0.08 0.88,0.213333 0.64,0.373333 0.98667,0.906667 0.98667,1.6 v 0.02667 c 0,0.32 -0.08,0.586666 -0.24,0.853333 -0.37333,0.613333 -0.90667,0.906667 -1.6,0.906667 -0.32,0 -0.58667,-0.08 -0.85333,-0.24 -0.61334,-0.346667 -0.90667,-0.906667 -0.90667,-1.653334 z"
       id="path33" />
    <path
       d="m 329.93045,12.328336 v 7.466667 0.02667 c 0,1.226667 0.24,2.293334 0.74666,3.2 0.90667,1.706667 2.37334,2.56 4.4,2.56 1.28,0 2.53334,-0.586666 3.76,-1.813333 l 0.0533,0.05333 0.0267,0.02667 c 1.17334,1.173333 2.45334,1.733333 3.86667,1.733333 1.22667,0 2.29333,-0.426666 3.25333,-1.28 1.14667,-1.013333 1.73334,-2.293333 1.73334,-3.786666 v -8.186667 h -4.8 v 6.746667 0.02667 c 0,0.906667 -0.26667,1.333334 -0.8,1.333334 -0.58667,0 -0.85334,-0.453334 -0.85334,-1.36 v -6.746667 h -4.82666 v 6.746667 0.02667 c 0,0.906667 -0.26667,1.333334 -0.8,1.333334 -0.58667,0 -0.88,-0.453334 -0.88,-1.36 v -6.746667 z"
       id="path35" />
    <path
       d="m 362.17043,25.128336 v -6.853333 -0.02667 c 0,-1.52 -0.42667,-2.853333 -1.22667,-3.973333 -1.12,-1.6 -2.69333,-2.4 -4.69333,-2.4 -1.49334,0 -2.74667,0.533333 -3.81334,1.573333 -1.22666,1.226667 -1.84,2.693334 -1.84,4.426667 v 7.253333 h 4.82667 v -7.333333 l 0.0533,-0.346667 c 0.13334,-0.506667 0.42667,-0.773333 0.90667,-0.773333 l 0.24,0.02667 h 0.0267 c 0.45333,0.133334 0.69333,0.506667 0.69333,1.093334 v 7.333333 z"
       id="path37" />
    <path
       d="m 166.5707,49.048339 h -1.78667 v -2.373334 l 0.0533,-0.426666 c 0.13333,-0.693334 0.56,-1.066667 1.30666,-1.066667 0.53334,0 0.90667,0.346667 1.17334,1.013333 l 4.34666,-3.173333 c -1.44,-1.84 -3.25333,-2.773333 -5.38666,-2.773333 -1.78667,0 -3.33334,0.64 -4.64,1.92 -1.41334,1.386667 -2.10667,3.013333 -2.10667,4.906666 v 11.386667 h 5.25333 v -4.64 h 1.78667 z"
       id="path39" />
    <path
       d="m 171.63735,51.901672 v 0.02667 c 0,1.76 0.58667,3.28 1.81334,4.586666 1.30666,1.493334 2.93333,2.213333 4.85333,2.213333 1.76,0 3.30667,-0.613333 4.64,-1.893333 1.41333,-1.333333 2.13333,-2.96 2.13333,-4.88 v -0.02667 c 0,-1.76 -0.64,-3.28 -1.86666,-4.586667 -1.36,-1.413333 -2.98667,-2.133333 -4.90667,-2.133333 -1.73333,0 -3.25333,0.613333 -4.53333,1.813333 -1.44,1.333333 -2.13334,2.96 -2.13334,4.88 z m 4.96,-0.02667 v -0.02667 c 0,-0.266667 0.0533,-0.506667 0.18667,-0.746667 l 0.0267,-0.02667 c 0.32,-0.586666 0.82666,-0.906666 1.52,-0.906666 0.29333,0 0.58666,0.08 0.88,0.213333 0.64,0.373333 0.98666,0.906667 0.98666,1.6 v 0.02667 c 0,0.32 -0.08,0.586666 -0.24,0.853333 -0.37333,0.613333 -0.90666,0.906667 -1.6,0.906667 -0.32,0 -0.58666,-0.08 -0.85333,-0.24 -0.61333,-0.346667 -0.90667,-0.906667 -0.90667,-1.653334 z"
       id="path41" />
    <path
       d="m 193.93067,45.475005 v 3.28 0.05333 0.02667 c -0.0533,0.746667 -0.34667,1.093334 -0.93334,1.093334 l -0.26666,-0.05333 c -0.42667,-0.133333 -0.64,-0.506666 -0.64,-1.12 v -3.28 h -4.88 v 2.853334 l 0.0267,0.32 c 0.10667,1.28 0.74667,2.266666 1.92,2.986666 -1.30666,0.826667 -1.94666,1.893334 -1.94666,3.2 v 3.626667 h 4.88 v -4.106667 -0.02667 c 0,-0.08 0,-0.16 0.0267,-0.266667 0.08,-0.56 0.37334,-0.853333 0.90667,-0.853333 0.58667,0.02667 0.90667,0.48 0.90667,1.333333 v 3.92 h 4.85333 v -3.626667 -0.02667 c 0,-1.386667 -0.53333,-2.453334 -1.57333,-3.173334 l 0.37333,-0.32 v -0.02667 c 0.8,-0.746667 1.2,-1.733334 1.2,-2.96 v -2.853334 z"
       id="path43" />
    <path
       d="m 214.46395,40.701672 h -5.25333 v 11.28 0.02667 c 0,1.093333 -0.4,1.626666 -1.2,1.626666 l -0.56,-0.133333 v 5.12 l 0.0533,0.02667 c 0.61334,0.186667 1.14667,0.266667 1.57334,0.266667 1.38666,0 2.61333,-0.56 3.68,-1.706666 1.12,-1.2 1.70666,-2.586667 1.70666,-4.186667 z"
       id="path45" />
    <path
       d="m 217.47729,45.661672 v 6.853333 0.02667 c 0,1.546667 0.4,2.853333 1.22666,3.973333 1.12,1.6 2.66667,2.4 4.69334,2.4 1.46666,0 2.74666,-0.506667 3.81333,-1.573333 1.22667,-1.2 1.84,-2.666667 1.84,-4.426667 v -7.253333 h -4.82667 v 7.333333 0.02667 c 0,0.106667 -0.0267,0.213333 -0.0533,0.32 -0.13333,0.533333 -0.42667,0.8 -0.90667,0.8 l -0.29333,-0.05333 c -0.45333,-0.133334 -0.66667,-0.506667 -0.66667,-1.093334 v -7.333333 z"
       id="path47" />
    <path
       d="m 249.74393,58.461672 v -7.44 -0.02667 c 0,-1.2 -0.24,-2.266666 -0.72,-3.2 -0.90667,-1.706666 -2.4,-2.586666 -4.42667,-2.586666 -1.28,0 -2.53333,0.613333 -3.76,1.84 l -0.08,-0.08 c -1.22667,-1.173334 -2.50667,-1.76 -3.86667,-1.76 -1.22666,0 -2.32,0.453333 -3.25333,1.306666 -1.17333,1.04 -1.73333,2.293334 -1.73333,3.786667 v 8.16 h 4.8 v -6.72 -0.02667 c 0,-0.853333 0.26666,-1.306666 0.8,-1.36 h 0.0267 c 0.53334,0 0.82667,0.48 0.82667,1.386667 v 6.72 h 4.82667 v -6.72 -0.02667 c 0,-0.853333 0.26666,-1.306666 0.82666,-1.36 h 0.0267 c 0.53333,0 0.82667,0.48 0.82667,1.386667 v 6.72 z"
       id="path49" />
    <path
       d="m 258.3039,58.648338 1.09333,0.08 c 1.78667,0 3.30667,-0.586666 4.58667,-1.786666 1.41333,-1.36 2.13333,-3.093333 2.13333,-5.226667 v -0.02667 c -0.0267,-1.706667 -0.69333,-3.226667 -2.02666,-4.506667 -1.38667,-1.28 -2.96,-1.946667 -4.74667,-1.946667 -1.81333,0 -3.36,0.64 -4.64,1.866667 -1.44,1.36 -2.13333,3.04 -2.13333,5.013333 v 12.666667 h 4.90666 v -12.213333 -0.24 -0.02667 c 0,-0.24 0.0267,-0.48 0.08,-0.693333 0.21334,-1.013334 0.82667,-1.52 1.78667,-1.52 h 0.0267 c 0.29333,0 0.58666,0.08 0.85333,0.213333 h 0.0267 c 0,0 0.0267,0.02667 0.0267,0.02667 0.69334,0.373333 1.04,0.933333 1.04,1.706666 v 0.02667 c 0,0.32 -0.08,0.64 -0.24,0.906667 -0.37333,0.64 -0.93333,0.933333 -1.65333,0.933333 -0.32,0 -0.69333,-0.133333 -1.12,-0.4 z"
       id="path51" />
    <path
       d="m 276.54389,45.661672 h -1.46667 c -0.77333,0 -1.44,0.08 -2.02667,0.24 -2.16,0.64 -3.28,2.48 -3.38666,5.546667 v 0.05333 c -0.0267,0.373333 -0.08,0.693333 -0.18667,0.96 -0.29333,0.8 -1.06667,1.2 -2.29333,1.2 v 5.146666 h 1.2 c 1.25333,0 2.34666,-0.293333 3.30666,-0.826666 1.78667,-1.013333 2.77334,-2.773333 2.96,-5.28 0.0267,-0.373333 0.08,-0.666667 0.16,-0.906667 v -0.02667 l 0.0267,-0.02667 c 0.21333,-0.613333 0.77333,-0.933333 1.70667,-0.96 z"
       id="path53" />
    <path
       d="m 285.23717,49.288339 0.0267,0.506666 c 0.10667,2.506667 1.04,4.613334 2.8,6.373334 1.81333,1.84 3.97333,2.746666 6.50667,2.746666 l 0.56,-0.02667 c 2.45333,-0.133333 4.56,-1.146666 6.26666,-3.039999 1.65333,-1.866667 2.50667,-4.053334 2.50667,-6.56 v -0.02667 -0.426667 c -0.13334,-2.4 -1.12,-4.426666 -2.96,-6.106666 -1.84,-1.653333 -3.97333,-2.48 -6.42667,-2.48 h -0.42666 c -2.42667,0.133333 -4.48,1.04 -6.18667,2.72 -1.78667,1.76 -2.66667,3.866666 -2.66667,6.32 z m 5.2,0.08 v -0.02667 c 0,-0.906667 0.29334,-1.706667 0.90667,-2.426667 0.82667,-1.013333 1.89333,-1.52 3.2,-1.52 0.90667,0 1.73333,0.266667 2.50667,0.8 1.09333,0.8 1.65333,1.866667 1.65333,3.146667 v 0.02667 c 0,0.986666 -0.29333,1.866666 -0.88,2.64 -0.85333,1.173333 -1.94667,1.733333 -3.28,1.733333 -0.98667,0 -1.84,-0.32 -2.58667,-1.013333 -1.01333,-0.88 -1.52,-2 -1.52,-3.36 z"
       id="path55" />
    <path
       d="m 316.14378,45.475005 h -4.50666 l -1.52,3.52 -1.38667,-3.52 h -4.64 l 6,13.493333 z"
       id="path57" />
    <path
       d="m 329.6104,52.755005 0.0267,-0.906666 v -0.02667 c 0,-1.733333 -0.64,-3.253333 -1.92,-4.56 -1.36,-1.36 -2.98667,-2.053333 -4.85333,-2.053333 -1.76,0 -3.28,0.64 -4.58667,1.866666 -1.44,1.333334 -2.16,2.933334 -2.16,4.746667 v 0.02667 c 0,1.786666 0.58667,3.333333 1.81333,4.64 1.33334,1.493333 3.01334,2.239999 5.01334,2.239999 1.57333,0 3.01333,-0.506666 4.32,-1.519999 l -2.8,-3.333334 c -0.45334,0.48 -0.93334,0.72 -1.46667,0.72 -0.42667,0 -0.8,-0.133333 -1.12,-0.4 l -0.0267,-0.02667 c -0.64,-0.533334 -0.93333,-1.333334 -0.93333,-2.4 v -0.02667 c 0,-0.4 0.0533,-0.773333 0.18667,-1.146667 0.37333,-1.04 1.01333,-1.573333 1.94666,-1.573333 0.16,0 0.29334,0.02667 0.42667,0.05333 0.69333,0.16 1.09333,0.64 1.25333,1.386667 h -2.66666 c -0.16,0.426667 -0.24,0.88 -0.24,1.333333 v 0.02667 c 0,0.213333 0.0533,0.533333 0.16,0.933333 z"
       id="path59" />
    <path
       d="m 338.89039,45.368339 c -0.53333,-0.106667 -1.06667,-0.16 -1.6,-0.16 -1.36,0 -2.56,0.48 -3.62667,1.413333 -1.28,1.12 -1.89333,2.453333 -1.89333,4.026667 v 7.813333 h 4.96 v -6.506667 l 0.0267,-0.426666 0.0267,-0.02667 c 0.13334,-0.746667 0.56,-1.12 1.28,-1.12 0.26667,0 0.53334,0.08 0.82667,0.213333 z"
       id="path61" />
    <path
       d="m 169.42403,79.075008 h 4 v -5.066667 h -13.36 v 5.066667 h 4.05334 v 12.72 h 5.30666 z"
       id="path63" />
    <path
       d="m 180.22399,74.008341 h -4.82666 v 17.786667 h 4.82666 v -6.96 -0.02667 -0.08 c 0.0267,-0.72 0.32,-1.093333 0.85334,-1.093333 l 0.42666,0.08 c 0.32,0.133333 0.48,0.56 0.48,1.306667 v 6.773333 h 4.82667 v -8.4 -0.02667 c 0,-1.013333 -0.26667,-1.92 -0.74667,-2.773333 -0.82666,-1.36 -1.97333,-2.053333 -3.46666,-2.053333 -0.74667,0 -1.52,0.32 -2.37334,0.906666 z"
       id="path65" />
    <path
       d="m 202.41065,86.088341 0.0267,-0.906666 v -0.02667 c 0,-1.733333 -0.64,-3.253333 -1.92,-4.56 -1.36,-1.36 -2.98667,-2.053333 -4.85333,-2.053333 -1.76,0 -3.28,0.64 -4.58667,1.866666 -1.44,1.333334 -2.16,2.933334 -2.16,4.746667 v 0.02667 c 0,1.786666 0.58667,3.333333 1.81333,4.639999 1.33334,1.493334 3.01334,2.24 5.01334,2.24 1.57333,0 3.01333,-0.506666 4.32,-1.52 l -2.8,-3.333333 c -0.45334,0.48 -0.93334,0.72 -1.46667,0.72 -0.42667,0 -0.8,-0.133333 -1.12,-0.4 l -0.0267,-0.02667 c -0.64,-0.533333 -0.93333,-1.333333 -0.93333,-2.399999 v -0.02667 c 0,-0.4 0.0533,-0.773333 0.18667,-1.146667 0.37333,-1.04 1.01333,-1.573333 1.94666,-1.573333 0.16,0 0.29334,0.02667 0.42667,0.05333 0.69333,0.16 1.09333,0.64 1.25333,1.386667 h -2.66666 c -0.16,0.426667 -0.24,0.88 -0.24,1.333333 v 0.02667 c 0,0.213333 0.0533,0.533333 0.16,0.933333 z"
       id="path67" />
    <path
       d="m 212.17064,74.008341 v 11.6 0.02667 c 0,1.466666 0.37333,2.72 1.12,3.786666 1.09333,1.6 2.69333,2.373334 4.77333,2.373334 h 1.62667 v -5.146667 c -1.54667,0 -2.29334,-0.56 -2.29334,-1.706666 V 74.008341 Z"
       id="path69" />
    <path
       d="m 228.35728,86.941674 c -0.4,0.293334 -0.82667,0.426667 -1.30667,0.426667 -0.26666,0 -0.53333,-0.08 -0.74666,-0.186667 -0.69334,-0.346666 -1.01334,-0.906666 -1.01334,-1.679999 v -0.02667 c 0,-0.293333 0.08,-0.586667 0.26667,-0.853333 0.37333,-0.586667 0.90667,-0.906667 1.6,-0.906667 0.29333,0 0.58667,0.08 0.85333,0.213333 0.64,0.373334 0.96,1.013334 0.96,1.866667 v 6 h 4.98667 v -6.533333 -0.02667 c 0,-1.76 -0.64,-3.28 -1.89333,-4.586667 -1.36,-1.386666 -2.98667,-2.106666 -4.90667,-2.106666 -1.76,0 -3.28,0.613333 -4.58667,1.786666 -1.44,1.333334 -2.16,2.906667 -2.16,4.773334 v 0.02667 c 0,1.76 0.58667,3.333333 1.78667,4.666667 1.30667,1.52 2.93333,2.266666 4.88,2.266666 0.48,0 0.90667,-0.02667 1.28,-0.106666 z"
       id="path71" />
    <path
       d="m 247.82392,78.808341 h -12.08 v 5.093334 h 4.13334 l -3.97334,7.893333 h 12.50667 v -5.12 h -4.58667 z"
       id="path73" />
    <path
       d="m 252.01057,97.475008 c 0.74666,0.346666 1.54666,0.506666 2.45333,0.506666 1.97333,0 3.65333,-0.666666 5.06667,-2.026666 1.49333,-1.44 2.26666,-3.253334 2.26666,-5.386667 v -11.76 h -4.90666 v 6.853334 0.02667 c 0,0.853333 -0.32,1.253333 -0.90667,1.253333 l -0.16,-0.02667 c -0.53333,-0.05333 -0.77333,-0.453334 -0.77333,-1.146667 v -6.96 h -4.88 v 8.506667 0.02667 c 0,0.986667 0.29333,1.866667 0.88,2.666667 0.82666,1.173333 1.92,1.76 3.28,1.76 0.72,0 1.54666,-0.24 2.45333,-0.773333 -0.10667,0.373333 -0.26667,0.72 -0.48,1.04 -0.69333,1.093333 -1.57333,1.626666 -2.69333,1.626666 -0.4,0 -0.93334,-0.133333 -1.6,-0.426666 z"
       id="path75" />
    <path
       d="m 277.74389,79.315008 h 2.64 c 0.77333,0 1.49333,0.24 2.16,0.666667 1.01333,0.746666 1.54666,1.733333 1.54666,2.96 v 0.02667 c 0,0.826667 -0.24,1.546667 -0.69333,2.133334 -0.8,1.013333 -1.94667,1.519999 -3.46667,1.519999 h -1.36 v 5.226667 l 1.65334,0.05333 c 2.48,0 4.58666,-0.8 6.29333,-2.346666 l 0.0533,-0.05333 0.0533,-0.05333 c 0,0 0.0267,-0.02667 0.0533,-0.02667 1.84,-1.76 2.77333,-3.999999 2.77333,-6.773333 v -0.02667 c 0,-1.546667 -0.45333,-3.013334 -1.33333,-4.4 -1.17333,-1.813334 -2.72,-3.066667 -4.69333,-3.76 -0.82667,-0.266667 -1.84,-0.426667 -3.06667,-0.426667 h -7.94667 v 17.76 h 5.33334 z"
       id="path77" />
    <path
       d="m 291.02384,85.235008 v 0.02667 c 0,1.759999 0.58667,3.279999 1.81333,4.586666 1.30667,1.493333 2.93334,2.213333 4.85334,2.213333 1.76,0 3.30666,-0.613333 4.64,-1.893333 1.41333,-1.333333 2.13333,-2.96 2.13333,-4.88 v -0.02667 c 0,-1.76 -0.64,-3.28 -1.86667,-4.586667 -1.36,-1.413333 -2.98666,-2.133333 -4.90666,-2.133333 -1.73334,0 -3.25334,0.613333 -4.53334,1.813333 -1.44,1.333333 -2.13333,2.96 -2.13333,4.88 z m 4.96,-0.02667 v -0.02667 c 0,-0.266667 0.0533,-0.506667 0.18667,-0.746667 l 0.0267,-0.02667 c 0.32,-0.586666 0.82667,-0.906666 1.52,-0.906666 0.29334,0 0.58667,0.08 0.88,0.213333 0.64,0.373333 0.98667,0.906667 0.98667,1.6 v 0.02667 c 0,0.32 -0.08,0.586666 -0.24,0.853333 -0.37333,0.613333 -0.90667,0.906666 -1.6,0.906666 -0.32,0 -0.58667,-0.08 -0.85333,-0.24 -0.61334,-0.346666 -0.90667,-0.906666 -0.90667,-1.653333 z"
       id="path79" />
    <path
       d="m 313.55716,86.435008 c -0.34667,0.213333 -0.66667,0.293333 -0.96,0.293333 -0.29334,0 -0.56,-0.05333 -0.8,-0.186667 -0.64,-0.319999 -0.96,-0.853333 -0.96,-1.599999 v -0.02667 c 0,-0.266667 0.08,-0.56 0.24,-0.826667 0.34666,-0.613333 0.85333,-0.933333 1.52,-0.933333 0.21333,0 0.4,0.02667 0.61333,0.08 0.74667,0.266667 1.14667,0.933333 1.14667,1.973333 v 5.333333 0.02667 c 0,0.586667 -0.18667,1.12 -0.53334,1.6 -0.64,0.853333 -1.46666,1.253333 -2.50666,1.253333 -0.53334,0 -1.12,-0.16 -1.73334,-0.506666 v 4.426666 c 0.96,0.32 1.76,0.48 2.42667,0.48 1.92,0 3.62667,-0.693333 5.06667,-2.106666 1.49333,-1.44 2.24,-3.173334 2.24,-5.173334 v -5.333333 -0.02667 c 0,-1.76 -0.61334,-3.253334 -1.84,-4.533334 -1.38667,-1.386666 -3.04,-2.106666 -4.98667,-2.106666 -1.68,0 -3.17333,0.613333 -4.45333,1.786666 -1.44,1.333334 -2.13334,2.88 -2.13334,4.693334 v 0.02667 c 0,1.44 0.37334,2.72 1.14667,3.84 1.06667,1.6 2.56,2.4 4.48,2.4 0.64,0 1.33333,-0.106667 2.02667,-0.373333 z"
       id="path81" />
  </g>
</svg>
