<?xml version="1.0" encoding="UTF-8" standalone="no"?>
<svg
   xmlns:dc="http://purl.org/dc/elements/1.1/"
   xmlns:cc="http://creativecommons.org/ns#"
   xmlns:rdf="http://www.w3.org/1999/02/22-rdf-syntax-ns#"
   xmlns:svg="http://www.w3.org/2000/svg"
   xmlns="http://www.w3.org/2000/svg"
   viewBox="158.544 6.00834 228.453 92.2133"
   version="1.1"
   id="svg2">
  <metadata
     id="metadata11">
    <rdf:RDF>
      <cc:Work
         rdf:about="">
        <dc:format>image/svg+xml</dc:format>
        <dc:type
           rdf:resource="http://purl.org/dc/dcmitype/StillImage" />
      </cc:Work>
    </rdf:RDF>
  </metadata>
  <defs
     id="defs9" />
  <g
     aria-label="The Quick BrownFox Jumps OverThe Lazy Dog"
     id="text4521"
     style="font-style:normal;font-variant:normal;font-weight:normal;font-stretch:normal;font-size:26.6667px;line-height:125%;font-family:Bookman, 'URW Bookman L', serif;font-variant-ligatures:normal;font-variant-caps:normal;font-variant-numeric:normal;font-feature-settings:normal;text-align:left;letter-spacing:0px;word-spacing:0px;writing-mode:lr-tb;text-anchor:start;fill:#000000;fill-opacity:1;stroke:none;stroke-width:1px;stroke-linecap:butt;stroke-linejoin:miter;stroke-opacity:1">
    <path
       d="m 175.5307,6.9683364 h -15.49333 l -1.49334,4.6666666 0.85334,0.346667 c 1.6,-2.7733337 3.41333,-4.0000003 5.89333,-4.0000003 0.88,0 1.17333,0.2666667 1.17333,1.0666666 V 21.288336 c -0.0267,2.213333 -0.37333,2.8 -1.76,2.933333 l -1.01333,0.08 v 0.826667 h 8.21333 v -0.826667 l -1.04,-0.08 c -1.38666,-0.16 -1.73333,-0.72 -1.73333,-2.933333 V 9.155003 c 0,-0.9333333 0.21333,-1.1733333 1.06667,-1.1733333 2.37333,0 4.4,1.36 5.86666,4.0000003 l 0.96,-0.346667 z"
       id="path13" />
    <path
       d="m 182.03732,6.0083364 h -1.06667 c -1.36,0.5333333 -2,0.6933333 -3.78666,0.9066667 v 0.8266666 l 0.58666,0.053333 c 1.46667,0.1866667 1.76,0.6933333 1.73334,2.986667 v 11.279999 c 0,1.466667 -0.48,2.106667 -1.65334,2.213334 l -0.66666,0.05333 v 0.8 h 7.17333 v -0.8 l -0.66667,-0.05333 c -1.17333,-0.106667 -1.65333,-0.746667 -1.65333,-2.213334 V 15.42167 c 1.57333,-1.466667 3.06667,-2.186667 4.61333,-2.186667 1.52,0 2.29334,0.906667 2.29334,2.693333 v 6.133333 c 0,1.466667 -0.48,2.106667 -1.65334,2.213334 l -0.66666,0.05333 v 0.8 h 7.17333 v -0.8 l -0.66667,-0.05333 c -1.17333,-0.106667 -1.65333,-0.746667 -1.65333,-2.213334 v -6.293333 c 0,-1.653333 -0.29333,-2.426666 -1.2,-3.04 -0.74667,-0.506666 -1.76,-0.773333 -2.98667,-0.773333 -1.86666,0 -3.52,0.693333 -5.25333,2.213333 z"
       id="path15" />
    <path
       d="m 206.46398,21.608336 c -0.98667,1.76 -2.18667,2.56 -3.86667,2.56 -1.89333,0 -3.25333,-0.933333 -3.97333,-2.746667 -0.4,-0.933333 -0.53333,-2.106666 -0.53333,-4 h 9.25333 c -0.0267,-1.546666 -0.37333,-2.506666 -1.25333,-3.519999 -1.06667,-1.253334 -2.69334,-1.946667 -4.56,-1.946667 -3.65333,0 -6.29333,2.746667 -6.29333,6.586666 0,1.786667 0.66666,3.573334 1.76,4.8 1.2,1.36 2.82666,2.026667 4.82666,2.026667 2.45333,0 4.16,-1.013333 5.52,-3.333333 z m -8.29333,-5.253333 c 0.18667,-1.12 0.34667,-1.6 0.77333,-2.16 0.56,-0.773333 1.38667,-1.173333 2.45333,-1.173333 1.94667,0 3.17334,1.28 3.17334,3.333333 z"
       id="path17" />
    <path
       d="m 234.6506,22.701669 c 1.76,-1.946666 2.50667,-3.866666 2.50667,-6.559999 0,-5.52 -4,-9.5200003 -9.54667,-9.5200003 -5.52,0 -9.78667,4.1866663 -9.78667,9.5733333 0,5.2 4.26667,9.28 9.68,9.28 2.02667,0 3.86667,-0.48 5.52,-1.466667 0.29334,0.56 0.4,0.853333 0.4,1.306667 0,2.133333 -2.61333,3.68 -6.16,3.68 -1.36,0 -2.88,-0.266667 -3.68,-0.64 -0.85333,-0.4 -1.04,-0.64 -1.04,-1.36 0,-0.96 -0.64,-1.573334 -1.62666,-1.573334 -0.90667,0 -1.52,0.506667 -1.52,1.226667 0,1.893333 3.65333,3.546666 7.92,3.546666 4.90666,0 8.45333,-2.053333 8.45333,-4.879999 0,-0.853334 -0.32,-1.573334 -1.12,-2.613334 z m -1.68,-1.28 c -1.76,-0.64 -2.37333,-0.773333 -3.62667,-0.773333 -2.26666,0 -3.81333,0.88 -3.81333,2.186667 0,0.56 0.24,0.906666 0.96,1.44 -2.26667,-0.533334 -3.28,-1.253334 -4.32,-3.013334 -0.8,-1.386666 -1.2,-3.013333 -1.2,-4.906666 0,-5.04 2.69333,-8.4533333 6.61333,-8.4533333 3.86667,0 6.42667,3.2533333 6.42667,8.1333333 0,2.026666 -0.32,3.653333 -1.04,5.386666 z m -1.09333,1.466667 c -0.88,0.853333 -2.18667,1.386667 -3.38667,1.386667 -1.01333,0 -1.68,-0.346667 -1.68,-0.88 0,-0.693334 0.96,-1.2 2.32,-1.2 0.96,0 1.76,0.186666 2.74667,0.693333 z"
       id="path19" />
    <path
       d="m 251.02391,25.128336 h 4.85333 v -0.8 l -0.66667,-0.05333 c -1.17333,-0.106667 -1.65333,-0.746667 -1.65333,-2.213334 v -9.866666 h -0.90667 c -1.38666,0.32 -1.92,0.373333 -4.02666,0.533333 v 0.8 l 0.64,0.05333 c 1.41333,0.16 1.76,0.586666 1.76,2.213333 v 5.946666 c -1.81334,1.573334 -3.33334,2.346667 -4.66667,2.346667 -1.68,0 -2.42667,-0.906667 -2.42667,-2.933333 v -8.96 h -0.90666 c -1.38667,0.32 -1.97334,0.4 -4.02667,0.533333 v 0.8 l 0.64,0.05333 c 1.41333,0.16 1.76,0.586666 1.76,2.213333 v 5.573333 c 0,1.333333 0.24,2.08 0.85333,2.773333 0.72,0.826667 1.73334,1.226667 3.12,1.226667 1.92,0 3.36,-0.64 5.65334,-2.48 z"
       id="path21" />
    <path
       d="m 261.98386,12.195003 h -0.90667 c -1.62667,0.293333 -2.50667,0.426667 -3.92,0.533333 v 0.8 l 0.53333,0.05333 c 1.41334,0.16 1.76,0.586666 1.76,2.213333 v 6.266666 c 0,1.466667 -0.48,2.106667 -1.65333,2.213334 l -0.66667,0.05333 v 0.8 h 7.14667 v -0.8 l -0.64,-0.05333 c -1.17333,-0.106667 -1.65333,-0.746667 -1.65333,-2.213334 z m -1.22667,-4.5066666 c -0.90667,0 -1.62667,0.72 -1.62667,1.5999999 0,0.9066667 0.72,1.6266667 1.62667,1.6266667 0.88,0 1.6,-0.72 1.6,-1.6266667 0,-0.8799999 -0.72,-1.5999999 -1.6,-1.5999999 z"
       id="path23" />
    <path
       d="m 277.10384,21.768336 c -1.49333,1.893333 -2.58666,2.533333 -4.21333,2.533333 -2.77333,0 -4.58667,-2.186666 -4.58667,-5.52 0,-1.493333 0.26667,-2.799999 0.77334,-3.839999 0.61333,-1.28 1.65333,-1.92 3.12,-1.92 1.38666,0 2.64,0.826666 2.64,1.76 l -0.0267,0.933333 c 0,0.773333 0.56,1.36 1.36,1.36 0.77333,0 1.36,-0.613334 1.36,-1.44 0,-0.906667 -0.56,-1.813333 -1.52,-2.533333 -1.06667,-0.773334 -2.32,-1.146667 -3.92,-1.146667 -1.94667,0 -3.49333,0.586667 -4.61333,1.733333 -1.2,1.253334 -1.89334,3.066667 -1.89334,4.986667 0,4 2.64,6.693333 6.56,6.693333 2.56,0 4.34667,-0.96 5.73334,-3.12 z"
       id="path25" />
    <path
       d="m 287.55713,16.381669 1.2,-1.066666 c 1.6,-1.413333 2.88,-2 5.12,-2.32 v -0.8 h -7.09334 v 0.773333 c 1.04,0.08 1.49334,0.346667 1.49334,0.88 0,0.32 -0.13334,0.506667 -0.72,1.013334 l -4.16,3.626666 V 6.0083364 h -1.06667 c -1.36,0.5333333 -2,0.6933333 -3.78667,0.9066667 v 0.8266666 l 0.58667,0.053333 c 1.46667,0.1866667 1.76,0.6933333 1.73333,2.986667 v 11.279999 c 0,1.466667 -0.48,2.106667 -1.65333,2.213334 l -0.66667,0.05333 v 0.8 h 7.17334 v -0.8 l -0.69334,-0.05333 c -1.12,-0.08 -1.6,-0.746667 -1.62666,-2.213334 v -2.213333 l 2.16,-1.84 2.8,4.053333 c 0.42666,0.613334 0.69333,1.226667 0.69333,1.626667 0,0.346667 -0.26667,0.533333 -0.77333,0.586667 l -0.72,0.05333 v 0.8 h 7.2 v -0.853333 c -1.22667,-0.213334 -2.24,-0.906667 -3.22667,-2.213334 z"
       id="path27" />
    <path
       d="M 303.90375,6.9683364 V 7.795003 l 0.66667,0.08 c 1.38667,0.16 1.70667,0.6933333 1.73333,2.933333 v 10.48 c -0.0267,2.24 -0.34666,2.773333 -1.73333,2.933333 l -0.66667,0.08 v 0.826667 h 9.73334 c 2.96,0 4.8,-0.426667 6.16,-1.413333 1.22666,-0.88 2,-2.4 2,-3.946667 0,-1.493333 -0.74667,-2.853333 -2.02667,-3.653333 -0.8,-0.506667 -1.41333,-0.746667 -2.85333,-1.093333 1.36,-0.32 1.92,-0.586667 2.58666,-1.12 0.82667,-0.613334 1.28,-1.573334 1.28,-2.613334 0,-1.333333 -0.74666,-2.613333 -1.94666,-3.3066663 -1.22667,-0.72 -2.82667,-1.0133333 -5.54667,-1.0133333 z m 5.06667,7.6799996 v -4.373333 c 0,-1.92 0.53333,-2.2666666 3.6,-2.2666666 2.02667,0 3.22667,0.24 4.18667,0.8799999 0.82666,0.5333334 1.30666,1.4666667 1.30666,2.5066667 0,2.32 -1.73333,3.253333 -6,3.253333 z m 0,1.146667 h 3.14667 c 2.50666,0 3.92,0.133333 4.66666,0.453333 1.28,0.56 2,1.76 2,3.386667 0,1.36 -0.56,2.586666 -1.49333,3.28 -0.98667,0.773333 -2.53333,1.12 -4.85333,1.12 -1.68,0 -2.77334,-0.293334 -3.14667,-0.853334 -0.24,-0.346666 -0.32,-0.853333 -0.32,-2.16 z"
       id="path29" />
    <path
       d="m 328.27709,12.195003 h -0.90667 c -1.65333,0.32 -2.53333,0.426667 -4.02666,0.533333 v 0.8 l 0.64,0.05333 c 1.41333,0.16 1.76,0.586666 1.76,2.213333 v 6.266666 c 0,1.466667 -0.48,2.106667 -1.65334,2.213334 l -0.66666,0.05333 v 0.8 h 7.17333 v -0.8 l -0.66667,-0.05333 c -1.17333,-0.106667 -1.65333,-0.746667 -1.65333,-2.213334 v -6.533333 c 0.96,-1.066666 1.68,-1.493333 2.45333,-1.493333 0.45334,0 0.64,0.08 1.12,0.426667 0.48,0.32 0.88,0.453333 1.38667,0.453333 0.85333,0 1.49333,-0.613333 1.49333,-1.466667 0,-0.88 -0.8,-1.493333 -1.94666,-1.493333 -0.61334,0 -1.25334,0.133333 -1.89334,0.426667 -0.64,0.266666 -0.77333,0.373333 -2.05333,1.466666 -0.08,0.05333 -0.29333,0.266667 -0.56,0.48 z"
       id="path31" />
    <path
       d="m 341.8237,11.955003 c -1.86667,0 -3.52,0.613333 -4.58667,1.733333 -1.12,1.173334 -1.86667,3.146667 -1.86667,5.013333 0,4.026667 2.58667,6.666667 6.56,6.666667 3.86667,0 6.48,-2.666667 6.48,-6.613333 0,-1.733334 -0.61333,-3.493333 -1.6,-4.72 -1.12,-1.333333 -2.90666,-2.08 -4.98666,-2.08 z m 0.0267,1.066667 c 2.4,0 3.84,2.186666 3.84,5.866666 0,3.386667 -1.38666,5.413333 -3.73333,5.413333 -2.48,0 -3.86667,-2.053333 -3.86667,-5.653333 0,-3.413333 1.46667,-5.626666 3.76,-5.626666 z"
       id="path33" />
    <path
       d="m 363.82367,22.728336 -2.77334,-7.92 c -0.08,-0.24 -0.13333,-0.533333 -0.13333,-0.72 0,-0.666666 0.42667,-0.933333 1.6,-1.093333 v -0.8 h -6.34667 v 0.8 c 1.28,0.293333 1.6,0.56 2.10667,1.813333 l 0.45333,1.12 -2.58666,6.826667 -2.82667,-7.946667 c -0.08,-0.213333 -0.16,-0.693333 -0.16,-0.906666 0,-0.56 0.45333,-0.826667 1.52,-0.906667 v -0.8 h -6.29333 v 0.8 c 1.01333,0.106667 1.6,0.613333 2.08,1.813333 l 3.97333,10.32 h 1.73333 l 3.14667,-7.653333 2.66667,7.653333 h 1.86666 l 3.73334,-9.44 c 0.74666,-1.76 1.30666,-2.32 2.74666,-2.693333 v -0.8 H 364.437 v 0.8 c 1.25333,0.08 1.97333,0.64 1.97333,1.546667 0,0.32 -0.08,0.8 -0.18666,1.146666 z"
       id="path35" />
    <path
       d="m 375.15696,12.195003 h -0.90667 c -1.65333,0.32 -2.53333,0.426667 -4.02666,0.533333 v 0.8 l 0.64,0.05333 c 1.41333,0.16 1.76,0.586666 1.76,2.213333 v 6.266666 c 0,1.466667 -0.48,2.106667 -1.65334,2.213334 l -0.66666,0.05333 v 0.8 h 7.17333 v -0.8 l -0.66667,-0.05333 c -1.17333,-0.106667 -1.65333,-0.746667 -1.65333,-2.213334 v -6.586666 c 1.65333,-1.493333 3.22667,-2.24 4.72,-2.24 1.46667,0 2.26667,0.933333 2.26667,2.666667 v 6.159999 c 0,1.466667 -0.50667,2.106667 -1.65334,2.213334 l -0.66666,0.05333 v 0.8 h 7.17333 v -0.8 l -0.66667,-0.05333 c -1.17333,-0.106667 -1.65333,-0.746667 -1.65333,-2.213334 v -6.586666 c 0,-2.213333 -1.49333,-3.52 -4.02667,-3.52 -2.05333,0 -3.6,0.666667 -5.49333,2.346667 z"
       id="path37" />
    <path
       d="m 175.0507,40.301672 h -14.69333 v 0.826667 l 0.66666,0.08 c 1.38667,0.16 1.70667,0.693333 1.73334,2.933333 v 10.48 c -0.0267,2.24 -0.34667,2.773333 -1.73334,2.933333 l -0.66666,0.08 v 0.826667 h 7.68 v -0.826667 l -0.88,-0.08 c -1.38667,-0.16 -1.70667,-0.693333 -1.73334,-2.933333 v -5.28 h 1.76 c 2.29334,0.02667 3.17334,0.88 3.44,3.413333 h 0.82667 v -7.893333 h -0.82667 c -0.24,2.64 -0.98666,3.36 -3.44,3.333333 h -1.76 v -4.159999 c 0,-1.173334 0.13334,-1.706667 0.45334,-2.026667 0.37333,-0.373333 1.33333,-0.586667 2.53333,-0.586667 3.22667,0 5.36,1.066667 7.70667,3.866667 l 0.85333,-0.426667 z"
       id="path39" />
    <path
       d="m 183.07732,45.288339 c -1.86667,0 -3.52,0.613333 -4.58667,1.733333 -1.12,1.173333 -1.86667,3.146667 -1.86667,5.013333 0,4.026667 2.58667,6.666667 6.56,6.666667 3.86667,0 6.48,-2.666667 6.48,-6.613333 0,-1.733334 -0.61333,-3.493334 -1.6,-4.72 -1.12,-1.333334 -2.90666,-2.08 -4.98666,-2.08 z m 0.0267,1.066666 c 2.4,0 3.84,2.186667 3.84,5.866667 0,3.386667 -1.38666,5.413333 -3.73333,5.413333 -2.48,0 -3.86667,-2.053333 -3.86667,-5.653333 0,-3.413333 1.46667,-5.626667 3.76,-5.626667 z"
       id="path41" />
    <path
       d="m 198.65062,51.021672 2.32,-2.48 c 1.46667,-1.44 2.21334,-1.866667 4,-2.213333 v -0.8 h -5.62666 v 0.8 c 0.96,0.106666 1.2,0.24 1.2,0.693333 0,0.213333 -0.08,0.426667 -0.26667,0.64 l -2.26667,2.56 -2.10666,-2.56 c -0.18667,-0.266667 -0.32,-0.506667 -0.32,-0.666667 0,-0.373333 0.32,-0.56 1.09333,-0.64 l 0.26667,-0.02667 v -0.8 h -6.61334 v 0.8 c 1.28,0.186666 1.78667,0.506666 2.72,1.626666 l 3.12,3.92 -3.38666,3.813334 c -1.2,1.36 -1.89334,1.786666 -3.17334,1.973333 v 0.8 h 5.97334 v -0.8 c -0.93334,-0.16 -1.14667,-0.213333 -1.33334,-0.32 -0.26666,-0.16 -0.45333,-0.426667 -0.45333,-0.693333 0,-0.266667 0.18667,-0.613334 0.48,-0.96 l 2.66667,-2.986667 2.4,3.36 c 0.16,0.24 0.26666,0.506667 0.26666,0.72 0,0.506667 -0.32,0.693333 -1.6,0.88 v 0.8 h 7.38667 v -0.8 c -1.44,-0.24 -1.92,-0.56 -3.09333,-1.973333 z"
       id="path43" />
    <path
       d="m 221.15727,41.128339 0.66667,0.08 c 1.38666,0.16 1.70666,0.693333 1.73333,2.933333 v 6.026667 c 0,3.36 -0.18667,4.64 -0.85333,5.706666 -0.66667,1.066667 -1.97334,1.653334 -3.62667,1.653334 -1.30667,0 -2.29333,-0.346667 -3.06667,-1.093334 -0.50666,-0.48 -0.77333,-1.013333 -0.77333,-1.52 0,-0.426666 0.13333,-0.693333 0.53333,-1.066666 0.48,-0.426667 0.66667,-0.8 0.66667,-1.28 0,-0.88 -0.58667,-1.44 -1.46667,-1.44 -1.22666,0 -2.08,0.986666 -2.08,2.373333 0,1.52 0.93334,3.173333 2.37334,4.133333 1.12,0.746667 2.69333,1.173333 4.32,1.173333 2.4,0 4.64,-0.933333 5.70666,-2.373333 0.77334,-1.013333 0.93334,-1.92 0.93334,-4.906666 v -7.386667 c 0.0267,-2.24 0.34666,-2.773333 1.73333,-2.933333 l 0.66667,-0.08 v -0.826667 h -7.46667 z"
       id="path45" />
    <path
       d="m 242.06389,58.461672 h 4.85333 v -0.8 l -0.66666,-0.05333 c -1.17334,-0.106667 -1.65334,-0.746667 -1.65334,-2.213334 v -9.866666 h -0.90666 c -1.38667,0.32 -1.92,0.373333 -4.02667,0.533333 v 0.8 l 0.64,0.05333 c 1.41333,0.16 1.76,0.586667 1.76,2.213334 v 5.946666 c -1.81333,1.573334 -3.33333,2.346667 -4.66667,2.346667 -1.68,0 -2.42666,-0.906667 -2.42666,-2.933333 v -8.96 h -0.90667 c -1.38667,0.32 -1.97333,0.4 -4.02667,0.533333 v 0.8 l 0.64,0.05333 c 1.41334,0.16 1.76,0.586667 1.76,2.213334 v 5.573333 c 0,1.333333 0.24,2.08 0.85334,2.773333 0.72,0.826667 1.73333,1.226667 3.12,1.226667 1.92,0 3.36,-0.64 5.65333,-2.48 z"
       id="path47" />
    <path
       d="m 261.50385,48.515005 c 1.62667,-1.36 2.69333,-1.84 3.92,-1.84 1.38667,0 2.10667,0.986667 2.10667,2.906667 v 5.813333 c 0,1.466667 -0.48,2.106667 -1.65334,2.213334 l -0.48,0.05333 v 0.8 h 6.98667 v -0.8 l -0.66667,-0.05333 c -1.17333,-0.106667 -1.65333,-0.746667 -1.65333,-2.213334 v -6.533333 c 0,-2.24 -1.30667,-3.573333 -3.54667,-3.573333 -1.78666,0 -3.14666,0.586666 -5.06666,2.213333 -0.72,-1.6 -1.73334,-2.213333 -3.65334,-2.213333 -1.89333,0 -3.14666,0.533333 -4.85333,2.026666 v -1.786666 h -0.90667 c -1.54666,0.293333 -2.37333,0.4 -3.94666,0.533333 v 0.8 l 0.56,0.05333 c 1.41333,0.16 1.76,0.586667 1.76,2.213334 v 6.266666 c 0,1.466667 -0.48,2.106667 -1.65334,2.213334 l -0.66666,0.05333 v 0.8 h 6.98666 v -0.8 l -0.48,-0.05333 c -1.17333,-0.106667 -1.65333,-0.746667 -1.65333,-2.213334 v -6.88 c 1.54667,-1.333333 2.58667,-1.84 3.84,-1.84 1.52,0 2.18667,0.88 2.18667,2.826667 v 5.893333 c 0,1.466667 -0.48,2.106667 -1.65334,2.213334 l -0.56,0.05333 v 0.8 h 6.96 v -0.8 l -0.56,-0.05333 c -1.17333,-0.106667 -1.65333,-0.746667 -1.65333,-2.213334 z"
       id="path49" />
    <path
       d="m 277.45047,45.528339 h -0.90667 c -1.54666,0.293333 -2.37333,0.4 -3.94666,0.533333 v 0.8 l 0.56,0.05333 c 1.41333,0.16 1.76,0.586667 1.76,2.213334 v 12.346666 c 0,1.466667 -0.50667,2.106667 -1.65334,2.213333 l -0.66666,0.05333 v 0.8 h 7.17333 v -0.8 l -0.66667,-0.05333 c -1.14666,-0.106666 -1.65333,-0.746666 -1.65333,-2.213333 v -4.133333 c 1.25333,0.96 2.50667,1.36 4.21333,1.36 3.38667,0 5.94667,-2.906667 5.94667,-6.773333 0,-1.653334 -0.56,-3.386667 -1.46667,-4.586667 -0.96,-1.28 -2.61333,-2.053333 -4.34666,-2.053333 -1.76,0 -3.14667,0.64 -4.34667,2 z m 0,3.093333 c 1.12,-1.52 2.16,-2.133333 3.52,-2.133333 2.37333,0 3.92,2.266666 3.92,5.76 0,3.04 -1.62667,5.253333 -3.89333,5.253333 -1.33334,0 -2.53334,-0.48 -3.54667,-1.466667 z"
       id="path51" />
    <path
       d="m 299.77044,45.635005 h -0.74667 l -0.26666,0.96 c -1.14667,-0.906666 -2.29334,-1.306666 -3.81334,-1.306666 -2.74666,0 -4.88,1.706666 -4.88,3.893333 0,1.68 1.14667,2.666667 3.97334,3.386667 l 3.41333,0.853333 c 1.33333,0.346667 1.94667,0.906667 1.94667,1.76 0,1.413333 -1.46667,2.453333 -3.44,2.453333 -1.65334,0 -3.28,-0.72 -4.26667,-1.92 -0.48,-0.56 -0.74667,-1.093333 -1.12,-2.106666 h -0.90667 l 0.90667,4.746666 h 0.88 l 0.29333,-1.12 c 1.44,1.093333 2.53334,1.466667 4.29334,1.466667 3.2,0 5.54666,-1.84 5.54666,-4.32 0,-1.813333 -1.06666,-2.88 -3.38666,-3.44 l -3.70667,-0.906667 c -0.66667,-0.16 -0.96,-0.266666 -1.25333,-0.4 -0.50667,-0.266666 -0.82667,-0.746666 -0.82667,-1.28 0,-1.146666 1.12,-2 2.69333,-2 2.02667,0 3.78667,1.28 4.66667,3.386667 h 0.85333 z"
       id="path53" />
    <path
       d="m 321.7704,39.955006 c -5.36,0 -9.6,4.133333 -9.6,9.359999 0,5.386667 4.10667,9.493333 9.49334,9.493333 2.93333,0 5.81333,-1.333333 7.57333,-3.493333 1.30667,-1.6 1.97333,-3.6 1.97333,-5.866666 0,-5.493333 -3.97333,-9.493333 -9.44,-9.493333 z m -0.0533,1.28 c 3.89333,0 6.34667,3.226666 6.34667,8.373333 0,4.826666 -2.50667,7.92 -6.37334,7.92 -3.89333,0 -6.37333,-3.173334 -6.37333,-8.186667 0,-4.906667 2.53333,-8.106666 6.4,-8.106666 z"
       id="path55" />
    <path
       d="m 340.27701,56.115005 -3.01333,-7.92 c -0.13334,-0.346666 -0.21334,-0.72 -0.21334,-0.906666 0,-0.56 0.37334,-0.826667 1.25334,-0.906667 0.0533,0 0.24,-0.02667 0.45333,-0.05333 v -0.8 h -6.50667 v 0.826666 c 1.2,0.186667 1.57334,0.48 2.18667,1.84 l 4.24,10.266667 h 1.57333 l 4.08,-9.44 c 0.69334,-1.546667 1.54667,-2.373333 2.77334,-2.64 v -0.853333 h -5.49334 v 0.8 c 1.28,0.186666 1.70667,0.533333 1.70667,1.36 0,0.266666 -0.10667,0.693333 -0.26667,1.12 z"
       id="path57" />
    <path
       d="m 358.41029,54.941672 c -0.98666,1.76 -2.18666,2.56 -3.86666,2.56 -1.89334,0 -3.25334,-0.933333 -3.97334,-2.746667 -0.4,-0.933333 -0.53333,-2.106666 -0.53333,-4 h 9.25333 c -0.0267,-1.546666 -0.37333,-2.506666 -1.25333,-3.52 -1.06667,-1.253333 -2.69333,-1.946666 -4.56,-1.946666 -3.65333,0 -6.29333,2.746666 -6.29333,6.586666 0,1.786667 0.66666,3.573334 1.76,4.8 1.2,1.36 2.82666,2.026667 4.82666,2.026667 2.45334,0 4.16,-1.013333 5.52,-3.333333 z m -8.29333,-5.253333 c 0.18667,-1.12 0.34667,-1.6 0.77333,-2.16 0.56,-0.773334 1.38667,-1.173334 2.45334,-1.173334 1.94666,0 3.17333,1.28 3.17333,3.333334 z"
       id="path59" />
    <path
       d="m 365.53025,45.528339 h -0.90667 c -1.65333,0.32 -2.53333,0.426666 -4.02666,0.533333 v 0.8 l 0.64,0.05333 c 1.41333,0.16 1.76,0.586667 1.76,2.213334 v 6.266666 c 0,1.466667 -0.48,2.106667 -1.65334,2.213334 l -0.66666,0.05333 v 0.8 h 7.17333 v -0.8 l -0.66667,-0.05333 c -1.17333,-0.106667 -1.65333,-0.746667 -1.65333,-2.213334 v -6.533333 c 0.96,-1.066667 1.68,-1.493333 2.45333,-1.493333 0.45334,0 0.64,0.08 1.12,0.426666 0.48,0.32 0.88,0.453334 1.38667,0.453334 0.85333,0 1.49333,-0.613334 1.49333,-1.466667 0,-0.88 -0.8,-1.493333 -1.94666,-1.493333 -0.61334,0 -1.25334,0.133333 -1.89334,0.426666 -0.64,0.266667 -0.77333,0.373334 -2.05333,1.466667 -0.08,0.05333 -0.29333,0.266667 -0.56,0.48 z"
       id="path61" />
    <path
       d="m 175.5307,73.635008 h -15.49333 l -1.49334,4.666667 0.85334,0.346666 c 1.6,-2.773333 3.41333,-4 5.89333,-4 0.88,0 1.17333,0.266667 1.17333,1.066667 v 12.24 c -0.0267,2.213333 -0.37333,2.8 -1.76,2.933333 l -1.01333,0.08 v 0.826667 h 8.21333 v -0.826667 l -1.04,-0.08 c -1.38666,-0.16 -1.73333,-0.72 -1.73333,-2.933333 V 75.821675 c 0,-0.933334 0.21333,-1.173334 1.06667,-1.173334 2.37333,0 4.4,1.36 5.86666,4 l 0.96,-0.346666 z"
       id="path63" />
    <path
       d="m 182.03732,72.675008 h -1.06667 c -1.36,0.533333 -2,0.693333 -3.78666,0.906667 v 0.826666 l 0.58666,0.05333 c 1.46667,0.186666 1.76,0.693333 1.73334,2.986666 v 11.28 c 0,1.466667 -0.48,2.106667 -1.65334,2.213333 l -0.66666,0.05333 v 0.8 h 7.17333 v -0.8 l -0.66667,-0.05333 c -1.17333,-0.106666 -1.65333,-0.746666 -1.65333,-2.213333 v -6.64 c 1.57333,-1.466666 3.06667,-2.186666 4.61333,-2.186666 1.52,0 2.29334,0.906666 2.29334,2.693333 v 6.133333 c 0,1.466667 -0.48,2.106667 -1.65334,2.213333 l -0.66666,0.05333 v 0.8 h 7.17333 v -0.8 l -0.66667,-0.05333 c -1.17333,-0.106666 -1.65333,-0.746666 -1.65333,-2.213333 v -6.293333 c 0,-1.653333 -0.29333,-2.426667 -1.2,-3.04 -0.74667,-0.506667 -1.76,-0.773333 -2.98667,-0.773333 -1.86666,0 -3.52,0.693333 -5.25333,2.213333 z"
       id="path65" />
    <path
       d="m 206.46398,88.275008 c -0.98667,1.76 -2.18667,2.56 -3.86667,2.56 -1.89333,0 -3.25333,-0.933334 -3.97333,-2.746667 -0.4,-0.933333 -0.53333,-2.106666 -0.53333,-4 h 9.25333 c -0.0267,-1.546666 -0.37333,-2.506666 -1.25333,-3.52 -1.06667,-1.253333 -2.69334,-1.946666 -4.56,-1.946666 -3.65333,0 -6.29333,2.746666 -6.29333,6.586666 0,1.786667 0.66666,3.573333 1.76,4.8 1.2,1.36 2.82666,2.026667 4.82666,2.026667 2.45333,0 4.16,-1.013334 5.52,-3.333334 z m -8.29333,-5.253333 c 0.18667,-1.12 0.34667,-1.6 0.77333,-2.16 0.56,-0.773334 1.38667,-1.173334 2.45333,-1.173334 1.94667,0 3.17334,1.28 3.17334,3.333334 z"
       id="path67" />
    <path
       d="m 233.42393,86.088341 -0.74666,-0.346666 c -1.22667,1.733333 -1.89334,2.479999 -2.93334,3.253333 -1.52,1.146666 -3.28,1.786666 -4.90666,1.786666 -0.88,0 -1.65334,-0.266666 -1.97334,-0.666666 -0.21333,-0.266667 -0.32,-0.8 -0.32,-1.6 v -11.04 c 0.0267,-2.24 0.34667,-2.773333 1.73334,-2.933333 l 0.85333,-0.08 v -0.826667 h -7.65333 v 0.826667 l 0.66666,0.08 c 1.38667,0.16 1.70667,0.693333 1.73334,2.933333 v 10.48 c -0.0267,2.24 -0.34667,2.773333 -1.73334,2.933333 l -0.66666,0.08 v 0.826667 h 13.81333 z"
       id="path69" />
    <path
       d="m 243.15721,84.221675 c -0.21333,0.02667 -0.64,0.08 -1.28,0.133333 -1.68,0.186667 -2.26666,0.266667 -3.22666,0.533333 -2.96,0.746667 -4.48,2.053333 -4.48,3.84 0,1.92 1.73333,3.306667 4.10666,3.306667 1.81334,0 3.09334,-0.533334 4.88,-2.053334 0.50667,1.44 1.41334,2.053334 2.98667,2.053334 1.14667,0 2,-0.32 2.74667,-1.04 l -0.50667,-0.693334 c -0.45333,0.4 -0.74667,0.533334 -1.2,0.533334 -0.56,0 -1.04,-0.266667 -1.25333,-0.746667 -0.18667,-0.373333 -0.24,-0.72 -0.24,-1.866667 v -5.653333 c 0,-1.6 -0.42667,-2.426666 -1.52,-3.04 -0.98667,-0.56 -2.34667,-0.906666 -3.6,-0.906666 -3.09334,0 -5.81334,1.6 -5.81334,3.386666 0,0.64 0.58667,1.173334 1.28,1.173334 0.74667,0 1.36,-0.613334 1.36,-1.36 l -0.0267,-0.746667 c 0,-0.773333 1.2,-1.386667 2.69333,-1.386667 1.89333,0 3.09333,0.906667 3.09333,2.4 z m 0,4.559999 c -1.52,1.413334 -2.61333,1.973334 -3.97333,1.973334 -1.25333,0 -2.29333,-1.013334 -2.29333,-2.266667 0,-1.813333 2.24,-2.986666 6.26666,-3.333333 z"
       id="path71" />
    <path
       d="m 262.25053,87.581674 -0.74667,-0.266666 c -1.73333,2.72 -3.28,3.68 -5.97333,3.68 -1.06667,0 -1.52,-0.08 -2.53333,-0.373334 l 8.93333,-11.093333 -0.29333,-0.666666 h -9.97334 l -1.49333,3.92 0.82667,0.293333 c 0.64,-1.306667 1.09333,-1.866667 1.84,-2.4 0.93333,-0.613333 2.42666,-1.013333 3.86666,-1.013333 0.61334,0 1.01334,0.05333 1.78667,0.213333 l -8.74667,11.146666 0.42667,0.773334 h 10.64 z"
       id="path73" />
    <path
       d="m 270.97047,89.288341 -3.33334,-8.106666 c -0.08,-0.186667 -0.10666,-0.346667 -0.10666,-0.533334 0,-0.56 0.4,-0.853333 1.44,-0.986666 v -0.8 h -6.21334 v 0.826666 c 1.30667,0.186667 1.62667,0.453334 2.13334,1.68 l 4.77333,11.146667 -0.66667,1.546666 c -0.21333,0.56 -0.64,1.253334 -1.09333,1.76 -0.37333,0.453334 -0.72,0.666667 -1.14667,0.666667 -0.26666,0 -0.53333,-0.16 -0.88,-0.506667 -0.69333,-0.746666 -0.93333,-0.88 -1.46666,-0.88 -0.77334,0 -1.41334,0.613334 -1.41334,1.306667 0,1.066667 1.06667,1.813333 2.50667,1.813333 1.06667,0 2.02667,-0.453333 2.90667,-1.36 0.82666,-0.853333 1.38666,-1.813333 2.26666,-3.92 l 4.61334,-10.826666 c 0.64,-1.493333 1.28,-2.08 2.72,-2.426667 v -0.826666 h -5.86667 v 0.8 c 1.41333,0.266666 1.81333,0.533333 1.81333,1.306666 0,0.48 -0.18666,1.2 -0.50666,2.026667 z"
       id="path75" />
    <path
       d="m 287.13043,91.795008 h 8.13333 c 4.13334,0 6.34667,-0.586667 8.21334,-2.213334 1.78666,-1.546666 2.88,-4.106666 2.88,-6.719999 0,-2.533334 -1.04,-5.173334 -2.66667,-6.72 -1.84,-1.733334 -4.4,-2.506667 -8.42667,-2.506667 h -8.13333 v 0.826667 l 0.66667,0.08 c 1.38666,0.16 1.70666,0.693333 1.73333,2.933333 v 10.48 c -0.0267,2.24 -0.34667,2.773333 -1.73333,2.933333 l -0.66667,0.08 z m 5.06667,-14.613333 c 0,-1.013334 0.08,-1.52 0.32,-1.786667 0.32,-0.4 1.49333,-0.666667 2.85333,-0.666667 2.90667,0 5.06667,0.96 6.37333,2.826667 0.96,1.333333 1.46667,3.146667 1.46667,5.12 0,2.16 -0.61333,4.16 -1.70667,5.52 -1.28,1.626666 -3.44,2.506666 -6.13333,2.506666 -1.33333,0 -2.42667,-0.24 -2.8,-0.586666 -0.29333,-0.266667 -0.37333,-0.693334 -0.37333,-1.76 z"
       id="path77" />
    <path
       d="m 315.13038,78.621675 c -1.86666,0 -3.52,0.613333 -4.58666,1.733333 -1.12,1.173333 -1.86667,3.146667 -1.86667,5.013333 0,4.026667 2.58667,6.666667 6.56,6.666667 3.86667,0 6.48,-2.666667 6.48,-6.613333 0,-1.733334 -0.61333,-3.493334 -1.6,-4.72 -1.12,-1.333334 -2.90667,-2.08 -4.98667,-2.08 z m 0.0267,1.066666 c 2.4,0 3.84,2.186667 3.84,5.866667 0,3.386666 -1.38667,5.413333 -3.73333,5.413333 -2.48,0 -3.86667,-2.053333 -3.86667,-5.653333 0,-3.413333 1.46667,-5.626667 3.76,-5.626667 z"
       id="path79" />
    <path
       d="m 327.53035,89.928341 c -1.2,-0.16 -1.73334,-0.48 -1.73334,-1.093333 0,-0.506667 0.45334,-1.013334 1.22667,-1.413334 1.09333,0.346667 1.6,0.426667 2.50667,0.426667 1.92,0 3.38666,-0.506667 4.34666,-1.466666 0.77334,-0.773334 1.25334,-1.973334 1.25334,-3.013334 0,-1.466666 -0.82667,-2.853333 -2.21334,-3.786666 0.56,-0.826667 0.96,-1.146667 1.41334,-1.146667 0.18666,0 0.29333,0.02667 0.61333,0.24 0.29333,0.186667 0.53333,0.266667 0.8,0.266667 0.61333,0 1.01333,-0.4 1.01333,-1.013334 0,-0.666666 -0.58666,-1.146666 -1.44,-1.146666 -0.82666,0 -1.70666,0.346666 -2.24,0.906666 -0.32,0.32 -0.50666,0.586667 -1.01333,1.466667 -1.06667,-0.4 -1.65333,-0.533333 -2.50667,-0.533333 -3.04,0 -5.49333,2.106666 -5.49333,4.746666 0,1.546667 0.69333,2.8 2.16,3.786667 -1.78667,0.586666 -2.61333,1.413333 -2.61333,2.666666 0,1.066667 0.58666,1.733334 1.94666,2.24 -1.97333,0.746667 -2.8,1.6 -2.8,2.906667 0,1.92 2.77334,3.253333 6.77334,3.253333 4.34666,0 7.12,-1.68 7.12,-4.32 0,-0.746666 -0.21334,-1.413333 -0.61334,-1.92 -0.58666,-0.72 -1.54666,-1.093333 -3.41333,-1.36 z m 2.16,-10.453333 c 1.84,0 2.72,1.226667 2.72,3.76 0,2.533333 -0.90667,3.76 -2.8,3.76 -1.92,0 -2.82667,-1.226667 -2.82667,-3.786667 0,-2.346666 1.06667,-3.733333 2.90667,-3.733333 z m 2.34666,13.493333 c 1.97334,0.24 2.74667,0.746667 2.74667,1.786667 0,1.52 -2.05333,2.48 -5.25333,2.48 -3.06667,0 -5.17334,-1.04 -5.17334,-2.533334 0,-1.013333 0.77334,-1.866666 2.21334,-2.4 z"
       id="path81" />
  </g>
</svg>
