<?xml version="1.0" encoding="UTF-8" standalone="no"?>
<svg
   xmlns:dc="http://purl.org/dc/elements/1.1/"
   xmlns:cc="http://creativecommons.org/ns#"
   xmlns:rdf="http://www.w3.org/1999/02/22-rdf-syntax-ns#"
   xmlns:svg="http://www.w3.org/2000/svg"
   xmlns="http://www.w3.org/2000/svg"
   viewBox="159.611 5.795 203.519 96.6399"
   version="1.1"
   id="svg2">
  <metadata
     id="metadata11">
    <rdf:RDF>
      <cc:Work
         rdf:about="">
        <dc:format>image/svg+xml</dc:format>
        <dc:type
           rdf:resource="http://purl.org/dc/dcmitype/StillImage" />
      </cc:Work>
    </rdf:RDF>
  </metadata>
  <defs
     id="defs9" />
  <g
     aria-label="The Quick BrownFox Jumps OverThe Lazy Dog"
     id="text4521"
     style="font-style:normal;font-variant:normal;font-weight:normal;font-stretch:normal;font-size:26.6667px;line-height:125%;font-family:'Bradley Hand', cursive;font-variant-ligatures:normal;font-variant-caps:normal;font-variant-numeric:normal;font-feature-settings:normal;text-align:left;letter-spacing:0px;word-spacing:0px;writing-mode:lr-tb;text-anchor:start;fill:#000000;fill-opacity:1;stroke:none;stroke-width:1px;stroke-linecap:butt;stroke-linejoin:miter;stroke-opacity:1">
    <path
       d="m 178.27737,12.14167 -0.66667,1.253333 -0.61333,0.08 h -0.82667 l -0.45333,0.08 -0.34667,-0.08 -1.68,0.133333 -0.48,-0.106666 -0.10667,0.02667 q -0.26666,0.106667 -0.90666,0.213334 h -0.96 l -0.21334,-0.08 h -0.08 q -0.26666,0 -0.77333,0.133333 -0.4,0.106667 -0.98667,0.106667 l -0.42666,-0.106667 -0.08,0.32 h -0.32 l -0.08,1.253333 0.13333,0.213334 -0.0533,0.4 v 0.693333 q 0,1.093333 -0.21334,1.466666 l 0.21334,0.293334 -0.16,0.773333 0.16,0.213333 -0.29334,0.426667 v 0.213333 l -0.16,0.293334 0.10667,0.586666 -0.08,1.12 -0.16,0.506667 q 0.0267,0.02667 0.0267,0.133333 0,-0.05333 -0.08,0.346667 0,0.02667 0.0267,0.106667 0,0.08 0,0.133333 0,0.293333 -0.18666,0.56 l 0.08,0.373333 q 0,0.186667 -0.0267,0.24 l -0.0267,0.08 q -0.0533,0.16 -0.0533,0.32 0,0.506667 0.10667,0.853334 -0.58667,0.106666 -0.66667,0.106666 -0.24,0 -0.4,-0.05333 l -0.0533,-0.02667 q -0.69334,-0.16 -0.69334,-1.28 0.0267,-0.133333 0.0267,-0.373333 0,-0.213333 -0.0533,-0.586667 -0.0533,-0.4 -0.0533,-0.586666 0,-0.266667 0.08,-0.453334 l 0.10667,-1.093333 q -0.21333,-0.293333 -0.21333,-0.48 0,-0.05333 0.0533,-0.213333 -0.10667,-0.213334 -0.10667,-0.32 0,-0.213334 0.13334,-0.346667 0,-0.24 0.21333,-0.666667 -0.0533,-0.213333 -0.0533,-0.453333 0.18666,0 0.18666,-0.186667 0,-0.05333 -0.0533,-0.16 -0.0533,-0.133333 -0.0533,-0.266666 l 0.08,0.106666 -0.10667,-0.24 q 0,-0.506666 0.13333,-0.88 v -0.773333 l -0.13333,-0.56 0.13333,-1.04 -0.13333,-0.773333 0.0533,-0.266667 -0.4,0.02667 -0.29333,0.16 -0.21333,-0.02667 v 0.106667 q -0.56,0 -1.09334,-0.08 l -0.08,0.213333 -1.04,-0.346666 -1.38666,-0.02667 -0.88,0.24 q -1.06667,-0.906667 -1.06667,-1.306667 0,-0.24 0.08,-0.48 v 0.08 l 0.58667,-0.506666 0.50666,0.02667 1.78667,0.32 0.45333,-0.133333 1.36,0.02667 1.06667,0.133333 0.69333,-0.266667 0.24,-0.693333 1.06667,0.266667 0.0533,-0.05333 0.0533,0.08 0.37333,0.453334 0.10667,0.02667 0.37333,-0.133333 0.77333,0.186667 q 1.14667,-0.213334 1.36,-0.213334 0.32,0 0.66667,0.133334 0.08,0 0.32,0.02667 0.37333,-0.05333 0.48,-0.05333 h 0.18667 l 0.90666,-0.106667 0.77334,0.133334 0.10666,0.05333 0.4,-0.133333 0.56,0.133333 1.33334,-0.05333 0.58666,0.08 z"
       id="path13" />
    <path
       d="m 188.33069,24.861669 q 0,1.066667 -1.14667,1.066667 -0.56,0 -0.82667,-0.453333 -0.26666,-0.373334 -0.45333,-1.413334 v -0.373333 q 0.08,-0.133333 0.08,-0.266667 0,-0.05333 -0.0267,-0.133333 l -0.37333,-0.56 0.26667,-0.506667 -0.10667,-0.56 0.10667,-0.32 v -0.346666 l 0.0533,-0.32 -0.10667,-0.48 0.10667,-0.24 v -0.88 l 0.0267,-1.146667 -0.18667,-0.88 0.10667,-0.32 -0.18667,-0.666666 -0.21333,0.186666 -0.58667,0.24 -0.8,1.013333 -0.32,-0.02667 -0.48,0.773333 -0.08,0.32 -0.29333,0.133333 -0.29334,0.453334 -0.13333,0.293333 -0.29333,0.933333 -0.48,0.586667 -0.10667,0.373333 -0.26667,0.213334 -0.10666,0.64 -0.53334,0.48 -0.08,0.986666 h -0.24 l -0.08,0.16 -0.48,0.826667 -0.45333,0.48 -0.4,0.533333 -0.42667,-0.133333 h -0.34666 l -0.32,-0.426667 -0.29334,-0.96 -0.0533,-1.413333 -0.08,-0.453333 0.08,-0.533334 -0.0533,-1.253333 0.21333,-0.05333 0.13333,-1.84 0.10667,-0.346667 -0.08,-0.56 0.13333,-0.08 0.10667,-0.853333 0.10667,-0.293334 -0.10667,-0.373333 0.08,-0.133333 -0.0533,-0.08 0.08,-0.746667 -0.21334,-0.186666 0.18667,-0.373334 -0.0267,-0.773333 -0.29333,-0.773333 0.21333,-0.24 -0.18666,-0.72 v -0.426667 l -0.08,-0.186667 -0.13334,-0.853333 -0.13333,-0.4 -0.4,-0.7733333 0.29333,-0.3733334 0.26667,-0.4533333 h 0.24 q 0.58667,0 0.88,0.4266667 l 0.37333,0.2933333 0.16,0.48 0.4,0.346667 -0.08,0.373333 0.18667,0.56 -0.0267,0.05333 0.0533,0.05333 -0.0267,0.88 0.0267,1.173333 0.18666,0.746667 -0.13333,0.32 0.0533,0.453333 -0.13333,0.373333 0.08,0.64 -0.13333,0.533333 0.0533,0.106667 -0.0533,1.626667 0.08,0.373333 -0.16,0.186667 -0.08,0.88 -0.10667,0.4 0.10667,0.72 -0.10667,0.213333 -0.0267,0.533333 q 0.29334,-0.08 0.29334,-0.32 l 0.21333,-0.213333 0.18667,-0.346667 0.0533,-0.506666 0.29333,-0.426667 0.16,-0.533333 0.4,-0.426667 0.10667,-0.506667 0.26667,-0.02667 v -0.24 l 0.0267,-0.32 0.32,-0.186667 v -0.213333 l 0.26667,-0.05333 0.0533,-0.426666 -0.0267,-0.213334 0.48,-0.213333 0.13333,-0.106666 -0.0533,-0.266667 0.24,-0.08 0.18666,-0.453333 h 0.32 l 0.29334,-0.186667 q 0,-0.186667 0.0267,-0.266667 l 0.29334,-0.133333 q 0.48,-0.4 0.90666,-0.48 v -0.05333 q 0.69334,-0.346667 0.96,-0.346667 0.4,0 0.72,0.373333 0.29334,0.106667 0.37334,0.4 l 0.24,0.16 0.08,0.373334 0.4,0.613333 v 2.133333 l -0.0267,0.933333 0.10667,0.24 v 1.973334 l -0.08,0.346666 v 0.533334 l 0.08,0.586666 -0.10667,0.506667 q 0.10667,0.4 0.13333,0.666667 l 0.29334,0.293333 v 0.213333 l 0.10666,0.08 q 0.13334,0.453334 0.13334,0.64 z"
       id="path15" />
    <path
       d="m 199.63733,22.941669 q 0,0.32 -0.48,0.8 -0.13333,0.426667 -0.4,0.693334 l -0.16,0.02667 -0.29333,0.506667 -0.48,0.08 -0.50667,0.32 -0.26667,0.48 -0.29333,-0.05333 q -0.29333,0.133333 -0.48,0.16 l -0.16,0.24 q -0.08,-0.02667 -0.24,-0.02667 -0.34667,0 -0.66667,0.48 l -0.37333,-0.32 q -0.10667,0.02667 -0.32,0.02667 -0.34667,0 -0.58667,-0.106667 h -0.45333 L 193.264,26.115003 q -1.01334,-0.16 -1.28,-0.773334 v -0.08 l -0.32,-0.16 -0.16,-0.453333 -0.32,-0.213333 v -0.4 l -0.32,-1.173334 0.0533,-0.96 0.10667,-0.426666 v -0.56 l 0.13333,-0.426667 -0.0267,-0.186667 0.18667,-0.32 -0.0533,0.05333 q 0,-0.24 0.13333,-0.506667 v -0.133333 l -0.08,-0.64 q 0,-0.453334 0.4,-0.8 0.0267,-0.05333 0.0267,-0.16 0,-0.106667 -0.10667,-0.426667 -0.08,-0.346667 -0.08,-0.48 0,-0.32 0.16,-0.666667 0.21333,0.32 0.61333,0.32 h 0.08 q 0.0533,-0.106666 0.24,-0.24 0.21334,-0.666666 0.58667,-1.119999 l 0.10667,-0.106667 q 0,-0.106667 0.16,-0.613333 h 0.21333 l 0.0533,-0.133334 0.21334,-0.05333 q 0.13333,-0.213333 0.16,-0.24 0.0533,-0.05333 0.58666,-0.346667 0.10667,-0.186666 0.32,-0.346666 0.10667,-0.05333 0.26667,-0.106667 l 0.10667,-0.16 q 0.72,-0.24 0.90666,-0.24 0.21334,0 0.4,0.106667 l 0.13334,-0.02667 0.18666,0.106667 q 0.32,0.24 0.64,0.4 l 0.45334,0.346666 v 0.106667 q 0.61333,0.48 0.61333,1.36 l -0.08,0.266667 0.08,0.879999 -0.24,0.16 -0.26667,0.693334 -0.50666,0.56 -0.0267,0.426666 q -0.85333,0.613334 -1.57333,0.986667 -0.24,0.373333 -0.74667,0.373333 h -0.08 l -0.50667,0.32 H 194.384 l -0.64,0.266667 -0.48,-0.24 h -0.0533 q -0.0533,0.213333 -0.10666,0.64 l -0.21334,0.16 -0.0267,0.32 -0.16,0.453333 q 0.08,0.64 0.08,0.826667 l -0.10667,0.08 q 0,0.346667 -0.0267,0.506667 0,0.02667 -0.0267,0.08 0,0.05333 0,0.08 0,0.213333 0.21333,0.346666 0.08,0.32 0.26667,0.4 l 0.18666,0.16 0.58667,0.16 v 0.08 l 0.21333,0.05333 0.90667,0.05333 0.53333,-0.08 0.26667,-0.186667 0.16,-0.05333 0.26667,-0.4 0.13333,-0.02667 0.66667,-0.213333 q 0.10666,-0.186667 0.34666,-0.32 l 0.08,-0.133333 q 0.53334,-0.106667 0.61334,-0.56 0.37333,-0.373334 0.96,-0.373334 h 0.10666 q 0.50667,0.586667 0.50667,0.96 z m -2.64,-7.679999 q 0,-0.08 -0.08,-0.32 l -0.13333,-0.02667 -0.0533,0.02667 q -0.0267,0 -0.10666,0 -0.0533,0.02667 -0.10667,0.02667 -0.0267,0 -0.08,-0.02667 -0.0533,0 -0.08,0 l -0.26667,0.186666 -0.24,0.02667 -0.13333,0.05333 -0.45333,0.586667 -0.29334,0.213333 -0.42666,0.746667 -0.24,0.16 q -0.08,0.453333 -0.37334,0.773333 l -0.10666,0.186667 q 0.29333,-0.186667 0.66666,-0.186667 l 0.18667,-0.08 0.08,-0.24 0.37333,0.02667 0.21334,-0.32 h 0.16 l 0.29333,0.106666 0.13333,-0.4 h 0.18667 v -0.293333 l 0.34667,-0.08 0.08,-0.08 0.0533,-0.24 0.34667,-0.506666 q 0.0533,-0.133334 0.0533,-0.32 z"
       id="path17" />
    <path
       d="m 229.47727,23.981669 q 0,0.293334 -0.42666,0.8 l -0.53334,0.133334 -0.56,0.426666 -0.34666,-0.133333 -0.58667,0.16 -0.4,0.48 -0.10667,-0.02667 -0.0533,0.08 -0.37333,-0.08 q -0.42667,0.16 -0.61334,0.16 l -1.2,0.4 -0.53333,-0.346666 v 0.24 l -0.58667,0.186666 -0.34666,-0.16 -0.21334,0.133334 -0.34666,-0.02667 q -0.26667,0 -0.77334,-0.106667 l -0.18666,0.16 -0.74667,-0.4 -0.48,-0.08 -0.4,-0.293333 -0.69333,-0.32 -0.24,-0.4 h -0.32 l -0.42667,-0.453333 -0.4,-0.186667 -0.10667,-0.266667 -0.4,0.24 h -0.21333 l -0.4,0.373334 -0.42667,-0.05333 -0.37333,0.24 -0.37333,-0.05333 -0.45334,0.186667 h -0.34666 l -0.69334,0.426666 -0.50666,-0.186666 -0.4,0.16 -0.56,-0.186667 -0.24,0.05333 -0.93334,-0.213333 h -0.64 l -0.21333,-0.24 q -0.48,-0.16 -0.72,-0.4 l -0.10667,-0.32 -0.13333,-0.133333 -0.72,-0.8 -0.50667,-0.4 0.13334,-0.453334 -0.21334,-0.373333 0.13334,-0.746667 -0.0533,-1.12 0.34667,-0.773333 q 0.18667,0 0.18667,-0.08 0,-0.05333 -0.08,-0.213333 -0.0533,-0.16 -0.0533,-0.293334 0,-0.186666 0.08,-0.346666 l -0.13333,-0.373334 0.50667,-0.186666 q 0.13333,-0.213334 0.32,-0.506667 0,-0.02667 0.0533,-0.08 0.0533,-0.08 0.08,-0.133333 l 0.0267,-0.213334 -0.21334,-0.32 0.69334,-0.506666 0.0533,-0.186667 0.0533,-0.05333 h -0.08 l 0.82667,-1.066667 q 0,-0.05333 0,-0.106666 -0.0267,-0.05333 -0.0267,-0.08 0,-0.533334 0.74667,-0.533334 0.13333,-0.16 0.4,-0.373333 l -0.0533,-0.16 0.45333,-0.24 0.16,-0.426667 0.48,-0.08 1.68,-0.666666 0.8,0.186666 1.12,-0.293333 0.08,0.133333 1.49333,-0.373333 1.44,-0.16 q 0.82667,0.02667 1.73334,0.16 0.90666,0.133333 1.06666,0.133333 0.16,0 0.48,0.24 l 0.10667,0.08 q 0.50667,0 0.88,0.426667 l 0.34667,0.133333 v 0.373334 q 0.8,0.826666 0.88,0.96 0.37333,0.506666 0.37333,1.226666 v 0.666667 q -0.08,0.586666 -0.18667,1.653333 -0.50666,0.16 -0.58666,0.56 -0.16,0.56 -0.26667,0.693333 l -0.16,0.02667 -0.13333,0.426667 -0.24,0.08 -0.08,0.106666 -0.08,0.08 q -0.10667,0.08 -0.29334,0.293334 l -0.16,0.16 -0.34666,0.613333 -0.32,0.16 -0.10667,0.32 -0.85333,0.346667 -0.42667,0.613333 -0.29333,0.106667 -0.13334,0.186666 -0.64,0.266667 -0.45333,0.16 -0.18667,0.373333 0.74667,0.693334 0.24,-0.08 0.77333,0.533333 0.85334,0.266667 1.25333,0.05333 0.50667,-0.346667 0.24,0.266667 0.96,-0.16 h 0.21333 q 1.12,-0.346667 1.89333,-0.533333 v -0.16 l 0.58667,-0.08 0.29333,-0.266667 0.64,-0.106667 0.24,0.346667 q 0.21334,-0.05333 0.26667,-0.133333 0.29333,0.24 0.29333,0.506666 z m -5.76,-8.079999 q 0,-0.88 -0.88,-1.786667 -0.66666,-0.133333 -0.50666,-0.133333 l -0.74667,-0.56 -1.44,-0.24 -0.4,0.16 -0.50667,-0.133334 -0.08,0.106667 -0.10666,-0.106667 -0.18667,-0.02667 -0.45333,0.186666 -0.45334,-0.08 -0.4,0.133334 -0.29333,0.266666 -0.50667,0.05333 q -0.37333,0.186666 -0.56,0.4 l -0.50666,-0.05333 -0.37334,0.08 -0.10666,-0.02667 -0.32,0.373333 q -0.08,-0.02667 -0.24,-0.02667 -0.32,0 -0.48,0.293334 l -0.26667,-0.08 0.0267,0.133333 -0.08,0.106667 -0.37334,0.213333 -0.48,0.693333 -0.88,0.266667 -0.45333,0.853333 -0.10667,-0.186667 q -0.0267,0.08 -0.10666,0.293334 v 0.32 l -0.4,0.4 v 0.133333 q -0.32,0.346667 -0.56,1.013333 -0.0533,0.56 -0.42667,1.28 l 0.0267,1.04 -0.08,0.24 0.18666,0.853334 0.72,0.64 v 0.08 h 0.13334 l 0.72,0.293333 q 0.48,-0.08 0.29333,-0.08 0.34667,0.05333 0.53333,0.213333 h 1.62667 l 0.58667,-0.24 0.61333,-0.02667 0.08,-0.106667 0.24,0.08 v -0.106667 l -0.13333,0.05333 0.42666,-0.266667 q 0.32,0 0.56,-0.08 l 0.08,-0.08 -0.34666,-0.64 -0.45334,-0.48 -0.0533,-0.48 q -0.93333,-1.653333 -0.93333,-2.746667 0,-0.346666 0.0267,-0.533333 h 0.21334 q 0.42666,0 0.58666,-0.586667 1.01334,0.586667 1.30667,0.96 l 0.29333,1.04 0.0267,0.266667 0.21333,0.346667 0.18667,0.64 0.69333,0.826666 q 0,0.05333 0,0.133334 -0.0267,0.08 -0.0267,0.106666 h 0.37333 l 0.21333,-0.4 0.50667,-0.106666 0.18667,-0.48 h 0.10666 q 0.16,0 0.16,0.106666 0.18667,-0.106666 0.37334,-0.106666 l 0.32,-0.56 h 0.37333 l 0.24,-0.16 0.08,-0.373334 0.37333,-0.16 q 0.16,-0.426666 0.61334,-0.533333 l 0.13333,-0.186667 q 0.16,-0.613333 0.56,-0.693333 l 0.13333,-0.133333 -0.08,-0.186667 0.24,-0.213333 v -0.106667 q 0.4,-0.64 0.4,-1.386666 z"
       id="path19" />
    <path
       d="m 242.62393,23.581669 q 0,0.32 -0.48,0.773334 l -0.21334,0.08 -0.18666,0.24 -0.48,0.133333 q -0.13334,0.186667 -0.26667,0.186667 -0.0267,0 -0.0533,-0.02667 -0.0533,0 -0.08,0 -0.58667,0.293333 -1.41334,0.293333 h -0.21333 l -0.66667,-0.133333 -0.45333,-0.213333 -1.01333,-0.853334 -0.21334,-0.72 -0.42666,-0.346666 q 0.08,-0.106667 0.08,-0.346667 0,-0.16 -0.21334,-0.533333 l 0.08,-0.64 v -0.106667 q 0,-0.32 -0.18666,-0.826667 l 0.16,-0.8 -0.34667,0.693334 -0.4,0.05333 -0.0533,0.56 q -0.21334,0.106667 -0.50667,0.106667 l -0.29333,0.64 -0.34667,0.4 q -0.21333,0.24 -0.37333,0.266666 l -0.08,0.05333 -0.96,0.986666 h -0.10667 l -0.50667,0.586667 -0.48,0.24 -0.26666,0.346667 -0.61334,0.186666 -0.88,0.346667 -0.53333,-0.266667 q -0.53333,0 -0.74667,-0.48 l -0.24,-0.133333 q 0,-0.08 0.0267,-0.213333 0,-0.133334 0,-0.186667 l -0.42667,-0.373333 0.10667,-0.16 -0.32,-0.746667 0.10667,-0.106667 -0.0533,-0.05333 q 0,-0.05333 0,-0.16 -0.0267,-0.08 -0.0267,-0.133333 0,-0.293334 0.08,-0.56 l 0.0267,-0.693334 -0.10666,-0.56 q 0.13333,-0.213333 0.13333,-0.373333 0,-0.186667 -0.16,-0.346667 l 0.29333,-0.213333 v -0.32 l -0.10666,-0.88 0.29333,-1.706667 q 0,-0.426666 -0.24,-1.253333 0.08,-0.853333 1.12,-0.933333 l 0.21333,0.08 0.37334,0.05333 0.48,0.533334 -0.16,0.693333 -0.0533,1.146666 0.08,0.88 -0.16,0.32 0.08,0.213334 -0.13333,0.426666 v 0.266667 l -0.0533,0.08 q 0.0267,0.08 0.0267,0.24 0,0.346667 -0.10666,0.72 l 0.13333,0.186667 -0.10667,0.4 0.0533,0.32 v 0.373333 q 0.13333,0.16 0.13333,0.4 0,0.213333 -0.10667,0.426667 v 0.106666 q 0.13334,0.453334 0.13334,0.586667 l 0.24,0.24 q 0.16,-0.106667 0.37333,-0.266667 0.08,-0.266666 0.37333,-0.346666 v -0.266667 q 0.16,0 0.50667,-0.08 l 0.0533,-0.24 0.45334,-0.186667 0.08,-0.08 q 0.18666,-0.186666 0.61333,-0.346666 v -0.106667 l 0.50667,-0.373333 q 0.18666,-0.506667 0.66666,-0.666667 0.29334,-0.293333 0.4,-0.346667 l 0.34667,-0.453333 v -0.08 l 0.10667,-0.05333 0.24,-0.106667 0.13333,-0.373333 0.56,-0.24 0.10667,-0.02667 q 0,0 0.18666,-0.186667 v -0.24 l 0.16,-0.05333 q 0.08,-0.426667 0.42667,-0.64 l 0.4,-0.906667 0.13333,-0.479999 0.0533,-0.106667 h 0.10666 l 0.18667,-0.133333 -0.16,-0.05333 q 0.29333,-0.48 0.45333,-1.013333 l 0.77334,-0.02667 0.61333,0.506667 0.26667,0.426667 -0.29334,1.146666 -0.4,0.533333 -0.32,1.04 -0.26666,0.16 v 0.4 l -0.16,0.293334 0.08,0.48 -0.21334,0.186666 0.10667,0.853334 0.0533,1.2 h 0.13334 v 0.693333 l 0.37333,0.453333 0.34667,0.186667 0.0267,0.133333 q 0.18667,0.02667 0.45334,0.133334 l 0.66666,0.05333 0.4,-0.106667 0.72,-0.346666 q 0.21334,-0.106667 0.53334,-0.106667 0.8,0 0.8,0.693333 z"
       id="path21" />
    <path
       d="m 248.78388,7.1016697 q 0,0.32 -0.42667,0.5866667 v 0.053333 q -0.50667,0.6133333 -0.88,0.6933333 l -0.4,0.48 -0.26667,0.3466667 -0.61333,0.16 -0.26667,0.3733333 -0.42666,0.213333 -0.69334,0.613334 -0.42666,-0.4 0.08,-0.666667 0.29333,-0.48 q 0.0267,-0.3733333 0.42667,-0.64 V 8.3283364 l 0.16,-0.1066667 0.0267,-0.4 0.42667,-0.1066667 v -0.24 l 0.32,-0.053333 q 0.10667,-0.5333333 0.45333,-0.7733333 l 0.08,-0.053333 0.16,-0.16 0.21334,-0.64 q 1.76,0.4266666 1.76,1.3066666 z m 2.72,14.1333333 q 0,0.613333 -0.21334,0.773333 l -0.13333,0.106667 -0.13333,0.373333 -0.42667,0.133333 q -0.18667,0.426667 -0.56,0.666667 l -0.24,0.08 -0.34667,0.373333 -0.32,0.08 q -0.18666,0.48 -0.77333,0.506667 -0.0533,0.08 -0.24,0.32 -0.4,0.266667 -0.82667,0.32 l -0.13333,0.02667 -0.18667,0.24 h -0.53333 l -0.42667,0.32 -1.09333,-0.8 -0.50667,-1.04 -0.0267,-1.306667 -0.10667,-0.32 0.32,-2.346667 0.10667,-0.106666 q -0.08,-0.4 -0.08,-0.773334 0,-0.24 0.16,-0.986666 l 0.13333,-0.613334 q -0.0533,-0.16 -0.21333,-0.346666 l 0.16,-0.506667 0.0533,-0.613333 0.0533,-0.08 q -0.10666,-0.24 -0.13333,-0.533333 0.0267,-0.05333 0.0533,-0.133334 0.0267,-0.106666 0.0267,-0.16 -0.08,-0.24 -0.08,-0.453333 0,-0.64 0.72,-0.586667 l 0.32,0.02667 q 0.32,-0.16 0.4,-0.16 0.53333,0 0.72,0.586667 v 0.106666 q 0.10667,0.32 0.10667,0.613334 0,0.24 -0.0533,0.346666 l -0.18666,1.333333 0.18666,0.373334 q 0,0.48 -0.32,0.853333 l 0.10667,0.32 -0.34667,1.013333 q -0.0533,0.666667 -0.13333,1.013334 v 0.666666 l -0.16,0.373334 0.0267,0.266666 -0.0533,0.613334 0.0533,0.48 0.4,0.32 0.32,-0.05333 0.0533,-0.08 0.21333,0.02667 0.34667,-0.106667 0.29333,-0.293333 0.10667,-0.16 0.18667,-0.02667 0.0533,-0.133333 0.08,-0.106667 0.16,0.106667 0.26667,-0.266667 0.16,0.02667 0.0533,-0.186667 h 0.0533 l 0.08,-0.213333 0.24,-0.106667 0.50667,-0.24 q 0.61333,-0.426666 1.2,-0.426666 h 0.10667 q 0.29333,0.186666 0.4,0.48 z"
       id="path23" />
    <path
       d="m 262.86385,20.968336 -0.50666,0.48 -0.0267,0.16 q -0.08,0.48 -0.45333,0.773333 -0.64,1.2 -1.78667,1.76 l -0.4,0.32 -0.34667,0.05333 -0.42666,0.32 -0.29334,0.02667 -0.66666,0.426667 -0.42667,-0.05333 -0.48,0.213333 -0.37333,-0.106667 -0.18667,0.16 -0.50667,-0.08 -0.50666,0.08 -0.18667,-0.16 -0.53333,-0.106666 -0.77334,-0.586667 -0.42666,-0.533333 q -0.4,-0.506667 -0.4,-0.853334 v -0.08 l -0.26667,-0.4 v -0.346666 q -0.08,-0.32 -0.08,-0.586667 v -0.186667 l -0.13333,-0.453333 0.13333,-0.32 -0.10667,-0.213333 0.32,-0.506667 -0.08,-0.426667 0.21334,-0.693333 0.10666,-0.16 0.10667,-0.64 -0.0533,-0.106667 0.32,-0.346666 0.0533,-0.266667 0.21333,-0.613333 0.34667,-0.746667 0.48,-0.426666 0.10667,-0.24 0.16,-0.293334 0.0533,-0.266666 0.42667,-0.506667 q 0.16,-0.05333 0.37333,-0.106667 0.10667,-0.506666 1.33333,-0.586666 1.04,0.213333 1.33334,0.56 0.29333,0.05333 0.45333,0.24 l 0.56,0.02667 0.37333,0.48 q 0.13334,0.266667 0.18667,0.533334 l 0.21333,0.213333 -0.08,0.4 q 0.0267,0.186666 0.0267,0.586666 l 0.13333,0.106667 v 0.4 l 0.10667,0.826667 q -0.56,0.56 -1.28,0.64 -0.37333,-0.693334 -0.93333,-1.04 l -0.0533,-0.88 -0.16,-0.293334 v -0.213333 l -0.26666,-0.32 -0.13334,-0.106666 -0.24,0.08 h -0.34666 q -0.34667,0.08 -0.66667,0.506666 -0.32,0.426667 -0.64,0.906667 l -0.0267,0.266666 -0.16,0.133334 v 0.48 l -0.34666,0.373333 -0.42667,1.173333 0.0267,0.32 -0.21334,0.48 0.08,0.586667 -0.16,0.08 -0.0533,0.746667 0.0267,0.133333 0.32,0.32 0.13333,0.56 0.37333,0.106667 0.0267,0.213333 0.45333,0.08 0.34667,0.08 q 0.18667,-0.106667 0.45333,-0.106667 h 0.18667 q 0.32,-0.133333 0.58667,-0.133333 0.18666,-0.08 0.48,-0.16 0.32,-0.426667 0.90666,-0.426667 h 0.16 q 0.13334,0 0.18667,-0.133333 0.29333,-0.453333 0.93333,-0.586667 0.74667,-0.666666 0.85334,-1.066666 0.37333,-0.213334 0.48,-0.666667 l 0.16,-0.106667 0.08,-0.613333 q 1.22666,0.186667 1.22666,1.226667 z"
       id="path25" />
    <path
       d="m 280.14385,23.155003 -0.16,0.293333 q 0,0.773333 -0.53334,1.2 0,0.266667 -0.18666,0.426667 l -0.13334,0.293333 -0.34666,0.24 -0.16,0.293333 -1.06667,0.56 -0.50667,0.133334 -0.77333,0.05333 -0.42667,-0.186667 -0.34666,0.02667 -0.34667,-0.24 -0.26667,-0.02667 -1.06666,-0.56 -0.96,-0.8 q -0.42667,-0.373333 -1.28,-1.066666 l -0.58667,-0.8 -0.48,-0.4 -0.08,-0.186667 -0.24,-0.293333 q -0.34667,-0.426667 -0.82667,-0.906667 l -0.45333,-0.16 -0.50667,-1.013333 0.08,-0.4 q 0.16,-0.853334 0.85334,-0.96 l 0.50666,0.16 0.42667,0.426666 0.45333,0.293334 h 0.42667 l 0.10667,0.08 q 0.21333,0 0.34666,0.02667 0.26667,-0.133333 0.93334,-0.293333 l 0.24,-0.05333 0.16,-0.346667 h 0.64 q 0.29333,-0.24 0.61333,-0.266667 h 0.0533 q 0.08,-0.186666 0.21334,-0.453333 l 0.50666,-0.24 0.21334,-0.213333 0.4,-0.666667 h 0.18666 q 0.10667,-0.266667 0.21334,-0.746667 l 0.24,-0.16 -0.18667,-0.106666 0.10667,-0.453333 q -0.0533,-0.106667 -0.29334,-0.186667 l -0.32,0.106667 -0.10666,-0.213334 -0.26667,-0.106666 -0.08,-0.106667 q -0.4,-0.05333 -1.14667,-0.106667 V 14.94167 l -0.16,0.106666 q -0.21333,-0.05333 -0.32,-0.05333 -0.34666,0 -1.01333,0.373333 h -0.37333 q -1.01334,0.346667 -1.14667,0.506667 l -0.58667,0.186667 -0.82666,0.666666 -0.77334,0.773333 v 0.106667 l -0.50666,0.88 -0.16,0.506667 -0.10667,0.05333 v 0.106667 q -0.08,0.16 -0.13333,0.293333 l -0.16,0.08 0.0533,0.08 -0.08,0.133333 q -0.0267,0.05333 -0.0267,0.133334 0,0.133333 0.10667,0.24 0,0.56 -0.26667,0.72 -0.0533,0.106666 -0.0533,0.213333 0,0.08 0.0267,0.133333 0,0.453334 -0.18667,0.746667 -0.13333,0.133333 -0.16,0.186667 l 0.08,0.4 -0.08,0.533333 0.0267,0.426667 q -0.21334,0.48 -0.21334,0.773333 0.0533,0.266667 0.0533,0.293333 0,0.293334 -0.34667,0.613334 -0.32,0.32 -0.61333,0.32 -0.37334,0 -0.77334,-0.453334 l -0.29333,-0.826666 0.08,-0.48 -0.08,-1.04 0.08,-0.266667 v -0.853333 l 0.0533,-0.346667 v -0.293333 q 0,-0.533334 0.0533,-1.066667 0.0533,-0.56 0.0533,-0.586667 v -0.453333 l 0.0267,-0.24 v -0.746667 l 0.08,-0.213333 -0.08,-0.32 0.10666,-0.88 v -0.933333 l -0.10666,-0.533333 0.13333,-0.213334 -0.0267,-0.106666 -0.10666,-1.44 -0.18667,-0.88 v -0.24 l 0.16,-0.906667 -0.10667,-0.346667 -0.0533,-0.64 q -0.0533,-0.6399997 -0.0533,-0.5599997 0,-0.9333333 1.46666,-0.9866666 l 0.58667,-0.32 -0.10667,1.3066666 0.10667,0.7466667 -0.18667,0.773333 0.0533,0.853334 0.13333,0.48 -0.08,0.453333 0.0533,0.64 -0.08,0.533333 0.13334,0.56 -0.0533,0.133334 0.10667,0.266666 -0.13333,0.746667 v 0.16 l 0.13333,0.506666 q -0.13333,0.05333 -0.13333,0.4 l -0.08,0.64 0.0533,0.24 0.32,-0.56 0.16,-0.613333 q 0,0 0.37333,-0.613333 0,-0.266667 0.18667,-0.48 h 0.29333 l 0.21334,-0.453333 0.61333,-0.293334 q 0.37333,-0.373333 0.85333,-0.533333 l 0.16,-0.133333 0.42667,-0.213334 0.34667,-0.08 q 0.56,-0.48 2.42666,-0.64 l 2.08,0.16 0.42667,0.24 0.21333,0.02667 0.45334,0.48 0.0267,-0.16 q 0.34667,0.16 0.50667,0.506667 0.13333,-0.02667 0.10667,-0.02667 0.10666,0 0.21333,0.08 l 0.56,1.146667 -0.0267,0.133333 q 0.13334,0.266667 0.13334,0.48 0,0.373333 -0.29334,0.746666 v 0.16 l -0.37333,0.986667 -0.56,0.773333 -0.16,0.02667 q 0,0 -0.32,0.426667 -0.29333,0 -0.45333,-0.16 v 0.426666 l -0.21334,0.133334 -0.16,0.293333 -0.48,0.133333 q -0.10666,0.02667 -0.24,0.24 -1.84,0.72 -2.05333,0.72 -0.08,0 -0.32,-0.02667 -0.21333,-0.05333 -0.37333,-0.05333 -0.10667,0 -0.16,0.02667 0.0267,0.08 0.29333,0.586667 l 0.34667,0.213333 0.48,0.853333 0.72,0.426667 0.0533,0.106667 0.24,0.133333 0.34667,0.4 0.64,0.506667 0.85333,0.346666 0.48,0.133334 0.34667,-0.02667 0.18666,-0.08 q 0.53334,-0.08 1.01334,-0.426667 l 0.45333,-0.826666 0.26667,-0.32 0.16,-0.48 q 0.4,-0.133334 0.64,-0.133334 0.61333,0 0.8,0.693334 z"
       id="path27" />
    <path
       d="m 304.54381,20.728336 -0.10666,0.32 -0.10667,0.533333 -0.48,0.4 -0.10667,0.346667 -0.32,0.08 -0.34666,0.506667 -0.61334,0.133333 -0.53333,0.373333 -0.77333,0.08 -0.4,0.426667 -0.69334,-0.05333 -0.29333,0.24 -0.37333,-0.05333 q -0.53334,0.373334 -1.25334,0.506667 l -0.18666,-0.106667 -0.77334,0.56 -0.29333,-0.16 -0.18667,0.133334 -0.48,-0.106667 -0.18666,0.106667 -0.48,0.05333 -0.37334,-0.08 -0.48,0.4 -0.56,-0.24 v 0.02667 q -0.0533,0.05333 -0.29333,0.133333 l -0.16,-0.186667 q -0.37333,0.293334 -0.88,0.293334 -0.0533,0 -0.13333,0 -0.10667,-0.02667 -0.16,-0.02667 l -0.42667,0.453333 -0.50667,0.16 -0.42666,-0.24 -0.10667,-0.48 -0.58667,0.186667 q 0.0533,-0.05333 0.0533,-0.08 0,-0.02667 0,-0.08 -0.0267,-0.05333 -0.0267,-0.106667 0,-0.08 0.10667,-0.106666 l -0.42667,-0.853334 0.0267,-0.48 -0.0533,-0.586666 0.13334,-0.426667 -0.08,-0.586667 0.18666,-0.426666 -0.10666,-0.346667 0.08,-0.586667 q -0.08,-0.293333 -0.18667,-0.64 l -0.0267,-0.373333 q -0.88,-0.453333 -0.98666,-0.853333 0.13333,-0.64 0.77333,-1.013334 0.0267,-0.02667 0.29333,-0.186666 l -0.18666,-0.586667 0.21333,-0.08 -0.10667,-0.4 0.08,-0.106667 -0.16,-0.399999 0.08,-0.213334 -0.0267,-0.613333 -0.32,-0.64 0.0533,-0.266667 -0.16,-0.106666 0.0533,-0.613334 -0.13333,-0.213333 -0.18667,-0.64 -0.0267,-0.02667 -0.29334,0.24 -0.26666,-0.186666 -0.29334,0.186666 -0.10666,-0.133333 -0.45334,0.293333 -0.26666,-0.4 -0.53334,0.32 q -1.33333,-0.773333 -1.33333,-1.36 0,-0.533333 0.56,-0.64 0.26667,-0.426666 0.77333,-0.426666 h 0.10667 l 0.29333,0.133333 0.0533,-0.02667 q 1.17333,0 1.70666,0.106667 0.45334,-0.106667 0.8,-0.106667 l 0.13334,0.106667 0.18666,-0.05333 0.74667,0.266666 1.54667,0.186667 q 0.13333,-0.02667 0.4,-0.02667 0.34666,0 0.50666,0.05333 l 0.29334,-0.05333 q 0.45333,0.05333 0.72,0.24 l 0.21333,0.106667 q 0.53333,0.106667 0.72,0.106667 l 0.64,-0.106667 0.13333,0.16 q 0.34667,0 0.61334,0.266667 l 0.77333,0.02667 0.32,0.293334 q 0.34667,0.133333 0.58667,0.133333 l 0.53333,0.16 0.21333,0.213333 h 0.61334 l 0.16,0.373334 0.56,0.346666 0.18666,0.826667 -0.42666,0.773333 q -0.58667,0.666667 -1.17334,0.773334 l -0.42666,0.239999 -0.21334,-0.05333 -0.56,0.373333 q -0.18666,-0.02667 -0.32,-0.02667 l -0.56,0.186666 -0.0533,-0.02667 -0.34667,0.453333 -0.50666,0.08 q -0.69334,0.346667 -1.38667,0.346667 l -0.53333,0.293333 h -0.56 l -0.45334,0.266667 -0.34666,0.05333 0.93333,0.293333 0.53333,-0.08 0.88,0.106667 1.01334,-0.16 0.0533,0.106667 q 0.18667,-0.02667 0.53333,-0.02667 0.64,0 0.82667,0.266667 0.18667,-0.133334 0.42667,-0.133334 0.45333,0.16 0.61333,0.16 0.18667,0 0.50667,-0.133333 0.34666,0.186667 1.30666,0.186667 l 0.24,0.133333 q 0.72,0.106667 1.17334,0.32 h 0.42666 q 0.32,0.32 0.72,0.32 0.16,0.16 0.88,0.613333 0.4,0.266667 0.4,0.586667 z m -6.16,-6.08 v -0.213333 l -0.08,-0.02667 -0.18666,-0.213333 h -0.29334 l -0.26666,-0.133333 q -0.21334,-0.05333 -0.37334,-0.106667 l -0.29333,0.213333 -0.53333,-0.4 -0.45334,-0.133333 -0.18666,0.106667 -0.50667,-0.266667 h -0.13333 q -0.26667,0 -0.88,-0.08 l -0.61334,0.08 -0.32,-0.293333 -0.29333,0.05333 -0.10667,-0.02667 -0.16,0.133334 -0.50666,-0.186667 -0.10667,0.05333 v 0.64 l 0.18667,0.506667 -0.16,0.4 0.16,0.613333 -0.0533,0.56 0.16,0.426667 -0.13333,0.453333 v 0.05333 l 0.42667,-0.02667 q 0.13333,-0.05333 0.4,-0.106667 l -0.0267,0.08 0.32,-0.24 0.0533,-0.213333 0.66667,-0.02667 q 0.82667,-0.213333 1.06667,-0.506666 l 0.32,0.02667 0.13333,-0.106666 q 0.42667,-0.426667 0.90667,-0.426667 h 0.10666 q 0.13334,0 0.24,-0.133333 l 0.72,-0.213334 h 0.08 q 0.29334,-0.24 0.72,-0.32 z m 3.81334,6.4 -0.08,-0.05333 -0.42667,-0.05333 -0.10667,-0.133333 h -0.13333 l -0.61333,-0.266667 -0.50667,0.05333 -0.24,-0.213334 -0.53333,0.05333 q -0.16,-0.133334 -0.34667,-0.186667 -0.24,0.133333 -0.45333,0.133333 -0.18667,-0.02667 -0.42667,-0.16 -0.45333,0 -0.98667,-0.08 l -0.90666,-0.02667 q -0.45334,-0.133334 -0.82667,-0.133334 -0.16,0 -0.4,0.05333 l -0.58667,0.133333 -0.4,-0.266667 -0.0267,0.16 -1.17334,-0.106666 q -0.24,-0.16 -0.29333,-0.213334 -0.45333,0 -0.45333,0.453334 v 0.16 l -0.0267,0.24 0.16,0.373333 -0.13333,0.4 0.0533,0.186667 -0.0533,0.373333 0.18666,0.32 0.0533,0.506667 -0.18667,0.426666 0.0267,0.133334 0.08,0.05333 0.0533,0.4 0.74667,-0.02667 0.45333,-0.16 0.77333,0.02667 0.18667,0.08 q 0.08,-0.08 0.26667,-0.133333 l 0.45333,-0.213334 0.74667,0.02667 0.74666,-0.24 0.64,-0.266667 0.37334,0.02667 0.64,-0.293333 0.90666,-0.05333 q 0.66667,-0.02667 0.98667,-0.453333 l 0.37333,0.02667 0.29334,-0.133334 0.21333,-0.293333 0.58667,-0.16 0.18666,-0.32 z"
       id="path29" />
    <path
       d="m 316.35713,15.208336 -0.21334,0.88 -0.98666,0.133333 -0.53334,0.346667 -0.34666,-0.16 -0.37334,0.213333 -0.4,0.16 -0.26666,0.186667 v 0.106667 l -0.56,0.266666 -0.37334,0.48 h -0.18666 q -0.42667,0.453334 -0.61334,0.56 l -0.37333,0.613334 -0.13333,0.05333 q -0.08,0.213333 -0.18667,0.64 l -0.37333,0.133333 -0.16,0.32 -0.21334,0.266667 -0.0533,0.4 -0.21333,0.08 v 0.4 l -0.08,0.08 q 0.08,0.133333 0.18666,0.293333 l -0.4,0.16 -0.0533,0.346667 -0.26667,0.453333 0.16,0.346667 -0.34666,0.48 q 0.0533,0.266667 0.0533,0.373333 0,0.02667 0,0.106667 -0.0267,0.08 -0.0267,0.133333 l 0.0533,0.24 0.45333,0.48 -0.34667,0.613334 -0.32,0.24 -0.74666,0.373333 -0.98667,-0.4 v -0.613333 l -0.10667,-0.24 0.08,-0.4 q -0.0533,-0.426667 -0.0533,-0.64 0,-0.08 0.0267,-0.213334 0,-0.133333 0,-0.186666 l -0.0267,-0.266667 q -0.18667,-0.186667 -0.18667,-0.426667 0,-0.213333 0.18667,-0.48 0,-0.133333 -0.0533,-0.8 l 0.08,-0.08 -0.08,-0.346666 0.0533,-0.32 -0.0533,-0.186667 0.08,-0.613333 -0.16,-0.266667 0.10666,-0.293333 -0.10666,-0.346667 q 0.0267,-0.16 0.0267,-0.426667 0,-0.4 -0.10666,-0.533333 l 0.10666,-0.16 -0.10666,-0.48 -0.24,-0.346667 0.13333,-0.426666 -0.10667,-0.16 -0.10666,-0.64 V 15.50167 q -0.13334,-0.16 -0.13334,-0.4 0,-0.533334 1.17334,-0.906667 l 0.66666,0.133333 0.13334,0.506667 0.26666,0.346667 -0.08,0.72 q 0.08,0.533333 0.18667,1.173333 l 0.08,0.426666 q 0.0267,0.05333 0.0533,0.293334 0,0.16 -0.13333,0.346666 l 0.08,0.533334 -0.0533,0.586666 -0.10667,0.266667 0.08,0.106667 0.0533,0.266666 q 0.16,-0.186666 0.18667,-0.4 l 0.10667,-0.4 q 0.08,-0.16 0.24,-0.24 l 0.10666,-0.4 0.37334,-0.213333 0.0533,-0.32 0.29333,-0.32 0.21334,-0.4 q 0.34666,-0.373333 0.66666,-0.48 l 0.0533,-0.08 0.24,-0.373333 0.26666,-0.05333 0.08,-0.08 0.10667,-0.16 0.29333,-0.16 0.16,-0.186667 0.16,0.02667 0.21334,-0.106667 0.10666,-0.16 0.32,-0.16 0.45334,-0.293333 0.64,-0.213334 q 0.37333,-0.05333 0.4,-0.05333 0,0.02667 0,0.02667 -0.0267,0 -0.0267,0.02667 h 0.0267 q 0.10666,0 0.32,-0.106666 0.13333,-0.106667 0.37333,-0.106667 0.10667,0 0.37333,0.05333 0.69334,0.02667 0.77334,0.64 z"
       id="path31" />
    <path
       d="m 326.0371,18.888336 -0.16,0.48 q 0,0.693333 -0.08,1.093333 l -0.16,0.266667 v 0.293333 l -0.13334,0.186667 -0.08,0.373333 -0.29333,0.293334 -0.18667,0.666666 -0.21333,0.08 -0.10667,0.293334 -0.32,0.186666 -0.21333,0.453334 -0.32,0.16 -0.0267,0.32 -0.50666,0.186666 q -0.34667,0.48 -0.85334,0.613334 l -0.10666,0.02667 q -0.37334,0.56 -0.98667,0.56 -0.26667,0.16 -0.61333,0.16 l -0.26667,0.186667 -0.26667,0.08 -0.34666,0.266667 -0.34667,-0.02667 -0.37333,0.106667 -0.45334,-0.186667 -1.14666,-0.08 -0.4,-0.613333 -0.58667,-0.613334 0.13333,-0.426666 -0.4,-0.906667 0.18667,-0.346667 -0.13333,-0.64 0.13333,-0.4 q -0.0533,-0.373333 -0.0533,-0.533333 0,-0.506667 0.26666,-0.746667 0.0267,-0.266666 0.34667,-0.88 h 0.13333 l -0.0533,-0.186666 0.08,-0.373334 v -0.4 q 0.21333,-0.24 0.24,-0.32 l -0.08,-0.373333 v -0.106667 q 0.18667,-0.373333 0.18667,-0.773333 l 0.56,-0.773333 q 0,0 0.0533,-0.05333 0.08,-0.05333 0.13333,-0.106666 l -0.0267,-0.106667 h 0.10666 l 0.4,-0.453333 0.0267,-0.613333 0.66667,-0.24 q 0.37333,-0.24 0.48,-0.8 h 0.34666 q 0.29334,-0.16 0.53334,-0.16 0.24,0 0.45333,0.106666 l 0.29333,0.02667 0.69334,-0.266667 0.37333,0.346667 0.29333,0.186667 h 0.21334 l 0.4,0.213333 h 0.21333 q 0.34667,0.32 0.8,0.88 l 0.0533,0.133333 0.18667,0.106667 0.56,0.72 0.50667,1.253333 v 0.266667 z m -1.76,0.64 -0.0267,-0.133333 q -0.18667,-0.186667 -0.21333,-0.4 l 0.08,-0.133334 -0.24,-0.506666 0.0533,-0.506667 -0.10667,-0.133333 q -0.34666,-0.266667 -0.37333,-0.426667 -0.24,-0.106667 -0.24,-0.533333 l -0.16,-0.02667 -0.32,-0.533333 -0.24,-0.186667 -0.56,-0.213333 -0.21333,-0.05333 q -0.16,0 -0.21334,-0.106667 l -0.53333,0.586666 -0.34667,0.746667 -0.56,0.293333 -0.08,0.293334 -0.26666,0.133333 -0.10667,0.693333 -0.32,0.16 q -0.10667,0.373334 -0.10667,0.693334 l -0.42666,0.4 0.13333,0.08 q 0,0.32 -0.24,0.56 -0.08,0.24 -0.21333,0.533333 v 0.213333 l -0.08,0.106667 0.0267,0.32 -0.29333,0.72 0.0533,0.133333 v 0.746667 l -0.10666,0.373333 0.0267,0.373334 0.24,0.346666 0.37334,0.133334 0.13333,0.05333 0.21333,-0.106667 0.69334,0.05333 0.10666,-0.266667 h 0.10667 q 0.16,0 0.18667,0.08 l 0.24,-0.08 0.21333,0.08 0.34667,-0.24 0.0533,-0.08 0.24,-0.05333 q 0.18667,-0.293334 0.88,-0.586667 l 0.0533,-0.133333 0.53334,-0.373334 0.29333,-0.426666 0.42667,-0.213334 0.0267,-0.133333 0.13334,-0.293333 v -0.346667 l 0.32,-0.266667 0.10666,-0.186666 0.13334,-0.16 q -0.10667,-0.32 -0.10667,-0.453334 0,-0.24 0.16,-0.506666 z"
       id="path33" />
    <path
       d="m 344.94371,14.355003 -0.13334,0.506667 0.0533,0.266666 -0.32,1.04 -0.0533,0.373333 -0.37333,0.4 -0.13333,0.506667 -0.29334,0.426667 -0.42666,0.933333 -0.50667,0.853333 -0.77333,1.146667 -0.13334,0.346667 -0.4,0.72 -0.45333,0.933333 -0.8,1.44 -0.16,0.64 -0.42667,0.613333 -0.8,-0.266666 -0.45333,-0.266667 -0.42667,-1.253333 -0.53333,-0.906667 v -0.266667 l -0.32,-0.746666 -0.13333,-0.16 -1.12,-2.346667 -0.34667,-0.56 -0.29333,0.453333 -0.42667,0.346667 -0.61333,0.853333 -0.42667,0.453334 -0.24,0.693333 -0.58666,0.72 -0.0533,0.24 -0.4,0.826667 v 0.4 l -0.26666,0.373333 -0.0267,0.373333 -0.26667,0.08 -0.58666,0.613334 0.10666,-0.05333 q -0.26666,0.16 -0.72,0.213334 l -0.18666,-0.213334 -0.4,-0.16 v -0.293333 l -0.16,-0.213333 -0.16,-0.72 -0.21334,-0.48 v -0.346667 l -0.0267,-0.106667 -0.4,-1.146666 -0.10667,-0.72 -0.26667,-0.293334 0.0533,-0.346666 -0.26667,-0.64 v -0.24 l -0.21333,-0.586667 -0.37334,-0.506667 0.0533,-0.586666 -0.0267,-0.186667 -0.29333,-0.693333 -0.0533,-0.426667 -0.16,-0.266666 q -0.16,-0.266667 -0.24,-0.533334 l -0.45333,-1.146666 0.37333,-0.48 q 0.16,-0.293334 0.66667,-0.373334 l 0.56,-0.08 0.18667,0.266667 0.34666,0.16 0.24,0.48 0.21334,0.186667 -0.08,0.426666 0.10666,0.266667 -0.08,0.24 0.26667,0.426667 -0.0533,0.399999 0.34666,1.2 -0.0533,0.293334 0.16,0.72 0.37333,0.853333 0.16,1.013333 0.26667,0.32 v 0.64 l 0.18667,0.56 0.0267,0.213334 0.37334,-0.24 0.61333,-0.986667 0.18667,-0.453333 0.21333,-0.373334 q 0,-0.266666 0.10667,-0.4 h 0.16 l 0.08,-0.48 0.29333,-0.05333 q 0.0533,-0.213333 0.24,-0.32 v -0.05333 q 0,-0.16 0.16,-0.32 l -0.0533,-0.186667 0.13333,-0.05333 -0.0267,-0.16 q 0.24,-0.426667 0.53333,-0.64 v -0.533334 l 0.37334,-0.213333 0.10666,-0.08 0.0533,-0.05333 q -0.13334,-0.266667 -0.13334,-0.586667 0,-0.48 0.42667,-0.933333 0.24,-0.106667 0.58667,-0.106667 0.21333,0 0.32,0.02667 l 0.50666,0.453333 0.26667,0.4 0.16,0.64 0.24,0.426667 -0.0533,0.293333 0.18666,0.586667 v 0.24 l 0.45334,0.8 v 0.08 l 0.10666,0.08 0.53334,1.28 0.0267,0.346666 0.26667,0.293334 0.61333,1.386666 0.13334,-0.24 0.48,-0.986666 0.29333,-0.24 0.21333,-0.56 0.26667,-0.133334 v -0.4 q 0.16,-0.133333 0.42667,-0.266666 0.16,-0.08 0.16,-0.133334 l -0.0267,-0.56 0.32,-0.32 0.13333,-0.08 0.4,-0.666666 v -0.08 q 0.0533,-0.293334 0.34667,-0.666667 l -0.0533,-0.293333 0.48,-0.586667 0.24,-0.586666 q -0.29334,-0.8 -0.29334,-1.36 0,-0.826667 0.85334,-0.933334 l 0.72,0.213334 0.10666,-0.16 0.18667,0.24 0.26667,0.186666 -0.08,0.293334 z"
       id="path35" />
    <path
       d="m 363.13036,20.808336 q 0,0.213333 -0.34667,0.56 l -0.29333,0.453333 -0.10667,0.533334 -0.24,0.08 -0.0533,0.16 q -0.42667,0.133333 -0.61333,0.666666 -0.29334,0.373334 -0.64,0.533334 -0.13334,0.133333 -0.24,0.186666 l -0.13334,0.24 -0.24,0.05333 -0.69333,0.373333 -0.90667,0.106667 -0.24,-0.05333 -0.4,0.08 -0.16,-0.186666 q -0.37333,-0.186667 -0.53333,-0.373334 -0.32,-0.08 -0.48,-0.506666 -0.45333,-0.533334 -0.45333,-0.853334 v -0.08 l -0.18667,-0.32 -0.0533,-0.05333 -0.16,-0.48 -0.24,-0.506667 0.0533,-0.613333 -0.26667,-0.346667 -0.4,-2.293333 q -0.08,-0.453333 -0.08,-0.773333 l -0.0533,-0.133334 -0.13333,-0.186666 -0.24,0.32 -0.96,1.013333 -0.34667,0.56 -0.18667,0.373333 -0.29333,0.426667 -0.21333,0.213333 0.0267,0.133334 -0.37333,0.826666 -0.21333,0.266667 -0.26667,0.05333 -0.24,0.24 q 0,0.533334 -0.50667,0.693334 l -0.0533,0.05333 q -0.24,0.586667 -0.53333,0.72 l -0.24,0.373333 q -0.58667,0.533334 -0.77334,0.666667 -0.08,0.266667 -0.29333,0.453333 -0.0533,0.08 -0.18667,0.213334 -0.08,0.453333 -0.74666,0.64 l -0.29334,0.08 q -0.53333,-0.02667 -0.87999,-0.613334 l -0.4,-0.666666 0.13333,-0.64 -0.0533,-0.346667 0.0533,-0.05333 0.0267,-0.346667 -0.29334,-0.64 0.21334,-0.32 -0.10667,-0.346667 0.18667,-0.373333 0.0533,-0.613333 -0.10667,-0.106667 0.21334,-0.373333 -0.08,-0.186667 -0.0267,-0.426667 0.10667,-0.8 q -0.0533,-0.266666 -0.0533,-0.346666 0,-0.05333 0.0267,-0.106667 0,-0.08 0,-0.106667 l -0.13333,-0.213333 0.08,-0.853333 -0.0267,-0.293334 0.08,-0.426666 -0.10667,-0.72 0.48,-0.8 q 0.82667,0.133333 1.14667,0.373333 0.32,0.213334 0.32,0.8 v 0.24 l 0.18666,0.32 -0.08,0.56 0.10667,1.066667 -0.18667,0.506666 0.08,0.56 v 0.453334 l -0.21333,0.293333 0.16,0.48 -0.16,0.293333 -0.0267,0.293334 0.16,0.293333 -0.21333,0.56 -0.08,0.24 v 0.24 l 0.13333,0.266667 0.45334,-0.453334 q 0,-0.4 0.26666,-0.533333 0.0267,-0.266667 0.21334,-0.4 l -0.08,-0.08 0.34666,-0.32 0.08,-0.106667 v -0.24 l 0.42667,-0.32 0.10667,-0.266666 0.24,-0.16 1.04,-1.173334 q -0.13334,0.16 -0.88,0.986667 v 0.05333 l 0.0533,-0.186666 0.34667,-0.4 0.24,-0.453334 v -0.266666 l 0.4,-0.133334 0.0533,-0.346666 0.10667,-0.106667 0.0267,-0.133333 v -0.186667 l 0.37334,-0.373333 q 0,-0.05333 0,-0.133334 -0.0267,-0.08 -0.0267,-0.106666 0,-0.48 0.53333,-0.533333 0.24,-0.48 0.72,-0.56 l 0.16,-0.24 0.0533,-0.05333 q 0.24,-0.346666 0.72,-0.48 l 0.24,-0.293333 h 0.64 l 0.32,0.373333 0.29333,0.16 0.0267,0.08 0.18666,0.05333 0.0533,0.56 0.45333,0.266666 -0.18667,0.586667 0.29334,0.64 v 0.746666 l 0.21333,1.013334 0.0533,0.96 0.24,0.56 0.16,0.693333 q 0.16,0.16 0.24,0.453333 l 0.48,0.133334 v 0.533333 l 0.26667,0.293333 v 0.08 l 0.10667,0.02667 0.10666,0.16 0.10667,-0.133333 q -0.0533,0 0.13333,0.02667 0.29334,0 0.61334,-0.533333 l 0.32,-0.08 0.08,-0.133333 q 0.08,-0.213334 0.32,-0.32 l 0.18666,0.02667 0.10667,-0.106666 0.0267,-0.133334 0.08,-0.106666 q 0.26666,-0.186667 0.34666,-0.56 l 0.29334,-0.32 0.0533,-0.24 0.18667,-0.426667 0.50666,-0.186667 0.72,0.24 0.24,0.773334 q 0,0.02667 0.0267,0.05333 0,0.05333 0,0.08 z"
       id="path37" />
    <path
       d="m 174.78403,45.501672 q 0,0.506667 -0.77333,0.533333 l -0.48,0.213334 -0.48,-0.106667 -0.69333,0.373333 q -0.58667,-0.293333 -0.85334,-0.293333 -0.0267,0 -0.24,0.05333 -0.18666,0.02667 -0.34666,0.02667 -0.21334,0 -0.32,-0.02667 l -0.58667,0.186667 -0.13333,-0.02667 -0.0533,0.02667 -1.46666,0.02667 -0.16,0.266666 -0.66667,-0.213333 -0.26667,0.133333 -0.64,0.05333 -0.4,-0.08 q -0.24,0.02667 -0.48,0.08 -0.21333,0.02667 -0.24,0.02667 l -0.34666,0.05333 -0.16,0.106666 0.16,0.48 0.21333,0.56 -0.10667,0.426667 0.26667,0.213333 -0.21333,0.32 q 0.0533,0.213334 0.0533,0.346667 0,0.24 -0.13333,0.586667 l -0.08,0.88 0.42666,0.02667 0.85334,-0.213333 0.37333,0.213333 q 0.08,0 0.21333,0 0.10667,0.02667 0.13334,0.02667 h 0.08 l 0.16,-0.16 0.82666,-0.133333 0.58667,0.213333 q 0.42667,-0.106667 0.61333,-0.133333 h 0.88 l 0.50667,-0.106667 0.29333,0.16 0.4,-0.05333 q 0.21334,-0.02667 0.32,-0.02667 l 1.54667,-0.186667 0.18667,0.08 q 0.08,-0.02667 0.18666,-0.02667 0.18667,0 0.45334,0.106666 0.34666,0.48 0.34666,0.853334 0,0.133333 -0.0267,0.213333 l -0.50667,0.08 -0.45333,0.24 h -0.4 l -0.21334,0.186667 -0.74666,-0.05333 -0.66667,0.186667 -0.77333,0.133333 -0.16,-0.02667 -0.0533,0.05333 -1.01333,-0.106667 -0.34667,0.133334 -0.48,-0.05333 q -0.4,0.186667 -0.98666,0.186667 h -0.24 q -0.13334,0.02667 -0.56,0.16 -0.56,-0.32 -0.56,-0.32 0,0 -0.16,0.133333 -0.16,0.133334 -0.37334,0.186667 l -0.50666,-0.05333 h -0.32 q -0.0533,0.266666 -0.16,1.6 0.10666,0.32 0.10666,0.56 l -0.26666,0.666666 0.16,0.32 -0.21334,0.426667 0.08,0.4 -0.13333,0.24 q -0.34667,1.813333 -0.48,2.32 -0.21333,0.8 -0.48,0.933333 l -0.58667,-0.293333 h -0.72 l 0.18667,-0.826667 v -0.373333 l 0.16,-0.16 0.0533,-0.346667 0.0267,-0.133333 -0.0533,-0.02667 v -0.32 l -0.24,-0.266666 0.0533,-0.16 q 0,-0.56 0.21333,-0.986667 l -0.10666,-0.106667 0.0533,-0.32 -0.08,-0.373333 0.16,-0.426667 -0.0533,-0.96 0.18666,-0.933333 -0.13333,-0.32 v -0.133333 l -0.42667,0.16 -0.61333,-0.32 -0.26667,0.05333 q -0.26666,0.05333 -0.32,0.05333 -0.74666,0 -0.74666,-0.88 0,-1.12 1.12,-1.12 0.56,0 0.8,0.02667 l 0.74666,0.08 -0.0533,-0.213333 0.0267,-0.853334 -0.16,-0.05333 0.10666,-1.626667 -0.26666,-0.72 -0.0267,-0.24 -0.18667,-0.106666 -0.85333,0.48 -0.42667,-0.586667 q -0.48,-0.213333 -0.48,-0.826667 0.16,-0.24 0.16,-0.373333 v -0.613333 l 0.74667,0.05333 q 0.56,-0.4 1.01333,-0.4 -0.0267,0 0.77334,0.106667 0.48,-0.05333 1.76,-0.133334 l 0.96,0.133334 0.72,-0.02667 0.10666,-0.08 q 0.18667,-0.106667 0.4,-0.106667 0.18667,0 0.29334,0.05333 l 0.10666,0.02667 q 0.24,-0.02667 0.72,-0.08 0.48,-0.08 0.72,-0.106666 l 0.0267,0.08 0.16,0.133333 h 0.10667 q 0.13333,0 0.37333,-0.02667 0.24,-0.05333 0.34667,-0.05333 h 0.08 l 0.72,0.106667 0.77333,0.08 q 0.4,-0.08 0.74667,-0.08 0.26666,0 0.50666,0.08 h 0.45334 q 0.24,-0.08 0.53333,-0.08 0.77333,0 0.77333,0.853333 z"
       id="path39" />
    <path
       d="m 185.15733,52.221672 -0.16,0.48 q 0,0.693333 -0.08,1.093333 l -0.16,0.266667 v 0.293333 l -0.13333,0.186667 -0.08,0.373333 -0.29334,0.293334 -0.18666,0.666666 -0.21334,0.08 -0.10666,0.293334 -0.32,0.186666 -0.21334,0.453334 -0.32,0.16 -0.0267,0.32 -0.50667,0.186666 q -0.34667,0.48 -0.85333,0.613334 l -0.10667,0.02667 q -0.37333,0.56 -0.98667,0.56 -0.26666,0.16 -0.61333,0.16 l -0.26667,0.186667 -0.26666,0.08 -0.34667,0.266666 -0.34667,-0.02667 -0.37333,0.106666 -0.45333,-0.186666 -1.14667,-0.08 -0.4,-0.613334 -0.58667,-0.613333 0.13334,-0.426666 -0.4,-0.906667 0.18666,-0.346667 -0.13333,-0.64 0.13333,-0.4 q -0.0533,-0.373333 -0.0533,-0.533333 0,-0.506667 0.26667,-0.746667 0.0267,-0.266666 0.34666,-0.88 h 0.13334 l -0.0533,-0.186666 0.08,-0.373334 v -0.4 q 0.21334,-0.24 0.24,-0.32 l -0.08,-0.373333 v -0.106667 q 0.18667,-0.373333 0.18667,-0.773333 l 0.56,-0.773333 q 0,0 0.0533,-0.05333 0.08,-0.05333 0.13334,-0.106666 l -0.0267,-0.106667 h 0.10667 l 0.4,-0.453333 0.0267,-0.613334 0.66667,-0.24 q 0.37333,-0.24 0.48,-0.8 h 0.34667 q 0.29333,-0.16 0.53333,-0.16 0.24,0 0.45333,0.106667 l 0.29334,0.02667 0.69333,-0.266667 0.37333,0.346667 0.29334,0.186666 h 0.21333 l 0.4,0.213334 h 0.21333 q 0.34667,0.32 0.8,0.88 l 0.0533,0.133333 0.18666,0.106667 0.56,0.72 0.50667,1.253333 v 0.266667 z m -1.76,0.64 -0.0267,-0.133333 q -0.18666,-0.186667 -0.21333,-0.4 l 0.08,-0.133334 -0.24,-0.506666 0.0533,-0.506667 -0.10666,-0.133333 q -0.34667,-0.266667 -0.37334,-0.426667 -0.24,-0.106667 -0.24,-0.533333 l -0.16,-0.02667 -0.32,-0.533333 -0.24,-0.186667 -0.56,-0.213333 -0.21333,-0.05333 q -0.16,0 -0.21333,-0.106666 l -0.53334,0.586666 -0.34666,0.746667 -0.56,0.293333 -0.08,0.293334 -0.26667,0.133333 -0.10667,0.693333 -0.32,0.16 q -0.10666,0.373334 -0.10666,0.693334 l -0.42667,0.4 0.13333,0.08 q 0,0.32 -0.24,0.56 -0.08,0.24 -0.21333,0.533333 v 0.213333 l -0.08,0.106667 0.0267,0.32 -0.29334,0.72 0.0533,0.133333 v 0.746667 l -0.10667,0.373333 0.0267,0.373334 0.24,0.346666 0.37333,0.133334 0.13333,0.05333 0.21334,-0.106667 0.69333,0.05333 0.10667,-0.266667 h 0.10666 q 0.16,0 0.18667,0.08 l 0.24,-0.08 0.21333,0.08 0.34667,-0.24 0.0533,-0.08 0.24,-0.05333 q 0.18667,-0.293334 0.88,-0.586667 l 0.0533,-0.133333 0.53333,-0.373334 0.29333,-0.426666 0.42667,-0.213334 0.0267,-0.133333 0.13333,-0.293333 v -0.346667 l 0.32,-0.266667 0.10667,-0.186666 0.13333,-0.16 q -0.10667,-0.32 -0.10667,-0.453334 0,-0.24 0.16,-0.506666 z"
       id="path41" />
    <path
       d="m 198.78395,58.088339 q -0.64,0.746666 -1.14667,0.746666 h -0.0533 l -0.42667,0.213333 -0.48,-0.24 -0.4,-0.106666 -0.64,-0.48 -0.64,-0.106667 -0.8,-0.693333 -0.8,-1.04 -0.82667,-0.826667 -0.0267,-0.16 q -0.45334,-0.533333 -0.69334,-0.96 l -0.08,-0.186666 -0.26666,-0.24 q -0.0533,-0.24 -0.13334,-0.346667 l -0.13333,0.133333 h -0.21333 l -0.29334,0.453334 -0.08,0.213333 -0.4,0.266667 -0.13333,0.56 -0.45333,0.346666 q -0.08,0.4 -0.29334,0.64 l -0.32,0.133334 -0.0267,0.24 -0.34667,0.48 -0.56,0.453333 v 0.08 l -0.85333,0.88 -0.66667,0.933333 -0.29333,0.453333 -0.26667,0.186667 -1.01333,0.88 -0.58667,-0.586667 0.16,-0.613333 0.26667,-0.266667 0.0533,-0.293333 0.29333,-0.24 0.18667,-0.506667 q 0.0267,0.02667 0.10667,0.02667 0.0533,0 0.16,0.05333 l 0.32,-0.693333 0.21333,-0.106666 0.29333,-0.56 0.13334,-0.613334 0.37333,-0.133333 q 0.08,-0.24 0.32,-0.453333 v -0.05333 q 0,-0.373333 0.4,-0.64 0.29333,0 0.32,-0.533333 l 0.18667,-0.106667 0.08,-0.213333 0.13333,-0.05333 q 0.18667,-0.32 0.45333,-0.453334 l 0.24,-0.56 0.16,-0.106666 v -0.373334 l 0.29334,-0.106666 0.29333,-0.213334 0.10667,-0.373333 q 0.0533,-0.133333 0.26666,-0.293333 l -0.18666,-0.24 -0.0533,-0.186667 -0.10666,-0.05333 -0.50667,-0.96 -0.45333,-0.773334 -0.32,-0.666666 -0.56,-0.613334 0.16,-0.346666 -0.16,-0.72 0.98666,-0.213334 0.85334,0.16 0.10666,0.48 0.53334,0.56 -0.0533,0.24 0.24,0.533334 0.4,0.533333 0.0533,0.533333 0.21333,0.506667 0.21333,-0.213333 v -0.213334 q 0.16,-0.05333 0.21334,-0.08 l 0.10666,-0.02667 q 0.18667,-0.186667 0.26667,-0.373334 v -0.106666 l 0.29333,-0.133334 -0.0267,-0.08 q 0.13333,-0.133333 0.45333,-0.373333 v -0.266667 l 0.34667,-0.02667 0.32,-0.213334 0.08,-0.32 q 0.13333,-0.05333 0.4,-0.16 v -0.08 l 0.10666,0.02667 0.08,0.213333 q 0.32,-0.666666 0.66667,-0.826666 l 0.21333,-0.24 0.45334,-0.08 0.88,-0.24 0.37333,0.613333 0.24,0.213333 q 0,0.8 -0.72,1.04 l -0.08,0.02667 -1.68,1.386667 -0.24,0.4 -0.4,0.16 -0.32,0.346666 -0.37333,0.426667 -0.53334,0.213333 -0.10666,0.293334 h -0.16 l 0.34666,0.506666 0.10667,0.426667 0.10667,0.16 0.26666,0.133333 q 0.10667,0.213334 0.26667,0.64 l 0.0267,0.133334 0.64,0.4 0.16,0.666666 0.4,0.32 0.26666,0.4 0.42667,0.266667 0.08,0.186667 0.21333,0.133333 0.10667,0.133333 0.29333,0.08 0.34667,0.533334 0.29333,-0.05333 0.45334,0.24 1.46666,0.16 z"
       id="path43" />
    <path
       d="m 210.81057,53.875005 -0.37334,0.05333 -0.0267,0.186666 0.08,0.533334 -0.13334,0.106666 v 0.106667 q 0,0.186667 -0.13333,0.453333 -0.13333,0.266667 -0.13333,0.4 l 0.08,0.533334 v 0.16 l 0.10666,0.48 -0.24,0.506666 v 0.106667 l -0.0533,0.373333 v 0.56 l -0.21333,0.266667 0.16,0.213333 -0.37334,0.373333 v 0.533334 l -0.16,0.16 0.08,0.373333 -0.26666,0.106667 v 0.08 l -0.21334,0.293333 -0.26666,0.05333 v 0.72 l -0.45334,0.266667 q -0.45333,0.826667 -0.66666,1.2 l -1.28,0.853333 -0.50667,0.266667 -0.48,0.346667 -0.24,-0.05333 -0.8,0.293334 -0.8,-0.08 -0.96,0.4 -0.90667,-0.266667 -0.61333,0.08 -0.10667,-0.02667 -0.56,0.426667 -0.4,-0.506667 -0.21333,0.02667 -0.69333,-0.213333 -1.01334,0.266666 -0.18666,-0.506666 -0.90667,0.08 -0.32,-0.4 -0.72,-0.02667 v -0.106667 l -0.4,-0.186666 h -0.29333 q -0.56,-0.266667 -0.56,-1.066667 0,-0.346667 0.8,-0.346667 0.8,0 1.81333,0.48 0.66667,0 1.30667,0.24 l 0.21333,0.02667 h 0.45333 l 0.18667,0.16 0.66667,-0.08 0.58666,0.133333 0.18667,-0.05333 0.45333,0.133333 0.32,-0.106666 q 1.17334,0 1.46667,-0.08 h 0.90667 l 0.13333,-0.32 h 0.48 l 0.16,-0.213334 h 0.32 l 0.21333,-0.16 0.13334,-0.02667 0.18666,-0.133334 0.37334,-0.346666 0.13333,-0.506667 0.4,-0.16 0.10667,-0.533333 0.37333,-0.266667 q 0,-0.293333 0.0267,-0.426667 l 0.08,-0.08 -0.18667,-0.266666 0.34667,-0.346667 -0.0267,-0.266667 q 0.10667,-0.133333 0.37333,-0.426666 l 0.10667,-0.506667 v -1.013333 h 0.26667 l 0.0267,-0.373333 v -0.106667 l 0.13334,-0.05333 -0.26667,-0.8 0.16,-0.05333 0.24,-0.613333 -0.0533,-0.373333 0.18666,-2.16 0.13334,-0.453334 -0.16,-0.906666 0.16,-0.32 -0.18667,-0.266667 0.18667,-0.746667 -0.29334,-1.04 v -1.173333 l -0.24,-0.666667 v -0.133333 l -0.26666,-0.05333 q 0.24,-2.746667 1.46666,-2.746667 0.61334,0 0.77334,0.453333 l 0.08,0.16 0.50666,0.32 -0.29333,0.48 0.18667,0.266667 -0.0533,0.346667 0.16,0.08 v 0.56 l 0.16,0.426666 -0.16,0.906667 0.10667,1.333333 -0.0533,0.4 v 1.173334 l -0.0533,0.586666 0.10667,0.826667 -0.08,0.186667 0.0533,0.533333 -0.21333,0.213333 0.0267,0.08 z"
       id="path45" />
    <path
       d="m 229.10388,56.915005 q 0,0.32 -0.48,0.773334 l -0.21334,0.08 -0.18666,0.24 -0.48,0.133333 q -0.13334,0.186666 -0.26667,0.186666 -0.0267,0 -0.0533,-0.02667 -0.0533,0 -0.08,0 -0.58667,0.293333 -1.41334,0.293333 h -0.21333 l -0.66667,-0.133333 -0.45333,-0.213333 -1.01333,-0.853334 -0.21334,-0.72 -0.42666,-0.346666 q 0.08,-0.106667 0.08,-0.346667 0,-0.16 -0.21334,-0.533333 l 0.08,-0.64 v -0.106667 q 0,-0.32 -0.18666,-0.826667 l 0.16,-0.8 -0.34667,0.693334 -0.4,0.05333 -0.0533,0.56 q -0.21334,0.106667 -0.50667,0.106667 l -0.29333,0.64 -0.34667,0.4 q -0.21333,0.24 -0.37333,0.266666 l -0.08,0.05333 -0.96,0.986666 h -0.10667 l -0.50667,0.586667 -0.48,0.24 -0.26666,0.346667 -0.61334,0.186666 -0.88,0.346667 -0.53333,-0.266667 q -0.53333,0 -0.74667,-0.48 l -0.24,-0.133333 q 0,-0.08 0.0267,-0.213333 0,-0.133334 0,-0.186667 l -0.42667,-0.373333 0.10667,-0.16 -0.32,-0.746667 0.10667,-0.106667 -0.0533,-0.05333 q 0,-0.05333 0,-0.16 -0.0267,-0.08 -0.0267,-0.133333 0,-0.293334 0.08,-0.56 l 0.0267,-0.693334 -0.10666,-0.56 q 0.13333,-0.213333 0.13333,-0.373333 0,-0.186667 -0.16,-0.346667 l 0.29333,-0.213333 v -0.32 l -0.10666,-0.88 0.29333,-1.706667 q 0,-0.426666 -0.24,-1.253333 0.08,-0.853333 1.12,-0.933333 l 0.21333,0.08 0.37334,0.05333 0.48,0.533333 -0.16,0.693334 -0.0533,1.146666 0.08,0.88 -0.16,0.32 0.08,0.213334 -0.13333,0.426666 v 0.266667 l -0.0533,0.08 q 0.0267,0.08 0.0267,0.24 0,0.346667 -0.10666,0.72 l 0.13333,0.186667 -0.10667,0.4 0.0533,0.32 v 0.373333 q 0.13333,0.16 0.13333,0.4 0,0.213333 -0.10667,0.426667 v 0.106666 q 0.13334,0.453334 0.13334,0.586667 l 0.24,0.24 q 0.16,-0.106667 0.37333,-0.266667 0.08,-0.266666 0.37333,-0.346666 v -0.266667 q 0.16,0 0.50667,-0.08 l 0.0533,-0.24 0.45334,-0.186667 0.08,-0.08 q 0.18666,-0.186666 0.61333,-0.346666 v -0.106667 l 0.50667,-0.373333 q 0.18666,-0.506667 0.66666,-0.666667 0.29334,-0.293333 0.4,-0.346667 l 0.34667,-0.453333 v -0.08 l 0.10667,-0.05333 0.24,-0.106667 0.13333,-0.373333 0.56,-0.24 0.10667,-0.02667 q 0,0 0.18666,-0.186667 v -0.24 l 0.16,-0.05333 q 0.08,-0.426667 0.42667,-0.64 l 0.4,-0.906667 0.13333,-0.48 0.0533,-0.106666 h 0.10666 l 0.18667,-0.133334 -0.16,-0.05333 q 0.29333,-0.48 0.45333,-1.013333 l 0.77334,-0.02667 0.61333,0.506667 0.26667,0.426666 -0.29334,1.146667 -0.4,0.533333 -0.32,1.04 -0.26666,0.16 v 0.4 l -0.16,0.293334 0.08,0.48 -0.21334,0.186666 0.10667,0.853334 0.0533,1.2 h 0.13334 v 0.693333 l 0.37333,0.453333 0.34667,0.186667 0.0267,0.133333 q 0.18667,0.02667 0.45334,0.133334 l 0.66666,0.05333 0.4,-0.106667 0.72,-0.346666 q 0.21334,-0.106667 0.53334,-0.106667 0.8,0 0.8,0.693333 z"
       id="path47" />
    <path
       d="m 253.23716,55.315005 q -0.13333,0.373334 -0.34667,0.56 -0.08,0.293334 -0.24,0.426667 -0.13333,0.266667 -0.32,0.373333 l -0.10666,0.16 q -0.10667,0.16 -0.29334,0.16 l -0.13333,0.266667 h -0.18667 l -0.13333,0.24 -0.21333,0.08 -0.16,0.186667 -0.13334,0.106666 q -0.4,0 -0.66666,0.24 -0.34667,0.133334 -0.72,0.133334 -0.37334,0 -0.74667,-0.186667 -0.42667,-0.02667 -0.42667,-0.133333 l -0.37333,-0.05333 -0.08,-0.08 -0.16,-0.32 -0.29333,-0.24 q -0.29334,-0.346666 -0.32,-0.64 -0.18667,-0.266666 -0.37334,-1.013333 l -0.26666,-0.426667 v -0.24 l -0.18667,-0.8 0.0267,-0.32 -0.16,-0.826666 0.08,-0.666667 -0.13334,-0.186667 -0.26666,0.666667 q -0.50667,0.56 -0.61334,0.693333 -0.08,0.106667 -0.21333,0.106667 -0.0267,0 -0.10667,-0.02667 l -0.16,0.293334 q -0.0267,0.02667 -0.0267,0.106666 0,0.16 0.18666,0.186667 -0.0533,0.05333 -0.26666,0.373333 -0.10667,0.213334 -0.18667,0.293334 l -0.08,-0.133334 -0.0533,0.373334 q -0.34667,0.266666 -0.48,0.8 -0.26667,0.346666 -0.82667,0.986666 l -0.34667,0.373334 q -0.13333,0 -0.13333,0.05333 v 0.05333 q -0.16,0.373334 -0.56,0.586667 l -0.32,0.4 h -0.18667 l -0.64,0.24 q -0.8,-0.05333 -0.98666,-0.693333 l -0.0267,-0.293334 -0.16,-0.346666 v -0.293334 l -0.21333,-0.773333 v -0.24 l -0.16,-0.266667 0.10666,-0.826666 q -0.0267,-0.133334 -0.0267,-0.373334 0,-0.213333 0.0267,-0.293333 l -0.0267,-0.16 v -0.106667 l -0.13334,-0.293333 0.21334,-0.506667 q -0.0533,-0.213333 -0.16,-0.693333 l 0.08,-0.24 0.08,-0.773333 -0.21334,-0.56 0.0533,-0.453334 -0.08,-0.24 q -0.0267,-0.08 -0.18667,-0.506666 l -0.18667,0.106666 -0.34666,0.426667 -0.32,0.293333 -0.64,0.8 -0.0533,0.293334 -0.45333,0.48 -0.18667,0.373333 -0.18666,0.213333 q -0.08,0.586667 -0.58667,0.826667 l -0.0267,0.373333 q -0.16,0.16 -0.34666,0.426667 -0.16,0.266667 -0.24,0.32 -0.0533,0.02667 -0.21334,0.16 l -0.32,0.453333 q 0,0.453334 -0.34666,0.64 v 0.16 q -0.16,0.213334 -0.42667,0.426667 l -0.0267,-0.05333 -0.08,0.373333 q -0.21333,0 -0.4,0.506667 l -0.08,0.106666 q -0.0267,0.426667 -0.45333,0.64 l -0.37333,0.346667 q -0.42667,0.213333 -0.56,0.213333 -0.69334,0 -0.90667,-1.146666 l -0.10667,-0.586667 q -0.0267,-0.05333 -0.0267,-0.16 0,-0.186667 0.08,-0.373333 l -0.13334,-0.506667 0.0533,-0.426667 -0.0533,-0.426666 q 0.0533,-0.56 0.18667,-0.693334 -0.08,-0.56 -0.08,-0.64 v -0.48 q 0.10667,-0.186666 0.26667,-0.48 l -0.16,-0.16 q -0.0533,-0.213333 -0.0533,-0.24 0,-0.186666 0.32,-0.64 l -0.18666,-0.506666 0.10666,-0.32 -0.16,-0.773334 0.0533,-0.373333 -0.13334,-0.586667 0.0267,-0.4 -0.24,-0.48 q 0.53333,-1.04 1.14667,-1.04 0.32,0 0.61333,0.266667 l 0.0533,0.266667 q 0.45334,0.24 0.45334,0.72 0,-0.08 -0.08,0.56 l -0.10667,-0.02667 0.24,0.453333 -0.16,0.213334 -0.0267,0.106666 0.16,1.226667 -0.0533,1.04 -0.08,0.186667 0.10667,0.426666 q 0.08,0.106667 0.08,0.266667 0,0.213333 -0.21334,0.426667 0,0.373333 -0.13333,0.613333 l 0.08,0.8 v 0.32 l 0.0267,-0.05333 0.16,-0.24 0.37333,-0.666667 h 0.08 q 0.16,0 0.34667,-0.506667 l 0.18666,-0.506666 q 0.0533,-0.16 0.4,-0.506667 l 0.10667,-0.48 0.32,-0.48 0.10667,-0.373333 q 0.13333,-0.08 0.26666,-0.186667 l 0.0267,-0.08 q 0.08,-0.106667 0.58667,-0.56 l 0.16,-0.08 0.0533,-0.266667 0.13333,-0.08 q 0.13334,-0.56 0.66667,-0.746666 l -0.10667,-0.08 0.10667,-0.05333 q -0.0267,-0.02667 -0.0267,-0.08 0,-0.05333 0.0533,-0.16 l 0.42666,-0.186666 0.08,-0.426667 h 0.29334 q 0,-0.02667 0.0533,-0.186667 l 0.53333,-0.426666 q 0.37334,-0.106667 0.50667,-0.106667 0.32,0 0.88,0.186667 l 0.26667,0.373333 0.10666,0.05333 0.13334,0.32 0.37333,0.506667 v 0.346667 l 0.24,0.266666 v 0.4 q 0.29333,0.64 0.29333,1.093334 l -0.08,0.32 0.16,0.453333 -0.29333,0.293333 0.10667,0.586667 -0.0267,0.16 -0.0267,0.133333 q -0.0533,0.266667 -0.0533,0.4 0,0.133334 0.13333,0.533334 l -0.08,0.293333 0.08,0.373333 -0.08,0.08 q 0.0533,0.373334 0.16,1.253334 l -0.0267,0.106666 0.85333,-0.933333 0.26667,-0.506667 q 0.10666,-0.16 0.34666,-0.506666 v -0.05333 q 0.10667,-0.426666 0.34667,-0.586666 0,-0.16 0.26667,-0.4 l 0.21333,-0.133334 q 0.10667,-0.453333 0.56,-0.746666 l 0.13333,-0.373334 0.24,-0.32 0.26667,-0.266666 q 0.24,-0.186667 0.37333,-0.586667 l 0.21334,-0.32 0.10666,-0.4 0.29334,-0.16 0.29333,-0.373333 0.29333,-0.64 q -0.10666,0 -0.10666,-0.05333 0,0 0.0533,-0.106666 l 0.18667,-0.16 0.21333,-0.426667 q 0.45333,-0.16 0.50667,-0.16 0,0 0.10666,0.05333 l 0.48,0.02667 0.42667,0.186667 0.37333,0.426666 0.08,0.373334 -0.0267,0.293333 -0.13334,0.106667 -0.29333,0.56 -0.10667,0.613333 q 0.13334,0.133333 0.13334,0.48 -0.10667,0.133333 -0.10667,0.346667 l -0.10667,0.213333 q 0.0533,0.133333 0.0533,0.426667 0,0.24 -0.0267,0.346666 l -0.10667,0.133334 0.10667,0.186666 -0.18667,0.24 q 0.16,0 0.16,0.346667 0.0533,0.16 0.0533,0.213333 0,0.08 -0.0533,0.186667 0.0533,0.266667 0.0533,0.506667 v 0.05333 q 0,0.05333 0.34666,1.093333 l 0.0533,0.266667 0.29333,0.32 0.16,0.373333 0.16,0.08 0.10667,0.16 0.13333,0.02667 0.24,0.05333 0.13333,-0.02667 h 0.08 q 0.26667,0 0.64,-0.213334 0.10667,-0.266666 0.56,-0.56 0.0267,-0.133333 0.32,-0.506666 l 0.45334,-0.32 0.16,-0.32 q 0.21333,-0.133334 0.45333,-0.133334 0.29333,0 0.64,0.16 0.16,0.266667 0.16,0.8 z"
       id="path49" />
    <path
       d="m 265.05047,54.515005 -0.32,0.8 0.21333,0.533334 -0.10666,0.16 -0.10667,0.426666 -0.21333,0.373334 -0.10667,0.05333 -0.0533,0.506667 -0.48,0.05333 q -0.37334,0.346667 -0.77334,0.56 l -0.16,-0.02667 -0.4,0.133334 -0.24,0.02667 -0.50666,0.186667 -0.58667,-0.266667 -0.08,-0.05333 -0.45333,0.02667 0.10666,0.05333 -0.74666,-0.106667 -0.66667,0.16 -0.26667,-0.24 -0.56,0.05333 -0.21333,-0.16 q -0.0267,0 -0.21333,0.02667 v 0.16 q 0,0.24 -0.08,0.48 l 0.08,0.506667 -0.21334,0.266666 q 0.0533,0.586667 0.0533,0.88 l -0.08,0.666667 0.10666,1.013333 -0.21333,0.266667 0.10667,0.4 -0.08,0.266667 0.16,0.08 v 0.4 q 0.0533,0.16 0.0533,0.24 0,0.24 -0.29333,0.4 l 0.10666,0.373333 -0.13333,0.213333 -0.0533,1.066667 q -0.08,1.866667 -0.82667,1.866667 -0.16,0 -0.93333,-0.213334 l 0.08,-0.8 -0.16,-1.173333 0.26666,-0.48 0.0267,-0.586667 -0.10667,-0.8 0.21334,-0.346666 -0.24,-0.613334 0.18666,-0.32 -0.16,-0.533333 0.21334,-0.48 q -0.0533,-0.16 -0.21334,-0.293333 -0.13333,-0.133334 -0.13333,-0.186667 0,-0.08 0.18667,-0.16 -0.0267,-0.08 -0.0267,-0.266667 0,-0.346666 0.16,-0.906666 l -0.16,-0.266667 0.08,-0.346667 -0.18667,-0.24 0.24,-0.293333 -0.10666,-0.773333 0.16,-1.093333 -0.18667,-0.346667 0.29333,-0.506667 -0.32,-0.293333 0.18667,-0.506667 -0.18667,-0.133333 0.0267,-0.453333 0.16,-0.56 v -0.106667 l 0.0267,-0.106667 v -0.293333 l 0.0267,-0.106667 -0.13333,-0.426666 0.13333,-0.453334 -0.13333,-0.346666 0.10667,-0.4 -0.10667,-0.106667 0.08,-0.533333 -0.08,-0.293334 0.0533,-0.266666 -0.08,-0.186667 -0.96,0.426667 v -0.16 l -0.18666,0.02667 -0.29334,0.266667 h -0.24 l -0.32,0.426667 -0.26666,-0.106667 -0.13334,0.266667 q -1.30666,-0.773334 -1.30666,-1.226667 0,-0.32 0.24,-0.533333 l -0.0267,-0.4 q 0.74667,-0.426667 1.41333,-0.453334 l 0.18667,-0.186666 0.85333,-0.346667 0.18667,-0.186667 0.74667,0.05333 0.13333,-0.05333 0.24,-0.933333 0.64,0.133333 0.42667,0.693334 0.24,-0.24 0.48,0.346666 q 0.34666,0 0.66666,0.133334 l 0.13334,0.24 0.18666,-0.08 0.21334,0.16 q 0.18666,0 0.29333,0.02667 l -0.0267,0.16 0.58667,-0.186666 0.29333,0.32 0.50667,0.16 0.34667,0.426666 0.64,0.4 0.0267,0.05333 0.50667,0.16 v 0.16 q 0.21333,0.16 0.32,0.426666 l 0.21333,0.133334 0.16,0.293333 h 0.32 v 0.533333 l 0.18667,0.186667 0.0533,0.186667 0.26667,0.05333 q 0.0533,0.613333 0.34667,1.04 v 0.186667 l 0.26666,0.266666 -0.0533,0.426667 0.21333,0.48 0.08,0.56 z m -2,0.4 -0.0267,-0.133333 0.0267,-0.106667 -0.16,-0.48 0.10667,-0.24 -0.10667,-0.213333 -0.0267,-0.266667 -0.21333,-0.426666 -0.10667,-0.293334 -0.4,-0.693333 -0.32,-0.266667 -0.18666,-0.453333 -0.24,-0.106667 -0.42667,-0.56 -0.42667,0.05333 -0.32,-0.426667 -0.26666,0.05333 -0.18667,-0.346666 -0.10667,-0.02667 h -0.37333 l -0.26667,0.133333 -0.21333,-0.213333 -0.26667,0.05333 -0.10666,-0.186666 -0.48,-0.08 0.0267,0.32 -0.0533,0.506666 0.10667,0.293334 0.37333,0.346666 -0.29333,0.64 0.0267,0.4 -0.13333,0.8 q 0.08,0.506667 0.32,0.853334 l -0.10667,0.293333 q 0.0267,0.02667 0.0267,0.05333 0,0.08 -0.21333,0.24 l 0.18666,0.24 -0.13333,0.32 -0.0533,0.346667 0.08,0.373333 -0.0267,0.346667 h 0.56 q 0.10667,-0.05333 0.29333,-0.05333 0.24,0 0.42667,0.16 0.0267,0 0.10667,-0.02667 0.0533,0 0.08,0 0.08,0 0.29333,0.05333 0.16,-0.08 0.29333,-0.08 0.21334,0 0.4,0.106667 h 0.24 l 0.21334,0.05333 0.53333,-0.16 0.42667,0.266667 q 0.24,0.08 0.18666,0.08 l 0.50667,-0.506667 0.0533,-0.373333 0.13334,-0.05333 -0.08,-0.213334 0.18666,-0.213333 z"
       id="path51" />
    <path
       d="m 277.18376,56.275005 -0.32,0.373334 -0.29333,0.693333 -0.21334,0.16 -0.18666,0.373333 -0.53334,0.05333 -0.34666,0.346666 h -0.53334 l -0.32,0.266667 -0.29333,-0.08 -0.34667,0.08 v 0.213333 l -0.98666,-0.08 -0.42667,0.02667 -0.32,0.16 -0.26667,-0.16 q 0.26667,-0.02667 0.42667,-0.02667 -0.21333,0.02667 -1.28,0.106667 l -0.08,-0.02667 -0.21333,-0.02667 -0.34667,0.186667 q -0.16,-0.106667 -0.58667,-0.24 -0.58666,-0.05333 -0.77333,-0.05333 h -0.21333 q -0.18667,-0.02667 -0.4,-0.02667 -0.21334,0 -0.42667,0.106667 l -0.37333,-0.24 -0.21334,-0.05333 q -0.08,0 -0.29333,-0.08 -0.98667,-0.106666 -0.98667,-1.653333 v -0.24 l 0.50667,-0.373333 0.64,-0.24 0.48,0.24 h 0.37333 v 0.08 q 0.26667,0.106667 0.42667,0.426667 l 0.21333,0.02667 v 0.346667 l 0.34667,0.08 0.08,0.05333 3.41333,-0.213333 0.82667,-0.133333 h 0.08 l 0.0533,-0.133334 0.37334,-0.05333 0.0533,-0.08 q 0.56,-0.08 1.04,-0.32 l 0.0267,-0.133333 q -0.0267,-0.02667 -0.10667,-0.186667 l -0.13333,0.02667 -0.34667,-0.266667 h -0.24 l -0.13333,-0.186667 0.08,-0.106666 -0.29334,0.05333 -0.21333,-0.24 q -0.08,0.02667 -0.26667,0.02667 -0.34666,0 -0.69333,-0.133334 h -0.24 l -0.18667,-0.08 -0.37333,0.133334 -0.21333,-0.24 h -0.08 l -0.37334,-0.293334 -0.82666,-0.32 -0.26667,-0.213333 -1.01333,-0.186667 -0.10667,-0.186666 -0.74667,-0.48 -0.4,-0.88 -0.32,-0.453334 -0.10666,-1.386666 0.10666,-0.16 q 0.0533,-0.613334 0.42667,-1.066667 0.4,-0.213333 0.4,-0.613333 l 0.4,-0.08 q 0.10667,-0.213334 0.42667,-0.4 l 0.4,-0.32 1.68,-0.64 0.29333,-0.08 0.53333,-0.05333 0.88,-0.24 1.68,0.106667 0.0533,0.133333 q 0.24,0.08 0.53333,0.426667 v 0.133333 l 0.42667,0.266667 -0.18667,0.64 -0.0533,0.24 q -0.16,0.666667 -0.74667,0.666667 -0.48,0 -0.72,-0.453334 v -0.08 l -0.32,-0.02667 -0.37333,0.106666 -0.34667,-0.24 -0.18667,0.133334 q -0.34666,0 -0.64,0.213333 -0.4,0 -0.77333,0.32 h -0.34667 l -0.24,0.186667 -0.37333,0.08 -0.0533,0.05333 -0.16,0.08 -0.24,0.24 -0.08,0.02667 -0.24,0.373333 -0.29334,0.16 q -0.10666,0.346667 -0.13333,0.586667 0.0267,0.373333 0.08,0.506666 0.08,0.106667 0.37333,0.24 v 0.133334 l 0.34667,0.186666 q 0.42667,0.16 0.64,0.346667 h 0.53333 l 0.34667,0.293333 0.61333,0.08 0.24,0.16 1.04,0.293334 0.13334,0.293333 0.10666,-0.186667 q 0.34667,0 0.93334,0.32 l 0.48,0.08 0.0533,0.186667 h 0.42667 l 0.74666,0.426667 q 0.13334,0.346666 0.58667,0.64 l 0.29333,0.186666 -0.08,0.32 q 0.18667,0.266667 0.18667,0.56 z"
       id="path53" />
    <path
       d="m 303.4237,51.421672 -0.26666,0.56 -0.10667,0.88 -0.26667,0.24 q -0.16,1.066667 -0.82666,1.36 l -0.18667,0.08 -1.6,1.12 -0.48,0.266667 -0.77333,0.853333 -0.48,-0.08 -0.29334,0.213333 -0.53333,0.186667 -1.33333,0.693333 q -0.16,-0.05333 -0.42667,-0.24 -0.18667,0.266667 -0.58667,0.346667 h -0.10666 l -0.53334,0.426666 -0.10666,-0.05333 h -0.50667 l -0.24,0.186667 -1.01333,-0.02667 -1.33334,0.213333 h -0.16 q -0.18666,0 -0.45333,0.05333 l -0.74667,-0.106667 -0.13333,-0.133333 -1.06667,-0.16 -0.45333,-0.213333 h -0.64 v -0.293334 l -0.50667,-0.533333 -0.66666,-0.293333 -0.29334,-0.826667 -0.0267,-0.613333 -0.16,-0.186667 -0.0267,-1.2 0.34667,-1.066667 -0.0533,-0.64 0.13334,-0.133333 v -0.506667 l 0.37333,-0.373333 v -0.266667 l 0.16,-0.293333 v -0.266667 l 0.10667,-0.133333 -0.13334,-0.293333 0.42667,-0.293334 0.50667,-1.066666 1.09333,-1.573334 0.26667,-0.133333 q 0.08,-0.133333 0.24,-0.346667 l 0.26666,-0.213333 v -0.426667 l 0.4,-0.08 q 0.4,-0.32 0.88,-0.48 l 0.13334,-0.16 q 0.24,-0.106666 1.38666,-0.266666 l 0.72,-0.106667 0.85334,0.106667 0.50666,-0.02667 h 0.72 l 0.16,0.02667 0.08,0.02667 h 0.13334 l 0.16,-0.05333 0.85333,0.02667 -0.0533,0.16 0.4,0.106666 q 0.16,-0.05333 0.16,-0.213333 0.13333,0.24 0.58666,0.24 l 0.21334,0.213333 h 0.8 l 1.78666,0.773334 0.21334,0.586666 0.16,0.24 0.48,0.186667 0.72,1.173333 0.42666,0.533334 q 0.72,1.68 0.72,2 z m -2,0.16 -0.13333,-0.746667 0.13333,-0.213333 -0.18666,-0.453333 q 0.0267,-0.05333 0.0267,-0.16 0,-0.08 -0.0533,-0.133334 l -0.48,-0.32 -0.16,-0.426666 -0.21333,-0.08 -0.08,-0.373334 -0.66667,-0.613333 -0.4,-0.32 -0.16,0.08 q -0.61333,-0.56 -2.26667,-0.933333 -0.21333,0 -0.26666,-0.02667 l -0.13334,0.08 -0.48,-0.133333 -0.26666,0.133333 q -0.4,-0.133333 -0.48,-0.133333 -0.0267,0 -0.21334,0.05333 -0.16,0.05333 -0.29333,0.05333 -0.13333,0 -0.21333,-0.02667 -0.18667,0.346666 -0.88,0.613333 l -0.34667,-0.05333 -0.37333,0.186666 -0.48,-0.05333 q -0.48,0.373333 -1.12,0.773333 l -0.13334,0.186667 -0.13333,0.586667 -0.61333,0.266666 -0.10667,0.133334 q -0.16,0.32 -0.42667,0.586666 v 0.453334 l -0.37333,0.16 -0.08,0.05333 -0.24,0.8 -0.37333,0.213333 q -0.08,1.36 -0.45334,1.893334 -0.21333,0.293333 -0.24,0.8 l -0.10666,0.293333 0.08,0.186667 0.08,0.4 0.32,0.346666 0.0533,0.346667 0.26667,0.266667 q 0.74666,0.426666 1.33333,0.453333 l 1.12,-0.293333 0.24,0.24 h 0.32 l 0.0533,-0.05333 0.8,-0.133333 0.85334,0.133333 q 0.21333,-0.213333 0.50666,-0.213333 0.61334,-0.373333 1.04,-0.373333 l 0.56,-0.32 0.42667,-0.02667 0.34667,-0.266667 0.82666,-0.02667 q 0.10667,-0.02667 0.24,-0.02667 l 0.0533,-0.08 q 0.18666,-0.266667 0.56,-0.346667 l 0.32,-0.746666 0.21333,0.133333 0.21333,-0.106667 0.37334,-0.346666 0.13333,0.05333 0.45333,-0.32 0.8,-0.8 0.34667,-0.106667 0.16,-0.4 0.21333,-0.133333 -0.0533,-0.24 z"
       id="path55" />
    <path
       d="m 317.82368,46.088339 -0.26667,0.453333 0.08,0.506667 -0.4,0.24 -0.10667,0.56 -0.24,0.186666 -0.08,0.586667 h -0.08 q -0.08,0.373333 -0.45333,0.586667 l -0.24,0.853333 -0.24,0.373333 q 0.0267,0.16 0.0267,0.346667 l -0.42667,0.373333 -0.61333,1.413334 -0.50667,0.826666 v 0.266667 q 0,0.373333 -0.42667,0.64 l -0.0533,0.48 -0.18667,0.106667 -0.32,0.426666 -0.08,0.293334 -0.18666,0.133333 q 0,0.08 0.0533,0.346667 l -0.29333,0.24 -0.48,0.293333 -0.16,0.266667 -0.53334,0.56 q -0.82666,1.439999 -1.73333,1.439999 -0.72,0 -1.30667,-0.746666 l 0.08,0.186666 -0.93333,-1.359999 -0.0533,-0.32 -0.16,-0.106667 -0.0267,-0.64 -0.29333,-0.293333 v -0.666667 l -0.69334,-1.546667 0.0533,-0.266666 -0.21334,-0.373334 -0.0533,-0.293333 -0.13333,-0.186667 -0.18667,-0.48 -0.48,-0.373333 -0.21333,-0.88 -0.37334,-0.32 -0.21333,-0.346667 q -0.66667,-0.213333 -0.66667,-1.093333 0,-0.746667 1.14667,-1.2 1.46667,0.986667 1.73333,1.973333 l 0.08,0.613334 q 0.10667,-0.05333 0.37334,-0.106667 v 0.24 l 0.42666,0.32 -0.16,0.426667 0.0533,0.32 0.24,0.64 0.13333,0.133333 0.0267,0.24 0.21333,0.106667 v 0.453333 l 0.29333,1.04 0.0533,0.4 0.42666,0.853333 0.34667,1.04 0.26667,0.266667 h 0.0533 q 0.10667,0 0.18667,-0.213333 l 0.21333,-0.08 -0.08,-0.213334 q 0.08,-0.16 0.18667,-0.16 0.10666,0 0.21333,0.08 0.18667,-0.533333 0.26667,-0.533333 0.0267,0 0.0267,0.08 0.10667,-0.32 0.50667,-0.533333 l 0.34667,-0.506667 0.21333,-0.533333 0.26667,-0.213334 0.16,-0.346666 0.10666,-0.08 -0.0533,-0.346667 0.29333,-0.133333 0.0533,-0.133334 q 0,-0.106666 0.13333,-0.293333 l 0.18667,-0.48 0.13333,0.16 0.10667,-0.05333 v -0.08 q 0,-0.346667 0.29333,-0.586667 v -0.05333 l 0.18667,-0.346667 0.13333,-0.586667 0.18667,-0.05333 0.34666,-0.826667 0.24,-0.32 q 0.08,-0.4 0.37334,-0.613333 l 0.24,-0.746667 0.18666,-0.24 v -0.56 h 0.13334 q 0.32,-0.213333 0.53333,-0.64 0.21333,-0.453333 0.32,-0.533333 l 0.13333,-0.08 0.74667,-0.453333 z"
       id="path57" />
    <path
       d="m 326.89033,56.275005 q 0,0.32 -0.48,0.8 -0.13333,0.426667 -0.4,0.693334 l -0.16,0.02667 -0.29333,0.506667 -0.48,0.08 -0.50667,0.32 -0.26666,0.48 -0.29334,-0.05333 q -0.29333,0.133334 -0.48,0.16 l -0.16,0.24 q -0.08,-0.02667 -0.24,-0.02667 -0.34666,0 -0.66666,0.48 l -0.37334,-0.32 q -0.10666,0.02667 -0.32,0.02667 -0.34666,0 -0.58666,-0.106666 h -0.45334 L 320.517,59.448338 q -1.01333,-0.16 -1.28,-0.773333 v -0.08 l -0.32,-0.16 -0.16,-0.453333 -0.32,-0.213333 v -0.4 l -0.32,-1.173334 0.0533,-0.96 0.10667,-0.426666 v -0.56 l 0.13333,-0.426667 -0.0267,-0.186667 0.18666,-0.32 -0.0533,0.05333 q 0,-0.24 0.13333,-0.506667 v -0.133333 l -0.08,-0.64 q 0,-0.453334 0.4,-0.8 0.0267,-0.05333 0.0267,-0.16 0,-0.106667 -0.10667,-0.426667 -0.08,-0.346667 -0.08,-0.48 0,-0.32 0.16,-0.666667 0.21334,0.32 0.61334,0.32 h 0.08 q 0.0533,-0.106666 0.24,-0.24 0.21333,-0.666666 0.58666,-1.12 l 0.10667,-0.106666 q 0,-0.106667 0.16,-0.613334 h 0.21333 l 0.0533,-0.133333 0.21333,-0.05333 q 0.13333,-0.213334 0.16,-0.24 0.0533,-0.05333 0.58667,-0.346667 0.10666,-0.186667 0.32,-0.346667 0.10666,-0.05333 0.26666,-0.106666 l 0.10667,-0.16 q 0.72,-0.24 0.90667,-0.24 0.21333,0 0.4,0.106666 l 0.13333,-0.02667 0.18667,0.106666 q 0.32,0.24 0.64,0.4 l 0.45333,0.346667 v 0.106667 q 0.61333,0.48 0.61333,1.36 l -0.08,0.266666 0.08,0.88 -0.24,0.16 -0.26666,0.693334 -0.50667,0.56 -0.0267,0.426666 q -0.85333,0.613334 -1.57333,0.986667 -0.24,0.373333 -0.74667,0.373333 h -0.08 l -0.50666,0.32 H 321.637 l -0.64,0.266667 -0.48,-0.24 h -0.0533 q -0.0533,0.213333 -0.10667,0.64 l -0.21333,0.16 -0.0267,0.32 -0.16,0.453333 q 0.08,0.64 0.08,0.826667 l -0.10667,0.08 q 0,0.346667 -0.0267,0.506667 0,0.02667 -0.0267,0.08 0,0.05333 0,0.08 0,0.213333 0.21333,0.346666 0.08,0.32 0.26667,0.4 l 0.18667,0.16 0.58666,0.16 v 0.08 l 0.21334,0.05333 0.90666,0.05333 0.53334,-0.08 0.26666,-0.186667 0.16,-0.05333 0.26667,-0.4 0.13333,-0.02667 0.66667,-0.213333 q 0.10667,-0.186667 0.34667,-0.32 l 0.08,-0.133333 q 0.53333,-0.106667 0.61333,-0.56 0.37333,-0.373334 0.96,-0.373334 h 0.10667 q 0.50666,0.586667 0.50666,0.96 z m -2.64,-7.68 q 0,-0.08 -0.08,-0.32 l -0.13333,-0.02667 -0.0533,0.02667 q -0.0267,0 -0.10667,0 -0.0533,0.02667 -0.10667,0.02667 -0.0267,0 -0.08,-0.02667 -0.0533,0 -0.08,0 l -0.26666,0.186667 -0.24,0.02667 -0.13334,0.05333 -0.45333,0.586667 -0.29333,0.213333 -0.42667,0.746667 -0.24,0.16 q -0.08,0.453333 -0.37333,0.773333 l -0.10667,0.186667 q 0.29333,-0.186667 0.66667,-0.186667 l 0.18666,-0.08 0.08,-0.24 0.37334,0.02667 0.21333,-0.32 h 0.16 l 0.29333,0.106666 0.13334,-0.4 h 0.18666 v -0.293333 l 0.34667,-0.08 0.08,-0.08 0.0533,-0.24 0.34667,-0.506667 q 0.0533,-0.133333 0.0533,-0.32 z"
       id="path59" />
    <path
       d="m 338.67697,48.541672 -0.21334,0.88 -0.98666,0.133333 -0.53334,0.346667 -0.34666,-0.16 -0.37334,0.213333 -0.4,0.16 -0.26666,0.186667 v 0.106667 l -0.56,0.266666 -0.37334,0.48 h -0.18666 q -0.42667,0.453334 -0.61334,0.56 l -0.37333,0.613334 -0.13333,0.05333 q -0.08,0.213333 -0.18667,0.64 l -0.37333,0.133333 -0.16,0.32 -0.21334,0.266667 -0.0533,0.4 -0.21333,0.08 v 0.4 l -0.08,0.08 q 0.08,0.133333 0.18666,0.293333 l -0.4,0.16 -0.0533,0.346667 -0.26667,0.453333 0.16,0.346667 -0.34666,0.48 q 0.0533,0.266667 0.0533,0.373333 0,0.02667 0,0.106667 -0.0267,0.08 -0.0267,0.133333 l 0.0533,0.24 0.45333,0.48 -0.34667,0.613333 -0.32,0.24 -0.74666,0.373334 -0.98667,-0.4 v -0.613334 l -0.10667,-0.239999 0.08,-0.4 q -0.0533,-0.426667 -0.0533,-0.64 0,-0.08 0.0267,-0.213334 0,-0.133333 0,-0.186666 l -0.0267,-0.266667 q -0.18667,-0.186667 -0.18667,-0.426667 0,-0.213333 0.18667,-0.48 0,-0.133333 -0.0533,-0.8 l 0.08,-0.08 -0.08,-0.346666 0.0533,-0.32 -0.0533,-0.186667 0.08,-0.613333 -0.16,-0.266667 0.10666,-0.293333 -0.10666,-0.346667 q 0.0267,-0.16 0.0267,-0.426667 0,-0.4 -0.10666,-0.533333 l 0.10666,-0.16 -0.10666,-0.48 -0.24,-0.346667 0.13333,-0.426666 -0.10667,-0.16 -0.10666,-0.64 v -0.213334 q -0.13334,-0.16 -0.13334,-0.4 0,-0.533333 1.17334,-0.906666 l 0.66666,0.133333 0.13334,0.506667 0.26666,0.346666 -0.08,0.72 q 0.08,0.533334 0.18667,1.173334 l 0.08,0.426666 q 0.0267,0.05333 0.0533,0.293334 0,0.16 -0.13333,0.346666 l 0.08,0.533334 -0.0533,0.586666 -0.10667,0.266667 0.08,0.106667 0.0533,0.266666 q 0.16,-0.186666 0.18667,-0.4 l 0.10667,-0.4 q 0.08,-0.16 0.24,-0.24 l 0.10666,-0.4 0.37334,-0.213333 0.0533,-0.32 0.29333,-0.32 0.21334,-0.4 q 0.34666,-0.373333 0.66666,-0.48 l 0.0533,-0.08 0.24,-0.373333 0.26666,-0.05333 0.08,-0.08 0.10667,-0.16 0.29333,-0.16 0.16,-0.186666 0.16,0.02667 0.21334,-0.106666 0.10666,-0.16 0.32,-0.16 0.45334,-0.293334 0.64,-0.213333 q 0.37333,-0.05333 0.4,-0.05333 0,0.02667 0,0.02667 -0.0267,0 -0.0267,0.02667 h 0.0267 q 0.10666,0 0.32,-0.106667 0.13333,-0.106666 0.37333,-0.106666 0.10667,0 0.37333,0.05333 0.69334,0.02667 0.77334,0.64 z"
       id="path61" />
    <path
       d="m 178.27737,78.808341 -0.66667,1.253334 -0.61333,0.08 h -0.82667 l -0.45333,0.08 -0.34667,-0.08 -1.68,0.133333 -0.48,-0.106667 -0.10667,0.02667 q -0.26666,0.106667 -0.90666,0.213333 h -0.96 l -0.21334,-0.08 h -0.08 q -0.26666,0 -0.77333,0.133334 -0.4,0.106666 -0.98667,0.106666 l -0.42666,-0.106666 -0.08,0.32 h -0.32 l -0.08,1.253333 0.13333,0.213333 -0.0533,0.4 v 0.693334 q 0,1.093333 -0.21334,1.466666 l 0.21334,0.293334 -0.16,0.773333 0.16,0.213333 -0.29334,0.426667 v 0.213333 l -0.16,0.293333 0.10667,0.586667 -0.08,1.12 -0.16,0.506667 q 0.0267,0.02667 0.0267,0.133333 0,-0.05333 -0.08,0.346667 0,0.02667 0.0267,0.106666 0,0.08 0,0.133334 0,0.293333 -0.18666,0.56 l 0.08,0.373333 q 0,0.186667 -0.0267,0.24 l -0.0267,0.08 q -0.0533,0.16 -0.0533,0.32 0,0.506667 0.10667,0.853333 -0.58667,0.106667 -0.66667,0.106667 -0.24,0 -0.4,-0.05333 l -0.0533,-0.02667 q -0.69334,-0.16 -0.69334,-1.28 0.0267,-0.133333 0.0267,-0.373333 0,-0.213334 -0.0533,-0.586667 -0.0533,-0.4 -0.0533,-0.586667 0,-0.266666 0.08,-0.453333 l 0.10667,-1.093333 q -0.21333,-0.293334 -0.21333,-0.48 0,-0.05333 0.0533,-0.213334 -0.10667,-0.213333 -0.10667,-0.32 0,-0.213333 0.13334,-0.346666 0,-0.24 0.21333,-0.666667 -0.0533,-0.213333 -0.0533,-0.453333 0.18666,0 0.18666,-0.186667 0,-0.05333 -0.0533,-0.16 -0.0533,-0.133333 -0.0533,-0.266666 l 0.08,0.106666 -0.10667,-0.24 q 0,-0.506666 0.13333,-0.88 v -0.773333 l -0.13333,-0.56 0.13333,-1.04 -0.13333,-0.773333 0.0533,-0.266667 -0.4,0.02667 -0.29333,0.16 -0.21333,-0.02667 v 0.106667 q -0.56,0 -1.09334,-0.08 l -0.08,0.213333 -1.04,-0.346667 -1.38666,-0.02667 -0.88,0.24 q -1.06667,-0.906667 -1.06667,-1.306667 0,-0.24 0.08,-0.48 v 0.08 l 0.58667,-0.506667 0.50666,0.02667 1.78667,0.32 0.45333,-0.133333 1.36,0.02667 1.06667,0.133334 0.69333,-0.266667 0.24,-0.693333 1.06667,0.266666 0.0533,-0.05333 0.0533,0.08 0.37333,0.453333 0.10667,0.02667 0.37333,-0.133333 0.77333,0.186666 q 1.14667,-0.213333 1.36,-0.213333 0.32,0 0.66667,0.133333 0.08,0 0.32,0.02667 0.37333,-0.05333 0.48,-0.05333 h 0.18667 l 0.90666,-0.106667 0.77334,0.133333 0.10666,0.05333 0.4,-0.133334 0.56,0.133334 1.33334,-0.05333 0.58666,0.08 z"
       id="path63" />
    <path
       d="m 188.33069,91.528341 q 0,1.066667 -1.14667,1.066667 -0.56,0 -0.82667,-0.453334 -0.26666,-0.373333 -0.45333,-1.413333 v -0.373333 q 0.08,-0.133334 0.08,-0.266667 0,-0.05333 -0.0267,-0.133333 l -0.37333,-0.56 0.26667,-0.506667 -0.10667,-0.56 0.10667,-0.32 v -0.346667 l 0.0533,-0.32 -0.10667,-0.48 0.10667,-0.24 v -0.879999 l 0.0267,-1.146667 -0.18667,-0.88 0.10667,-0.32 -0.18667,-0.666667 -0.21333,0.186667 -0.58667,0.24 -0.8,1.013333 -0.32,-0.02667 -0.48,0.773333 -0.08,0.32 -0.29333,0.133333 -0.29334,0.453334 -0.13333,0.293333 -0.29333,0.933333 -0.48,0.586667 -0.10667,0.373333 -0.26667,0.213333 -0.10666,0.64 -0.53334,0.48 -0.08,0.986667 h -0.24 l -0.08,0.16 -0.48,0.826667 -0.45333,0.48 -0.4,0.533333 -0.42667,-0.133333 h -0.34666 l -0.32,-0.426667 -0.29334,-0.96 -0.0533,-1.413333 -0.08,-0.453334 0.08,-0.533333 -0.0533,-1.253333 0.21333,-0.05333 0.13333,-1.839999 0.10667,-0.346667 -0.08,-0.56 0.13333,-0.08 0.10667,-0.853333 0.10667,-0.293334 -0.10667,-0.373333 0.08,-0.133333 -0.0533,-0.08 0.08,-0.746667 -0.21334,-0.186667 0.18667,-0.373333 -0.0267,-0.773333 -0.29333,-0.773334 0.21333,-0.24 -0.18666,-0.72 v -0.426666 l -0.08,-0.186667 -0.13334,-0.853333 -0.13333,-0.4 -0.4,-0.773334 0.29333,-0.373333 0.26667,-0.453333 h 0.24 q 0.58667,0 0.88,0.426666 l 0.37333,0.293334 0.16,0.48 0.4,0.346666 -0.08,0.373334 0.18667,0.56 -0.0267,0.05333 0.0533,0.05333 -0.0267,0.88 0.0267,1.173334 0.18666,0.746666 -0.13333,0.32 0.0533,0.453334 -0.13333,0.373333 0.08,0.64 -0.13333,0.533333 0.0533,0.106667 -0.0533,1.626667 0.08,0.373333 -0.16,0.186667 -0.08,0.88 -0.10667,0.399999 0.10667,0.72 -0.10667,0.213334 -0.0267,0.533333 q 0.29334,-0.08 0.29334,-0.32 l 0.21333,-0.213333 0.18667,-0.346667 0.0533,-0.506667 0.29333,-0.426666 0.16,-0.533333 0.4,-0.426667 0.10667,-0.506667 0.26667,-0.02667 v -0.24 l 0.0267,-0.32 0.32,-0.186667 v -0.213333 l 0.26667,-0.05333 0.0533,-0.426666 -0.0267,-0.213334 0.48,-0.213333 0.13333,-0.106667 -0.0533,-0.266666 0.24,-0.08 0.18666,-0.453334 h 0.32 l 0.29334,-0.186666 q 0,-0.186667 0.0267,-0.266667 l 0.29334,-0.133333 q 0.48,-0.4 0.90666,-0.48 v -0.05333 q 0.69334,-0.346666 0.96,-0.346666 0.4,0 0.72,0.373333 0.29334,0.106667 0.37334,0.4 l 0.24,0.16 0.08,0.373333 0.4,0.613334 v 2.133333 l -0.0267,0.933333 0.10667,0.24 v 1.973333 l -0.08,0.346667 v 0.533333 l 0.08,0.586667 -0.10667,0.506667 q 0.10667,0.4 0.13333,0.666666 l 0.29334,0.293334 v 0.213333 l 0.10666,0.08 q 0.13334,0.453333 0.13334,0.64 z"
       id="path65" />
    <path
       d="m 199.63733,89.608341 q 0,0.32 -0.48,0.8 -0.13333,0.426667 -0.4,0.693333 l -0.16,0.02667 -0.29333,0.506667 -0.48,0.08 -0.50667,0.32 -0.26667,0.48 -0.29333,-0.05333 q -0.29333,0.133334 -0.48,0.16 l -0.16,0.24 q -0.08,-0.02667 -0.24,-0.02667 -0.34667,0 -0.66667,0.48 l -0.37333,-0.32 q -0.10667,0.02667 -0.32,0.02667 -0.34667,0 -0.58667,-0.106666 h -0.45333 L 193.264,92.781674 q -1.01334,-0.16 -1.28,-0.773333 v -0.08 l -0.32,-0.16 -0.16,-0.453333 -0.32,-0.213334 v -0.4 l -0.32,-1.173333 0.0533,-0.96 0.10667,-0.426667 v -0.56 l 0.13333,-0.426666 -0.0267,-0.186667 0.18667,-0.32 -0.0533,0.05333 q 0,-0.24 0.13333,-0.506666 v -0.133333 l -0.08,-0.64 q 0,-0.453334 0.4,-0.8 0.0267,-0.05333 0.0267,-0.16 0,-0.106667 -0.10667,-0.426667 -0.08,-0.346667 -0.08,-0.48 0,-0.32 0.16,-0.666667 0.21333,0.32 0.61333,0.32 h 0.08 q 0.0533,-0.106666 0.24,-0.24 0.21334,-0.666666 0.58667,-1.12 l 0.10667,-0.106666 q 0,-0.106667 0.16,-0.613334 h 0.21333 l 0.0533,-0.133333 0.21334,-0.05333 q 0.13333,-0.213334 0.16,-0.24 0.0533,-0.05333 0.58666,-0.346667 0.10667,-0.186667 0.32,-0.346667 0.10667,-0.05333 0.26667,-0.106666 l 0.10667,-0.16 q 0.72,-0.24 0.90666,-0.24 0.21334,0 0.4,0.106666 l 0.13334,-0.02667 0.18666,0.106666 q 0.32,0.24 0.64,0.4 l 0.45334,0.346667 v 0.106667 q 0.61333,0.48 0.61333,1.36 l -0.08,0.266666 0.08,0.88 -0.24,0.16 -0.26667,0.693334 -0.50666,0.56 -0.0267,0.426666 q -0.85333,0.613334 -1.57333,0.986667 -0.24,0.373333 -0.74667,0.373333 h -0.08 l -0.50667,0.32 H 194.384 l -0.64,0.266667 -0.48,-0.24 h -0.0533 q -0.0533,0.213333 -0.10666,0.64 l -0.21334,0.16 -0.0267,0.32 -0.16,0.453333 q 0.08,0.64 0.08,0.826667 l -0.10667,0.08 q 0,0.346666 -0.0267,0.506666 0,0.02667 -0.0267,0.08 0,0.05333 0,0.08 0,0.213334 0.21333,0.346667 0.08,0.32 0.26667,0.4 l 0.18666,0.16 0.58667,0.16 v 0.08 l 0.21333,0.05333 0.90667,0.05333 0.53333,-0.08 0.26667,-0.186667 0.16,-0.05333 0.26667,-0.4 0.13333,-0.02667 0.66667,-0.213333 q 0.10666,-0.186667 0.34666,-0.32 l 0.08,-0.133334 q 0.53334,-0.106666 0.61334,-0.56 0.37333,-0.373333 0.96,-0.373333 h 0.10666 q 0.50667,0.586667 0.50667,0.96 z m -2.64,-7.68 q 0,-0.08 -0.08,-0.32 l -0.13333,-0.02667 -0.0533,0.02667 q -0.0267,0 -0.10666,0 -0.0533,0.02667 -0.10667,0.02667 -0.0267,0 -0.08,-0.02667 -0.0533,0 -0.08,0 l -0.26667,0.186667 -0.24,0.02667 -0.13333,0.05333 -0.45333,0.586667 -0.29334,0.213333 -0.42666,0.746667 -0.24,0.16 q -0.08,0.453333 -0.37334,0.773333 l -0.10666,0.186667 q 0.29333,-0.186667 0.66666,-0.186667 l 0.18667,-0.08 0.08,-0.24 0.37333,0.02667 0.21334,-0.32 h 0.16 l 0.29333,0.106666 0.13333,-0.4 h 0.18667 v -0.293333 l 0.34667,-0.08 0.08,-0.08 0.0533,-0.24 0.34667,-0.506667 q 0.0533,-0.133333 0.0533,-0.32 z"
       id="path67" />
    <path
       d="m 224.67727,89.288341 q 0,0.693333 -0.93333,0.746667 -0.29333,0.213333 -0.61333,0.213333 l -0.98667,0.133333 h -0.48 l -0.37333,0.266667 -0.61334,0.02667 -0.24,0.186666 -1.30666,0.05333 -0.74667,0.346666 h -0.13333 q -0.18667,0 -0.26667,0.02667 l -0.13333,0.133333 q -0.26667,0.133334 -0.50667,0.133334 -0.16,0 -0.42667,-0.106667 l -0.58666,0.133333 -0.61334,0.02667 -0.64,0.186667 h -1.57333 l -0.88,-0.213334 -0.72,0.05333 -0.24,-0.213334 -0.50667,-0.02667 q -1.17333,-0.88 -1.62666,-1.84 -0.18667,-0.64 -0.4,-1.28 l -0.21334,-0.506667 0.26667,-0.906667 -0.16,-1.093333 0.24,-0.16 0.0533,-1.013333 0.18667,-0.533333 0.13333,-0.8 v -1.653334 l 0.24,-0.426666 0.0533,-0.213334 -0.0533,-0.96 0.21334,-0.213333 -0.24,-0.186667 0.32,-0.96 0.08,-0.02667 -0.16,-0.426667 0.58666,-0.24 q 0.4,-0.346667 0.66667,-0.4 l 0.69333,0.106667 0.61334,1.28 -0.37334,0.293333 q 0.13334,0.186667 0.13334,0.426667 l -0.29334,0.8 v 0.906666 l -0.29333,0.826667 -0.08,0.773333 -0.4,1.6 v 0.213334 q 0,0.293333 -0.08,0.506666 l -0.0533,0.373334 -0.0533,0.48 0.0533,0.826666 -0.08,0.213333 0.21333,1.173334 0.37333,0.826666 v 0.08 l 0.98667,0.586667 1.44,0.133333 0.42667,-0.02667 1.01333,-0.16 h 0.72 l 0.18667,-0.133334 1.46666,-0.05333 0.32,-0.186667 1.06667,-0.02667 0.48,-0.16 1.73333,-0.08 0.72,-0.186667 q 0.26667,0.02667 0.64,0.02667 l 0.26667,-0.213334 q 0.34667,-0.133333 0.64,-0.133333 0.85333,0 0.85333,0.64 z"
       id="path69" />
    <path
       d="m 235.69058,80.995008 -0.26666,0.346667 0.21333,0.64 -0.34667,0.4 -0.13333,0.56 -0.08,0.133333 0.0533,0.133333 q 0,0.373334 -0.18666,0.56 l -0.0533,0.08 v 0.106667 q 0.08,0.186667 0.08,0.346667 0,0.133333 -0.0267,0.186666 l 0.0267,0.106667 -0.10666,0.293333 0.08,0.32 -0.21334,0.213334 0.08,0.373333 0.16,0.186667 -0.24,0.213333 v 0.426666 l -0.18666,0.426667 0.13333,0.426667 -0.16,0.213333 0.26667,0.186667 -0.37334,0.613333 -0.0267,0.08 0.26666,0.05333 -0.18666,0.613334 v 0.106666 q 0,0.186667 -0.0267,0.293334 l 0.0267,0.08 0.42666,0.05333 0.34667,0.533333 -0.18667,0.4 0.29334,-0.02667 q 0.16,0.32 0.18666,0.56 l -0.4,0.4 q -0.18666,0.186666 -0.53333,0.373333 l -0.45333,0.24 -0.13334,-0.133333 -0.26666,0.16 -0.82667,-0.96 v -0.453334 q -0.16,-0.533333 -0.16,-0.986666 v -0.16 l -0.16,-1.573334 0.21333,-1.12 -0.16,-0.639999 -0.45333,0.746666 -0.24,0.693333 -0.21333,0.106667 -0.37334,0.586667 -0.66666,0.613333 -0.18667,0.32 -0.58667,0.506667 -0.13333,0.346666 -0.85333,0.533334 -0.90667,1.013333 -0.50667,0.106667 -0.34666,0.266666 q -0.66667,-0.02667 -1.01334,-0.506666 -1.2,-0.586667 -1.25333,-1.68 l 0.13333,-0.08 -0.0267,-0.16 -0.0267,-0.32 -0.16,-0.346667 0.16,-0.373333 0.0533,-0.56 0.18667,-0.88 q 0,-0.02667 0,-0.106667 -0.0267,-0.05333 -0.0267,-0.106667 0,-0.106666 0.0533,-0.266666 -0.0267,-0.05333 -0.0267,-0.213334 0,-0.186666 0.16,-0.613333 l 0.18667,-0.08 q -0.16,-0.133333 -0.16,-0.293333 0,-0.106667 0.0267,-0.16 -0.0267,-0.08 -0.0267,-0.186667 0,-0.32 0.32,-0.48 0.08,-0.266666 0.29333,-0.533333 l -0.13333,-0.213333 0.32,-0.4 v -0.106667 q 0,-0.506667 0.34666,-0.933333 l -0.0267,-0.48 0.10666,-0.106667 q 0,-0.02667 0,-0.08 -0.0267,-0.05333 -0.0267,-0.08 0,-0.16 0.10666,-0.266667 v -0.16 q 0.10667,-0.266666 0.56,-0.8 0.45334,-0.533333 0.66667,-0.933333 l 0.13333,0.133333 0.29334,-0.133333 0.13333,-0.05333 0.88,-0.4 2.05333,0.106666 v 0.186667 l 0.64,0.133333 q 0.61334,0 0.8,0.4 0,-0.08 0.0267,-0.186666 0,-0.08 0,-0.106667 l 0.56,0.506667 0.50667,0.106666 0.96,-0.24 0.34666,0.666667 z m -2.53333,1.386667 -0.10667,-0.186667 -0.21333,-0.05333 -0.82667,-0.666667 -0.53333,-0.08 h -0.42667 l -0.0533,-0.05333 -0.21333,0.08 -0.24,-0.133334 h -0.69334 l 0.08,0.106667 -0.61333,0.213333 -0.10667,0.133334 -0.08,0.02667 q -0.48,0.4 -0.66666,0.666667 l -0.18667,0.64 -0.10667,0.24 0.26667,0.373333 -0.45333,0.346667 0.0533,0.106667 q -0.29333,0.506666 -0.29333,0.986666 l -0.21334,0.266667 v 0.48 l -0.21333,0.24 -0.0533,0.24 -0.08,0.05333 v 0.373333 l -0.08,0.133334 q 0,0.32 -0.0533,0.506666 l 0.0533,0.133334 -0.24,0.506666 0.10666,0.16 -0.18666,0.266667 0.18666,0.506667 -0.29333,0.373333 0.0533,0.506667 v 0.08 l 0.10667,0.05333 0.13333,-0.02667 q 0.13334,-0.133333 0.26667,-0.24 l -0.0533,-0.213333 0.37333,-0.05333 0.08,-0.186667 1.57333,-1.28 0.16,-0.05333 0.18667,-0.453334 q 0.16,-0.05333 0.45333,-0.213333 l 0.16,-0.426667 h 0.21334 l -0.08,-0.453333 0.37333,-0.05333 q 0.0533,-0.106667 0.16,-0.266667 0.13333,-0.16 0.26667,-0.293333 l 1.36,-1.813333 0.21333,-0.4 -0.0267,-0.106667 0.18667,-0.293333 0.0533,-0.293334 0.24,-0.213333 z"
       id="path71" />
    <path
       d="m 251.53057,89.901674 q 0,0.346667 -0.16,0.506667 l -0.53333,0.666667 -0.16,0.426666 -0.45334,0.133334 -0.13333,0.24 -0.69333,0.16 h -0.53334 l -1.04,-0.133334 -0.4,0.16 -0.50666,-0.16 -0.72,0.133334 -0.18667,-0.213334 -0.21333,0.05333 q -0.26667,0.05333 -0.61334,0.05333 l -0.50666,-0.08 -0.88,-0.05333 -0.66667,0.05333 q -0.48,-0.186667 -0.77333,-0.186667 -0.21334,0 -0.85334,0.213334 l -0.58666,-0.213334 q -0.08,0.02667 -0.29334,0.02667 -0.24,0 -0.34666,-0.106667 l -0.42667,0.453334 -0.4,0.106666 q -0.21333,0.133334 -0.42667,0.24 -0.18666,0.106667 -0.32,0.16 l -0.61333,-0.293333 -0.26667,-0.453333 0.0267,-0.56 0.18667,-0.346667 0.34666,-0.266667 0.16,-0.266666 0.4,-0.346667 0.29334,-0.08 0.16,-0.133333 0.32,-0.293334 0.0267,-0.05333 0.0533,-0.08 0.0533,-0.05333 q 0.0267,-0.02667 0.0267,-0.05333 0.0267,-0.02667 0.08,-0.08 l 0.16,-0.08 0.8,-0.64 0.08,-0.133333 q 0.45333,-0.453333 0.69333,-0.48 l 0.13333,-0.186667 0.0533,-0.16 0.32,-0.32 0.18666,-0.293333 0.34667,-0.05333 0.18667,-0.373334 q 0.18666,-0.05333 0.21333,-0.213333 0.26667,-0.32 0.56,-0.4 l 0.0267,-0.133333 0.4,-0.24 0.42666,-0.56 0.18667,-0.106667 q -0.13333,0 -0.21333,0.02667 l 0.88,-0.666667 0.16,-0.32 0.32,-0.213333 0.42666,-0.666667 0.4,-0.266666 0.08,-0.16 h -0.48 l -0.34666,0.106666 -0.48,-0.08 -0.42667,0.133334 -0.26667,-0.133334 -0.77333,0.266667 q -0.32,-0.106667 -0.77333,-0.106667 -0.34667,0 -0.69334,0.08 l -0.29333,-0.133333 -0.56,0.08 -0.21333,-0.08 -0.48,0.133333 -0.90667,-0.186666 -0.69333,0.05333 -0.4,-0.133333 -0.74667,-0.133334 -0.53333,0.133334 -0.4,-0.346667 -0.24,-0.88 0.42666,-0.586667 0.29334,0.05333 0.18666,-0.08 0.50667,-0.05333 0.4,0.133334 h 0.4 l 0.29333,0.186666 h 0.69334 l 0.34666,0.106667 0.48,-0.106667 0.37334,0.106667 q 0.16,-0.05333 0.34666,-0.05333 0.16,0 0.32,0.05333 l -0.0267,-0.05333 0.45333,0.05333 h 1.2 l 1.57333,-0.08 0.16,0.05333 0.26667,-0.106666 h 0.56 l 0.96,-0.213334 0.48,-0.08 0.4,0.05333 0.56,-0.186667 0.45333,0.02667 q 0.18667,-0.02667 0.32,-0.02667 0.13334,-0.02667 0.21334,-0.02667 0.90666,0 0.98666,1.226667 l -0.48,0.266667 -0.26666,0.266666 -0.4,0.133334 -0.85334,0.773333 -0.18666,0.05333 -0.56,0.693334 q -0.45334,0.133333 -0.77334,0.48 l -0.10666,0.346666 -0.42667,0.373334 -0.50667,0.72 -0.32,0.133333 -1.12,1.306666 -0.4,0.16 -0.32,0.426667 -0.16,0.05333 q -0.13333,0.133334 -0.29333,0.293334 -0.13333,0.16 -0.32,0.293333 l -0.24,0.4 -0.58667,0.453333 -0.48,0.56 -0.34666,0.293334 -0.0267,0.08 0.90667,-0.106667 0.26666,-0.106667 0.66667,-0.05333 0.26667,0.133333 1.36,-0.106666 1.28,0.213333 q 0.26666,-0.05333 0.32,-0.05333 0.16,0 0.32,0.08 l 0.37333,-0.213334 0.56,0.213334 0.4,-0.106667 0.53333,0.08 h 0.21334 q 0.10666,-0.106667 0.4,-0.186667 0.18666,-0.24 0.34666,-0.293333 l 0.10667,-0.213333 0.0533,-0.05333 v -0.186666 l 0.4,-0.613334 0.74667,0.08 q 0.48,0.64 0.48,1.12 z"
       id="path73" />
    <path
       d="m 267.5839,86.755008 q -0.08,0.293333 -0.24,0.666666 l 0.0267,0.16 0.18667,0.96 -0.18667,1.013334 0.08,0.48 -0.16,0.346666 0.10667,1.173334 -0.10667,0.186666 v 0.773334 l -0.0267,0.613333 0.08,0.266667 -0.0533,1.68 0.21334,0.48 -0.16,0.213333 0.08,0.453333 -0.13334,0.133334 0.13334,0.453333 -0.24,0.266667 v 0.186666 l -0.10667,0.24 q -0.08,0.453334 -0.58667,1.306667 l -0.18666,0.666667 q -0.21334,0.106666 -0.26667,0.16 l -0.08,0.08 -0.24,0.320002 -0.26667,0.4 -0.45333,0.24 q -0.32,0.58666 -0.74667,0.66666 -0.13333,0.13334 -0.18666,0.16 l -0.08,0.08 -0.37334,0.16 -0.21333,0.21334 h -0.26667 l -0.13333,0.21333 -0.48,-0.10667 -0.50667,0.32 -0.48,-0.10666 -0.88,0.13333 -0.18666,-0.0267 -0.13334,0.0533 -0.88,-0.16 h -0.4 l -0.16,-0.16 -1.06666,-0.34667 -0.90667,-0.13333 -0.13333,-0.24 -0.48,-0.0533 -0.16,-0.45333 -0.32,-0.08 -0.21334,-0.4 -0.50666,-0.18667 -0.42667,-0.613329 -0.77333,-0.48 0.0533,-0.506667 q -0.0533,-0.02667 -0.24,-1.04 0,-0.426666 0.18667,-1.04 v -0.24 l 0.26666,-0.133333 0.16,-0.453333 0.10667,0.05333 0.26667,-0.426667 0.48,-0.373333 0.37333,-0.106667 0.72,-0.586666 0.69333,0.05333 q 0.26667,-0.266667 0.69334,-0.266667 0.61333,0.293334 0.61333,0.72 0,0.266667 -0.24,0.533334 l -0.37333,0.186666 -0.4,0.293334 -0.4,0.106666 -0.24,0.453334 h -0.4 l -0.16,0.266666 -0.34667,0.293334 0.0267,0.4 -0.21334,0.373333 0.10667,0.266667 0.18667,0.426666 0.58666,0.373334 0.13334,0.4 0.72,0.56 0.4,0.02667 0.48,0.373336 h 0.48 l 0.29333,0.29333 0.37333,-0.0267 0.21334,0.16 1.28,-0.0533 0.82666,-0.26667 0.50667,0.0267 0.56,-0.319999 q 0.21333,-0.08 0.37333,-0.08 0.0533,-0.02667 0.18667,-0.106667 l 0.13333,-0.213333 0.26667,0.08 0.10667,-0.106667 v -0.213333 q 0.0267,-0.16 0.34666,-0.266667 0.10667,-0.266666 0.42667,-0.453333 0.08,-0.133333 0.13333,-0.586667 l 0.37334,-0.213333 0.08,-0.186667 q 0.10666,-0.213333 0.21333,-0.453333 l 0.0267,-0.08 0.08,-1.04 0.10666,-0.08 v -0.426667 l -0.10666,-0.4 0.16,-0.32 q -0.0533,-0.533333 -0.0533,-0.72 0,-0.24 0.0267,-0.56 0.0267,-0.293333 0.0267,-0.346666 v -1.36 l -0.18667,-0.346667 0.18667,-0.56 -0.0533,-0.533333 v -1.36 l -0.08,-0.346667 0.10667,-0.186667 v -0.346666 q 0,-0.186667 0.0267,-0.24 l -0.21334,-0.613334 v -0.933333 l -0.29333,0.48 -0.32,0.24 -0.32,0.32 -0.21333,0.08 -0.08,0.32 -0.24,0.133333 -0.0267,0.08 -0.37333,0.32 -0.50667,0.613334 -0.72,0.746666 -0.26667,0.08 -0.08,0.133334 -0.8,0.586666 h -0.24 l -0.26666,0.266667 -0.10667,0.266667 -0.58667,0.186666 -0.10666,0.186667 -0.4,0.05333 -0.56,0.373334 -0.45334,0.106666 -0.21333,0.16 -0.29333,0.05333 -0.08,0.05333 q -0.34667,0.373333 -1.09334,0.373333 -0.8,0 -1.25333,-0.506666 l -0.58667,-0.88 -0.0267,-0.506667 -0.32,-0.96 v -0.8 l -0.10667,-0.32 0.16,-0.266667 -0.13333,-0.586666 0.18666,-0.16 0.0267,-0.266667 0.16,-0.32 -0.0533,-0.56 0.10666,-0.213333 v -0.186667 q 0,-0.56 0.18667,-1.306666 l -0.08,-0.72 0.08,-0.666667 -0.24,-0.96 0.0533,-0.186667 -0.10666,-0.16 0.32,-0.853333 q 0.10666,-0.426667 0.10666,-0.853333 0.32,-0.16 0.64,-0.16 0.24,0 0.48,0.08 l 0.24,0.533333 0.45334,0.32 q -0.08,0.4 -0.13334,0.64 l 0.24,0.4 -0.10666,0.266667 0.34666,0.293333 -0.32,0.586667 0.16,0.693333 -0.18666,0.293333 0.0267,0.05333 -0.16,1.146666 v 1.04 l -0.16,0.16 -0.10666,0.933333 -0.24,0.293334 q 0,0.133333 0.0267,0.346666 0,0.186667 0,0.266667 l 0.18667,0.48 -0.18667,0.346667 0.0533,0.426666 -0.0533,0.106667 q 0.0533,0.32 0.0533,0.32 l 0.24,0.213333 0.18666,-0.05333 0.0267,0.16 0.18667,-0.266667 h 0.77333 q 0.16,-0.16 0.4,-0.266666 0.61333,-0.426667 1.09333,-0.48 l 0.0267,-0.346667 q 0.74667,-0.4 1.89333,-1.04 l 0.10667,-0.213333 q -0.08,0.05333 -0.13333,0.08 0.08,-0.05333 0.37333,-0.24 l 0.10667,-0.346667 0.18666,-0.293333 0.37334,-0.133334 0.21333,-0.32 0.13333,0.02667 0.16,-0.106667 0.32,-0.346666 0.13334,-0.02667 0.0267,-0.08 0.48,-0.506666 0.29334,-0.48 q 0.29333,-0.08 0.50666,-0.373334 l 0.37334,-0.773333 -0.0533,-0.826667 0.26667,-0.106666 v -0.08 l -0.16,-0.48 0.0267,-0.106667 q -0.18667,-0.293333 -0.18667,-0.453333 0,-0.293334 0.32,-0.72 v 0.08 l 0.10667,-0.266667 0.0267,-0.106667 v 0.08 q 0.21334,-0.533333 1.06667,-0.56 l 0.85333,0.826667 0.08,0.693333 0.26667,0.453334 -0.16,0.426666 0.0267,0.186667 v 0.133333 q -0.0533,0.08 -0.13334,0.24 l 0.08,0.16 v 0.426667 l -0.10666,0.426667 0.10666,0.586666 v 0.426667 l 0.08,0.186667 -0.0533,0.506666 z"
       id="path75" />
    <path
       d="m 293.42385,86.461674 q 0,0.02667 0,0.08 -0.0267,0.05333 -0.0267,0.08 l -0.10666,0.266667 -0.08,0.4 -0.53334,0.72 -0.18666,0.4 -0.56,0.24 -0.18667,0.24 -0.74667,0.213333 -0.48,0.266667 h -0.24 l -0.16,0.24 h -0.69333 q -0.32,0.4 -0.98667,0.4 -0.10666,-0.106667 -0.13333,-0.106667 -0.0533,0 -0.34667,0.186667 l -0.45333,-0.05333 -0.18667,0.08 -0.50666,-0.05333 0.13333,0.08 q -0.64,0.16 -0.93333,0.16 -0.13334,0 -0.18667,-0.02667 -0.77333,0.24 -1.25333,0.24 -0.0267,0 -0.13334,-0.02667 -0.08,0 -0.13333,0 l -0.4,0.106667 -0.34667,-0.133334 -0.18666,0.08 -0.34667,0.346667 -0.48,-0.106667 q -0.08,-0.02667 -0.29333,-0.106666 l -0.0533,0.02667 -0.32,0.08 -0.0533,0.533334 -0.16,0.426666 -0.82667,0.96 -0.34666,-0.32 h -0.56 l 0.13333,-0.933333 v -0.32 l -0.18667,-0.133333 q -0.10666,0.05333 -0.37333,0.213333 h -0.72 l -0.50667,-0.346667 -0.21333,-0.613333 0.37333,-0.346667 q 0.45334,-0.426666 1.25334,-0.613333 l -0.0267,-0.05333 q -0.0533,-0.16 -0.0533,-0.266667 0,-0.186667 0.10666,-0.373333 l -0.08,-1.226667 0.13334,-0.32 v -0.56 l 0.13333,-0.293333 -0.32,-0.533333 0.37333,-0.746667 -0.13333,-1.6 0.0533,-0.613333 v -0.4 l -0.24,-0.586667 v -0.826667 l -0.16,-0.373333 -0.16,-0.08 -0.58666,0.266667 -1.01334,0.08 q -0.48,0 -0.69333,-0.906667 l -0.18667,-0.826667 q 0.66667,-0.56 1.22667,-0.56 h 0.0533 q 0.77334,-0.213333 1.38667,-0.213333 0.08,0 0.24,0.08 0.16,0.05333 0.29333,0.05333 -0.0267,0 0.66667,-0.16 l 0.10667,0.293334 0.37333,-0.08 0.24,0.08 0.34667,-0.08 1.04,0.24 0.34666,0.213333 0.77334,-0.133333 0.29333,0.453333 0.16,0.02667 0.45333,0.293333 0.26667,0.02667 0.32,0.133333 h 0.10667 q 0.42666,0 0.74666,0.24 0.77334,0.213333 1.2,0.693333 0.21334,0.05333 0.37334,0.133334 0.34666,0.266666 0.72,0.293333 l 0.74666,0.533333 0.72,0.613334 -0.08,0.08 0.61334,-0.05333 0.26666,0.186667 0.08,0.4 q 0.72,0.586667 1.41334,1.44 0.0267,0.08 0.0533,0.186667 l 0.42667,0.24 v 0.666666 q 0,0 0.24,0.24 0,0.213334 0.0267,0.266667 l 0.08,0.05333 q 0.26667,0.32 0.26667,0.533333 z m -2.08,0.186667 -0.08,-0.506666 -0.82667,-1.04 h -0.26666 l -0.29334,-0.72 q -0.58666,-0.266667 -0.8,-0.426667 l -0.08,-0.32 -0.13333,-0.106667 -0.8,-0.24 -0.24,-0.426666 -1.89333,-1.04 q -0.0267,0 -0.13334,0 -0.08,0.02667 -0.13333,0.02667 -0.4,0 -0.72,-0.24 l -0.08,-0.213333 h -0.50667 l -0.13333,-0.106667 -0.34667,-0.08 q -0.08,0.02667 -0.21333,0.02667 -0.24,0 -0.29333,-0.106667 l -0.0267,-0.08 -0.32,-0.213333 -0.48,-0.02667 q -0.26667,-0.266666 -0.56,-0.266666 l -0.18667,0.426666 h -0.13333 l 0.29333,0.64 -0.16,0.213334 q 0.21334,0.506666 0.21334,0.64 v 0.133333 q 0,0.186667 -0.0533,0.32 l 0.24,0.693333 -0.24,0.08 0.0267,0.16 v 0.88 q 0,0.05333 -0.10667,0.586667 l 0.18667,0.16 -0.29333,0.8 0.08,0.586666 -0.24,0.506667 0.24,0.373333 -0.0533,0.533334 0.13334,0.32 -0.16,0.373333 0.0267,0.106667 0.26667,-0.02667 0.90667,-0.133333 q 0.32,-0.106667 0.69333,-0.106667 0.4,0 0.69333,0.106667 0.53334,0 1.2,-0.373334 1.28,-0.08 0.98667,-0.08 0.10667,0 0.24,0.02667 0.13333,0.02667 0.18667,0.02667 0.29333,0 0.4,-0.133334 l 0.42666,-0.106666 q 0.4,-0.266667 0.74667,-0.266667 0.13333,0 0.32,0.08 0.21333,-0.08 0.32,-0.08 l 0.29333,-0.4 0.42667,0.106667 0.18667,-0.08 0.37333,-0.266667 h 0.16 l 0.69333,-0.506667 z"
       id="path77" />
    <path
       d="m 304.67719,85.555008 -0.16,0.48 q 0,0.693333 -0.08,1.093333 l -0.16,0.266667 v 0.293333 l -0.13334,0.186667 -0.08,0.373333 -0.29333,0.293333 -0.18667,0.666667 -0.21333,0.08 -0.10667,0.293333 -0.32,0.186667 -0.21333,0.453333 -0.32,0.16 -0.0267,0.32 -0.50666,0.186667 q -0.34667,0.48 -0.85334,0.613333 l -0.10666,0.02667 q -0.37334,0.56 -0.98667,0.56 -0.26667,0.16 -0.61333,0.16 l -0.26667,0.186667 -0.26667,0.08 -0.34666,0.266666 -0.34667,-0.02667 -0.37333,0.106666 -0.45334,-0.186666 -1.14666,-0.08 -0.4,-0.613334 -0.58667,-0.613333 0.13333,-0.426667 -0.4,-0.906666 0.18667,-0.346667 -0.13333,-0.64 0.13333,-0.4 q -0.0533,-0.373333 -0.0533,-0.533333 0,-0.506667 0.26666,-0.746667 0.0267,-0.266667 0.34667,-0.88 h 0.13333 l -0.0533,-0.186666 0.08,-0.373334 v -0.4 q 0.21333,-0.24 0.24,-0.32 l -0.08,-0.373333 v -0.106667 q 0.18667,-0.373333 0.18667,-0.773333 l 0.56,-0.773333 q 0,0 0.0533,-0.05333 0.08,-0.05333 0.13333,-0.106666 l -0.0267,-0.106667 h 0.10666 l 0.4,-0.453333 0.0267,-0.613334 0.66667,-0.24 q 0.37333,-0.24 0.48,-0.8 h 0.34666 q 0.29334,-0.16 0.53334,-0.16 0.24,0 0.45333,0.106667 l 0.29333,0.02667 0.69334,-0.266667 0.37333,0.346667 0.29333,0.186666 h 0.21334 l 0.4,0.213334 h 0.21333 q 0.34667,0.32 0.8,0.88 l 0.0533,0.133333 0.18667,0.106667 0.56,0.72 0.50667,1.253333 v 0.266667 z m -1.76,0.64 -0.0267,-0.133333 q -0.18667,-0.186667 -0.21333,-0.4 l 0.08,-0.133334 -0.24,-0.506666 0.0533,-0.506667 -0.10667,-0.133333 q -0.34666,-0.266667 -0.37333,-0.426667 -0.24,-0.106667 -0.24,-0.533333 l -0.16,-0.02667 -0.32,-0.533333 -0.24,-0.186667 -0.56,-0.213333 -0.21333,-0.05333 q -0.16,0 -0.21334,-0.106666 l -0.53333,0.586666 -0.34667,0.746667 -0.56,0.293333 -0.08,0.293334 -0.26666,0.133333 -0.10667,0.693333 -0.32,0.16 q -0.10667,0.373334 -0.10667,0.693334 l -0.42666,0.4 0.13333,0.08 q 0,0.319999 -0.24,0.559999 -0.08,0.24 -0.21333,0.533334 v 0.213333 l -0.08,0.106667 0.0267,0.32 -0.29333,0.72 0.0533,0.133333 v 0.746667 l -0.10666,0.373333 0.0267,0.373333 0.24,0.346667 0.37334,0.133333 0.13333,0.05333 0.21333,-0.106667 0.69334,0.05333 0.10666,-0.266666 h 0.10667 q 0.16,0 0.18667,0.08 l 0.24,-0.08 0.21333,0.08 0.34667,-0.24 0.0533,-0.08 0.24,-0.05333 q 0.18667,-0.293333 0.88,-0.586666 l 0.0533,-0.133334 0.53334,-0.373333 0.29333,-0.426667 0.42667,-0.213333 0.0267,-0.133333 0.13334,-0.293334 v -0.346666 l 0.32,-0.266667 0.10666,-0.186667 0.13334,-0.16 q -0.10667,-0.32 -0.10667,-0.453333 0,-0.24 0.16,-0.506666 z"
       id="path79" />
    <path
       d="m 319.53047,88.488341 -0.21334,0.986667 0.0533,0.32 -0.0533,0.08 q 0.10667,0.24 0.10667,0.48 0,0.16 -0.08,0.32 v 0.05333 q 0,0.32 -0.24,2.613333 l -0.0533,0.506667 v 0.106667 l -0.0533,0.106666 -0.0267,0.106667 0.0267,0.16 -0.08,0.08 -0.08,0.16 h -0.10666 l 0.0267,0.133333 -0.0533,0.16 q 0,0.186667 -0.13333,0.373334 l -0.13334,0.426666 q -0.08,0.293334 -0.26666,0.533334 -0.18667,0.346666 -0.66667,0.933333 l -0.45333,0.346667 -0.50667,0.426666 -0.4,0.186667 -0.32,0.24 -0.21333,0.05333 q -0.53334,0.293334 -1.2,0.346667 l -0.16,-0.02667 -0.24,0.106667 v 0.05333 q -0.45334,0.106667 -0.77334,0.106667 h -1.04 l -0.64,-0.133333 -0.56,0.106666 -0.26666,-0.24 -0.8,-0.08 -0.53334,-0.48 -0.4,-0.213333 q -1.06666,-0.4 -1.22666,-1.413333 l 0.0533,-0.106667 -0.08,-0.426667 q 0.32,-0.506666 0.58667,-0.533333 0.21333,-0.133333 0.42666,-0.133333 0,0 0.48,0.08 0.50667,0.08 1.04,0.106666 l -0.0533,0.4 0.32,0.213334 v 0.32 l -0.21333,0.266666 1.22666,0.373334 0.61334,-0.133334 v 0.186667 l 0.18666,-0.05333 h 0.0533 q 0.0267,0 0.34666,0.05333 l 0.0267,0.106667 0.26667,-0.133334 q 0.32,-0.16 1.28,-0.16 0.16,-0.106666 0.26666,-0.213333 0.0267,0 0.13334,0.02667 0.10666,0 0.16,0 0.16,0 0.32,-0.32 0.0267,0.08 0.10666,0.08 0.0533,0 0.13334,-0.05333 0.08,-0.05333 0.10666,-0.05333 h 0.0533 l 0.85333,-0.746667 0.4,-0.613333 0.0267,-0.346667 0.29333,-0.373333 0.0267,-0.346667 0.16,-0.32 0.13333,-0.72 0.21333,-0.666666 q -0.0267,-0.16 -0.0267,-0.48 0,-0.586667 0.16,-1.173334 l -0.10667,-0.426666 v -1.306667 l -0.21333,-0.453333 v -0.746667 l -0.21334,-0.56 0.0267,-0.853333 -0.0267,-0.133333 -0.18666,0.05333 -0.16,0.4 -0.4,0.346666 -0.48,0.773334 -0.69334,0.48 -0.74666,0.773333 q -0.64,0.666667 -1.49334,1.173333 l -0.26666,0.32 -0.4,0.24 -0.37334,0.186667 -0.34666,0.346667 -0.42667,0.213333 q -0.21333,0.213333 -0.61333,0.293333 -0.58667,0.4 -1.33334,0.4 h -0.29333 q -0.13333,0.02667 -0.37333,0.02667 -0.21334,0 -0.32,-0.02667 l -0.48,-0.02667 -0.69334,-0.666667 -0.50666,-0.666667 -0.21334,-0.56 -0.18666,-1.066666 0.10666,-0.773334 0.26667,-0.906666 -0.0533,-0.293334 0.24,-0.826666 0.24,-0.48 q 0.10666,-0.346667 0.10666,-0.826667 l 0.58667,-1.093333 q 0.08,-0.213333 0.4,-0.453333 l 0.26667,-0.453334 0.32,-0.346666 q 0.10666,-0.346667 0.42666,-0.613334 0.21334,-0.106666 0.29334,-0.4 0.10666,-0.293333 1.01333,-0.533333 l -0.13333,0.02667 0.13333,-0.05333 q 0.08,-0.133333 0.37333,-0.533333 l 0.32,0.05333 0.24,-0.16 q 0.42667,-0.373333 0.90667,-0.373333 h 0.18667 l 0.69333,-0.266667 0.4,0.133334 h 0.48 l 0.29333,0.16 q 0.26667,0.02667 0.42667,0.24 l 0.37333,0.373333 0.10667,0.05333 0.0533,0.106667 0.24,0.373333 0.0267,0.133334 -0.08,0.426666 0.0533,0.293334 -0.34666,0.533333 -0.77334,0.106667 -0.4,-0.64 -0.37333,-0.133334 -0.18667,-0.186666 h -0.26666 q -0.13334,0.05333 -0.56,0.266666 l -0.0267,0.213334 h -0.66667 q -0.26666,0.4 -0.58666,0.426666 -0.16,0.106667 -0.32,0.186667 l -0.21334,0.506667 -0.18666,0.02667 -0.0267,0.24 h -0.37333 l -0.34667,0.56 -0.29333,0.186667 -0.10667,0.373333 -0.4,0.56 -0.0533,0.533334 -0.32,0.32 -0.29334,1.146666 -0.21333,0.213333 0.0267,0.293334 -0.32,1.013333 0.08,0.32 -0.0267,0.32 q 0.18667,0.266667 0.18667,0.56 l 0.18666,0.05333 0.08,0.16 q 0.45334,0 0.58667,0.106667 0.24,-0.186667 1.30667,-0.4 0.16,-0.373333 0.45333,-0.533333 0.29333,-0.186667 1.2,-0.666667 l 0.08,0.02667 q 0,-0.213334 0.16,-0.4 0.4,-0.16 0.48,-0.213334 0.21333,-0.133333 0.24,-0.346666 l 0.42667,-0.106667 0.26666,-0.24 0.66667,-0.906667 0.18667,0.106667 q 0.0267,-0.08 0.58666,-0.72 l 0.64,-0.746666 0.0533,-0.346667 q 0.32,-0.293333 0.74666,-1.706667 l -0.13333,-0.56 -0.21333,-0.373333 0.16,-0.4 -0.21334,-0.293333 -0.0533,-0.373334 -0.08,-0.266666 0.26667,-0.48 q 0.42666,-0.213334 0.61333,-0.213334 0.24,0 0.64,0.24 l 0.18667,0.346667 0.34666,0.266667 0.0533,0.586666 q 0.08,0.24 0.18666,0.72 0.13334,0.24 0.13334,0.56 v 0.186667 l 0.0533,0.16 0.29333,0.426667 -0.08,0.48 0.16,0.213333 q 0.08,0.186667 0.08,0.4 0,0.186667 -0.0267,0.293333 l 0.24,0.08 -0.18667,0.666667 0.10667,0.506667 q 0.13333,0.266666 0.13333,0.479999 0,0.213334 -0.13333,0.533334 l 0.16,0.133333 z"
       id="path81" />
  </g>
</svg>
