<?xml version="1.0" encoding="UTF-8" standalone="no"?>
<svg
   xmlns:dc="http://purl.org/dc/elements/1.1/"
   xmlns:cc="http://creativecommons.org/ns#"
   xmlns:rdf="http://www.w3.org/1999/02/22-rdf-syntax-ns#"
   xmlns:svg="http://www.w3.org/2000/svg"
   xmlns="http://www.w3.org/2000/svg"
   viewBox="159.583 7.6674 152.448 90.7162"
   version="1.1"
   id="svg2">
  <metadata
     id="metadata11">
    <rdf:RDF>
      <cc:Work
         rdf:about="">
        <dc:format>image/svg+xml</dc:format>
        <dc:type
           rdf:resource="http://purl.org/dc/dcmitype/StillImage" />
      </cc:Work>
    </rdf:RDF>
  </metadata>
  <defs
     id="defs9" />
  <g
     aria-label="The Quick BrownFox Jumps OverThe Lazy Dog"
     id="text4521"
     style="font-style:normal;font-variant:normal;font-weight:normal;font-stretch:normal;font-size:26.6667px;line-height:125%;font-family:'Brush Script MT', 'Brush Script Std', cursive;font-variant-ligatures:normal;font-variant-caps:normal;font-variant-numeric:normal;font-feature-settings:normal;text-align:left;letter-spacing:0px;word-spacing:0px;writing-mode:lr-tb;text-anchor:start;fill:#000000;fill-opacity:1;stroke:none;stroke-width:1px;stroke-linecap:butt;stroke-linejoin:miter;stroke-opacity:1">
    <path
       d="m 170.16872,22.53719 0.42969,0.325521 q -0.16927,0.364583 -0.32552,0.638021 -0.15625,0.273437 -0.37761,0.664062 -0.22135,0.390625 -0.33854,0.585938 -0.97656,1.705729 -1.83594,1.705729 -0.36458,0 -0.625,-0.286458 -0.26041,-0.286459 -0.26041,-0.78125 0,-0.703125 0.49479,-1.927084 0.50781,-1.223958 1.54948,-3.007812 1.05469,-1.796875 2.64323,-4.0625 1.58854,-2.265625 3.58073,-4.778646 -1.14584,-0.169271 -2.72136,-0.169271 -1.80989,0 -4.03646,0.403646 -2.21354,0.403646 -3.86718,0.9375 -1.64063,0.520834 -1.64063,0.768229 0,0.09115 0.0651,0.130209 0.0651,0.02604 0.20833,0.05208 0.15625,0.01302 0.39062,0.03906 1.52344,0.208333 1.52344,0.46875 0,0.130208 -0.66406,0.130208 -0.66406,-0.01302 -1.60156,-0.01302 -0.74219,0 -1.08073,-0.05208 -0.32552,-0.0651 -0.44271,-0.221354 -0.10417,-0.169271 -0.10417,-0.507813 0,-0.221354 0.13021,-0.963542 0.2474,-1.380208 0.75521,-2.213541 0.52083,-0.8333335 1.57552,-1.3541668 1.06771,-0.5338542 2.92969,-0.8463542 3.125,-0.5338541 5.16927,-0.5338541 1.51042,0 2.38281,0.1302083 0.8724,0.1171875 1.27604,0.3515625 0.41667,0.234375 0.52084,0.46875 0.11718,0.2213541 0.29948,0.78125 l 0.40364,1.1979163 q 0.0391,0.117188 0.0651,0.195313 0.026,0.0651 0.0391,0.143229 0.026,0.07813 0.026,0.143229 0,0.507813 -0.23438,0.911458 -0.22135,0.403646 -0.83333,1.210938 -0.59896,0.807292 -0.88542,1.263021 -3.35937,5.455729 -4.58333,8.072916 z"
       id="path13" />
    <path
       d="m 184.41351,21.026774 v 0.820312 q -1.13281,1.158854 -1.96614,1.901042 -0.82032,0.729166 -1.44532,1.10677 -0.61197,0.377605 -1.04166,0.377605 -1.01563,0 -1.01563,-1.197917 0,-0.963542 0.625,-2.226562 0.63802,-1.276042 1.82292,-2.994792 -0.58594,0.325521 -1.10677,0.755208 -0.52083,0.416667 -0.92448,0.885417 -0.40365,0.455729 -0.67708,0.78125 -0.84636,0.950521 -1.62761,1.953125 -0.78125,0.989583 -1.05469,1.289062 -0.27343,0.299479 -0.52083,0.299479 -1.01562,0 -1.01562,-2.499999 0,-0.820313 0.24739,-1.809896 0.2474,-0.989584 1.32813,-2.617188 2.27864,-3.411458 3.89323,-5.572916 1.6276,-2.174479 2.69531,-3.2812502 1.06771,-1.1197916 1.43229,-1.0937499 0.45573,0.039063 0.72917,0.1822916 0.28646,0.1432292 0.28646,0.3255209 0,0.3255208 -0.45573,1.0807291 -0.44271,0.7421875 -1.53646,2.3307295 -1.1849,1.679687 -1.67969,2.369791 -0.49479,0.677084 -1.48437,1.940104 -0.97657,1.25 -1.79688,2.239584 -0.80729,0.976562 -1.84896,2.122395 v 1.5625 q 1.74479,-1.940104 3.02084,-3.177083 1.27604,-1.236979 2.16145,-1.861979 0.88542,-0.638021 1.30209,-0.638021 0.39062,0 0.72916,0.46875 0.33855,0.455729 0.33855,0.755208 0,0.130209 -0.13021,0.325521 -0.9375,1.119792 -1.4974,1.861979 -0.54687,0.729167 -0.84635,1.315105 -0.29948,0.572916 -0.29948,0.989583 0,0.611979 0.58594,0.611979 0.625,0 2.77343,-1.679687 z"
       id="path15" />
    <path
       d="m 186.49685,21.495524 v 0.32552 q 0,0.76823 0.3776,1.197917 0.3776,0.429687 0.98958,0.429687 0.63802,0 1.31511,-0.299479 0.6901,-0.299479 1.36718,-0.79427 0.67709,-0.494792 1.65365,-1.328125 v 0.79427 q -1.47135,1.770834 -2.76042,2.721354 -1.28906,0.9375 -2.61718,0.9375 -1.15886,0 -1.83594,-0.898437 -0.67708,-0.898438 -0.67708,-2.460937 0,-1.367188 0.63802,-2.473959 0.63802,-1.119791 2.08333,-2.356771 0.98958,-0.846354 1.96615,-1.276041 0.97656,-0.429688 1.74479,-0.429688 0.61198,0 0.96354,0.286459 0.36458,0.273437 0.36458,0.833333 0,0.820312 -0.61198,1.640625 -0.61198,0.807292 -1.875,1.614583 -1.25,0.794271 -3.08593,1.536459 z m 0.1302,-0.846355 q 1.17188,-0.455729 2.00521,-1.132812 0.83334,-0.677083 1.22396,-1.289063 0.40365,-0.625 0.40365,-0.911458 0,-0.299479 -0.27344,-0.299479 -0.23438,0 -0.76823,0.299479 -0.52083,0.299479 -1.06771,0.78125 -0.53385,0.481771 -0.96354,1.132813 -0.42969,0.651041 -0.5599,1.41927 z"
       id="path17" />
    <path
       d="m 203.07236,16.039795 v -1.145834 q 0,-0.989583 0.32553,-1.627604 0.32552,-0.638021 1.28906,-1.263021 0.97656,-0.625 2.8776,-1.458333 2.10938,-0.9505208 3.47656,-1.3802083 1.38021,-0.4427084 2.83855,-0.4427084 1.66666,0 2.57812,0.78125 0.91146,0.7812497 0.91146,2.1874997 0,4.257813 -11.06771,10.260417 1.15886,0.182291 2.68229,0.494791 1.53646,0.3125 2.46094,0.45573 0.92448,0.143229 1.90104,0.143229 1.23698,0 2.39584,-0.338542 -0.8073,1.744792 -1.15886,2.356771 -0.33854,0.598958 -0.74219,0.872396 -0.40364,0.286458 -1.08073,0.286458 -1.43229,0 -2.57812,-0.182292 -1.14583,-0.169271 -3.02083,-0.546875 -1.86198,-0.377604 -2.89063,-0.533854 -1.02864,-0.169271 -2.04427,-0.130208 -0.36458,0.234375 -0.59896,0.364583 -0.22135,0.143229 -0.44271,0.234375 -0.22135,0.104167 -0.40364,0.104167 -0.53386,0 -0.53386,-0.585938 0,-0.520833 0.39063,-1.289062 0.39062,-0.78125 0.72917,-1.09375 0.3776,-0.364583 1.11979,-0.520833 0.75521,-0.15625 2.05729,-0.221355 2.79948,-1.601562 4.7526,-2.96875 1.96615,-1.367187 3.54167,-2.955729 0.9375,-0.9375 1.54948,-1.809895 0.625,-0.872396 0.89844,-1.458334 0.27343,-0.585937 0.27343,-0.833333 0,-0.533854 -0.88541,-0.533854 -1.27604,0 -2.72136,0.429687 -1.43229,0.429688 -3.00781,1.236979 -1.5625,0.807292 -3.54167,2.096355 0.88542,-0.07813 1.73177,-0.07813 0.98959,0 0.98959,0.364583 0,0.143229 -0.28646,0.234375 -0.27344,0.09115 -0.95052,0.221354 -0.39063,0.0651 -0.80729,0.234375 -0.40365,0.15625 -0.95052,0.416667 -0.54688,0.260416 -0.84636,0.377604 -0.28646,0.117187 -0.48177,0.117187 -0.72917,0 -0.72917,-0.872395 z"
       id="path19" />
    <path
       d="m 223.04632,20.141357 q -1.88802,2.5 -2.8776,3.554687 -0.97656,1.054688 -1.60156,1.054688 -0.4948,0 -0.91146,-0.403646 -0.41667,-0.416667 -0.65104,-1.106771 -0.22136,-0.703125 -0.22136,-1.497396 0,-0.520833 0.0911,-0.9375 0.10416,-0.416666 0.3776,-0.911458 0.27344,-0.507812 0.71615,-1.09375 0.45573,-0.585937 1.10677,-1.328125 0.39062,-0.455729 0.65104,-0.768229 0.27344,-0.3125 0.52083,-0.416667 0.26042,-0.117187 0.83334,-0.117187 0.41666,0 0.79427,0.117187 0.3776,0.104167 0.3776,0.221354 0,0.234375 -0.39062,0.846355 -0.37761,0.611979 -1.23698,1.497395 -0.84636,0.872396 -1.96615,1.71875 -0.24739,0.76823 -0.24739,1.171875 0,0.559896 0.42968,0.559896 0.15625,0 0.52084,-0.260416 0.36458,-0.273438 1.22396,-1.028646 0.87239,-0.768229 1.5625,-1.354167 0.50781,-0.442708 1.17187,-1.315104 0.67708,-0.885417 1.09375,-1.328125 0.96354,-1.015625 1.3151,-1.315104 0.35157,-0.3125 0.67709,-0.3125 0.3125,0 0.41666,0.195312 0.11719,0.195313 0.11719,0.794271 0,0.273438 -0.0521,0.442708 -0.0521,0.169271 -0.22136,0.442709 -0.15625,0.260416 -0.65104,0.976562 -0.49479,0.716146 -1.17187,1.692709 -0.36459,0.520833 -0.63802,1.145833 -0.27344,0.611979 -0.27344,0.924479 0,0.677083 0.53385,0.677083 0.44271,0 1.02865,-0.364583 0.58594,-0.364583 1.79687,-1.315104 v 0.872396 q -1.52343,1.40625 -2.2526,2.04427 -0.72917,0.638021 -1.26302,0.963542 -0.53385,0.325521 -1.01563,0.325521 -1.09375,0 -1.09375,-1.302083 0,-0.494792 0.32553,-1.328125 0.32552,-0.846354 1.05468,-2.434896 z"
       id="path21" />
    <path
       d="m 232.51247,15.206461 q -0.32552,0 -0.625,-0.247396 -0.28646,-0.247395 -0.28646,-0.625 0,-0.572916 0.54687,-1.276041 0.54688,-0.703125 1.13282,-0.703125 0.39062,0 0.65104,0.247396 0.26041,0.234375 0.26041,0.690104 0,0.559896 -0.53385,1.236979 -0.53385,0.677083 -1.14583,0.677083 z m 0.88541,5.820313 v 0.95052 q -1.26302,1.627604 -2.35677,2.460938 -1.09375,0.820312 -1.86198,0.820312 -1.06771,0 -1.58854,-1.119791 -0.52083,-1.119792 -0.52083,-2.447917 0,-0.507812 0.10416,-0.963542 0.10417,-0.46875 0.2474,-0.768229 0.14323,-0.299479 0.53385,-0.9375 1.84896,-2.877604 3.38542,-2.877604 0.79427,0 0.79427,0.611979 0,0.416667 -0.52083,1.302084 -0.50781,0.885416 -0.91146,1.26302 -1.13281,1.09375 -1.48437,1.523438 -0.33855,0.429687 -0.33855,0.976562 0,0.46875 0.35157,0.78125 0.35156,0.3125 0.91145,0.3125 0.61198,0 1.34115,-0.442708 0.74219,-0.455729 1.91406,-1.445312 z"
       id="path23" />
    <path
       d="m 241.11924,21.052815 v 0.872396 q -1.39323,1.367187 -2.27865,2.122396 -0.87239,0.755208 -1.64062,1.171875 -0.75521,0.416666 -1.48438,0.416666 -0.71614,0 -1.3151,-0.559895 -0.59896,-0.572917 -0.9375,-1.484375 -0.33854,-0.924479 -0.33854,-1.953125 0,-0.885417 0.39062,-1.575521 0.39063,-0.690104 1.51042,-1.783854 1.32812,-1.302084 2.46094,-2.005209 1.14583,-0.716145 1.79687,-0.716145 0.46875,0 0.79427,0.325521 0.32552,0.32552 0.32552,0.820312 0,0.416667 -0.42968,1.184896 -0.42969,0.768229 -0.96355,1.341146 -0.53385,0.559895 -0.84635,0.559895 -0.33854,0 -0.33854,-0.364583 0.013,-0.104167 0.013,-0.195312 0.013,-0.09115 0.013,-0.182292 0,-0.15625 -0.11719,-0.169271 -0.10416,-0.02604 -0.26041,0.09115 -1.30209,0.911458 -1.78386,1.289062 -0.48177,0.364584 -0.76823,0.742188 -0.27343,0.377604 -0.27343,0.794271 0,0.768229 0.49479,1.25 0.49479,0.48177 1.28906,0.48177 0.82031,0 1.96615,-0.624999 1.15885,-0.638021 2.72135,-1.848959 z"
       id="path25" />
    <path
       d="m 250.88487,21.026774 v 0.872395 q -1.45834,1.705729 -2.44792,2.591146 -0.98958,0.872396 -1.65365,0.872396 -0.63802,0 -1.15885,-0.377604 -0.50781,-0.377604 -0.92448,-1.041667 -0.40364,-0.664062 -0.96354,-1.848958 -0.66406,0.820312 -1.19792,1.536458 -0.53385,0.703125 -0.74218,0.9375 -0.20834,0.234375 -0.37761,0.234375 -0.35156,0 -0.50781,-0.442708 -0.15625,-0.455729 -0.15625,-1.315104 0,-1.171875 0.27344,-2.252604 0.28645,-1.09375 0.80729,-2.122396 0.53385,-1.028646 1.35416,-2.213542 0.83334,-1.197916 1.86198,-2.5 1.41927,-1.796875 2.44792,-2.929687 1.02865,-1.1458335 1.78385,-1.7187502 0.76823,-0.5859375 1.27605,-0.5859375 0.625,0 0.625,0.5598959 0,0.4817708 -2.30469,3.4765628 -2.30469,2.98177 -6.71875,8.151041 v 1.119792 q 2.95573,-3.164063 4.7526,-4.700521 1.8099,-1.536458 2.79948,-1.536458 0.40365,0 0.625,0.48177 0.22136,0.46875 0.22136,1.09375 0,1.276042 -1.09375,2.369792 -1.09375,1.080729 -3.35938,2.486979 0.39063,0.585938 0.69011,0.859375 0.29947,0.260417 0.7552,0.260417 0.40365,0 0.8724,-0.273438 0.46875,-0.273437 0.95052,-0.690104 0.49479,-0.416666 1.51042,-1.354166 z m -5.14323,0.664062 q 0.49479,-0.325521 1.22396,-1.002604 0.74218,-0.690104 1.26302,-1.419271 0.52083,-0.742187 0.52083,-1.236979 0,-0.208333 -0.18229,-0.208333 -0.49479,0 -1.70573,0.95052 -1.19792,0.950521 -2.34375,2.434896 0.49479,0 1.22396,0.481771 z"
       id="path27" />
    <path
       d="m 265.41612,16.326253 -0.66407,0.78125 q 1.15886,0.104166 2.07032,0.286458 0.91146,0.169271 1.67968,0.390625 0.78125,0.208333 1.36719,0.442708 2.05729,0.859375 2.05729,2.395834 0,0.9375 -0.85937,1.835937 -0.85938,0.898438 -2.23958,1.601563 -1.36719,0.703125 -2.82553,1.09375 -1.44531,0.403645 -2.6302,0.403645 -1.97917,0 -3.08594,-0.729166 -1.10677,-0.742188 -1.10677,-2.018229 0,-0.885417 0.67708,-2.083334 0.67708,-1.197916 2.09636,-2.98177 -1.06771,-0.05208 -1.51042,-0.3125 -0.44271,-0.273438 -0.44271,-0.755209 0,-0.299479 0.16927,-0.455729 0.16927,-0.15625 0.45573,-0.221354 0.28646,-0.07813 1.09375,-0.182292 0.82031,-0.104166 2.09635,-0.260416 1.41928,-1.744792 2.53907,-2.617188 1.13281,-0.885416 2.42187,-1.015625 0.10417,-0.01302 0.22136,-0.01302 0.1302,0 0.1302,0.0651 0,0.07813 -0.29947,0.416666 -0.28646,0.338542 -0.95053,1.080729 -0.65104,0.742188 -1.54947,1.757813 2.44791,-0.325521 3.99739,-0.742188 1.5625,-0.429687 2.35677,-1.015625 0.79427,-0.585937 0.79427,-1.302083 0,-0.872396 -0.84635,-1.263021 -0.84636,-0.390625 -2.59115,-0.390625 -0.96354,0 -2.21354,0.195313 -1.23698,0.195312 -2.2526,0.442708 -1.00261,0.247396 -1.79688,0.533854 -0.78125,0.273438 -0.78125,0.403646 0,0.03906 0.0781,0.07813 0.63802,0.234375 0.63802,0.390625 0,0.208333 -1.95313,0.807292 -1.95312,0.585937 -2.63021,0.585937 -0.48177,0 -0.48177,-0.481771 0,-0.572916 1.04167,-2.057291 1.05469,-1.497396 1.91406,-1.9140627 0.29948,-0.1432291 1.39323,-0.4557291 1.09375,-0.3125 2.39584,-0.5989583 1.3151,-0.2864584 2.66927,-0.4817709 1.35416,-0.1953125 2.39583,-0.1953125 2.46094,0 3.69792,0.8854167 1.23698,0.8723958 1.23698,2.2005208 0,0.898437 -0.57292,1.731771 -0.5599,0.833333 -1.75781,1.575521 -1.19792,0.742187 -3.125,1.302083 -1.91407,0.559896 -4.51823,0.859375 z m -1.38021,1.679687 q -0.67708,0.807292 -1.21094,1.432292 -0.52083,0.611979 -0.75521,1.002604 -0.22135,0.377604 -0.22135,0.768229 0,0.625 0.63802,1.119792 0.65104,0.481771 1.86198,0.481771 1.11979,0 2.38281,-0.390625 1.27604,-0.403646 2.13542,-1.041667 0.87239,-0.638021 0.87239,-1.289062 0,-0.559896 -0.63802,-0.92448 -0.63802,-0.364583 -1.9401,-0.63802 -1.30208,-0.286459 -3.125,-0.520834 z"
       id="path29" />
    <path
       d="m 272.87705,22.029378 v -0.846354 q 0.70313,-0.833334 1.06771,-1.419271 -0.41667,-0.143229 -0.61198,-0.351563 -0.18229,-0.208333 -0.18229,-0.625 0,-0.46875 0.39062,-1.184896 0.39063,-0.716145 0.96355,-1.341145 0.57291,-0.625 1.04166,-0.807292 0.18229,-0.09115 0.35157,-0.09115 0.26041,0 0.26041,0.247396 0,0.221354 -0.40364,0.898437 2.68229,-0.416666 3.38541,-0.416666 0.27344,0 0.37761,0.05208 0.22135,0.117188 0.36458,0.546875 0.14323,0.429688 0.14323,0.859375 0,0.273438 -0.2474,0.598958 -0.23437,0.3125 -0.82031,0.92448 -0.6901,0.742187 -1.15885,1.614583 -0.46875,0.872396 -0.46875,1.315104 0,0.611979 0.75521,0.611979 0.79427,0 2.76041,-1.614583 v 0.872396 q -1.08073,1.132812 -1.78385,1.783854 -0.70313,0.651041 -1.30209,1.041666 -0.59895,0.377605 -1.0677,0.377605 -0.54688,0 -0.91146,-0.494792 -0.36459,-0.507813 -0.36459,-1.458333 0,-0.559896 0.28646,-1.276042 0.28646,-0.716146 0.83334,-1.549479 0.55989,-0.846354 1.25,-1.679688 -0.36459,0.07813 -0.82032,0.169271 -0.45573,0.07813 -0.96354,0.169271 -0.50781,0.09115 -0.78125,0.143229 -0.80729,1.614584 -2.34375,2.929688 z"
       id="path31" />
    <path
       d="m 289.16612,21.000732 v 0.872396 q -0.85938,0.78125 -1.38021,1.041666 -0.52083,0.260417 -1.4974,0.208334 -1.69271,2.005208 -2.98177,2.005208 -0.72916,0 -1.32812,-0.481771 -0.59896,-0.481771 -0.96354,-1.315104 -0.35157,-0.833333 -0.35157,-1.861979 0,-0.833333 0.54688,-1.848958 0.55989,-1.015625 1.43229,-1.888021 0.88542,-0.885417 1.88802,-1.419271 1.0026,-0.546875 1.86198,-0.546875 0.61198,0 0.96354,0.195313 0.35156,0.182291 0.35156,0.520833 0,0.260416 -0.29948,0.598958 0.4948,0.104167 0.67709,0.351563 0.18229,0.234375 0.18229,0.872395 0,0.625 -0.29948,1.575521 -0.28646,0.950521 -0.79427,1.783854 l 0.23437,0.234375 h 0.19532 q 0.22135,0 0.42968,-0.104166 0.22136,-0.117188 0.39063,-0.234375 0.16927,-0.130209 0.74219,-0.559896 z m -2.68229,-3.424479 q -1.08073,0.651041 -1.84896,1.184896 -0.76823,0.520833 -1.30209,1.067708 -0.53385,0.533854 -0.71614,1.080729 -0.32552,1.458333 -0.32552,1.575521 0,0.859375 1.19791,0.859375 0.5599,0 1.875,-0.963542 -0.22135,-0.611979 -0.22135,-1.171875 0,-0.820312 0.33854,-1.666666 0.33854,-0.859375 1.00261,-1.966146 z"
       id="path33" />
    <path
       d="m 295.94996,22.563232 q 0,0.585937 0.44271,0.585937 0.57292,0 2.00521,-1.940104 -0.0521,-0.364583 -0.0521,-0.481771 0,-0.703125 0.5599,-1.71875 0.5599,-1.015625 1.28906,-1.770833 0.72917,-0.755208 1.10677,-0.755208 0.45573,0 0.45573,1.09375 0,0.898437 -0.39062,1.770833 -0.37761,0.872396 -1.10677,1.783854 0.11718,0.117188 0.26041,0.247396 0.14323,0.117188 0.29948,0.208333 0.16927,0.07813 0.35157,0.07813 0.42968,0 1.09375,-0.690104 v 0.924479 q -1.02865,1.067709 -1.78386,1.067709 -0.44271,0 -0.70312,-0.104167 -0.2474,-0.117187 -0.63802,-0.403646 -2.39584,2.877604 -3.64584,2.877604 -0.48177,0 -0.76823,-0.351562 -0.27343,-0.364584 -0.27343,-1.002604 0,-0.3125 0.26041,-2.34375 -0.50781,0.585937 -1.18489,1.380208 -0.67709,0.794271 -1.09375,1.223958 -0.41667,0.416667 -0.78125,0.651042 -0.35157,0.234375 -0.71615,0.234375 -0.35156,0 -0.84635,-0.442708 -0.48177,-0.442709 -0.82032,-1.171875 -0.33854,-0.742188 -0.33854,-1.588542 0,-0.820312 0.23438,-1.40625 0.23437,-0.585937 1.06771,-1.757812 0.7552,-1.041667 1.34114,-1.70573 0.58594,-0.664062 1.05469,-1.028645 0.48177,-0.364584 0.78125,-0.364584 0.18229,0 0.46875,0.09115 0.29948,0.07813 0.52083,0.221354 0.23438,0.14323 0.23438,0.299479 0,0.494792 -0.44271,1.25 -0.42969,0.755209 -1.28906,1.692709 -0.85938,0.9375 -1.96615,1.914062 -0.29948,0.898438 -0.29948,1.458334 0,0.182291 0.10417,0.351562 0.11719,0.15625 0.27344,0.15625 0.53385,0 2.04427,-1.666667 1.52343,-1.666666 4.01041,-5.052083 0.0912,-0.130208 0.39063,-0.130208 0.32552,0 0.58594,0.143229 0.27343,0.143229 0.27343,0.390625 0,0.143229 -0.6901,1.523437 -0.67708,1.380209 -1.1849,2.539063 -0.49479,1.145833 -0.49479,1.71875 z"
       id="path35" />
    <path
       d="m 310.98903,18.670003 q -2.29167,2.552083 -2.29167,3.554687 0,0.559896 0.45573,0.559896 0.37761,0 0.97656,-0.390625 0.61198,-0.403646 1.90105,-1.419271 v 0.898438 q -1.84896,1.822916 -2.83855,2.630208 -0.98958,0.807292 -1.61458,0.807292 -1.06771,0 -1.06771,-1.40625 0,-0.416667 0.13021,-0.820313 0.13021,-0.403646 0.35156,-0.833333 0.23438,-0.442708 0.70313,-1.25 0.46875,-0.820313 1.08073,-1.848958 -0.74219,0.377604 -1.86198,1.497395 -0.72917,0.703125 -1.23698,1.341146 -0.50781,0.625 -1.09375,1.40625 -0.57292,0.768229 -0.84636,1.041667 -0.26041,0.260416 -0.53385,0.260416 -0.41667,0 -0.76823,-0.872395 -0.35156,-0.872396 -0.35156,-2.03125 0,-0.716146 0.15625,-1.119792 0.16927,-0.403646 0.65104,-1.145833 0.89844,-1.380209 1.54948,-2.018229 0.65104,-0.651042 1.25,-0.651042 0.41667,0 0.66406,0.143229 0.26042,0.143229 0.26042,0.442708 0,0.130209 -0.0781,0.273438 -0.0781,0.143229 -0.18229,0.260417 -0.0911,0.117187 -0.40364,0.455729 -2.0573,2.278646 -2.0573,2.955729 0,0.377604 0.2474,0.377604 0.15625,0 0.59896,-0.494792 0.45573,-0.507812 1.15885,-1.315104 0.71615,-0.820312 1.67969,-1.705729 0.97656,-0.885417 2.21354,-1.705729 0.69011,-0.481771 1.14584,-0.481771 0.20833,0 0.40364,0.572917 0.20833,0.572916 0.20833,1.158854 0,0.286458 -0.55989,0.872396 z"
       id="path37" />
    <path
       d="m 168.17653,51.977297 h 1.96615 q 1.70573,-2.291667 2.59115,-3.997396 0.89843,-1.705729 0.89843,-2.239583 0,-0.742188 -1.27604,-0.742188 -0.74219,0.0651 -2.63021,0.325521 -1.88802,0.247396 -3.65885,0.598959 -1.58854,0.299479 -2.55208,0.625 -0.95053,0.3125 -1.34115,0.520833 -0.39063,0.208333 -0.48177,0.299479 0.96354,-0.05208 1.6276,-0.05208 1.04167,0 1.04167,0.234375 0,0.104166 -0.72917,0.273437 -0.72916,0.15625 -1.38021,0.338542 -0.63802,0.182292 -1.25,0.429687 -0.59895,0.247396 -0.72916,0.247396 -0.29948,0 -0.49479,-0.221354 -0.19532,-0.234375 -0.19532,-0.559896 0,-0.221354 0.35157,-1.145833 0.36458,-0.9375 1.01562,-1.875 0.65104,-0.950521 1.61458,-1.40625 0.35157,-0.169271 2.23959,-0.611979 1.90104,-0.442708 4.28385,-0.807292 2.38281,-0.364583 4.36198,-0.364583 1.19792,0 1.91406,0.338542 0.72917,0.32552 0.72917,1.41927 0,0.351563 -0.26042,1.09375 -0.26041,0.729167 -0.83333,1.875 -0.5599,1.145834 -1.38021,2.513021 -0.80729,1.367188 -1.84896,2.890625 h 2.00521 l -1.73177,2.486979 q -0.35156,0.02604 -0.88542,0.03906 -0.52083,0.01302 -1.14583,0.03906 -1.60156,2.083333 -3.47656,3.919271 -1.86198,1.835937 -3.38542,2.942708 -1.51041,1.106771 -2.12239,1.106771 -0.2474,0 -0.42969,-0.169271 -0.18229,-0.15625 -0.18229,-0.416667 0,-0.221354 0.57291,-1.132812 0.58594,-0.911458 1.61459,-1.705729 1.02864,-0.794271 2.34375,-0.885417 0.53385,-0.559896 0.91146,-0.989583 0.39062,-0.442708 1.09375,-1.263021 0.70312,-0.833333 1.08072,-1.276042 l -3.91927,0.195313 q -0.63802,0.02604 -0.88541,-0.05208 -0.23438,-0.09115 -0.23438,-0.429688 0,0 0.13021,-0.325521 0.13021,-0.338541 0.27344,-0.585937 0.20833,-0.377604 0.32552,-0.455729 0.13021,-0.07813 0.71614,-0.208334 l 2.39584,-0.585937 q 0.96354,-0.247396 1.34114,-0.247396 z"
       id="path39" />
    <path
       d="m 182.77289,54.334068 v 0.872396 q -0.85938,0.78125 -1.38021,1.041666 -0.52083,0.260417 -1.4974,0.208334 -1.6927,2.005208 -2.98177,2.005208 -0.72916,0 -1.32812,-0.481771 -0.59896,-0.481771 -0.96354,-1.315104 -0.35157,-0.833333 -0.35157,-1.861979 0,-0.833334 0.54688,-1.848959 0.55989,-1.015625 1.43229,-1.88802 0.88542,-0.885417 1.88802,-1.419271 1.00261,-0.546875 1.86198,-0.546875 0.61198,0 0.96354,0.195312 0.35156,0.182292 0.35156,0.520834 0,0.260416 -0.29947,0.598958 0.49479,0.104167 0.67708,0.351563 0.18229,0.234375 0.18229,0.872395 0,0.625 -0.29948,1.575521 -0.28646,0.950521 -0.79427,1.783854 l 0.23438,0.234375 h 0.19531 q 0.22135,0 0.42969,-0.104166 0.22135,-0.117188 0.39062,-0.234375 0.16927,-0.130209 0.74219,-0.559896 z m -2.68229,-3.424479 q -1.08073,0.651041 -1.84896,1.184895 -0.76823,0.520834 -1.30209,1.067709 -0.53385,0.533854 -0.71614,1.080729 -0.32552,1.458333 -0.32552,1.575521 0,0.859375 1.19791,0.859375 0.5599,0 1.875,-0.963542 -0.22135,-0.611979 -0.22135,-1.171875 0,-0.820312 0.33854,-1.666667 0.33854,-0.859375 1.00261,-1.966145 z"
       id="path41" />
    <path
       d="m 184.96039,54.360109 v -3.072916 q -0.48177,0.117187 -0.92448,0.416666 -0.42969,0.29948 -0.92448,0.742188 -0.48177,0.442708 -0.59896,0.442708 -0.14323,0 -0.14323,-0.377604 0,-0.377604 0.76823,-1.328125 0.78125,-0.963541 1.71875,-1.770833 0.9375,-0.820313 1.35417,-0.820313 0.24739,0 0.42969,0.286459 0.18229,0.286458 0.18229,0.78125 0,0.325521 -0.013,0.598958 -0.013,0.273438 -0.026,0.729167 -0.013,0.455729 -0.0391,1.315104 2.87761,-3.072917 3.41146,-3.072917 0.15625,0 0.2474,0.130209 0.10416,0.117187 0.10416,0.299479 0,0.429687 -0.70312,1.328125 -0.69011,0.885416 -0.92448,0.885416 -0.32552,0 -0.50781,-0.104166 l -1.65365,2.109375 q 0.026,1.145833 0.19531,1.705729 0.18229,0.559896 0.63802,0.559896 0.39063,0 0.91146,-0.390625 0.52084,-0.390625 1.69271,-1.445313 v 0.898438 q -2.66927,3.684895 -3.77604,3.684895 -0.69011,0 -0.98958,-0.729166 -0.28646,-0.729167 -0.37761,-2.239584 -0.45573,0.46875 -1.06771,1.132813 -0.61198,0.664062 -0.89843,0.950521 -0.27344,0.273437 -0.50782,0.455729 -0.22135,0.182291 -0.40364,0.182291 -0.18229,0 -0.18229,-0.3125 0,-0.520833 0.54687,-1.432291 0.5599,-0.911458 0.80729,-0.911458 0.026,0 0.11719,0.02604 0.0911,0.02604 0.0911,0.02604 z"
       id="path43" />
    <path
       d="m 207.64268,55.284589 -3.46354,1.953125 q -1.14584,1.940104 -2.30469,3.658854 -1.14583,1.73177 -2.04427,2.851562 -0.88542,1.132813 -1.53646,1.71875 -0.65104,0.598958 -0.96354,0.598958 -0.41667,0 -0.67708,-0.286458 -0.26042,-0.273438 -0.26042,-0.651042 0,-1.40625 1.57552,-3.528645 1.58854,-2.109375 5.01302,-4.492188 1.48438,-2.851562 2.44792,-5.182291 0.96354,-2.330729 1.47135,-3.984375 0.50781,-1.653646 0.70313,-2.65625 0.20833,-1.002604 0.20833,-1.276042 0,-0.559896 -0.42969,-0.559896 -0.35156,0 -1.04166,0.403646 -0.67709,0.403646 -1.47136,1.210938 -0.79427,0.79427 -1.48437,1.848958 -0.69011,1.041667 -1.26302,2.34375 -0.5599,1.289062 -0.8724,2.382812 -0.29948,1.09375 -0.29948,1.757813 0,0.169271 0.0521,0.742187 0.11719,-0.182291 0.28646,-0.442708 0.16927,-0.260417 0.42969,-0.533854 0.26042,-0.273438 0.54688,-0.455729 0.16927,-0.130209 0.40364,-0.208334 0.23438,-0.09115 0.23438,0.01302 0,0.07813 -0.74219,0.989583 -0.74219,0.898438 -1.28906,1.627605 -0.3125,0.416666 -0.83334,0.78125 -0.52083,0.364583 -0.84635,0.364583 -0.39063,0 -0.52083,-0.364583 -0.11719,-0.364584 -0.11719,-1.158855 0,-1.914062 0.65104,-4.257812 0.66406,-2.34375 1.77083,-4.114583 0.89844,-1.40625 2.20052,-2.539063 1.30209,-1.145833 2.52605,-1.783854 1.23697,-0.638021 1.9401,-0.638021 0.85937,0 1.32812,0.546875 0.46875,0.533855 0.46875,1.484375 0,0.46875 -0.11718,1.054688 -0.10417,0.585937 -0.27344,1.184896 -0.16927,0.598958 -0.58594,1.927083 -0.41666,1.328125 -0.54687,1.757812 -0.40365,1.341146 -1.06771,2.760417 -0.65104,1.40625 -1.86198,3.736979 l 2.65625,-1.432292 z"
       id="path45" />
    <path
       d="m 213.80153,53.474693 q -1.88802,2.5 -2.8776,3.554687 -0.97656,1.054688 -1.60156,1.054688 -0.49479,0 -0.91146,-0.403646 -0.41667,-0.416667 -0.65104,-1.106771 -0.22136,-0.703125 -0.22136,-1.497396 0,-0.520833 0.0911,-0.9375 0.10417,-0.416666 0.3776,-0.911458 0.27344,-0.507813 0.71615,-1.09375 0.45573,-0.585938 1.10677,-1.328125 0.39062,-0.455729 0.65104,-0.768229 0.27344,-0.3125 0.52083,-0.416667 0.26042,-0.117187 0.83334,-0.117187 0.41666,0 0.79427,0.117187 0.3776,0.104167 0.3776,0.221354 0,0.234375 -0.39062,0.846355 -0.37761,0.611979 -1.23698,1.497395 -0.84636,0.872396 -1.96615,1.71875 -0.24739,0.768229 -0.24739,1.171875 0,0.559896 0.42968,0.559896 0.15625,0 0.52084,-0.260417 0.36458,-0.273437 1.22396,-1.028645 0.87239,-0.76823 1.5625,-1.354167 0.50781,-0.442708 1.17187,-1.315104 0.67708,-0.885417 1.09375,-1.328125 0.96354,-1.015625 1.31511,-1.315104 0.35156,-0.3125 0.67708,-0.3125 0.3125,0 0.41667,0.195312 0.11718,0.195313 0.11718,0.794271 0,0.273438 -0.0521,0.442708 -0.0521,0.169271 -0.22135,0.442709 -0.15625,0.260416 -0.65105,0.976562 -0.49479,0.716146 -1.17187,1.692708 -0.36458,0.520834 -0.63802,1.145834 -0.27344,0.611979 -0.27344,0.924479 0,0.677083 0.53385,0.677083 0.44271,0 1.02865,-0.364583 0.58594,-0.364583 1.79688,-1.315104 v 0.872396 q -1.52344,1.40625 -2.25261,2.04427 -0.72917,0.638021 -1.26302,0.963542 -0.53385,0.325521 -1.01562,0.325521 -1.09375,0 -1.09375,-1.302083 0,-0.494792 0.32552,-1.328125 0.32552,-0.846355 1.05468,-2.434896 z"
       id="path47" />
    <path
       d="m 223.87966,56.143964 q 1.79687,-1.588542 3.08593,-2.760417 1.28907,-1.184896 2.01823,-1.861979 0.74219,-0.677083 1.30209,-1.145833 0.55989,-0.46875 0.71614,-0.46875 0.29948,-0.01302 0.57292,0.625 0.27344,0.625 0.27344,1.002604 0,0.247395 -0.83334,1.171875 -0.82031,0.911458 -1.23698,1.458333 -0.40364,0.546875 -0.40364,1.145833 0,0.351563 0.23437,0.572917 0.23438,0.208333 0.5599,0.208333 0.3776,0 0.89844,-0.390625 0.53385,-0.390625 1.66666,-1.393229 v 0.924479 q -1.13281,1.067709 -2.05729,1.848959 -0.92448,0.768229 -1.61458,1.158854 -0.67709,0.377604 -1.13281,0.377604 -0.40365,0 -0.67709,-0.299479 -0.27344,-0.3125 -0.27344,-0.768229 0,-0.442709 0.15625,-0.898438 0.15625,-0.455729 0.48178,-1.080729 0.32552,-0.625 0.85937,-1.497396 0.53385,-0.885417 0.97656,-1.614583 -1.32812,1.080729 -2.35677,2.083333 -1.02864,1.002604 -1.67969,1.757813 -0.65104,0.742187 -1.02864,1.171875 -0.72917,0.807291 -1.35417,0.807291 -0.67708,0 -0.67708,-0.963541 0,-0.390625 0.50781,-1.39323 0.50781,-1.015625 1.44531,-2.578125 0.0781,-0.104166 0.0781,-0.32552 0,-0.260417 -0.26042,-0.260417 -0.28646,0 -0.83333,0.546875 -0.53386,0.533854 -2.08333,2.252604 -0.42969,0.481771 -0.97657,1.263021 -0.53385,0.768229 -0.76823,1.028646 -0.23437,0.260416 -0.46875,0.260416 -0.46875,0 -0.87239,-0.833333 -0.40365,-0.833333 -0.40365,-1.940104 0,-0.807292 0.26042,-1.393229 0.27344,-0.585938 0.83333,-1.458334 0.8724,-1.26302 1.41927,-1.796874 0.5599,-0.546875 1.17188,-0.546875 0.3776,0 0.63802,0.15625 0.26042,0.143229 0.26042,0.403645 0,0.273438 -0.48178,0.898438 -0.46875,0.625 -1.19791,1.289062 -0.39063,0.377604 -0.74219,0.9375 -0.35156,0.546875 -0.35156,0.794271 0,0.351563 0.27344,0.351563 0.22135,0 1.11979,-0.911459 0.89843,-0.911458 1.96614,-1.979166 1.08073,-1.080729 1.99219,-1.783854 0.92448,-0.716146 1.5625,-0.716146 0.39063,0 0.63802,0.299479 0.26042,0.286458 0.26042,0.716146 0,0.286458 -0.39063,1.041666 -0.39062,0.742188 -1.14583,1.848959 -0.74219,1.09375 -1.92708,2.65625 z"
       id="path49" />
    <path
       d="m 232.48642,55.453859 v -0.911458 q 1.82292,-1.979167 3.13803,-3.723958 1.32812,-1.744792 2.09635,-2.773438 0.76823,-1.028645 1.35417,-1.445312 0.58593,-0.429688 1.47135,-0.429688 0.44271,0 0.44271,0.338542 0,0.273438 -0.36458,0.807292 -0.35157,0.533854 -0.91146,1.09375 -0.74219,0.729166 -1.45834,1.835937 -0.70312,1.09375 -1.60156,2.799479 0.70313,-0.546875 1.61458,-1.289062 0.92448,-0.755208 1.4974,-1.171875 0.58594,-0.429688 1.14583,-0.677083 0.57292,-0.247396 1.14584,-0.247396 0.36458,0 0.46875,0.130208 0.11718,0.130208 0.11718,0.507813 0,0.989583 -0.48177,1.940104 -0.48177,0.9375 -1.3802,1.953125 -0.89844,1.015625 -2.21355,2.213541 0.45573,0.169271 0.9375,0.169271 1.51042,0 4.04948,-2.304687 v 0.9375 q -0.98958,0.885416 -1.9401,1.666666 -0.9375,0.78125 -1.77083,1.25 -0.83334,0.46875 -1.53646,0.46875 -0.26042,0 -0.5599,-0.0651 -0.28646,-0.05208 -0.53385,-0.130208 -0.2474,-0.09115 -0.63802,-0.247396 -0.39063,-0.15625 -0.59896,-0.221354 -0.41667,0.104166 -0.46875,0.104166 -0.45573,0 -1.06771,-0.364583 -0.42969,0.833333 -0.95052,2.148437 -0.50781,1.328125 -0.85938,2.109375 -0.35156,0.78125 -0.9375,1.497396 -0.32552,0.325521 -0.45573,0.325521 -0.55989,0 -0.55989,-0.989583 0,-0.859375 0.35156,-1.796875 0.33854,-0.924479 0.84636,-1.757813 0.49479,-0.833333 1.09375,-1.679687 0.59895,-0.859375 0.84635,-1.276042 2.05729,-3.541666 3.20312,-6.028645 -2.99479,3.645833 -4.53125,5.234374 z m 5.28646,0.638021 q 1.28907,-1.354166 1.91407,-2.304687 0.63802,-0.950521 0.63802,-1.458334 0,-0.48177 -0.48177,-0.48177 -0.65105,0 -1.83594,1.080729 -1.17188,1.067708 -2.42188,2.890625 0.96354,-0.104167 1.28907,-0.0651 0.32552,0.02604 0.89843,0.338541 z"
       id="path51" />
    <path
       d="m 243.4109,54.724693 v -0.3125 q 3.35938,-3.541667 4.6224,-4.960938 0.28646,-1.601562 1.38021,-1.601562 0.27344,0 0.58594,0.15625 l 0.0781,0.247396 q -0.0521,0.15625 -0.0521,0.442708 0,0.247396 0.18229,0.924479 0.19531,0.664063 0.29948,1.119792 0.10416,0.455729 0.10416,1.028646 0,0.859375 -0.39062,1.653645 -0.39063,0.78125 -1.13281,1.510417 -0.74219,0.716146 -1.91407,1.471354 0.46875,0.07813 0.74219,0.07813 0.53386,0 1.14584,-0.260416 0.625,-0.273438 1.26302,-0.716146 0.65104,-0.455729 1.51041,-1.171875 v 0.872396 q -1.66666,1.627604 -2.98177,2.473958 -1.3151,0.833333 -2.26562,0.833333 -1.22396,0 -2.26563,-1.041666 -0.61198,-0.625 -0.76823,-1.197917 -0.14323,-0.572917 -0.14323,-1.549479 z m 4.85677,-1.992188 -0.23437,-1.901041 q -0.80729,0.911458 -3.45052,3.502604 0.78125,0.169271 1.06771,0.455729 0.28646,0.286458 0.80729,1.106771 0.88542,-0.364584 1.35417,-0.989584 0.48177,-0.63802 0.48177,-1.73177 0,-0.130209 -0.013,-0.234375 0,-0.104167 -0.013,-0.208334 z"
       id="path53" />
    <path
       d="m 269.11403,45.102297 q 0.35157,-0.09115 0.70313,-0.182292 0.36458,-0.09115 0.72917,-0.15625 0.3776,-0.0651 0.72916,-0.0651 0.75521,0 1.28906,0.338542 0.54688,0.338542 0.8073,0.924479 0.27343,0.572917 0.27343,1.25 0,1.054688 -0.39062,2.421875 -0.37761,1.354167 -1.09375,2.760417 -0.71615,1.40625 -1.67969,2.65625 -1.3151,1.692708 -3.16406,2.734375 -1.83594,1.028645 -3.3724,1.028645 -1.13281,0 -2.00521,-0.611979 -0.85937,-0.625 -1.35416,-1.796875 -0.48177,-1.184896 -0.48177,-2.773437 0,-2.135417 1.15885,-4.270833 1.17188,-2.148438 2.94271,-3.880209 1.78385,-1.744791 3.59375,-2.786458 1.8099,-1.054687 2.94271,-1.054687 0.92448,0 1.41927,0.572916 0.49479,0.559896 0.92448,1.822917 -1.21094,0.03906 -2.10938,0.299479 -0.89843,0.247396 -1.86198,0.768229 z m -3.28125,2.643229 q -0.91145,0.976563 -1.84895,2.526042 -0.92448,1.536458 -1.4974,3.020833 -0.57292,1.484375 -0.57292,2.265625 0,1.940104 1.8099,1.940104 1.26302,0 3.25521,-1.705729 2.00521,-1.705729 3.47656,-4.101562 1.48437,-2.408854 1.48437,-4.375 0,-1.445313 -1.14583,-1.445313 -0.88542,0 -2.16146,0.703125 -1.27604,0.703125 -2.44791,1.992188 -0.41667,0.46875 -1.65365,2.291666 0.23438,-1.223958 1.30208,-3.111979 z"
       id="path55" />
    <path
       d="m 276.26247,54.386151 -0.23438,1.09375 q -0.0521,0.208333 -0.0521,0.46875 0,0.703125 0.58594,0.703125 0.55989,0 2.72135,-2.1875 0.013,-0.846354 0.625,-1.953125 0.625,-1.106771 1.36719,-1.940104 0.75521,-0.833333 1.11979,-0.833333 0.57292,0 0.57292,0.755208 0,0.455729 -0.22136,1.119792 -0.22135,0.651041 -0.65104,1.41927 -0.42969,0.755209 -1.05469,1.5625 0.32552,0.585938 0.66406,0.585938 0.28646,0 0.625,-0.195313 0.35157,-0.208333 0.8724,-0.625 v 0.872396 q -0.72917,0.572917 -1.15885,0.78125 -0.41667,0.208334 -1.08073,0.208334 -0.26042,0 -0.9375,-0.351563 -1.32813,1.40625 -2.16146,2.109375 -0.83333,0.690104 -1.35417,0.690104 -0.89844,0 -1.53646,-1.067708 -0.625,-1.080729 -0.625,-2.369792 0,-1.731771 1.95313,-4.153645 0.58594,-0.729167 0.9375,-0.989584 0.36458,-0.273437 0.82031,-0.273437 0.39063,0 0.74219,0.143229 0.35156,0.143229 0.35156,0.338542 0,0.651041 -0.87239,1.914062 -0.8724,1.25 -2.01823,2.174479 z"
       id="path57" />
    <path
       d="m 285.25987,54.828859 v 0.325521 q 0,0.768229 0.3776,1.197917 0.37761,0.429687 0.98958,0.429687 0.63803,0 1.31511,-0.299479 0.6901,-0.299479 1.36719,-0.794271 0.67708,-0.494791 1.65364,-1.328125 v 0.794271 q -1.47135,1.770834 -2.76041,2.721354 -1.28907,0.9375 -2.61719,0.9375 -1.15886,0 -1.83594,-0.898437 -0.67708,-0.898438 -0.67708,-2.460938 0,-1.367187 0.63802,-2.473958 0.63802,-1.119792 2.08333,-2.356771 0.98958,-0.846354 1.96615,-1.276041 0.97656,-0.429688 1.74479,-0.429688 0.61198,0 0.96354,0.286459 0.36458,0.273437 0.36458,0.833333 0,0.820312 -0.61198,1.640625 -0.61197,0.807291 -1.875,1.614583 -1.25,0.794271 -3.08593,1.536458 z m 0.13021,-0.846354 q 1.17187,-0.455729 2.0052,-1.132812 0.83334,-0.677084 1.22396,-1.289063 0.40365,-0.625 0.40365,-0.911458 0,-0.299479 -0.27344,-0.299479 -0.23437,0 -0.76823,0.299479 -0.52083,0.299479 -1.06771,0.78125 -0.53385,0.481771 -0.96354,1.132812 -0.42969,0.651042 -0.55989,1.419271 z"
       id="path59" />
    <path
       d="m 290.83278,55.362714 v -0.846355 q 0.70312,-0.833333 1.06771,-1.41927 -0.41667,-0.14323 -0.61198,-0.351563 -0.18229,-0.208333 -0.18229,-0.625 0,-0.46875 0.39062,-1.184896 0.39063,-0.716145 0.96354,-1.341145 0.57292,-0.625 1.04167,-0.807292 0.18229,-0.09115 0.35156,-0.09115 0.26042,0 0.26042,0.247396 0,0.221354 -0.40365,0.898437 2.68229,-0.416666 3.38542,-0.416666 0.27344,0 0.3776,0.05208 0.22136,0.117188 0.36459,0.546875 0.14323,0.429688 0.14323,0.859375 0,0.273438 -0.2474,0.598958 -0.23437,0.3125 -0.82031,0.924479 -0.69011,0.742188 -1.15886,1.614584 -0.46875,0.872396 -0.46875,1.315104 0,0.611979 0.75521,0.611979 0.79427,0 2.76042,-1.614583 v 0.872396 q -1.08073,1.132812 -1.78386,1.783854 -0.70312,0.651041 -1.30208,1.041666 -0.59896,0.377604 -1.06771,0.377604 -0.54687,0 -0.91146,-0.494791 -0.36458,-0.507813 -0.36458,-1.458333 0,-0.559896 0.28646,-1.276042 0.28646,-0.716146 0.83333,-1.549479 0.5599,-0.846354 1.25,-1.679688 -0.36458,0.07813 -0.82031,0.169271 -0.45573,0.07813 -0.96354,0.169271 -0.50781,0.09115 -0.78125,0.143229 -0.80729,1.614583 -2.34375,2.929688 z"
       id="path61" />
    <path
       d="m 170.16872,89.203862 0.42969,0.325521 q -0.16927,0.364583 -0.32552,0.638021 -0.15625,0.273437 -0.37761,0.664062 -0.22135,0.390625 -0.33854,0.585938 -0.97656,1.705729 -1.83594,1.705729 -0.36458,0 -0.625,-0.286459 -0.26041,-0.286458 -0.26041,-0.78125 0,-0.703125 0.49479,-1.927083 0.50781,-1.223958 1.54948,-3.007812 1.05469,-1.796875 2.64323,-4.0625 1.58854,-2.265625 3.58073,-4.778646 -1.14584,-0.169271 -2.72136,-0.169271 -1.80989,0 -4.03646,0.403646 -2.21354,0.403646 -3.86718,0.9375 -1.64063,0.520833 -1.64063,0.768229 0,0.09115 0.0651,0.130208 0.0651,0.02604 0.20833,0.05208 0.15625,0.01302 0.39062,0.03906 1.52344,0.208334 1.52344,0.46875 0,0.130209 -0.66406,0.130209 -0.66406,-0.01302 -1.60156,-0.01302 -0.74219,0 -1.08073,-0.05208 -0.32552,-0.0651 -0.44271,-0.221354 -0.10417,-0.169271 -0.10417,-0.507812 0,-0.221354 0.13021,-0.963542 0.2474,-1.380208 0.75521,-2.213541 0.52083,-0.833334 1.57552,-1.354167 1.06771,-0.533854 2.92969,-0.846354 3.125,-0.533854 5.16927,-0.533854 1.51042,0 2.38281,0.130208 0.8724,0.117187 1.27604,0.351562 0.41667,0.234375 0.52084,0.46875 0.11718,0.221355 0.29948,0.78125 l 0.40364,1.197917 q 0.0391,0.117188 0.0651,0.195313 0.026,0.0651 0.0391,0.143229 0.026,0.07813 0.026,0.143229 0,0.507812 -0.23438,0.911458 -0.22135,0.403646 -0.83333,1.210938 -0.59896,0.807291 -0.88542,1.26302 -3.35937,5.455729 -4.58333,8.072917 z"
       id="path63" />
    <path
       d="m 184.41351,87.693445 v 0.820313 q -1.13281,1.158854 -1.96614,1.901041 -0.82032,0.729167 -1.44532,1.106771 -0.61197,0.377604 -1.04166,0.377604 -1.01563,0 -1.01563,-1.197916 0,-0.963542 0.625,-2.226563 0.63802,-1.276041 1.82292,-2.994791 -0.58594,0.325521 -1.10677,0.755208 -0.52083,0.416667 -0.92448,0.885417 -0.40365,0.455729 -0.67708,0.78125 -0.84636,0.95052 -1.62761,1.953125 -0.78125,0.989583 -1.05469,1.289062 -0.27343,0.299479 -0.52083,0.299479 -1.01562,0 -1.01562,-2.5 0,-0.820312 0.24739,-1.809896 0.2474,-0.989583 1.32813,-2.617187 2.27864,-3.411458 3.89323,-5.572916 1.6276,-2.17448 2.69531,-3.28125 1.06771,-1.119792 1.43229,-1.09375 0.45573,0.03906 0.72917,0.182291 0.28646,0.143229 0.28646,0.325521 0,0.325521 -0.45573,1.080729 -0.44271,0.742188 -1.53646,2.330729 -1.1849,1.679688 -1.67969,2.369792 -0.49479,0.677083 -1.48437,1.940104 -0.97657,1.25 -1.79688,2.239583 -0.80729,0.976563 -1.84896,2.122396 v 1.5625 q 1.74479,-1.940104 3.02084,-3.177083 1.27604,-1.236979 2.16145,-1.861979 0.88542,-0.638021 1.30209,-0.638021 0.39062,0 0.72916,0.46875 0.33855,0.455729 0.33855,0.755208 0,0.130209 -0.13021,0.325521 -0.9375,1.119792 -1.4974,1.861979 -0.54687,0.729167 -0.84635,1.315104 -0.29948,0.572917 -0.29948,0.989584 0,0.611979 0.58594,0.611979 0.625,0 2.77343,-1.679688 z"
       id="path65" />
    <path
       d="m 186.49685,88.162195 v 0.325521 q 0,0.768229 0.3776,1.197917 0.3776,0.429687 0.98958,0.429687 0.63802,0 1.31511,-0.299479 0.6901,-0.299479 1.36718,-0.794271 0.67709,-0.494791 1.65365,-1.328125 v 0.794271 q -1.47135,1.770833 -2.76042,2.721354 -1.28906,0.9375 -2.61718,0.9375 -1.15886,0 -1.83594,-0.898437 -0.67708,-0.898438 -0.67708,-2.460938 0,-1.367187 0.63802,-2.473958 0.63802,-1.119792 2.08333,-2.356771 0.98958,-0.846354 1.96615,-1.276041 0.97656,-0.429688 1.74479,-0.429688 0.61198,0 0.96354,0.286458 0.36458,0.273438 0.36458,0.833334 0,0.820312 -0.61198,1.640625 -0.61198,0.807291 -1.875,1.614583 -1.25,0.794271 -3.08593,1.536458 z m 0.1302,-0.846354 q 1.17188,-0.455729 2.00521,-1.132812 0.83334,-0.677084 1.22396,-1.289063 0.40365,-0.625 0.40365,-0.911458 0,-0.299479 -0.27344,-0.299479 -0.23438,0 -0.76823,0.299479 -0.52083,0.299479 -1.06771,0.78125 -0.53385,0.481771 -0.96354,1.132812 -0.42969,0.651042 -0.5599,1.419271 z"
       id="path67" />
    <path
       d="m 213.47601,81.925216 0.40365,0.403646 q -1.06771,1.341146 -1.875,1.953125 -0.79427,0.611979 -1.17188,0.611979 -0.3125,0 -0.3125,-0.559896 0,-1.393229 1.83594,-4.296875 1.54948,-2.51302 1.54948,-2.799479 0,-0.247395 -0.20834,-0.247395 -0.36458,0 -1.83593,1.640625 -1.47136,1.640624 -3.63282,4.635416 -2.44791,3.333333 -3.35937,4.765625 1.73177,0.169271 2.83854,0.442708 1.11979,0.260417 3.22917,0.859375 2.12239,0.598959 3.125,0.703125 -1.22396,1.393229 -1.69271,1.888021 -0.45573,0.507813 -0.70313,0.611979 -0.39062,0.169271 -1.15885,0.01302 -0.76823,-0.143229 -2.4349,-0.572917 -1.66666,-0.429687 -3.125,-0.716145 -1.44531,-0.286459 -2.64322,-0.286459 -0.67709,0 -1.17188,0.15625 -0.48177,0.15625 -1.35417,0.520834 -0.85937,0.351562 -1.21093,0.351562 -0.50782,0 -0.50782,-0.416667 0,-0.234375 0.16927,-0.533854 0.42969,-0.690104 0.83334,-1.315104 0.40364,-0.625 0.85937,-0.976562 0.45573,-0.351563 1.31511,-0.546875 0.85937,-0.195313 2.26562,-0.208334 2.1224,-3.255208 3.95834,-5.768229 1.83593,-2.526041 3.33333,-4.257812 1.51042,-1.731771 2.64323,-2.617188 1.13281,-0.898437 1.79687,-0.898437 0.46875,0 0.72917,0.260417 0.26042,0.260416 0.26042,0.729166 0,1.5625 -2.7474,6.471354 z"
       id="path69" />
    <path
       d="m 217.05674,85.362716 q 1.97917,-1.796875 3.84115,-2.669271 1.86198,-0.872395 2.8776,-0.872395 0.27344,0 0.50781,0.234375 0.23438,0.221354 0.36459,0.520833 0.14323,0.299479 0.14323,0.442708 0,0.234375 -0.1823,0.351563 -0.18229,0.104166 -0.63802,0.260416 0.0911,0.208334 0.23438,0.533855 0.14323,0.32552 0.22135,0.533854 0.0781,0.195312 0.0781,0.351562 0,0.3125 -0.63802,1.171875 -0.625,0.846354 -0.88542,1.25 -0.2474,0.403646 -0.2474,0.989583 0,0.963542 0.88542,0.963542 0.91146,0 2.85156,-1.705729 v 0.794271 q -3.29427,3.658854 -4.71354,3.658854 -0.50781,0 -0.72916,-0.338542 -0.20834,-0.325521 -0.20834,-0.976562 0,-1.028646 0.74219,-2.981771 -1.90104,2.109375 -2.82552,3.007812 -0.92448,0.885417 -1.52344,0.885417 -0.28646,0 -0.71614,-0.494792 -0.42969,-0.494791 -0.76823,-1.276041 -0.32552,-0.794271 -0.32552,-1.640625 0,-0.611979 0.11718,-1.015625 0.11719,-0.416667 0.45573,-0.846354 0.33854,-0.429688 1.08073,-1.132813 z m 6.23698,-1.432291 q -3.38542,1.549479 -4.83073,2.630208 -1.43229,1.080729 -1.43229,2.226562 0,0.416667 0.14323,0.690104 0.14323,0.260417 0.39062,0.260417 0.14323,0 0.50782,-0.182292 1.36718,-0.807291 2.5,-2.096354 1.13281,-1.302083 2.72135,-3.528645 z"
       id="path71" />
    <path
       d="m 226.19736,88.839279 v -0.963542 q 0.71615,-0.755208 1.47136,-2.109375 -0.72917,-0.104167 -0.72917,-0.585937 0,-0.403646 0.48177,-1.041667 0.49479,-0.638021 1.14583,-1.145833 0.66407,-0.507813 1.04167,-0.507813 0.42969,0 0.42969,0.351563 0,0.143229 -0.0781,0.182291 -0.10416,0.0651 -0.10416,0.221354 0,0.130209 0.20833,0.130209 0.65104,0 1.6276,-0.260417 0.98959,-0.273437 1.35417,-0.273437 0.29948,0 0.40365,0.559895 0.27343,1.484375 0.27343,1.679688 0,0.182292 -0.16927,0.351562 -0.15625,0.15625 -0.91146,0.638021 -0.74218,0.481771 -1.3802,0.9375 -0.63802,0.442708 -1.65365,1.25 0.70313,0.325521 1.01563,0.729167 0.32552,0.403646 0.55989,1.236979 l 3.25521,-2.552083 v 0.872395 l -3.28125,2.64323 q -0.13021,1.25 -0.8724,2.539062 -0.72916,1.289062 -1.70573,2.317708 -0.97656,1.028646 -1.9401,1.679688 -0.96354,0.664062 -1.40625,0.664062 -0.42969,0 -0.59896,-0.286458 -0.16927,-0.273438 -0.16927,-0.807292 0,-0.768229 0.33854,-1.458333 0.32552,-0.690104 0.96354,-1.380208 0.625,-0.677084 1.51042,-1.393229 0.89844,-0.703125 2.38281,-1.71875 -0.14323,-0.92448 -0.48177,-1.145834 -0.33854,-0.234375 -1.04166,-0.455729 -0.69011,-0.234375 -0.69011,-0.690104 0,-0.507813 4.88281,-3.893229 -0.78125,0.15625 -1.83593,0.351562 -1.05469,0.182292 -2.00521,0.260417 -0.66406,1.054687 -1.26302,1.848958 -0.59896,0.794271 -1.02865,1.223959 z m 3.33334,3.723958 q -0.9375,0.651042 -1.8099,1.458333 -0.8724,0.820313 -1.51042,1.549479 -0.625,0.729167 -0.625,0.885417 0,0.299479 0.26042,0.299479 0.46875,0 1.21094,-0.520833 0.74218,-0.520834 1.44531,-1.497396 0.70312,-0.963542 1.02865,-2.174479 z"
       id="path73" />
    <path
       d="m 240.40309,88.201258 -2.31771,1.966146 q -1.65364,1.445312 -2.21354,1.445312 -0.50781,0 -1.06771,-1.158854 -0.55989,-1.171875 -0.55989,-2.044271 0,-0.742187 0.22135,-1.25 0.23438,-0.520833 0.79427,-1.341146 0.79427,-1.10677 1.52344,-1.875 0.72917,-0.768229 1.28906,-1.184895 0.5599,-0.429688 0.78125,-0.429688 0.35156,0 0.67709,0.364583 0.33854,0.364584 0.33854,0.755209 0,0.247396 -0.36459,0.794271 -0.35156,0.546875 -1.13281,1.393229 -0.76823,0.833333 -2.14844,2.005208 l -0.24739,0.716146 q -0.10417,0.208333 -0.10417,0.364583 0,0.351563 0.35156,0.351563 0.36459,0 1.70573,-0.92448 1.35417,-0.924479 2.92969,-2.486979 0.61198,-0.611979 1.01563,-1.080729 0.40364,-0.46875 0.72916,-0.872396 0.32552,-0.416666 0.53386,-0.625 0.22135,-0.208333 0.39062,-0.221354 0.32552,-0.03906 0.50781,0.273438 0.1823,0.3125 0.1823,0.924479 0,0.351562 -0.3125,0.885417 -0.3125,0.520833 -1.17188,1.796874 -0.85937,1.263021 -1.71875,2.630209 -0.84635,1.354166 -1.73177,3.059896 0.0391,-0.03906 0.79427,-0.78125 0.76823,-0.742188 1.61458,-1.54948 0.84636,-0.807291 1.39323,-1.289062 0.54688,-0.494792 1.36719,-1.145833 v 0.872395 q -1.75781,1.888021 -3.1901,3.58073 -1.41927,1.692708 -2.20052,2.708333 -0.76823,1.015625 -0.89844,1.184896 -0.35156,0.455729 -0.63802,0.846354 -0.27344,0.403646 -0.46875,0.611979 -0.18229,0.221354 -0.29948,0.221354 -0.27344,0 -0.49479,-0.546875 -0.20834,-0.533854 -0.20834,-0.950521 0,-0.377604 0.14323,-0.664062 0.9375,-2.109375 4.20573,-7.330729 z"
       id="path75" />
    <path
       d="m 253.05935,80.349695 q 0,0.09115 0.16927,0.09115 0.11718,0 1.05468,-0.15625 0.95053,-0.15625 1.71875,-0.169271 -0.85937,0.234375 -1.48437,0.481771 -0.61198,0.234375 -1.27604,0.533854 -0.65104,0.286459 -0.9375,0.390625 -0.28646,0.09115 -0.49479,0.09115 -0.66407,0 -0.66407,-0.859375 0,-2.213541 1.1198,-3.111979 0.45572,-0.364583 1.45833,-0.859375 1.01562,-0.507812 2.27864,-0.950521 1.27605,-0.455729 2.79948,-0.78125 1.52344,-0.32552 3.00782,-0.32552 1.52343,0 2.79948,0.442708 1.27604,0.442708 2.13541,1.25 0.85938,0.794271 1.31511,1.953125 0.46875,1.158854 0.46875,2.604166 0,2.200521 -1.27605,4.270834 -1.26302,2.070312 -3.38541,3.658854 -2.10938,1.575521 -4.76563,2.5 -2.65625,0.924479 -5.23437,0.924479 -0.48177,0 -0.76823,-0.104167 -0.27344,-0.104166 -0.39063,-0.416666 -0.11718,-0.29948 -0.11718,-0.898438 0,-0.742187 0.11718,-1.210937 0.11719,-0.46875 0.39063,-1.08073 1.875,-4.153645 6.52344,-10.455728 -0.9375,0.104166 -2.0573,0.403645 -1.11979,0.286459 -2.12239,0.638021 -1.00261,0.351563 -1.69271,0.677083 -0.6901,0.325521 -0.6901,0.46875 z m 6.9401,-2.265624 q 0,0.02604 0.0521,0.299479 0.0521,0.260416 0.0521,0.455729 0,0.299479 -0.3125,0.846354 -0.29948,0.533854 -1.19792,1.914062 -0.89844,1.380209 -1.53646,2.421875 -0.63802,1.041667 -1.51041,2.682292 -0.27344,0.520833 -0.37761,0.703125 -0.10417,0.182292 -0.33854,0.598958 -0.22135,0.416667 -0.32552,0.716146 -0.10417,0.299479 -0.10417,0.455729 0,0.338542 0.36459,0.481771 0.3776,0.130208 1.0677,0.130208 1.77084,0 3.75,-0.63802 1.97917,-0.651042 3.71094,-1.796875 1.74479,-1.145834 2.78646,-2.591146 1.04167,-1.445313 1.04167,-3.020833 0,-1.796875 -1.31511,-2.760417 -1.3151,-0.976562 -3.82812,-0.976562 -1.05469,0 -1.97917,0.07813 z"
       id="path77" />
    <path
       d="m 277.48643,87.667404 v 0.872395 q -0.85938,0.78125 -1.38021,1.041667 -0.52083,0.260417 -1.49739,0.208333 -1.69271,2.005209 -2.98178,2.005209 -0.72916,0 -1.32812,-0.481771 -0.59896,-0.481771 -0.96354,-1.315104 -0.35156,-0.833334 -0.35156,-1.861979 0,-0.833334 0.54687,-1.848959 0.5599,-1.015625 1.43229,-1.88802 0.88542,-0.885417 1.88802,-1.419271 1.00261,-0.546875 1.86198,-0.546875 0.61198,0 0.96354,0.195312 0.35157,0.182292 0.35157,0.520834 0,0.260416 -0.29948,0.598958 0.49479,0.104167 0.67708,0.351562 0.18229,0.234375 0.18229,0.872396 0,0.625 -0.29948,1.575521 -0.28646,0.950521 -0.79427,1.783854 l 0.23438,0.234375 h 0.19531 q 0.22135,0 0.42969,-0.104167 0.22135,-0.117187 0.39062,-0.234375 0.16927,-0.130208 0.74219,-0.559895 z m -2.68229,-3.424479 q -1.08073,0.651041 -1.84896,1.184895 -0.76823,0.520834 -1.30208,1.067709 -0.53386,0.533854 -0.71615,1.080729 -0.32552,1.458333 -0.32552,1.575521 0,0.859375 1.19792,0.859375 0.55989,0 1.875,-0.963542 -0.22136,-0.611979 -0.22136,-1.171875 0,-0.820313 0.33854,-1.666667 0.33855,-0.859375 1.00261,-1.966145 z"
       id="path79" />
    <path
       d="m 287.81195,88.565841 -4.32292,3.554688 q -1.82292,3.151041 -3.32031,4.70052 -1.4974,1.5625 -2.22656,1.5625 -0.39063,0 -0.39063,-0.481771 0,-0.9375 0.95052,-2.395833 0.37761,-0.572917 0.85938,-1.119792 0.49479,-0.546875 0.92448,-0.95052 0.4427,-0.390625 1.15885,-0.989584 0.71615,-0.585937 0.97656,-0.807291 1.30209,-2.65625 1.875,-4.0625 -1.22396,1.302083 -2.13541,2.135416 -0.91146,0.833334 -1.67969,1.289063 -0.75521,0.442708 -1.36719,0.442708 -0.66406,0 -1.22396,-1.054687 -0.55989,-1.067709 -0.55989,-2.1875 0,-0.520834 0.23437,-1.09375 0.2474,-0.572917 0.75521,-1.223958 0.52083,-0.651042 1.3151,-1.328125 0.79428,-0.690105 1.86198,-1.341146 2.01823,-1.263021 3.13802,-1.263021 0.83334,0 0.83334,0.611979 0,0.846354 -1.8099,1.653646 -1.10677,0.481771 -2.20052,1.276042 -1.08073,0.79427 -1.75781,1.692708 -0.66406,0.885416 -0.66406,1.601562 0,0.351563 0.16927,0.559896 0.16927,0.208333 0.44271,0.208333 0.45572,0 1.04166,-0.416666 0.58594,-0.416667 1.73177,-1.471354 0.52084,-0.481771 1.38021,-1.549479 0.8724,-1.08073 1.43229,-1.640625 0.57292,-0.572917 1.02865,-0.572917 0.26042,0 0.41667,0.169271 0.16927,0.15625 0.16927,0.46875 0,0.598958 -0.48177,1.744791 -0.46875,1.132813 -1.70573,3.723959 l 3.15104,-2.291667 z"
       id="path81" />
  </g>
</svg>
