<?xml version="1.0" encoding="UTF-8" standalone="no"?>
<svg
   xmlns:dc="http://purl.org/dc/elements/1.1/"
   xmlns:cc="http://creativecommons.org/ns#"
   xmlns:rdf="http://www.w3.org/1999/02/22-rdf-syntax-ns#"
   xmlns:svg="http://www.w3.org/2000/svg"
   xmlns="http://www.w3.org/2000/svg"
   viewBox="161.041 4.24292 210.365 95.0912"
   version="1.1"
   id="svg2">
  <metadata
     id="metadata11">
    <rdf:RDF>
      <cc:Work
         rdf:about="">
        <dc:format>image/svg+xml</dc:format>
        <dc:type
           rdf:resource="http://purl.org/dc/dcmitype/StillImage" />
      </cc:Work>
    </rdf:RDF>
  </metadata>
  <defs
     id="defs9" />
  <g
     aria-label="The Quick BrownFox Jumps OverThe Lazy Dog"
     id="text4521"
     style="font-style:normal;font-variant:normal;font-weight:normal;font-stretch:normal;font-size:26.6667px;line-height:125%;font-family:'Comic Sans MS', 'Comic Sans', cursive;font-variant-ligatures:normal;font-variant-caps:normal;font-variant-numeric:normal;font-feature-settings:normal;text-align:left;letter-spacing:0px;word-spacing:0px;writing-mode:lr-tb;text-anchor:start;fill:#000000;fill-opacity:1;stroke:none;stroke-width:1px;stroke-linecap:butt;stroke-linejoin:miter;stroke-opacity:1">
    <path
       d="m 177.26508,8.6830238 q -0.96355,0 -2.96875,-0.15625 -1.95313,-0.1432291 -2.96875,-0.1302083 h -0.92448 q 0.0391,1.7968745 0.35156,5.8333335 0.28646,3.76302 0.28646,5.846354 0,0.455729 0.0911,1.380208 0.0911,0.924479 0.0911,1.393229 0,0.885417 -0.28646,1.523438 -0.36458,0.859375 -1.13281,0.859375 -0.52084,0 -0.9375,-0.364584 -0.41667,-0.364583 -0.41667,-0.9375 0,-0.195312 0.0651,-0.585937 0.0651,-0.390625 0.0651,-0.585938 0,-0.63802 -0.0911,-1.914062 -0.0781,-1.276042 -0.0781,-1.927083 0,-1.86198 -0.29948,-5.234375 -0.3125,-3.645834 -0.35156,-5.2343751 l -1.1849,0.013021 q -2.85156,0 -4.47917,-0.4166667 -1.05468,-0.2734375 -1.05468,-1.2890624 0,-0.5338542 0.33854,-0.9375 0.39062,-0.4557292 1.0026,-0.4166667 0.45573,0.026042 2.08334,0.234375 1.30208,0.15625 2.10937,0.15625 0.78125,0 2.36979,-0.026042 1.58854,-0.039063 2.36979,-0.039063 1.00261,0 2.96875,0.1432292 1.97917,0.1432292 2.98178,0.1432292 0.55989,0 0.9375,0.390625 0.3776,0.3776041 0.3776,0.9505208 0,0.5598958 -0.3776,0.9505208 -0.37761,0.3776041 -0.9375,0.3776041 z"
       id="path13" />
    <path
       d="m 190.36403,25.935628 q -0.92448,0 -1.21093,-0.989584 -0.29948,-1.067708 -0.54688,-3.033854 -0.23437,-1.888021 -0.23437,-3.098958 0,-0.338542 0.026,-1.028646 0.0391,-0.690104 0.0391,-1.028646 0,-2.447916 -1.22396,-2.447916 -1.65364,0 -2.95573,1.497396 -0.66406,0.768229 -1.82291,2.929687 0,4.960937 -0.41667,5.872396 -0.36458,0.807291 -1.13281,0.807291 -0.53386,0 -0.9375,-0.364583 -0.40365,-0.364583 -0.40365,-0.885417 0,-0.182291 0.11719,-0.572916 0.10417,-0.325521 0.14323,-1.901042 l 0.0391,-1.927083 0.0391,-9.570313 q 0.0911,-1.6145828 0.0911,-2.1744786 0,-0.6640625 -0.13021,-1.25 -0.11719,-0.5989583 -0.11719,-1.2369791 0,-0.546875 0.37761,-0.8984375 0.3776,-0.3645833 0.92448,-0.3645833 1.0677,0 1.25,1.1458333 0.20833,1.2630208 0.20833,2.2786457 0,1.3671875 -0.0911,2.8515625 -0.0781,1.419271 -0.0651,2.851562 l 0.013,1.145834 q 1.06771,-1.432292 2.27865,-2.135417 1.22395,-0.716146 2.59114,-0.716146 2.16146,0 2.96875,1.40625 0.57292,0.989584 0.65104,3.333333 l 0.10417,2.48698 0.26042,2.708333 q 0.18229,1.523437 0.44271,2.682291 0.0521,0.221355 0.0521,0.377605 0,0.533854 -0.39063,0.885416 -0.39062,0.364584 -0.9375,0.364584 z"
       id="path15" />
    <path
       d="m 200.94997,25.727294 q -2.94271,0 -4.76562,-1.471354 -1.99219,-1.627604 -1.99219,-4.557291 0,-3.385417 1.64062,-5.677084 1.78386,-2.5 4.76563,-2.5 2.16146,0 3.52864,0.729167 1.67969,0.898438 1.67969,2.760417 0,1.302083 -1.47135,2.369791 -0.65105,0.46875 -2.76042,1.458334 l -4.97396,2.35677 q 0.72917,1.08073 1.8099,1.627605 1.09375,0.546874 2.53906,0.546874 0.89844,0 2.10938,-0.338541 1.53645,-0.429688 1.97916,-1.119792 0.44271,-0.703125 0.95052,-0.703125 0.45573,0 0.80729,0.351563 0.36459,0.338541 0.36459,0.794271 0,1.445312 -2.33073,2.486979 -1.99219,0.885416 -3.88021,0.885416 z m -0.35156,-11.861979 q -1.58854,0 -2.64323,1.23698 -1.05469,1.223958 -1.57552,3.697916 l 3.99739,-1.901042 q 2.35677,-1.145833 3.35938,-1.992187 -1.11979,-1.041667 -3.13802,-1.041667 z"
       id="path17" />
    <path
       d="m 237.06976,30.831461 q -0.57292,0 -3.08594,-2.226563 l -3.11198,-2.851562 q -2.20052,0.885417 -4.36197,0.885417 -3.91927,0 -6.90105,-3.125 -2.96875,-3.125 -2.96875,-7.070313 0,-4.648437 3.46355,-7.8906245 3.38541,-3.1510416 8.00781,-3.1510416 4.86979,0 7.38281,3.6458333 2.13542,3.1249998 2.13542,8.0859368 0,4.309896 -4.21875,7.252604 l 2.83854,2.617188 1.67969,1.432292 q 0.49479,0.46875 0.49479,1.015625 0,0.533854 -0.40365,0.95052 -0.39062,0.429688 -0.95052,0.429688 z M 228.11143,8.0970864 q -3.56771,0 -6.14583,2.3828126 -2.65625,2.447916 -2.65625,5.963541 0,2.851563 2.20052,5.15625 2.21354,2.34375 5,2.34375 0.89843,0 1.84895,-0.221354 -2.51302,-2.1875 -2.51302,-3.450521 0,-0.572916 0.41667,-0.950521 0.42969,-0.377604 0.95052,-0.377604 0.625,0 1.10677,0.625 1.28906,1.679688 2.91667,3.007813 3.71094,-2.161459 3.71094,-5.442709 0,-3.867187 -1.57553,-6.276041 -1.79687,-2.7604166 -5.26041,-2.7604166 z"
       id="path19" />
    <path
       d="m 251.44476,17.524169 q 0,0.9375 0.013,2.8125 0.013,1.875 0.013,2.8125 0,0.286459 0.0391,0.872396 0.0521,0.585938 0.0521,0.872396 0,0.559896 -0.37761,0.911458 -0.3776,0.364584 -0.92448,0.364584 -1.0026,0 -1.27604,-1.23698 -1.6276,0.846355 -3.75,0.846355 -1.70573,0 -2.82552,-0.755209 -1.23698,-0.833333 -1.47135,-2.434895 -0.50781,-3.450521 -0.50781,-6.145834 0,-1.783854 0.39062,-4.0625 0.18229,-1.132812 1.23698,-1.132812 0.5599,0 0.9375,0.364583 0.3776,0.351563 0.3776,0.911459 0,0.598958 -0.19531,1.914062 -0.18229,1.315104 -0.18229,2.005208 0,2.174479 0.14323,3.723959 0.14323,1.549479 0.42969,2.486979 0.42968,0.234375 0.84635,0.364583 0.41667,0.117188 0.82031,0.117188 1.74479,0 3.6849,-0.559896 l -0.013,-2.643229 -0.026,-2.526042 q 0,-2.8125 0.24739,-4.882812 0.14323,-1.197917 1.26302,-1.197917 0.5599,0 0.9375,0.364583 0.37761,0.364584 0.35157,0.911459 z"
       id="path21" />
    <path
       d="m 257.17393,8.6439613 q -0.625,0 -1.08073,-0.4427083 -0.45573,-0.4427083 -0.45573,-1.0677083 0,-0.625 0.45573,-1.0677083 0.45573,-0.4427083 1.08073,-0.4427083 0.625,0 1.06771,0.4427083 0.45572,0.4427083 0.45572,1.0677083 0,0.625 -0.45572,1.0677083 -0.44271,0.4427083 -1.06771,0.4427083 z m 0.58593,10.5729167 q 0,0.78125 0.0391,2.34375 0.0521,1.549479 0.0521,2.330729 0,0.572916 -0.35156,0.9375 -0.35156,0.364583 -0.92448,0.364583 -0.5599,0 -0.92448,-0.364583 -0.35156,-0.364584 -0.35156,-0.9375 0,-0.78125 -0.0521,-2.330729 -0.0391,-1.5625 -0.0391,-2.34375 0,-1.223959 0.13021,-3.046875 0.13021,-1.835938 0.13021,-3.059896 0,-0.585937 0.35156,-0.950521 0.36458,-0.364583 0.92448,-0.364583 0.5599,0 0.91146,0.364583 0.36458,0.364584 0.36458,0.950521 0,1.223958 -0.13021,3.059896 -0.13021,1.822916 -0.13021,3.046875 z"
       id="path23" />
    <path
       d="m 268.04633,25.948648 q -2.66928,0 -4.45313,-1.614583 -1.875,-1.692708 -1.875,-4.466146 0,-2.643229 1.75781,-5.455729 1.95313,-3.125 4.40104,-3.125 1.27605,0 2.85157,0.598959 1.99218,0.768229 1.99218,1.875 0,0.494791 -0.32552,0.885416 -0.32552,0.377605 -0.80729,0.377605 -0.3776,0 -0.66406,-0.221355 -0.27344,-0.234375 -0.53385,-0.455729 -0.76823,-0.611979 -2.51303,-0.611979 -1.32812,0 -2.6302,2.369792 -1.1849,2.174479 -1.1849,3.76302 0,1.71875 1.17188,2.708334 1.09375,0.924479 2.8125,0.924479 0.78125,0 1.66666,-0.416667 l 1.51042,-0.807291 q 0.39062,-0.208334 0.55989,-0.208334 0.48178,0 0.83334,0.390625 0.35156,0.377604 0.35156,0.872396 0,0.950521 -2.00521,1.835937 -1.75781,0.78125 -2.91666,0.78125 z"
       id="path25" />
    <path
       d="m 286.70518,25.66219 q -0.71615,0 -1.10677,-0.755208 -0.67709,-1.315104 -2.04427,-3.111979 l -2.30469,-3.138021 q -0.75521,0.598958 -2.34375,1.679687 -0.14323,2.01823 -0.14323,3.932292 0,0.585937 -0.36458,0.950521 -0.35157,0.364583 -0.91146,0.364583 -1.31511,0 -1.31511,-1.770833 0,-1.080729 0.14323,-3.229167 0.15625,-2.161458 0.15625,-3.242187 0,-1.979167 0.0521,-4.518229 0.0651,-2.552084 0.0651,-4.5052085 0,-0.5859375 -0.0651,-1.3802083 -0.0521,-0.7942708 -0.0521,-1.3802083 0,-0.5859375 0.35156,-0.9505208 0.36459,-0.3645833 0.92448,-0.3645833 0.5599,0 0.91146,0.3645833 0.36459,0.3645833 0.36459,0.9505208 0,0.5989583 0.0651,1.4192708 0.0651,0.8072917 0.0651,1.40625 l -0.0911,4.1927083 q -0.0651,2.265625 -0.0391,4.53125 1.77083,-1.354167 3.41145,-2.96875 l 2.86459,-2.955729 q 0.42968,-0.442709 0.92448,-0.442709 0.50781,0 0.91145,0.403646 0.41667,0.403646 0.41667,0.9375 0,0.442709 -0.3776,0.872396 -1.60157,1.875 -3.94532,4.023437 l 2.83855,3.867188 q 1.99218,2.721354 1.99218,3.541666 0,0.520834 -0.41666,0.898438 -0.40365,0.377604 -0.9375,0.377604 z"
       id="path27" />
    <path
       d="m 307.95517,24.607503 q -2.92968,1.145833 -7.48697,1.145833 -0.5599,0 -1.06771,-0.533854 -0.49479,-0.520834 -0.49479,-1.080729 V 20.34969 q 0,-1.861979 0.23437,-5.3125 0.26042,-3.723958 0.28646,-5.3906245 -0.013,-1.1979166 0.14323,-3.5677083 0.0911,-0.6510416 0.42969,-0.8593749 1.77083,-0.546875 4.02343,-0.546875 2.29167,0 4.40104,1.5624999 2.4349,1.796875 2.4349,4.4401038 0,3.346354 -2.60417,5.273438 1.95313,0.833333 2.91667,1.848958 0.97656,1.015625 0.97656,2.213542 0,1.57552 -1.70573,3.046875 -1.18489,1.041666 -2.48698,1.549479 z M 304.02288,7.3288572 q -1.41927,0 -1.99218,0.091146 l -0.026,2.2786458 -0.26041,5.0390622 q 1.84896,0.15625 1.97916,0.143229 1.96615,-0.15625 3.21615,-1.223958 1.34115,-1.158854 1.34115,-2.981771 0,-1.2369788 -1.36719,-2.2916663 -1.36719,-1.0546875 -2.89063,-1.0546875 z m 1.45834,10.4296868 -1.38021,-0.221354 q -0.16927,0 -0.52084,0.02604 -0.33854,0.01302 -0.52083,0.01302 -0.70312,0 -1.49739,-0.117188 -0.0781,1.640625 -0.0781,2.929688 v 2.695312 q 3.41146,-0.117187 5.5599,-0.963541 0.91145,-0.351563 1.74479,-1.09375 0.79427,-0.677084 0.79427,-1.015625 0,-0.61198 -1.66667,-1.380209 -1.25,-0.585937 -2.43489,-0.872396 z"
       id="path29" />
    <path
       d="m 325.16871,15.50594 q -0.0911,1.627604 -1.30208,1.627604 -1.11979,0 -1.11979,-1.289062 0,-0.247396 -0.0391,-0.911458 l -0.0391,-1.09375 q -2.05729,0.247396 -3.29427,1.158854 -1.15885,0.846354 -1.92708,2.552083 l 0.026,7.135417 q 0,1.315104 -1.28906,1.315104 -1.14584,0 -1.14584,-1.315104 v -9.140625 q 0,-0.429688 0.026,-1.289063 0.0391,-0.859375 0.0391,-1.289062 0,-1.315104 1.14583,-1.315104 1.27604,0 1.28906,2.161458 2.5,-2.408854 5.54688,-2.408854 1.05469,0 1.57552,0.794271 0.52083,0.794271 0.52083,2.395833 0,0.677083 -0.013,0.911458 z"
       id="path31" />
    <path
       d="m 332.73382,25.896565 q -2.1875,0 -3.76303,-1.614583 -1.75781,-1.796875 -1.84895,-4.830729 -0.0781,-2.942709 1.48437,-5.182292 1.82292,-2.643229 5.07813,-2.643229 2.60416,0 3.94531,2.382813 1.06771,1.927083 1.02864,4.635416 -0.0391,2.890625 -1.51041,4.934896 -1.66667,2.317708 -4.41406,2.317708 z m 0.78125,-11.627604 q -1.91407,-0.01302 -2.98178,1.822917 -0.84635,1.471354 -0.84635,3.359375 0,1.888021 1.02865,2.942708 0.85937,0.872396 2.01823,0.872396 1.35416,0 2.33072,-0.989583 1.10678,-1.09375 1.17188,-2.95573 0.18229,-5.039062 -2.72135,-5.052083 z"
       id="path33" />
    <path
       d="m 357.46038,13.47469 q -1.01563,4.244792 -2.65625,9.596354 -0.36459,1.184896 -1.21094,2.434896 -0.45573,0.690104 -1.23698,0.677083 -1.41927,-0.02604 -2.21354,-3.528645 -0.26042,-1.119792 -0.53385,-3.046875 l -0.42969,-2.903646 -1.06771,2.486979 -1.97917,5.377604 q -0.16927,0.494792 -0.49479,0.755208 -0.39062,0.755209 -1.25,0.78125 -0.98958,0.03906 -1.91406,-3.880208 -0.46875,-2.018229 -0.9375,-5.46875 l -0.3125,-1.953125 q -0.16927,-1.171875 -0.16927,-1.966145 0,-0.546875 0.3776,-0.898438 0.39063,-0.364583 0.9375,-0.364583 0.98959,0 1.22396,1.080729 0.16927,0.768229 0.27344,1.901042 l 0.19531,1.914062 0.76823,5.846354 q 1.44531,-4.010417 2.99479,-9.244791 0.42969,-1.445313 1.4974,-1.445313 1.02864,0 1.39323,1.614583 0.33854,1.523438 0.84635,4.6875 0.52083,3.28125 0.92448,5.117188 l 0.95052,-3.541667 1.67969,-7.096354 q 0.19531,-0.794271 1.11979,-0.794271 0.54687,0 0.95052,0.377604 0.40365,0.364584 0.40365,0.885417 0,0.0651 -0.13021,0.598958 z"
       id="path35" />
    <path
       d="m 370.10361,26.052815 q -1.11979,0 -1.26302,-1.223958 L 368.476,21.977294 q -0.18229,-1.523437 -0.18229,-2.851562 0,-0.364583 0.0391,-1.236979 0.0521,-0.872396 0.0521,-1.236979 0,-2.8125 -1.04167,-2.8125 -1.45833,0 -2.78646,1.731771 -1.19791,1.57552 -1.875,3.984374 -0.026,0.507813 -0.11719,1.276042 -0.0781,0.651042 -0.0781,1.263021 0,0.390625 0.0781,1.171875 0.0781,0.78125 0.0781,1.171875 0,0.585937 -0.36458,0.950521 -0.35157,0.364583 -0.91146,0.364583 -0.57292,0 -0.92448,-0.364583 -0.35156,-0.364584 -0.35156,-0.950521 0,-0.390625 -0.0912,-1.171875 -0.0781,-0.78125 -0.0781,-1.171875 0,-1.341146 0.18229,-3.710938 0.19531,-2.382812 0.19531,-3.723958 0,-0.416666 -0.0521,-1.236979 -0.0391,-0.820312 -0.0391,-1.236979 0,-0.559896 0.36459,-0.911458 0.3776,-0.364584 0.92448,-0.364584 1.19791,0 1.3151,1.692709 l 0.0391,1.523437 q 2.1875,-2.916667 4.49219,-2.916667 2.08333,0 2.90365,1.835938 0.55989,1.223958 0.61198,3.619791 v 1.315105 l -0.013,1.210937 q 0,1.080729 0.27344,2.799479 0.28646,1.705729 0.28646,2.773438 0,0.572916 -0.3776,0.924479 -0.36459,0.364583 -0.92448,0.364583 z"
       id="path37" />
    <path
       d="m 173.93174,41.352297 q -0.23437,0 -0.49479,-0.104166 -1.61458,-0.598959 -4.27083,-0.598959 -0.85938,0 -2.01823,0.130209 -1.14584,0.117187 -2.57813,0.377604 l -0.026,5.625 q 2.51302,-0.664063 3.77604,-0.664063 2.00521,0 4.15365,0.234375 1.22396,0.130208 1.22396,1.328125 0,0.585938 -0.37761,0.976563 -0.3776,0.377604 -0.9375,0.377604 -0.67708,0 -2.03125,-0.117188 -1.35416,-0.117187 -2.03125,-0.117187 -0.88541,0 -3.82812,0.755208 l -0.11719,8.958333 q 0,0.559896 -0.36458,0.9375 -0.36459,0.390625 -0.92448,0.390625 -0.5599,0 -0.9375,-0.390625 -0.36459,-0.377604 -0.36459,-0.9375 0,-2.565104 0.0911,-7.695312 0.10417,-5.143229 0.10417,-7.708333 0,-0.572917 -0.026,-1.71875 -0.013,-1.158854 -0.013,-1.731771 0,-0.572917 0.35157,-0.963542 0.36458,-0.390625 0.9375,-0.390625 0.42968,0 0.76823,0.234375 1.61458,-0.286458 2.90364,-0.416666 1.28906,-0.14323 2.26563,-0.14323 1.49739,0 3.42448,0.429688 2.61718,0.598958 2.61718,1.5625 0,0.520833 -0.33854,0.924479 -0.3776,0.455729 -0.9375,0.455729 z"
       id="path39" />
    <path
       d="m 182.4083,59.229901 q -2.1875,0 -3.76302,-1.614583 -1.75781,-1.796875 -1.84896,-4.830729 -0.0781,-2.942709 1.48438,-5.182292 1.82292,-2.643229 5.07812,-2.643229 2.60417,0 3.94532,2.382812 1.0677,1.927084 1.02864,4.635417 -0.0391,2.890625 -1.51041,4.934896 -1.66667,2.317708 -4.41407,2.317708 z m 0.78125,-11.627604 q -1.91406,-0.01302 -2.98177,1.822917 -0.84635,1.471354 -0.84635,3.359375 0,1.88802 1.02864,2.942708 0.85938,0.872396 2.01823,0.872396 1.35417,0 2.33073,-0.989584 1.10677,-1.09375 1.17188,-2.955729 0.18229,-5.039062 -2.72136,-5.052083 z"
       id="path41" />
    <path
       d="m 203.51507,47.289797 -1.90104,1.783854 -2.31771,2.304688 4.2448,5.546875 q 0.32552,0.416666 0.32552,0.820312 0,0.507813 -0.39063,0.898437 -0.39062,0.390625 -0.88542,0.390625 -0.49479,0 -0.89843,-0.48177 -1.19792,-1.393229 -4.21875,-5.364584 l -2.53906,2.617188 q -0.76823,0.690104 -2.23959,2.148437 -0.41666,0.46875 -0.89844,0.46875 -0.49479,0 -0.88541,-0.390625 -0.37761,-0.390625 -0.37761,-0.898437 0,-0.403646 0.32552,-0.820313 0.36459,-0.48177 1.13282,-1.158854 0.89843,-0.794271 1.18489,-1.09375 l 2.77344,-2.903645 -1.70573,-2.460938 q -1.02864,-1.471354 -1.79687,-2.148437 -0.4948,-0.442709 -0.4948,-0.963542 0,-0.520833 0.36459,-0.924479 0.3776,-0.403646 0.85937,-0.403646 0.76823,0 2.31771,2.005208 l 2.25261,3.111979 2.55208,-2.34375 q 1.58854,-1.497395 2.14844,-2.34375 0.41666,-0.611979 0.98958,-0.611979 0.50781,0 0.89844,0.377604 0.39062,0.377605 0.39062,0.872396 0,0.716146 -1.21094,1.966146 z"
       id="path43" />
    <path
       d="m 229.03591,41.612714 q -0.23438,0 -0.80729,-0.09115 -0.5599,-0.104167 -0.8724,-0.104167 -0.63802,0 -1.4974,0.03906 l 0.0651,1.549479 q 0,9.6875 -1.28906,14.101562 -0.85938,2.916667 -3.00782,2.916667 -2.26562,0 -4.49218,-1.640625 -2.46094,-1.822917 -2.46094,-4.179688 0,-1.601562 1.3151,-1.601562 1.31511,0 1.31511,1.575521 0,1.080729 1.53646,2.148437 1.47135,1.015625 2.78645,1.015625 1.06771,0 1.48438,-6.549479 0.19531,-3.098958 0.19531,-7.786458 0,-0.364583 -0.0651,-1.40625 l -0.79427,0.01302 q -0.50782,0 -1.53646,-0.02604 -1.01563,-0.03906 -1.53646,-0.03906 -0.57292,0 -0.96354,-0.364584 -0.39063,-0.364583 -0.39063,-0.989583 0,-1.341146 1.8099,-1.341146 0.44271,0 1.3151,0.03906 0.8724,0.03906 1.30209,0.03906 0.82031,0 2.44791,-0.09115 1.64063,-0.104166 2.46094,-0.104166 2.96875,0 2.96875,1.510416 0,0.520834 -0.35156,0.92448 -0.37761,0.442708 -0.9375,0.442708 z"
       id="path45" />
    <path
       d="m 243.61924,50.857505 q 0,0.9375 0.013,2.8125 0.013,1.875 0.013,2.8125 0,0.286459 0.0391,0.872396 0.0521,0.585938 0.0521,0.872396 0,0.559896 -0.3776,0.911458 -0.3776,0.364583 -0.92448,0.364583 -1.0026,0 -1.27604,-1.236979 -1.6276,0.846354 -3.75,0.846354 -1.70573,0 -2.82552,-0.755208 -1.23698,-0.833333 -1.47136,-2.434896 -0.50781,-3.45052 -0.50781,-6.145833 0,-1.783854 0.39063,-4.0625 0.18229,-1.132812 1.23698,-1.132812 0.55989,0 0.9375,0.364583 0.3776,0.351563 0.3776,0.911458 0,0.598959 -0.19531,1.914063 -0.18229,1.315104 -0.18229,2.005208 0,2.174479 0.14323,3.723958 0.14322,1.54948 0.42968,2.48698 0.42969,0.234375 0.84636,0.364583 0.41666,0.117187 0.82031,0.117187 1.74479,0 3.6849,-0.559895 l -0.013,-2.64323 -0.026,-2.526041 q 0,-2.8125 0.2474,-4.882813 0.14323,-1.197916 1.26302,-1.197916 0.5599,0 0.9375,0.364583 0.3776,0.364583 0.35156,0.911458 z"
       id="path47" />
    <path
       d="m 263.39788,59.542401 q -1.06771,0 -1.25,-1.132813 -0.23437,-1.432291 -0.46875,-4.036458 l -0.44271,-4.036458 q -0.1302,-0.898437 -0.4427,-1.757812 -0.44271,-1.171875 -0.96355,-1.171875 -0.48177,0 -1.79687,0.820312 -1.25,0.755208 -1.64063,1.210938 -0.013,1.223958 0.0651,2.447916 l 0.39062,3.476563 q 0.2474,2.057291 0.2474,3.398437 0,0.572917 -0.36458,0.9375 -0.35157,0.377604 -0.91146,0.377604 -0.5599,0 -0.92448,-0.377604 -0.35156,-0.364583 -0.35156,-0.9375 0,-1.575521 -0.32552,-4.648437 -0.3125,-3.085938 -0.3125,-4.661459 0,-1.380208 -0.39063,-2.148437 -0.91146,0.416667 -1.84896,1.354167 l -1.53646,1.71875 q -0.20833,0.3125 -0.66406,0.820312 0,0.78125 -0.14323,2.304687 -0.14323,1.523438 -0.14323,2.252605 0,0.390625 0.11719,1.09375 0.13021,0.703125 0.13021,1.015625 0,0.533854 -0.40365,0.898437 -0.39062,0.364583 -0.92448,0.364583 -1.47135,0 -1.47135,-3.346354 0,-0.78125 0.14323,-2.330729 0.14323,-1.549479 0.14323,-2.330729 0,-0.690104 -0.13021,-2.070312 -0.11719,-1.380209 -0.11719,-2.083334 0,-2.955729 1.32813,-2.955729 0.50781,0 0.92448,0.442708 0.42968,0.442709 0.42968,0.963542 0,0.247396 -0.0651,0.768229 -0.0651,0.520834 -0.0651,0.794271 l 0.026,1.367188 q 0.67708,-1.39323 1.99218,-2.513021 1.31511,-1.132813 2.23959,-1.132813 2.04427,0 2.8125,2.03125 0.71614,-0.950521 1.70573,-1.419271 0.98958,-0.48177 2.26562,-0.48177 2.17448,0 2.96875,2.34375 0.15625,0.46875 0.53386,3.658854 0.36458,2.239583 0.9375,7.460937 0.0391,0.520833 -0.35157,0.885417 -0.39062,0.364583 -0.95052,0.364583 z"
       id="path49" />
    <path
       d="m 273.11143,58.917401 q -1.30209,0 -2.86459,-0.416667 l -0.026,6.223959 q 0,0.572916 -0.36458,0.937499 -0.35156,0.364584 -0.91146,0.364584 -0.5599,0 -0.92448,-0.364584 -0.35156,-0.364583 -0.35156,-0.937499 l 0.0391,-5.208334 v -5.195312 q -0.0391,-2.851563 -0.19531,-5.195312 l -0.19531,-2.64323 q 0,-0.924479 0.33854,-1.5625 0.39062,-0.768229 1.13281,-0.768229 0.50781,0 0.84635,0.364584 0.35157,0.351562 0.35157,0.872395 0,0.117188 -0.0391,0.429688 -0.0651,0.403646 -0.0911,0.742187 1.11979,-0.768229 2.16146,-1.145833 1.04166,-0.390625 1.99218,-0.390625 2.66928,0 3.90625,2.369792 0.97657,1.875 0.97657,4.960937 0,2.8125 -1.51042,4.635417 -1.60156,1.927083 -4.27083,1.927083 z m 0.89843,-11.289062 q -1.19791,0 -2.16145,0.533854 -0.69011,0.377604 -1.7448,1.380208 0.16928,2.955729 0.16928,6.210938 1.41927,0.546875 2.83854,0.546875 1.6276,0 2.48698,-1.210938 0.74218,-1.054687 0.74218,-2.734375 0,-2.369791 -0.58593,-3.541666 -0.57292,-1.184896 -1.7448,-1.184896 z"
       id="path51" />
    <path
       d="m 290.62445,48.43563 q -0.71615,0 -1.00261,-0.48177 -0.19531,-0.338542 -0.33854,-1.40625 -0.97656,0.247395 -3.00781,0.911458 -2.09635,0.833333 -2.10938,2.057292 0.39063,0.143229 0.76823,0.208333 2.9948,0.533854 4.45313,1.471354 2.12239,1.367187 2.12239,3.958333 0,2.122396 -1.83593,3.203125 -1.52344,0.885417 -3.85417,0.885417 -1.70573,0 -3.25521,-0.572917 -2.00521,-0.729166 -2.00521,-2.03125 0,-0.520833 0.40365,-0.911458 0.41667,-0.390625 0.9375,-0.390625 0.40365,0 1.04167,0.625 0.3125,0.299479 1.40625,0.494792 0.87239,0.15625 1.47135,0.15625 1.09375,0 1.92708,-0.260417 1.21094,-0.377604 1.21094,-1.197917 0,-1.770833 -2.47396,-2.395833 l -1.35416,-0.299479 q -1.73177,-0.377604 -2.46094,-0.885417 -1.05469,-0.729166 -1.05469,-2.200521 0,-2.721354 2.56511,-3.880208 0.78125,-0.351562 2.5,-0.833333 1.71875,-0.494792 2.46093,-0.833333 0.53386,-0.234375 1.15886,-0.234375 0.55989,0 0.91146,0.364583 0.36458,0.364583 0.36458,0.950521 0,0.377604 0.15625,1.10677 0.16927,0.729167 0.16927,1.106771 0,0.585938 -0.36458,0.950521 -0.35157,0.364583 -0.91146,0.364583 z"
       id="path53" />
    <path
       d="m 311.41872,59.255943 q -3.67187,0 -6.22396,-2.200521 -2.70833,-2.34375 -2.70833,-6.041667 0,-4.505208 2.66927,-8.190104 2.98177,-4.088541 7.4349,-4.088541 4.28385,0 6.36718,1.927083 2.17448,2.005208 2.17448,6.328125 0,4.505208 -2.44791,8.125 -2.8125,4.140625 -7.26563,4.140625 z m 1.17188,-17.851562 q -3.19011,0 -5.40365,3.177083 -2.04427,2.916666 -2.04427,6.432291 0,2.513021 1.86198,4.088542 1.78385,1.484375 4.41406,1.484375 3.16406,0 5.22136,-3.190104 1.83593,-2.851563 1.83593,-6.40625 0,-3.111979 -1.39323,-4.375 -1.32812,-1.210937 -4.49218,-1.210937 z"
       id="path55" />
    <path
       d="m 330.07758,57.784589 q -0.0391,1.197916 -1.1849,1.197916 -0.95052,0 -1.38021,-1.119791 l -1.99219,-5.286459 -2.3177,-5.976562 q -0.13021,-0.338542 -0.13021,-0.598958 0,-0.533855 0.40364,-0.911459 0.40365,-0.377604 0.9375,-0.377604 0.78125,0 1.11979,0.794271 l 3.3073,9.101562 q 0.97656,-2.083333 2.46093,-6.041666 0.35157,-1.041667 1.10677,-2.942709 0.40365,-0.833333 1.14584,-0.833333 0.53385,0 0.9375,0.377604 0.40364,0.377604 0.40364,0.898438 0,0.494791 -2.14843,5.572916 z"
       id="path57" />
    <path
       d="m 343.12445,59.06063 q -2.94271,0 -4.76562,-1.471354 -1.99219,-1.627604 -1.99219,-4.557292 0,-3.385416 1.64062,-5.677083 1.78386,-2.5 4.76563,-2.5 2.16146,0 3.52864,0.729167 1.67969,0.898437 1.67969,2.760417 0,1.302083 -1.47135,2.369791 -0.65104,0.46875 -2.76042,1.458333 l -4.97396,2.356771 q 0.72917,1.080729 1.8099,1.627604 1.09375,0.546875 2.53906,0.546875 0.89844,0 2.10938,-0.338541 1.53645,-0.429688 1.97916,-1.119792 0.44271,-0.703125 0.95052,-0.703125 0.45573,0 0.80729,0.351563 0.36459,0.338541 0.36459,0.79427 0,1.445313 -2.33073,2.48698 -1.99219,0.885416 -3.88021,0.885416 z m -0.35156,-11.861979 q -1.58854,0 -2.64323,1.236979 -1.05469,1.223959 -1.57552,3.697917 l 3.99739,-1.901042 q 2.35677,-1.145833 3.35938,-1.992187 -1.11979,-1.041667 -3.13802,-1.041667 z"
       id="path59" />
    <path
       d="m 361.7833,48.839276 q -0.0911,1.627604 -1.30208,1.627604 -1.11979,0 -1.11979,-1.289062 0,-0.247396 -0.0391,-0.911458 l -0.0391,-1.09375 q -2.05729,0.247395 -3.29427,1.158854 -1.15885,0.846354 -1.92708,2.552083 l 0.026,7.135417 q 0,1.315104 -1.28906,1.315104 -1.14583,0 -1.14583,-1.315104 v -9.140625 q 0,-0.429688 0.026,-1.289063 0.0391,-0.859375 0.0391,-1.289062 0,-1.315104 1.14583,-1.315104 1.27605,0 1.28907,2.161458 2.5,-2.408854 5.54687,-2.408854 1.05469,0 1.57552,0.794271 0.52084,0.79427 0.52084,2.395833 0,0.677083 -0.013,0.911458 z"
       id="path61" />
    <path
       d="m 177.26508,75.349696 q -0.96355,0 -2.96875,-0.15625 -1.95313,-0.14323 -2.96875,-0.130209 h -0.92448 q 0.0391,1.796875 0.35156,5.833333 0.28646,3.763021 0.28646,5.846354 0,0.45573 0.0911,1.380209 0.0911,0.924479 0.0911,1.393229 0,0.885417 -0.28646,1.523437 -0.36458,0.859375 -1.13281,0.859375 -0.52084,0 -0.9375,-0.364583 -0.41667,-0.364583 -0.41667,-0.9375 0,-0.195312 0.0651,-0.585937 0.0651,-0.390625 0.0651,-0.585938 0,-0.638021 -0.0911,-1.914062 -0.0781,-1.276042 -0.0781,-1.927084 0,-1.861979 -0.29948,-5.234375 -0.3125,-3.645833 -0.35156,-5.234374 l -1.1849,0.01302 q -2.85156,0 -4.47917,-0.416666 -1.05468,-0.273438 -1.05468,-1.289063 0,-0.533854 0.33854,-0.9375 0.39062,-0.455729 1.0026,-0.416666 0.45573,0.02604 2.08334,0.234375 1.30208,0.15625 2.10937,0.15625 0.78125,0 2.36979,-0.02604 1.58854,-0.03906 2.36979,-0.03906 1.00261,0 2.96875,0.143229 1.97917,0.143229 2.98178,0.143229 0.55989,0 0.9375,0.390625 0.3776,0.377604 0.3776,0.950521 0,0.559895 -0.3776,0.95052 -0.37761,0.377605 -0.9375,0.377605 z"
       id="path63" />
    <path
       d="m 190.36403,92.602299 q -0.92448,0 -1.21093,-0.989583 -0.29948,-1.067708 -0.54688,-3.033854 -0.23437,-1.888021 -0.23437,-3.098958 0,-0.338542 0.026,-1.028646 0.0391,-0.690104 0.0391,-1.028646 0,-2.447917 -1.22396,-2.447917 -1.65364,0 -2.95573,1.497396 -0.66406,0.768229 -1.82291,2.929688 0,4.960937 -0.41667,5.872395 -0.36458,0.807292 -1.13281,0.807292 -0.53386,0 -0.9375,-0.364583 -0.40365,-0.364584 -0.40365,-0.885417 0,-0.182292 0.11719,-0.572917 0.10417,-0.32552 0.14323,-1.901041 l 0.0391,-1.927083 0.0391,-9.570313 q 0.0911,-1.614583 0.0911,-2.174479 0,-0.664062 -0.13021,-1.25 -0.11719,-0.598958 -0.11719,-1.236979 0,-0.546875 0.37761,-0.898437 0.3776,-0.364584 0.92448,-0.364584 1.0677,0 1.25,1.145834 0.20833,1.26302 0.20833,2.278645 0,1.367188 -0.0911,2.851563 -0.0781,1.419271 -0.0651,2.851562 l 0.013,1.145833 q 1.06771,-1.432291 2.27865,-2.135416 1.22395,-0.716146 2.59114,-0.716146 2.16146,0 2.96875,1.40625 0.57292,0.989583 0.65104,3.333333 l 0.10417,2.486979 0.26042,2.708334 q 0.18229,1.523437 0.44271,2.682291 0.0521,0.221354 0.0521,0.377604 0,0.533855 -0.39063,0.885417 -0.39062,0.364583 -0.9375,0.364583 z"
       id="path65" />
    <path
       d="m 200.94997,92.393966 q -2.94271,0 -4.76562,-1.471354 -1.99219,-1.627604 -1.99219,-4.557292 0,-3.385416 1.64062,-5.677083 1.78386,-2.5 4.76563,-2.5 2.16146,0 3.52864,0.729167 1.67969,0.898437 1.67969,2.760416 0,1.302084 -1.47135,2.369792 -0.65105,0.46875 -2.76042,1.458333 l -4.97396,2.356771 q 0.72917,1.080729 1.8099,1.627604 1.09375,0.546875 2.53906,0.546875 0.89844,0 2.10938,-0.338541 1.53645,-0.429688 1.97916,-1.119792 0.44271,-0.703125 0.95052,-0.703125 0.45573,0 0.80729,0.351562 0.36459,0.338542 0.36459,0.794271 0,1.445313 -2.33073,2.486979 -1.99219,0.885417 -3.88021,0.885417 z m -0.35156,-11.861979 q -1.58854,0 -2.64323,1.236979 -1.05469,1.223959 -1.57552,3.697917 l 3.99739,-1.901042 q 2.35677,-1.145833 3.35938,-1.992187 -1.11979,-1.041667 -3.13802,-1.041667 z"
       id="path67" />
    <path
       d="m 228.98382,91.261154 q -1.47135,0.690104 -4.62239,1.236979 -2.90365,0.507812 -4.73958,0.507812 -1.31511,0 -1.88803,-0.403646 -0.78125,-0.546875 -0.78125,-2.005208 l 0.26042,-4.309896 q 0.33854,-5.963541 0.33854,-13.229166 0,-0.559896 0.36459,-0.950521 0.3776,-0.390625 0.92448,-0.390625 0.55989,0 0.92447,0.390625 0.37761,0.390625 0.37761,0.950521 0,7.356771 -0.35156,13.385416 l -0.16927,1.979167 q -0.10417,1.080729 -0.0781,1.914062 3.39844,0.03906 8.59375,-1.601562 0.22135,-0.0651 0.41667,-0.0651 0.55989,0 0.9375,0.442708 0.32552,0.403646 0.32552,0.924479 0,0.833334 -0.83334,1.223959 z"
       id="path69" />
    <path
       d="m 242.30414,92.654383 q -0.2474,0 -0.89844,-0.572917 -0.58593,-0.533854 -0.87239,-0.950521 -1.25,0.677084 -2.20052,1.015625 -0.95052,0.351563 -1.58855,0.351563 -3.04687,0 -4.4401,-1.71875 -1.3151,-1.614584 -1.3151,-4.947917 0,-3.151041 2.16145,-5.390625 2.17448,-2.239583 5.1823,-2.239583 1.13281,0 2.53906,0.585938 1.77083,0.729166 1.77083,1.757812 0,0.351562 -0.26041,0.625 -0.13021,0.494792 -0.20834,1.627604 -0.0651,1.132813 -0.0781,2.903646 -0.013,1.614583 0.22135,2.552083 0.13021,0.572917 0.82031,2.291667 0.0911,0.234375 0.29948,0.690104 l 0.0781,0.221354 q 0,0.520833 -0.36459,0.859375 -0.36458,0.338542 -0.84635,0.338542 z m -2.70833,-9.049479 q 0,-0.559896 0.0651,-1.210938 0.0781,-0.664062 0.22136,-1.40625 -0.48178,-0.247396 -0.83334,-0.364583 -0.33854,-0.117188 -0.54687,-0.117188 -2.01823,0 -3.48959,1.653646 -1.45833,1.640625 -1.45833,3.789063 0,2.135416 0.75521,3.203125 0.75521,1.067708 2.26562,1.067708 1.25,0 2.1224,-0.455729 0.46875,-0.247396 1.3151,-0.989584 -0.41666,-3.45052 -0.41666,-5.16927 z"
       id="path71" />
    <path
       d="m 256.52289,81.261154 q -1.15886,1.393229 -2.96875,4.036458 -2.09636,3.072917 -3.07292,4.348958 1.36719,-0.0651 2.38281,-0.0651 0.50781,0 1.51042,0.195313 1.0026,0.195312 1.51041,0.195312 0.57292,0 0.92448,0.377604 0.36459,0.364584 0.36459,0.9375 0,0.585938 -0.36459,0.950521 -0.35156,0.364583 -0.92448,0.364583 -0.50781,0 -1.51041,-0.195312 -1.00261,-0.195313 -1.51042,-0.195313 -2.92969,0 -5.55989,0.533855 -0.27344,0.05208 -0.48178,0.05208 -1.26302,0 -1.26302,-1.106771 0,-0.651042 0.65105,-1.25 3.39843,-3.072917 7.39583,-9.570312 -1.73177,0.104166 -2.51302,0.104166 -1.92709,0 -3.95834,-0.299479 -1.15885,-0.169271 -1.15885,-1.289062 0,-0.572917 0.35156,-0.950521 0.35157,-0.390625 0.88542,-0.390625 0.63802,0 1.92708,0.15625 1.28907,0.143229 1.95313,0.143229 0.88541,0 2.65625,-0.117187 1.77083,-0.130209 2.65625,-0.130209 1.10677,0 1.10677,0.911459 0,1.054687 -0.98958,2.252604 z"
       id="path73" />
    <path
       d="m 271.48383,80.180425 -4.50521,9.739583 q -1.66667,3.554687 -2.55209,5.95052 l -0.85937,2.526042 q -0.33854,0.9375 -1.17188,0.9375 -0.54687,0 -0.95052,-0.364583 -0.39062,-0.351563 -0.39062,-0.885417 0,-1.302083 2.8125,-7.539062 l -4.66146,-8.971354 -0.58594,-0.950521 q -0.35156,-0.598958 -0.35156,-1.002604 0,-0.533854 0.40365,-0.9375 0.41666,-0.403646 0.92447,-0.403646 0.59896,0 0.92448,0.455729 2.21355,3.072917 4.75261,8.75 l 1.92708,-4.492187 q 1.04167,-2.33073 2.00521,-4.010417 0.41667,-0.729167 1.09375,-0.729167 0.53385,0 0.9375,0.377605 0.41667,0.377604 0.41667,0.898437 0,0.286458 -0.16927,0.651042 z"
       id="path75" />
    <path
       d="m 294.17913,91.703862 q -2.01823,1.380208 -5.79427,1.380208 -0.95052,0 -2.17448,-0.299479 -1.47135,-0.351562 -2.21354,-0.911458 h -0.13021 q -0.55989,0 -0.9375,-0.390625 -0.3776,-0.390625 -0.3776,-0.950521 0,-1.367188 0.11719,-4.088542 0.1302,-2.734375 0.1302,-4.101562 0,-1.523438 -0.0651,-4.544271 -0.0521,-3.033854 -0.0521,-4.557291 0,-0.533855 0.54687,-1.119792 0.54688,-0.585937 1.09375,-0.585937 0.3125,0 2.08334,0.872395 2.0052,0.976563 2.3177,1.080729 3.69792,1.263021 6.30209,3.880209 3.05989,3.085937 3.05989,6.783854 0,2.226562 -1.05468,4.270833 -1.04167,2.044271 -2.85157,3.28125 z m -2.73437,-13.776041 q -1.32813,-0.872396 -6.13281,-2.994792 l 0.0651,3.75 0.0391,3.736979 -0.20833,7.109375 q 0.0911,0.03906 0.27344,0.169271 1.14583,0.768229 2.89062,0.768229 2.96875,0 4.32292,-0.911459 1.26302,-0.859375 2.00521,-2.304687 0.7552,-1.458333 0.7552,-3.033854 0,-3.671875 -4.01041,-6.289062 z"
       id="path77" />
    <path
       d="m 306.10622,92.563237 q -2.1875,0 -3.76302,-1.614583 -1.75781,-1.796875 -1.84896,-4.830729 -0.0781,-2.942709 1.48438,-5.182292 1.82291,-2.643229 5.07812,-2.643229 2.60417,0 3.94531,2.382812 1.06771,1.927084 1.02865,4.635417 -0.0391,2.890625 -1.51042,4.934896 -1.66666,2.317708 -4.41406,2.317708 z m 0.78125,-11.627604 q -1.91406,-0.01302 -2.98177,1.822917 -0.84635,1.471354 -0.84635,3.359375 0,1.88802 1.02864,2.942708 0.85938,0.872396 2.01823,0.872396 1.35417,0 2.33073,-0.989584 1.10677,-1.09375 1.17188,-2.955729 0.18229,-5.039062 -2.72136,-5.052083 z"
       id="path79" />
    <path
       d="m 325.96299,86.183029 -0.29948,4.375 q -0.0781,2.604166 -0.53385,4.257812 -0.58594,2.109375 -1.875,3.111979 -1.5625,1.210938 -4.51823,1.210938 -1.73177,0 -2.90365,-0.234375 -1.64062,-0.325521 -1.64062,-1.354167 0,-1.158854 1.13281,-1.158854 0.46875,0 1.5625,0.221354 1.09375,0.234375 2.42188,0.208333 2.5,-0.03906 3.45052,-2.421875 0.625,-1.588541 0.66406,-4.882812 -0.70313,1.302083 -1.67969,1.953125 -0.96354,0.651042 -2.21354,0.651042 -2.35677,0 -3.84115,-1.601563 -1.47135,-1.614583 -1.47135,-4.179687 0,-3.515625 2.01823,-5.664063 2.08333,-2.213541 5.67708,-2.213541 1.21094,0 2.03125,0.3125 0.82032,0.3125 1.25,0.9375 1.39323,0.03906 1.39323,1.549479 0,0.924479 -0.27344,2.473958 -0.29947,1.796875 -0.35156,2.447917 z m -4.17969,-5.638021 q -2.47395,0 -3.82812,1.705729 -1.21094,1.536458 -1.21094,3.90625 0,1.888021 0.71615,2.838542 0.71614,0.95052 2.14844,0.95052 1.3151,0 2.55208,-1.484375 1.11979,-1.367187 1.27604,-2.708333 0.27344,-1.40625 0.58594,-4.414062 -0.52084,-0.403646 -1.08073,-0.598959 -0.5599,-0.195312 -1.15886,-0.195312 z"
       id="path81" />
  </g>
</svg>
