<?xml version="1.0" encoding="UTF-8" standalone="no"?>
<svg
   xmlns:dc="http://purl.org/dc/elements/1.1/"
   xmlns:cc="http://creativecommons.org/ns#"
   xmlns:rdf="http://www.w3.org/1999/02/22-rdf-syntax-ns#"
   xmlns:svg="http://www.w3.org/2000/svg"
   xmlns="http://www.w3.org/2000/svg"
   viewBox="161.393 8.24032 236.641 88.5807"
   version="1.1"
   id="svg2">
  <metadata
     id="metadata11">
    <rdf:RDF>
      <cc:Work
         rdf:about="">
        <dc:format>image/svg+xml</dc:format>
        <dc:type
           rdf:resource="http://purl.org/dc/dcmitype/StillImage" />
      </cc:Work>
    </rdf:RDF>
  </metadata>
  <defs
     id="defs9" />
  <g
     aria-label="The Quick BrownFox Jumps OverThe Lazy Dog"
     id="text4521"
     style="font-style:normal;font-variant:normal;font-weight:normal;font-stretch:normal;font-size:26.6667px;line-height:125%;font-family:'Courier New', monospace;font-variant-ligatures:normal;font-variant-caps:normal;font-variant-numeric:normal;font-feature-settings:normal;text-align:left;letter-spacing:0px;word-spacing:0px;writing-mode:lr-tb;text-anchor:start;fill:#000000;fill-opacity:1;stroke:none;stroke-width:1px;stroke-linecap:butt;stroke-linejoin:miter;stroke-opacity:1">
    <path
       d="m 168.07237,10.987711 v 13.046875 h 2.83854 q 0.39062,0 0.55989,0.15625 0.16928,0.143229 0.16928,0.390625 0,0.234375 -0.16928,0.390625 -0.16927,0.15625 -0.55989,0.15625 h -6.78386 q -0.39062,0 -0.55989,-0.15625 -0.16927,-0.15625 -0.16927,-0.390625 0,-0.247396 0.16927,-0.390625 0.16927,-0.15625 0.55989,-0.15625 h 2.83855 V 10.987711 h -4.47917 v 3.789063 q 0,0.403646 -0.15625,0.572916 -0.14323,0.169271 -0.39063,0.169271 -0.23437,0 -0.39062,-0.169271 -0.15625,-0.16927 -0.15625,-0.572916 V 9.8939613 h 12.2526 v 4.8828127 q 0,0.403646 -0.15625,0.572916 -0.14323,0.169271 -0.39062,0.169271 -0.2474,0 -0.40365,-0.169271 -0.14323,-0.16927 -0.14323,-0.572916 v -3.789063 z"
       id="path13" />
    <path
       d="m 179.93435,8.7871905 v 6.7317705 q 1.04166,-1.132812 1.99218,-1.588541 0.96354,-0.46875 2.14844,-0.46875 1.27604,0 2.16146,0.455729 0.89844,0.442708 1.49739,1.380208 0.59896,0.924479 0.59896,1.953125 v 6.783854 h 1.22396 q 0.40365,0 0.5599,0.15625 0.16927,0.143229 0.16927,0.390625 0,0.234375 -0.16927,0.390625 -0.15625,0.15625 -0.5599,0.15625 h -3.55469 q -0.40364,0 -0.57291,-0.15625 -0.16927,-0.15625 -0.16927,-0.390625 0,-0.247396 0.16927,-0.390625 0.16927,-0.15625 0.57291,-0.15625 h 1.22396 v -6.705729 q 0,-1.184896 -0.85937,-1.979167 -0.84636,-0.79427 -2.36979,-0.79427 -1.19792,0 -2.04428,0.585937 -0.61197,0.416667 -2.01822,1.966146 v 6.927083 h 1.23697 q 0.39063,0 0.5599,0.15625 0.16927,0.143229 0.16927,0.390625 0,0.234375 -0.16927,0.390625 -0.16927,0.15625 -0.5599,0.15625 h -3.5677 q -0.39063,0 -0.5599,-0.15625 -0.16927,-0.15625 -0.16927,-0.390625 0,-0.247396 0.16927,-0.390625 0.16927,-0.15625 0.5599,-0.15625 h 1.23698 V 9.8939613 h -1.47136 q -0.39062,0 -0.55989,-0.15625 -0.16927,-0.15625 -0.16927,-0.4036458 0,-0.234375 0.16927,-0.390625 0.16927,-0.15625 0.55989,-0.15625 z"
       id="path15" />
    <path
       d="m 205.45518,19.750732 h -11.14583 q 0.28645,2.122396 1.77083,3.424479 1.49739,1.289062 3.69792,1.289062 1.22395,0 2.5651,-0.403645 1.34114,-0.403646 2.1875,-1.067709 0.24739,-0.195312 0.42969,-0.195312 0.20833,0 0.36458,0.169271 0.15625,0.15625 0.15625,0.377604 0,0.221354 -0.20833,0.429687 -0.625,0.651042 -2.22657,1.223959 -1.58854,0.559895 -3.26822,0.559895 -2.8125,0 -4.70053,-1.835937 -1.875,-1.848958 -1.875,-4.466146 0,-2.382812 1.75782,-4.088541 1.77083,-1.705729 4.375,-1.705729 2.68229,0 4.41406,1.757812 1.73177,1.744792 1.70573,4.53125 z m -1.10677,-1.106771 q -0.32552,-1.809896 -1.71875,-2.942708 -1.38021,-1.132813 -3.29427,-1.132813 -1.91407,0 -3.29427,1.119792 -1.38021,1.119792 -1.71875,2.955729 z"
       id="path17" />
    <path
       d="m 231.69216,25.558023 -1.45834,1.09375 q 1.08073,-0.221354 1.78386,-0.221354 1.14583,0 2.2526,0.416667 0.78125,0.299479 1.21094,0.299479 0.75521,0 1.67969,-0.611979 0.36458,-0.234375 0.52083,-0.234375 0.23437,0 0.3776,0.143229 0.15625,0.15625 0.15625,0.403646 0,0.195312 -0.1302,0.338542 -0.27344,0.3125 -1.23698,0.729166 -0.72917,0.325521 -1.4323,0.325521 -0.54687,0 -1.51041,-0.351562 -0.96354,-0.351563 -1.86198,-0.351563 -0.63802,0 -1.57552,0.15625 -1.31511,0.221354 -2.10938,0.442708 -0.26041,0.06511 -0.3776,0.06511 -0.22136,0 -0.37761,-0.15625 -0.15625,-0.15625 -0.15625,-0.416667 0,-0.260417 0.29948,-0.46875 l 2.4349,-1.757813 q -2.17448,-0.533854 -3.73698,-2.682291 -1.54948,-2.148438 -1.54948,-5.169271 0,-3.528646 2.00521,-5.768229 2.01823,-2.2395832 4.66146,-2.2395832 2.64323,0 4.64844,2.2395832 2.01822,2.239583 2.01822,5.768229 0,3.476563 -1.97916,5.729167 -1.97917,2.239583 -4.55729,2.278645 z m 5.42968,-8.007812 q 0,-2.669271 -1.54948,-4.791666 -1.54947,-2.122396 -4.01041,-2.122396 -2.30469,0 -3.94531,2.03125 -1.62761,2.018229 -1.62761,4.882812 0,3.046875 1.70573,4.986979 1.71875,1.927083 3.86719,1.927083 2.46094,0 4.01041,-2.109374 1.54948,-2.122396 1.54948,-4.804688 z"
       id="path19" />
    <path
       d="m 251.28851,25.128336 v -1.601563 q -2.23959,2.03125 -4.84375,2.03125 -1.60156,0 -2.4349,-0.872395 -1.08073,-1.145834 -1.08073,-2.669271 v -7.057292 h -1.47135 q -0.39063,0 -0.5599,-0.15625 -0.16927,-0.15625 -0.16927,-0.403645 0,-0.234375 0.16927,-0.390625 0.16927,-0.15625 0.5599,-0.15625 h 2.5651 v 8.164062 q 0,1.067708 0.67709,1.757812 0.67708,0.690104 1.6927,0.690104 2.66928,0 4.89584,-2.447916 v -7.057292 h -2.01823 q -0.39063,0 -0.5599,-0.15625 -0.16927,-0.15625 -0.16927,-0.403645 0,-0.234375 0.16927,-0.390625 0.16927,-0.15625 0.5599,-0.15625 h 3.11198 v 10.182291 h 0.92448 q 0.39062,0 0.55989,0.15625 0.16927,0.143229 0.16927,0.390625 0,0.234375 -0.16927,0.390625 -0.16927,0.15625 -0.55989,0.15625 z"
       id="path21" />
    <path
       d="m 264.08799,8.2403155 v 2.8255205 h -1.61458 V 8.2403155 Z m 0.0391,5.6119795 v 10.182291 h 4.29688 q 0.40365,0 0.57292,0.15625 0.16927,0.143229 0.16927,0.390625 0,0.234375 -0.16927,0.390625 -0.16927,0.15625 -0.57292,0.15625 h -9.6875 q -0.39063,0 -0.5599,-0.15625 -0.16927,-0.15625 -0.16927,-0.390625 0,-0.247396 0.16927,-0.390625 0.16927,-0.15625 0.5599,-0.15625 h 4.29687 v -9.075521 h -3.1901 q -0.39062,0 -0.57292,-0.15625 -0.16927,-0.15625 -0.16927,-0.390625 0,-0.247395 0.16927,-0.403645 0.16927,-0.15625 0.57292,-0.15625 z"
       id="path23" />
    <path
       d="m 284.11403,14.959065 v -0.364583 q 0,-0.403646 0.15625,-0.572917 0.15625,-0.16927 0.39063,-0.16927 0.24739,0 0.40364,0.16927 0.15625,0.169271 0.15625,0.572917 v 2.473958 q -0.013,0.403646 -0.16927,0.572917 -0.14323,0.169271 -0.39062,0.169271 -0.22136,0 -0.37761,-0.143229 -0.14323,-0.15625 -0.16927,-0.507813 -0.0781,-0.924479 -1.22396,-1.757812 -1.13281,-0.833334 -3.05989,-0.833334 -2.4349,0 -3.69792,1.523438 -1.26302,1.523437 -1.26302,3.489583 0,2.122396 1.39323,3.502604 1.39323,1.380208 3.60677,1.380208 1.27604,0 2.59115,-0.46875 1.32812,-0.46875 2.39583,-1.510416 0.27344,-0.260417 0.48177,-0.260417 0.22135,0 0.36458,0.15625 0.15625,0.143229 0.15625,0.364584 0,0.559895 -1.3151,1.41927 -2.1224,1.393229 -4.72656,1.393229 -2.64323,0 -4.34896,-1.679687 -1.69271,-1.692708 -1.69271,-4.283854 0,-2.643229 1.73177,-4.388021 1.74479,-1.744791 4.38802,-1.744791 2.51302,0 4.21875,1.497395 z"
       id="path25" />
    <path
       d="m 293.33278,20.258544 v 4.869792 h -2.56511 q -0.39062,0 -0.55989,-0.15625 -0.16927,-0.15625 -0.16927,-0.390625 0,-0.247396 0.16927,-0.390625 0.16927,-0.15625 0.55989,-0.15625 h 1.47136 V 9.8939613 h -1.47136 q -0.39062,0 -0.55989,-0.15625 -0.16927,-0.15625 -0.16927,-0.4036458 0,-0.234375 0.16927,-0.390625 0.16927,-0.15625 0.55989,-0.15625 h 2.56511 V 18.865315 l 4.64844,-3.90625 h -0.5599 q -0.39062,0 -0.5599,-0.15625 -0.16927,-0.15625 -0.16927,-0.390625 0,-0.247395 0.16927,-0.403645 0.16928,-0.15625 0.5599,-0.15625 h 3.5026 q 0.40365,0 0.57292,0.15625 0.16927,0.15625 0.16927,0.403645 0,0.234375 -0.16927,0.390625 -0.16927,0.15625 -0.57292,0.15625 h -1.26302 l -4.27083,3.567709 5.40365,5.507812 h 1.26302 q 0.40364,0 0.57291,0.15625 0.16927,0.143229 0.16927,0.390625 0,0.234375 -0.16927,0.390625 -0.16927,0.15625 -0.57291,0.15625 h -3.54167 q -0.39062,0 -0.5599,-0.15625 -0.16927,-0.15625 -0.16927,-0.390625 0,-0.247396 0.16927,-0.390625 0.16928,-0.15625 0.5599,-0.15625 h 0.76823 l -4.70052,-4.830729 z"
       id="path27" />
    <path
       d="M 322.89007,24.034586 V 10.987711 h -1.47136 q -0.39062,0 -0.55989,-0.143229 -0.16928,-0.15625 -0.16928,-0.403646 0,-0.247396 0.16928,-0.390625 0.16927,-0.1562497 0.55989,-0.1562497 h 6.875 q 2.04427,0 3.32031,1.1848957 1.28907,1.171875 1.28907,2.760417 0,2.005208 -2.14844,3.242187 1.70573,0.611979 2.5,1.627604 0.79427,1.015625 0.79427,2.239584 0,1.09375 -0.52083,2.005208 -0.52084,0.898437 -1.60157,1.536458 -1.0677,0.638021 -2.33073,0.638021 h -8.17708 q -0.39062,0 -0.55989,-0.15625 -0.16928,-0.15625 -0.16928,-0.390625 0,-0.247396 0.16928,-0.390625 0.16927,-0.15625 0.55989,-0.15625 z m 1.09375,-7.369792 h 3.86718 q 1.23698,0 2.26563,-0.455729 0.79427,-0.364583 1.23698,-1.054687 0.44271,-0.690104 0.44271,-1.40625 0,-1.028646 -0.96355,-1.888021 -0.96354,-0.872396 -2.51302,-0.872396 h -4.33593 z m 0,7.369792 h 5.53385 q 1.05469,0 1.83594,-0.46875 0.78125,-0.46875 1.18489,-1.158854 0.40365,-0.690104 0.40365,-1.432292 0,-0.833333 -0.58594,-1.614583 -0.57292,-0.78125 -1.60156,-1.184896 -1.02865,-0.403646 -2.83854,-0.403646 h -3.93229 z"
       id="path29" />
    <path
       d="m 342.25205,13.852295 v 2.760416 q 2.13542,-1.927083 3.1901,-2.473958 1.06771,-0.559896 1.96615,-0.559896 0.97656,0 1.8099,0.664063 0.84635,0.651041 0.84635,0.989583 0,0.247396 -0.16927,0.416667 -0.15625,0.15625 -0.40365,0.15625 -0.13021,0 -0.22135,-0.03906 -0.0912,-0.05208 -0.33854,-0.299479 -0.45573,-0.455729 -0.79427,-0.625 -0.33855,-0.169271 -0.66407,-0.169271 -0.71614,0 -1.73177,0.572917 -1.0026,0.572916 -3.48958,2.799479 v 5.989583 h 4.84375 q 0.40365,0 0.57292,0.15625 0.16927,0.143229 0.16927,0.390625 0,0.234375 -0.16927,0.390625 -0.16927,0.15625 -0.57292,0.15625 h -8.58073 q -0.39062,0 -0.5599,-0.143229 -0.16927,-0.15625 -0.16927,-0.390625 0,-0.221354 0.15625,-0.364584 0.16927,-0.15625 0.57292,-0.15625 h 2.64323 v -9.114583 h -2.01823 q -0.39062,0 -0.5599,-0.15625 -0.16927,-0.15625 -0.16927,-0.403645 0,-0.234375 0.15625,-0.390625 0.16927,-0.15625 0.57292,-0.15625 z"
       id="path31" />
    <path
       d="m 365.67653,19.516357 q 0,2.5 -1.79687,4.270833 -1.78386,1.770833 -4.3099,1.770833 -2.55208,0 -4.33593,-1.770833 -1.78386,-1.783854 -1.78386,-4.270833 0,-2.5 1.78386,-4.270833 1.78385,-1.783854 4.33593,-1.783854 2.52604,0 4.3099,1.770833 1.79687,1.770833 1.79687,4.283854 z m -1.10677,0 q 0,-2.057292 -1.47135,-3.502604 -1.45833,-1.445313 -3.54167,-1.445313 -2.08333,0 -3.55469,1.458334 -1.45833,1.445312 -1.45833,3.489583 0,2.03125 1.45833,3.489583 1.47136,1.458333 3.55469,1.458333 2.08334,0 3.54167,-1.445312 1.47135,-1.458333 1.47135,-3.502604 z"
       id="path33" />
    <path
       d="m 379.33538,25.128336 -1.35417,0.01302 -2.40885,-7.03125 -2.39584,7.03125 -1.35416,-0.01302 -2.26563,-10.169271 h -0.53385 q -0.39063,0 -0.5599,-0.15625 -0.16927,-0.15625 -0.16927,-0.403645 0,-0.234375 0.16927,-0.390625 0.16927,-0.15625 0.5599,-0.15625 h 3.00781 q 0.39063,0 0.5599,0.15625 0.16927,0.15625 0.16927,0.403645 0,0.234375 -0.16927,0.390625 -0.16927,0.15625 -0.5599,0.15625 h -1.39323 l 1.94011,8.671875 2.33072,-6.927083 h 1.30209 l 2.39583,6.927083 1.86198,-8.671875 h -1.38021 q -0.39062,0 -0.57291,-0.15625 -0.16928,-0.15625 -0.16928,-0.403645 0,-0.234375 0.16928,-0.390625 0.16927,-0.15625 0.57291,-0.15625 h 2.99479 q 0.40365,0 0.57292,0.15625 0.16927,0.15625 0.16927,0.403645 0,0.234375 -0.16927,0.390625 -0.16927,0.15625 -0.57292,0.15625 h -0.52083 z"
       id="path35" />
    <path
       d="m 388.0333,13.852295 v 1.653645 q 1.14583,-1.158854 2.07031,-1.601562 0.92448,-0.442708 2.08334,-0.442708 1.25,0 2.27864,0.533854 0.72917,0.390625 1.31511,1.302083 0.59895,0.898437 0.59895,1.848958 v 6.888021 h 0.92448 q 0.39063,0 0.5599,0.15625 0.16927,0.143229 0.16927,0.390625 0,0.234375 -0.16927,0.390625 -0.16927,0.15625 -0.5599,0.15625 h -2.92968 q -0.40365,0 -0.57292,-0.15625 -0.16927,-0.15625 -0.16927,-0.390625 0,-0.247396 0.16927,-0.390625 0.16927,-0.15625 0.57292,-0.15625 h 0.91145 v -6.705729 q 0,-1.158854 -0.84635,-1.953125 -0.84635,-0.807292 -2.26563,-0.807292 -1.08072,0 -1.875,0.442709 -0.79427,0.429687 -2.26562,2.161458 v 6.861979 h 1.23698 q 0.39062,0 0.55989,0.15625 0.16928,0.143229 0.16928,0.390625 0,0.234375 -0.16928,0.390625 -0.16927,0.15625 -0.55989,0.15625 h -3.56771 q -0.39062,0 -0.5599,-0.15625 -0.16927,-0.15625 -0.16927,-0.390625 0,-0.247396 0.16927,-0.390625 0.16928,-0.15625 0.5599,-0.15625 h 1.23698 v -9.075521 h -0.92448 q -0.39062,0 -0.5599,-0.15625 -0.16927,-0.15625 -0.16927,-0.403645 0,-0.234375 0.16927,-0.390625 0.16928,-0.15625 0.5599,-0.15625 z"
       id="path37" />
    <path
       d="m 164.89528,51.104901 v 6.263021 h 3.75 q 0.39063,0 0.5599,0.15625 0.16927,0.143229 0.16927,0.390625 0,0.234375 -0.16927,0.390625 -0.16927,0.15625 -0.5599,0.15625 h -6.3151 q -0.39063,0 -0.5599,-0.15625 -0.16927,-0.15625 -0.16927,-0.390625 0,-0.247396 0.16927,-0.390625 0.16927,-0.15625 0.5599,-0.15625 h 1.47135 V 44.321047 h -1.47135 q -0.39063,0 -0.5599,-0.143229 -0.16927,-0.15625 -0.16927,-0.403646 0,-0.247396 0.19532,-0.416666 0.14322,-0.130209 0.53385,-0.130209 h 12.04427 v 3.763021 q 0,0.390625 -0.15625,0.559896 -0.15625,0.169271 -0.39062,0.169271 -0.2474,0 -0.40365,-0.169271 -0.15625,-0.169271 -0.15625,-0.559896 v -2.669271 h -8.3724 v 5.690104 h 3.91927 v -1.236979 q 0,-0.390625 0.15625,-0.559896 0.15625,-0.169271 0.40365,-0.169271 0.23438,0 0.39063,0.169271 0.15625,0.169271 0.15625,0.559896 v 3.567708 q 0,0.390625 -0.15625,0.559896 -0.15625,0.169271 -0.39063,0.169271 -0.2474,0 -0.40365,-0.169271 -0.15625,-0.169271 -0.15625,-0.559896 v -1.236979 z"
       id="path39" />
    <path
       d="m 189.64789,52.849693 q 0,2.5 -1.79688,4.270833 -1.78385,1.770833 -4.30989,1.770833 -2.55209,0 -4.33594,-1.770833 -1.78385,-1.783854 -1.78385,-4.270833 0,-2.5 1.78385,-4.270833 1.78385,-1.783855 4.33594,-1.783855 2.52604,0 4.30989,1.770834 1.79688,1.770833 1.79688,4.283854 z m -1.10677,0 q 0,-2.057292 -1.47136,-3.502604 -1.45833,-1.445313 -3.54166,-1.445313 -2.08334,0 -3.55469,1.458334 -1.45834,1.445312 -1.45834,3.489583 0,2.03125 1.45834,3.489583 1.47135,1.458333 3.55469,1.458333 2.08333,0 3.54166,-1.445312 1.47136,-1.458333 1.47136,-3.502604 z"
       id="path41" />
    <path
       d="m 200.28591,52.563234 5.01302,4.804688 q 0.49479,0 0.625,0.05208 0.13021,0.03906 0.22135,0.182292 0.10417,0.143229 0.10417,0.3125 0,0.234375 -0.16927,0.390625 -0.16927,0.15625 -0.57292,0.15625 h -3.51562 q -0.40365,0 -0.57292,-0.15625 -0.16927,-0.15625 -0.16927,-0.390625 0,-0.247396 0.16927,-0.390625 0.16927,-0.15625 0.57292,-0.15625 h 1.80989 l -4.25781,-4.075521 -4.23177,4.075521 h 1.82292 q 0.39062,0 0.55989,0.15625 0.16927,0.143229 0.16927,0.390625 0,0.234375 -0.16927,0.390625 -0.16927,0.15625 -0.55989,0.15625 h -3.55469 q -0.39063,0 -0.5599,-0.15625 -0.16927,-0.15625 -0.16927,-0.390625 0,-0.169271 0.0911,-0.3125 0.10416,-0.143229 0.22135,-0.182292 0.13021,-0.05208 0.625,-0.05208 l 5.01302,-4.804688 -4.45312,-4.270833 q -0.46875,0 -0.59896,-0.05208 -0.11719,-0.05208 -0.22135,-0.195313 -0.0911,-0.143229 -0.0911,-0.3125 0,-0.234375 0.16927,-0.390625 0.16927,-0.15625 0.57292,-0.15625 h 2.98177 q 0.40364,0 0.55989,0.15625 0.16927,0.15625 0.16927,0.403646 0,0.234375 -0.16927,0.390625 -0.15625,0.15625 -0.55989,0.15625 h -1.30209 l 3.6849,3.554688 3.71094,-3.554688 h -1.30209 q -0.39062,0 -0.57291,-0.15625 -0.16927,-0.15625 -0.16927,-0.403646 0,-0.234375 0.16927,-0.390625 0.16927,-0.15625 0.57291,-0.15625 h 2.98177 q 0.39063,0 0.5599,0.15625 0.16927,0.15625 0.16927,0.403646 0,0.15625 -0.10417,0.299479 -0.0911,0.14323 -0.22135,0.195313 -0.11719,0.05208 -0.58594,0.05208 z"
       id="path43" />
    <path
       d="m 235.81976,44.321047 v 9.661458 q 0,1.992188 -1.48437,3.450521 -1.48438,1.458333 -3.54167,1.458333 -1.23698,0 -2.4349,-0.559896 -1.18489,-0.572916 -2.59114,-1.861979 v -4.036458 q 0,-0.390625 0.15625,-0.559896 0.15625,-0.169271 0.39062,-0.169271 0.2474,0 0.40365,0.169271 0.15625,0.169271 0.15625,0.559896 l -0.013,3.515625 q 1.0026,0.924479 1.97916,1.393229 0.98959,0.455729 1.95313,0.455729 1.06771,0 2.01823,-0.520833 0.71614,-0.390625 1.30208,-1.315104 0.59896,-0.924479 0.59896,-1.979167 v -9.661458 h -4.28385 q -0.40365,0 -0.57292,-0.143229 -0.16927,-0.15625 -0.16927,-0.403646 0,-0.247396 0.16927,-0.390625 0.16927,-0.15625 0.57292,-0.15625 h 7.99479 q 0.39062,0 0.55989,0.15625 0.16927,0.143229 0.16927,0.390625 0,0.247396 -0.16927,0.403646 -0.16927,0.143229 -0.55989,0.143229 z"
       id="path45" />
    <path
       d="m 251.28851,58.461672 v -1.601563 q -2.23959,2.03125 -4.84375,2.03125 -1.60156,0 -2.4349,-0.872395 -1.08073,-1.145834 -1.08073,-2.669271 v -7.057292 h -1.47135 q -0.39063,0 -0.5599,-0.15625 -0.16927,-0.15625 -0.16927,-0.403646 0,-0.234375 0.16927,-0.390625 0.16927,-0.15625 0.5599,-0.15625 h 2.5651 v 8.164063 q 0,1.067708 0.67709,1.757812 0.67708,0.690104 1.6927,0.690104 2.66928,0 4.89584,-2.447916 v -7.057292 h -2.01823 q -0.39063,0 -0.5599,-0.15625 -0.16927,-0.15625 -0.16927,-0.403646 0,-0.234375 0.16927,-0.390625 0.16927,-0.15625 0.5599,-0.15625 h 3.11198 v 10.182292 h 0.92448 q 0.39062,0 0.55989,0.15625 0.16927,0.143229 0.16927,0.390625 0,0.234375 -0.16927,0.390625 -0.16927,0.15625 -0.55989,0.15625 z"
       id="path47" />
    <path
       d="m 258.56716,47.18563 v 1.106771 q 1.39323,-1.497396 2.79948,-1.497396 0.84635,0 1.48437,0.45573 0.63802,0.442708 1.06771,1.354166 0.72917,-0.911458 1.47136,-1.354166 0.7552,-0.45573 1.51041,-0.45573 1.1849,0 1.88802,0.76823 0.92448,0.989583 0.92448,2.161458 v 7.643229 h 0.92448 q 0.39063,0 0.5599,0.15625 0.16927,0.143229 0.16927,0.390625 0,0.234375 -0.16927,0.390625 -0.16927,0.15625 -0.5599,0.15625 h -2.01823 V 49.82886 q 0,-0.833334 -0.50781,-1.380209 -0.50781,-0.546875 -1.17188,-0.546875 -0.59895,0 -1.26302,0.455729 -0.66406,0.442709 -1.51041,1.757813 v 7.252604 h 0.91146 q 0.39062,0 0.55989,0.15625 0.16927,0.143229 0.16927,0.390625 0,0.234375 -0.16927,0.390625 -0.16927,0.15625 -0.55989,0.15625 h -2.01823 v -8.554687 q 0,-0.872396 -0.52084,-1.432292 -0.50781,-0.572917 -1.14583,-0.572917 -0.58594,0 -1.15885,0.377604 -0.79428,0.533855 -1.66667,1.835938 v 7.252604 h 0.92448 q 0.39062,0 0.55989,0.15625 0.16927,0.143229 0.16927,0.390625 0,0.234375 -0.16927,0.390625 -0.16927,0.15625 -0.55989,0.15625 h -2.94271 q -0.39063,0 -0.5599,-0.15625 -0.16927,-0.15625 -0.16927,-0.390625 0,-0.247396 0.16927,-0.390625 0.16927,-0.15625 0.5599,-0.15625 h 0.92448 v -9.075521 h -0.92448 q -0.39063,0 -0.5599,-0.15625 -0.16927,-0.15625 -0.16927,-0.403646 0,-0.234375 0.16927,-0.390625 0.16927,-0.15625 0.5599,-0.15625 z"
       id="path49" />
    <path
       d="m 275.42914,47.18563 v 1.992188 q 0.97656,-1.184896 2.09635,-1.783854 1.11979,-0.598959 2.64323,-0.598959 1.61458,0 2.98177,0.755209 1.36719,0.755208 2.10937,2.109375 0.75521,1.341146 0.75521,2.82552 0,2.356771 -1.69271,4.036459 -1.67968,1.666666 -4.14062,1.666666 -2.92969,0 -4.7526,-2.382812 v 6.588541 h 2.65625 q 0.39062,0 0.55989,0.14323 0.16927,0.15625 0.16927,0.403645 0,0.234375 -0.16927,0.390625 -0.16927,0.15625 -0.55989,0.15625 h -5.22136 q -0.39062,0 -0.55989,-0.15625 -0.16928,-0.143229 -0.16928,-0.390625 0,-0.247395 0.16928,-0.403645 0.16927,-0.14323 0.55989,-0.14323 h 1.47136 V 48.292401 h -1.47136 q -0.39062,0 -0.55989,-0.15625 -0.16928,-0.15625 -0.16928,-0.403646 0,-0.234375 0.16928,-0.390625 0.16927,-0.15625 0.55989,-0.15625 z m 9.47916,5.299479 q 0,-1.88802 -1.38021,-3.229166 -1.36718,-1.354167 -3.34635,-1.354167 -1.99219,0 -3.3724,1.354167 -1.3802,1.354167 -1.3802,3.229166 0,1.888021 1.3802,3.242188 1.38021,1.354167 3.3724,1.354167 1.96615,0 3.34635,-1.341146 1.38021,-1.354167 1.38021,-3.255209 z"
       id="path51" />
    <path
       d="m 299.16611,47.901776 q 0,-0.377604 0.15625,-0.546875 0.15625,-0.169271 0.39063,-0.169271 0.24739,0 0.40364,0.169271 0.15625,0.169271 0.15625,0.572917 v 1.875 q 0,0.390625 -0.15625,0.559896 -0.15625,0.169271 -0.40364,0.169271 -0.22136,0 -0.37761,-0.14323 -0.14323,-0.143229 -0.16927,-0.46875 -0.0781,-0.78125 -0.80729,-1.289062 -1.06771,-0.729167 -2.82552,-0.729167 -1.83594,0 -2.85156,0.742188 -0.76823,0.559896 -0.76823,1.25 0,0.78125 0.91146,1.302083 0.625,0.364583 2.36979,0.559896 2.27864,0.247396 3.16406,0.559896 1.26302,0.455729 1.875,1.26302 0.625,0.807292 0.625,1.744792 0,1.393229 -1.34115,2.486979 -1.34114,1.080729 -3.93229,1.080729 -2.59114,0 -4.24479,-1.315104 0,0.442709 -0.0521,0.572917 -0.0521,0.130208 -0.19531,0.221354 -0.13021,0.09115 -0.29948,0.09115 -0.23438,0 -0.39063,-0.169271 -0.15625,-0.169271 -0.15625,-0.559896 v -2.252604 q 0,-0.390625 0.14323,-0.559896 0.15625,-0.169271 0.40365,-0.169271 0.23437,0 0.39062,0.169271 0.16927,0.15625 0.16927,0.429688 0,0.598958 0.29948,1.002604 0.45573,0.625 1.44531,1.041667 1.00261,0.403645 2.44792,0.403645 2.13542,0 3.17708,-0.79427 1.04167,-0.794271 1.04167,-1.679688 0,-1.015625 -1.05469,-1.627604 -1.06771,-0.611979 -3.11198,-0.820313 -2.03125,-0.208333 -2.91666,-0.546875 -0.88542,-0.338541 -1.38021,-1.015625 -0.49479,-0.677083 -0.49479,-1.458333 0,-1.40625 1.38021,-2.226562 1.3802,-0.833334 3.29427,-0.833334 2.26562,0 3.68489,1.106771 z"
       id="path53" />
    <path
       d="m 334.24423,50.883547 q 0,2.1875 -0.88541,4.0625 -0.88542,1.861979 -2.44792,2.903646 -1.54948,1.041666 -3.33333,1.041666 -2.64323,0 -4.66146,-2.239583 -2.00521,-2.252604 -2.00521,-5.768229 0,-3.528646 2.00521,-5.768229 2.01823,-2.239583 4.66146,-2.239583 1.78385,0 3.33333,1.041666 1.54948,1.041667 2.43489,2.903646 0.89844,1.861979 0.89844,4.0625 z m -1.10677,0 q 0,-2.669271 -1.54948,-4.791667 -1.54948,-2.122395 -4.01041,-2.122395 -2.30469,0 -3.94532,2.03125 -1.6276,2.018229 -1.6276,4.882812 0,3.046875 1.70573,4.986979 1.71875,1.927083 3.86719,1.927083 2.46093,0 4.01041,-2.109375 1.54948,-2.122395 1.54948,-4.804687 z"
       id="path55" />
    <path
       d="m 344.51767,58.461672 h -1.84895 l -4.49219,-10.169271 h -1.11979 q -0.39063,0 -0.5599,-0.15625 -0.16927,-0.15625 -0.16927,-0.403646 0,-0.234375 0.16927,-0.390625 0.16927,-0.15625 0.5599,-0.15625 h 4.10156 q 0.39062,0 0.5599,0.15625 0.16927,0.15625 0.16927,0.403646 0,0.234375 -0.16927,0.390625 -0.16928,0.15625 -0.5599,0.15625 h -1.8099 l 4.01042,9.075521 h 0.48177 l 3.93229,-9.075521 h -1.82291 q -0.39063,0 -0.5599,-0.15625 -0.16927,-0.15625 -0.16927,-0.403646 0,-0.234375 0.16927,-0.390625 0.16927,-0.15625 0.5599,-0.15625 h 4.11458 q 0.40365,0 0.5599,0.15625 0.16927,0.15625 0.16927,0.403646 0,0.234375 -0.16927,0.390625 -0.15625,0.15625 -0.5599,0.15625 h -1.10677 z"
       id="path57" />
    <path
       d="m 365.48122,53.084068 h -11.14583 q 0.28646,2.122396 1.77083,3.424479 1.4974,1.289062 3.69792,1.289062 1.22396,0 2.5651,-0.403645 1.34115,-0.403646 2.1875,-1.067709 0.2474,-0.195312 0.42969,-0.195312 0.20833,0 0.36458,0.169271 0.15625,0.15625 0.15625,0.377604 0,0.221354 -0.20833,0.429687 -0.625,0.651042 -2.22656,1.223958 -1.58854,0.559896 -3.26823,0.559896 -2.8125,0 -4.70052,-1.835937 -1.875,-1.848958 -1.875,-4.466146 0,-2.382812 1.75781,-4.088541 1.77083,-1.70573 4.375,-1.70573 2.68229,0 4.41406,1.757813 1.73177,1.744792 1.70573,4.53125 z m -1.10677,-1.106771 q -0.32552,-1.809896 -1.71875,-2.942708 -1.38021,-1.132813 -3.29427,-1.132813 -1.91406,0 -3.29427,1.119792 -1.38021,1.119792 -1.71875,2.955729 z"
       id="path59" />
    <path
       d="m 374.25725,47.18563 v 2.760417 q 2.13542,-1.927083 3.19011,-2.473958 1.06771,-0.559896 1.96614,-0.559896 0.97657,0 1.8099,0.664062 0.84635,0.651042 0.84635,0.989584 0,0.247396 -0.16927,0.416666 -0.15625,0.15625 -0.40364,0.15625 -0.13021,0 -0.22136,-0.03906 -0.0911,-0.05208 -0.33854,-0.299479 -0.45573,-0.455729 -0.79427,-0.625 -0.33854,-0.169271 -0.66406,-0.169271 -0.71615,0 -1.73177,0.572917 -1.00261,0.572916 -3.48959,2.799479 v 5.989583 h 4.84375 q 0.40365,0 0.57292,0.15625 0.16927,0.143229 0.16927,0.390625 0,0.234375 -0.16927,0.390625 -0.16927,0.15625 -0.57292,0.15625 h -8.58073 q -0.39062,0 -0.55989,-0.143229 -0.16927,-0.15625 -0.16927,-0.390625 0,-0.221354 0.15625,-0.364584 0.16927,-0.15625 0.57291,-0.15625 h 2.64323 v -9.114583 h -2.01823 q -0.39062,0 -0.55989,-0.15625 -0.16927,-0.15625 -0.16927,-0.403646 0,-0.234375 0.15625,-0.390625 0.16927,-0.15625 0.57291,-0.15625 z"
       id="path61" />
    <path
       d="m 168.07237,77.654383 v 13.046875 h 2.83854 q 0.39062,0 0.55989,0.15625 0.16928,0.143229 0.16928,0.390625 0,0.234375 -0.16928,0.390625 -0.16927,0.15625 -0.55989,0.15625 h -6.78386 q -0.39062,0 -0.55989,-0.15625 -0.16927,-0.15625 -0.16927,-0.390625 0,-0.247396 0.16927,-0.390625 0.16927,-0.15625 0.55989,-0.15625 h 2.83855 V 77.654383 h -4.47917 v 3.789062 q 0,0.403646 -0.15625,0.572917 -0.14323,0.169271 -0.39063,0.169271 -0.23437,0 -0.39062,-0.169271 -0.15625,-0.169271 -0.15625,-0.572917 v -4.882812 h 12.2526 v 4.882812 q 0,0.403646 -0.15625,0.572917 -0.14323,0.169271 -0.39062,0.169271 -0.2474,0 -0.40365,-0.169271 -0.14323,-0.169271 -0.14323,-0.572917 v -3.789062 z"
       id="path63" />
    <path
       d="m 179.93435,75.453862 v 6.731771 q 1.04166,-1.132813 1.99218,-1.588542 0.96354,-0.46875 2.14844,-0.46875 1.27604,0 2.16146,0.455729 0.89844,0.442709 1.49739,1.380209 0.59896,0.924479 0.59896,1.953125 v 6.783854 h 1.22396 q 0.40365,0 0.5599,0.15625 0.16927,0.143229 0.16927,0.390625 0,0.234375 -0.16927,0.390625 -0.15625,0.15625 -0.5599,0.15625 h -3.55469 q -0.40364,0 -0.57291,-0.15625 -0.16927,-0.15625 -0.16927,-0.390625 0,-0.247396 0.16927,-0.390625 0.16927,-0.15625 0.57291,-0.15625 h 1.22396 v -6.705729 q 0,-1.184896 -0.85937,-1.979167 -0.84636,-0.794271 -2.36979,-0.794271 -1.19792,0 -2.04428,0.585938 -0.61197,0.416666 -2.01822,1.966146 v 6.927083 h 1.23697 q 0.39063,0 0.5599,0.15625 0.16927,0.143229 0.16927,0.390625 0,0.234375 -0.16927,0.390625 -0.16927,0.15625 -0.5599,0.15625 h -3.5677 q -0.39063,0 -0.5599,-0.15625 -0.16927,-0.15625 -0.16927,-0.390625 0,-0.247396 0.16927,-0.390625 0.16927,-0.15625 0.5599,-0.15625 h 1.23698 V 76.560633 h -1.47136 q -0.39062,0 -0.55989,-0.15625 -0.16927,-0.15625 -0.16927,-0.403646 0,-0.234375 0.16927,-0.390625 0.16927,-0.15625 0.55989,-0.15625 z"
       id="path65" />
    <path
       d="m 205.45518,86.417404 h -11.14583 q 0.28645,2.122395 1.77083,3.424479 1.49739,1.289062 3.69792,1.289062 1.22395,0 2.5651,-0.403646 1.34114,-0.403645 2.1875,-1.067708 0.24739,-0.195312 0.42969,-0.195312 0.20833,0 0.36458,0.16927 0.15625,0.15625 0.15625,0.377605 0,0.221354 -0.20833,0.429687 -0.625,0.651042 -2.22657,1.223958 -1.58854,0.559896 -3.26822,0.559896 -2.8125,0 -4.70053,-1.835937 -1.875,-1.848959 -1.875,-4.466146 0,-2.382812 1.75782,-4.088542 1.77083,-1.705729 4.375,-1.705729 2.68229,0 4.41406,1.757813 1.73177,1.744791 1.70573,4.53125 z m -1.10677,-1.106771 q -0.32552,-1.809896 -1.71875,-2.942708 -1.38021,-1.132813 -3.29427,-1.132813 -1.91407,0 -3.29427,1.119792 -1.38021,1.119791 -1.71875,2.955729 z"
       id="path67" />
    <path
       d="m 229.64789,77.654383 v 13.046875 h 7.26562 V 86.3523 q 0,-0.390625 0.15625,-0.559896 0.15625,-0.169271 0.40365,-0.169271 0.23437,0 0.39062,0.169271 0.15625,0.15625 0.15625,0.559896 v 5.442708 h -12.08333 q -0.39063,0 -0.5599,-0.15625 -0.16927,-0.15625 -0.16927,-0.390625 0,-0.247396 0.16927,-0.390625 0.16927,-0.15625 0.5599,-0.15625 h 2.60416 V 77.654383 h -2.60416 q -0.39063,0 -0.5599,-0.143229 -0.16927,-0.15625 -0.16927,-0.403646 0,-0.247396 0.16927,-0.390625 0.16927,-0.15625 0.5599,-0.15625 h 6.3151 q 0.39063,0 0.5599,0.15625 0.16927,0.143229 0.16927,0.390625 0,0.247396 -0.16927,0.403646 -0.16927,0.143229 -0.5599,0.143229 z"
       id="path69" />
    <path
       d="m 250.68955,91.795008 v -1.575521 q -2.38281,2.005208 -5.09115,2.005208 -1.96614,0 -3.07291,-0.989583 -1.10677,-1.002604 -1.10677,-2.447917 0,-1.588541 1.45833,-2.773437 1.45833,-1.184896 4.25781,-1.184896 0.75521,0 1.64063,0.104167 0.88541,0.09115 1.91406,0.299479 v -1.770833 q 0,-0.898438 -0.83333,-1.5625 -0.83334,-0.664063 -2.5,-0.664063 -1.27605,0 -3.58073,0.742188 -0.41667,0.130208 -0.53386,0.130208 -0.20833,0 -0.36458,-0.15625 -0.14323,-0.15625 -0.14323,-0.390625 0,-0.221354 0.13021,-0.351563 0.18229,-0.195312 1.47135,-0.533854 2.03125,-0.546875 3.07292,-0.546875 2.07031,0 3.22917,1.028646 1.15885,1.015625 1.15885,2.304688 v 7.239583 h 1.45833 q 0.40365,0 0.57292,0.15625 0.16927,0.143229 0.16927,0.390625 0,0.234375 -0.16927,0.390625 -0.16927,0.15625 -0.57292,0.15625 z m 0,-5.442708 q -0.76823,-0.221355 -1.6276,-0.325521 -0.85938,-0.104167 -1.8099,-0.104167 -2.38281,0 -3.72396,1.028646 -1.01562,0.768229 -1.01562,1.835937 0,0.989584 0.76823,1.666667 0.78125,0.677083 2.26562,0.677083 1.41927,0 2.63021,-0.559896 1.22396,-0.572916 2.51302,-1.809895 z"
       id="path71" />
    <path
       d="m 268.33278,80.518966 v 0.976563 l -8.1901,9.205729 h 7.39583 v -1.510417 q 0,-0.390625 0.14323,-0.559896 0.15625,-0.169271 0.40365,-0.169271 0.24739,0 0.40364,0.169271 0.15625,0.169271 0.15625,0.559896 l -0.013,2.604167 h -10 v -0.976563 l 8.15104,-9.192708 h -6.79687 v 1.484375 q 0,0.390625 -0.15625,0.559896 -0.15625,0.169271 -0.39063,0.169271 -0.24739,0 -0.40364,-0.169271 -0.15625,-0.169271 -0.15625,-0.559896 v -2.591146 z"
       id="path73" />
    <path
       d="m 279.62184,91.795008 -5.07812,-10.169271 h -0.32552 q -0.39063,0 -0.5599,-0.15625 -0.16927,-0.15625 -0.16927,-0.390625 0,-0.169271 0.0781,-0.299479 0.0911,-0.143229 0.22135,-0.195313 0.14323,-0.0651 0.42969,-0.0651 h 2.99479 q 0.39062,0 0.5599,0.15625 0.16927,0.15625 0.16927,0.403646 0,0.234375 -0.16927,0.390625 -0.16928,0.15625 -0.5599,0.15625 h -1.47135 l 4.46614,8.971354 4.40104,-8.971354 h -1.47135 q -0.39063,0 -0.5599,-0.15625 -0.16927,-0.15625 -0.16927,-0.403646 0,-0.234375 0.16927,-0.390625 0.16927,-0.15625 0.5599,-0.15625 h 2.98177 q 0.40365,0 0.57292,0.15625 0.16927,0.15625 0.16927,0.403646 0,0.169271 -0.10417,0.3125 -0.10417,0.143229 -0.23437,0.195313 -0.13021,0.03906 -0.72917,0.03906 l -6.92708,14.101562 h 1.70572 q 0.39063,0 0.5599,0.143229 0.16927,0.15625 0.16927,0.403646 0,0.234375 -0.16927,0.390625 -0.16927,0.15625 -0.5599,0.15625 h -6.30208 q -0.39062,0 -0.55989,-0.15625 -0.16928,-0.143229 -0.16928,-0.390625 0,-0.247396 0.16928,-0.403646 0.16927,-0.143229 0.55989,-0.143229 h 3.42448 z"
       id="path75" />
    <path
       d="M 307.26508,90.701258 V 77.654383 h -0.92448 q -0.39063,0 -0.5599,-0.143229 -0.16927,-0.15625 -0.16927,-0.403646 0,-0.247396 0.16927,-0.390625 0.16927,-0.15625 0.5599,-0.15625 h 5.88541 q 1.38021,0 2.51302,0.572917 1.14584,0.572916 1.7448,1.302083 1.02864,1.236979 1.5625,2.617187 0.3776,1.002605 0.3776,2.369792 v 1.510417 q 0,1.679687 -0.74219,3.255208 -0.74219,1.575521 -2.47396,2.747396 -1.28906,0.859375 -2.98177,0.859375 h -5.88541 q -0.39063,0 -0.5599,-0.15625 -0.16927,-0.15625 -0.16927,-0.390625 0,-0.247396 0.16927,-0.390625 0.16927,-0.15625 0.5599,-0.15625 z m 1.09375,0 h 3.97135 q 1.38021,0 2.57812,-0.898438 1.21094,-0.898437 1.8099,-2.148437 0.61198,-1.263021 0.61198,-2.486979 v -1.979167 q 0,-1.015625 -0.32552,-1.809896 -0.46875,-1.158854 -1.32813,-2.20052 -0.46875,-0.572917 -1.3802,-1.041667 -0.91146,-0.481771 -1.96615,-0.481771 h -3.97135 z"
       id="path77" />
    <path
       d="m 333.67132,86.183029 q 0,2.5 -1.79688,4.270833 -1.78385,1.770833 -4.3099,1.770833 -2.55208,0 -4.33593,-1.770833 -1.78386,-1.783854 -1.78386,-4.270833 0,-2.5 1.78386,-4.270834 1.78385,-1.783854 4.33593,-1.783854 2.52605,0 4.3099,1.770834 1.79688,1.770833 1.79688,4.283854 z m -1.10678,0 q 0,-2.057292 -1.47135,-3.502604 -1.45833,-1.445313 -3.54167,-1.445313 -2.08333,0 -3.55468,1.458333 -1.45834,1.445313 -1.45834,3.489584 0,2.03125 1.45834,3.489583 1.47135,1.458333 3.55468,1.458333 2.08334,0 3.54167,-1.445312 1.47135,-1.458334 1.47135,-3.502604 z"
       id="path79" />
    <path
       d="m 347.23903,82.524175 v -2.005209 h 2.5651 q 0.39063,0 0.5599,0.15625 0.16927,0.15625 0.16927,0.403646 0,0.234375 -0.16927,0.390625 -0.16927,0.15625 -0.5599,0.15625 h -1.47135 v 10.924479 q 0,1.09375 -0.46875,1.953125 -0.3125,0.572917 -1.04167,1.184896 -0.72916,0.611979 -1.32812,0.872396 -0.59896,0.260416 -1.60157,0.260416 h -3.09895 q -0.39063,0 -0.5599,-0.15625 -0.16927,-0.143229 -0.16927,-0.390625 0,-0.247396 0.16927,-0.403646 0.16927,-0.15625 0.5599,-0.15625 l 3.13802,0.01302 q 0.96354,0 1.73177,-0.494791 0.78125,-0.494792 1.28906,-1.445313 0.28646,-0.546875 0.28646,-1.393229 v -3.28125 q -1.75781,2.408854 -4.53125,2.408854 -2.25261,0 -3.89323,-1.666666 -1.6276,-1.679688 -1.6276,-4.036459 0,-2.35677 1.6276,-4.023437 1.64062,-1.666667 3.89323,-1.666667 2.77344,0 4.53125,2.395834 z m 0,3.29427 q 0,-1.927083 -1.32813,-3.255208 -1.3151,-1.328125 -3.15104,-1.328125 -1.83594,0 -3.15104,1.341146 -1.3151,1.328125 -1.3151,3.242187 0,1.927084 1.3151,3.268229 1.3151,1.328125 3.15104,1.328125 1.83594,0 3.15104,-1.328125 1.32813,-1.341145 1.32813,-3.268229 z"
       id="path81" />
  </g>
</svg>
