<?xml version="1.0" encoding="UTF-8" standalone="no"?>
<svg
   xmlns:dc="http://purl.org/dc/elements/1.1/"
   xmlns:cc="http://creativecommons.org/ns#"
   xmlns:rdf="http://www.w3.org/1999/02/22-rdf-syntax-ns#"
   xmlns:svg="http://www.w3.org/2000/svg"
   xmlns="http://www.w3.org/2000/svg"
   viewBox="160.544 8.54167 237.546 88.1125"
   version="1.1"
   id="svg2">
  <metadata
     id="metadata11">
    <rdf:RDF>
      <cc:Work
         rdf:about="">
        <dc:format>image/svg+xml</dc:format>
        <dc:type
           rdf:resource="http://purl.org/dc/dcmitype/StillImage" />
      </cc:Work>
    </rdf:RDF>
  </metadata>
  <defs
     id="defs9" />
  <g
     aria-label="The Quick BrownFox Jumps OverThe Lazy Dog"
     id="text4521"
     style="font-style:normal;font-variant:normal;font-weight:normal;font-stretch:normal;font-size:26.6667px;line-height:125%;font-family:Courier, monospace;font-variant-ligatures:normal;font-variant-caps:normal;font-variant-numeric:normal;font-feature-settings:normal;text-align:left;letter-spacing:0px;word-spacing:0px;writing-mode:lr-tb;text-anchor:start;fill:#000000;fill-opacity:1;stroke:none;stroke-width:1px;stroke-linecap:butt;stroke-linejoin:miter;stroke-opacity:1">
    <path
       d="M 168.2507,23.768336 V 11.475003 h 4.13333 v 1.76 c 0,0.506667 0.29334,0.88 0.72,0.88 0.45334,0 0.66667,-0.266667 0.66667,-0.88 v -3.12 h -12.45333 v 3.12 c 0,0.586667 0.24,0.88 0.69333,0.88 0.45333,0 0.69333,-0.293333 0.69333,-0.88 v -1.76 h 4.16 v 12.293333 h -2.64 c -0.58666,0 -0.88,0.24 -0.88,0.666667 0,0.453333 0.32,0.693333 0.88,0.693333 h 6.66667 c 0.56,0 0.88,-0.24 0.88,-0.693333 0,-0.426667 -0.29333,-0.666667 -0.88,-0.666667 z"
       id="path13" />
    <path
       d="m 180.09066,9.0483363 h -2.69333 c -0.56,0 -0.85334,0.24 -0.85334,0.6666667 0,0.453333 0.29334,0.693333 0.85334,0.693333 h 1.30666 v 13.36 h -1.06666 c -0.58667,0 -0.88,0.24 -0.88,0.666667 0,0.453333 0.32,0.693333 0.88,0.693333 h 3.52 c 0.56,0 0.88,-0.24 0.88,-0.693333 0,-0.426667 -0.29334,-0.666667 -0.88,-0.666667 h -1.06667 v -6.48 c 0.72,-0.8 1.17333,-1.306666 1.33333,-1.44 0.77334,-0.64 1.49334,-0.906666 2.50667,-0.906666 1.04,0 1.57333,0.16 2.16,0.64 0.64,0.506666 0.96,1.119999 0.96,1.866666 v 6.32 h -1.06667 c -0.56,0 -0.85333,0.24 -0.85333,0.666667 0,0.453333 0.29333,0.693333 0.85333,0.693333 h 3.52 c 0.56,0 0.88,-0.24 0.88,-0.693333 0,-0.426667 -0.29333,-0.666667 -0.88,-0.666667 h -1.06666 v -6.4 c 0,-2.186666 -1.84,-3.786666 -4.37334,-3.786666 -1.6,0 -2.69333,0.533333 -3.97333,1.946666 z"
       id="path15" />
    <path
       d="m 205.55728,19.928336 v -0.213333 -0.186667 c 0,-3.413333 -2.66666,-5.946666 -6.23999,-5.946666 -3.52,0 -6.24,2.506666 -6.24,5.733333 0,3.52 2.90666,6.24 6.61333,6.24 2.58667,0 5.76,-1.28 5.76,-2.293334 0,-0.373333 -0.29333,-0.666666 -0.66667,-0.666666 -0.16,0 -0.26666,0.05333 -0.48,0.213333 -1.06666,0.8 -2.98666,1.386667 -4.58666,1.386667 -2.77334,0 -4.85334,-1.706667 -5.22667,-4.266667 z m -11.06666,-1.36 c 0.45333,-2.186667 2.37333,-3.626666 4.82667,-3.626666 2.42666,0 4.37333,1.466666 4.8,3.626666 z"
       id="path17" />
    <path
       d="m 231.7172,25.528336 c 3.78667,-0.133333 6.61334,-3.493333 6.61334,-7.866667 0,-4.399999 -2.98667,-7.866666 -6.8,-7.866666 -3.78667,0 -6.77334,3.466667 -6.77334,7.866666 0,2.24 0.77334,4.293334 2.18667,5.813334 0.85333,0.933333 1.6,1.386666 2.90667,1.84 l -2.16,1.52 c -0.21334,0.16 -0.34667,0.346666 -0.34667,0.56 0,0.4 0.29333,0.72 0.66667,0.72 0.08,0 0.18666,-0.02667 0.29333,-0.05333 1.25333,-0.346666 2.93333,-0.613333 3.70667,-0.613333 0.69333,0 1.06666,0.08 1.78666,0.346667 0.8,0.266666 1.09334,0.346666 1.54667,0.346666 0.66667,0 1.30667,-0.186666 2.16,-0.666666 0.56,-0.293334 0.74667,-0.506667 0.74667,-0.826667 0,-0.4 -0.29334,-0.693333 -0.66667,-0.693333 -0.13333,0 -0.26667,0.02667 -0.4,0.133333 -0.82667,0.533333 -1.25333,0.693333 -1.78667,0.693333 -0.32,0 -0.50666,-0.05333 -1.14666,-0.266666 -0.8,-0.32 -1.41334,-0.426667 -2.24,-0.426667 -0.42667,0 -0.66667,0.02667 -1.2,0.106667 z m -0.24,-14.373333 c 3.06667,0 5.46667,2.88 5.46667,6.533333 0,3.573333 -2.42667,6.506667 -5.38667,6.506667 -2.98666,0 -5.41333,-2.933334 -5.41333,-6.533334 0,-3.546666 2.42667,-6.506666 5.33333,-6.506666 z"
       id="path19" />
    <path
       d="m 251.10383,25.128336 h 2.16 c 0.56,0 0.85333,-0.24 0.85333,-0.693333 0,-0.426667 -0.29333,-0.666667 -0.85333,-0.666667 h -0.77334 v -9.813333 h -3.22666 c -0.61334,0 -0.88,0.213333 -0.88,0.666667 0,0.453333 0.29333,0.693333 0.88,0.693333 h 1.84 v 6.613333 c -1.44,1.52 -2.98667,2.266667 -4.72,2.266667 -1.28,0 -2.29334,-0.96 -2.29334,-2.213334 v -8.026666 h -2.69333 c -0.58667,0 -0.85333,0.213333 -0.85333,0.666667 0,0.453333 0.29333,0.693333 0.85333,0.693333 h 1.30667 v 6.666666 c 0,2.16 1.49333,3.573334 3.70666,3.573334 1.70667,0 3.22667,-0.64 4.69334,-1.973334 z"
       id="path21" />
    <path
       d="m 264.22379,13.955003 h -4.4 c -0.58667,0 -0.85333,0.213333 -0.85333,0.666667 0,0.453333 0.29333,0.693333 0.85333,0.693333 h 3.01333 v 8.453333 h -4.13333 c -0.56,0 -0.85333,0.24 -0.85333,0.666667 0,0.453333 0.29333,0.693333 0.85333,0.693333 h 9.65333 c 0.56,0 0.88,-0.24 0.88,-0.693333 0,-0.426667 -0.29333,-0.666667 -0.88,-0.666667 h -4.13333 z m -0.0533,-5.4133333 h -1.86667 v 3.0133333 h 1.86667 z"
       id="path23" />
    <path
       d="m 283.95708,14.86167 c -1.06667,-0.826667 -2.48,-1.28 -4.05334,-1.28 -3.65333,0 -6.26666,2.533333 -6.26666,6.079999 0,3.44 2.56,5.893334 6.16,5.893334 1.78666,0 3.54666,-0.506667 4.96,-1.466667 0.8,-0.533333 1.2,-1.013333 1.2,-1.386667 0,-0.346666 -0.29334,-0.64 -0.64,-0.64 -0.21334,0 -0.34667,0.05333 -0.58667,0.293334 -1.33333,1.226666 -2.96,1.84 -4.88,1.84 -2.82667,0 -4.82667,-1.866667 -4.82667,-4.56 0,-2.8 1.94667,-4.693333 4.8,-4.693333 2.18667,0 3.97334,1.013333 4.13334,2.346666 0.0533,0.533333 0.26666,0.746667 0.66666,0.746667 0.45334,0 0.69334,-0.293334 0.69334,-0.826667 v -2.4 c 0,-0.56 -0.24,-0.853333 -0.69334,-0.853333 -0.45333,0 -0.66666,0.293333 -0.66666,0.853333 z"
       id="path25" />
    <path
       d="m 292.62371,20.355003 1.09333,-0.906667 4.42667,4.32 h -0.4 c -0.56,0 -0.85334,0.24 -0.85334,0.666667 0,0.453333 0.32,0.693333 0.85334,0.693333 h 3.49333 c 0.58667,0 0.88,-0.24 0.88,-0.693333 0,-0.426667 -0.29333,-0.666667 -0.88,-0.666667 h -1.12 l -5.36,-5.173333 4,-3.28 h 1.2 c 0.56,0 0.88,-0.24 0.88,-0.693333 0,-0.426667 -0.29333,-0.666667 -0.88,-0.666667 h -3.44 c -0.58667,0 -0.88,0.213333 -0.88,0.666667 0,0.453333 0.29333,0.693333 0.88,0.693333 h 0.18667 l -4.08,3.386666 V 9.0483363 h -2.69334 c -0.56,0 -0.85333,0.24 -0.85333,0.6666667 0,0.453333 0.29333,0.693333 0.85333,0.693333 h 1.30667 v 13.36 h -1.30667 c -0.56,0 -0.85333,0.24 -0.85333,0.666667 0,0.453333 0.29333,0.693333 0.85333,0.693333 h 2.69334 z"
       id="path27" />
    <path
       d="m 322.70362,23.768336 h -1.30666 c -0.56,0 -0.85334,0.24 -0.85334,0.666667 0,0.453333 0.29334,0.693333 0.85334,0.693333 h 8.18666 c 2.50667,0 4.53334,-1.866667 4.53334,-4.16 0,-1.706667 -1.09334,-3.013333 -3.17334,-3.786667 1.38667,-0.826666 2.05334,-1.813333 2.05334,-3.119999 0,-2.24 -2.02667,-3.946667 -4.69334,-3.946667 h -6.90666 c -0.56,0 -0.85334,0.213333 -0.85334,0.666667 0,0.453333 0.29334,0.693333 0.85334,0.693333 h 1.30666 z m 1.38667,-7.093333 v -5.2 h 4.24 c 1.84,0 3.28,1.12 3.28,2.56 0,1.546667 -1.54667,2.64 -3.73333,2.64 z m 0,7.093333 v -5.733333 h 3.84 c 1.6,0 2.45333,0.16 3.28,0.64 0.96,0.56 1.52,1.413333 1.52,2.32 0,1.546666 -1.41333,2.773333 -3.22667,2.773333 z"
       id="path29" />
    <path
       d="m 342.33024,13.955003 h -3.22666 c -0.56,0 -0.88,0.24 -0.88,0.666667 0,0.426666 0.32,0.693333 0.88,0.693333 h 1.84 v 8.453333 h -2.42667 c -0.56,0 -0.88,0.266667 -0.88,0.666667 0,0.453333 0.32,0.693333 0.88,0.693333 h 8.45333 c 0.53334,0 0.85334,-0.24 0.85334,-0.693333 0,-0.4 -0.32,-0.666667 -0.85334,-0.666667 h -4.64 v -5.546667 c 2.88,-2.586666 3.76,-3.173333 4.90667,-3.173333 0.53333,0 1.01333,0.24 1.65333,0.88 0.21334,0.186667 0.29334,0.24 0.53334,0.24 0.4,0 0.69333,-0.293333 0.69333,-0.72 0,-0.266666 -0.16,-0.506666 -0.66667,-0.906666 -0.72,-0.613334 -1.30666,-0.853334 -2.13333,-0.853334 -1.38667,0 -2.64,0.693334 -4.98667,2.773333 z"
       id="path31" />
    <path
       d="m 359.63688,13.58167 c -3.57333,0 -6.32,2.613333 -6.32,5.999999 0,3.306667 2.77333,5.973334 6.24,5.973334 3.46667,0 6.21333,-2.64 6.21333,-6 0,-3.28 -2.74666,-5.973333 -6.13333,-5.973333 z m -0.16,1.36 c 2.77333,0 4.90667,1.999999 4.90667,4.639999 0,2.56 -2.13334,4.613334 -4.82667,4.613334 -2.69333,0 -4.85333,-2.053334 -4.85333,-4.64 0,-2.533334 2.13333,-4.613333 4.77333,-4.613333 z"
       id="path33" />
    <path
       d="m 379.4235,25.128336 2.18667,-9.813333 h 0.4 c 0.58666,0 0.88,-0.24 0.88,-0.693333 0,-0.453334 -0.26667,-0.666667 -0.88,-0.666667 h -2.96 c -0.58667,0 -0.85334,0.213333 -0.85334,0.666667 0,0.453333 0.29334,0.693333 0.85334,0.693333 h 1.17333 l -1.70667,7.706666 -2.21333,-6.32 h -1.57333 l -2.18667,6.32 -1.76,-7.706666 h 1.22667 c 0.56,0 0.88,-0.24 0.88,-0.693333 0,-0.453334 -0.29334,-0.666667 -0.88,-0.666667 h -2.96 c -0.58667,0 -0.85334,0.213333 -0.85334,0.666667 0,0.453333 0.29334,0.693333 0.85334,0.693333 h 0.4 l 2.24,9.813333 h 1.57333 l 2.29333,-6.506667 2.32,6.506667 z"
       id="path35" />
    <path
       d="m 388.14345,13.955003 h -2.16 c -0.58666,0 -0.85333,0.213333 -0.85333,0.666667 0,0.453333 0.29333,0.693333 0.85333,0.693333 h 0.77334 v 8.453333 h -1.06667 c -0.58667,0 -0.88,0.24 -0.88,0.666667 0,0.453333 0.32,0.693333 0.88,0.693333 h 3.52 c 0.56,0 0.85333,-0.24 0.85333,-0.693333 0,-0.426667 -0.29333,-0.666667 -0.85333,-0.666667 h -1.06667 v -6.426667 c 1.62667,-1.999999 2.29334,-2.399999 3.92,-2.399999 0.96,0 1.46667,0.16 2.05334,0.64 0.64,0.533333 0.96,1.146666 0.96,1.866666 v 6.32 h -0.74667 c -0.58667,0 -0.88,0.24 -0.88,0.666667 0,0.453333 0.32,0.693333 0.88,0.693333 h 2.90667 c 0.53333,0 0.85333,-0.24 0.85333,-0.693333 0,-0.426667 -0.29333,-0.666667 -0.85333,-0.666667 h -0.77334 v -6.506667 c 0,-2.079999 -1.86666,-3.679999 -4.32,-3.679999 -1.62666,0 -2.58666,0.48 -4,1.973333 z"
       id="path37" />
    <path
       d="m 164.0907,51.368339 h 3.57333 v 1.04 c 0,0.56 0.24,0.826666 0.69334,0.826666 0.45333,0 0.69333,-0.293333 0.69333,-0.826666 v -3.44 c 0,-0.56 -0.24,-0.853334 -0.69333,-0.853334 -0.45334,0 -0.69334,0.293334 -0.69334,0.853334 v 1.04 h -3.57333 v -5.2 h 8.08 v 2.426666 c 0,0.56 0.24,0.853334 0.69333,0.853334 0.45334,0 0.69334,-0.293334 0.69334,-0.853334 v -3.786666 h -12.16 c -0.56,0 -0.85334,0.24 -0.85334,0.666667 0,0.453333 0.29334,0.693333 0.85334,0.693333 h 1.30666 v 12.293333 h -1.30666 c -0.56,0 -0.85334,0.24 -0.85334,0.666667 0,0.453333 0.29334,0.693333 0.85334,0.693333 h 6.24 c 0.56,0 0.88,-0.24 0.88,-0.693333 0,-0.426667 -0.29334,-0.666667 -0.88,-0.666667 h -3.54667 z"
       id="path39" />
    <path
       d="m 183.63733,46.915005 c -3.57334,0 -6.32,2.613334 -6.32,6 0,3.306667 2.77333,5.973333 6.24,5.973333 3.46666,0 6.21333,-2.639999 6.21333,-5.999999 0,-3.28 -2.74667,-5.973334 -6.13333,-5.973334 z m -0.16,1.36 c 2.77333,0 4.90666,2 4.90666,4.64 0,2.56 -2.13333,4.613334 -4.82666,4.613334 -2.69334,0 -4.85334,-2.053334 -4.85334,-4.64 0,-2.533334 2.13334,-4.613334 4.77334,-4.613334 z"
       id="path41" />
    <path
       d="m 200.51729,52.621672 4.21333,-3.973333 h 0.10667 c 0.58666,0 0.87999,-0.24 0.87999,-0.693334 0,-0.453333 -0.26666,-0.666666 -0.87999,-0.666666 h -2.93334 c -0.58666,0 -0.85333,0.213333 -0.85333,0.666666 0,0.453334 0.29333,0.693334 0.85333,0.693334 h 0.93334 l -3.30667,3.04 -3.2,-3.04 h 0.85333 c 0.58667,0 0.88,-0.24 0.88,-0.693334 0,-0.453333 -0.26666,-0.666666 -0.88,-0.666666 h -2.93333 c -0.61333,0 -0.88,0.213333 -0.88,0.666666 0,0.453334 0.29333,0.693334 0.88,0.693334 h 0.10667 l 4.21333,3.973333 -4.74667,4.48 h -0.21333 c -0.56,0 -0.85333,0.24 -0.85333,0.666667 0,0.453333 0.32,0.693333 0.85333,0.693333 h 3.54667 c 0.56,0 0.88,-0.24 0.88,-0.693333 0,-0.426667 -0.29334,-0.666667 -0.88,-0.666667 h -1.44 l 3.81333,-3.546667 3.78667,3.546667 h -1.38667 c -0.56,0 -0.85333,0.24 -0.85333,0.666667 0,0.453333 0.32,0.693333 0.85333,0.693333 h 3.52 c 0.56,0 0.88,-0.24 0.88,-0.693333 0,-0.426667 -0.29334,-0.666667 -0.88,-0.666667 h -0.18667 z"
       id="path43" />
    <path
       d="m 235.9572,44.808339 h 2.42667 c 0.56,0 0.85333,-0.24 0.85333,-0.693333 0,-0.453334 -0.29333,-0.666667 -0.85333,-0.666667 h -7.89333 c -0.58667,0 -0.88,0.213333 -0.88,0.666667 0,0.453333 0.32,0.693333 0.88,0.693333 h 4.08 v 9.173333 c 0,1.973333 -1.65334,3.546667 -3.76,3.546667 -1.28,0 -2.48,-0.533334 -3.78667,-1.706667 v -3.333333 c 0,-0.56 -0.24,-0.853334 -0.69333,-0.853334 -0.45334,0 -0.69334,0.293334 -0.69334,0.853334 v 3.973333 c 2.08,1.813333 3.38667,2.426666 5.14667,2.426666 2.82667,0 5.17333,-2.213333 5.17333,-4.906666 z"
       id="path45" />
    <path
       d="m 251.10383,58.461672 h 2.16 c 0.56,0 0.85333,-0.24 0.85333,-0.693333 0,-0.426667 -0.29333,-0.666667 -0.85333,-0.666667 h -0.77334 v -9.813333 h -3.22666 c -0.61334,0 -0.88,0.213333 -0.88,0.666666 0,0.453334 0.29333,0.693334 0.88,0.693334 h 1.84 v 6.613333 c -1.44,1.52 -2.98667,2.266667 -4.72,2.266667 -1.28,0 -2.29334,-0.96 -2.29334,-2.213334 v -8.026666 h -2.69333 c -0.58667,0 -0.85333,0.213333 -0.85333,0.666666 0,0.453334 0.29333,0.693334 0.85333,0.693334 h 1.30667 v 6.666666 c 0,2.16 1.49333,3.573333 3.70666,3.573333 1.70667,0 3.22667,-0.639999 4.69334,-1.973333 z"
       id="path47" />
    <path
       d="m 258.67712,47.288339 h -2.13333 c -0.58667,0 -0.85333,0.213333 -0.85333,0.666666 0,0.453334 0.29333,0.693334 0.85333,0.693334 h 0.77333 v 8.453333 h -0.77333 c -0.56,0 -0.85333,0.24 -0.85333,0.666667 0,0.426666 0.32,0.693333 0.82666,0.693333 h 2.90667 c 0.56,0 0.88,-0.24 0.88,-0.666667 0,-0.453333 -0.29333,-0.693333 -0.88,-0.693333 h -0.74667 v -6.8 c 0.96,-1.413333 1.76,-2.026667 2.66667,-2.026667 0.82667,0 1.57333,0.853334 1.57333,1.786667 v 8.4 h 2.13334 c 0.56,0 0.85333,-0.24 0.85333,-0.693333 0,-0.426667 -0.29333,-0.666667 -0.85333,-0.666667 h -0.77334 v -6.8 c 0.96,-1.413333 1.73334,-2.026667 2.61334,-2.026667 0.88,0 1.62666,0.8 1.62666,1.706667 v 8.48 h 2.13334 c 0.53333,0 0.85333,-0.24 0.85333,-0.693333 0,-0.426667 -0.29333,-0.666667 -0.85333,-0.666667 h -0.77334 v -7.226667 c 0,-1.626666 -1.33333,-2.96 -2.96,-2.96 -1.09333,0 -1.89333,0.453334 -2.96,1.733334 -0.64,-1.173334 -1.49333,-1.733334 -2.61333,-1.733334 -1.06667,0 -1.84,0.426667 -2.66667,1.44 z"
       id="path49" />
    <path
       d="m 275.53041,47.288339 h -2.69333 c -0.58667,0 -0.85334,0.213333 -0.85334,0.666666 0,0.453334 0.29334,0.693334 0.85334,0.693334 h 1.30666 v 13.306666 h -1.30666 c -0.56,0 -0.85334,0.24 -0.85334,0.666667 0,0.453333 0.29334,0.693333 0.85334,0.693333 h 5.14666 c 0.58667,0 0.88,-0.24 0.88,-0.693333 0,-0.426667 -0.29333,-0.666667 -0.88,-0.666667 h -2.45333 v -5.973333 c 1.22667,1.52 2.69333,2.213333 4.64,2.213333 3.36,0 5.94667,-2.48 5.94667,-5.653333 0,-3.2 -2.56,-5.626667 -5.97334,-5.626667 -1.97333,0 -3.25333,0.64 -4.61333,2.266667 z m 4.53333,0.986666 c 2.64,0 4.66667,1.866667 4.66667,4.293334 0,2.373333 -2.02667,4.266666 -4.58667,4.266666 -2.58666,0 -4.61333,-1.893333 -4.61333,-4.293333 0,-2.346667 2.02667,-4.266667 4.53333,-4.266667 z"
       id="path51" />
    <path
       d="m 291.53037,55.315005 c 0,-0.426666 -0.29333,-0.72 -0.69333,-0.72 -0.45333,0 -0.69333,0.293334 -0.69333,0.853334 v 2.16 c 0,0.56 0.24,0.853333 0.69333,0.853333 0.42667,0 0.66667,-0.293333 0.66667,-0.826667 1.01333,0.826667 2.42666,1.253333 4.05333,1.253333 3.14667,0 5.38667,-1.493333 5.38667,-3.599999 0,-0.96 -0.53334,-1.893334 -1.38667,-2.453334 -0.88,-0.586666 -1.86667,-0.88 -3.52,-1.04 -2.34667,-0.266666 -2.48,-0.293333 -3.06667,-0.64 -0.48,-0.293333 -0.77333,-0.693333 -0.77333,-1.066666 0,-1.04 1.41333,-1.813334 3.33333,-1.813334 1.94667,0 3.28,0.72 3.41334,1.813334 0.0533,0.48 0.26666,0.72 0.66666,0.72 0.45334,0 0.69334,-0.293334 0.69334,-0.853334 v -1.813333 c 0,-0.56 -0.24,-0.853333 -0.66667,-0.853333 -0.37333,0 -0.64,0.266666 -0.69333,0.666666 -0.90667,-0.693333 -2.10667,-1.04 -3.54667,-1.04 -2.69333,0 -4.69333,1.306667 -4.69333,3.093334 0,0.88 0.48,1.706666 1.28,2.186666 0.77333,0.48 1.54666,0.666667 3.52,0.853334 1.46666,0.16 2.16,0.32 2.85333,0.72 0.66667,0.346666 1.09333,0.933333 1.09333,1.493333 0,1.306667 -1.68,2.266667 -3.94666,2.266667 -2.18667,0 -3.97334,-0.906667 -3.97334,-2.026667 z"
       id="path53" />
    <path
       d="m 327.63696,43.128339 c -3.89334,0 -6.88,3.44 -6.88,7.893333 0,4.4 3.01333,7.866666 6.77333,7.866666 3.81333,0 6.8,-3.466666 6.8,-7.893333 0,-4.346666 -2.98667,-7.866666 -6.69333,-7.866666 z m -0.16,1.36 c 3.04,0 5.46666,2.88 5.46666,6.533333 0,3.573333 -2.42666,6.506667 -5.41333,6.506667 -2.96,0 -5.38667,-2.933334 -5.38667,-6.533334 0,-3.546666 2.42667,-6.506666 5.33334,-6.506666 z"
       id="path55" />
    <path
       d="m 344.59691,58.461672 4.42667,-9.813333 h 0.98666 c 0.56,0 0.88,-0.24 0.88,-0.693334 0,-0.453333 -0.29333,-0.666666 -0.88,-0.666666 h -4.05333 c -0.58667,0 -0.85333,0.213333 -0.85333,0.666666 0,0.453334 0.29333,0.693334 0.85333,0.693334 h 1.6 l -3.78667,8.453333 h -0.32 l -3.86666,-8.453333 h 1.52 c 0.56,0 0.88,-0.24 0.88,-0.693334 0,-0.453333 -0.29334,-0.666666 -0.88,-0.666666 h -4.05334 c -0.58666,0 -0.85333,0.213333 -0.85333,0.666666 0,0.453334 0.29333,0.693334 0.85333,0.693334 h 1.01334 l 4.48,9.813333 z"
       id="path57" />
    <path
       d="m 365.55688,53.261672 v -0.213333 -0.186667 c 0,-3.413333 -2.66667,-5.946667 -6.24,-5.946667 -3.52,0 -6.24,2.506667 -6.24,5.733334 0,3.52 2.90667,6.239999 6.61333,6.239999 2.58667,0 5.76,-1.279999 5.76,-2.293333 0,-0.373333 -0.29333,-0.666666 -0.66666,-0.666666 -0.16,0 -0.26667,0.05333 -0.48,0.213333 -1.06667,0.8 -2.98667,1.386667 -4.58667,1.386667 -2.77333,0 -4.85333,-1.706667 -5.22667,-4.266667 z m -11.06667,-1.36 c 0.45334,-2.186667 2.37334,-3.626667 4.82667,-3.626667 2.42667,0 4.37333,1.466667 4.8,3.626667 z"
       id="path59" />
    <path
       d="m 374.33017,47.288339 h -3.22667 c -0.56,0 -0.88,0.24 -0.88,0.666666 0,0.426667 0.32,0.693334 0.88,0.693334 h 1.84 v 8.453333 h -2.42667 c -0.56,0 -0.88,0.266667 -0.88,0.666667 0,0.453333 0.32,0.693333 0.88,0.693333 h 8.45334 c 0.53333,0 0.85333,-0.24 0.85333,-0.693333 0,-0.4 -0.32,-0.666667 -0.85333,-0.666667 h -4.64 v -5.546667 c 2.88,-2.586666 3.76,-3.173333 4.90666,-3.173333 0.53334,0 1.01334,0.24 1.65334,0.88 0.21333,0.186667 0.29333,0.24 0.53333,0.24 0.4,0 0.69333,-0.293333 0.69333,-0.72 0,-0.266667 -0.16,-0.506667 -0.66666,-0.906667 -0.72,-0.613333 -1.30667,-0.853333 -2.13334,-0.853333 -1.38666,0 -2.64,0.693333 -4.98666,2.773333 z"
       id="path61" />
    <path
       d="M 168.2507,90.435008 V 78.141675 h 4.13333 v 1.76 c 0,0.506666 0.29334,0.88 0.72,0.88 0.45334,0 0.66667,-0.266667 0.66667,-0.88 v -3.12 h -12.45333 v 3.12 c 0,0.586666 0.24,0.88 0.69333,0.88 0.45333,0 0.69333,-0.293334 0.69333,-0.88 v -1.76 h 4.16 v 12.293333 h -2.64 c -0.58666,0 -0.88,0.24 -0.88,0.666666 0,0.453334 0.32,0.693334 0.88,0.693334 h 6.66667 c 0.56,0 0.88,-0.24 0.88,-0.693334 0,-0.426666 -0.29333,-0.666666 -0.88,-0.666666 z"
       id="path63" />
    <path
       d="m 180.09066,75.715008 h -2.69333 c -0.56,0 -0.85334,0.24 -0.85334,0.666667 0,0.453333 0.29334,0.693333 0.85334,0.693333 h 1.30666 v 13.36 h -1.06666 c -0.58667,0 -0.88,0.24 -0.88,0.666666 0,0.453334 0.32,0.693334 0.88,0.693334 h 3.52 c 0.56,0 0.88,-0.24 0.88,-0.693334 0,-0.426666 -0.29334,-0.666666 -0.88,-0.666666 h -1.06667 v -6.48 c 0.72,-0.8 1.17333,-1.306667 1.33333,-1.44 0.77334,-0.64 1.49334,-0.906667 2.50667,-0.906667 1.04,0 1.57333,0.16 2.16,0.64 0.64,0.506667 0.96,1.12 0.96,1.866667 v 6.32 h -1.06667 c -0.56,0 -0.85333,0.24 -0.85333,0.666666 0,0.453334 0.29333,0.693334 0.85333,0.693334 h 3.52 c 0.56,0 0.88,-0.24 0.88,-0.693334 0,-0.426666 -0.29333,-0.666666 -0.88,-0.666666 h -1.06666 v -6.4 c 0,-2.186667 -1.84,-3.786667 -4.37334,-3.786667 -1.6,0 -2.69333,0.533334 -3.97333,1.946667 z"
       id="path65" />
    <path
       d="m 205.55728,86.595008 v -0.213333 -0.186667 c 0,-3.413333 -2.66666,-5.946667 -6.23999,-5.946667 -3.52,0 -6.24,2.506667 -6.24,5.733334 0,3.519999 2.90666,6.239999 6.61333,6.239999 2.58667,0 5.76,-1.28 5.76,-2.293333 0,-0.373333 -0.29333,-0.666667 -0.66667,-0.666667 -0.16,0 -0.26666,0.05333 -0.48,0.213334 -1.06666,0.8 -2.98666,1.386666 -4.58666,1.386666 -2.77334,0 -4.85334,-1.706666 -5.22667,-4.266666 z m -11.06666,-1.36 c 0.45333,-2.186667 2.37333,-3.626667 4.82667,-3.626667 2.42666,0 4.37333,1.466667 4.8,3.626667 z"
       id="path67" />
    <path
       d="m 229.74387,78.141675 h 2.42667 c 0.56,0 0.85333,-0.24 0.85333,-0.693334 0,-0.453333 -0.29333,-0.666666 -0.85333,-0.666666 h -6.24 c -0.56,0 -0.85334,0.213333 -0.85334,0.666666 0,0.453334 0.29334,0.693334 0.85334,0.693334 h 2.42666 v 12.293333 h -2.42666 c -0.56,0 -0.85334,0.24 -0.85334,0.666666 0,0.453334 0.29334,0.693334 0.85334,0.693334 h 12.18666 v -5.413333 c 0,-0.533334 -0.24,-0.826667 -0.69333,-0.826667 -0.45333,0 -0.69333,0.293333 -0.69333,0.826667 v 4.053333 h -6.98667 z"
       id="path69" />
    <path
       d="m 250.57049,91.795008 h 2.69334 c 0.56,0 0.85333,-0.24 0.85333,-0.693334 0,-0.426666 -0.29333,-0.666666 -0.85333,-0.666666 h -1.30667 v -6.826667 c 0,-1.946666 -1.89333,-3.36 -4.45333,-3.36 -1.01334,0 -2.74667,0.346667 -4.21334,0.853334 -0.37333,0.133333 -0.56,0.346666 -0.56,0.666666 0,0.373334 0.29334,0.666667 0.64,0.666667 0.13334,0 0.21334,-0.02667 0.56,-0.133333 1.52,-0.48 2.64,-0.693334 3.49334,-0.693334 1.86666,0 3.14666,0.8 3.14666,2 v 1.653334 c -1.6,-0.4 -2.26666,-0.48 -3.46666,-0.48 -3.46667,0 -5.78667,1.6 -5.78667,3.973333 0,2.053333 1.73333,3.466666 4.29333,3.466666 1.84,0 3.30667,-0.586666 4.96,-2 z m 0,-3.146667 c -1.73333,1.6 -3.12,2.213333 -4.96,2.213333 -1.78666,0 -2.90666,-0.826666 -2.90666,-2.106666 0,-1.546667 1.86666,-2.613333 4.53333,-2.613333 1.17333,0 2.45333,0.133333 3.33333,0.346666 z"
       id="path71" />
    <path
       d="m 268.33046,80.621675 h -9.62667 v 2.64 c 0,0.56 0.24,0.853333 0.69333,0.853333 0.45334,0 0.69334,-0.293333 0.69334,-0.853333 v -1.28 h 6.24 l -7.86667,8.666666 v 1.146667 h 10.26667 v -2.666667 c 0,-0.56 -0.21334,-0.853333 -0.69334,-0.853333 -0.45333,0 -0.69333,0.293333 -0.69333,0.853333 v 1.306667 h -6.93333 l 7.92,-8.666667 z"
       id="path73" />
    <path
       d="m 278.89041,91.635008 -1.81333,3.653333 h -3.30667 c -0.56,0 -0.85333,0.24 -0.85333,0.666667 0,0.453333 0.29333,0.693333 0.85333,0.693333 h 6.21333 c 0.58667,0 0.88,-0.24 0.88,-0.693333 0,-0.426667 -0.29333,-0.666667 -0.88,-0.666667 h -1.49333 l 6.69333,-13.306666 h 0.26667 c 0.58667,0 0.88,-0.24 0.88,-0.693334 0,-0.453333 -0.29333,-0.666666 -0.88,-0.666666 h -2.93333 c -0.56,0 -0.85334,0.213333 -0.85334,0.666666 0,0.453334 0.29334,0.693334 0.85334,0.693334 h 1.22666 l -4.08,8.186666 -4.13333,-8.186666 h 1.14667 c 0.56,0 0.88,-0.24 0.88,-0.693334 0,-0.453333 -0.29334,-0.666666 -0.88,-0.666666 h -3.06667 c -0.56,0 -0.85333,0.213333 -0.85333,0.666666 0,0.453334 0.29333,0.693334 0.85333,0.693334 h 0.34667 z"
       id="path75" />
    <path
       d="M 306.17033,90.435008 H 305.397 c -0.56,0 -0.85333,0.24 -0.85333,0.666666 0,0.453334 0.29333,0.693334 0.85333,0.693334 h 5.89333 c 3.46667,0.02667 6.24,-2.96 6.26667,-6.773333 v -1.466667 c -0.0267,-3.813333 -2.8,-6.8 -6.26667,-6.773333 H 305.397 c -0.56,0 -0.85333,0.213333 -0.85333,0.666666 0,0.453334 0.29333,0.693334 0.85333,0.693334 h 0.77333 z m 1.38667,0 V 78.141675 h 3.68 c 2.53333,-0.186667 4.8,2.213333 4.93333,5.173333 v 1.92 c -0.0533,2.773333 -2.34666,5.253333 -4.77333,5.2 z"
       id="path77" />
    <path
       d="m 327.63696,80.248341 c -3.57334,0 -6.32,2.613334 -6.32,6 0,3.306667 2.77333,5.973333 6.24,5.973333 3.46666,0 6.21333,-2.64 6.21333,-5.999999 0,-3.28 -2.74667,-5.973334 -6.13333,-5.973334 z m -0.16,1.36 c 2.77333,0 4.90666,2 4.90666,4.64 0,2.56 -2.13333,4.613333 -4.82666,4.613333 -2.69334,0 -4.85334,-2.053333 -4.85334,-4.639999 0,-2.533334 2.13334,-4.613334 4.77334,-4.613334 z"
       id="path79" />
    <path
       d="m 347.13024,82.488341 c -1.17333,-1.546666 -2.56,-2.24 -4.4,-2.24 -3.12,0 -5.65333,2.533334 -5.65333,5.626667 0,3.12 2.53333,5.653333 5.65333,5.653333 1.81334,0 3.22667,-0.72 4.4,-2.213333 v 2.906666 c 0.10667,1.573334 -1.44,3.093334 -3.12,3.066667 h -3.09333 c -0.56,0 -0.85333,0.213333 -0.85333,0.693333 0,0.426667 0.29333,0.666667 0.85333,0.666667 h 3.06667 c 2.29333,0.133333 4.61333,-2.053333 4.53333,-4.266667 V 81.981675 h 1.30667 c 0.56,0 0.85333,-0.24 0.85333,-0.693334 0,-0.453333 -0.26667,-0.666666 -0.85333,-0.666666 h -2.69334 z m -4.37333,-0.88 c 2.48,0 4.37333,1.866667 4.37333,4.293334 0,2.373333 -1.89333,4.266666 -4.32,4.266666 -2.42666,0 -4.34666,-1.893333 -4.34666,-4.293333 0,-2.346667 1.92,-4.266667 4.29333,-4.266667 z"
       id="path81" />
  </g>
</svg>
