<?xml version="1.0" encoding="UTF-8" standalone="no"?>
<svg
   xmlns:dc="http://purl.org/dc/elements/1.1/"
   xmlns:cc="http://creativecommons.org/ns#"
   xmlns:rdf="http://www.w3.org/1999/02/22-rdf-syntax-ns#"
   xmlns:svg="http://www.w3.org/2000/svg"
   xmlns="http://www.w3.org/2000/svg"
   viewBox="160.143 4.86792 237.839 92.6563"
   version="1.1"
   id="svg2">
  <metadata
     id="metadata11">
    <rdf:RDF>
      <cc:Work
         rdf:about="">
        <dc:format>image/svg+xml</dc:format>
        <dc:type
           rdf:resource="http://purl.org/dc/dcmitype/StillImage" />
      </cc:Work>
    </rdf:RDF>
  </metadata>
  <defs
     id="defs9" />
  <g
     aria-label="The Quick BrownFox Jumps OverThe Lazy Dog"
     id="text4521"
     style="font-style:normal;font-variant:normal;font-weight:normal;font-stretch:normal;font-size:26.6667px;line-height:125%;font-family:'DejaVu Sans Mono', monospace;font-variant-ligatures:normal;font-variant-caps:normal;font-variant-numeric:normal;font-feature-settings:normal;text-align:left;letter-spacing:0px;word-spacing:0px;writing-mode:lr-tb;text-anchor:start;fill:#000000;fill-opacity:1;stroke:none;stroke-width:1px;stroke-linecap:butt;stroke-linejoin:miter;stroke-opacity:1">
    <path
       d="m 160.14268,5.6882322 h 14.83073 v 2.2135417 h -6.08073 V 25.128336 h -2.64323 V 7.9017739 h -6.10677 z"
       id="path13" />
    <path
       d="m 189.27028,16.091878 v 9.036458 h -2.40885 v -9.036458 q 0,-1.966146 -0.6901,-2.890625 -0.69011,-0.924479 -2.16146,-0.924479 -1.67969,0 -2.59115,1.197916 -0.89844,1.184896 -0.89844,3.411459 v 8.242187 h -2.39583 V 4.8679198 h 2.39583 v 7.8645832 q 0.63802,-1.25 1.73177,-1.888021 1.09375,-0.651042 2.59115,-0.651042 2.22656,0 3.32031,1.471355 1.10677,1.458333 1.10677,4.427083 z"
       id="path15" />
    <path
       d="m 206.11924,17.237711 v 1.171875 h -10.3776 v 0.07813 q 0,2.382813 1.23698,3.684896 1.25,1.302083 3.51562,1.302083 1.14584,0 2.39584,-0.364583 1.25,-0.364583 2.66927,-1.106771 v 2.382812 q -1.36719,0.559896 -2.64323,0.833334 -1.26302,0.286458 -2.44792,0.286458 -3.39844,0 -5.3125,-2.03125 -1.91406,-2.044271 -1.91406,-5.625 0,-3.489583 1.875,-5.572916 1.875,-2.083334 5,-2.083334 2.78646,0 4.38802,1.888021 1.61458,1.888021 1.61458,5.15625 z m -2.39583,-0.703125 q -0.0521,-2.109375 -1.00261,-3.203125 -0.9375,-1.106771 -2.70833,-1.106771 -1.73177,0 -2.85156,1.145834 -1.11979,1.145833 -1.32813,3.177083 z"
       id="path17" />
    <path
       d="m 232.2781,25.479898 q -0.0911,0 -0.26042,0.01302 -0.16927,0.01302 -0.27344,0.01302 -3.25521,0 -4.86979,-2.5 -1.60156,-2.5 -1.60156,-7.578125 0,-5.091145 1.60156,-7.5911453 1.61458,-2.4999999 4.89583,-2.4999999 3.29427,0 4.89584,2.4999999 1.61458,2.5000003 1.61458,7.5911453 0,3.828125 -0.89844,6.171875 -0.88541,2.330729 -2.69531,3.268229 l 2.60417,2.473959 -1.96615,1.302083 z m 3.2552,-10.052083 q 0,-4.283854 -0.88541,-6.1197912 -0.8724,-1.8359374 -2.87761,-1.8359374 -1.99218,0 -2.8776,1.8359374 -0.8724,1.8359372 -0.8724,6.1197912 0,4.270834 0.8724,6.106771 0.88542,1.835937 2.8776,1.835937 2.00521,0 2.87761,-1.822916 0.88541,-1.835938 0.88541,-6.119792 z"
       id="path19" />
    <path
       d="m 242.3432,19.607503 v -9.036458 h 2.39583 v 9.036458 q 0,1.966146 0.69011,2.890625 0.70312,0.924479 2.16146,0.924479 1.6927,0 2.59114,-1.184896 0.89844,-1.197917 0.89844,-3.424479 v -8.242187 h 2.40885 v 14.557291 h -2.40885 v -2.1875 q -0.63802,1.263021 -1.74479,1.914062 -1.09375,0.651042 -2.56511,0.651042 -2.23958,0 -3.33333,-1.458333 -1.09375,-1.471354 -1.09375,-4.440104 z"
       id="path21" />
    <path
       d="m 259.19216,10.545003 h 6.13281 v 12.721354 h 4.75261 v 1.861979 h -11.90105 v -1.861979 h 4.75261 V 12.406982 h -3.73698 z m 3.73698,-5.6770832 h 2.39583 v 3.0338541 h -2.39583 z"
       id="path23" />
    <path
       d="m 285.72862,24.386148 q -0.96354,0.559896 -1.99219,0.833334 -1.01563,0.286458 -2.08333,0.286458 -3.38542,0 -5.29948,-2.03125 -1.90104,-2.03125 -1.90104,-5.625 0,-3.59375 1.90104,-5.625 1.91406,-2.03125 5.29948,-2.03125 1.05468,0 2.05729,0.273438 1.0026,0.273437 2.01823,0.846354 v 2.513021 q -0.95052,-0.846354 -1.91407,-1.223958 -0.95052,-0.377605 -2.16145,-0.377605 -2.25261,0 -3.46355,1.458334 -1.21093,1.458333 -1.21093,4.166666 0,2.695313 1.21093,4.166667 1.22396,1.458333 3.46355,1.458333 1.25,0 2.23958,-0.377604 0.98958,-0.390625 1.83594,-1.197917 z"
       id="path25" />
    <path
       d="m 291.04112,4.8679198 h 2.47396 V 16.59969 l 6.28906,-6.054687 h 2.91666 l -5.74218,5.494792 6.64062,9.088541 h -2.92969 l -5.39062,-7.526042 -1.78385,1.679688 v 5.846354 h -2.47396 z"
       id="path27" />
    <path
       d="m 324.88226,15.844482 v 7.122396 h 3.11198 q 2.29167,0 3.26823,-0.794271 0.97656,-0.807292 0.97656,-2.643229 0,-1.901042 -1.02864,-2.786459 -1.02865,-0.898437 -3.21615,-0.898437 z m 0,-7.9947915 v 5.8593745 h 3.0599 q 1.90104,0 2.74739,-0.729166 0.85938,-0.729167 0.85938,-2.356771 0,-1.4713542 -0.84635,-2.1223958 -0.83334,-0.6510417 -2.76042,-0.6510417 z m -2.64323,-2.1614583 h 5.75521 q 2.98177,0 4.59636,1.2890625 1.61458,1.2890625 1.61458,3.6458333 0,1.783854 -0.85938,2.8125 -0.84635,1.028646 -2.55208,1.289062 1.91406,0.286459 2.99479,1.640625 1.09375,1.341146 1.09375,3.424479 0,2.64323 -1.73177,3.997396 -1.73177,1.341146 -5.15625,1.341146 h -5.75521 z"
       id="path29" />
    <path
       d="m 351.17133,13.552815 q -0.76823,-0.598958 -1.5625,-0.872395 -0.79428,-0.273438 -1.7448,-0.273438 -2.23958,0 -3.42448,1.40625 -1.18489,1.40625 -1.18489,4.0625 v 7.252604 H 340.8458 V 10.545003 h 2.40886 v 2.851562 q 0.59896,-1.549479 1.83594,-2.369791 1.25,-0.833334 2.95573,-0.833334 0.88541,0 1.65364,0.221355 0.76823,0.221354 1.47136,0.690104 z"
       id="path31" />
    <path
       d="m 360.20778,12.22469 q -1.82291,0 -2.76041,1.419271 -0.9375,1.419271 -0.9375,4.205729 0,2.773438 0.9375,4.205729 0.9375,1.419271 2.76041,1.419271 1.83594,0 2.77344,-1.419271 0.9375,-1.432291 0.9375,-4.205729 0,-2.786458 -0.9375,-4.205729 -0.9375,-1.419271 -2.77344,-1.419271 z m 0,-2.03125 q 3.03386,0 4.63542,1.966146 1.61458,1.966146 1.61458,5.690104 0,3.736979 -1.60156,5.703125 -1.60156,1.953125 -4.64844,1.953125 -3.03385,0 -4.63541,-1.953125 -1.60157,-1.966146 -1.60157,-5.703125 0,-3.723958 1.60157,-5.690104 1.60156,-1.966146 4.63541,-1.966146 z"
       id="path33" />
    <path
       d="m 368.24164,10.545003 h 2.36979 l 2.53906,11.783854 2.08334,-7.526042 h 2.04427 l 2.10937,7.526042 2.53906,-11.783854 h 2.3698 l -3.41146,14.583333 h -2.29167 l -2.33073,-7.994792 -2.31771,7.994792 h -2.29166 z"
       id="path35" />
    <path
       d="m 397.98122,16.091878 v 9.036458 h -2.40885 v -9.036458 q 0,-1.966146 -0.69011,-2.890625 -0.6901,-0.924479 -2.16146,-0.924479 -1.67968,0 -2.59114,1.197916 -0.89844,1.184896 -0.89844,3.411459 v 8.242187 h -2.39583 V 10.545003 h 2.39583 v 2.1875 q 0.63802,-1.25 1.73177,-1.888021 1.09375,-0.651042 2.59115,-0.651042 2.22656,0 3.32031,1.471355 1.10677,1.458333 1.10677,4.427083 z"
       id="path37" />
    <path
       d="m 162.56455,39.021568 h 11.44532 v 2.213542 h -8.80209 v 5.729166 h 7.98177 v 2.213542 h -7.98177 v 9.283854 h -2.64323 z"
       id="path39" />
    <path
       d="m 183.60622,45.558026 q -1.82292,0 -2.76042,1.419271 -0.9375,1.419271 -0.9375,4.205729 0,2.773438 0.9375,4.205729 0.9375,1.419271 2.76042,1.419271 1.83594,0 2.77344,-1.419271 0.9375,-1.432291 0.9375,-4.205729 0,-2.786458 -0.9375,-4.205729 -0.9375,-1.419271 -2.77344,-1.419271 z m 0,-2.03125 q 3.03386,0 4.63542,1.966146 1.61458,1.966146 1.61458,5.690104 0,3.736979 -1.60156,5.703125 -1.60156,1.953125 -4.64844,1.953125 -3.03385,0 -4.63542,-1.953125 -1.60156,-1.966146 -1.60156,-5.703125 0,-3.723958 1.60156,-5.690104 1.60157,-1.966146 4.63542,-1.966146 z"
       id="path41" />
    <path
       d="m 206.19737,43.878339 -5.22136,6.979166 5.72917,7.604167 h -2.77344 l -4.27083,-5.846354 -4.25781,5.846354 h -2.77344 l 5.72917,-7.604167 -5.22136,-6.979166 h 2.65625 l 3.86719,5.273437 3.84114,-5.273437 z"
       id="path43" />
    <path
       d="m 225.16872,57.667401 v -3.072917 q 1.1849,1.054688 2.44792,1.588542 1.26302,0.520833 2.61719,0.520833 1.86197,0 2.59114,-0.963541 0.74219,-0.976563 0.74219,-3.619792 V 41.23511 h -4.96094 v -2.213542 h 7.59115 v 13.098958 q 0,3.671875 -1.38021,5.195313 -1.36719,1.523437 -4.58333,1.523437 -1.25,0 -2.48698,-0.286458 -1.23698,-0.286459 -2.57813,-0.885417 z"
       id="path45" />
    <path
       d="m 242.3432,52.940839 v -9.036458 h 2.39583 v 9.036458 q 0,1.966145 0.69011,2.890625 0.70312,0.924479 2.16146,0.924479 1.6927,0 2.59114,-1.184896 0.89844,-1.197917 0.89844,-3.424479 v -8.242187 h 2.40885 v 14.557291 h -2.40885 v -2.1875 q -0.63802,1.263021 -1.74479,1.914062 -1.09375,0.651042 -2.56511,0.651042 -2.23958,0 -3.33333,-1.458333 -1.09375,-1.471354 -1.09375,-4.440104 z"
       id="path47" />
    <path
       d="m 264.66091,45.362714 q 0.44271,-0.9375 1.11979,-1.380208 0.6901,-0.45573 1.65365,-0.45573 1.75781,0 2.47395,1.367188 0.72917,1.354166 0.72917,5.117187 v 8.450521 h -2.1875 v -8.346354 q 0,-3.085938 -0.35156,-3.828125 -0.33854,-0.755208 -1.25,-0.755208 -1.04167,0 -1.43229,0.807291 -0.37761,0.794271 -0.37761,3.776042 v 8.346354 h -2.1875 v -8.346354 q 0,-3.125 -0.3776,-3.854167 -0.36458,-0.729166 -1.32813,-0.729166 -0.95052,0 -1.32812,0.807291 -0.36458,0.794271 -0.36458,3.776042 v 8.346354 H 257.2781 V 43.878339 h 2.17448 v 1.25 q 0.42968,-0.78125 1.0677,-1.184896 0.65105,-0.416667 1.47136,-0.416667 0.98958,0 1.64062,0.45573 0.66407,0.455729 1.02865,1.380208 z"
       id="path49" />
    <path
       d="m 276.79633,56.625734 v 7.382813 h -2.40886 V 43.878339 h 2.40886 v 1.861979 q 0.59895,-1.080729 1.58854,-1.640625 1.0026,-0.572917 2.30468,-0.572917 2.64323,0 4.14063,2.044271 1.51042,2.044271 1.51042,5.664063 0,3.554687 -1.51042,5.585937 -1.51042,2.018229 -4.14063,2.018229 -1.32812,0 -2.33072,-0.559896 -0.98959,-0.572916 -1.5625,-1.653646 z m 7.03125,-5.442708 q 0,-2.786458 -0.88542,-4.205729 -0.8724,-1.419271 -2.60417,-1.419271 -1.74479,0 -2.64323,1.432292 -0.89843,1.419271 -0.89843,4.192708 0,2.760417 0.89843,4.192708 0.89844,1.432292 2.64323,1.432292 1.73177,0 2.60417,-1.419271 0.88542,-1.419271 0.88542,-4.205729 z"
       id="path51" />
    <path
       d="m 300.63747,44.386151 v 2.34375 q -1.02864,-0.598958 -2.07031,-0.898437 -1.04167,-0.299479 -2.1224,-0.299479 -1.6276,0 -2.43489,0.533854 -0.79427,0.520833 -0.79427,1.601562 0,0.976563 0.59895,1.458334 0.59896,0.48177 2.98178,0.9375 l 0.96354,0.182291 q 1.78385,0.338542 2.69531,1.354167 0.92448,1.015625 0.92448,2.643229 0,2.161458 -1.53646,3.385417 -1.53646,1.210937 -4.27083,1.210937 -1.08073,0 -2.26563,-0.234375 -1.18489,-0.221354 -2.5651,-0.677083 v -2.473959 q 1.34114,0.690105 2.5651,1.041667 1.22396,0.338542 2.31771,0.338542 1.58854,0 2.46094,-0.638021 0.87239,-0.651042 0.87239,-1.809896 0,-1.666667 -3.1901,-2.304687 l -0.10417,-0.02604 -0.89843,-0.182292 q -2.07032,-0.403646 -3.02084,-1.354166 -0.95052,-0.963542 -0.95052,-2.617188 0,-2.096354 1.41927,-3.229166 1.41927,-1.145834 4.04948,-1.145834 1.17188,0 2.25261,0.221355 1.08072,0.208333 2.12239,0.63802 z"
       id="path53" />
    <path
       d="m 331.86143,48.761151 q 0,-4.283854 -0.88542,-6.119791 -0.87239,-1.835938 -2.8776,-1.835938 -1.99219,0 -2.87761,1.835938 -0.87239,1.835937 -0.87239,6.119791 0,4.270833 0.87239,6.106771 0.88542,1.835937 2.87761,1.835937 2.00521,0 2.8776,-1.822916 0.88542,-1.835938 0.88542,-6.119792 z m 2.7474,0 q 0,5.078125 -1.61459,7.578125 -1.60156,2.5 -4.89583,2.5 -3.29427,0 -4.89583,-2.486979 -1.60157,-2.486979 -1.60157,-7.591146 0,-5.091145 1.60157,-7.591145 1.61458,-2.5 4.89583,-2.5 3.29427,0 4.89583,2.5 1.61459,2.5 1.61459,7.591145 z"
       id="path55" />
    <path
       d="m 337.43435,43.878339 h 2.48698 l 4.23177,12.239583 4.24479,-12.239583 h 2.48698 l -5.18229,14.583333 h -3.08594 z"
       id="path57" />
    <path
       d="m 366.66612,50.571047 v 1.171875 h -10.37761 v 0.07813 q 0,2.382812 1.23698,3.684896 1.25,1.302083 3.51563,1.302083 1.14583,0 2.39583,-0.364583 1.25,-0.364584 2.66927,-1.106771 v 2.382812 q -1.36719,0.559896 -2.64323,0.833334 -1.26302,0.286458 -2.44791,0.286458 -3.39844,0 -5.3125,-2.03125 -1.91407,-2.044271 -1.91407,-5.625 0,-3.489583 1.875,-5.572916 1.875,-2.083334 5,-2.083334 2.78646,0 4.38802,1.888021 1.61459,1.888021 1.61459,5.15625 z m -2.39584,-0.703125 q -0.0521,-2.109375 -1.0026,-3.203125 -0.9375,-1.106771 -2.70833,-1.106771 -1.73177,0 -2.85157,1.145834 -1.11979,1.145833 -1.32812,3.177083 z"
       id="path59" />
    <path
       d="m 383.2807,46.886151 q -0.76823,-0.598958 -1.5625,-0.872396 -0.79427,-0.273437 -1.74479,-0.273437 -2.23958,0 -3.42448,1.40625 -1.1849,1.40625 -1.1849,4.0625 v 7.252604 h -2.40885 V 43.878339 h 2.40885 v 2.851562 q 0.59896,-1.549479 1.83594,-2.369791 1.25,-0.833334 2.95573,-0.833334 0.88542,0 1.65365,0.221355 0.76823,0.221354 1.47135,0.690104 z"
       id="path61" />
    <path
       d="m 160.14268,72.354904 h 14.83073 v 2.213542 h -6.08073 v 17.226562 h -2.64323 V 74.568446 h -6.10677 z"
       id="path63" />
    <path
       d="m 189.27028,82.75855 v 9.036458 h -2.40885 V 82.75855 q 0,-1.966146 -0.6901,-2.890625 -0.69011,-0.924479 -2.16146,-0.924479 -1.67969,0 -2.59115,1.197916 -0.89844,1.184896 -0.89844,3.411458 v 8.242188 h -2.39583 V 71.534592 h 2.39583 v 7.864583 q 0.63802,-1.25 1.73177,-1.888021 1.09375,-0.651042 2.59115,-0.651042 2.22656,0 3.32031,1.471354 1.10677,1.458334 1.10677,4.427084 z"
       id="path65" />
    <path
       d="m 206.11924,83.904383 v 1.171875 h -10.3776 v 0.07813 q 0,2.382812 1.23698,3.684896 1.25,1.302083 3.51562,1.302083 1.14584,0 2.39584,-0.364583 1.25,-0.364584 2.66927,-1.106771 v 2.382812 q -1.36719,0.559896 -2.64323,0.833334 -1.26302,0.286458 -2.44792,0.286458 -3.39844,0 -5.3125,-2.03125 -1.91406,-2.044271 -1.91406,-5.625 0,-3.489583 1.875,-5.572916 1.875,-2.083334 5,-2.083334 2.78646,0 4.38802,1.888021 1.61458,1.888021 1.61458,5.15625 z m -2.39583,-0.703125 q -0.0521,-2.109375 -1.00261,-3.203125 -0.9375,-1.106771 -2.70833,-1.106771 -1.73177,0 -2.85156,1.145833 -1.11979,1.145834 -1.32813,3.177084 z"
       id="path67" />
    <path
       d="m 226.54893,72.354904 h 2.64323 v 17.226562 h 9.38802 v 2.213542 h -12.03125 z"
       id="path69" />
    <path
       d="m 248.94476,84.464279 h -0.79427 q -2.09635,0 -3.16406,0.742187 -1.05469,0.729167 -1.05469,2.1875 0,1.315104 0.79427,2.044271 0.79427,0.729167 2.20052,0.729167 1.97917,0 3.11198,-1.367188 1.13282,-1.380208 1.14584,-3.802083 v -0.533854 z m 4.64844,-0.989584 v 8.320313 h -2.40885 v -2.161459 q -0.76823,1.302084 -1.94011,1.927084 -1.15885,0.611979 -2.82552,0.611979 -2.22656,0 -3.55469,-1.25 -1.32812,-1.263021 -1.32812,-3.372396 0,-2.434896 1.6276,-3.697916 1.64063,-1.263021 4.80469,-1.263021 h 3.21615 v -0.377604 q -0.013,-1.744792 -0.88542,-2.526042 -0.8724,-0.794271 -2.78646,-0.794271 -1.22396,0 -2.47396,0.351563 -1.25,0.351562 -2.43489,1.028645 v -2.395833 q 1.32812,-0.507812 2.53906,-0.755208 1.22396,-0.260417 2.36979,-0.260417 1.8099,0 3.08594,0.533854 1.28906,0.533855 2.08333,1.601563 0.49479,0.651041 0.70313,1.614583 0.20833,0.950521 0.20833,2.864583 z"
       id="path71" />
    <path
       d="m 258.81455,77.185633 h 10.58594 v 2.1875 l -8.37239,10.46875 h 8.37239 v 1.953125 h -10.89844 v -2.213542 l 8.3724,-10.48177 h -8.0599 z"
       id="path73" />
    <path
       d="m 283.08539,87.107508 q -0.59896,1.523437 -1.52344,4.010416 -1.28906,3.4375 -1.73177,4.192709 -0.59896,1.015625 -1.4974,1.523437 -0.89843,0.507813 -2.09635,0.507813 h -1.92708 v -2.005209 h 1.41927 q 1.05468,0 1.65364,-0.611979 0.59896,-0.611979 1.52344,-3.164062 l -5.63802,-14.348958 h 2.53906 l 4.32292,11.406249 4.25781,-11.406249 h 2.53906 z"
       id="path75" />
    <path
       d="m 309.69997,89.633549 q 3.32031,0 4.63542,-1.627604 1.3151,-1.640625 1.3151,-5.911458 0,-4.309896 -1.3151,-5.9375 -1.30209,-1.640625 -4.63542,-1.640625 h -1.25 v 15.117187 z m 0.0521,-17.278645 q 4.45313,0 6.5625,2.369792 2.10938,2.369791 2.10938,7.369791 0,4.973958 -2.10938,7.34375 -2.10937,2.356771 -6.5625,2.356771 h -3.94531 V 72.354904 Z"
       id="path77" />
    <path
       d="m 328.09841,78.891362 q -1.82292,0 -2.76042,1.419271 -0.9375,1.419271 -0.9375,4.205729 0,2.773437 0.9375,4.205729 0.9375,1.419271 2.76042,1.419271 1.83594,0 2.77344,-1.419271 0.9375,-1.432292 0.9375,-4.205729 0,-2.786458 -0.9375,-4.205729 -0.9375,-1.419271 -2.77344,-1.419271 z m 0,-2.03125 q 3.03385,0 4.63542,1.966146 1.61458,1.966146 1.61458,5.690104 0,3.736979 -1.60156,5.703125 -1.60157,1.953125 -4.64844,1.953125 -3.03386,0 -4.63542,-1.953125 -1.60156,-1.966146 -1.60156,-5.703125 0,-3.723958 1.60156,-5.690104 1.60156,-1.966146 4.63542,-1.966146 z"
       id="path79" />
    <path
       d="m 347.30414,84.386154 q 0,-2.695313 -0.88542,-4.088542 -0.87239,-1.40625 -2.55208,-1.40625 -1.75781,0 -2.68229,1.40625 -0.92448,1.393229 -0.92448,4.088542 0,2.695312 0.92448,4.114583 0.9375,1.40625 2.70833,1.40625 1.65365,0 2.52604,-1.419271 0.88542,-1.419271 0.88542,-4.101562 z m 2.39583,6.471354 q 0,3.28125 -1.54948,4.973958 -1.54948,1.692708 -4.55729,1.692708 -0.98958,0 -2.07031,-0.182291 -1.08073,-0.182292 -2.16146,-0.533855 v -2.369791 q 1.27604,0.598958 2.31771,0.885416 1.04166,0.286459 1.91406,0.286459 1.9401,0 2.82552,-1.054688 0.88542,-1.054687 0.88542,-3.346354 v -0.104166 -1.627605 q -0.57292,1.223959 -1.5625,1.822917 -0.98959,0.598958 -2.40886,0.598958 -2.55208,0 -4.07552,-2.04427 -1.52343,-2.044271 -1.52343,-5.46875 0,-3.4375 1.52343,-5.481771 1.52344,-2.044271 4.07552,-2.044271 1.40625,0 2.38282,0.559896 0.97656,0.559896 1.58854,1.731771 v -1.888021 h 2.39583 z"
       id="path81" />
  </g>
</svg>
