<?xml version="1.0" encoding="UTF-8" standalone="no"?>
<svg
   xmlns:dc="http://purl.org/dc/elements/1.1/"
   xmlns:cc="http://creativecommons.org/ns#"
   xmlns:rdf="http://www.w3.org/1999/02/22-rdf-syntax-ns#"
   xmlns:svg="http://www.w3.org/2000/svg"
   xmlns="http://www.w3.org/2000/svg"
   viewBox="160.331 5.66167 213.253 93.76"
   version="1.1"
   id="svg2">
  <metadata
     id="metadata11">
    <rdf:RDF>
      <cc:Work
         rdf:about="">
        <dc:format>image/svg+xml</dc:format>
        <dc:type
           rdf:resource="http://purl.org/dc/dcmitype/StillImage" />
      </cc:Work>
    </rdf:RDF>
  </metadata>
  <defs
     id="defs9" />
  <g
     aria-label="The Quick BrownFox Jumps OverThe Lazy Dog"
     id="text4521"
     style="font-style:normal;font-variant:normal;font-weight:normal;font-stretch:normal;font-size:26.6667px;line-height:125%;font-family:Didot, serif;font-variant-ligatures:normal;font-variant-caps:normal;font-variant-numeric:normal;font-feature-settings:normal;text-align:left;letter-spacing:0px;word-spacing:0px;writing-mode:lr-tb;text-anchor:start;fill:#000000;fill-opacity:1;stroke:none;stroke-width:1px;stroke-linecap:butt;stroke-linejoin:miter;stroke-opacity:1">
    <path
       d="m 164.35737,24.755003 h 2.96 V 6.5150031 h -1.54667 q -0.53333,0 -1.2,0.1066666 -0.66667,0.08 -1.36,0.5066667 -0.66667,0.4266666 -1.30667,1.3599999 -0.61333,0.9066667 -1.06666,2.5333337 h -0.29334 V 6.1416697 h 16.21334 V 11.02167 h -0.29334 Q 176.0107,9.395003 175.3707,8.4883363 174.75737,7.555003 174.06403,7.1283364 173.39737,6.7016697 172.7307,6.6216697 q -0.66667,-0.1066666 -1.2,-0.1066666 h -1.54667 V 24.755003 h 2.96 v 0.373333 h -8.58666 z"
       id="path13" />
    <path
       d="m 178.43732,24.755003 h 2.05333 V 6.2750031 h -2.05333 V 5.9016697 h 4.34666 V 16.381669 h 0.0533 q 0.13333,-0.346666 0.45333,-0.853333 0.32,-0.533333 0.85333,-0.986666 0.56,-0.48 1.33334,-0.8 0.8,-0.346667 1.89333,-0.346667 1.76,0 2.85333,0.853333 1.12,0.853334 1.12,2.72 v 7.786667 h 2.05334 v 0.373333 h -6.4 v -0.373333 h 2.05333 V 16.14167 q 0,-1.04 -0.50667,-1.706667 -0.48,-0.666667 -1.52,-0.666667 -0.85333,0 -1.62666,0.373334 -0.77334,0.373333 -1.36,1.04 -0.58667,0.666666 -0.93334,1.573333 -0.32,0.906666 -0.32,1.973333 v 6.026667 h 2.05334 v 0.373333 h -6.4 z"
       id="path15" />
    <path
       d="m 203.4506,18.141669 q 0.0533,-0.373333 0.0533,-0.693333 0,-0.32 0,-0.666667 0,-0.906666 -0.18666,-1.493333 -0.16,-0.586666 -0.48,-0.933333 -0.29334,-0.346667 -0.74667,-0.48 -0.42667,-0.16 -0.93333,-0.16 -0.90667,0 -1.49334,0.373333 -0.58666,0.346667 -0.93333,0.96 -0.34667,0.613334 -0.53333,1.413333 -0.16,0.8 -0.21334,1.68 z m -5.49333,0.373334 q 0,0.266666 -0.0267,0.56 0,0.266666 0,0.693333 0,0.88 0.10667,1.84 0.10666,0.96 0.45333,1.733333 0.37333,0.773334 1.06667,1.28 0.72,0.506667 1.89333,0.506667 1.17333,0 1.92,-0.346667 0.77333,-0.346666 1.2,-0.826666 0.45333,-0.506667 0.66667,-1.013334 0.21333,-0.506666 0.32,-0.826666 l 0.4,0.08 q -0.08,0.293333 -0.32,0.853333 -0.21334,0.533333 -0.72,1.093333 -0.48,0.533334 -1.33334,0.96 -0.82666,0.4 -2.16,0.4 -1.33333,0 -2.48,-0.426666 -1.12,-0.426667 -1.94666,-1.226667 -0.82667,-0.8 -1.28,-1.893333 -0.45334,-1.12 -0.45334,-2.48 0,-1.173334 0.45334,-2.266667 0.48,-1.12 1.28,-1.973333 0.82666,-0.853333 1.92,-1.36 1.09333,-0.533333 2.34666,-0.533333 0.74667,0 1.6,0.266666 0.85334,0.266667 1.57334,0.88 0.74666,0.586667 1.22666,1.573334 0.50667,0.986666 0.50667,2.453333 z"
       id="path17" />
    <path
       d="m 219.69055,15.608336 q 0,2.4 0.32,4.186667 0.32,1.786666 1.06666,2.986666 0.74667,1.2 1.92,1.786667 1.17334,0.586667 2.90667,0.586667 1.70667,0 2.88,-0.586667 1.2,-0.586667 1.94667,-1.786667 0.74666,-1.2 1.06666,-2.986666 0.32,-1.786667 0.32,-4.186667 0,-1.84 -0.24,-3.546666 -0.24,-1.733334 -0.93333,-3.066667 -0.66667,-1.36 -1.89333,-2.1599999 -1.2,-0.8 -3.14667,-0.8 -1.94667,0 -3.17333,0.8 -1.2,0.7999999 -1.89334,2.1599999 -0.66666,1.333333 -0.90666,3.066667 -0.24,1.706666 -0.24,3.546666 z m 14.74666,14.586666 q -2.32,-0.02667 -3.70666,-0.186666 -1.36,-0.16 -2.21334,-0.506667 -0.82666,-0.346666 -1.38666,-0.933333 -0.53334,-0.586667 -1.2,-1.493333 -0.58667,-0.773334 -1.25334,-1.28 -0.66666,-0.48 -1.22666,-0.64 -1.52,-0.4 -2.77334,-1.333334 -1.25333,-0.933333 -2.16,-2.213333 -0.90666,-1.28 -1.41333,-2.826667 -0.48,-1.546666 -0.48,-3.173333 0,-2.08 0.8,-3.893333 0.82667,-1.8133334 2.13333,-3.1466667 1.33334,-1.3599999 2.98667,-2.1333332 1.65333,-0.7733333 3.36,-0.7733333 1.76,0 3.41333,0.7733333 1.68,0.7466666 2.98667,2.0799999 1.30667,1.3333333 2.08,3.146667 0.8,1.813333 0.8,3.946666 0,1.866667 -0.72,3.653333 -0.72,1.786667 -1.97333,3.173334 -1.25334,1.386666 -2.96,2.24 -1.68,0.853333 -3.62667,0.853333 -0.50667,0 -1.01333,-0.08 l -0.0267,0.08 q 0.4,0.213333 0.74667,0.4 0.37333,0.186667 0.8,0.32 0.42666,0.16 0.93333,0.266667 0.53333,0.106666 1.25333,0.186666 0.77334,0.08 1.44,0.56 0.69334,0.48 1.22667,1.093334 0.34667,0.4 0.61333,0.666666 0.29334,0.293334 0.61334,0.453334 0.34666,0.186666 0.8,0.266666 0.45333,0.08 1.14666,0.08 z"
       id="path19" />
    <path
       d="m 252.17051,25.128336 h -4.29333 v -2.693333 h -0.0533 q -0.24,0.533333 -0.58666,1.093333 -0.32,0.533333 -0.82667,0.986667 -0.48,0.426666 -1.14667,0.693333 -0.64,0.293333 -1.52,0.293333 -1.06666,0 -1.73333,-0.24 -0.66667,-0.24 -1.04,-0.506666 -0.18667,-0.133334 -0.42667,-0.32 -0.21333,-0.213334 -0.4,-0.56 -0.18666,-0.346667 -0.32,-0.88 -0.13333,-0.56 -0.13333,-1.36 V 14.06167 h -2.05333 v -0.373334 h 4.34666 v 8.186667 q 0,0.693333 0.08,1.28 0.10667,0.586666 0.37334,1.04 0.26666,0.426666 0.69333,0.693333 0.42667,0.24 1.12,0.24 0.58667,0 1.2,-0.346667 0.64,-0.346666 1.14667,-0.986666 0.53333,-0.64 0.88,-1.52 0.34666,-0.906667 0.34666,-2.026667 V 14.06167 h -2.02666 v -0.373334 h 4.32 v 11.066667 h 2.05333 z"
       id="path21" />
    <path
       d="m 255.29047,7.475003 q 0,-0.5866666 0.4,-0.9866666 0.42667,-0.4266667 1.01333,-0.4266667 0.58667,0 0.98667,0.4266667 0.42667,0.4 0.42667,0.9866666 0,0.5866667 -0.42667,1.0133333 -0.4,0.4 -0.98667,0.4 -0.58666,0 -1.01333,-0.4 -0.4,-0.4266666 -0.4,-1.0133333 z m -1.73333,17.28 h 2.05333 V 14.06167 h -2.05333 v -0.373334 h 4.34666 v 11.066667 h 2.05334 v 0.373333 h -6.4 z"
       id="path23" />
    <path
       d="m 272.59713,22.195003 q -0.08,0.293333 -0.32,0.853333 -0.21333,0.533333 -0.72,1.093333 -0.48,0.533334 -1.33333,0.96 -0.82667,0.4 -2.16,0.4 -1.01334,0 -2.10667,-0.32 -1.09333,-0.32 -2,-1.013333 -0.90667,-0.72 -1.49333,-1.866667 -0.56,-1.146666 -0.56,-2.826666 0,-1.306667 0.48,-2.426667 0.50666,-1.12 1.33333,-1.946666 0.85333,-0.826667 1.97333,-1.28 1.14667,-0.48 2.42667,-0.48 0.72,0 1.46667,0.186666 0.77333,0.16 1.38666,0.533334 0.64,0.346666 1.04,0.933333 0.42667,0.56 0.42667,1.386666 0,0.56 -0.37333,0.933334 -0.34667,0.346666 -1.01334,0.346666 -0.45333,0 -0.88,-0.186666 -0.4,-0.213334 -0.4,-0.693334 0,-0.373333 0.18667,-0.906666 0.18667,-0.533333 0.18667,-0.88 0,-0.613333 -0.61334,-0.933333 -0.61333,-0.346667 -1.41333,-0.346667 -0.58667,0 -1.22667,0.16 -0.61333,0.133333 -1.14666,0.72 -0.50667,0.586667 -0.85334,1.76 -0.32,1.173333 -0.32,3.2 0,1.146666 0.13334,2.16 0.16,1.013333 0.53333,1.786666 0.4,0.746667 1.06667,1.2 0.69333,0.426667 1.78666,0.426667 1.17334,0 1.92,-0.346667 0.77334,-0.346666 1.2,-0.826666 0.45334,-0.506667 0.66667,-1.013334 0.21333,-0.506666 0.32,-0.826666 z"
       id="path25" />
    <path
       d="m 274.01043,24.755003 h 2.05333 V 6.2750031 h -2.05333 V 5.9016697 h 4.34667 V 18.648336 h 0.29333 l 5.30667,-4.586666 h -1.89334 v -0.373334 h 4.13334 v 0.373334 h -1.6 l -4.16,3.573333 5.89333,7.12 h 1.14667 v 0.373333 h -6 v -0.373333 h 1.89333 l -4.72,-5.733334 h -0.29333 v 5.733334 h 1.46666 v 0.373333 h -5.81333 z"
       id="path27" />
    <path
       d="m 301.42372,14.755003 h 2.45333 q 0.74667,0 1.36,-0.186667 0.61334,-0.186666 1.04,-0.64 0.45334,-0.48 0.69334,-1.28 0.24,-0.8 0.24,-2.026666 0,-1.386667 -0.37334,-2.2133336 -0.34666,-0.8533334 -0.93333,-1.28 -0.56,-0.4266667 -1.28,-0.56 -0.69333,-0.1333333 -1.38667,-0.1333333 -0.48,0 -0.98666,0.026667 -0.48,0 -0.82667,0.053333 z m 0,10 q 0.32,0.02667 0.69333,0.08 0.4,0.02667 1.12,0.02667 1.25334,0 2.13334,-0.24 0.90666,-0.24 1.46666,-0.826666 0.58667,-0.613334 0.85334,-1.6 0.26666,-0.986667 0.26666,-2.48 0,-2.133334 -0.90666,-3.36 -0.90667,-1.226667 -2.69334,-1.226667 h -2.93333 z m -5.62666,0 h 2.95999 V 6.5150031 h -2.95999 V 6.1416697 h 4.66666 q 0.4,0 0.8,0 0.42667,-0.026667 0.85333,-0.053333 0.42667,0 0.82667,0 0.4,-0.026667 0.77333,-0.026667 1.94667,0 3.2,0.48 1.25334,0.4533334 1.97334,1.1466667 0.72,0.6666666 0.98666,1.4666666 0.26667,0.7733333 0.26667,1.413333 0,0.88 -0.4,1.626667 -0.37333,0.746667 -1.04,1.306667 -0.64,0.56 -1.49333,0.906666 -0.85334,0.346667 -1.78667,0.453334 v 0.05333 q 0.96,0.08 1.94667,0.426667 1.01333,0.32 1.81333,0.933333 0.82667,0.586666 1.33333,1.466666 0.50667,0.88 0.50667,2.026667 0,1.2 -0.45333,2.213333 -0.45334,0.986667 -1.36,1.706667 -0.90667,0.72 -2.29334,1.146667 -1.38666,0.4 -3.22666,0.4 -0.37334,0 -0.74667,-0.02667 -0.34667,0 -0.74667,-0.02667 -0.4,-0.02667 -0.82666,-0.05333 -0.42667,0 -0.90667,0 h -4.66666 z"
       id="path29" />
    <path
       d="m 313.50372,24.755003 h 2.05334 V 14.06167 h -2.05334 v -0.373334 h 4.29334 v 2.693333 h 0.0533 q 0.10667,-0.399999 0.34667,-0.906666 0.24,-0.506667 0.66666,-0.96 0.42667,-0.48 1.01334,-0.8 0.61333,-0.32 1.46666,-0.32 0.61334,0 1.06667,0.213333 0.45333,0.186667 0.74667,0.506667 0.29333,0.293333 0.42666,0.693333 0.13333,0.4 0.13333,0.8 0,0.88 -0.39999,1.173333 -0.4,0.293334 -0.93334,0.293334 -1.17333,0 -1.17333,-0.746667 0,-0.24 0.0533,-0.373333 0.0533,-0.16 0.10667,-0.293333 0.08,-0.16 0.13333,-0.346667 0.0533,-0.186667 0.0533,-0.533333 0,-0.853334 -0.93334,-0.853334 -0.42666,0 -0.90666,0.32 -0.48,0.32 -0.90667,0.933334 -0.4,0.613333 -0.69333,1.493333 -0.26667,0.853333 -0.26667,1.973333 v 6.106667 h 2.32 v 0.373333 h -6.66667 z"
       id="path31" />
    <path
       d="m 327.50371,19.421669 q 0,1.893334 0.29333,3.013334 0.29333,1.12 0.77333,1.733333 0.48,0.586667 1.12,0.773333 0.64,0.186667 1.36,0.186667 0.72,0 1.36,-0.186667 0.64,-0.186666 1.12,-0.773333 0.48,-0.613333 0.77334,-1.733333 0.29333,-1.12 0.29333,-3.013334 0,-1.6 -0.21333,-2.666666 -0.21334,-1.093333 -0.66667,-1.76 -0.42667,-0.693333 -1.09333,-0.986667 -0.66667,-0.293333 -1.57334,-0.293333 -0.90666,0 -1.57333,0.293333 -0.66667,0.293334 -1.12,0.986667 -0.42667,0.666667 -0.64,1.76 -0.21333,1.066666 -0.21333,2.666666 z m -2.66667,0 q 0,-1.306666 0.56,-2.426666 0.58667,-1.12 1.46667,-1.92 0.90666,-0.826667 2,-1.28 1.12,-0.453333 2.18666,-0.453333 1.06667,0 2.16,0.453333 1.12,0.453333 2,1.28 0.90667,0.8 1.46667,1.92 0.58667,1.12 0.58667,2.426666 0,1.253334 -0.53334,2.373334 -0.53333,1.093333 -1.41333,1.92 -0.85333,0.826666 -1.97333,1.306666 -1.12,0.48 -2.29334,0.48 -1.17333,0 -2.29333,-0.48 -1.12,-0.48 -2,-1.306666 -0.85333,-0.826667 -1.38667,-1.92 -0.53333,-1.12 -0.53333,-2.373334 z"
       id="path33" />
    <path
       d="m 338.09035,13.688336 h 6.42667 v 0.373334 h -2.21333 l 2.98666,8.319999 2.77334,-6.586666 -0.66667,-1.733333 h -1.12 v -0.373334 h 5.30667 v 0.373334 h -1.78667 l 3.09333,8.266666 3.33334,-8.266666 h -2.50667 v -0.373334 h 4.34667 v 0.373334 h -1.41334 l -4.77333,11.946666 -3.62667,-9.68 -4.05333,9.68 -4.29333,-11.946666 h -1.81334 z"
       id="path35" />
    <path
       d="M 358.62367,24.755003 H 360.677 V 14.06167 h -2.05333 v -0.373334 h 4.29333 v 2.853333 h 0.0533 q 0.16,-0.346666 0.45334,-0.879999 0.32,-0.533334 0.85333,-1.04 0.53333,-0.506667 1.33333,-0.853334 0.8,-0.373333 1.94667,-0.373333 1.76,0 2.85333,0.853333 1.12,0.853334 1.12,2.72 v 7.786667 h 2.05334 v 0.373333 h -6.4 V 24.755003 H 369.237 V 16.14167 q 0,-1.04 -0.50667,-1.706667 -0.48,-0.666667 -1.52,-0.666667 -0.85333,0 -1.62666,0.373334 -0.77334,0.373333 -1.36,1.04 -0.58667,0.666666 -0.93334,1.573333 -0.32,0.906666 -0.32,1.973333 v 6.026667 h 2.05334 v 0.373333 h -6.4 z"
       id="path37" />
    <path
       d="m 160.3307,58.088339 h 2.96 v -18.24 h -2.96 v -0.373333 h 15.25333 v 4.613333 h -0.29333 q -0.34667,-1.04 -0.74667,-1.813333 -0.4,-0.8 -0.96,-1.333334 -0.56,-0.56 -1.33333,-0.826666 -0.77333,-0.266667 -1.86667,-0.266667 h -4.42666 v 8.64 h 1.73333 q 0.88,0 1.49333,-0.16 0.61334,-0.16 1.04,-0.586667 0.45334,-0.453333 0.74667,-1.2 0.32,-0.773333 0.61333,-1.973333 h 0.29334 v 8.293333 h -0.29334 q -0.18666,-0.773333 -0.4,-1.493333 -0.18666,-0.72 -0.56,-1.28 -0.34666,-0.56 -0.96,-0.88 -0.58666,-0.346667 -1.54666,-0.346667 h -2.16 v 9.226667 h 2.96 v 0.373333 h -8.58667 z"
       id="path39" />
    <path
       d="m 178.51735,52.755005 q 0,1.893334 0.29333,3.013334 0.29334,1.12 0.77334,1.733333 0.48,0.586667 1.12,0.773333 0.64,0.186667 1.36,0.186667 0.72,0 1.36,-0.186667 0.64,-0.186666 1.12,-0.773333 0.48,-0.613333 0.77333,-1.733333 0.29333,-1.12 0.29333,-3.013334 0,-1.6 -0.21333,-2.666666 -0.21333,-1.093334 -0.66667,-1.76 -0.42666,-0.693334 -1.09333,-0.986667 -0.66667,-0.293333 -1.57333,-0.293333 -0.90667,0 -1.57334,0.293333 -0.66666,0.293333 -1.12,0.986667 -0.42666,0.666666 -0.64,1.76 -0.21333,1.066666 -0.21333,2.666666 z m -2.66667,0 q 0,-1.306666 0.56,-2.426666 0.58667,-1.12 1.46667,-1.92 0.90667,-0.826667 2,-1.28 1.12,-0.453334 2.18667,-0.453334 1.06666,0 2.16,0.453334 1.12,0.453333 2,1.28 0.90666,0.8 1.46666,1.92 0.58667,1.12 0.58667,2.426666 0,1.253334 -0.53333,2.373334 -0.53334,1.093333 -1.41334,1.92 -0.85333,0.826666 -1.97333,1.306666 -1.12,0.48 -2.29333,0.48 -1.17334,0 -2.29334,-0.48 -1.12,-0.48 -2,-1.306666 -0.85333,-0.826667 -1.38666,-1.92 -0.53334,-1.12 -0.53334,-2.373334 z"
       id="path41" />
    <path
       d="m 189.61067,58.088339 h 1.41334 l 3.65333,-4.906667 -3.97333,-5.786667 h -1.49334 v -0.373333 h 6.26667 v 0.373333 h -2.10667 l 2.74667,4 2.88,-4 h -1.97333 v -0.373333 h 3.92 v 0.373333 h -1.41334 l -3.17333,4.373334 4.34667,6.32 h 1.46666 v 0.373333 h -6.24 v -0.373333 h 2.10667 l -3.12,-4.533334 -3.36,4.533334 h 1.97333 v 0.373333 h -3.92 z"
       id="path43" />
    <path
       d="m 218.22397,53.581672 q 0,1.093333 -0.24,2.053333 -0.21333,0.96 -0.74666,1.68 -0.50667,0.72 -1.36,1.146667 -0.85334,0.4 -2.08,0.4 -0.85334,0 -1.57334,-0.213334 -0.72,-0.186666 -1.25333,-0.559999 -0.53333,-0.4 -0.85333,-0.933334 -0.29334,-0.533333 -0.29334,-1.2 0,-0.8 0.45334,-1.28 0.45333,-0.506666 1.33333,-0.506666 0.4,0 0.66667,0.133333 0.26666,0.133333 0.4,0.32 0.16,0.16 0.21333,0.373333 0.08,0.213334 0.08,0.373334 0,0.293333 -0.08,0.506666 -0.08,0.213334 -0.16,0.426667 -0.08,0.213333 -0.16,0.453333 -0.08,0.24 -0.08,0.613334 0,0.613333 0.34667,0.88 0.37333,0.239999 0.98666,0.239999 0.77334,0 1.25334,-0.559999 0.48,-0.586667 0.48,-2.026667 V 39.848339 h -2.96 v -0.373333 h 8.58666 v 0.373333 h -2.96 z"
       id="path45" />
    <path
       d="m 236.30391,58.461672 h -4.29333 v -2.693333 h -0.0533 q -0.24,0.533333 -0.58667,1.093333 -0.32,0.533333 -0.82667,0.986667 -0.48,0.426666 -1.14666,0.693333 -0.64,0.293333 -1.52,0.293333 -1.06667,0 -1.73334,-0.24 -0.66666,-0.24 -1.04,-0.506666 -0.18666,-0.133334 -0.42666,-0.32 -0.21334,-0.213334 -0.4,-0.56 -0.18667,-0.346667 -0.32,-0.88 -0.13334,-0.56 -0.13334,-1.36 v -7.573334 h -2.05333 v -0.373333 h 4.34667 v 8.186667 q 0,0.693333 0.08,1.28 0.10666,0.586666 0.37333,1.04 0.26667,0.426666 0.69333,0.693333 0.42667,0.24 1.12,0.24 0.58667,0 1.2,-0.346667 0.64,-0.346666 1.14667,-0.986666 0.53333,-0.64 0.88,-1.52 0.34667,-0.906667 0.34667,-2.026667 v -6.186667 h -2.02667 v -0.373333 h 4.32 v 11.066667 h 2.05333 z"
       id="path47" />
    <path
       d="m 237.47721,58.088339 h 2.05333 V 47.395005 h -2.05333 v -0.373333 h 4.29333 v 2.8 h 0.0533 q 0.56,-1.6 1.6,-2.346667 1.06666,-0.746666 2.56,-0.746666 1.33333,0 2.34666,0.586666 1.04,0.586667 1.36,1.946667 h 0.0533 q 0.18666,-0.48 0.50666,-0.933333 0.32,-0.453334 0.8,-0.8 0.48,-0.373334 1.12,-0.586667 0.66667,-0.213333 1.49334,-0.213333 3.89333,0 3.89333,3.973333 v 7.386667 h 2.05333 v 0.373333 h -6.4 v -0.373333 h 2.05334 v -9.066667 q 0,-0.906667 -0.50667,-1.413333 -0.48,-0.506667 -1.33333,-0.506667 -0.66667,0 -1.33334,0.266667 -0.66666,0.24 -1.2,0.746666 -0.53333,0.506667 -0.88,1.306667 -0.32,0.8 -0.32,1.866667 v 6.8 h 2.05334 v 0.373333 h -6.4 v -0.373333 h 2.05333 v -8.693334 q 0,-1.173333 -0.48,-1.733333 -0.48,-0.56 -1.28,-0.56 -0.56,0 -1.22667,0.293333 -0.66666,0.266667 -1.25333,0.88 -0.56,0.586667 -0.96,1.546667 -0.37333,0.96 -0.37333,2.346667 v 5.92 h 2.05333 v 0.373333 h -6.4 z"
       id="path49" />
    <path
       d="m 271.90384,52.355005 q 0,-1.226666 -0.13333,-2.186666 -0.13333,-0.986667 -0.48,-1.68 -0.32,-0.693334 -0.93333,-1.066667 -0.58667,-0.373333 -1.52,-0.373333 -0.98667,0 -1.62667,0.346666 -0.64,0.346667 -1.04,0.88 -0.29333,0.373334 -0.48,0.8 -0.16,0.426667 -0.26667,1.013334 -0.10666,0.586666 -0.16,1.36 -0.0267,0.746666 -0.0267,1.786666 0,0.88 0.13333,1.813334 0.13333,0.933333 0.50667,1.706666 0.37333,0.746667 1.04,1.226667 0.69333,0.48 1.81333,0.48 1.09333,0 1.73333,-0.426667 0.64,-0.426666 0.96,-1.226666 0.32,-0.8 0.4,-1.92 0.08,-1.146667 0.08,-2.533334 z m -11.01333,13.2 h 2.05333 v -18.16 h -2.05333 v -0.373333 h 4.29333 v 2.24 h 0.0533 q 0.4,-1.12 1.30666,-1.84 0.93334,-0.746667 2.4,-0.746667 1.14667,0 2.16,0.506667 1.01334,0.48 1.78667,1.306667 0.77333,0.8 1.22667,1.893333 0.45333,1.093333 0.45333,2.293333 0,1.226667 -0.48,2.346667 -0.45333,1.093333 -1.25333,1.946667 -0.8,0.853333 -1.86667,1.359999 -1.04,0.506667 -2.21333,0.506667 -0.90667,0 -1.54667,-0.32 -0.61333,-0.293333 -1.01333,-0.693333 -0.4,-0.426667 -0.61334,-0.853333 -0.21333,-0.453334 -0.29333,-0.72 h -0.0533 v 9.306666 h 2.05333 v 0.373333 h -6.4 z"
       id="path51" />
    <path
       d="m 277.45047,54.728339 h 0.29333 q 0.18667,0.64 0.48,1.306666 0.29334,0.64 0.77334,1.2 0.50666,0.533334 1.22666,0.88 0.72,0.346667 1.73334,0.346667 0.85333,0 1.52,-0.506667 0.66666,-0.533333 0.66666,-1.706666 0,-1.013334 -0.53333,-1.413334 -0.50667,-0.426666 -1.2,-0.666666 l -2.08,-0.72 q -0.4,-0.133334 -0.88,-0.32 -0.45333,-0.213334 -0.85333,-0.56 -0.4,-0.373334 -0.66667,-0.933334 -0.24,-0.56 -0.24,-1.44 0,-0.746666 0.29333,-1.386666 0.29334,-0.64 0.8,-1.12 0.50667,-0.48 1.2,-0.746667 0.72,-0.266667 1.54667,-0.266667 0.58667,0 0.93333,0.106667 0.37334,0.08 0.64,0.186667 0.26667,0.08 0.48,0.186666 0.21334,0.08 0.50667,0.08 0.29333,0 0.42667,-0.213333 h 0.29333 v 3.04 h -0.29333 q -0.18667,-0.586667 -0.42667,-1.12 -0.24,-0.56 -0.58667,-0.986667 -0.32,-0.426666 -0.82666,-0.666666 -0.48,-0.24 -1.14667,-0.24 -1.28,0 -2,0.586666 -0.69333,0.56 -0.69333,1.52 0,0.853334 0.58666,1.306667 0.61334,0.426667 1.78667,0.8 l 1.94667,0.64 q 1.25333,0.426667 2.05333,1.173333 0.8,0.746667 0.8,1.973334 0,0.72 -0.29333,1.413333 -0.26667,0.693333 -0.82667,1.226667 -0.53333,0.506666 -1.33333,0.826666 -0.77334,0.32 -1.78667,0.32 -0.58667,0 -1.09333,-0.133333 -0.48,-0.106667 -0.90667,-0.24 -0.4,-0.133334 -0.74667,-0.24 -0.34666,-0.133333 -0.64,-0.133333 -0.29333,0 -0.42666,0.133333 -0.13334,0.106666 -0.21334,0.24 h -0.29333 z"
       id="path53" />
    <path
       d="m 299.61044,48.941672 q 0,2.4 0.32,4.186667 0.32,1.786666 1.06666,2.986666 0.74667,1.2 1.92,1.786667 1.17334,0.586666 2.90667,0.586666 1.70667,0 2.88,-0.586666 1.2,-0.586667 1.94667,-1.786667 0.74666,-1.2 1.06666,-2.986666 0.32,-1.786667 0.32,-4.186667 0,-1.84 -0.24,-3.546667 -0.24,-1.733333 -0.93333,-3.066666 -0.66667,-1.36 -1.89333,-2.16 -1.2,-0.8 -3.14667,-0.8 -1.94667,0 -3.17333,0.8 -1.2,0.8 -1.89334,2.16 -0.66666,1.333333 -0.90666,3.066666 -0.24,1.706667 -0.24,3.546667 z m -3.06667,0 q 0,-2.133333 0.82667,-3.946667 0.85333,-1.813333 2.16,-3.146666 1.33333,-1.333333 2.98666,-2.08 1.65334,-0.773333 3.30667,-0.773333 1.76,0 3.41333,0.773333 1.68,0.746667 2.98667,2.08 1.30667,1.333333 2.08,3.146666 0.8,1.813334 0.8,3.946667 0,1.866667 -0.72,3.653333 -0.72,1.786667 -1.97333,3.173334 -1.25334,1.386666 -2.96,2.24 -1.68,0.853333 -3.62667,0.853333 -2,0 -3.70667,-0.826667 -1.70666,-0.826666 -2.96,-2.186666 -1.22666,-1.386667 -1.92,-3.173334 -0.69333,-1.813333 -0.69333,-3.733333 z"
       id="path55" />
    <path
       d="m 316.43707,47.021672 h 6.45333 v 0.373333 h -2.18666 l 3.43999,8.373334 3.57334,-8.373334 h -2.18667 v -0.373333 h 4.05333 v 0.373333 h -1.44 l -5.03999,11.946667 -4.85334,-11.946667 h -1.81333 z"
       id="path57" />
    <path
       d="m 338.8637,51.475005 q 0.0533,-0.373333 0.0533,-0.693333 0,-0.32 0,-0.666667 0,-0.906666 -0.18667,-1.493333 -0.16,-0.586667 -0.48,-0.933333 -0.29333,-0.346667 -0.74667,-0.48 -0.42666,-0.16 -0.93333,-0.16 -0.90667,0 -1.49333,0.373333 -0.58667,0.346667 -0.93334,0.96 -0.34666,0.613333 -0.53333,1.413333 -0.16,0.8 -0.21333,1.68 z m -5.49333,0.373334 q 0,0.266666 -0.0267,0.56 0,0.266666 0,0.693333 0,0.88 0.10667,1.84 0.10667,0.96 0.45333,1.733333 0.37334,0.773334 1.06667,1.28 0.72,0.506667 1.89333,0.506667 1.17334,0 1.92,-0.346667 0.77334,-0.346666 1.2,-0.826666 0.45334,-0.506667 0.66667,-1.013334 0.21333,-0.506666 0.32,-0.826666 l 0.4,0.08 q -0.08,0.293333 -0.32,0.853333 -0.21333,0.533333 -0.72,1.093333 -0.48,0.533334 -1.33333,0.96 -0.82667,0.4 -2.16,0.4 -1.33334,0 -2.48,-0.426667 -1.12,-0.426666 -1.94667,-1.226666 -0.82667,-0.8 -1.28,-1.893333 -0.45333,-1.12 -0.45333,-2.48 0,-1.173334 0.45333,-2.266667 0.48,-1.12 1.28,-1.973333 0.82667,-0.853334 1.92,-1.36 1.09333,-0.533334 2.34667,-0.533334 0.74666,0 1.6,0.266667 0.85333,0.266667 1.57333,0.88 0.74667,0.586667 1.22667,1.573333 0.50666,0.986667 0.50666,2.453334 z"
       id="path59" />
    <path
       d="m 343.53032,58.088339 h 2.05333 V 47.395005 h -2.05333 v -0.373333 h 4.29333 v 2.693333 h 0.0533 q 0.10667,-0.4 0.34667,-0.906666 0.24,-0.506667 0.66667,-0.96 0.42666,-0.48 1.01333,-0.8 0.61333,-0.32 1.46667,-0.32 0.61333,0 1.06666,0.213333 0.45334,0.186667 0.74667,0.506667 0.29333,0.293333 0.42667,0.693333 0.13333,0.4 0.13333,0.8 0,0.88 -0.4,1.173333 -0.4,0.293334 -0.93333,0.293334 -1.17334,0 -1.17334,-0.746667 0,-0.24 0.0533,-0.373333 0.0533,-0.16 0.10666,-0.293334 0.08,-0.16 0.13334,-0.346666 0.0533,-0.186667 0.0533,-0.533334 0,-0.853333 -0.93333,-0.853333 -0.42667,0 -0.90667,0.32 -0.48,0.32 -0.90667,0.933333 -0.4,0.613334 -0.69333,1.493334 -0.26667,0.853333 -0.26667,1.973333 v 6.106667 h 2.32 v 0.373333 h -6.66666 z"
       id="path61" />
    <path
       d="m 164.35737,91.421674 h 2.96 V 73.181675 h -1.54667 q -0.53333,0 -1.2,0.106666 -0.66667,0.08 -1.36,0.506667 -0.66667,0.426667 -1.30667,1.36 -0.61333,0.906667 -1.06666,2.533333 h -0.29334 v -4.88 h 16.21334 v 4.88 h -0.29334 q -0.45333,-1.626666 -1.09333,-2.533333 -0.61333,-0.933333 -1.30667,-1.36 -0.66666,-0.426667 -1.33333,-0.506667 -0.66667,-0.106666 -1.2,-0.106666 h -1.54667 v 18.239999 h 2.96 v 0.373334 h -8.58666 z"
       id="path63" />
    <path
       d="m 178.43732,91.421674 h 2.05333 V 72.941675 h -2.05333 v -0.373334 h 4.34666 v 10.48 h 0.0533 q 0.13333,-0.346666 0.45333,-0.853333 0.32,-0.533333 0.85333,-0.986667 0.56,-0.48 1.33334,-0.8 0.8,-0.346666 1.89333,-0.346666 1.76,0 2.85333,0.853333 1.12,0.853333 1.12,2.72 v 7.786666 h 2.05334 v 0.373334 h -6.4 v -0.373334 h 2.05333 v -8.613333 q 0,-1.04 -0.50667,-1.706666 -0.48,-0.666667 -1.52,-0.666667 -0.85333,0 -1.62666,0.373333 -0.77334,0.373334 -1.36,1.04 -0.58667,0.666667 -0.93334,1.573334 -0.32,0.906666 -0.32,1.973333 v 6.026666 h 2.05334 v 0.373334 h -6.4 z"
       id="path65" />
    <path
       d="m 203.4506,84.808341 q 0.0533,-0.373333 0.0533,-0.693333 0,-0.32 0,-0.666667 0,-0.906666 -0.18666,-1.493333 -0.16,-0.586667 -0.48,-0.933333 -0.29334,-0.346667 -0.74667,-0.48 -0.42667,-0.16 -0.93333,-0.16 -0.90667,0 -1.49334,0.373333 -0.58666,0.346667 -0.93333,0.96 -0.34667,0.613333 -0.53333,1.413333 -0.16,0.8 -0.21334,1.68 z m -5.49333,0.373334 q 0,0.266666 -0.0267,0.56 0,0.266666 0,0.693333 0,0.88 0.10667,1.84 0.10666,0.96 0.45333,1.733333 0.37333,0.773333 1.06667,1.28 0.72,0.506667 1.89333,0.506667 1.17333,0 1.92,-0.346667 0.77333,-0.346667 1.2,-0.826667 0.45333,-0.506666 0.66667,-1.013333 0.21333,-0.506667 0.32,-0.826667 l 0.4,0.08 q -0.08,0.293334 -0.32,0.853334 -0.21334,0.533333 -0.72,1.093333 -0.48,0.533333 -1.33334,0.96 -0.82666,0.4 -2.16,0.4 -1.33333,0 -2.48,-0.426667 -1.12,-0.426666 -1.94666,-1.226666 -0.82667,-0.8 -1.28,-1.893334 -0.45334,-1.12 -0.45334,-2.479999 0,-1.173334 0.45334,-2.266667 0.48,-1.12 1.28,-1.973333 0.82666,-0.853334 1.92,-1.36 1.09333,-0.533334 2.34666,-0.533334 0.74667,0 1.6,0.266667 0.85334,0.266667 1.57334,0.88 0.74666,0.586667 1.22666,1.573333 0.50667,0.986667 0.50667,2.453334 z"
       id="path67" />
    <path
       d="m 215.61055,91.421674 h 2.96 V 73.181675 h -2.96 v -0.373334 h 8.58666 v 0.373334 h -2.96 v 18.239999 h 4.74667 q 2.34667,0 3.68,-1.466666 1.33333,-1.466667 1.94667,-4 h 0.29333 v 5.84 h -16.29333 z"
       id="path69" />
    <path
       d="m 241.15719,85.261675 h -0.0533 q -0.0533,0.346666 -0.88,0.693333 l -2,0.8 q -0.85333,0.346666 -1.30667,0.986666 -0.45333,0.613334 -0.45333,1.546667 0,0.4 0.08,0.826667 0.08,0.426666 0.29333,0.773333 0.21334,0.32 0.58667,0.533333 0.4,0.213334 1.01333,0.213334 0.88,0 1.41334,-0.373334 0.56,-0.373333 0.82666,-0.933333 0.29334,-0.56 0.37334,-1.2 0.10666,-0.666667 0.10666,-1.2 z m 4.66667,6.239999 q -0.34667,0.266667 -0.82667,0.453334 -0.48,0.213333 -1.17333,0.213333 -1.28,0 -1.86667,-0.533333 -0.56,-0.56 -0.77333,-1.546667 h -0.0533 q -0.10667,0.24 -0.29334,0.613333 -0.18666,0.346667 -0.58666,0.693334 -0.37334,0.32 -1.01334,0.533333 -0.64,0.24 -1.62666,0.24 -1.12,0 -1.78667,-0.266667 -0.66667,-0.24 -1.04,-0.613333 -0.37333,-0.373333 -0.50667,-0.826667 -0.10666,-0.48 -0.10666,-0.88 0,-0.933333 0.37333,-1.493333 0.37333,-0.56 0.96,-0.88 0.61333,-0.346667 1.33333,-0.56 0.74667,-0.213333 1.49334,-0.453333 0.88,-0.293333 1.44,-0.506667 0.58666,-0.213333 0.90666,-0.506666 0.32,-0.32 0.42667,-0.773334 0.13333,-0.48 0.13333,-1.28 0,-0.64 -0.08,-1.146666 -0.08,-0.506667 -0.29333,-0.853334 -0.21333,-0.373333 -0.61333,-0.56 -0.4,-0.186666 -1.06667,-0.186666 -0.88,0 -1.46667,0.32 -0.56,0.293333 -0.56,0.986666 0,0.453334 0.08,0.906667 0.08,0.426667 0.08,0.64 0,0.373333 -0.26666,0.64 -0.26667,0.24 -0.77334,0.24 -0.88,0 -1.09333,-0.32 -0.21333,-0.32 -0.21333,-0.826667 0,-0.586666 0.26666,-1.12 0.26667,-0.533333 0.77334,-0.933333 0.53333,-0.426667 1.30666,-0.666667 0.8,-0.24 1.81334,-0.24 1.22666,0 2.05333,0.32 0.82667,0.293334 1.33333,0.826667 0.50667,0.506667 0.72,1.173333 0.21334,0.64 0.21334,1.36 v 6.64 q 0,0.773333 0.24,1.04 0.24,0.266667 0.69333,0.266667 0.29333,0 0.61333,-0.106667 0.32,-0.106667 0.61334,-0.32 z"
       id="path71" />
    <path
       d="m 247.82384,80.355008 h 8.45333 l -6.64,11.066666 h 3.76 q 0.77334,0 1.25334,-0.293333 0.50666,-0.32 0.8,-0.773333 0.32,-0.48 0.48,-1.013334 0.18666,-0.533333 0.34666,-1.013333 h 0.21334 l -0.34667,3.466667 h -9.28 l 6.64,-11.066667 h -2.29333 q -0.66667,0 -1.17334,0.05333 -0.48,0.02667 -0.88,0.266666 -0.4,0.24 -0.74666,0.773334 -0.34667,0.533333 -0.74667,1.52 h -0.21333 z"
       id="path73" />
    <path
       d="m 257.13047,80.355008 h 6.53333 v 0.373333 h -2.24 l 3.44,8.373333 3.6,-8.373333 h -2.21333 v -0.373333 h 4.08 v 0.373333 h -1.44 l -4.4,10.293333 q -0.50667,1.146667 -0.96,2.293334 -0.45334,1.173333 -0.90667,2.346666 -0.37333,0.96 -0.74667,1.68 -0.37333,0.72 -0.8,1.173334 -0.4,0.453333 -0.88,0.666666 -0.48,0.24 -1.12,0.24 -0.77333,0 -1.25333,-0.24 -0.45333,-0.24 -0.72,-0.56 -0.26667,-0.32 -0.34667,-0.666666 -0.08,-0.346667 -0.08,-0.586667 0,-0.666667 0.37334,-1.013333 0.37333,-0.32 0.90666,-0.32 0.18667,0 0.4,0.02667 0.21334,0.05333 0.4,0.16 0.18667,0.106667 0.32,0.293334 0.13334,0.186666 0.13334,0.453333 0,0.373333 -0.24,0.693333 -0.21334,0.346667 -0.21334,0.746667 0,0.346667 0.18667,0.453333 0.18667,0.106667 0.50667,0.106667 0.42666,0 0.77333,-0.213333 0.37333,-0.186667 0.72,-0.64 0.34667,-0.453334 0.69333,-1.2 0.34667,-0.72 0.77334,-1.786667 l 1.17333,-2.986667 -4.61333,-11.413333 h -1.84 z"
       id="path75" />
    <path
       d="m 283.93044,91.421674 q 0.45333,0.05333 1.04,0.08 0.61333,0.02667 1.33333,0.02667 0.90667,0 1.78667,-0.08 0.90666,-0.106667 1.70666,-0.4 0.82667,-0.32 1.52,-0.88 0.72,-0.586667 1.28,-1.52 0.85334,-1.44 1.17334,-2.933333 0.34666,-1.52 0.34666,-3.306667 0,-2.106666 -0.4,-3.813333 -0.4,-1.733333 -1.33333,-2.933333 -0.90667,-1.226667 -2.42667,-1.893334 -1.52,-0.666666 -3.76,-0.666666 -0.66666,0 -1.22666,0.02667 -0.53334,0.02667 -1.04,0.05333 z m -5.62667,0 h 2.96 V 73.181675 h -2.96 v -0.373334 h 4.96 q 0.37333,0 0.74667,0 0.37333,-0.02667 0.74666,-0.05333 0.37334,0 0.74667,0 0.37333,-0.02667 0.74667,-0.02667 0.8,0 1.41333,0.02667 0.64,0.02667 1.17333,0.106667 0.56,0.05333 1.04,0.186666 0.50667,0.106667 1.06667,0.293334 1.62667,0.533333 2.8,1.44 1.2,0.88 1.94667,2.053333 0.77333,1.173333 1.12,2.56 0.37333,1.386667 0.37333,2.906667 0,1.76 -0.42667,3.173333 -0.42666,1.386666 -1.17333,2.48 -0.74667,1.066666 -1.76,1.866666 -0.98667,0.773334 -2.13333,1.253334 -0.64,0.293333 -1.22667,0.453333 -0.56,0.16 -1.17333,0.24 -0.58667,0.08 -1.30667,0.106667 -0.72,0.02667 -1.65333,0.02667 -0.4,0 -0.85334,-0.02667 -0.45333,0 -0.90666,-0.02667 -0.45334,-0.02667 -0.90667,-0.05333 -0.42667,0 -0.82667,0 h -4.53333 z"
       id="path77" />
    <path
       d="m 303.10373,86.088341 q 0,1.893333 0.29333,3.013333 0.29333,1.12 0.77333,1.733334 0.48,0.586666 1.12,0.773333 0.64,0.186667 1.36,0.186667 0.72,0 1.36,-0.186667 0.64,-0.186667 1.12,-0.773333 0.48,-0.613334 0.77334,-1.733334 0.29333,-1.12 0.29333,-3.013333 0,-1.6 -0.21333,-2.666666 -0.21334,-1.093334 -0.66667,-1.76 -0.42667,-0.693334 -1.09333,-0.986667 -0.66667,-0.293333 -1.57334,-0.293333 -0.90666,0 -1.57333,0.293333 -0.66667,0.293333 -1.12,0.986667 -0.42667,0.666666 -0.64,1.76 -0.21333,1.066666 -0.21333,2.666666 z m -2.66667,0 q 0,-1.306666 0.56,-2.426666 0.58667,-1.12 1.46667,-1.92 0.90666,-0.826667 2,-1.28 1.12,-0.453334 2.18666,-0.453334 1.06667,0 2.16,0.453334 1.12,0.453333 2,1.28 0.90667,0.8 1.46667,1.92 0.58667,1.12 0.58667,2.426666 0,1.253333 -0.53334,2.373333 -0.53333,1.093334 -1.41333,1.92 -0.85333,0.826667 -1.97333,1.306667 -1.12,0.48 -2.29334,0.48 -1.17333,0 -2.29333,-0.48 -1.12,-0.48 -2,-1.306667 -0.85333,-0.826666 -1.38667,-1.92 -0.53333,-1.12 -0.53333,-2.373333 z"
       id="path79" />
    <path
       d="m 319.23705,92.595008 q -0.34666,0.213333 -0.72,0.426666 -0.34666,0.24 -0.64,0.586667 -0.26666,0.346667 -0.45333,0.8 -0.16,0.48 -0.16,1.173333 0,0.96 0.32,1.573334 0.34667,0.64 0.85333,1.013333 0.53334,0.4 1.17334,0.56 0.64,0.16 1.25333,0.16 0.96,0 1.73333,-0.293333 0.8,-0.293334 1.36,-0.8 0.58667,-0.48 0.88,-1.12 0.32,-0.64 0.32,-1.333334 0,-1.493333 -0.82666,-2.133333 -0.8,-0.613333 -2.21334,-0.613333 z m 4.32,-8.666667 q 0,-0.613333 -0.08,-1.226666 -0.08,-0.64 -0.34666,-1.146667 -0.24,-0.533333 -0.77334,-0.853333 -0.50666,-0.32 -1.38666,-0.32 -1.36,0 -2.05334,0.826666 -0.69333,0.826667 -0.69333,2.72 0,0.8 0.10667,1.44 0.13333,0.64 0.45333,1.12 0.32,0.453333 0.85333,0.693333 0.53334,0.24 1.36,0.24 1.38667,0 1.97334,-0.853333 0.58666,-0.88 0.58666,-2.64 z m -8.32,6.133333 q 0,-0.72 0.26667,-1.226666 0.26667,-0.533334 0.64,-0.906667 0.4,-0.4 0.82667,-0.64 0.45333,-0.24 0.8,-0.4 -1.54667,-1.066666 -1.54667,-2.88 0,-0.933333 0.45333,-1.68 0.45334,-0.746666 1.14667,-1.253333 0.69333,-0.533333 1.52,-0.8 0.85333,-0.266667 1.62667,-0.266667 1.2,0 2.05333,0.48 0.88,0.48 1.28,0.88 0.29333,-0.506666 0.85333,-0.933333 0.58667,-0.426667 1.44,-0.426667 0.53334,0 0.98667,0.24 0.45333,0.213334 0.45333,0.96 0,0.48 -0.32,0.72 -0.29333,0.24 -0.61333,0.24 -0.37333,0 -0.53333,-0.213333 -0.16,-0.213333 -0.29334,-0.453333 -0.10666,-0.24 -0.24,-0.453334 -0.13333,-0.213333 -0.4,-0.213333 -0.26666,0 -0.56,0.24 -0.26666,0.213333 -0.48,0.506667 0.24,0.266666 0.61334,0.906666 0.37333,0.64 0.37333,1.6 0,0.8 -0.4,1.466667 -0.4,0.666667 -1.06667,1.173333 -0.64,0.506667 -1.52,0.8 -0.85333,0.266667 -1.76,0.266667 -0.93333,0 -1.62666,-0.24 -0.69334,-0.266667 -1.06667,-0.453334 -0.29333,0.133334 -0.64,0.293334 -0.32,0.16 -0.61333,0.4 -0.26667,0.24 -0.45334,0.586666 -0.18666,0.32 -0.18666,0.746667 0,0.4 0.16,0.666667 0.16,0.266666 0.4,0.4 0.26666,0.133333 0.58666,0.186666 0.32,0.05333 0.66667,0.05333 h 4.21333 q 1.86667,0 2.96,0.906666 1.12,0.88 1.12,2.8 0,1.173334 -0.50666,2.133334 -0.50667,0.96 -1.36,1.653333 -0.82667,0.72 -1.92,1.093333 -1.09334,0.4 -2.24,0.4 -1.04,0 -1.92,-0.24 -0.85334,-0.24 -1.49334,-0.666666 -0.64,-0.4 -1.01333,-0.986667 -0.34667,-0.586667 -0.34667,-1.306667 0,-0.693333 0.26667,-1.28 0.29333,-0.56 0.72,-1.013333 0.45333,-0.426667 1.01333,-0.746667 0.56,-0.32 1.12,-0.533333 v -0.05333 q -1.76,0 -2.61333,-0.586667 -0.82667,-0.56 -0.82667,-1.946667 z"
       id="path81" />
  </g>
</svg>
