<?xml version="1.0" encoding="UTF-8" standalone="no"?>
<svg
   xmlns:dc="http://purl.org/dc/elements/1.1/"
   xmlns:cc="http://creativecommons.org/ns#"
   xmlns:rdf="http://www.w3.org/1999/02/22-rdf-syntax-ns#"
   xmlns:svg="http://www.w3.org/2000/svg"
   xmlns="http://www.w3.org/2000/svg"
   viewBox="160.677 8.48834 237.279 88.2667"
   version="1.1"
   id="svg2">
  <metadata
     id="metadata11">
    <rdf:RDF>
      <cc:Work
         rdf:about="">
        <dc:format>image/svg+xml</dc:format>
        <dc:type
           rdf:resource="http://purl.org/dc/dcmitype/StillImage" />
      </cc:Work>
    </rdf:RDF>
  </metadata>
  <defs
     id="defs9" />
  <g
     aria-label="The Quick BrownFox Jumps OverThe Lazy Dog"
     id="text4521"
     style="font-style:normal;font-variant:normal;font-weight:normal;font-stretch:normal;font-size:26.6667px;line-height:125%;font-family:FreeMono, monospace;font-variant-ligatures:normal;font-variant-caps:normal;font-variant-numeric:normal;font-feature-settings:normal;text-align:left;letter-spacing:0px;word-spacing:0px;writing-mode:lr-tb;text-anchor:start;fill:#000000;fill-opacity:1;stroke:none;stroke-width:1px;stroke-linecap:butt;stroke-linejoin:miter;stroke-opacity:1">
    <path
       d="M 168.0907,24.035003 V 11.208336 h 4.42667 v 1.946667 c 0,0.426667 0.24,0.72 0.56,0.72 0.37333,0 0.53333,-0.213333 0.53333,-0.72 v -3.04 h -12.16 v 3.04 c 0,0.48 0.18667,0.72 0.53333,0.72 0.37334,0 0.56,-0.24 0.56,-0.72 v -1.946667 h 4.45334 v 12.826667 h -2.8 c -0.48,0 -0.72,0.186666 -0.72,0.533333 0,0.373333 0.24,0.56 0.72,0.56 h 6.69333 c 0.48,0 0.72,-0.186667 0.72,-0.56 0,-0.346667 -0.24,-0.533333 -0.72,-0.533333 z"
       id="path13" />
    <path
       d="m 187.18399,17.448336 v 6.586667 h -1.2 c -0.48,0 -0.72,0.186666 -0.72,0.533333 0,0.373333 0.24,0.56 0.72,0.56 h 3.49334 c 0.50666,0 0.74666,-0.186667 0.74666,-0.56 0,-0.346667 -0.24,-0.533333 -0.74666,-0.533333 h -1.2 v -6.666667 c 0,-2.16 -1.76,-3.733333 -4.24,-3.733333 -1.62667,0 -2.74667,0.613333 -4.10667,2.24 V 9.0216697 h -2.53333 c -0.48,0 -0.72,0.1866666 -0.72,0.5333333 0,0.3733333 0.24,0.56 0.72,0.56 h 1.44 v 13.92 h -1.22667 c -0.48,0 -0.72,0.186666 -0.72,0.533333 0,0.373333 0.26667,0.56 0.72,0.56 h 3.52 c 0.48,0 0.74667,-0.186667 0.74667,-0.56 0,-0.346667 -0.24,-0.533333 -0.74667,-0.533333 h -1.2 v -6.8 l 0.29333,-0.346667 c 1.44,-1.706666 2.18667,-2.16 3.68,-2.16 1.97334,0 3.28,1.12 3.28,2.72 z"
       id="path15" />
    <path
       d="m 205.39729,19.821669 c 0,-3.759999 -2.56,-6.186666 -6.10667,-6.186666 -3.41333,0 -6.08,2.48 -6.08,5.706666 0,3.466667 2.85333,6.213334 6.45333,6.213334 2.42667,0 5.62667,-1.253334 5.62667,-2.186667 0,-0.293333 -0.24,-0.533333 -0.50667,-0.533333 -0.13333,0 -0.24,0.05333 -0.42666,0.186666 -1.06667,0.853334 -3.01334,1.44 -4.66667,1.44 -2.88,0 -5.01333,-1.84 -5.38667,-4.64 z m -11.09334,-1.093333 c 0.48,-2.453333 2.4,-4 4.98667,-4 2.58667,0 4.56,1.573333 4.98667,4 z"
       id="path17" />
    <path
       d="m 232.01054,27.501669 c 1.68,0 2.08,0.693334 3.30666,0.693334 1.12,0 2.77334,-0.826667 2.77334,-1.36 0,-0.32 -0.24,-0.56 -0.53334,-0.56 -0.4,0 -1.06666,0.826666 -2.16,0.826666 -1.01333,0 -1.38666,-0.693333 -3.38666,-0.693333 -0.56,0 -0.98667,0.05333 -1.78667,0.213333 l 1.44,-1.066666 c 3.68,-0.106667 6.50667,-3.52 6.50667,-7.893334 0,-4.399999 -2.93334,-7.8933327 -6.64,-7.8933327 -3.70667,0 -6.64,3.4933337 -6.64,7.8933327 0,3.76 2.24,7.066667 5.28,7.733334 l -2.4,1.733333 c -0.18667,0.133333 -0.29334,0.293333 -0.29334,0.48 0,0.32 0.24,0.56 0.53334,0.56 0.72,0 1.81333,-0.666667 4,-0.666667 z m -0.48,-16.639999 c 3.09333,0 5.54666,3.04 5.54666,6.879999 0,3.653334 -2.53333,6.72 -5.54666,6.72 -3.04,0 -5.54667,-3.066666 -5.54667,-6.8 0,-3.733333 2.48,-6.799999 5.54667,-6.799999 z"
       id="path19" />
    <path
       d="m 251.23716,25.128336 h 2 c 0.48,0 0.72,-0.186667 0.72,-0.56 0,-0.346667 -0.24,-0.533333 -0.72,-0.533333 h -0.90667 V 14.008336 h -3.06666 c -0.50667,0 -0.74667,0.186667 -0.74667,0.533334 0,0.373333 0.24,0.56 0.74667,0.56 h 1.97333 v 6.959999 c -1.46667,1.6 -3.09333,2.4 -4.88,2.4 -1.36,0 -2.42667,-1.066666 -2.42667,-2.4 v -8.053333 h -2.53333 c -0.48,0 -0.72,0.186667 -0.72,0.533334 0,0.373333 0.24,0.56 0.72,0.56 h 1.44 v 6.959999 c 0,2.106667 1.41333,3.493334 3.54667,3.493334 1.76,0 3.38666,-0.746667 4.85333,-2.186667 z"
       id="path21" />
    <path
       d="m 264.06379,14.008336 h -4.24 c -0.48,0 -0.72,0.186667 -0.72,0.533334 0,0.373333 0.24,0.56 0.72,0.56 h 3.14667 v 8.933333 h -4.26667 c -0.48,0 -0.72,0.186666 -0.72,0.533333 0,0.373333 0.24,0.56 0.72,0.56 h 9.62667 c 0.48,0 0.74666,-0.186667 0.74666,-0.56 0,-0.346667 -0.24,-0.533333 -0.74666,-0.533333 h -4.26667 z m -0.0533,-5.5199997 h -1.57334 V 11.26167 h 1.57334 z"
       id="path23" />
    <path
       d="m 285.79708,22.781669 c 0,-0.266666 -0.24,-0.506666 -0.50667,-0.506666 -0.18667,0 -0.26667,0.05333 -0.48,0.266666 -1.38667,1.28 -3.04,1.92 -4.98667,1.92 -2.90666,0 -4.96,-2 -4.96,-4.8 0,-2.933333 2.02667,-4.933333 4.96,-4.933333 2.24,0 4.13334,1.12 4.24,2.533333 0.0533,0.453334 0.21334,0.64 0.56,0.64 0.34667,0 0.53334,-0.24 0.53334,-0.72 v -2.426666 c 0,-0.506667 -0.18667,-0.746667 -0.53334,-0.746667 -0.37333,0 -0.56,0.24 -0.56,0.746667 v 0.346667 c -1.09333,-0.96 -2.53333,-1.466667 -4.16,-1.466667 -3.57333,0 -6.13333,2.533333 -6.13333,6.053333 0,3.413333 2.50667,5.866667 6,5.866667 3.62667,0 6.02667,-2.213334 6.02667,-2.773334 z"
       id="path25" />
    <path
       d="m 292.46371,20.328336 1.22666,-1.04 4.8,4.746667 h -0.74666 c -0.48,0 -0.72,0.186666 -0.72,0.533333 0,0.373333 0.24,0.56 0.72,0.56 h 3.49333 c 0.48,0 0.72,-0.186667 0.72,-0.56 0,-0.346667 -0.24,-0.533333 -0.72,-0.533333 h -1.2 l -5.52,-5.44 4.18667,-3.493333 h 1.25333 c 0.48,0 0.72,-0.186667 0.72,-0.56 0,-0.346667 -0.24,-0.533334 -0.72,-0.533334 h -3.46667 c -0.48,0 -0.72,0.186667 -0.72,0.533334 0,0.373333 0.24,0.56 0.72,0.56 h 0.58667 l -4.61333,3.919999 V 9.0216697 h -2.53334 c -0.48,0 -0.72,0.1866666 -0.72,0.5333333 0,0.3733333 0.24,0.56 0.72,0.56 h 1.44 v 13.92 h -1.44 c -0.48,0 -0.72,0.186666 -0.72,0.533333 0,0.373333 0.24,0.56 0.72,0.56 h 2.53334 z"
       id="path27" />
    <path
       d="m 322.83696,24.035003 h -1.44 c -0.48,0 -0.72,0.186666 -0.72,0.533333 0,0.373333 0.24,0.56 0.72,0.56 h 8.16 c 2.42666,0 4.4,-1.84 4.4,-4.08 0,-1.786667 -1.14667,-3.066667 -3.38667,-3.866667 1.57333,-0.853333 2.26667,-1.839999 2.26667,-3.199999 0,-2.186667 -1.97334,-3.866667 -4.56,-3.866667 h -6.88 c -0.48,0 -0.72,0.186667 -0.72,0.533333 0,0.373334 0.24,0.56 0.72,0.56 h 1.44 z m 1.09333,-7.253334 v -5.573333 h 4.37333 c 1.94667,0 3.44,1.2 3.44,2.746667 0,1.653333 -1.62666,2.826666 -3.89333,2.826666 z m 8.93333,4.266667 c 0,1.653333 -1.49333,2.986667 -3.38666,2.986667 h -5.54667 v -6.16 h 3.97333 c 4.02667,0 4.96,1.866666 4.96,3.173333 z"
       id="path29" />
    <path
       d="m 349.39691,15.955003 c 0.32,0 0.56,-0.24 0.56,-0.56 0,-0.346667 -1.06667,-1.653333 -2.66667,-1.653333 -1.36,0 -2.66666,0.746666 -5.14666,2.986666 v -2.72 h -3.09334 c -0.45333,0 -0.72,0.213334 -0.72,0.533334 0,0.346666 0.26667,0.56 0.72,0.56 h 2 v 8.933333 h -2.56 c -0.45333,0 -0.72,0.213333 -0.72,0.533333 0,0.346667 0.26667,0.56 0.72,0.56 h 8.42667 c 0.45333,0 0.72,-0.213333 0.72,-0.533333 0,-0.346667 -0.26667,-0.56 -0.72,-0.56 h -4.77333 v -5.893334 c 2.93333,-2.693333 3.86666,-3.306666 5.06666,-3.306666 1.14667,0 1.73334,1.12 2.18667,1.12 z"
       id="path31" />
    <path
       d="m 359.53021,13.635003 c -3.38666,0 -6.08,2.666666 -6.08,5.946666 0,3.333334 2.69334,5.973334 6.08,5.973334 3.36,0 6.08,-2.64 6.08,-5.893334 0,-3.386666 -2.66666,-6.026666 -6.08,-6.026666 z m 0,1.093333 c 2.8,0 4.98667,2.133333 4.98667,4.933333 0,2.64 -2.24,4.8 -4.98667,4.8 -2.77333,0 -4.98666,-2.16 -4.98666,-4.88 0,-2.693333 2.21333,-4.853333 4.98666,-4.853333 z"
       id="path33" />
    <path
       d="M 379.29017,25.128336 381.5035,15.10167 h 0.50667 c 0.48,0 0.72,-0.186667 0.72,-0.56 0,-0.346667 -0.24,-0.533334 -0.72,-0.533334 h -2.96 c -0.48,0 -0.72,0.186667 -0.72,0.533334 0,0.373333 0.24,0.56 0.72,0.56 h 1.33333 l -1.84,8.533333 -2.37333,-6.8 h -1.36 l -2.29334,6.8 -1.92,-8.533333 h 1.41334 c 0.48,0 0.72,-0.186667 0.72,-0.56 0,-0.346667 -0.24,-0.533334 -0.72,-0.533334 h -2.96 c -0.48,0 -0.72,0.186667 -0.72,0.533334 0,0.373333 0.24,0.56 0.72,0.56 h 0.50666 l 2.24,10.026666 h 1.36 l 2.37334,-6.906667 2.42666,6.906667 z"
       id="path35" />
    <path
       d="m 392.03679,14.728336 c 2,0 3.2,1.226667 3.2,2.72 v 6.586667 h -0.90667 c -0.48,0 -0.72,0.186666 -0.72,0.533333 0,0.373333 0.24,0.56 0.72,0.56 h 2.90667 c 0.48,0 0.72,-0.186667 0.72,-0.56 0,-0.346667 -0.24,-0.533333 -0.72,-0.533333 h -0.90667 v -6.773334 c 0,-2.053333 -1.81333,-3.626666 -4.18667,-3.626666 -1.65333,0 -2.61333,0.506667 -4.16,2.213333 v -1.84 h -2 c -0.48,0 -0.72,0.186667 -0.72,0.533334 0,0.373333 0.24,0.56 0.72,0.56 h 0.90667 v 8.933333 h -1.2 c -0.50667,0 -0.74667,0.186666 -0.74667,0.533333 0,0.373333 0.24,0.56 0.74667,0.56 h 3.49333 c 0.48,0 0.72,-0.186667 0.72,-0.56 0,-0.346667 -0.24,-0.533333 -0.72,-0.533333 h -1.2 v -6.746667 c 0.58667,-0.746667 1.68,-2.56 4.05334,-2.56 z"
       id="path37" />
    <path
       d="m 163.9307,51.208339 h 3.86667 v 1.2 c 0,0.48 0.18666,0.72 0.53333,0.72 0.37333,0 0.56,-0.24 0.56,-0.72 v -3.493334 c 0,-0.48 -0.18667,-0.72 -0.56,-0.72 -0.34667,0 -0.53333,0.24 -0.53333,0.72 v 1.2 h -3.86667 v -5.573333 h 8.37333 v 2.613333 c 0,0.48 0.18667,0.72 0.53334,0.72 0.37333,0 0.56,-0.24 0.56,-0.72 v -3.706666 h -12 c -0.48,0 -0.72,0.186667 -0.72,0.533333 0,0.373333 0.24,0.56 0.72,0.56 h 1.44 v 12.826667 h -1.44 c -0.48,0 -0.72,0.186666 -0.72,0.533333 0,0.373333 0.24,0.56 0.72,0.56 h 6.21333 c 0.48,0 0.74667,-0.186667 0.74667,-0.56 0,-0.346667 -0.24,-0.533333 -0.74667,-0.533333 h -3.68 z"
       id="path39" />
    <path
       d="m 183.53066,46.968339 c -3.38667,0 -6.08,2.666666 -6.08,5.946666 0,3.333334 2.69333,5.973333 6.08,5.973333 3.36,0 6.08,-2.639999 6.08,-5.893333 0,-3.386666 -2.66667,-6.026666 -6.08,-6.026666 z m 0,1.093333 c 2.8,0 4.98667,2.133333 4.98667,4.933333 0,2.64 -2.24,4.8 -4.98667,4.8 -2.77333,0 -4.98667,-2.16 -4.98667,-4.88 0,-2.693333 2.21334,-4.853333 4.98667,-4.853333 z"
       id="path41" />
    <path
       d="m 200.30395,52.621672 4.34667,-4.186667 h 0.18667 c 0.48,0 0.71999,-0.186666 0.71999,-0.56 0,-0.346666 -0.23999,-0.533333 -0.71999,-0.533333 h -2.93334 c -0.48,0 -0.72,0.186667 -0.72,0.533333 0,0.373334 0.24,0.56 0.72,0.56 h 1.28 l -3.65333,3.466667 -3.57333,-3.466667 h 1.22666 c 0.48,0 0.72,-0.186666 0.72,-0.56 0,-0.373333 -0.24,-0.533333 -0.72,-0.533333 h -2.96 c -0.48,0 -0.72,0.186667 -0.72,0.533333 0,0.373334 0.24,0.56 0.72,0.56 h 0.18667 l 4.34667,4.186667 -4.90667,4.746667 h -0.24 c -0.48,0 -0.72,0.186666 -0.72,0.533333 0,0.373333 0.24,0.56 0.72,0.56 h 3.54667 c 0.48,0 0.72,-0.186667 0.72,-0.56 0,-0.346667 -0.24,-0.533333 -0.72,-0.533333 h -1.81334 l 4.18667,-3.973334 4.13333,3.973334 h -1.73333 c -0.48,0 -0.72,0.186666 -0.72,0.533333 0,0.373333 0.24,0.56 0.72,0.56 h 3.52 c 0.48,0 0.72,-0.186667 0.72,-0.56 0,-0.346667 -0.24,-0.533333 -0.72,-0.533333 h -0.24 z"
       id="path43" />
    <path
       d="m 235.7972,44.541672 h 2.56 c 0.48,0 0.72,-0.186667 0.72,-0.56 0,-0.346666 -0.24,-0.533333 -0.72,-0.533333 h -7.89333 c -0.48,0 -0.72,0.186667 -0.72,0.533333 0,0.373333 0.24,0.56 0.72,0.56 h 4.24 v 9.52 c 0,2.08 -1.73333,3.733333 -3.89333,3.733333 -1.33334,0 -2.58667,-0.586666 -3.94667,-1.813333 v -3.466667 c 0,-0.48 -0.18667,-0.72 -0.53333,-0.72 -0.37334,0 -0.56,0.24 -0.56,0.72 v 3.973334 c 1.92,1.733333 3.30666,2.399999 5.01333,2.399999 2.74667,0 5.01333,-2.186666 5.01333,-4.826666 z"
       id="path45" />
    <path
       d="m 251.23716,58.461672 h 2 c 0.48,0 0.72,-0.186667 0.72,-0.56 0,-0.346667 -0.24,-0.533333 -0.72,-0.533333 h -0.90667 V 47.341672 h -3.06666 c -0.50667,0 -0.74667,0.186667 -0.74667,0.533333 0,0.373334 0.24,0.56 0.74667,0.56 h 1.97333 v 6.96 c -1.46667,1.6 -3.09333,2.4 -4.88,2.4 -1.36,0 -2.42667,-1.066666 -2.42667,-2.4 v -8.053333 h -2.53333 c -0.48,0 -0.72,0.186667 -0.72,0.533333 0,0.373334 0.24,0.56 0.72,0.56 h 1.44 v 6.96 c 0,2.106667 1.41333,3.493333 3.54667,3.493333 1.76,0 3.38666,-0.746666 4.85333,-2.186666 z"
       id="path47" />
    <path
       d="m 258.51712,47.341672 h -1.97333 c -0.48,0 -0.72,0.186667 -0.72,0.533333 0,0.373334 0.24,0.56 0.72,0.56 h 0.90667 v 8.933334 h -0.90667 c -0.48,0 -0.72,0.186666 -0.72,0.533333 0,0.373333 0.24,0.56 0.69333,0.56 h 2.90667 c 0.45333,0 0.72,-0.186667 0.72,-0.56 0,-0.346667 -0.24,-0.533333 -0.72,-0.533333 h -0.90667 v -7.12 c 1.01334,-1.52 1.86667,-2.186667 2.8,-2.186667 0.90667,0 1.73334,0.933333 1.73334,1.973333 v 8.426667 h 1.97333 c 0.48,0 0.72,-0.186667 0.72,-0.56 0,-0.346667 -0.24,-0.533333 -0.72,-0.533333 h -0.90667 v -7.12 c 1.01334,-1.546667 1.81334,-2.186667 2.77334,-2.186667 0.93333,0 1.76,0.88 1.76,1.893333 v 8.506667 h 1.97333 c 0.48,0 0.72,-0.186667 0.72,-0.56 0,-0.346667 -0.24,-0.533333 -0.72,-0.533333 h -0.90667 v -7.52 c 0,-1.573334 -1.25333,-2.88 -2.8,-2.88 -1.09333,0 -1.97333,0.56 -3.01333,1.893333 -0.58667,-1.28 -1.44,-1.893333 -2.58667,-1.893333 -1.12,0 -1.89333,0.48 -2.8,1.76 z"
       id="path49" />
    <path
       d="m 275.37041,47.341672 h -2.53333 c -0.48,0 -0.72,0.186667 -0.72,0.533333 0,0.373334 0.24,0.56 0.72,0.56 h 1.44 v 13.893333 h -1.44 c -0.48,0 -0.72,0.186667 -0.72,0.533334 0,0.373333 0.24,0.56 0.72,0.56 h 5.14666 c 0.48,0 0.72,-0.186667 0.72,-0.56 0,-0.346667 -0.24,-0.533334 -0.72,-0.533334 h -2.61333 v -6.693333 c 1.22667,1.76 2.72,2.56 4.77333,2.56 3.28,0 5.81334,-2.453333 5.81334,-5.626666 0,-3.173334 -2.50667,-5.6 -5.81334,-5.6 -2.02666,0 -3.36,0.72 -4.77333,2.56 z m 4.74667,0.72 c 2.69333,0 4.74666,1.973333 4.74666,4.56 0,2.48 -2.13333,4.48 -4.74666,4.48 -2.64,0 -4.74667,-2 -4.74667,-4.533333 0,-2.506667 2.10667,-4.506667 4.74667,-4.506667 z"
       id="path51" />
    <path
       d="m 299.58371,55.341672 c 0,1.413333 -1.76,2.453333 -4.10667,2.453333 -2.26667,0 -4.10667,-0.986666 -4.10667,-2.213333 v -0.186667 c 0,-0.346666 -0.21333,-0.586666 -0.53333,-0.586666 -0.37333,0 -0.56,0.24 -0.56,0.72 v 2.213333 c 0,0.48 0.18667,0.72 0.56,0.72 0.34667,0 0.53333,-0.24 0.53333,-0.72 v -0.293333 c 1.12,0.986666 2.45334,1.439999 4.18667,1.439999 3.01333,0 5.22667,-1.493333 5.22667,-3.519999 0,-4.666667 -8.74667,-2.346667 -8.74667,-5.306667 0,-1.146667 1.49333,-2 3.46667,-2 2.02666,0 3.41333,0.773333 3.54666,1.973333 0.0533,0.426667 0.24,0.613334 0.56,0.613334 0.34667,0 0.53334,-0.24 0.53334,-0.72 v -1.84 c 0,-0.506667 -0.18667,-0.746667 -0.53334,-0.746667 -0.34666,0 -0.56,0.293333 -0.56,0.746667 v 0.106666 c -0.93333,-0.826666 -2.13333,-1.226666 -3.65333,-1.226666 -2.61333,0 -4.56,1.28 -4.56,3.013333 0,4.293333 8.74667,1.733333 8.74667,5.36 z"
       id="path53" />
    <path
       d="m 327.53029,43.101672 c -3.70667,0 -6.64,3.493333 -6.64,7.893333 0,4.4 2.93333,7.893333 6.64,7.893333 3.65333,0 6.64,-3.493333 6.64,-7.786666 0,-4.533333 -2.88,-8 -6.64,-8 z m 0,1.093334 c 3.09333,0 5.54667,3.039999 5.54667,6.879999 0,3.653334 -2.53334,6.72 -5.54667,6.72 -3.04,0 -5.54667,-3.066666 -5.54667,-6.8 0,-3.733333 2.48,-6.799999 5.54667,-6.799999 z"
       id="path55" />
    <path
       d="m 344.49024,58.461672 4.42667,-10.026667 h 1.09333 c 0.48,0 0.72,-0.186666 0.72,-0.56 0,-0.346666 -0.24,-0.533333 -0.72,-0.533333 h -4.05333 c -0.48,0 -0.72,0.186667 -0.72,0.533333 0,0.373334 0.24,0.56 0.72,0.56 h 1.81333 l -3.92,8.933334 h -0.50666 l -4,-8.933334 h 1.73333 c 0.50667,0 0.74667,-0.186666 0.74667,-0.56 0,-0.346666 -0.24,-0.533333 -0.74667,-0.533333 h -4.02667 c -0.48,0 -0.72,0.186667 -0.72,0.533333 0,0.373334 0.24,0.56 0.72,0.56 h 1.09334 l 4.48,10.026667 z"
       id="path57" />
    <path
       d="m 365.39688,53.155005 c 0,-3.76 -2.56,-6.186666 -6.10667,-6.186666 -3.41333,0 -6.08,2.48 -6.08,5.706666 0,3.466667 2.85334,6.213333 6.45334,6.213333 2.42666,0 5.62666,-1.253333 5.62666,-2.186666 0,-0.293333 -0.24,-0.533333 -0.50666,-0.533333 -0.13334,0 -0.24,0.05333 -0.42667,0.186666 -1.06667,0.853334 -3.01333,1.44 -4.66667,1.44 -2.88,0 -5.01333,-1.84 -5.38666,-4.64 z m -11.09333,-1.093333 c 0.48,-2.453333 2.4,-4 4.98666,-4 2.58667,0 4.56,1.573333 4.98667,4 z"
       id="path59" />
    <path
       d="m 381.39683,49.288339 c 0.32,0 0.56,-0.24 0.56,-0.56 0,-0.346667 -1.06666,-1.653334 -2.66666,-1.653334 -1.36,0 -2.66667,0.746667 -5.14667,2.986667 v -2.72 h -3.09333 c -0.45334,0 -0.72,0.213333 -0.72,0.533333 0,0.346667 0.26666,0.56 0.72,0.56 h 2 v 8.933334 h -2.56 c -0.45334,0 -0.72,0.213333 -0.72,0.533333 0,0.346667 0.26666,0.56 0.72,0.56 h 8.42666 c 0.45334,0 0.72,-0.213333 0.72,-0.533333 0,-0.346667 -0.26666,-0.56 -0.72,-0.56 h -4.77333 v -5.893334 c 2.93333,-2.693333 3.86667,-3.306666 5.06667,-3.306666 1.14666,0 1.73333,1.12 2.18666,1.12 z"
       id="path61" />
    <path
       d="M 168.0907,90.701674 V 77.875008 h 4.42667 v 1.946667 c 0,0.426666 0.24,0.72 0.56,0.72 0.37333,0 0.53333,-0.213334 0.53333,-0.72 v -3.04 h -12.16 v 3.04 c 0,0.48 0.18667,0.72 0.53333,0.72 0.37334,0 0.56,-0.24 0.56,-0.72 v -1.946667 h 4.45334 v 12.826666 h -2.8 c -0.48,0 -0.72,0.186667 -0.72,0.533334 0,0.373333 0.24,0.56 0.72,0.56 h 6.69333 c 0.48,0 0.72,-0.186667 0.72,-0.56 0,-0.346667 -0.24,-0.533334 -0.72,-0.533334 z"
       id="path63" />
    <path
       d="m 187.18399,84.115008 v 6.586666 h -1.2 c -0.48,0 -0.72,0.186667 -0.72,0.533334 0,0.373333 0.24,0.56 0.72,0.56 h 3.49334 c 0.50666,0 0.74666,-0.186667 0.74666,-0.56 0,-0.346667 -0.24,-0.533334 -0.74666,-0.533334 h -1.2 v -6.666666 c 0,-2.16 -1.76,-3.733333 -4.24,-3.733333 -1.62667,0 -2.74667,0.613333 -4.10667,2.24 v -6.853334 h -2.53333 c -0.48,0 -0.72,0.186667 -0.72,0.533334 0,0.373333 0.24,0.56 0.72,0.56 h 1.44 v 13.919999 h -1.22667 c -0.48,0 -0.72,0.186667 -0.72,0.533334 0,0.373333 0.26667,0.56 0.72,0.56 h 3.52 c 0.48,0 0.74667,-0.186667 0.74667,-0.56 0,-0.346667 -0.24,-0.533334 -0.74667,-0.533334 h -1.2 v -6.799999 l 0.29333,-0.346667 c 1.44,-1.706667 2.18667,-2.16 3.68,-2.16 1.97334,0 3.28,1.12 3.28,2.72 z"
       id="path65" />
    <path
       d="m 205.39729,86.488341 c 0,-3.76 -2.56,-6.186666 -6.10667,-6.186666 -3.41333,0 -6.08,2.48 -6.08,5.706666 0,3.466667 2.85333,6.213333 6.45333,6.213333 2.42667,0 5.62667,-1.253333 5.62667,-2.186666 0,-0.293334 -0.24,-0.533334 -0.50667,-0.533334 -0.13333,0 -0.24,0.05333 -0.42666,0.186667 -1.06667,0.853333 -3.01334,1.44 -4.66667,1.44 -2.88,0 -5.01333,-1.84 -5.38667,-4.64 z m -11.09334,-1.093333 c 0.48,-2.453333 2.4,-4 4.98667,-4 2.58667,0 4.56,1.573333 4.98667,4 z"
       id="path67" />
    <path
       d="m 229.58387,77.875008 h 2.56 c 0.48,0 0.72,-0.186667 0.72,-0.56 0,-0.346667 -0.24,-0.533333 -0.72,-0.533333 h -6.21333 c -0.48,0 -0.72,0.186666 -0.72,0.533333 0,0.373333 0.24,0.56 0.72,0.56 h 2.56 v 12.826666 h -2.56 c -0.48,0 -0.72,0.186667 -0.72,0.533334 0,0.373333 0.24,0.56 0.72,0.56 h 12.02666 v -5.36 c 0,-0.48 -0.18666,-0.72 -0.53333,-0.72 -0.37333,0 -0.56,0.24 -0.56,0.72 v 4.266666 h -7.28 z"
       id="path69" />
    <path
       d="m 242.86383,81.715008 c 0,0.293333 0.24,0.533333 0.50666,0.533333 0.77334,0 1.92,-0.853333 4.05334,-0.853333 1.94666,0 3.28,0.88 3.28,2.186667 v 1.893333 c -1.57334,-0.426667 -2.4,-0.56 -3.62667,-0.56 -3.33333,0 -5.62667,1.573333 -5.62667,3.893333 0,2.026667 1.68,3.413333 4.16,3.413333 1.86667,0 3.46667,-0.693333 5.09334,-2.213333 v 1.786667 h 2.53333 c 0.48,0 0.72,-0.186667 0.72,-0.56 0,-0.346667 -0.24,-0.533334 -0.72,-0.533334 h -1.44 v -7.119999 c 0,-1.893334 -1.81333,-3.28 -4.29333,-3.28 -0.88,0 -4.64,0.533333 -4.64,1.413333 z m 7.84,7.093333 c -1.78667,1.68 -3.22667,2.32 -5.12,2.32 -1.84,0 -3.04,-0.906667 -3.04,-2.293333 0,-1.68 1.92,-2.826667 4.74666,-2.826667 1.17334,0 2.45334,0.16 3.41334,0.4 z"
       id="path71" />
    <path
       d="m 268.17046,80.675008 h -9.33334 v 2.56 c 0,0.48 0.18667,0.72 0.56,0.72 0.34667,0 0.53334,-0.24 0.53334,-0.72 v -1.466667 h 6.69333 l -8.02667,9.066667 v 0.96 h 9.97334 v -2.586667 c 0,-0.48 -0.18667,-0.72 -0.53334,-0.72 -0.37333,0 -0.56,0.24 -0.56,0.72 v 1.493333 h -7.38666 l 8.08,-9.066666 z"
       id="path73" />
    <path
       d="m 279.05041,91.795008 -1.89333,3.866666 h -3.38667 c -0.48,0 -0.72,0.186667 -0.72,0.533334 0,0.373333 0.24,0.56 0.72,0.56 h 6.21333 c 0.48,0 0.72,-0.186667 0.72,-0.56 0,-0.346667 -0.24,-0.533334 -0.72,-0.533334 h -1.73333 l 6.82667,-13.893333 h 0.37333 c 0.48,0 0.72,-0.186666 0.72,-0.56 0,-0.346666 -0.24,-0.533333 -0.72,-0.533333 h -2.93333 c -0.48,0 -0.72,0.186667 -0.72,0.533333 0,0.373334 0.24,0.56 0.72,0.56 h 1.44 l -4.29334,8.826667 -4.37333,-8.826667 h 1.38667 c 0.48,0 0.72,-0.186666 0.72,-0.56 0,-0.346666 -0.24,-0.533333 -0.72,-0.533333 h -3.06667 c -0.48,0 -0.72,0.186667 -0.72,0.533333 0,0.373334 0.24,0.56 0.72,0.56 h 0.42667 z"
       id="path75" />
    <path
       d="M 306.30367,90.701674 H 305.397 c -0.48,0 -0.72,0.186667 -0.72,0.533334 0,0.373333 0.24,0.56 0.72,0.56 h 5.86667 c 3.44,0 6.13333,-2.986667 6.13333,-6.773333 v -1.493334 c 0,-3.76 -2.69333,-6.746666 -6.13333,-6.746666 H 305.397 c -0.48,0 -0.72,0.186666 -0.72,0.533333 0,0.373333 0.24,0.56 0.72,0.56 h 0.90667 z m 10,-7.386666 v 1.946667 c 0,2.826666 -2.34667,5.439999 -4.90667,5.439999 h -4 V 77.875008 h 3.81333 c 4.08,0 5.09334,4.346667 5.09334,5.44 z"
       id="path77" />
    <path
       d="m 327.53029,80.301675 c -3.38667,0 -6.08,2.666666 -6.08,5.946666 0,3.333333 2.69333,5.973333 6.08,5.973333 3.36,0 6.08,-2.64 6.08,-5.893333 0,-3.386666 -2.66667,-6.026666 -6.08,-6.026666 z m 0,1.093333 c 2.8,0 4.98667,2.133333 4.98667,4.933333 0,2.64 -2.24,4.8 -4.98667,4.8 -2.77333,0 -4.98667,-2.16 -4.98667,-4.88 0,-2.693333 2.21334,-4.853333 4.98667,-4.853333 z"
       id="path79" />
    <path
       d="m 347.26358,82.888341 c -1.2,-1.786666 -2.61334,-2.586666 -4.56,-2.586666 -3.01334,0 -5.49334,2.506666 -5.49334,5.6 0,3.093333 2.48,5.626666 5.49334,5.626666 1.92,0 3.36,-0.826667 4.56,-2.586667 v 3.44 c 0,1.813334 -1.44,3.28 -3.25334,3.28 h -3.09333 c -0.48,0 -0.72,0.186667 -0.72,0.533334 0,0.373333 0.24,0.56 0.72,0.56 h 3.04 c 2.48,0 4.4,-1.973334 4.4,-4.213334 V 81.768341 h 1.44 c 0.48,0 0.72,-0.186666 0.72,-0.56 0,-0.346666 -0.24,-0.533333 -0.72,-0.533333 h -2.53333 z m -4.48,-1.493333 c 2.53333,0 4.48,1.973333 4.48,4.56 0,2.48 -2,4.48 -4.48,4.48 -2.48,0 -4.48,-2 -4.48,-4.533333 0,-2.506667 1.97333,-4.506667 4.48,-4.506667 z"
       id="path81" />
  </g>
</svg>
