<?xml version="1.0" encoding="UTF-8" standalone="no"?>
<svg
   xmlns:dc="http://purl.org/dc/elements/1.1/"
   xmlns:cc="http://creativecommons.org/ns#"
   xmlns:rdf="http://www.w3.org/1999/02/22-rdf-syntax-ns#"
   xmlns:svg="http://www.w3.org/2000/svg"
   xmlns="http://www.w3.org/2000/svg"
   viewBox="159.726 4.97209 204.479 92.6042"
   version="1.1"
   id="svg2">
  <metadata
     id="metadata11">
    <rdf:RDF>
      <cc:Work
         rdf:about="">
        <dc:format>image/svg+xml</dc:format>
        <dc:type
           rdf:resource="http://purl.org/dc/dcmitype/StillImage" />
      </cc:Work>
    </rdf:RDF>
  </metadata>
  <defs
     id="defs9" />
  <g
     aria-label="The Quick BrownFox Jumps OverThe Lazy Dog"
     id="text4521"
     style="font-style:normal;font-variant:normal;font-weight:normal;font-stretch:normal;font-size:26.6667px;line-height:125%;font-family:Georgia, serif;font-variant-ligatures:normal;font-variant-caps:normal;font-variant-numeric:normal;font-feature-settings:normal;text-align:left;letter-spacing:0px;word-spacing:0px;writing-mode:lr-tb;text-anchor:start;fill:#000000;fill-opacity:1;stroke:none;stroke-width:1px;stroke-linecap:butt;stroke-linejoin:miter;stroke-opacity:1">
    <path
       d="m 175.81976,11.664795 h -0.89843 q -0.11719,-0.46875 -0.42969,-1.106771 -0.29948,-0.6510419 -0.67709,-1.2239585 -0.39062,-0.5989583 -0.85937,-1.0416666 -0.45573,-0.4557292 -0.88542,-0.5208334 -0.40364,-0.052083 -1.01562,-0.078125 -0.61198,-0.026042 -1.13281,-0.026042 h -0.75521 V 22.446044 q 0,0.429688 0.18229,0.794271 0.18229,0.351563 0.63802,0.546875 0.23437,0.09115 0.97656,0.247396 0.75521,0.15625 1.17188,0.169271 v 0.924479 h -8.72396 v -0.924479 q 0.36458,-0.02604 1.10677,-0.104167 0.75521,-0.07813 1.04167,-0.195312 0.42968,-0.169271 0.625,-0.481771 0.20833,-0.325521 0.20833,-0.859375 V 7.6673989 h -0.75521 q -0.40364,0 -1.0026,0.026042 -0.59896,0.013021 -1.14584,0.078125 -0.42968,0.052083 -0.89843,0.5208334 -0.45573,0.4557291 -0.84636,1.0416666 -0.39062,0.5859375 -0.6901,1.2499995 -0.29948,0.651042 -0.41667,1.08073 h -0.91146 V 6.6517739 h 16.09375 z"
       id="path13" />
    <path
       d="m 190.91091,25.128336 h -6.30209 v -0.859375 q 0.29948,-0.02604 0.66407,-0.05208 0.36458,-0.02604 0.59896,-0.104167 0.36458,-0.117188 0.53385,-0.403646 0.18229,-0.299479 0.18229,-0.768229 v -6.601562 q 0,-1.367188 -0.65104,-2.109375 -0.63802,-0.742188 -1.5625,-0.742188 -0.67708,0 -1.26302,0.221354 -0.57292,0.208334 -1.02865,0.520834 -0.44271,0.325521 -0.67708,0.651041 -0.23438,0.325521 -0.36458,0.546875 v 7.382813 q 0,0.442708 0.16927,0.729166 0.18229,0.286459 0.54687,0.442709 0.28646,0.130208 0.58594,0.195312 0.3125,0.0651 0.67708,0.09115 v 0.859375 h -6.30208 v -0.859375 q 0.29948,-0.02604 0.625,-0.05208 0.32552,-0.03906 0.54687,-0.104167 0.36459,-0.117188 0.54688,-0.403646 0.18229,-0.299479 0.18229,-0.768229 V 7.9929197 q 0,-0.4427083 -0.20833,-0.8854167 -0.19531,-0.4427083 -0.52084,-0.6640624 -0.23437,-0.1692709 -0.83333,-0.234375 -0.58594,-0.078125 -0.95052,-0.1041667 V 5.2715656 l 4.7526,-0.2994792 0.1823,0.1953125 v 8.9583331 h 0.0521 q 0.42969,-0.429687 0.78125,-0.755208 0.35156,-0.338542 0.92448,-0.703125 0.49479,-0.3125 1.15885,-0.520834 0.67709,-0.208333 1.51042,-0.208333 1.71875,0 2.64323,1.09375 0.92448,1.080729 0.92448,3.125 v 6.679687 q 0,0.455729 0.15625,0.742188 0.16927,0.273437 0.54687,0.429687 0.29948,0.117188 0.53386,0.182292 0.24739,0.05208 0.63802,0.07813 z"
       id="path15" />
    <path
       d="m 203.89268,22.107503 q -0.80729,1.536458 -2.16146,2.447916 -1.35417,0.911459 -3.11198,0.911459 -1.54948,0 -2.72135,-0.546875 -1.15886,-0.546875 -1.91407,-1.484375 -0.75521,-0.9375 -1.13281,-2.1875 -0.36458,-1.25 -0.36458,-2.643229 0,-1.25 0.39062,-2.447917 0.40365,-1.210937 1.17188,-2.174479 0.74218,-0.924479 1.83593,-1.484375 1.10678,-0.572917 2.47396,-0.572917 1.40625,0 2.40886,0.442709 1.0026,0.442708 1.6276,1.210937 0.59896,0.729167 0.88542,1.71875 0.29948,0.989583 0.29948,2.148437 v 0.859375 h -8.50261 q 0,1.263021 0.23438,2.291667 0.24739,1.028646 0.76823,1.809896 0.50781,0.755208 1.32812,1.197916 0.82031,0.429688 1.95313,0.429688 1.15885,0 1.99218,-0.533854 0.84636,-0.546875 1.62761,-1.953125 z m -2.87761,-4.895834 q 0,-0.729166 -0.13021,-1.562499 -0.11718,-0.833334 -0.39062,-1.39323 -0.29948,-0.598958 -0.82031,-0.976562 -0.52084,-0.377604 -1.34115,-0.377604 -1.36719,0 -2.27864,1.145833 -0.89844,1.132813 -0.97657,3.164062 z"
       id="path17" />
    <path
       d="m 227.06976,8.8392738 q 1.22396,1.2760412 1.91406,3.0859372 0.69011,1.796875 0.69011,3.984375 0,1.744792 -0.45573,3.229167 -0.45573,1.484375 -1.28906,2.65625 -0.79427,1.119791 -1.88802,1.953125 -1.09375,0.833333 -2.44792,1.315104 0.026,1.432291 1.02864,2.565104 1.00261,1.145833 2.16146,1.145833 1.06771,0 1.62761,-0.07813 0.55989,-0.0651 0.92448,-0.130208 v 1.028646 q -0.58594,0.169271 -1.47136,0.351562 -0.87239,0.195313 -2.43489,0.195313 -0.8724,0 -1.70573,-0.260417 -0.83334,-0.247396 -1.51042,-0.807292 -0.67708,-0.559895 -1.13281,-1.41927 -0.44271,-0.859375 -0.57292,-2.109375 -1.86198,-0.06511 -3.45052,-0.794271 -1.58854,-0.742188 -2.72135,-2.018229 -1.14584,-1.289063 -1.78386,-3.020834 -0.63802,-1.744791 -0.63802,-3.802083 0,-2.252604 0.70313,-4.010416 0.70312,-1.770834 1.9401,-3.0598962 1.22396,-1.2760416 2.83854,-1.9531249 1.62761,-0.6770833 3.39844,-0.6770833 1.83594,0 3.46354,0.6901041 1.62761,0.6901042 2.8125,1.9401041 z m -1.9401,13.0989582 q 0.72916,-1.184896 1.05468,-2.682292 0.33855,-1.497396 0.33855,-3.346354 0,-1.901041 -0.37761,-3.489583 -0.36458,-1.588542 -1.08073,-2.7083333 -0.71614,-1.1067709 -1.79687,-1.71875 -1.08073,-0.625 -2.47396,-0.625 -1.5625,0 -2.65625,0.7161458 -1.09375,0.7161458 -1.78385,1.9140625 -0.65105,1.145833 -0.97657,2.682292 -0.3125,1.536458 -0.3125,3.229166 0,1.875 0.33855,3.385417 0.33854,1.510416 1.0677,2.682291 0.70313,1.145834 1.77084,1.796875 1.06771,0.638021 2.55208,0.638021 1.39323,0 2.51302,-0.651042 1.11979,-0.651041 1.82292,-1.822916 z"
       id="path19" />
    <path
       d="m 245.41611,24.893961 -4.17969,0.286458 -0.19531,-0.182291 v -1.627605 h -0.0781 q -0.3125,0.325521 -0.70313,0.703125 -0.39062,0.364584 -0.89844,0.664063 -0.58593,0.351562 -1.13281,0.533854 -0.54687,0.182292 -1.54948,0.182292 -1.70573,0 -2.60416,-1.106771 -0.88542,-1.119792 -0.88542,-3.242187 v -6.145834 q 0,-0.46875 -0.18229,-0.78125 -0.16927,-0.32552 -0.50781,-0.559895 -0.23438,-0.15625 -0.58594,-0.221355 -0.35156,-0.07813 -0.74219,-0.104166 v -0.846354 l 4.28385,-0.3125 0.19532,0.182291 v 8.919271 q 0,1.393229 0.625,2.096354 0.625,0.703125 1.49739,0.703125 0.71615,0 1.27604,-0.221354 0.5599,-0.221354 0.9375,-0.520834 0.35157,-0.273437 0.61198,-0.572916 0.27344,-0.3125 0.41667,-0.572917 V 14.86792 q 0,-0.429688 -0.18229,-0.755209 -0.18229,-0.338541 -0.50781,-0.572916 -0.23438,-0.15625 -0.70313,-0.182292 -0.45573,-0.03906 -1.02864,-0.0651 v -0.846354 l 4.66145,-0.3125 0.19532,0.182291 v 10.195313 q 0,0.442708 0.18229,0.755208 0.18229,0.3125 0.50781,0.533854 0.23438,0.143229 0.5599,0.195312 0.32552,0.03906 0.71614,0.05208 z"
       id="path21" />
    <path
       d="m 253.22862,25.128336 h -6.21094 v -0.859375 q 0.29948,-0.02604 0.61198,-0.05208 0.32552,-0.02604 0.55989,-0.104167 0.36459,-0.117188 0.53386,-0.403646 0.18229,-0.299479 0.18229,-0.768229 v -7.929687 q 0,-0.416667 -0.19531,-0.755209 -0.18229,-0.351562 -0.52084,-0.585937 -0.24739,-0.15625 -0.71614,-0.260417 -0.46875,-0.117187 -0.85938,-0.143229 v -0.846354 l 4.53125,-0.286458 0.1823,0.182291 v 10.46875 q 0,0.455729 0.16927,0.755208 0.18229,0.299479 0.55989,0.442709 0.28646,0.117187 0.5599,0.195312 0.27344,0.0651 0.61198,0.09115 z M 251.58799,7.0684406 q 0,0.7421874 -0.49479,1.3020833 -0.48177,0.5468749 -1.19792,0.5468749 -0.66406,0 -1.15885,-0.5208333 -0.48177,-0.5338541 -0.48177,-1.2109375 0,-0.7161458 0.48177,-1.2499999 0.49479,-0.5338542 1.15885,-0.5338542 0.74219,0 1.21094,0.5078125 0.48177,0.4947917 0.48177,1.1588542 z"
       id="path23" />
    <path
       d="m 260.74164,25.466878 q -2.78646,0 -4.36198,-1.848959 -1.57552,-1.848958 -1.57552,-4.960937 0,-1.354167 0.41666,-2.526042 0.42969,-1.184895 1.23698,-2.148437 0.76823,-0.924479 1.92709,-1.484375 1.15885,-0.572917 2.52604,-0.572917 1.88802,0 3.07292,0.911459 1.18489,0.898437 1.18489,2.460937 0,0.651042 -0.3125,1.158854 -0.3125,0.494792 -1.02864,0.494792 -0.76823,0 -1.19792,-0.390625 -0.41667,-0.390625 -0.41667,-0.872396 0,-0.585937 0.15625,-1.197917 0.15625,-0.625 0.18229,-0.911458 -0.23437,-0.403646 -0.70312,-0.533854 -0.45573,-0.143229 -0.98958,-0.143229 -0.625,0 -1.19792,0.273437 -0.5599,0.260417 -1.09375,0.976563 -0.48177,0.651041 -0.78125,1.757812 -0.29948,1.106771 -0.29948,2.643229 0,2.421875 1.06771,3.958334 1.08073,1.523437 2.82552,1.523437 1.26302,0 2.10937,-0.611979 0.85938,-0.611979 1.58855,-1.835938 l 0.83333,0.546875 q -0.85938,1.536459 -2.26563,2.434896 -1.40625,0.898438 -2.90364,0.898438 z"
       id="path25" />
    <path
       d="m 280.52028,25.128336 h -3.8802 q -1.01563,-1.471354 -2.17448,-3.151042 -1.15886,-1.679687 -2.40886,-3.268229 l -1.06771,1.002604 v 3.046875 q 0,0.46875 0.16927,0.78125 0.16928,0.299479 0.54688,0.442709 0.3125,0.130208 0.59896,0.195312 0.28646,0.0651 0.66406,0.09115 v 0.859375 h -6.30208 v -0.859375 q 0.29948,-0.02604 0.625,-0.05208 0.32552,-0.03906 0.54687,-0.104167 0.36459,-0.117188 0.54688,-0.403646 0.18229,-0.299479 0.18229,-0.768229 V 8.0189614 q 0,-0.4817709 -0.20833,-0.8984375 -0.19532,-0.4296875 -0.52084,-0.6510417 -0.27344,-0.2083333 -0.85937,-0.2734375 -0.57292,-0.065104 -0.92448,-0.091146 V 5.2715656 l 4.7526,-0.2994792 0.18229,0.1953125 V 18.748128 q 1.01563,-1.015625 2.1875,-2.174479 1.1849,-1.171875 1.99219,-2.083334 0.10417,-0.117187 0.22136,-0.299479 0.1302,-0.195312 0.1302,-0.3125 0,-0.351562 -0.57291,-0.520833 -0.5599,-0.169271 -1.08073,-0.234375 v -0.833333 h 5.65104 v 0.807291 q -1.09375,0.325521 -1.9401,0.820313 -0.83334,0.481771 -1.27605,0.872396 -0.3125,0.260416 -0.88541,0.846354 -0.57292,0.585937 -1.60157,1.536458 1.06771,1.315104 2.39584,3.151042 1.34114,1.835937 1.95312,2.65625 0.57292,0.768229 1.02865,1.002604 0.45573,0.234375 1.32812,0.286458 z"
       id="path27" />
    <path
       d="m 301.06715,16.521565 q 0.8073,0.546875 1.34115,1.432292 0.53385,0.885417 0.53385,2.148437 0,1.289063 -0.55989,2.239584 -0.5599,0.95052 -1.45834,1.5625 -0.87239,0.598958 -1.97916,0.911458 -1.09375,0.3125 -2.26563,0.3125 h -8.75 v -0.924479 q 0.3125,-0.02604 0.91146,-0.104167 0.59896,-0.09115 0.85938,-0.208333 0.40364,-0.182292 0.57291,-0.481771 0.16927,-0.3125 0.16927,-0.794271 V 9.3340655 q 0,-0.4427083 -0.15625,-0.78125 -0.14323,-0.3385416 -0.58593,-0.546875 Q 289.30934,7.810628 288.82757,7.7064614 288.3458,7.6022947 288.02028,7.576253 V 6.6517739 h 8.52864 q 0.98959,0 1.88803,0.1953125 0.91145,0.1953125 1.73177,0.6901041 0.76823,0.4557292 1.26302,1.2369792 0.49479,0.78125 0.49479,1.9010413 0,0.976563 -0.35156,1.744792 -0.35157,0.755208 -0.98959,1.302083 -0.59896,0.520834 -1.38021,0.885417 -0.76822,0.351562 -1.66666,0.546875 v 0.117187 q 0.79427,0.09115 1.77083,0.403646 0.98958,0.299479 1.75781,0.846354 z m -3.13802,-2.786458 q 0.48177,-0.559896 0.66407,-1.223958 0.19531,-0.664063 0.19531,-1.575521 0,-1.5234375 -0.83334,-2.3828125 -0.83333,-0.8723958 -2.6302,-0.8723958 -0.41667,0 -1.05469,0.026042 -0.625,0.013021 -1.05469,0.026042 v 7.096354 h 1.65365 q 1.06771,0 1.82291,-0.273437 0.76823,-0.273438 1.23698,-0.820313 z m 1.79688,5.898437 q 0,-1.640625 -1.10677,-2.695312 -1.09375,-1.054687 -3.13802,-1.054687 -0.83334,0 -1.40625,0.02604 -0.57292,0.01302 -0.85938,0.02604 v 6.510416 q 0,0.820313 0.66406,1.236979 0.66407,0.416667 1.84896,0.416667 1.94011,0 2.96875,-1.132812 1.02865,-1.132813 1.02865,-3.333334 z"
       id="path29" />
    <path
       d="m 314.89527,13.94344 q 0,0.664063 -0.32552,1.184896 -0.32552,0.507813 -1.0026,0.507813 -0.72917,0 -1.11979,-0.377604 -0.37761,-0.377605 -0.37761,-0.833334 0,-0.286458 0.0391,-0.520833 0.0521,-0.234375 0.0911,-0.46875 -0.61198,0 -1.43229,0.494792 -0.82031,0.494791 -1.39323,1.40625 v 7.473958 q 0,0.455729 0.16927,0.742187 0.18229,0.286458 0.5599,0.429688 0.32552,0.130208 0.83333,0.195312 0.52083,0.0651 0.89844,0.09115 v 0.859375 h -6.77084 v -0.859375 q 0.29948,-0.02604 0.61198,-0.05208 0.32552,-0.02604 0.5599,-0.104167 0.36458,-0.117188 0.53385,-0.403646 0.1823,-0.299479 0.1823,-0.768229 v -7.929687 q 0,-0.403646 -0.19532,-0.794271 -0.18229,-0.390625 -0.52083,-0.625 -0.2474,-0.15625 -0.58594,-0.221354 -0.33854,-0.07813 -0.72916,-0.104167 v -0.846354 l 4.27083,-0.286458 0.18229,0.182291 v 1.809896 h 0.0651 q 0.8073,-1.054687 1.79688,-1.601562 0.98958,-0.546875 1.8099,-0.546875 0.82031,0 1.32812,0.533854 0.52083,0.533854 0.52083,1.432291 z"
       id="path31" />
    <path
       d="m 328.50205,18.578857 q 0,1.354167 -0.42969,2.669271 -0.42969,1.302083 -1.22396,2.213541 -0.89843,1.041667 -2.08333,1.549479 -1.1849,0.507813 -2.65625,0.507813 -1.22396,0 -2.33073,-0.455729 -1.10677,-0.46875 -1.96614,-1.354167 -0.84636,-0.872396 -1.35417,-2.122396 -0.49479,-1.26302 -0.49479,-2.82552 0,-3.007813 1.74479,-4.921875 1.75781,-1.914063 4.59635,-1.914063 2.69532,0 4.44011,1.822917 1.75781,1.809896 1.75781,4.830729 z m -2.69531,0.02604 q 0,-0.976563 -0.19532,-2.057292 -0.19531,-1.09375 -0.58593,-1.848958 -0.41667,-0.807292 -1.09375,-1.289063 -0.67709,-0.494791 -1.65365,-0.494791 -1.0026,0 -1.71875,0.494791 -0.70312,0.494792 -1.14583,1.354167 -0.41667,0.794271 -0.58594,1.809896 -0.16927,1.015625 -0.16927,1.966145 0,1.25 0.19531,2.317709 0.20834,1.054687 0.65104,1.888021 0.44271,0.833333 1.10677,1.315104 0.67709,0.46875 1.66667,0.46875 1.62761,0 2.57813,-1.575521 0.95052,-1.575521 0.95052,-4.348958 z"
       id="path33" />
    <path
       d="m 349.49163,13.123128 q -0.54687,0.05208 -1.18489,0.455729 -0.625,0.403646 -0.91146,1.210938 -0.65104,1.914062 -1.23698,3.632812 -0.57292,1.705729 -1.28906,3.841146 -0.23438,0.677083 -0.48177,1.458333 -0.23438,0.78125 -0.42969,1.497396 h -1.11979 l -3.45052,-9.453125 -3.47657,9.453125 h -1.0677 q -0.97657,-2.890625 -1.91407,-5.729167 -0.92448,-2.851562 -1.64062,-4.960937 -0.20834,-0.611979 -0.79427,-0.963542 -0.58594,-0.351562 -1.13282,-0.416666 v -0.859375 h 5.72917 v 0.911458 q -0.42969,0.01302 -0.9375,0.143229 -0.49479,0.130208 -0.49479,0.429688 0,0.05208 0.0391,0.221354 0.0521,0.169271 0.11719,0.364583 0.41667,1.367188 0.9375,3.059896 0.53385,1.679687 1.36719,4.375 l 3.28125,-9.244792 h 1.25 l 3.34635,9.114583 q 0.5599,-1.744791 1.10677,-3.372395 0.5599,-1.640625 0.97656,-3.072917 0.0911,-0.338542 0.16928,-0.611979 0.0911,-0.286458 0.0911,-0.559896 0,-0.234375 -0.20833,-0.416667 -0.20834,-0.182291 -0.50781,-0.299479 -0.26042,-0.104166 -0.57292,-0.15625 -0.29948,-0.05208 -0.44271,-0.05208 v -0.833333 h 4.88281 z"
       id="path35" />
    <path
       d="m 364.20517,25.128336 h -6.28906 v -0.859375 q 0.29948,-0.02604 0.65104,-0.05208 0.36458,-0.02604 0.59896,-0.104167 0.36458,-0.117188 0.53385,-0.403646 0.18229,-0.299479 0.18229,-0.768229 v -6.601562 q 0,-1.367188 -0.65104,-2.109375 -0.63802,-0.742188 -1.5625,-0.742188 -0.6901,0 -1.26302,0.221354 -0.57292,0.208334 -1.01562,0.520834 -0.42969,0.299479 -0.69011,0.651041 -0.24739,0.338542 -0.36458,0.546875 v 7.382813 q 0,0.442708 0.18229,0.729166 0.18229,0.286459 0.54687,0.442709 0.27344,0.130208 0.58594,0.195312 0.32552,0.0651 0.66406,0.09115 v 0.859375 h -6.28906 v -0.859375 q 0.29948,-0.02604 0.61198,-0.05208 0.32552,-0.02604 0.5599,-0.104167 0.36458,-0.117188 0.53385,-0.403646 0.18229,-0.299479 0.18229,-0.768229 v -7.929687 q 0,-0.442709 -0.19531,-0.807292 -0.18229,-0.377604 -0.52083,-0.611979 -0.2474,-0.15625 -0.58594,-0.221354 -0.33854,-0.07813 -0.72917,-0.104167 v -0.846354 l 4.27084,-0.286458 0.18229,0.182291 v 1.809896 h 0.0651 q 0.3125,-0.3125 0.78125,-0.742187 0.46875,-0.442709 0.88542,-0.716146 0.48177,-0.3125 1.14583,-0.520834 0.66406,-0.208333 1.4974,-0.208333 1.84896,0 2.73437,1.158854 0.89844,1.145834 0.89844,3.059896 v 6.679687 q 0,0.455729 0.15625,0.742188 0.15625,0.273437 0.53385,0.429687 0.3125,0.130209 0.53386,0.182292 0.23437,0.05208 0.63802,0.07813 z"
       id="path37" />
    <path
       d="m 175.14268,44.607505 h -0.97656 q -0.27344,-1.028645 -1.14584,-2.20052 -0.85937,-1.171875 -1.65364,-1.289063 -0.40365,-0.05208 -0.96354,-0.07813 -0.54688,-0.02604 -1.25,-0.02604 h -3.09896 v 7.421874 h 2.12239 q 0.96355,0 1.4974,-0.195312 0.53385,-0.208333 0.91146,-0.625 0.26041,-0.286458 0.46875,-0.885417 0.22135,-0.611979 0.28646,-1.302083 h 0.98958 v 7.252604 h -0.98958 q -0.0391,-0.572917 -0.27344,-1.302083 -0.22136,-0.729167 -0.48177,-1.054688 -0.39063,-0.481771 -0.98959,-0.651041 -0.58593,-0.182292 -1.41927,-0.182292 h -2.12239 v 6.367187 q 0,0.429688 0.16927,0.768229 0.16927,0.338542 0.59896,0.546875 0.19531,0.09115 0.84635,0.221355 0.65104,0.130208 0.98958,0.143229 v 0.924479 h -8.00781 v -0.924479 q 0.39063,-0.02604 1.04167,-0.07813 0.65104,-0.0651 0.84635,-0.15625 0.39063,-0.169271 0.5599,-0.494792 0.18229,-0.338542 0.18229,-0.807292 V 42.667401 q 0,-0.429687 -0.14323,-0.755208 -0.14323,-0.338542 -0.59896,-0.546875 -0.35156,-0.169271 -0.95052,-0.299479 -0.58594,-0.130208 -0.9375,-0.15625 V 39.98511 h 14.49219 z"
       id="path39" />
    <path
       d="m 188.95778,51.912193 q 0,1.354166 -0.42968,2.669271 -0.42969,1.302083 -1.22396,2.213541 -0.89844,1.041667 -2.08334,1.549479 -1.18489,0.507813 -2.65625,0.507813 -1.22395,0 -2.33072,-0.455729 -1.10678,-0.46875 -1.96615,-1.354167 -0.84635,-0.872396 -1.35417,-2.122396 -0.49479,-1.263021 -0.49479,-2.825521 0,-3.007812 1.74479,-4.921874 1.75782,-1.914063 4.59636,-1.914063 2.69531,0 4.4401,1.822917 1.75781,1.809896 1.75781,4.830729 z m -2.69531,0.02604 q 0,-0.976562 -0.19531,-2.057291 -0.19531,-1.09375 -0.58594,-1.848958 -0.41667,-0.807292 -1.09375,-1.289063 -0.67708,-0.494792 -1.65364,-0.494792 -1.00261,0 -1.71875,0.494792 -0.70313,0.494792 -1.14584,1.354167 -0.41666,0.794271 -0.58594,1.809896 -0.16927,1.015625 -0.16927,1.966145 0,1.25 0.19532,2.317709 0.20833,1.054687 0.65104,1.88802 0.44271,0.833334 1.10677,1.315105 0.67708,0.46875 1.66667,0.46875 1.6276,0 2.57812,-1.575521 0.95052,-1.575521 0.95052,-4.348959 z"
       id="path41" />
    <path
       d="m 203.18955,58.461672 h -5.88541 v -0.859375 q 0.58594,-0.0651 0.98958,-0.130208 0.41667,-0.0651 0.41667,-0.338542 0,-0.117188 -0.13021,-0.364583 -0.13021,-0.247396 -0.26042,-0.45573 -0.32552,-0.507812 -0.89843,-1.354166 -0.5599,-0.859375 -1.38021,-2.044271 -0.67709,0.846354 -1.25,1.653646 -0.57292,0.794271 -1.19792,1.692708 -0.0911,0.130208 -0.19531,0.325521 -0.0911,0.195312 -0.0911,0.3125 0,0.286458 0.36459,0.481771 0.3776,0.182291 1.11979,0.247396 v 0.833333 h -4.75261 V 57.65438 q 0.88542,-0.260416 1.41927,-0.625 0.54688,-0.377604 1.00261,-0.924479 0.40364,-0.520833 1.11979,-1.432292 0.72917,-0.911458 1.875,-2.473958 -0.66406,-0.950521 -1.6276,-2.317708 -0.95053,-1.380208 -1.57553,-2.291667 -0.33854,-0.494791 -0.78125,-0.794271 -0.42968,-0.3125 -1.22395,-0.3125 V 45.62313 h 5.58593 v 0.859375 q -0.41666,0 -0.82031,0.05208 -0.40364,0.05208 -0.40364,0.234375 0,0.117187 0.0781,0.260416 0.0781,0.14323 0.19531,0.3125 0.28646,0.442709 0.88542,1.367188 0.61198,0.924479 1.3151,1.953125 0.45573,-0.625 1.05469,-1.458333 0.61198,-0.833334 1.11979,-1.588542 0.0521,-0.09115 0.10417,-0.221354 0.0521,-0.143229 0.0521,-0.273438 0,-0.273437 -0.45573,-0.429687 -0.4427,-0.169271 -0.84635,-0.234375 V 45.62313 h 4.73958 v 0.807292 q -1.0026,0.260417 -1.5625,0.625 -0.55989,0.351563 -0.95052,0.820313 -0.42969,0.533854 -1.02864,1.315104 -0.58594,0.78125 -1.65365,2.1875 1.1849,1.666666 1.92708,2.734375 0.74219,1.067708 1.4974,2.20052 0.3776,0.572917 0.83333,0.911459 0.46875,0.325521 1.27604,0.377604 z"
       id="path43" />
    <path
       d="m 222.87705,40.909589 q -0.36458,0.01302 -0.91146,0.104167 -0.53385,0.07813 -0.91145,0.208333 -0.44271,0.15625 -0.59896,0.520833 -0.15625,0.364584 -0.15625,0.794271 v 10.950521 q 0,0.859375 -0.35156,1.822916 -0.33855,0.963542 -1.00261,1.71875 -0.76823,0.885417 -1.83594,1.380208 -1.05468,0.494792 -2.42187,0.494792 -2.1224,0 -3.45052,-1.184896 -1.31511,-1.197916 -1.31511,-3.216145 0,-0.885417 0.45573,-1.5625 0.45573,-0.690105 1.32813,-0.690105 0.78125,0 1.25,0.442709 0.48177,0.429687 0.48177,1.145833 0,0.416667 -0.16927,0.833333 -0.16927,0.416667 -0.37761,0.742188 -0.19531,0.299479 -0.4427,0.703125 -0.2474,0.403646 -0.35157,0.729167 0.27344,0.429687 0.84636,0.755208 0.58594,0.325521 1.5625,0.325521 0.95052,0 1.54948,-0.429688 0.61198,-0.442708 0.91146,-1.171875 0.28645,-0.677083 0.40364,-1.666666 0.13021,-0.989584 0.13021,-2.213542 v -9.778646 q 0,-0.455729 -0.15625,-0.755208 -0.14323,-0.3125 -0.61198,-0.546875 -0.40365,-0.208333 -1.01562,-0.3125 -0.59896,-0.117187 -0.98959,-0.143229 V 39.98511 h 8.15104 z"
       id="path45" />
    <path
       d="m 238.2807,58.227297 -4.17969,0.286458 -0.19531,-0.182292 v -1.627604 h -0.0781 q -0.3125,0.325521 -0.70312,0.703125 -0.39063,0.364584 -0.89844,0.664063 -0.58594,0.351562 -1.13281,0.533854 -0.54688,0.182292 -1.54948,0.182292 -1.70573,0 -2.60417,-1.106771 -0.88541,-1.119792 -0.88541,-3.242188 v -6.145833 q 0,-0.46875 -0.1823,-0.78125 -0.16927,-0.325521 -0.50781,-0.559896 -0.23437,-0.15625 -0.58594,-0.221354 -0.35156,-0.07813 -0.74218,-0.104166 V 45.77938 l 4.28385,-0.3125 0.19531,0.182292 v 8.919271 q 0,1.393229 0.625,2.096354 0.625,0.703125 1.4974,0.703125 0.71614,0 1.27604,-0.221354 0.5599,-0.221354 0.9375,-0.520834 0.35156,-0.273437 0.61198,-0.572916 0.27344,-0.3125 0.41667,-0.572917 v -7.278646 q 0,-0.429687 -0.1823,-0.755208 -0.18229,-0.338542 -0.50781,-0.572917 -0.23437,-0.15625 -0.70312,-0.182291 -0.45573,-0.03906 -1.02865,-0.0651 V 45.77938 l 4.66146,-0.3125 0.19531,0.182292 v 10.195312 q 0,0.442709 0.18229,0.755209 0.1823,0.3125 0.50782,0.533854 0.23437,0.143229 0.55989,0.195312 0.32552,0.03906 0.71615,0.05208 z"
       id="path47" />
    <path
       d="m 261.8484,58.461672 h -6.26302 v -0.859375 q 0.29948,-0.02604 0.59896,-0.05208 0.3125,-0.02604 0.54688,-0.104167 0.36458,-0.117188 0.53385,-0.403646 0.18229,-0.299479 0.18229,-0.768229 v -6.627604 q 0,-1.354167 -0.625,-2.083333 -0.61198,-0.742188 -1.53646,-0.742188 -0.63802,0 -1.19791,0.195313 -0.5599,0.195312 -1.02865,0.546875 -0.3776,0.286458 -0.63802,0.625 -0.2474,0.32552 -0.3776,0.546875 v 7.408854 q 0,0.455729 0.15625,0.755208 0.15625,0.286458 0.53385,0.442708 0.29948,0.117188 0.53385,0.182292 0.2474,0.05208 0.63803,0.07813 v 0.859375 h -6.13282 v -0.859375 q 0.29948,-0.02604 0.57292,-0.05208 0.28646,-0.02604 0.52083,-0.104167 0.36459,-0.117188 0.53386,-0.403646 0.18229,-0.299479 0.18229,-0.768229 v -6.627604 q 0,-1.354167 -0.625,-2.083333 -0.61198,-0.742188 -1.53646,-0.742188 -0.63802,0 -1.19792,0.208333 -0.55989,0.195313 -1.02864,0.546875 -0.37761,0.286459 -0.63802,0.651042 -0.26042,0.351563 -0.39063,0.533854 v 7.356771 q 0,0.442708 0.18229,0.742187 0.1823,0.29948 0.54688,0.45573 0.27344,0.130208 0.55989,0.195312 0.28646,0.0651 0.63803,0.09115 v 0.859375 h -6.23698 v -0.859375 q 0.29948,-0.02604 0.61198,-0.05208 0.32552,-0.02604 0.55989,-0.104167 0.36458,-0.117188 0.53386,-0.403646 0.18229,-0.299479 0.18229,-0.768229 v -7.981771 q 0,-0.416666 -0.19532,-0.742187 -0.18229,-0.338542 -0.52083,-0.572917 -0.24739,-0.15625 -0.61198,-0.247396 -0.36458,-0.104166 -0.75521,-0.130208 v -0.846354 l 4.29688,-0.286459 0.18229,0.182292 v 1.835938 h 0.0911 q 0.32552,-0.325521 0.79427,-0.76823 0.46875,-0.442708 0.87239,-0.716145 0.45573,-0.3125 1.13282,-0.520834 0.6901,-0.208333 1.48437,-0.208333 1.25,0 2.14844,0.677083 0.89844,0.664063 1.28906,1.614584 0.46875,-0.45573 0.82031,-0.794271 0.36459,-0.351563 0.95052,-0.742188 0.4948,-0.338541 1.15886,-0.546875 0.67708,-0.208333 1.49739,-0.208333 1.62761,0 2.57813,1.067708 0.95052,1.067709 0.95052,3.28125 v 6.523438 q 0,0.455729 0.15625,0.755208 0.15625,0.286458 0.53385,0.442708 0.29948,0.117188 0.58594,0.182292 0.29948,0.05208 0.66406,0.07813 z"
       id="path49" />
    <path
       d="m 275.07757,47.146568 q 0.76823,0.911458 1.1849,2.122396 0.42969,1.197916 0.42969,2.747395 0,1.523438 -0.50782,2.786459 -0.50781,1.25 -1.34114,2.135416 -0.8724,0.898438 -1.94011,1.380209 -1.0677,0.48177 -2.26562,0.48177 -1.15886,0 -1.90104,-0.260416 -0.74219,-0.260417 -1.21094,-0.611979 h -0.10417 v 3.854166 q 0,0.46875 0.18229,0.78125 0.1823,0.3125 0.5599,0.455729 0.3125,0.117188 0.88542,0.221355 0.58593,0.117187 0.96354,0.130208 v 0.872396 h -7.17448 v -0.872396 q 0.40365,-0.02604 0.78125,-0.0651 0.3776,-0.03906 0.67708,-0.130209 0.39063,-0.130208 0.54688,-0.455729 0.15625,-0.325521 0.15625,-0.768229 V 48.292401 q 0,-0.390625 -0.19531,-0.755208 -0.19532,-0.364583 -0.50782,-0.585938 -0.23437,-0.15625 -0.65104,-0.234375 -0.41667,-0.09115 -0.80729,-0.117187 v -0.846354 l 4.375,-0.286459 0.18229,0.15625 v 1.445313 l 0.10417,0.02604 q 0.67708,-0.78125 1.67969,-1.302084 1.0026,-0.520833 1.99218,-0.520833 1.19792,0 2.1875,0.507812 1.00261,0.507813 1.71875,1.367188 z m -2.12239,9.231771 q 0.52083,-0.807292 0.76823,-1.875 0.24739,-1.067709 0.24739,-2.382813 0,-0.963541 -0.20833,-1.966146 -0.20833,-1.002604 -0.65104,-1.744791 -0.44271,-0.755209 -1.15886,-1.223959 -0.71614,-0.46875 -1.71875,-0.46875 -0.96354,0 -1.64062,0.429688 -0.67709,0.416667 -1.17188,1.002604 v 7.591146 q 0.11719,0.351562 0.37761,0.729166 0.27343,0.377605 0.59896,0.651042 0.40364,0.325521 0.87239,0.533854 0.46875,0.195313 1.14583,0.195313 0.72917,0 1.40625,-0.377604 0.67709,-0.390625 1.13282,-1.09375 z"
       id="path51" />
    <path
       d="m 287.05674,52.172609 q 0.53385,0.46875 0.82031,1.08073 0.28646,0.611979 0.28646,1.497395 0,1.783855 -1.34115,2.916667 -1.32812,1.132812 -3.45052,1.132812 -1.11979,0 -2.07031,-0.403645 -0.9375,-0.403646 -1.34114,-0.742188 l -0.26042,0.846354 h -0.97656 l -0.13021,-4.466145 h 0.89844 q 0.10416,0.507812 0.4427,1.184895 0.33855,0.677084 0.82032,1.223959 0.50781,0.572916 1.21093,0.963541 0.71615,0.390625 1.60157,0.390625 1.25,0 1.92708,-0.559895 0.67708,-0.572917 0.67708,-1.627605 0,-0.546875 -0.22135,-0.9375 -0.20833,-0.403645 -0.625,-0.703125 -0.42969,-0.299479 -1.05469,-0.533854 -0.625,-0.247396 -1.39323,-0.481771 -0.61198,-0.182291 -1.36719,-0.494791 -0.74218,-0.325521 -1.27604,-0.755209 -0.57291,-0.455729 -0.9375,-1.119791 -0.36458,-0.664063 -0.36458,-1.5625 0,-1.575521 1.17187,-2.669271 1.17188,-1.09375 3.13803,-1.09375 0.7552,0 1.53645,0.195313 0.79427,0.195312 1.28907,0.46875 l 0.29948,-0.677084 h 0.9375 l 0.19531,4.127604 h -0.89844 q -0.27344,-1.380208 -1.1849,-2.239583 -0.89843,-0.872396 -2.20052,-0.872396 -1.0677,0 -1.67968,0.533854 -0.61198,0.533855 -0.61198,1.289063 0,0.585937 0.19531,0.976562 0.20833,0.390625 0.61198,0.664063 0.39062,0.260417 0.97656,0.494792 0.59896,0.221354 1.47136,0.507812 0.85937,0.273438 1.61458,0.638021 0.76823,0.364583 1.26302,0.807291 z"
       id="path53" />
    <path
       d="m 311.79632,42.17261 q 1.22396,1.276041 1.91406,3.085937 0.69011,1.796875 0.69011,3.984375 0,2.200521 -0.70313,3.997396 -0.70312,1.796875 -1.95312,3.059896 -1.21094,1.25 -2.8125,1.927083 -1.60157,0.677083 -3.41146,0.677083 -1.92708,0 -3.56771,-0.716146 -1.6276,-0.729166 -2.79948,-2.018229 -1.17187,-1.263021 -1.84896,-3.059896 -0.66406,-1.809895 -0.66406,-3.867187 0,-2.252604 0.70313,-4.010417 0.70312,-1.770833 1.9401,-3.059895 1.22396,-1.276042 2.83854,-1.953125 1.62761,-0.677084 3.39844,-0.677084 1.83594,0 3.46354,0.690105 1.6276,0.690104 2.8125,1.940104 z m -1.9401,13.098958 q 0.72916,-1.184896 1.05468,-2.682292 0.33855,-1.497396 0.33855,-3.346354 0,-1.901042 -0.37761,-3.489583 -0.36458,-1.588542 -1.08073,-2.708333 -0.71614,-1.106771 -1.79687,-1.71875 -1.08073,-0.625 -2.47396,-0.625 -1.5625,0 -2.65625,0.716145 -1.09375,0.716146 -1.78386,1.914063 -0.65104,1.145833 -0.97656,2.682291 -0.3125,1.536459 -0.3125,3.229167 0,1.875 0.33854,3.385417 0.33855,1.510416 1.06771,2.682291 0.70313,1.145834 1.77084,1.796875 1.0677,0.638021 2.55208,0.638021 1.39323,0 2.51302,-0.651042 1.11979,-0.651041 1.82292,-1.822916 z"
       id="path55" />
    <path
       d="m 329.06195,46.417401 q -0.58594,0.104167 -1.1198,0.429688 -0.52083,0.3125 -0.89843,1.119791 -0.76823,1.744792 -1.58855,3.645834 -0.82031,1.88802 -1.70572,3.971354 -0.26042,0.598958 -0.5599,1.419271 -0.28646,0.820312 -0.53385,1.57552 h -1.01563 q -1.23698,-3.059895 -2.27865,-5.572916 -1.04166,-2.526042 -2.16145,-5.169271 -0.26042,-0.598958 -0.84636,-0.924479 -0.57291,-0.338542 -1.15885,-0.429688 V 45.62313 h 5.9375 v 0.911459 q -0.39063,0.01302 -0.97656,0.169271 -0.58594,0.143229 -0.58594,0.403645 0,0.03906 0.0651,0.208334 0.0651,0.15625 0.13021,0.364583 0.53385,1.328125 1.51042,3.710937 0.97656,2.382813 1.58854,3.841146 0.46875,-1.119791 1.17187,-2.786458 0.71615,-1.666667 1.53646,-3.723958 0.13021,-0.351563 0.2474,-0.651042 0.11719,-0.3125 0.11719,-0.625 0,-0.221354 -0.22136,-0.390625 -0.20833,-0.182292 -0.50781,-0.3125 -0.29948,-0.130208 -0.58594,-0.195312 -0.28646,-0.0651 -0.46875,-0.09115 V 45.62313 h 4.90886 z"
       id="path57" />
    <path
       d="m 341.02809,55.440839 q -0.80729,1.536458 -2.16146,2.447916 -1.35416,0.911458 -3.11198,0.911458 -1.54948,0 -2.72135,-0.546874 -1.15885,-0.546875 -1.91406,-1.484375 -0.75521,-0.9375 -1.13282,-2.1875 -0.36458,-1.25 -0.36458,-2.64323 0,-1.249999 0.39063,-2.447916 0.40364,-1.210938 1.17187,-2.174479 0.74219,-0.924479 1.83594,-1.484375 1.10677,-0.572917 2.47396,-0.572917 1.40625,0 2.40885,0.442708 1.00261,0.442709 1.62761,1.210938 0.59895,0.729167 0.88541,1.71875 0.29948,0.989583 0.29948,2.148437 v 0.859375 h -8.5026 q 0,1.263021 0.23437,2.291667 0.2474,1.028646 0.76823,1.809896 0.50781,0.755208 1.32813,1.197916 0.82031,0.429688 1.95312,0.429688 1.15886,0 1.99219,-0.533854 0.84635,-0.546875 1.6276,-1.953125 z m -2.8776,-4.895834 q 0,-0.729166 -0.13021,-1.5625 -0.11719,-0.833333 -0.39063,-1.393229 -0.29948,-0.598958 -0.82031,-0.976562 -0.52083,-0.377604 -1.34114,-0.377604 -1.36719,0 -2.27865,1.145833 -0.89844,1.132812 -0.97656,3.164062 z"
       id="path59" />
    <path
       d="m 352.3432,47.276776 q 0,0.664063 -0.32553,1.184896 -0.32552,0.507813 -1.0026,0.507813 -0.72917,0 -1.11979,-0.377605 -0.37761,-0.377604 -0.37761,-0.833333 0,-0.286458 0.0391,-0.520833 0.0521,-0.234375 0.0911,-0.46875 -0.61198,0 -1.43229,0.494791 -0.82031,0.494792 -1.39323,1.40625 v 7.473959 q 0,0.455729 0.16927,0.742187 0.18229,0.286458 0.5599,0.429688 0.32552,0.130208 0.83333,0.195312 0.52084,0.0651 0.89844,0.09115 v 0.859375 h -6.77083 v -0.859375 q 0.29948,-0.02604 0.61198,-0.05208 0.32552,-0.02604 0.55989,-0.104167 0.36458,-0.117188 0.53386,-0.403646 0.18229,-0.299479 0.18229,-0.768229 v -7.929687 q 0,-0.403646 -0.19532,-0.794271 -0.18229,-0.390625 -0.52083,-0.625 -0.24739,-0.15625 -0.58594,-0.221354 -0.33854,-0.07813 -0.72916,-0.104167 v -0.846354 l 4.27083,-0.286459 0.18229,0.182292 v 1.809896 h 0.0651 q 0.80729,-1.054688 1.79687,-1.601563 0.98958,-0.546875 1.8099,-0.546875 0.82031,0 1.32812,0.533855 0.52084,0.533854 0.52084,1.432291 z"
       id="path61" />
    <path
       d="m 175.81976,78.331466 h -0.89843 q -0.11719,-0.46875 -0.42969,-1.10677 -0.29948,-0.651042 -0.67709,-1.223959 -0.39062,-0.598958 -0.85937,-1.041666 -0.45573,-0.45573 -0.88542,-0.520834 -0.40364,-0.05208 -1.01562,-0.07813 -0.61198,-0.02604 -1.13281,-0.02604 h -0.75521 v 14.778645 q 0,0.429688 0.18229,0.794271 0.18229,0.351562 0.63802,0.546875 0.23437,0.09115 0.97656,0.247396 0.75521,0.15625 1.17188,0.169271 v 0.924479 h -8.72396 v -0.924479 q 0.36458,-0.02604 1.10677,-0.104167 0.75521,-0.07813 1.04167,-0.195313 0.42968,-0.16927 0.625,-0.48177 0.20833,-0.325521 0.20833,-0.859375 V 74.334071 h -0.75521 q -0.40364,0 -1.0026,0.02604 -0.59896,0.01302 -1.14584,0.07813 -0.42968,0.05208 -0.89843,0.520834 -0.45573,0.455729 -0.84636,1.041666 -0.39062,0.585938 -0.6901,1.25 -0.29948,0.651042 -0.41667,1.080729 h -0.91146 v -5.01302 h 16.09375 z"
       id="path63" />
    <path
       d="m 190.91091,91.795008 h -6.30209 v -0.859375 q 0.29948,-0.02604 0.66407,-0.05208 0.36458,-0.02604 0.59896,-0.104166 0.36458,-0.117188 0.53385,-0.403646 0.18229,-0.299479 0.18229,-0.768229 v -6.601563 q 0,-1.367187 -0.65104,-2.109375 -0.63802,-0.742187 -1.5625,-0.742187 -0.67708,0 -1.26302,0.221354 -0.57292,0.208333 -1.02865,0.520833 -0.44271,0.325521 -0.67708,0.651042 -0.23438,0.325521 -0.36458,0.546875 v 7.382812 q 0,0.442709 0.16927,0.729167 0.18229,0.286458 0.54687,0.442708 0.28646,0.130209 0.58594,0.195313 0.3125,0.0651 0.67708,0.09115 v 0.859375 h -6.30208 v -0.859375 q 0.29948,-0.02604 0.625,-0.05208 0.32552,-0.03906 0.54687,-0.104166 0.36459,-0.117188 0.54688,-0.403646 0.18229,-0.299479 0.18229,-0.768229 V 74.659591 q 0,-0.442708 -0.20833,-0.885416 -0.19531,-0.442709 -0.52084,-0.664063 -0.23437,-0.169271 -0.83333,-0.234375 -0.58594,-0.07813 -0.95052,-0.104166 v -0.833334 l 4.7526,-0.299479 0.1823,0.195313 v 8.958333 h 0.0521 q 0.42969,-0.429688 0.78125,-0.755209 0.35156,-0.338541 0.92448,-0.703124 0.49479,-0.3125 1.15885,-0.520834 0.67709,-0.208333 1.51042,-0.208333 1.71875,0 2.64323,1.09375 0.92448,1.080729 0.92448,3.125 v 6.679687 q 0,0.455729 0.15625,0.742188 0.16927,0.273437 0.54687,0.429687 0.29948,0.117188 0.53386,0.182292 0.24739,0.05208 0.63802,0.07813 z"
       id="path65" />
    <path
       d="m 203.89268,88.774174 q -0.80729,1.536459 -2.16146,2.447917 -1.35417,0.911458 -3.11198,0.911458 -1.54948,0 -2.72135,-0.546875 -1.15886,-0.546875 -1.91407,-1.484375 -0.75521,-0.9375 -1.13281,-2.1875 -0.36458,-1.25 -0.36458,-2.643229 0,-1.25 0.39062,-2.447916 0.40365,-1.210938 1.17188,-2.174479 0.74218,-0.92448 1.83593,-1.484375 1.10678,-0.572917 2.47396,-0.572917 1.40625,0 2.40886,0.442708 1.0026,0.442709 1.6276,1.210938 0.59896,0.729166 0.88542,1.71875 0.29948,0.989583 0.29948,2.148437 v 0.859375 h -8.50261 q 0,1.263021 0.23438,2.291667 0.24739,1.028646 0.76823,1.809896 0.50781,0.755208 1.32812,1.197916 0.82031,0.429688 1.95313,0.429688 1.15885,0 1.99218,-0.533854 0.84636,-0.546875 1.62761,-1.953125 z m -2.87761,-4.895833 q 0,-0.729166 -0.13021,-1.5625 -0.11718,-0.833333 -0.39062,-1.393229 -0.29948,-0.598958 -0.82031,-0.976562 -0.52084,-0.377605 -1.34115,-0.377605 -1.36719,0 -2.27864,1.145834 -0.89844,1.132812 -0.97657,3.164062 z"
       id="path67" />
    <path
       d="m 226.97862,86.300216 -0.39063,5.494792 h -14.4401 v -0.924479 q 0.3125,-0.02604 0.89843,-0.09115 0.59896,-0.0651 0.83334,-0.169271 0.39062,-0.169271 0.55989,-0.494792 0.1823,-0.325521 0.1823,-0.833333 V 76.052821 q 0,-0.442709 -0.15625,-0.78125 -0.14323,-0.338542 -0.58594,-0.546875 -0.29948,-0.15625 -0.84636,-0.29948 -0.53385,-0.15625 -0.88541,-0.182291 v -0.924479 h 7.79948 v 0.924479 q -0.36459,0.01302 -0.95052,0.130208 -0.57292,0.117188 -0.83334,0.208333 -0.44271,0.15625 -0.61198,0.533855 -0.15625,0.377604 -0.15625,0.807291 v 12.408854 q 0,0.859375 0.0781,1.341146 0.0911,0.46875 0.40364,0.729167 0.29948,0.234375 0.88542,0.3125 0.59896,0.0651 1.66667,0.0651 0.48177,0 1.0026,-0.02604 0.52083,-0.02604 0.98958,-0.104167 0.45573,-0.07813 0.83334,-0.208333 0.39062,-0.143229 0.57291,-0.351562 0.53386,-0.598959 1.23698,-1.809896 0.71615,-1.223959 0.98959,-1.979167 z"
       id="path69" />
    <path
       d="m 240.06455,91.560633 q -0.61198,0.221354 -1.08073,0.351562 -0.45573,0.143229 -1.04167,0.143229 -1.01562,0 -1.6276,-0.46875 -0.59896,-0.48177 -0.76823,-1.393229 h -0.0781 q -0.84636,0.9375 -1.82292,1.432292 -0.96354,0.494792 -2.33073,0.494792 -1.44531,0 -2.38281,-0.885417 -0.92448,-0.885417 -0.92448,-2.317708 0,-0.742188 0.20833,-1.328125 0.20833,-0.585938 0.625,-1.054688 0.32552,-0.390625 0.85938,-0.690104 0.53385,-0.3125 1.0026,-0.494792 0.58594,-0.221354 2.36979,-0.820312 1.79688,-0.598958 2.42188,-0.9375 V 82.30282 q 0,-0.16927 -0.0781,-0.651041 -0.0651,-0.481771 -0.29948,-0.911459 -0.26041,-0.48177 -0.74218,-0.833333 -0.46875,-0.364583 -1.34115,-0.364583 -0.59896,0 -1.11979,0.208333 -0.50781,0.195313 -0.71615,0.416667 0,0.260416 0.11719,0.768229 0.13021,0.507812 0.13021,0.9375 0,0.455729 -0.41667,0.833333 -0.40364,0.377604 -1.13281,0.377604 -0.65104,0 -0.96354,-0.455729 -0.29948,-0.46875 -0.29948,-1.041666 0,-0.598959 0.41666,-1.145834 0.42969,-0.546875 1.10678,-0.976562 0.58593,-0.364583 1.41927,-0.611979 0.83333,-0.260417 1.6276,-0.260417 1.09375,0 1.90104,0.15625 0.82031,0.143229 1.48438,0.638021 0.66406,0.481771 1.0026,1.315104 0.35156,0.820312 0.35156,2.122396 0,1.861979 -0.0391,3.307291 -0.0391,1.432292 -0.0391,3.138021 0,0.507813 0.16927,0.807292 0.18229,0.299479 0.54687,0.507812 0.19532,0.117188 0.61198,0.130209 0.42969,0.01302 0.8724,0.01302 z m -4.54427,-6.875 q -1.10677,0.325521 -1.94011,0.638021 -0.83333,0.3125 -1.54947,0.78125 -0.65105,0.442708 -1.02865,1.054687 -0.3776,0.598958 -0.3776,1.432292 0,1.080729 0.55989,1.588541 0.57292,0.507813 1.44531,0.507813 0.92448,0 1.62761,-0.442708 0.70312,-0.45573 1.18489,-1.067709 z"
       id="path71" />
    <path
       d="m 251.50986,91.795008 h -10.39062 v -0.690104 l 7.26562,-11.09375 h -1.79687 q -1.13282,0 -1.77084,0.03906 -0.63802,0.03906 -1.17187,0.260417 -0.36458,0.143229 -0.69011,0.820312 -0.3125,0.677084 -0.54687,1.770834 h -0.79427 v -3.945313 h 9.81771 v 0.533854 l -7.38282,11.25 q 0.46875,0.01302 1.02865,0.02604 0.5599,0 1.21094,0 0.52083,0 1.08073,-0.01302 0.57291,-0.01302 1.45833,-0.0651 0.52083,-0.02604 0.78125,-0.351563 0.27344,-0.32552 0.41667,-0.742187 0.14323,-0.377604 0.33854,-1.041667 0.20833,-0.664062 0.36458,-1.289062 h 0.78125 z"
       id="path73" />
    <path
       d="m 252.19997,95.987716 q 0,-0.651042 0.35156,-1.067708 0.36458,-0.403646 0.89844,-0.403646 0.41666,0 0.71614,0.15625 0.29948,0.15625 0.53386,0.403646 0.19531,0.195312 0.41666,0.533854 0.22136,0.338541 0.35157,0.559896 0.65104,-0.351563 1.54947,-1.835938 0.91146,-1.484375 1.31511,-2.604166 -1.23698,-3.085938 -2.23958,-5.520834 -1.00261,-2.434895 -2.09636,-5.039062 -0.24739,-0.598958 -0.83333,-0.924479 -0.58594,-0.338542 -1.17188,-0.429688 v -0.859375 h 5.85938 v 0.911459 q -0.39063,0.01302 -0.9375,0.16927 -0.54688,0.14323 -0.54688,0.403646 0,0 0.0651,0.195313 0.0781,0.195312 0.13021,0.377604 0.49479,1.289062 1.51041,3.723958 1.01563,2.421875 1.57552,3.880208 0.58594,-1.393229 1.21094,-2.877604 0.63802,-1.497395 1.41927,-3.528645 0.0911,-0.247396 0.26042,-0.677084 0.16927,-0.442708 0.16927,-0.755208 0,-0.338542 -0.59896,-0.625 -0.58594,-0.299479 -1.11979,-0.364583 v -0.833334 h 4.76562 v 0.807292 q -0.39062,0.0651 -1.02864,0.455729 -0.63802,0.377604 -0.95052,1.080729 -1.54948,3.59375 -2.76042,6.549479 -1.19792,2.955729 -1.82292,4.348959 -0.82031,1.822916 -1.47135,2.838541 -0.63802,1.028646 -1.25,1.614583 -0.59896,0.546875 -1.09375,0.729167 -0.48177,0.195313 -1.0026,0.195313 -1.01563,0 -1.60157,-0.481771 -0.57291,-0.481771 -0.57291,-1.106771 z"
       id="path75" />
    <path
       d="m 290.76768,82.667404 q 0,2.356771 -0.88542,4.088541 -0.88541,1.731771 -2.30468,2.838542 -1.4323,1.106771 -3.21615,1.653646 -1.78385,0.546875 -3.6849,0.546875 h -7.65625 v -0.924479 q 0.37761,0 0.97657,-0.06511 0.61198,-0.07813 0.80729,-0.16927 0.39062,-0.169271 0.55989,-0.494792 0.1823,-0.338542 0.1823,-0.807292 V 76.000737 q 0,-0.442708 -0.15625,-0.794271 -0.14323,-0.351562 -0.58594,-0.559895 -0.40365,-0.195313 -0.8724,-0.286459 -0.46875,-0.09115 -0.80729,-0.117187 v -0.924479 h 8.07292 q 1.66666,0 3.28125,0.520833 1.61458,0.507812 2.8125,1.380208 1.6276,1.158854 2.55208,3.033854 0.92448,1.875 0.92448,4.414063 z m -3.1901,-0.01302 q 0,-1.861979 -0.4948,-3.359375 -0.49479,-1.510417 -1.44531,-2.630208 -0.89844,-1.067709 -2.21354,-1.679688 -1.30208,-0.611979 -2.90365,-0.611979 -0.53385,0 -1.21093,0.02604 -0.66407,0.01302 -0.98959,0.02604 v 14.205729 q 0,1.184896 0.69011,1.640625 0.6901,0.455729 2.12239,0.455729 1.65365,0 2.89063,-0.585937 1.23698,-0.585938 2.00521,-1.627604 0.80729,-1.09375 1.17187,-2.526042 0.37761,-1.445312 0.37761,-3.333333 z"
       id="path77" />
    <path
       d="m 305.2208,85.245529 q 0,1.354166 -0.42969,2.66927 -0.42969,1.302084 -1.22396,2.213542 -0.89843,1.041667 -2.08333,1.549479 -1.1849,0.507813 -2.65625,0.507813 -1.22396,0 -2.33073,-0.455729 -1.10677,-0.46875 -1.96614,-1.354167 -0.84636,-0.872396 -1.35417,-2.122396 -0.49479,-1.263021 -0.49479,-2.825521 0,-3.007812 1.74479,-4.921875 1.75781,-1.914062 4.59635,-1.914062 2.69532,0 4.44011,1.822917 1.75781,1.809895 1.75781,4.830729 z m -2.69531,0.02604 q 0,-0.976562 -0.19532,-2.057291 -0.19531,-1.09375 -0.58593,-1.848959 -0.41667,-0.807291 -1.09375,-1.289062 -0.67709,-0.494792 -1.65365,-0.494792 -1.0026,0 -1.71875,0.494792 -0.70312,0.494792 -1.14583,1.354167 -0.41667,0.79427 -0.58594,1.809895 -0.16927,1.015625 -0.16927,1.966146 0,1.25 0.19531,2.317708 0.20834,1.054688 0.65104,1.888021 0.44271,0.833334 1.10677,1.315104 0.67709,0.46875 1.66667,0.46875 1.62761,0 2.57813,-1.57552 0.95052,-1.575521 0.95052,-4.348959 z"
       id="path79" />
    <path
       d="m 318.08538,90.466883 q 0.52084,0.494791 0.82032,1.119791 0.29947,0.625 0.29947,1.54948 0,0.924479 -0.40364,1.73177 -0.40365,0.820313 -1.22396,1.419271 -0.8724,0.611979 -2.08333,0.950521 -1.21094,0.338542 -2.99479,0.338542 -2.91667,0 -4.36198,-0.859375 -1.44532,-0.846355 -1.44532,-2.48698 0,-1.328124 1.04167,-2.096354 1.04167,-0.768229 2.65625,-0.833333 v -0.182292 q -0.39062,-0.117187 -0.80729,-0.286458 -0.41667,-0.182292 -0.71615,-0.416667 -0.33854,-0.273437 -0.54687,-0.63802 -0.20834,-0.377605 -0.20834,-0.92448 0,-0.690104 0.48178,-1.26302 0.49479,-0.585938 1.48437,-1.002605 v -0.195312 q -1.25,-0.585937 -1.9401,-1.497396 -0.69011,-0.924479 -0.69011,-2.135416 0,-1.822917 1.35417,-2.994792 1.36719,-1.171875 3.48958,-1.171875 0.58594,0 1.15886,0.117188 0.58593,0.117187 1.18489,0.299479 h 4.47917 v 1.25 h -3.02083 v 0.07813 q 0.48177,0.559895 0.71614,1.236979 0.23438,0.677083 0.23438,1.328125 0,1.692708 -1.38021,2.864583 -1.36719,1.171875 -3.19011,1.171875 h -1.57552 q -0.29948,0.104167 -0.625,0.377604 -0.32552,0.273438 -0.32552,0.742188 0,0.48177 0.27344,0.742187 0.27344,0.247396 0.66406,0.338542 0.37761,0.104166 0.8724,0.130208 0.50781,0.02604 1.04166,0.03906 0.57292,0.01302 1.5625,0.07813 1.00261,0.0651 1.41928,0.07813 0.59895,0.02604 1.19791,0.286458 0.61198,0.260417 1.10677,0.716146 z m -3.51562,-7.617188 q 0,-1.523437 -0.625,-2.421875 -0.61198,-0.911458 -1.73177,-0.911458 -0.61198,0 -1.05469,0.260417 -0.42969,0.247396 -0.70313,0.716146 -0.26041,0.429687 -0.3776,1.041666 -0.10417,0.598959 -0.10417,1.236979 0,1.445313 0.625,2.356771 0.63802,0.911459 1.64063,0.911459 1.11979,0 1.71875,-0.898438 0.61198,-0.911458 0.61198,-2.291667 z m 2.5,10.768229 q 0,-0.729166 -0.33854,-1.197916 -0.33855,-0.46875 -1.02865,-0.638021 -0.36458,-0.05208 -1.4974,-0.117188 -1.13281,-0.0651 -2.6302,-0.0651 -1.40625,0.273438 -2.00521,0.911459 -0.58594,0.651041 -0.58594,1.666666 0,0.455729 0.19531,0.872396 0.19532,0.416667 0.67709,0.768229 0.45573,0.338542 1.22395,0.546875 0.76823,0.221354 1.875,0.221354 1.91407,0 3.00782,-0.742187 1.10677,-0.729167 1.10677,-2.226563 z"
       id="path81" />
  </g>
</svg>
