<?xml version="1.0" encoding="UTF-8" standalone="no"?>
<svg
   xmlns:dc="http://purl.org/dc/elements/1.1/"
   xmlns:cc="http://creativecommons.org/ns#"
   xmlns:rdf="http://www.w3.org/1999/02/22-rdf-syntax-ns#"
   xmlns:svg="http://www.w3.org/2000/svg"
   xmlns="http://www.w3.org/2000/svg"
   viewBox="159.986 6.67782 193.333 91.224"
   version="1.1"
   id="svg2">
  <metadata
     id="metadata11">
    <rdf:RDF>
      <cc:Work
         rdf:about="">
        <dc:format>image/svg+xml</dc:format>
        <dc:type
           rdf:resource="http://purl.org/dc/dcmitype/StillImage" />
      </cc:Work>
    </rdf:RDF>
  </metadata>
  <defs
     id="defs9" />
  <g
     aria-label="The Quick BrownFox Jumps OverThe Lazy Dog"
     id="text4521"
     style="font-style:normal;font-variant:normal;font-weight:normal;font-stretch:normal;font-size:26.6667px;line-height:125%;font-family:'Gill Sans', sans-serif;font-variant-ligatures:normal;font-variant-caps:normal;font-variant-numeric:normal;font-feature-settings:normal;text-align:left;letter-spacing:0px;word-spacing:0px;writing-mode:lr-tb;text-anchor:start;fill:#000000;fill-opacity:1;stroke:none;stroke-width:1px;stroke-linecap:butt;stroke-linejoin:miter;stroke-opacity:1">
    <path
       d="m 159.98643,6.9121906 v 2.3177082 h 6.23698 V 25.128336 h 2.61719 V 9.2298988 h 6.34114 V 6.9121906 Z"
       id="path13" />
    <path
       d="M 177.26507,6.9382322 V 25.128336 h 2.3698 v -8.580729 c 0.54687,-0.625 1.05468,-1.067708 1.52343,-1.341146 0.45573,-0.260416 0.95052,-0.403646 1.47136,-0.403646 0.70312,0 1.26302,0.273438 1.69271,0.807292 0.42968,0.533854 0.65104,1.236979 0.65104,2.109375 v 7.408854 h 2.36979 v -6.822917 c 0,-1.380208 -0.15625,-2.434895 -0.46875,-3.13802 -0.3125,-0.703125 -0.78125,-1.25 -1.40625,-1.653646 -0.63802,-0.390625 -1.35417,-0.598958 -2.14844,-0.598958 -1.47135,0 -2.69531,0.611979 -3.68489,1.809895 V 6.9382322 Z"
       id="path15" />
    <path
       d="m 200.85882,19.347086 v -0.299479 c 0,-1.861979 -0.48177,-3.346354 -1.41927,-4.466146 -0.95052,-1.106771 -2.21354,-1.666666 -3.80208,-1.666666 -1.65365,0 -2.99479,0.572916 -4.02344,1.71875 -1.04167,1.145833 -1.54948,2.617187 -1.54948,4.440104 0,1.223958 0.23438,2.291666 0.72917,3.216145 0.49479,0.924479 1.14583,1.653646 1.96614,2.200521 0.8073,0.546875 1.875,0.820313 3.20313,0.820313 0.96354,0 1.79687,-0.104167 2.51302,-0.3125 0.71615,-0.208334 1.44531,-0.546875 2.17448,-1.041667 v -2.317708 c -1.32813,0.976562 -2.76042,1.458333 -4.32292,1.458333 -1.11979,0 -2.04427,-0.338542 -2.74739,-1.015625 -0.70313,-0.677083 -1.09375,-1.588542 -1.14584,-2.734375 z m -8.37239,-1.419271 c 0.15625,-0.9375 0.50781,-1.666666 1.05468,-2.1875 0.54688,-0.507812 1.23698,-0.768229 2.09636,-0.768229 0.84635,0 1.52344,0.260417 2.03125,0.768229 0.49479,0.520834 0.78125,1.25 0.84635,2.1875 z"
       id="path17" />
    <path
       d="m 229.50466,26.274169 c -0.70313,0.234375 -1.30209,0.351563 -1.82292,0.351563 -0.95052,0 -2.5,-0.403646 -4.63542,-1.236979 l -0.6901,-0.260417 c 2.22656,-0.442708 4.04948,-1.510417 5.45573,-3.216146 1.40625,-1.692708 2.10937,-3.671875 2.10937,-5.924479 0,-2.669271 -0.9375,-4.882812 -2.79948,-6.6536455 -1.86197,-1.7708333 -4.1927,-2.6562499 -7.0052,-2.6562499 -2.83854,0 -5.16927,0.8984374 -7.01823,2.6692707 -1.84896,1.7838537 -2.77344,4.0364587 -2.77344,6.7447917 0,2.226562 0.71615,4.192708 2.14844,5.885416 1.43229,1.705729 3.26823,2.760417 5.48177,3.151042 1.52344,1.054687 2.74739,1.796875 3.65885,2.226562 0.91146,0.442709 1.82292,0.78125 2.70834,1.028646 0.88541,0.247396 1.74479,0.390625 2.5651,0.429688 z M 220.11664,9.1517738 c 2.05729,0 3.75,0.6510417 5.10416,1.9531252 1.34115,1.302083 2.01823,2.955729 2.01823,4.934896 0,1.953124 -0.6901,3.580729 -2.05729,4.908854 -1.38021,1.328125 -3.0599,1.992187 -5.0651,1.992187 -2.03125,0 -3.72396,-0.638021 -5.06511,-1.940104 -1.35416,-1.302083 -2.01823,-2.929688 -2.01823,-4.882812 0,-2.005209 0.66407,-3.658855 2.00521,-4.98698 1.32813,-1.3151037 3.02084,-1.9791662 5.07813,-1.9791662 z"
       id="path19" />
    <path
       d="m 240.41611,25.128336 h 2.36979 V 13.14917 h -2.36979 v 8.567708 c -0.79427,1.106771 -1.75781,1.653645 -2.8776,1.653645 -0.91146,0 -1.53646,-0.247395 -1.90104,-0.742187 -0.36459,-0.494792 -0.53386,-1.380208 -0.53386,-2.643229 V 13.14917 h -2.36979 v 6.861979 c 0,1.510416 0.15625,2.578125 0.48177,3.229166 0.32552,0.651042 0.80729,1.158854 1.44531,1.536458 0.63802,0.377605 1.34115,0.559896 2.09636,0.559896 0.63802,0 1.27604,-0.143229 1.92708,-0.455729 0.65104,-0.299479 1.22396,-0.729167 1.73177,-1.276042 z"
       id="path21" />
    <path
       d="m 247.3432,8.1101072 c -0.36459,0 -0.69011,0.1432292 -0.96354,0.4296875 -0.28646,0.2864583 -0.41667,0.5989583 -0.41667,0.9635416 0,0.3776042 0.13021,0.7031247 0.41667,0.9895837 0.27343,0.286458 0.59895,0.416666 0.96354,0.416666 0.39062,0 0.71614,-0.130208 1.0026,-0.416666 0.27344,-0.273438 0.41667,-0.5989587 0.41667,-0.9895837 0,-0.390625 -0.14323,-0.7161458 -0.41667,-0.9895833 -0.28646,-0.2604166 -0.61198,-0.4036458 -1.0026,-0.4036458 z m -1.17188,5.0390628 v 11.979166 h 2.36979 V 13.14917 Z"
       id="path23" />
    <path
       d="m 260.94997,22.328857 c -1.1849,0.533854 -2.22657,0.794271 -3.13802,0.794271 -1.26303,0 -2.26563,-0.351563 -3.00782,-1.080729 -0.74218,-0.716146 -1.10677,-1.692709 -1.10677,-2.916667 0,-1.158854 0.33854,-2.109375 1.02865,-2.864583 0.67708,-0.755209 1.5625,-1.132813 2.63021,-1.132813 1.01562,0 2.13541,0.390625 3.33333,1.145833 v -2.526041 c -0.72917,-0.3125 -1.32813,-0.533854 -1.82292,-0.651042 -0.49479,-0.117187 -1.04166,-0.182291 -1.65364,-0.182291 -1.77084,0 -3.20313,0.585937 -4.28386,1.73177 -1.09375,1.158855 -1.6276,2.682292 -1.6276,4.557292 0,1.875 0.54687,3.359375 1.66667,4.466146 1.11979,1.119791 2.61718,1.666666 4.49218,1.666666 1.13282,0 2.29167,-0.221354 3.48959,-0.664062 z"
       id="path25" />
    <path
       d="m 271.43174,13.14917 -5.3125,5.872395 6.0026,6.106771 h 3.17708 l -6.15885,-6.106771 5.11719,-5.872395 z M 263.64528,6.9382322 V 25.128336 h 2.36979 V 6.9382322 Z"
       id="path27" />
    <path
       d="m 290.31195,25.128336 c 1.38021,0 2.53906,-0.221354 3.46354,-0.690104 0.92448,-0.455729 1.62761,-1.054688 2.10938,-1.783854 0.46875,-0.729167 0.71614,-1.549479 0.71614,-2.486979 0,-1.171875 -0.40364,-2.17448 -1.18489,-3.020834 -0.78125,-0.833333 -1.83594,-1.380208 -3.16407,-1.640625 1.84896,-0.768229 2.77344,-2.04427 2.77344,-3.841145 0,-0.92448 -0.22135,-1.744792 -0.66406,-2.447917 -0.44271,-0.703125 -1.09375,-1.2630208 -1.92708,-1.6666666 -0.84636,-0.4036459 -2.01823,-0.6119792 -3.51563,-0.6119792 H 284.1531 V 25.128336 Z m -1.3151,-15.8723955 c 2.21354,0 3.33333,0.8723955 3.33333,2.6171875 0,0.846354 -0.29948,1.536458 -0.88542,2.057292 -0.58593,0.533854 -1.57552,0.79427 -2.95573,0.79427 h -1.73177 V 9.2559405 Z m 0.19531,7.7864585 c 1.28906,0 2.23958,0.117187 2.83854,0.338541 0.59896,0.234375 1.05469,0.572917 1.38021,1.028646 0.32552,0.46875 0.49479,0.976563 0.49479,1.523438 0,0.546875 -0.15625,1.041666 -0.46875,1.510416 -0.3125,0.46875 -0.71615,0.820313 -1.22396,1.041667 -0.50781,0.221354 -1.47135,0.325521 -2.89062,0.325521 h -2.56511 v -5.768229 z"
       id="path29" />
    <path
       d="m 301.37965,13.14917 h -2.38281 v 11.979166 h 2.38281 v -6.263021 c 0,-0.989583 0.27344,-1.861979 0.83334,-2.591146 0.55989,-0.729166 1.22396,-1.093749 1.99218,-1.093749 0.70313,0 1.45834,0.390625 2.29167,1.171874 l 1.25,-2.083333 c -0.97656,-0.898437 -1.91406,-1.354166 -2.79948,-1.354166 -1.14583,0 -2.29166,0.924479 -3.4375,2.773437 l -0.13021,0.208333 z"
       id="path31" />
    <path
       d="m 315.12965,13.123128 c -1.84896,0 -3.3724,0.585937 -4.59636,1.757812 -1.22395,1.171875 -1.82291,2.630209 -1.82291,4.375 0,1.744792 0.59896,3.190104 1.80989,4.348958 1.19792,1.158855 2.70834,1.731771 4.50521,1.731771 1.84896,0 3.39844,-0.559896 4.6224,-1.705729 1.22396,-1.145833 1.83594,-2.578125 1.83594,-4.309896 0,-1.770833 -0.61198,-3.255208 -1.8099,-4.427083 -1.21094,-1.171875 -2.72135,-1.770833 -4.54427,-1.770833 z m -0.13021,2.135417 c 1.17188,0 2.13542,0.377604 2.91667,1.119791 0.76823,0.755208 1.15885,1.692708 1.15885,2.825521 0,1.145833 -0.3776,2.096354 -1.11979,2.825521 -0.74219,0.729166 -1.69271,1.09375 -2.85156,1.09375 -1.17188,0 -2.13542,-0.351563 -2.87761,-1.080729 -0.75521,-0.729167 -1.11979,-1.666667 -1.11979,-2.8125 0,-1.145834 0.36458,-2.096355 1.09375,-2.851563 0.72917,-0.742187 1.65365,-1.119791 2.79948,-1.119791 z"
       id="path33" />
    <path
       d="m 339.07497,13.14917 -3.125,7.265624 -3.03386,-7.265624 h -1.75781 l -3.04688,7.265624 -3.13802,-7.265624 h -2.53906 l 5.33854,12.187499 h 0.76823 l 3.48959,-8.346354 3.55468,8.346354 h 0.74219 l 5.28646,-12.187499 z"
       id="path35" />
    <path
       d="m 345.66351,13.14917 h -2.42188 v 11.979166 h 2.42188 v -8.554687 c 0.78125,-1.119792 1.73177,-1.679688 2.85156,-1.679688 0.8724,0 1.4974,0.273438 1.875,0.794271 0.36458,0.520833 0.5599,1.393229 0.5599,2.617187 v 6.822917 h 2.36979 v -6.848958 c 0,-1.458334 -0.16927,-2.513021 -0.50781,-3.190104 -0.33855,-0.677084 -0.82032,-1.197917 -1.45834,-1.588542 -0.65104,-0.390625 -1.34114,-0.585937 -2.08333,-0.585937 -1.35417,0 -2.55208,0.585937 -3.60677,1.757812 z"
       id="path37" />
    <path
       d="m 161.56195,40.271568 v 18.190104 h 2.60417 V 49.98511 h 7.09635 v -2.317709 h -7.09635 v -5.078125 h 7.09635 v -2.317708 z"
       id="path39" />
    <path
       d="m 179.45258,46.456464 c -1.84896,0 -3.3724,0.585937 -4.59636,1.757812 -1.22396,1.171875 -1.82292,2.630209 -1.82292,4.375 0,1.744792 0.59896,3.190104 1.8099,4.348958 1.19792,1.158855 2.70833,1.731771 4.50521,1.731771 1.84896,0 3.39844,-0.559896 4.62239,-1.705729 1.22396,-1.145833 1.83594,-2.578125 1.83594,-4.309896 0,-1.770833 -0.61198,-3.255208 -1.80989,-4.427083 -1.21094,-1.171875 -2.72136,-1.770833 -4.54427,-1.770833 z m -0.13021,2.135416 c 1.17187,0 2.13541,0.377605 2.91666,1.119792 0.76823,0.755208 1.15886,1.692708 1.15886,2.825521 0,1.145833 -0.37761,2.096354 -1.11979,2.825521 -0.74219,0.729166 -1.69271,1.09375 -2.85157,1.09375 -1.17187,0 -2.13541,-0.351563 -2.8776,-1.08073 -0.75521,-0.729166 -1.11979,-1.666666 -1.11979,-2.8125 0,-1.145833 0.36458,-2.096354 1.09375,-2.851562 0.72916,-0.742187 1.65364,-1.119792 2.79948,-1.119792 z"
       id="path41" />
    <path
       d="m 196.70518,46.482505 -3.41146,4.114584 -3.55469,-4.114584 h -2.98177 l 5.03907,5.898438 -5.03907,6.080729 h 2.98177 l 3.55469,-4.296875 3.76302,4.296875 h 3.03386 l -5.28646,-6.080729 4.93489,-5.898438 z"
       id="path43" />
    <path
       d="m 209.5307,40.271568 v 17.65625 c 0,1.497395 -0.11719,2.473958 -0.35156,2.929687 -0.23438,0.46875 -0.54688,0.78125 -0.9375,0.963542 -0.39063,0.182291 -0.96354,0.273437 -1.70573,0.273437 h -0.66406 l 0.48177,2.421875 c 0.39062,0.05208 0.67708,0.07813 0.84635,0.07813 1.06771,0 1.99219,-0.234375 2.76042,-0.716146 0.75521,-0.48177 1.3151,-1.119791 1.65364,-1.927083 0.33855,-0.807292 0.52084,-2.044271 0.52084,-3.723958 V 40.271568 Z"
       id="path45" />
    <path
       d="m 223.47601,58.461672 h 2.36979 V 46.482505 h -2.36979 v 8.567709 c -0.79427,1.10677 -1.75781,1.653645 -2.8776,1.653645 -0.91146,0 -1.53646,-0.247395 -1.90105,-0.742187 -0.36458,-0.494792 -0.53385,-1.380208 -0.53385,-2.643229 v -6.835938 h -2.36979 v 6.861979 c 0,1.510417 0.15625,2.578125 0.48177,3.229167 0.32552,0.651042 0.80729,1.158854 1.44531,1.536458 0.63802,0.377604 1.34115,0.559896 2.09636,0.559896 0.63802,0 1.27604,-0.143229 1.92708,-0.455729 0.65104,-0.299479 1.22396,-0.729167 1.73177,-1.276042 z"
       id="path47" />
    <path
       d="m 238.99685,49.763755 c 0.84635,-0.989583 1.75781,-1.484375 2.74739,-1.484375 0.75521,0 1.34115,0.273438 1.75781,0.794271 0.40365,0.533854 0.61198,1.302084 0.61198,2.291667 v 7.096354 h 2.3698 v -7.070313 c 0,-1.744791 -0.37761,-3.033854 -1.13282,-3.893229 -0.75521,-0.846354 -1.70573,-1.276041 -2.86458,-1.276041 -1.38021,0 -2.70833,0.729166 -3.97135,2.1875 -0.83334,-1.432292 -2.01823,-2.161459 -3.52865,-2.161459 -1.15885,0 -2.34375,0.61198 -3.54167,1.809896 v -1.575521 h -2.36979 v 11.979167 h 2.36979 v -8.697917 c 0.52084,-0.572916 0.98959,-0.963541 1.40625,-1.197916 0.41667,-0.221354 0.8724,-0.338542 1.36719,-0.338542 0.88542,0 1.4974,0.273438 1.86198,0.794271 0.35156,0.520833 0.53385,1.445312 0.53385,2.773437 v 6.666667 h 2.38282 z"
       id="path49" />
    <path
       d="m 249.58278,64.568443 h 2.42187 v -6.40625 c 0.92448,0.338541 1.77084,0.507812 2.53907,0.507812 1.71875,0 3.13802,-0.572916 4.25781,-1.731771 1.11979,-1.145833 1.67969,-2.630208 1.67969,-4.427083 0,-1.901041 -0.59896,-3.372396 -1.78386,-4.440104 -1.18489,-1.054687 -2.83854,-1.588542 -4.96094,-1.588542 h -4.15364 z m 4.10156,-15.872396 c 1.10677,0 1.95313,0.143229 2.52604,0.416667 0.57292,0.273437 1.02865,0.703125 1.36719,1.302083 0.33854,0.598958 0.50781,1.289062 0.50781,2.070312 0,1.223959 -0.36458,2.213542 -1.06771,2.981771 -0.70312,0.78125 -1.61458,1.158854 -2.72135,1.158854 -0.80729,0 -1.5625,-0.182291 -2.29167,-0.559895 v -7.369792 z"
       id="path51" />
    <path
       d="m 262.48643,57.602297 c 0.83333,0.416667 1.53646,0.690104 2.09635,0.846354 0.54688,0.15625 1.1849,0.221354 1.90104,0.221354 1.19792,0 2.1875,-0.3125 2.95573,-0.9375 0.76823,-0.625 1.15886,-1.432291 1.15886,-2.421875 0,-1.367187 -1.00261,-2.617187 -2.9948,-3.75 l -0.84635,-0.48177 c -0.65104,-0.351563 -1.09375,-0.651042 -1.35417,-0.911459 -0.26041,-0.247396 -0.3776,-0.507812 -0.3776,-0.794271 0,-0.3125 0.13021,-0.572916 0.41667,-0.768229 0.28645,-0.195312 0.65104,-0.299479 1.11979,-0.299479 0.88541,0 2.04427,0.429688 3.45052,1.276042 v -2.34375 c -1.23698,-0.651042 -2.4349,-0.989584 -3.60677,-0.989584 -1.13281,0 -2.05729,0.29948 -2.77344,0.872396 -0.71615,0.585938 -1.06771,1.341146 -1.06771,2.252604 0,0.716146 0.23438,1.380209 0.70313,1.979167 0.46875,0.598958 1.47135,1.328125 3.00781,2.174479 0.75521,0.442708 1.25,0.768229 1.48437,1.002604 0.23438,0.234375 0.35157,0.520834 0.35157,0.859375 0,0.338542 -0.18229,0.638021 -0.53386,0.872396 -0.36458,0.247396 -0.78125,0.364583 -1.27604,0.364583 -0.48177,0 -1.06771,-0.143229 -1.77083,-0.429687 -0.70313,-0.286458 -1.38021,-0.677083 -2.04427,-1.145833 z"
       id="path53" />
    <path
       d="m 289.99944,40.011151 c -2.8125,0 -5.14323,0.898438 -6.97916,2.669271 -1.84896,1.783854 -2.76042,4.036458 -2.76042,6.744792 0,2.65625 0.91146,4.85677 2.73437,6.614583 1.82292,1.757812 4.11459,2.630208 6.86198,2.630208 2.86459,0 5.2474,-0.872396 7.13542,-2.630208 1.88802,-1.757813 2.83854,-3.984375 2.83854,-6.666667 0,-2.682291 -0.9375,-4.908854 -2.8125,-6.692708 -1.875,-1.770833 -4.20573,-2.669271 -7.01823,-2.669271 z m 0.10417,2.473959 c 1.97917,0 3.64583,0.664062 5,1.979166 1.35417,1.315104 2.04427,2.929688 2.04427,4.856771 0,1.979167 -0.6901,3.632812 -2.04427,4.960937 -1.35417,1.328125 -3.04688,1.992188 -5.07813,1.992188 -2.03125,0 -3.71093,-0.651042 -5.05208,-1.953125 -1.35417,-1.302083 -2.01823,-2.929688 -2.01823,-4.895833 0,-2.018229 0.66406,-3.684896 2.00521,-4.986979 1.34115,-1.302084 3.0599,-1.953125 5.14323,-1.953125 z"
       id="path55" />
    <path
       d="m 310.02549,46.482505 -3.11198,7.369792 -3.22916,-7.369792 h -2.59115 l 5.41667,12.1875 h 0.79427 l 5.28646,-12.1875 z"
       id="path57" />
    <path
       d="m 324.58278,52.680422 v -0.299479 c 0,-1.861979 -0.48177,-3.346354 -1.41927,-4.466146 -0.95052,-1.106771 -2.21354,-1.666667 -3.80208,-1.666667 -1.65365,0 -2.99479,0.572917 -4.02344,1.71875 -1.04166,1.145834 -1.54948,2.617188 -1.54948,4.440104 0,1.223959 0.23438,2.291667 0.72917,3.216146 0.49479,0.924479 1.14583,1.653646 1.96615,2.200521 0.80729,0.546875 1.875,0.820312 3.20312,0.820312 0.96354,0 1.79688,-0.104166 2.51302,-0.3125 0.71615,-0.208333 1.44531,-0.546874 2.17448,-1.041666 v -2.317708 c -1.32812,0.976562 -2.76042,1.458333 -4.32292,1.458333 -1.11979,0 -2.04427,-0.338542 -2.74739,-1.015625 -0.70313,-0.677083 -1.09375,-1.588542 -1.14584,-2.734375 z m -8.37239,-1.419271 c 0.15625,-0.9375 0.50781,-1.666666 1.05469,-2.1875 0.54687,-0.507812 1.23697,-0.768229 2.09635,-0.768229 0.84635,0 1.52344,0.260417 2.03125,0.768229 0.49479,0.520834 0.78125,1.25 0.84635,2.1875 z"
       id="path59" />
    <path
       d="m 329.68695,46.482505 h -2.38281 v 11.979167 h 2.38281 v -6.263021 c 0,-0.989583 0.27344,-1.861979 0.83333,-2.591146 0.5599,-0.729166 1.22396,-1.09375 1.99219,-1.09375 0.70313,0 1.45833,0.390625 2.29167,1.171875 l 1.25,-2.083333 c -0.97656,-0.898437 -1.91406,-1.354167 -2.79948,-1.354167 -1.14583,0 -2.29167,0.92448 -3.4375,2.773438 l -0.13021,0.208333 z"
       id="path61" />
    <path
       d="m 159.98643,73.578862 v 2.317709 h 6.23698 v 15.898437 h 2.61719 V 75.896571 h 6.34114 v -2.317709 z"
       id="path63" />
    <path
       d="m 177.26507,73.604904 v 18.190104 h 2.3698 v -8.580729 c 0.54687,-0.625 1.05468,-1.067709 1.52343,-1.341146 0.45573,-0.260417 0.95052,-0.403646 1.47136,-0.403646 0.70312,0 1.26302,0.273438 1.69271,0.807292 0.42968,0.533854 0.65104,1.236979 0.65104,2.109375 v 7.408854 h 2.36979 v -6.822917 c 0,-1.380208 -0.15625,-2.434896 -0.46875,-3.138021 -0.3125,-0.703125 -0.78125,-1.25 -1.40625,-1.653645 -0.63802,-0.390625 -1.35417,-0.598959 -2.14844,-0.598959 -1.47135,0 -2.69531,0.611979 -3.68489,1.809896 v -7.786458 z"
       id="path65" />
    <path
       d="m 200.85882,86.013758 v -0.299479 c 0,-1.861979 -0.48177,-3.346354 -1.41927,-4.466146 -0.95052,-1.106771 -2.21354,-1.666667 -3.80208,-1.666667 -1.65365,0 -2.99479,0.572917 -4.02344,1.71875 -1.04167,1.145834 -1.54948,2.617188 -1.54948,4.440104 0,1.223959 0.23438,2.291667 0.72917,3.216146 0.49479,0.924479 1.14583,1.653646 1.96614,2.200521 0.8073,0.546875 1.875,0.820312 3.20313,0.820312 0.96354,0 1.79687,-0.104166 2.51302,-0.3125 0.71615,-0.208333 1.44531,-0.546875 2.17448,-1.041666 v -2.317709 c -1.32813,0.976563 -2.76042,1.458334 -4.32292,1.458334 -1.11979,0 -2.04427,-0.338542 -2.74739,-1.015625 -0.70313,-0.677084 -1.09375,-1.588542 -1.14584,-2.734375 z m -8.37239,-1.419271 c 0.15625,-0.9375 0.50781,-1.666667 1.05468,-2.1875 0.54688,-0.507812 1.23698,-0.768229 2.09636,-0.768229 0.84635,0 1.52344,0.260417 2.03125,0.768229 0.49479,0.520833 0.78125,1.25 0.84635,2.1875 z"
       id="path67" />
    <path
       d="m 211.1583,73.604904 v 18.190104 h 10.79427 v -2.369792 h -8.1901 V 73.604904 Z"
       id="path69" />
    <path
       d="m 231.43174,84.594487 c 0,-1.002604 -0.0391,-1.679687 -0.0911,-2.044271 -0.0521,-0.364583 -0.18229,-0.716146 -0.39062,-1.080729 -0.20834,-0.364583 -0.44271,-0.651042 -0.70313,-0.872396 -0.78125,-0.677083 -1.82291,-1.015625 -3.11198,-1.015625 -1.73177,0 -3.05989,0.546875 -3.97135,1.627604 v 2.591146 c 1.22396,-1.328125 2.47396,-2.005208 3.77604,-2.005208 1.43229,0 2.16146,0.729167 2.16146,2.161458 v 0.638021 l -3.03385,1.041667 c -1.00261,0.351562 -1.77084,0.820312 -2.31771,1.41927 -0.54688,0.598959 -0.80729,1.263021 -0.80729,2.01823 0,0.833333 0.27343,1.536458 0.83333,2.083333 0.54687,0.546875 1.25,0.820312 2.08333,0.820312 1.13281,0 2.20052,-0.390625 3.21615,-1.171875 0.18229,0.807292 0.78125,1.197917 1.79687,1.197917 0.35156,0 0.69011,-0.05208 1.01563,-0.182292 0.32552,-0.130208 0.75521,-0.364583 1.30208,-0.716145 v -1.445313 c -0.61198,0.429688 -1.05469,0.638021 -1.34115,0.638021 -0.28645,0 -0.41666,-0.195313 -0.41666,-0.611979 z m -2.33073,4.830729 c -0.65104,0.625 -1.34115,0.924479 -2.09635,0.924479 -0.50782,0 -0.92448,-0.15625 -1.23698,-0.46875 -0.3125,-0.3125 -0.46875,-0.716146 -0.46875,-1.210937 0,-0.481771 0.15625,-0.885417 0.49479,-1.210938 0.33854,-0.325521 0.91146,-0.651041 1.71875,-0.976562 l 1.58854,-0.611979 z"
       id="path71" />
    <path
       d="m 234.16611,79.815841 v 2.213542 h 6.02865 l -6.28906,9.765625 h 10.49479 v -2.213542 h -6.34115 l 6.34115,-9.765625 z"
       id="path73" />
    <path
       d="m 253.73643,79.815841 -3.08594,6.757813 -3.22916,-6.757813 h -2.69532 l 4.63542,9.414063 -4.07552,8.671874 h 2.64323 l 8.47656,-18.085937 z"
       id="path75" />
    <path
       d="m 265.8458,91.768966 h 5.75521 c 1.61458,0 2.70833,-0.03906 3.28125,-0.130208 0.57292,-0.09115 1.19792,-0.273438 1.88802,-0.546875 1.17188,-0.442709 2.20052,-1.09375 3.08594,-1.966146 0.85937,-0.833333 1.53646,-1.809896 2.00521,-2.929687 0.46875,-1.106771 0.70312,-2.265625 0.70312,-3.489584 0,-1.692708 -0.42969,-3.268229 -1.27604,-4.713541 -0.85937,-1.432292 -2.00521,-2.526042 -3.4375,-3.268229 -1.44531,-0.742188 -3.39844,-1.119792 -5.8724,-1.119792 h -6.13281 z m 5.85938,-15.846354 c 1.25,0 2.14843,0.05208 2.72135,0.143229 0.5599,0.104167 1.15886,0.29948 1.78386,0.585938 0.625,0.299479 1.18489,0.677083 1.67968,1.132812 1.31511,1.23698 1.97917,2.825521 1.97917,4.778646 0,1.992188 -0.65104,3.632813 -1.92708,4.934896 -0.40365,0.403646 -0.84636,0.742187 -1.32813,1.015625 -0.48177,0.273437 -1.08073,0.494791 -1.79687,0.677083 -0.72917,0.182292 -1.73177,0.260417 -3.03386,0.260417 h -3.33333 V 75.922612 Z"
       id="path77" />
    <path
       d="m 291.22341,79.7898 c -1.84896,0 -3.3724,0.585937 -4.59636,1.757812 -1.22396,1.171875 -1.82291,2.630208 -1.82291,4.375 0,1.744792 0.59895,3.190104 1.80989,4.348958 1.19792,1.158854 2.70833,1.731771 4.50521,1.731771 1.84896,0 3.39844,-0.559896 4.6224,-1.705729 1.22395,-1.145833 1.83593,-2.578125 1.83593,-4.309896 0,-1.770833 -0.61198,-3.255208 -1.80989,-4.427083 -1.21094,-1.171875 -2.72136,-1.770833 -4.54427,-1.770833 z m -0.13021,2.135416 c 1.17187,0 2.13541,0.377604 2.91666,1.119792 0.76823,0.755208 1.15886,1.692708 1.15886,2.825521 0,1.145833 -0.37761,2.096354 -1.11979,2.82552 -0.74219,0.729167 -1.69271,1.09375 -2.85157,1.09375 -1.17187,0 -2.13541,-0.351562 -2.8776,-1.080729 -0.75521,-0.729166 -1.11979,-1.666666 -1.11979,-2.8125 0,-1.145833 0.36458,-2.096354 1.09375,-2.851562 0.72917,-0.742188 1.65364,-1.119792 2.79948,-1.119792 z"
       id="path79" />
    <path
       d="m 299.5958,83.956466 c 0,1.744792 0.8724,3.007813 2.64323,3.789063 -0.58594,0.15625 -1.05469,0.377604 -1.39323,0.690104 -0.33854,0.3125 -0.50781,0.664062 -0.50781,1.041666 0,0.507813 0.39062,1.015625 1.19791,1.523438 -2.0052,0.46875 -3.00781,1.523437 -3.00781,3.138021 0,1.145833 0.50781,2.070312 1.52344,2.747395 1.01562,0.677084 2.38281,1.015625 4.10156,1.015625 1.69271,0 3.03386,-0.338541 4.04948,-1.015625 1.01563,-0.677083 1.52344,-1.57552 1.52344,-2.721354 0,-0.859375 -0.28646,-1.588541 -0.85938,-2.161458 -0.33854,-0.338542 -0.72916,-0.598958 -1.14583,-0.78125 -0.41667,-0.182292 -1.36719,-0.429687 -2.82552,-0.755208 -0.88542,-0.182292 -1.48438,-0.364584 -1.82292,-0.546875 -0.33854,-0.182292 -0.49479,-0.403646 -0.49479,-0.690104 0,-0.481771 0.44271,-0.794271 1.34115,-0.92448 1.27604,-0.182291 2.1875,-0.442708 2.74739,-0.768229 0.5599,-0.3125 1.01563,-0.78125 1.38021,-1.380208 0.35156,-0.598958 0.53385,-1.223958 0.53385,-1.848958 0,-0.494792 -0.0911,-0.950521 -0.27343,-1.341146 -0.18229,-0.390625 -0.50782,-0.820313 -0.97657,-1.302083 h 2.42188 v -1.848959 h -4.9349 c -1.61458,0 -2.89062,0.377604 -3.82812,1.119792 -0.9375,0.742187 -1.39323,1.744792 -1.39323,3.020833 z m 4.45312,-2.083333 c 0.67709,0 1.23698,0.208333 1.69271,0.625 0.44271,0.416667 0.67709,0.9375 0.67709,1.5625 0,0.625 -0.23438,1.132812 -0.67709,1.549479 -0.44271,0.416667 -1.0026,0.611979 -1.66666,0.611979 -0.67709,0 -1.23698,-0.195312 -1.67969,-0.598958 -0.44271,-0.403646 -0.66406,-0.911458 -0.66406,-1.536458 0,-0.598959 0.22135,-1.119792 0.67708,-1.5625 0.44271,-0.429688 0.98958,-0.651042 1.64062,-0.651042 z m -0.55989,10.481771 c 1.14583,0 2.09635,0.182291 2.82552,0.533854 0.72917,0.351562 1.09375,0.807291 1.09375,1.354166 0,0.572917 -0.29948,1.002604 -0.8724,1.315104 -0.57291,0.3125 -1.39323,0.45573 -2.43489,0.45573 -2.22656,0 -3.33334,-0.61198 -3.33334,-1.848959 0,-0.520833 0.2474,-0.963541 0.75521,-1.302083 0.50782,-0.338542 1.15886,-0.507812 1.96615,-0.507812 z"
       id="path81" />
  </g>
</svg>
