<?xml version="1.0" encoding="UTF-8" standalone="no"?>
<svg
   xmlns:dc="http://purl.org/dc/elements/1.1/"
   xmlns:cc="http://creativecommons.org/ns#"
   xmlns:rdf="http://www.w3.org/1999/02/22-rdf-syntax-ns#"
   xmlns:svg="http://www.w3.org/2000/svg"
   xmlns="http://www.w3.org/2000/svg"
   viewBox="160.091 5.36834 201.866 92.24"
   version="1.1"
   id="svg2">
  <metadata
     id="metadata11">
    <rdf:RDF>
      <cc:Work
         rdf:about="">
        <dc:format>image/svg+xml</dc:format>
        <dc:type
           rdf:resource="http://purl.org/dc/dcmitype/StillImage" />
      </cc:Work>
    </rdf:RDF>
  </metadata>
  <defs
     id="defs9" />
  <g
     aria-label="The Quick BrownFox Jumps OverThe Lazy Dog"
     id="text4521"
     style="font-style:normal;font-variant:normal;font-weight:normal;font-stretch:normal;font-size:26.6667px;line-height:125%;font-family:Helvetica, sans-serif;font-variant-ligatures:normal;font-variant-caps:normal;font-variant-numeric:normal;font-feature-settings:normal;text-align:left;letter-spacing:0px;word-spacing:0px;writing-mode:lr-tb;text-anchor:start;fill:#000000;fill-opacity:1;stroke:none;stroke-width:1px;stroke-linecap:butt;stroke-linejoin:miter;stroke-opacity:1">
    <path
       d="m 168.9707,7.875003 h 6.37333 V 5.6883364 H 160.0907 V 7.875003 h 6.4 v 17.253333 h 2.48 z"
       id="path13" />
    <path
       d="M 177.55729,5.6883364 V 25.128336 h 2.21333 v -7.706667 c 0,-2.853333 1.49334,-4.719999 3.78667,-4.719999 0.74667,0 1.44,0.213333 1.97333,0.613333 0.64,0.48 0.90667,1.146667 0.90667,2.133333 v 9.68 h 2.21333 v -10.56 c 0,-2.346666 -1.68,-3.813333 -4.4,-3.813333 -1.97333,0 -3.17333,0.613333 -4.48,2.32 V 5.6883364 Z"
       id="path15" />
    <path
       d="m 204.19728,18.888336 c 0,-2.133333 -0.16,-3.413333 -0.56,-4.453333 -0.90666,-2.293333 -3.04,-3.68 -5.65333,-3.68 -3.89333,0 -6.4,2.96 -6.4,7.573333 0,4.613333 2.4,7.413333 6.34667,7.413333 3.2,0 5.41333,-1.813333 5.97333,-4.853333 h -2.24 c -0.61333,1.84 -1.86667,2.8 -3.65333,2.8 -1.41334,0 -2.61334,-0.64 -3.36,-1.813333 -0.53334,-0.8 -0.72,-1.6 -0.74667,-2.986667 z m -10.24,-1.813333 c 0.18667,-2.586667 1.76,-4.266667 4,-4.266667 2.26667,0 3.84,1.76 3.84,4.266667 z"
       id="path17" />
    <path
       d="m 232.30394,25.155003 -2.50667,-2.053334 c 1.84,-2.026666 2.74667,-4.506666 2.74667,-7.599999 0,-6.0533337 -3.78667,-10.1333336 -9.38667,-10.1333336 -5.62667,0 -9.38667,4.0799999 -9.38667,10.1866666 0,6.08 3.76,10.186666 9.38667,10.186666 1.94667,0 3.52,-0.426666 5.09333,-1.36 l 2.8,2.32 z m -6.72,-5.493334 -1.22667,1.493334 1.97333,1.653333 c -1.14666,0.56 -2.02666,0.746667 -3.2,0.746667 -4.13333,0 -6.88,-3.2 -6.88,-8 0,-4.8 2.74667,-8 6.90667,-8 4.13333,0 6.90667,3.2 6.90667,7.973333 0,2.533333 -0.66667,4.453333 -2.10667,6.08 z"
       id="path19" />
    <path
       d="M 246.57059,25.128336 V 11.155003 h -2.21334 v 7.92 c 0,2.853333 -1.49333,4.72 -3.81333,4.72 -1.76,0 -2.88,-1.066667 -2.88,-2.746667 v -9.893333 h -2.21333 v 10.773333 c 0,2.32 1.73333,3.813333 4.45333,3.813333 2.05333,0 3.36,-0.72 4.66667,-2.56 v 1.946667 z"
       id="path21" />
    <path
       d="m 252.54391,11.155003 h -2.21333 v 13.973333 h 2.21333 z m 0,-5.4666666 h -2.24 v 2.7999999 h 2.24 z"
       id="path23" />
    <path
       d="m 267.02387,15.848336 c -0.10667,-1.36 -0.4,-2.24 -0.93334,-3.013333 -0.96,-1.306667 -2.64,-2.08 -4.58666,-2.08 -3.78667,0 -6.21334,2.986667 -6.21334,7.626666 0,4.506667 2.4,7.36 6.18667,7.36 3.33333,0 5.44,-2 5.70667,-5.413333 h -2.24 c -0.37334,2.24 -1.52,3.36 -3.41334,3.36 -2.45333,0 -3.92,-2 -3.92,-5.306667 0,-3.493333 1.44,-5.573333 3.86667,-5.573333 1.86667,0 3.04,1.093334 3.30667,3.04 z"
       id="path25" />
    <path
       d="m 271.71711,5.6883364 h -2.21334 V 25.128336 h 2.21334 v -5.44 l 2.16,-2.133333 4.72,7.573333 h 2.74666 l -5.70666,-9.146666 4.85333,-4.826667 h -2.85333 l -5.92,5.92 z"
       id="path27" />
    <path
       d="m 290.81039,25.128336 h 8.77333 c 1.84,0 3.2,-0.506667 4.24,-1.626667 0.96,-1.013333 1.49333,-2.4 1.49333,-3.92 0,-2.346666 -1.06666,-3.759999 -3.54666,-4.719999 1.78666,-0.826667 2.69333,-2.24 2.69333,-4.24 0,-1.4400003 -0.53333,-2.666667 -1.54667,-3.5733336 -1.04,-0.9333333 -2.34666,-1.36 -4.21333,-1.36 h -7.89333 z m 2.48,-11.066666 V 7.875003 h 4.8 c 1.38666,0 2.16,0.1866667 2.82666,0.6933333 0.69334,0.5333334 1.06667,1.3333333 1.06667,2.3999997 0,1.066667 -0.37333,1.866667 -1.06667,2.4 -0.66666,0.506667 -1.44,0.693334 -2.82666,0.693334 z m 0,8.879999 v -6.693333 h 6.05333 c 2.18667,0 3.49333,1.253333 3.49333,3.36 0,2.08 -1.30666,3.333333 -3.49333,3.333333 z"
       id="path29" />
    <path
       d="m 308.33039,11.155003 v 13.973333 h 2.24 v -7.253333 c 0.0267,-3.36 1.41333,-4.853333 4.48,-4.773333 v -2.266667 c -0.37334,-0.05333 -0.58667,-0.08 -0.85334,-0.08 -1.44,0 -2.53333,0.853333 -3.81333,2.933333 v -2.533333 z"
       id="path31" />
    <path
       d="m 322.46366,10.755003 c -3.94667,0 -6.29333,2.8 -6.29333,7.493333 0,4.72 2.34666,7.493333 6.32,7.493333 3.94666,0 6.32,-2.8 6.32,-7.386666 0,-4.853333 -2.29334,-7.6 -6.34667,-7.6 z m 0.0267,2.053333 c 2.50666,0 4,2.053334 4,5.52 0,3.306667 -1.54667,5.36 -4,5.36 -2.48,0 -4,-2.053333 -4,-5.44 0,-3.386666 1.52,-5.44 4,-5.44 z"
       id="path33" />
    <path
       d="m 344.49028,25.128336 4.10667,-13.973333 h -2.50667 l -2.77333,10.88 -2.74667,-10.88 h -2.72 l -2.66666,10.88 -2.85334,-10.88 h -2.45333 l 4.05333,13.973333 h 2.50667 l 2.69333,-10.96 2.82667,10.96 z"
       id="path35" />
    <path
       d="m 350.83691,11.155003 v 13.973333 h 2.24 v -7.706667 c 0,-2.853333 1.49334,-4.719999 3.78667,-4.719999 1.76,0 2.88,1.066666 2.88,2.746666 v 9.68 h 2.21333 v -10.56 c 0,-2.32 -1.73333,-3.813333 -4.42666,-3.813333 -2.08,0 -3.41334,0.8 -4.64,2.746667 v -2.346667 z"
       id="path37" />
    <path
       d="m 164.4107,49.608339 h 9.28 v -2.186667 h -9.28 v -6.213333 h 10.56 v -2.186667 h -13.04 v 19.44 h 2.48 z"
       id="path39" />
    <path
       d="m 182.51727,44.088339 c -3.94667,0 -6.29333,2.8 -6.29333,7.493333 0,4.72 2.34666,7.493333 6.32,7.493333 3.94666,0 6.32,-2.8 6.32,-7.386666 0,-4.853334 -2.29334,-7.6 -6.34667,-7.6 z m 0.0267,2.053333 c 2.50666,0 4,2.053333 4,5.52 0,3.306667 -1.54667,5.36 -4,5.36 -2.48,0 -4,-2.053333 -4,-5.44 0,-3.386667 1.52,-5.44 4,-5.44 z"
       id="path41" />
    <path
       d="m 197.15725,51.235005 4.69333,-6.746666 h -2.50666 l -3.36,5.066666 -3.36,-5.066666 h -2.53334 l 4.66667,6.853333 -4.93333,7.12 h 2.53333 l 3.54667,-5.36 3.49333,5.36 h 2.58667 z"
       id="path43" />
    <path
       d="m 218.99719,39.021672 v 13.68 c 0,1.546667 -0.16,2.426667 -0.61333,3.093333 -0.48,0.746667 -1.38667,1.2 -2.37333,1.2 -1.86667,0 -2.90667,-1.253333 -2.90667,-3.52 v -1.253333 h -2.53333 v 1.706667 c 0,3.146666 2.08,5.146666 5.41333,5.146666 3.38667,0 5.49333,-2.106666 5.49333,-5.466666 V 39.021672 Z"
       id="path45" />
    <path
       d="M 236.30381,58.461672 V 44.488339 h -2.21333 v 7.92 c 0,2.853333 -1.49334,4.72 -3.81334,4.72 -1.76,0 -2.88,-1.066667 -2.88,-2.746667 v -9.893333 h -2.21333 v 10.773333 c 0,2.32 1.73333,3.813333 4.45333,3.813333 2.05334,0 3.36,-0.72 4.66667,-2.56 v 1.946667 z"
       id="path47" />
    <path
       d="m 240.1438,44.488339 v 13.973333 h 2.24 v -8.773333 c 0,-2.026667 1.46667,-3.653334 3.28,-3.653334 1.65334,0 2.58667,1.013334 2.58667,2.8 v 9.626667 h 2.24 v -8.773333 c 0,-2.026667 1.46667,-3.653334 3.28,-3.653334 1.62667,0 2.58667,1.04 2.58667,2.8 v 9.626667 h 2.24 v -10.48 c 0,-2.506667 -1.44,-3.893333 -4.05334,-3.893333 -1.86666,0 -2.98666,0.56 -4.29333,2.133333 -0.82667,-1.493333 -1.94667,-2.133333 -3.76,-2.133333 -1.86667,0 -3.12,0.693333 -4.29333,2.373333 v -1.973333 z"
       id="path49" />
    <path
       d="m 261.95707,64.275005 h 2.24 v -7.28 c 1.17334,1.44 2.48,2.08 4.29334,2.08 3.62666,0 5.97333,-2.906666 5.97333,-7.36 0,-4.693333 -2.29333,-7.626666 -6,-7.626666 -1.89333,0 -3.41333,0.853333 -4.45333,2.506666 v -2.106666 h -2.05334 z m 6.13334,-18.106666 c 2.45333,0 4.05333,2.16 4.05333,5.493333 0,3.173333 -1.62667,5.333333 -4.05333,5.333333 -2.37334,0 -3.89334,-2.133333 -3.89334,-5.413333 0,-3.28 1.52,-5.413333 3.89334,-5.413333 z"
       id="path51" />
    <path
       d="m 287.02373,48.381672 c -0.0267,-2.746667 -1.84,-4.293333 -5.06666,-4.293333 -3.25334,0 -5.36,1.68 -5.36,4.266666 0,2.186667 1.12,3.226667 4.42666,4.026667 l 2.08,0.506667 c 1.54667,0.373333 2.16,0.933333 2.16,1.92 0,1.333333 -1.30666,2.213333 -3.25333,2.213333 -1.2,0 -2.21333,-0.346667 -2.77333,-0.933333 -0.34667,-0.4 -0.50667,-0.8 -0.64,-1.786667 h -2.34667 c 0.10667,3.226667 1.92,4.773333 5.57333,4.773333 3.52,0 5.76,-1.733333 5.76,-4.426666 0,-2.08 -1.17333,-3.226667 -3.94666,-3.893334 l -2.13334,-0.506666 c -1.81333,-0.426667 -2.58666,-1.013334 -2.58666,-2 0,-1.306667 1.14666,-2.106667 2.96,-2.106667 1.78666,0 2.74666,0.773333 2.8,2.24 z"
       id="path53" />
    <path
       d="m 306.46368,38.701672 c -5.57333,0 -9.36,4.106667 -9.36,10.186667 0,6.106666 3.76,10.186666 9.38667,10.186666 2.37333,0 4.45333,-0.72 6.02666,-2.053333 2.10667,-1.786667 3.36,-4.8 3.36,-7.973333 0,-6.266667 -3.70666,-10.346667 -9.41333,-10.346667 z m 0,2.186667 c 4.21333,0 6.93333,3.173333 6.93333,8.106666 0,4.693334 -2.8,7.893334 -6.90666,7.893334 -4.16,0 -6.90667,-3.2 -6.90667,-8 0,-4.8 2.74667,-8 6.88,-8 z"
       id="path55" />
    <path
       d="m 324.51696,58.461672 5.36,-13.973333 h -2.50667 l -3.94666,11.333333 -3.73334,-11.333333 h -2.50666 l 4.90666,13.973333 z"
       id="path57" />
    <path
       d="m 343.3969,52.221672 c 0,-2.133333 -0.16,-3.413333 -0.56,-4.453333 -0.90666,-2.293334 -3.04,-3.68 -5.65333,-3.68 -3.89333,0 -6.4,2.96 -6.4,7.573333 0,4.613333 2.4,7.413333 6.34667,7.413333 3.2,0 5.41333,-1.813333 5.97333,-4.853333 h -2.24 c -0.61333,1.84 -1.86667,2.8 -3.65333,2.8 -1.41334,0 -2.61334,-0.64 -3.36,-1.813333 -0.53334,-0.8 -0.72,-1.6 -0.74667,-2.986667 z m -10.24,-1.813333 c 0.18667,-2.586667 1.76,-4.266667 4,-4.266667 2.26667,0 3.84,1.76 3.84,4.266667 z"
       id="path59" />
    <path
       d="m 346.38356,44.488339 v 13.973333 h 2.24 v -7.253333 c 0.0267,-3.36 1.41334,-4.853334 4.48,-4.773334 v -2.266666 c -0.37333,-0.05333 -0.58666,-0.08 -0.85333,-0.08 -1.44,0 -2.53333,0.853333 -3.81333,2.933333 v -2.533333 z"
       id="path61" />
    <path
       d="m 168.9707,74.541675 h 6.37333 V 72.355008 H 160.0907 v 2.186667 h 6.4 v 17.253333 h 2.48 z"
       id="path63" />
    <path
       d="m 177.55729,72.355008 v 19.44 h 2.21333 v -7.706667 c 0,-2.853333 1.49334,-4.72 3.78667,-4.72 0.74667,0 1.44,0.213334 1.97333,0.613334 0.64,0.48 0.90667,1.146666 0.90667,2.133333 v 9.68 h 2.21333 v -10.56 c 0,-2.346667 -1.68,-3.813333 -4.4,-3.813333 -1.97333,0 -3.17333,0.613333 -4.48,2.32 v -7.386667 z"
       id="path65" />
    <path
       d="m 204.19728,85.555008 c 0,-2.133333 -0.16,-3.413333 -0.56,-4.453333 -0.90666,-2.293334 -3.04,-3.68 -5.65333,-3.68 -3.89333,0 -6.4,2.96 -6.4,7.573333 0,4.613333 2.4,7.413333 6.34667,7.413333 3.2,0 5.41333,-1.813333 5.97333,-4.853333 h -2.24 c -0.61333,1.84 -1.86667,2.8 -3.65333,2.8 -1.41334,0 -2.61334,-0.64 -3.36,-1.813334 -0.53334,-0.8 -0.72,-1.6 -0.74667,-2.986666 z m -10.24,-1.813333 c 0.18667,-2.586667 1.76,-4.266667 4,-4.266667 2.26667,0 3.84,1.76 3.84,4.266667 z"
       id="path67" />
    <path
       d="m 217.3706,72.355008 h -2.48 v 19.44 h 12.08 v -2.186667 h -9.6 z"
       id="path69" />
    <path
       d="m 241.93055,90.488341 c -0.24,0.05333 -0.34666,0.05333 -0.48,0.05333 -0.77333,0 -1.2,-0.4 -1.2,-1.093333 v -8.213333 c 0,-2.48 -1.81333,-3.813333 -5.25333,-3.813333 -2.05333,0 -3.68,0.586666 -4.64,1.626666 -0.64,0.72 -0.90667,1.52 -0.96,2.906667 h 2.24 c 0.18667,-1.706667 1.2,-2.48 3.28,-2.48 2.02667,0 3.12,0.746667 3.12,2.08 v 0.586667 c -0.0267,0.96 -0.50667,1.306666 -2.32,1.546666 -3.14667,0.4 -3.62667,0.506667 -4.48,0.853334 -1.62667,0.693333 -2.45333,1.919999 -2.45333,3.733333 0,2.533333 1.76,4.133333 4.58666,4.133333 1.76,0 3.17334,-0.613333 4.74667,-2.053333 0.16,1.44 0.85333,2.053333 2.29333,2.053333 0.48,0 0.77334,-0.05333 1.52,-0.24 z m -3.89333,-3.093333 c 0,0.746666 -0.21333,1.2 -0.88,1.813333 -0.90667,0.826667 -2,1.253333 -3.30667,1.253333 -1.73333,0 -2.74666,-0.826666 -2.74666,-2.24 0,-1.466666 0.96,-2.213333 3.36,-2.559999 2.37333,-0.32 2.82666,-0.426667 3.57333,-0.773334 z"
       id="path71" />
    <path
       d="m 254.67721,77.821675 h -10.42667 v 1.946666 h 7.78667 l -8.34667,10.026667 v 2 h 11.36 v -1.946667 h -8.66666 l 8.29333,-10.053333 z"
       id="path73" />
    <path
       d="m 266.54383,77.821675 -3.86667,10.879999 -3.57333,-10.879999 h -2.37334 l 4.72,14.026666 -0.85333,2.213333 c -0.37333,0.986667 -0.85333,1.36 -1.78667,1.36 -0.37333,0 -0.69333,-0.05333 -1.17333,-0.16 v 2 c 0.45333,0.24 0.90667,0.346667 1.49333,0.346667 0.72,0 1.49334,-0.24 2.08,-0.666667 0.69334,-0.506666 1.09334,-1.093333 1.52,-2.213333 l 6.21334,-16.906666 z"
       id="path75" />
    <path
       d="m 279.3171,91.795008 h 7.49334 c 4.90666,0 7.92,-3.68 7.92,-9.733333 0,-6.026667 -2.98667,-9.706667 -7.92,-9.706667 h -7.49334 z m 2.48,-2.186667 V 74.541675 h 4.58667 c 3.84,0 5.86667,2.586666 5.86667,7.546666 0,4.933333 -2.02667,7.52 -5.86667,7.52 z"
       id="path77" />
    <path
       d="m 303.42368,77.421675 c -3.94666,0 -6.29333,2.8 -6.29333,7.493333 0,4.72 2.34667,7.493333 6.32,7.493333 3.94667,0 6.32,-2.8 6.32,-7.386666 0,-4.853334 -2.29333,-7.6 -6.34667,-7.6 z m 0.0267,2.053333 c 2.50667,0 4,2.053333 4,5.52 0,3.306666 -1.54667,5.36 -4,5.36 -2.48,0 -4,-2.053334 -4,-5.44 0,-3.386667 1.52,-5.44 4,-5.44 z"
       id="path79" />
    <path
       d="m 321.77034,77.821675 v 2.026666 c -1.12,-1.68 -2.34666,-2.426666 -4.10666,-2.426666 -3.38667,0 -5.73334,3.146666 -5.73334,7.626666 0,2.346667 0.56,4.053333 1.76,5.466667 1.04,1.226666 2.37334,1.893333 3.81334,1.893333 1.68,0 2.88,-0.746667 4.05333,-2.506667 v 0.72 c 0,3.733334 -1.04,5.12 -3.81333,5.12 -1.89334,0 -2.88,-0.746666 -3.09334,-2.346666 h -2.26666 c 0.21333,2.586666 2.26666,4.213333 5.30666,4.213333 2.05334,0 3.76,-0.666667 4.66667,-1.786667 1.06667,-1.306666 1.46667,-3.04 1.46667,-6.32 V 77.821675 Z m -3.89333,1.653333 c 2.34667,0 3.68,1.973333 3.68,5.52 0,3.386666 -1.36,5.36 -3.68,5.36 -2.29333,0 -3.62667,-2 -3.62667,-5.44 0,-3.413333 1.33334,-5.44 3.62667,-5.44 z"
       id="path81" />
  </g>
</svg>
