<?xml version="1.0" encoding="UTF-8" standalone="no"?>
<svg
   xmlns:dc="http://purl.org/dc/elements/1.1/"
   xmlns:cc="http://creativecommons.org/ns#"
   xmlns:rdf="http://www.w3.org/1999/02/22-rdf-syntax-ns#"
   xmlns:svg="http://www.w3.org/2000/svg"
   xmlns="http://www.w3.org/2000/svg"
   viewBox="159.687 3.6049 179.713 91.1719"
   version="1.1"
   id="svg2">
  <metadata
     id="metadata11">
    <rdf:RDF>
      <cc:Work
         rdf:about="">
        <dc:format>image/svg+xml</dc:format>
        <dc:type
           rdf:resource="http://purl.org/dc/dcmitype/StillImage" />
      </cc:Work>
    </rdf:RDF>
  </metadata>
  <defs
     id="defs9" />
  <g
     aria-label="The Quick BrownFox Jumps OverThe Lazy Dog"
     id="text4521"
     style="font-style:normal;font-variant:normal;font-weight:normal;font-stretch:normal;font-size:26.6667px;line-height:125%;font-family:Impact, fantasy;font-variant-ligatures:normal;font-variant-caps:normal;font-variant-numeric:normal;font-feature-settings:normal;text-align:left;letter-spacing:0px;word-spacing:0px;writing-mode:lr-tb;text-anchor:start;fill:#000000;fill-opacity:1;stroke:none;stroke-width:1px;stroke-linecap:butt;stroke-linejoin:miter;stroke-opacity:1">
    <path
       d="m 171.66612,4.0476073 v 4.2187499 h -3.25521 V 25.128336 h -5.48177 V 8.2663572 h -3.24219 V 4.0476073 Z"
       id="path13" />
    <path
       d="m 178.02028,4.0476073 v 4.7395832 q 0.67709,-0.625 1.45834,-0.9375 0.79427,-0.3125 1.6927,-0.3125 1.38021,0 2.34375,0.703125 0.97657,0.703125 1.1849,1.6276041 0.22135,0.9114584 0.22135,3.3463544 v 11.914062 h -5.26041 V 12.966878 q 0,-1.510417 -0.15625,-1.940104 -0.14323,-0.429688 -0.66406,-0.429688 -0.48178,0 -0.65105,0.442709 -0.16927,0.442708 -0.16927,1.757812 v 12.330729 h -5.26041 V 4.0476073 Z"
       id="path15" />
    <path
       d="m 198.64528,16.795003 h -6.80989 v 3.736979 q 0,1.171875 0.16927,1.510417 0.16927,0.338541 0.65104,0.338541 0.59896,0 0.79427,-0.442708 0.20833,-0.455729 0.20833,-1.744792 v -2.278646 h 4.98698 v 1.276042 q 0,1.601563 -0.20833,2.460938 -0.19531,0.859375 -0.9375,1.835937 -0.74219,0.976562 -1.88802,1.471354 -1.13281,0.481771 -2.85156,0.481771 -1.66667,0 -2.94271,-0.481771 -1.27604,-0.481771 -1.99219,-1.315104 -0.70312,-0.846354 -0.97656,-1.848958 -0.27344,-1.015625 -0.27344,-2.942709 v -5.039062 q 0,-2.265625 0.61198,-3.567708 0.61198,-1.3151043 2.00521,-2.0052085 1.39323,-0.703125 3.20312,-0.703125 2.21354,0 3.64584,0.8463542 1.44531,0.8333333 2.01822,2.2265623 0.58594,1.380208 0.58594,3.893229 z m -5.27343,-2.8125 v -1.263021 q 0,-1.341146 -0.14323,-1.731771 -0.14323,-0.390625 -0.58594,-0.390625 -0.54688,0 -0.67708,0.338542 -0.13021,0.325521 -0.13021,1.783854 v 1.263021 z"
       id="path17" />
    <path
       d="m 217.75986,25.128336 v 2.552083 h -4.14062 q -1.4974,0 -2.10938,-0.234375 -0.61197,-0.221354 -0.83333,-0.677083 -0.20833,-0.455729 -0.20833,-1.640625 -1.86198,-0.05208 -3.20313,-0.976563 -1.34114,-0.924479 -1.77083,-2.343749 -0.42969,-1.432292 -0.42969,-4.270834 v -6.523437 q 0,-2.1484375 0.2474,-3.2682291 0.26041,-1.1328125 1.05469,-2.1223958 0.79427,-1.0026042 2.04427,-1.5104166 1.25,-0.5078125 2.77343,-0.5078125 1.83594,0 3.26823,0.625 1.44532,0.6249999 2.14844,1.5885416 0.71615,0.9635416 0.92448,2.0052083 0.22135,1.0286458 0.22135,3.0729161 v 6.848959 q 0,2.8125 -0.27343,3.815104 -0.27344,1.002604 -1.05469,1.601562 -0.76823,0.585938 -2.05729,0.898438 0.0391,0.703125 0.28646,0.885416 0.26041,0.182292 1.21093,0.182292 z M 212.26507,9.4642738 q 0,-1.4713541 -0.16927,-1.8749999 -0.15625,-0.4166667 -0.66406,-0.4166667 -0.42969,0 -0.66406,0.3385417 -0.22136,0.3255208 -0.22136,1.9531249 v 9.8437502 q 0,1.835937 0.14323,2.265625 0.15625,0.429687 0.70313,0.429687 0.55989,0 0.71614,-0.494792 0.15625,-0.494791 0.15625,-2.35677 z"
       id="path19" />
    <path
       d="M 231.67914,7.8496905 V 25.128336 h -5.35157 l 0.0911,-1.432292 q -0.54688,0.872396 -1.35417,1.315104 -0.79427,0.429688 -1.83594,0.429688 -1.18489,0 -1.96614,-0.416667 -0.78125,-0.416666 -1.15886,-1.106771 -0.36458,-0.690104 -0.45572,-1.432291 -0.0911,-0.755208 -0.0911,-2.981771 V 7.8496905 h 5.26042 V 19.607503 q 0,2.018229 0.11718,2.395833 0.13021,0.377604 0.67709,0.377604 0.58593,0 0.6901,-0.390625 0.11719,-0.390625 0.11719,-2.513021 V 7.8496905 Z"
       id="path21" />
    <path
       d="m 238.98382,4.0476073 v 2.7473958 h -5.41667 V 4.0476073 Z m 0,3.8020832 V 25.128336 h -5.41667 V 7.8496905 Z"
       id="path23" />
    <path
       d="m 252.49945,14.373128 h -4.96094 V 12.38094 q 0,-1.041666 -0.16927,-1.40625 -0.16927,-0.377604 -0.625,-0.377604 -0.45573,0 -0.61198,0.325521 -0.15625,0.325521 -0.15625,1.458333 v 8.151042 q 0,0.924479 0.23437,1.393229 0.23438,0.455729 0.69011,0.455729 0.53385,0 0.71614,-0.481771 0.19532,-0.48177 0.19532,-1.822916 v -2.057292 h 4.6875 q -0.013,2.070313 -0.15625,3.111979 -0.13021,1.028646 -0.8724,2.122396 -0.72917,1.080729 -1.91406,1.640625 -1.1849,0.546875 -2.92969,0.546875 -2.22656,0 -3.52865,-0.755208 -1.30208,-0.76823 -1.84895,-2.135417 -0.53386,-1.380208 -0.53386,-3.90625 v -4.908854 q 0,-2.200521 0.44271,-3.320312 0.44271,-1.119792 1.88802,-1.9921878 1.44531,-0.8854167 3.51563,-0.8854167 2.05729,0 3.51562,0.8723959 1.45833,0.8723958 1.9401,2.2005206 0.48178,1.328125 0.48178,3.763021 z"
       id="path25" />
    <path
       d="m 265.39008,7.8496905 -2.13542,6.8880205 2.77344,10.390625 h -5.06511 l -1.64062,-7.526042 v 7.526042 h -5.26042 V 4.0476073 h 5.26042 v 8.8541667 l 1.64062,-5.0520835 z"
       id="path27" />
    <path
       d="m 271.66611,4.0476073 h 5.46875 q 2.59115,0 3.91928,0.4036458 1.34114,0.4036458 2.16145,1.640625 0.82032,1.2239583 0.82032,3.9583329 0,1.848959 -0.58594,2.578125 -0.57292,0.729167 -2.27865,1.119792 1.90104,0.429687 2.57813,1.432292 0.67708,0.989583 0.67708,3.046874 v 1.953125 q 0,2.135417 -0.49479,3.164063 -0.48177,1.028646 -1.54948,1.40625 -1.06771,0.377604 -4.375,0.377604 h -6.34115 z m 5.48178,3.6067707 v 4.6875 q 0.35156,-0.01302 0.54687,-0.01302 0.80729,0 1.02865,-0.390625 0.22135,-0.403646 0.22135,-2.2786457 0,-0.9895833 -0.18229,-1.3802083 -0.18229,-0.4036458 -0.48177,-0.5078125 -0.28646,-0.1041666 -1.13281,-0.1171875 z m 0,7.96875 v 5.898437 q 1.15885,-0.03906 1.47135,-0.364583 0.32552,-0.325521 0.32552,-1.601563 v -1.966145 q 0,-1.354167 -0.28646,-1.640625 -0.28646,-0.286459 -1.51041,-0.325521 z"
       id="path29" />
    <path
       d="m 291.49684,7.8496905 -0.20833,2.2656245 q 1.14583,-2.4348953 3.32031,-2.5781245 V 13.61792 q -1.44531,0 -2.12239,0.390625 -0.67709,0.390625 -0.83334,1.09375 -0.15625,0.690104 -0.15625,3.203124 v 6.822917 h -5.26041 V 7.8496905 Z"
       id="path31" />
    <path
       d="m 307.68174,13.917399 v 4.23177 q 0,2.33073 -0.23437,3.42448 -0.23438,1.080729 -1.00261,2.031249 -0.76823,0.9375 -1.97916,1.39323 -1.19792,0.442708 -2.76042,0.442708 -1.74479,0 -2.95573,-0.377604 -1.21094,-0.390625 -1.88802,-1.158854 -0.66406,-0.78125 -0.95052,-1.875 -0.28646,-1.106771 -0.28646,-3.307292 v -4.427083 q 0,-2.408854 0.52083,-3.763021 0.52084,-1.3541665 1.875,-2.174479 1.35417,-0.8203125 3.46355,-0.8203125 1.77083,0 3.03385,0.5338542 1.27604,0.5208333 1.96615,1.3671875 0.6901,0.8463538 0.9375,1.7447918 0.26041,0.898437 0.26041,2.734375 z m -5.26041,-1.302084 q 0,-1.328125 -0.14323,-1.666666 -0.14323,-0.351563 -0.61198,-0.351563 -0.46875,0 -0.625,0.351563 -0.15625,0.338541 -0.15625,1.666666 v 7.799479 q 0,1.223959 0.15625,1.601563 0.15625,0.364583 0.61198,0.364583 0.46875,0 0.61198,-0.338541 0.15625,-0.338542 0.15625,-1.458334 z"
       id="path33" />
    <path
       d="m 326.4057,7.8496905 -2.09635,17.2786455 h -5.71615 q -0.46875,-3.164062 -1.08073,-8.333333 -0.20833,2.265625 -0.58594,4.583333 l -0.58593,3.75 h -5.71615 L 308.39789,7.8496905 h 4.53125 q 0.0521,0.6770833 1.14583,9.8828125 0.0781,-0.9375 1.17188,-9.8828125 h 4.36198 l 1.0677,9.8828125 q 0.2474,-4.322917 1.19792,-9.8828125 z"
       id="path35" />
    <path
       d="m 332.61664,7.8496905 -0.0912,1.5885417 q 0.57292,-0.9505209 1.39323,-1.4192708 0.83333,-0.4817709 1.91406,-0.4817709 1.35417,0 2.21355,0.6380209 0.85937,0.6380208 1.10677,1.6145833 0.24739,0.9635413 0.24739,3.2291663 v 12.109375 h -5.26041 V 13.16219 q 0,-1.783854 -0.11719,-2.174479 -0.11719,-0.390625 -0.65104,-0.390625 -0.5599,0 -0.70313,0.455729 -0.14323,0.442709 -0.14323,2.395834 v 11.679687 h -5.26041 V 7.8496905 Z"
       id="path37" />
    <path
       d="m 160.62445,37.380943 h 9.28385 v 4.21875 h -3.80208 v 3.997396 h 3.38542 v 4.010416 h -3.38542 v 8.854167 h -5.48177 z"
       id="path39" />
    <path
       d="m 182.98122,47.250735 v 4.23177 q 0,2.330729 -0.23437,3.424479 -0.23438,1.08073 -1.00261,2.03125 -0.76823,0.9375 -1.97917,1.393229 -1.19791,0.442709 -2.76041,0.442709 -1.74479,0 -2.95573,-0.377604 -1.21094,-0.390625 -1.88802,-1.158854 -0.66406,-0.78125 -0.95052,-1.875 -0.28646,-1.106771 -0.28646,-3.307292 v -4.427083 q 0,-2.408854 0.52083,-3.763021 0.52084,-1.354167 1.875,-2.174479 1.35417,-0.820313 3.46354,-0.820313 1.77084,0 3.03386,0.533855 1.27604,0.520833 1.96614,1.367187 0.69011,0.846354 0.9375,1.744792 0.26042,0.898437 0.26042,2.734375 z m -5.26042,-1.302084 q 0,-1.328125 -0.14323,-1.666666 -0.14322,-0.351563 -0.61197,-0.351563 -0.46875,0 -0.625,0.351563 -0.15625,0.338541 -0.15625,1.666666 v 7.799479 q 0,1.223959 0.15625,1.601563 0.15625,0.364583 0.61197,0.364583 0.46875,0 0.61198,-0.338542 0.15625,-0.338541 0.15625,-1.458333 z"
       id="path41" />
    <path
       d="m 195.12966,41.183026 -2.09636,8.255209 2.53907,9.023437 h -5.11719 q -0.75521,-3.411458 -1.14583,-5.872396 -0.52084,3.072917 -1.13282,5.872396 h -4.40104 l 2.26563,-9.023437 -2.26563,-8.255209 h 4.40104 q 1.05469,5.286459 1.13282,6.002604 0.7552,-4.414062 1.14583,-6.002604 z"
       id="path43" />
    <path
       d="m 207.83799,37.380943 v 14.088541 q 0,3.164063 -0.0651,4.075521 -0.0651,0.898438 -0.59896,1.627604 -0.52083,0.729167 -1.43229,1.015625 -0.89844,0.273438 -2.72136,0.273438 h -2.74739 v -3.684896 q 0.49479,0.03906 0.71614,0.03906 0.58594,0 0.92448,-0.286459 0.33854,-0.286458 0.39063,-0.703125 0.0521,-0.416666 0.0521,-1.614583 V 37.380943 Z"
       id="path45" />
    <path
       d="m 221.84841,41.183026 v 17.278646 h -5.35156 l 0.0911,-1.432292 q -0.54687,0.872396 -1.35416,1.315104 -0.79428,0.429688 -1.83594,0.429688 -1.1849,0 -1.96615,-0.416667 -0.78125,-0.416666 -1.15885,-1.106771 -0.36459,-0.690104 -0.45573,-1.432291 -0.0911,-0.755209 -0.0911,-2.981771 V 41.183026 h 5.26042 v 11.757813 q 0,2.018229 0.11719,2.395833 0.13021,0.377604 0.67708,0.377604 0.58594,0 0.6901,-0.390625 0.11719,-0.390625 0.11719,-2.513021 V 41.183026 Z"
       id="path47" />
    <path
       d="m 228.93174,41.183026 -0.0911,1.640625 q 0.61198,-0.976562 1.45834,-1.458333 0.84635,-0.494792 1.92708,-0.494792 2.10938,0 3.32031,1.953125 0.66407,-0.976562 1.4974,-1.458333 0.83333,-0.494792 1.84896,-0.494792 1.34114,0 2.21354,0.651042 0.88542,0.651042 1.13281,1.601563 0.2474,0.9375 0.2474,3.059895 v 12.278646 h -5.10417 V 47.198651 q 0,-2.213541 -0.15625,-2.734375 -0.14323,-0.533854 -0.6901,-0.533854 -0.5599,0 -0.72917,0.520833 -0.15625,0.520834 -0.15625,2.747396 v 11.263021 h -5.10417 V 47.48511 q 0,-2.539063 -0.13021,-3.046875 -0.11718,-0.507813 -0.67708,-0.507813 -0.35156,0 -0.59896,0.273438 -0.24739,0.260416 -0.27343,0.651041 -0.026,0.377604 -0.026,1.627604 v 11.979167 h -5.10416 V 41.183026 Z"
       id="path49" />
    <path
       d="m 249.64789,41.183026 -0.0911,1.523438 q 0.70313,-0.924479 1.54948,-1.380208 0.84636,-0.45573 1.84896,-0.45573 1.22396,0 2.10937,0.664063 0.89844,0.651042 1.1198,1.510417 0.22135,0.859375 0.22135,2.916666 v 7.278646 q 0,2.356771 -0.28646,3.359375 -0.27344,0.989583 -1.14583,1.588541 -0.85938,0.585938 -2.08333,0.585938 -0.97657,0 -1.8099,-0.455729 -0.83333,-0.455729 -1.52344,-1.354167 v 3.958333 h -5.26041 V 41.183026 Z m 1.49739,5.026042 q 0,-1.601563 -0.11718,-1.940104 -0.11719,-0.338542 -0.65105,-0.338542 -0.52083,0 -0.67708,0.390625 -0.14323,0.390625 -0.14323,1.888021 v 7.161458 q 0,1.5625 0.15625,1.953125 0.15625,0.390625 0.67709,0.390625 0.50781,0 0.625,-0.351562 0.1302,-0.364584 0.1302,-1.744792 z"
       id="path51" />
    <path
       d="m 268.87965,46.70386 h -4.66145 v -0.9375 q 0,-1.197917 -0.14323,-1.510417 -0.13021,-0.325521 -0.67709,-0.325521 -0.44271,0 -0.66406,0.299479 -0.22135,0.286459 -0.22135,0.872396 0,0.794271 0.10416,1.171875 0.11719,0.364583 0.66407,0.807292 0.55989,0.442708 2.27864,1.289062 2.29167,1.119792 3.00781,2.109375 0.71615,0.989583 0.71615,2.877604 0,2.109375 -0.54688,3.190104 -0.54687,1.067709 -1.83593,1.653646 -1.27604,0.572917 -3.08594,0.572917 -2.00521,0 -3.4375,-0.625 -1.41927,-0.625 -1.95313,-1.692708 -0.53385,-1.067709 -0.53385,-3.229167 v -0.833333 h 4.66146 v 1.09375 q 0,1.393229 0.16927,1.809895 0.18229,0.416667 0.70312,0.416667 0.5599,0 0.78125,-0.273437 0.22136,-0.286459 0.22136,-1.184896 0,-1.236979 -0.28646,-1.549479 -0.29948,-0.3125 -3.0599,-1.848959 -2.3177,-1.302083 -2.82552,-2.35677 -0.50781,-1.067709 -0.50781,-2.526042 0,-2.070312 0.54688,-3.046875 0.54687,-0.989583 1.84895,-1.523437 1.31511,-0.533855 3.04688,-0.533855 1.71875,0 2.91667,0.442709 1.21093,0.429687 1.84895,1.145833 0.65105,0.716146 0.78125,1.328125 0.14323,0.611979 0.14323,1.914062 z"
       id="path53" />
    <path
       d="m 288.07237,49.724693 q 0,3.177083 -0.15625,4.505208 -0.14323,1.315104 -0.9375,2.408854 -0.78125,1.09375 -2.1224,1.679688 -1.34114,0.585937 -3.125,0.585937 -1.69271,0 -3.04687,-0.546875 -1.34115,-0.559896 -2.16146,-1.666666 -0.82031,-1.106771 -0.97656,-2.408855 -0.15625,-1.302083 -0.15625,-4.557291 v -3.606771 q 0,-3.177083 0.14322,-4.492187 0.15625,-1.328125 0.9375,-2.421875 0.79428,-1.09375 2.13542,-1.679688 1.34115,-0.585937 3.125,-0.585937 1.69271,0 3.03386,0.559896 1.35416,0.546875 2.17447,1.653645 0.82032,1.106771 0.97657,2.408855 0.15625,1.302083 0.15625,4.557291 z M 282.5906,42.79761 q 0,-1.471354 -0.16927,-1.875 -0.15625,-0.416667 -0.66407,-0.416667 -0.42968,0 -0.66406,0.338542 -0.22135,0.325521 -0.22135,1.953125 v 9.843749 q 0,1.835938 0.14323,2.265625 0.15625,0.429688 0.70312,0.429688 0.5599,0 0.71615,-0.494792 0.15625,-0.494791 0.15625,-2.356771 z"
       id="path55" />
    <path
       d="m 300.83278,41.183026 -2.46093,17.278646 h -6.86198 l -2.64323,-17.278646 h 4.70052 l 1.47135,12.604167 q 0.16927,-1.380209 0.57292,-6.770833 0.23437,-3.007813 0.52083,-5.833334 z"
       id="path57" />
    <path
       d="m 313.52809,50.128339 h -6.80989 v 3.736979 q 0,1.171875 0.16927,1.510416 0.16927,0.338542 0.65104,0.338542 0.59896,0 0.79427,-0.442708 0.20833,-0.455729 0.20833,-1.744792 V 51.24813 h 4.98698 v 1.276042 q 0,1.601562 -0.20833,2.460937 -0.19531,0.859375 -0.9375,1.835938 -0.74219,0.976562 -1.88802,1.471354 -1.13282,0.481771 -2.85157,0.481771 -1.66666,0 -2.9427,-0.481771 -1.27605,-0.481771 -1.99219,-1.315104 -0.70313,-0.846354 -0.97656,-1.848958 -0.27344,-1.015625 -0.27344,-2.942709 v -5.039062 q 0,-2.265625 0.61198,-3.567708 0.61198,-1.315104 2.00521,-2.005209 1.39323,-0.703125 3.20312,-0.703125 2.21354,0 3.64583,0.846355 1.44532,0.833333 2.01823,2.226562 0.58594,1.380208 0.58594,3.893229 z m -5.27344,-2.8125 v -1.263021 q 0,-1.341146 -0.14323,-1.731771 -0.14322,-0.390625 -0.58593,-0.390625 -0.54688,0 -0.67709,0.338542 -0.1302,0.325521 -0.1302,1.783854 v 1.263021 z"
       id="path59" />
    <path
       d="m 320.50726,41.183026 -0.20834,2.265625 q 1.14584,-2.434895 3.32032,-2.578125 v 6.080729 q -1.44532,0 -2.1224,0.390625 -0.67708,0.390625 -0.83333,1.09375 -0.15625,0.690105 -0.15625,3.203125 v 6.822917 h -5.26042 V 41.183026 Z"
       id="path61" />
    <path
       d="m 171.66612,70.714279 v 4.21875 h -3.25521 v 16.861979 h -5.48177 V 74.933029 h -3.24219 v -4.21875 z"
       id="path63" />
    <path
       d="m 178.02028,70.714279 v 4.739583 q 0.67709,-0.625 1.45834,-0.9375 0.79427,-0.3125 1.6927,-0.3125 1.38021,0 2.34375,0.703125 0.97657,0.703125 1.1849,1.627604 0.22135,0.911459 0.22135,3.346354 v 11.914063 h -5.26041 V 79.63355 q 0,-1.510417 -0.15625,-1.940104 -0.14323,-0.429688 -0.66406,-0.429688 -0.48178,0 -0.65105,0.442708 -0.16927,0.442709 -0.16927,1.757813 v 12.330729 h -5.26041 V 70.714279 Z"
       id="path65" />
    <path
       d="m 198.64528,83.461675 h -6.80989 v 3.736979 q 0,1.171875 0.16927,1.510416 0.16927,0.338542 0.65104,0.338542 0.59896,0 0.79427,-0.442708 0.20833,-0.45573 0.20833,-1.744792 v -2.278646 h 4.98698 v 1.276042 q 0,1.601562 -0.20833,2.460937 -0.19531,0.859375 -0.9375,1.835938 -0.74219,0.976562 -1.88802,1.471354 -1.13281,0.481771 -2.85156,0.481771 -1.66667,0 -2.94271,-0.481771 -1.27604,-0.481771 -1.99219,-1.315104 -0.70312,-0.846354 -0.97656,-1.848959 -0.27344,-1.015625 -0.27344,-2.942708 v -5.039062 q 0,-2.265625 0.61198,-3.567708 0.61198,-1.315105 2.00521,-2.005209 1.39323,-0.703125 3.20312,-0.703125 2.21354,0 3.64584,0.846354 1.44531,0.833334 2.01822,2.226563 0.58594,1.380208 0.58594,3.893229 z m -5.27343,-2.8125 v -1.263021 q 0,-1.341146 -0.14323,-1.731771 -0.14323,-0.390625 -0.58594,-0.390625 -0.54688,0 -0.67708,0.338542 -0.13021,0.325521 -0.13021,1.783854 v 1.263021 z"
       id="path67" />
    <path
       d="m 210.70257,70.714279 v 16.861979 h 3.33334 v 4.21875 H 205.2208 V 70.714279 Z"
       id="path69" />
    <path
       d="m 219.9083,81.20907 h -4.93489 v -1.158854 q 0,-2.005208 0.45573,-3.085937 0.46875,-1.09375 1.86198,-1.927083 1.39323,-0.833334 3.61979,-0.833334 2.66927,0 4.02343,0.950521 1.35417,0.9375 1.62761,2.317708 0.27344,1.367188 0.27344,5.651042 v 8.671875 h -5.11719 v -1.536459 q -0.48177,0.92448 -1.25,1.39323 -0.75521,0.455729 -1.8099,0.455729 -1.3802,0 -2.53906,-0.768229 -1.14583,-0.78125 -1.14583,-3.398438 V 86.52157 q 0,-1.940104 0.61198,-2.643229 0.61198,-0.703125 3.03385,-1.640625 2.59115,-1.015625 2.77344,-1.367187 0.18229,-0.351563 0.18229,-1.432292 0,-1.354166 -0.20833,-1.757812 -0.19532,-0.416667 -0.66407,-0.416667 -0.53385,0 -0.66406,0.351563 -0.13021,0.338541 -0.13021,1.783854 z m 1.66667,2.369792 q -1.26302,0.924479 -1.47135,1.549479 -0.19532,0.625 -0.19532,1.796875 0,1.341146 0.16927,1.731771 0.1823,0.390625 0.70313,0.390625 0.49479,0 0.63802,-0.299479 0.15625,-0.3125 0.15625,-1.614584 z"
       id="path71" />
    <path
       d="m 236.83538,74.516362 v 3.828125 l -3.88021,9.986979 h 3.88021 v 3.463542 h -8.97135 v -3.619792 l 3.97135,-10.195312 h -3.56771 v -3.463542 z"
       id="path73" />
    <path
       d="m 249.60883,74.516362 -1.51042,12.5 q -0.35156,2.96875 -0.59896,4.049479 -0.23437,1.080729 -0.79427,1.783854 -0.5599,0.703125 -1.5625,1.028646 -0.98958,0.338542 -3.17708,0.338542 h -3.19011 v -2.760417 q 1.22396,0 1.57552,-0.117187 0.35157,-0.130209 0.35157,-0.559896 0,-0.208334 -0.32553,-1.809896 l -2.8776,-14.453125 h 4.77865 l 1.71875,11.653646 0.83333,-11.653646 z"
       id="path75" />
    <path
       d="m 255.40309,70.714279 h 4.10156 q 3.97136,0 5.36459,0.364583 1.40625,0.364584 2.13541,1.197917 0.72917,0.833333 0.91146,1.861979 0.18229,1.015625 0.18229,4.010417 v 7.382812 q 0,2.838542 -0.27343,3.802083 -0.26042,0.950521 -0.92448,1.497396 -0.66407,0.533854 -1.64063,0.755208 -0.97656,0.208334 -2.94271,0.208334 h -6.91406 z m 5.48177,3.606771 v 13.867187 q 1.1849,0 1.45834,-0.46875 0.27343,-0.481771 0.27343,-2.591146 v -8.190104 q 0,-1.432291 -0.0911,-1.835937 -0.0911,-0.403646 -0.41667,-0.585938 -0.32552,-0.195312 -1.22396,-0.195312 z"
       id="path77" />
    <path
       d="m 281.88747,80.58407 v 4.231771 q 0,2.330729 -0.23438,3.424479 -0.23437,1.080729 -1.0026,2.03125 -0.76823,0.9375 -1.97917,1.393229 -1.19791,0.442709 -2.76041,0.442709 -1.7448,0 -2.95573,-0.377604 -1.21094,-0.390625 -1.88802,-1.158855 -0.66407,-0.78125 -0.95052,-1.875 -0.28646,-1.10677 -0.28646,-3.307291 v -4.427083 q 0,-2.408854 0.52083,-3.763021 0.52083,-1.354167 1.875,-2.174479 1.35417,-0.820313 3.46354,-0.820313 1.77084,0 3.03386,0.533854 1.27604,0.520834 1.96614,1.367188 0.69011,0.846354 0.9375,1.744792 0.26042,0.898437 0.26042,2.734374 z m -5.26042,-1.302083 q 0,-1.328125 -0.14323,-1.666666 -0.14323,-0.351563 -0.61198,-0.351563 -0.46875,0 -0.625,0.351563 -0.15625,0.338541 -0.15625,1.666666 v 7.799479 q 0,1.223958 0.15625,1.601563 0.15625,0.364583 0.61198,0.364583 0.46875,0 0.61198,-0.338542 0.15625,-0.338541 0.15625,-1.458333 z"
       id="path79" />
    <path
       d="m 295.57236,74.516362 v 13.307292 q 0,2.695312 -0.1302,3.489583 -0.11719,0.78125 -0.8724,1.653646 -0.75521,0.885416 -2.10937,1.341145 -1.34115,0.46875 -3.38542,0.46875 -2.51302,0 -4.03646,-0.859375 -1.52344,-0.846354 -1.57552,-3.346354 h 5.10417 q 0,1.145834 0.83333,1.145834 0.59896,0 0.79427,-0.351563 0.19531,-0.351562 0.19531,-1.471354 v -1.302083 q -0.67708,0.611979 -1.43229,0.924479 -0.74219,0.3125 -1.5625,0.3125 -1.41927,0 -2.34375,-0.572917 -0.91146,-0.572916 -1.25,-1.497396 -0.33854,-0.9375 -0.33854,-2.656249 v -6.276042 q 0,-2.460937 0.88542,-3.541667 0.88541,-1.080729 2.69531,-1.080729 0.98958,0 1.79687,0.403646 0.82032,0.403646 1.45834,1.210938 l 0.3776,-1.302084 z m -5.27343,4.583334 q 0,-1.184896 -0.14323,-1.510417 -0.13021,-0.325521 -0.59896,-0.325521 -0.45573,0 -0.65104,0.377604 -0.18229,0.364584 -0.18229,1.458334 v 5.807291 q 0,1.158854 0.14323,1.510417 0.14322,0.338541 0.59895,0.338541 0.52084,0 0.67709,-0.416666 0.15625,-0.416667 0.15625,-1.888021 z"
       id="path81" />
  </g>
</svg>
