<?xml version="1.0" encoding="UTF-8" standalone="no"?>
<svg
   xmlns:dc="http://purl.org/dc/elements/1.1/"
   xmlns:cc="http://creativecommons.org/ns#"
   xmlns:rdf="http://www.w3.org/1999/02/22-rdf-syntax-ns#"
   xmlns:svg="http://www.w3.org/2000/svg"
   xmlns="http://www.w3.org/2000/svg"
   viewBox="159.531 6.96427 236.12 91.6927"
   version="1.1"
   id="svg2">
  <metadata
     id="metadata11">
    <rdf:RDF>
      <cc:Work
         rdf:about="">
        <dc:format>image/svg+xml</dc:format>
        <dc:type
           rdf:resource="http://purl.org/dc/dcmitype/StillImage" />
      </cc:Work>
    </rdf:RDF>
  </metadata>
  <defs
     id="defs9" />
  <g
     aria-label="The Quick BrownFox Jumps OverThe Lazy Dog"
     id="text4521"
     style="font-style:normal;font-variant:normal;font-weight:normal;font-stretch:normal;font-size:26.6667px;line-height:125%;font-family:'Jazz LET', fantasy;font-variant-ligatures:normal;font-variant-caps:normal;font-variant-numeric:normal;font-feature-settings:normal;text-align:left;letter-spacing:0px;word-spacing:0px;writing-mode:lr-tb;text-anchor:start;fill:#000000;fill-opacity:1;stroke:none;stroke-width:1px;stroke-linecap:butt;stroke-linejoin:miter;stroke-opacity:1">
    <path
       d="m 164.75205,9.1908363 q 0.48178,-0.065104 1.19792,-0.1041666 V 24.047607 h 5.98958 q 0.013,0.286458 0.0651,1.080729 h -7.35677 l 0.026,-0.286458 q 0.13021,-1.432292 0.23437,-3.958334 0.026,-0.598958 0.0391,-1.197916 0.026,-0.598959 0.0391,-1.184896 0.026,-0.859375 0.026,-1.601563 l -0.0651,-4.153645 q -0.0391,-2.617188 -0.19532,-3.5546877 z m 7.13542,-0.5078125 v 0.091146 q -0.23437,3.8541663 -0.23437,7.5781243 0,3.723959 0.20833,6.692709 l 0.0391,0.46875 h -5.40364 v -0.716146 h 2.30468 v -0.546875 h -2.30468 v -0.716146 h 2.30468 v -0.533854 h -2.30468 v -0.716146 h 2.30468 v -0.546875 h -2.30468 v -0.716146 h 2.30468 v -0.533854 h -2.30468 v -0.716146 h 2.30468 V 17.22469 h -2.30468 v -0.716146 h 2.30468 V 15.97469 h -2.30468 v -0.716145 h 2.30468 V 14.71167 h -2.30468 v -0.716146 h 2.30468 V 13.46167 h -2.30468 v -0.716146 h 2.30468 v -0.546875 h -2.30468 v -0.716146 h 2.30468 v -0.533854 h -2.30468 v -0.716146 h 2.30468 V 9.685628 h -2.29166 v -0.625 l 0.23437,-0.013021 q 1.17188,-0.078125 1.82292,-0.078125 h 0.23437 V 8.435628 q -2.21354,0.026042 -4.4401,0.2994792 -2.22656,0.2604166 -4.49219,0.78125 l -0.33854,0.078125 0.48177,-2.2395833 h 16.62761 l 0.48177,2.2395833 q -2.1224,-0.5598959 -5.10417,-0.8984375 z"
       id="path13" />
    <path
       d="m 184.42653,13.578857 q 1.04167,-0.611979 2.66927,-1.002604 1.62761,-0.390625 3.28125,-0.390625 1.54948,0 3.22917,0.377604 l -0.0391,0.351563 q -0.16927,1.705729 -0.2474,3.13802 -0.0651,1.419271 -0.0651,2.552084 0,2.760416 0.22135,4.908854 h -4.50521 v -0.716146 h 1.97917 v -0.546875 h -1.97917 v -0.716146 h 1.97917 v -0.533854 h -1.97917 v -0.716146 h 1.97917 v -0.546875 h -1.97917 v -0.716146 h 1.97917 v -0.533854 h -1.97917 v -0.716146 h 1.97917 V 17.22469 h -1.97917 v -0.716146 h 1.97917 V 15.97469 h -1.97917 v -0.716145 h 1.97917 V 14.71167 h -1.97917 v -0.755209 q 0.92448,-0.15625 1.77084,-0.15625 h 0.20833 v -0.507812 h -0.46875 q -1.02865,0 -2.1224,0.182291 -1.08072,0.182292 -2.05729,0.494792 -0.96354,0.3125 -1.75781,0.768229 l -0.10417,0.0651 -0.0391,0.02604 v 0.09115 q -0.013,0.3125 -0.013,1.197917 0,2.083333 0.0521,3.710937 0.0651,1.627604 0.16927,3.216146 l 0.026,0.46875 h -4.51823 v -0.716146 h 1.97916 v -0.546875 h -1.97916 v -0.716146 h 1.97916 v -0.533854 h -1.97916 v -0.716146 h 1.97916 v -0.546875 h -1.97916 v -0.716146 h 1.97916 v -0.533854 h -1.97916 v -0.716146 h 1.97916 V 17.22469 h -1.97916 v -0.716146 h 1.97916 V 15.97469 h -1.97916 v -0.716145 h 1.97916 V 14.71167 h -1.97916 v -0.716146 h 1.97916 V 13.46167 h -1.97916 v -0.716146 h 1.97916 v -0.546875 h -1.97916 v -0.716146 h 1.97916 v -0.533854 h -1.97916 v -0.716146 h 1.97916 V 9.685628 h -1.97916 V 8.9694822 h 1.97916 V 8.435628 h -3.75 q 0,-0.2213541 -0.0521,-0.7421875 0,-0.091146 -0.013,-0.1692708 0,-0.078125 0,-0.1692708 h 6.45833 l -0.026,0.3385416 q -0.22135,2.4609375 -0.28646,5.7942705 z m 4.01042,10.46875 h 5.09114 q 0.026,0.286458 0.026,0.273437 l 0.0521,0.625 q 0,0 0.026,0.182292 h -6.47135 q 0.10416,-0.820313 0.16927,-2.044271 0.15625,-2.539062 0.15625,-4.53125 0,-1.614583 -0.0911,-3.385416 -0.013,-0.559896 -0.0781,-0.924479 0.44271,-0.15625 1.11979,-0.234375 z m -10.15625,1.080729 0.026,-0.286458 q 0.15625,-1.536459 0.23438,-3.880209 0.0911,-2.35677 0.0911,-4.934895 0,-3.177084 -0.22135,-6.6666668 l -0.026,-0.390625 h 1.19791 V 24.047607 h 5.09115 q 0.013,0.286458 0.0651,1.080729 z"
       id="path15" />
    <path
       d="m 199.17914,22.797607 h 0.48177 v -0.546875 h -1.13281 q -0.35157,-0.351563 -0.59896,-0.716146 h 1.73177 v -0.533854 h -2.04427 q -0.18229,-0.351563 -0.28646,-0.677083 l -0.013,-0.03906 h 2.34375 v -0.546875 h -2.47396 q -0.0781,-0.325521 -0.0911,-0.716146 h 2.56511 v -0.533854 h -2.55209 q 0.026,-0.338542 0.10417,-0.716146 h 2.44792 V 17.22469 h -2.27865 q 0.0911,-0.273437 0.3125,-0.716146 h 1.96615 V 15.97469 h -1.62761 q 0.29948,-0.429687 0.58594,-0.716145 h 1.04167 V 14.71167 h -2.66927 q 1.09375,-1.302084 2.65625,-1.992188 1.5625,-0.690104 3.4375,-0.690104 1.30208,0 2.48698,0.364583 1.18489,0.364584 2.12239,1.054688 0.95052,0.690104 1.60156,1.653646 0.66407,0.963541 0.92448,2.122395 h -3.72396 v -0.716146 h 1.32813 q -0.0651,-0.3125 -0.14323,-0.533854 h -1.1849 v -0.716145 h 0.84636 q -0.13021,-0.221355 -0.37761,-0.546875 h -0.46875 v -0.45573 q -0.55989,-0.507812 -1.44531,-0.807291 -0.87239,-0.299479 -1.80989,-0.299479 -0.61198,0 -1.25,0.16927 v 4.453125 h 2.90364 V 13.94344 q 0.61198,0.15625 1.06771,0.520834 v 3.307291 h 4.36198 q 0.14323,0.520834 0.16927,1.067709 h -8.5026 v 4.921874 q -1.64063,-0.143229 -2.8125,-0.963541 z m 10.03906,-1.158854 0.83333,1.458333 q -2.96875,2.421875 -6.82291,2.421875 -1.70573,0 -3.11198,-0.46875 -1.39323,-0.481771 -2.44792,-1.380208 -1.05469,-0.911459 -1.61458,-2.122396 -0.5599,-1.223958 -0.5599,-2.682292 0,-2.005208 1.13281,-3.60677 h 1.38021 q -0.71614,0.846354 -1.06771,1.744791 -0.33854,0.885417 -0.33854,1.835938 0,1.10677 0.45573,2.174479 0.46875,1.067708 1.30208,1.822916 1.67969,1.497396 4.40105,1.497396 2.60416,0 4.7526,-1.341146 0.66406,-0.416666 1.70573,-1.354166 z"
       id="path17" />
    <path
       d="m 227.0307,21.534586 v -0.533854 h -1.36719 l -0.0651,-0.07813 q -0.2474,-0.325521 -0.39063,-0.559896 l -0.0521,-0.07813 h 1.875 v -0.546875 h -2.16146 q -0.18229,-0.364583 -0.3125,-0.716146 h 2.47396 v -0.533854 h -2.65625 q -0.0911,-0.273437 -0.18229,-0.638021 l -0.013,-0.07813 h 2.85156 V 17.22469 h -2.95573 q -0.0521,-0.3125 -0.0651,-0.716146 h 3.02083 V 15.97469 h -3.02083 q 0.026,-0.364583 0.0521,-0.651041 l 0.013,-0.0651 h 2.95573 V 14.71167 h -2.85156 q 0.0911,-0.403646 0.16927,-0.625 l 0.026,-0.09115 h 2.65625 V 13.46167 h -2.46094 q 0.0651,-0.169271 0.28646,-0.638021 l 0.0391,-0.07813 h 2.13542 v -0.546875 h -1.83594 q 0.22136,-0.351563 0.49479,-0.716146 h 1.34115 v -0.533854 h -0.85937 q 0.3125,-0.325521 0.85937,-0.742188 V 9.685628 h -1.97917 q 2.9948,-2.6953124 6.91407,-2.6953124 2.07031,0 3.86718,0.6901041 1.79688,0.6901042 3.15105,1.953125 1.35416,1.2630203 2.09635,2.9557293 0.74219,1.692708 0.74219,3.645833 0,3.216146 -1.97917,5.690104 -0.45573,0.664063 -1.09375,1.132813 l 2.89063,1.770833 -3.54167,1.861979 -2.42188,-2.96875 v -0.924479 h 0.84636 q 0.22135,-0.247396 0.33854,-0.546875 h -1.1849 v -0.716146 h 1.57552 q 0.10417,-0.195312 0.27344,-0.533854 h -1.88802 v -0.716146 h 2.17448 q 0.0521,-0.143229 0.0781,-0.247396 0.0391,-0.104166 0.0651,-0.208333 l 0.026,-0.09115 h -2.34375 v -0.716146 h 2.52604 q 0.013,-0.09115 0.026,-0.182291 0.026,-0.104167 0.0521,-0.260417 l 0.013,-0.09115 h -2.61719 v -0.716146 h 2.72136 v -0.07813 q 0.0391,-0.3125 0.0391,-0.46875 h -2.76042 v -0.716146 h 2.79948 V 16.11792 15.97469 h -2.79948 v -0.716145 h 2.77344 q 0,-0.09115 -0.013,-0.15625 0,-0.07813 -0.026,-0.260417 l -0.013,-0.130208 h -2.72136 v -0.716146 h 2.63021 l -0.013,-0.09115 q 0,-0.05208 -0.0521,-0.338542 l -0.026,-0.104166 h -2.53906 v -0.716146 h 2.38281 q -0.026,-0.104167 -0.026,-0.09115 l -0.11719,-0.364583 q 0,0.01302 -0.026,-0.09115 h -2.21354 v -0.716146 h 1.92708 q -0.10416,-0.247396 -0.28645,-0.533854 h -1.64063 v -0.716146 h 1.14583 q -0.28645,-0.3515625 -0.50781,-0.546875 h -0.63802 V 9.2038572 Q 234.88226,8.6830238 233.8406,8.4095864 232.81195,8.123128 231.75726,8.123128 q -0.79427,0 -1.67968,0.1953125 V 21.13094 q 0.55989,-0.416666 1.25,-0.416666 0.48177,0 0.92447,0.221354 0.45573,0.221354 0.98959,0.742187 0.53385,0.520834 1.28906,1.484375 l 3.39844,4.21875 4.21875,-2.252604 1.13281,0.690104 -5.66406,2.981771 -2.87761,-3.632813 q -1.27604,0.351563 -2.76041,0.351563 -1.91407,0 -3.63282,-0.638021 -1.70572,-0.638021 -3.04687,-1.861979 -1.43229,-1.315104 -2.23958,-3.111979 -0.79427,-1.809896 -0.79427,-3.658854 0,-1.614583 0.55989,-3.138021 0.57292,-1.523437 1.69271,-2.877604 h 1.69271 q -1.32813,1.171875 -2.04427,2.760417 -0.70313,1.57552 -0.70313,3.307291 0,1.080729 0.32552,2.174479 0.32552,1.09375 0.9375,2.057292 0.61198,0.950521 1.47136,1.757812 2.31771,2.083334 5.625,2.083334 1.13281,0 2.13541,-0.182292 l -0.0521,-0.0651 q -1.02865,-1.302083 -1.6276,-1.770833 -0.59896,-0.46875 -1.19792,-0.46875 -0.58594,0 -0.95052,0.403645 -0.36458,0.390625 -0.36458,1.028646 0,0.05208 0,0.104167 0.013,0.03906 0.013,0.143229 -0.98959,-0.234375 -1.92709,-0.755208 -0.9375,-0.533854 -1.65364,-1.276042 z M 235.0906,9.5033363 V 23.031982 l -0.45573,-0.559896 q -1.02865,-1.263021 -1.73177,-1.731771 -0.70313,-0.481771 -1.53646,-0.481771 -0.23438,0 -0.41667,0.03906 0.50781,-0.625 1.48438,-0.625 0.7552,0 1.58854,0.481771 V 9.0085447 q 0.58594,0.1692708 1.06771,0.4947916 z"
       id="path19" />
    <path
       d="m 259.38747,25.128336 h -6.36719 q 0.0521,-0.390625 0.0911,-1.015625 l 0.013,-0.299479 q -2.44792,1.588541 -5.40365,1.588541 -1.01563,0 -2.01823,-0.208333 -0.98958,-0.195312 -1.78385,-0.533854 l 0.013,-0.09115 q 0.10416,-0.625 0.15625,-1.705729 0.026,-0.403646 0.0911,-2.317708 0.0521,-1.575521 0.0521,-2.057292 0,-2.291667 -0.16927,-4.192708 l -0.013,-0.299479 h 1.1198 v 10.052083 q 1.10677,0.221354 2.1875,0.221354 1.52343,0 3.02083,-0.46875 1.51042,-0.46875 2.76042,-1.341146 0.013,-0.104166 0.026,-0.546875 l 0.10416,-3.398437 q 0,-0.703125 -0.0391,-1.536459 -0.0521,-1.848958 -0.15625,-2.98177 h 1.13281 v 10.052083 h 5.09115 q 0.026,0.273437 0.026,0.273437 l 0.0521,0.625 q 0.013,0.02604 0.013,0.182292 z m -11.70573,-2.330729 v -0.546875 h -1.96615 v -0.716146 h 1.96615 v -0.533854 h -1.96615 v -0.716146 h 1.96615 v -0.546875 h -1.96615 v -0.716146 h 1.96615 v -0.533854 h -1.96615 v -0.716146 h 1.96615 V 17.22469 h -1.96615 v -0.716146 h 1.96615 V 15.97469 h -1.96615 v -0.716145 h 1.96615 V 14.71167 h -1.96615 v -0.716146 h 1.96615 V 13.46167 h -3.6849 q -0.013,-0.104167 -0.013,-0.247396 l -0.0521,-0.546875 -0.026,-0.286459 h 6.45833 l -0.0391,0.325521 q -0.33855,3.007813 -0.33855,5.9375 0,2.1875 0.15625,4.088542 l 0.0391,0.429687 v 0.143229 q -1.47136,0.46875 -2.92969,0.46875 -0.8724,0 -1.53646,-0.117187 v -0.859375 z m 9.03646,-8.802083 V 13.46167 h -3.69792 q 0,-0.104167 -0.013,-0.14323 0,-0.05208 0,-0.104166 l -0.0521,-0.546875 -0.026,-0.286459 h 6.45834 l -0.026,0.325521 q -0.33854,3.007813 -0.33854,5.9375 0,2.630208 0.22136,4.869792 h -4.50521 v -0.716146 h 1.97917 v -0.546875 h -1.97917 v -0.716146 h 1.97917 v -0.533854 h -1.97917 v -0.716146 h 1.97917 v -0.546875 h -1.97917 v -0.716146 h 1.97917 v -0.533854 h -1.97917 v -0.716146 h 1.97917 V 17.22469 h -1.97917 v -0.716146 h 1.97917 V 15.97469 h -1.97917 v -0.716145 h 1.97917 V 14.71167 h -1.97917 v -0.716146 z"
       id="path21" />
    <path
       d="M 265.48122,13.995524 V 13.46167 h -3.68489 q -0.013,-0.273438 -0.0651,-0.794271 0,0.02604 -0.026,-0.286459 h 6.45833 l -0.0391,0.325521 q -0.33854,2.916667 -0.33854,5.898438 0,1.875 0.11719,3.580729 0.026,0.520833 0.11718,1.328125 h -4.5052 v -0.716146 h 1.96614 v -0.546875 h -1.96614 v -0.716146 h 1.96614 v -0.533854 h -1.96614 v -0.716146 h 1.96614 v -0.546875 h -1.96614 v -0.716146 h 1.96614 v -0.533854 h -1.96614 v -0.716146 h 1.96614 V 17.22469 h -1.96614 v -0.716146 h 1.96614 V 15.97469 h -1.96614 v -0.716145 h 1.96614 V 14.71167 h -1.96614 v -0.716146 z m -3.98437,-2.174479 3.63281,-3.697917 0.66406,0.9244792 -2.35677,2.3958328 z m 6.66666,13.307291 h -6.45833 q 0.11719,-1.106771 0.16927,-2.044271 0.15625,-2.539062 0.15625,-4.570312 0,-2.291667 -0.16927,-4.21875 l -0.013,-0.299479 h 1.11979 v 10.052083 h 5.10417 q 0.013,0.3125 0.0781,0.898437 0,0.03906 0,0.07813 0.013,0.02604 0.013,0.104167 z m -1.88802,-18.1640621 2.40886,3.4114581 -4.33594,0.885417 2.13542,-2.1484377 -0.96355,-1.3932291 z"
       id="path23" />
    <path
       d="m 273.73643,22.797607 h 0.50781 v -0.546875 h -1.13281 l -0.0521,-0.0651 q -0.29948,-0.299479 -0.53385,-0.651042 h 1.71875 v -0.533854 h -2.03125 q -0.15625,-0.325521 -0.29948,-0.716146 h 2.33073 v -0.546875 h -2.46094 q -0.0651,-0.481771 -0.0651,-0.716146 h 2.52604 v -0.533854 h -2.51302 q 0.0391,-0.377604 0.10417,-0.716146 h 2.40885 V 17.22469 h -2.23958 q 0.18229,-0.429687 0.28645,-0.638021 l 0.0391,-0.07813 h 1.91406 V 15.97469 h -1.57552 q 0.18229,-0.273437 0.55989,-0.716145 h 1.01563 V 14.71167 h -2.55208 q 2.1875,-2.591146 6.27604,-2.591146 1.04166,0 2.09635,0.208333 1.06771,0.195313 1.96615,0.533854 0.91146,0.338542 1.66666,0.833334 l -0.6901,1.588541 q -0.84635,-0.677083 -1.70573,-1.106771 -0.85937,-0.429687 -1.73177,-0.63802 -0.8724,-0.208334 -1.86198,-0.208334 -0.58594,0 -1.11979,0.130209 v 10.377603 q -1.5625,-0.130208 -2.85156,-1.041666 z m 9.27083,-0.364583 0.6901,1.510416 q -1.3802,0.833333 -2.76041,1.223958 -1.38021,0.390625 -3.04688,0.390625 -3.13802,0 -5.19531,-1.510416 -1.22396,-0.911458 -1.9401,-2.278646 -0.71615,-1.380208 -0.71615,-2.851562 0,-1.914063 1.22396,-3.658854 h 1.32812 q -0.72916,0.898437 -1.0677,1.796874 -0.32553,0.885417 -0.32553,1.888021 0,1.145834 0.45573,2.135417 0.46875,0.989583 1.31511,1.744792 0.85937,0.755208 1.99219,1.158854 1.13281,0.403645 2.47395,0.403645 1.05469,0 1.90105,-0.182291 0.85937,-0.195313 1.79687,-0.651042 0.95052,-0.46875 1.875,-1.119791 z"
       id="path25" />
    <path
       d="m 291.00205,19.295003 q 0,0.15625 0.013,0.338541 0.0391,1.601563 0.16927,3.411459 l 0.026,0.46875 h -4.51823 v -0.716146 h 1.97916 v -0.546875 h -1.97916 v -0.716146 h 1.97916 v -0.533854 h -1.97916 v -0.716146 h 1.97916 v -0.546875 h -1.97916 v -0.716146 h 1.97916 v -0.533854 h -1.97916 v -0.716146 h 1.97916 V 17.22469 h -1.97916 v -0.716146 h 1.97916 V 15.97469 h -1.97916 v -0.716145 h 1.97916 V 14.71167 h -1.97916 v -0.716146 h 1.97916 V 13.46167 h -1.97916 v -0.716146 h 1.97916 v -0.546875 h -1.97916 v -0.716146 h 1.97916 v -0.533854 h -1.97916 v -0.716146 h 1.97916 V 9.685628 h -1.97916 V 8.9694822 h 1.97916 V 8.435628 h -3.75 q 0,-0.2213541 -0.0521,-0.7421875 0,-0.091146 -0.013,-0.1692708 0,-0.078125 0,-0.1692708 h 6.45833 l -0.026,0.3385416 q -0.16927,1.8880208 -0.2474,4.2708335 -0.0781,2.382812 -0.0781,4.479166 0,1.080729 0.013,1.588542 v 0.130208 l 0.13021,-0.104166 q 0.82031,-0.638021 3.32031,-2.864584 0.98958,-0.885416 2.77344,-2.552083 l 0.28646,-0.260417 h 2.74739 q -1.67968,1.145834 -2.72135,1.966146 l -1.96615,1.536459 -0.3125,0.247395 q 0.42969,0.807292 1.48438,2.539063 l 1.53646,2.473958 q 0.63802,1.041667 1.51041,2.369792 h -4.46614 l -0.42969,-0.716146 h 1.97917 l -0.32552,-0.546875 h -1.96615 l -0.41667,-0.716146 h 1.95313 l -0.32552,-0.533854 h -1.94011 l -0.42968,-0.716146 h 1.9401 l -0.32552,-0.546875 h -1.92708 l -0.41667,-0.716146 h 1.91406 l -0.32552,-0.533854 h -1.83594 l -0.42968,0.416667 3.00781,5.143229 h 5.13021 q 0.15625,0.208333 0.15625,0.208333 l 0.42968,0.598958 q 0.026,0.05208 0.20834,0.273438 h -6.60157 q -0.46875,-1.041667 -1.25,-2.421875 -1.36718,-2.408854 -2.04427,-3.372396 z m -6.14583,5.833333 0.026,-0.286458 q 0.15625,-1.536459 0.23438,-3.880209 0.0911,-2.35677 0.0911,-4.934895 0,-3.177084 -0.22135,-6.6666668 l -0.026,-0.390625 h 1.19791 V 24.047607 h 5.09115 q 0.013,0.286458 0.0651,1.080729 z"
       id="path27" />
    <path
       d="m 311.70517,25.128336 0.026,-0.286458 q 0.15625,-1.536459 0.23437,-3.880209 0.0911,-2.35677 0.0911,-4.934895 0,-3.177084 -0.22136,-6.6666668 l -0.026,-0.390625 h 1.19792 V 24.047607 h 8.86719 V 15.50594 q 0.6901,0.01302 1.08072,0.130209 v 7.161458 h 5.35157 q -1.00261,1.302083 -2.1875,1.822916 -1.1849,0.507813 -3.19011,0.507813 h -1.02864 z m 0,-17.7734371 h 10.06511 q 1.91406,0 2.69531,0.1171875 0.79427,0.1171875 1.47136,0.5078125 0.55989,0.3255208 0.97656,0.8203124 0.41666,0.4817709 0.63802,1.0807292 0.22135,0.5859375 0.22135,1.2109375 0,0.872396 -0.41666,1.575521 -0.40365,0.690104 -1.15886,1.145833 -0.74219,0.442708 -1.6276,0.520833 1.01562,0.03906 1.92708,0.45573 0.91146,0.403645 1.54948,1.09375 0.63802,0.677083 0.98958,1.588541 0.35157,0.898438 0.35157,1.979167 0,1.497396 -0.69011,2.799479 h -5.20833 v -0.716146 h 2.27864 q 0.16928,-0.481771 0.1823,-0.533854 h -2.46094 v -0.716146 h 2.60417 q 0.026,-0.15625 0.0521,-0.546875 h -2.65625 v -0.716146 h 2.65625 q -0.013,-0.221354 -0.0521,-0.442708 l -0.013,-0.09115 h -2.59114 v -0.716146 h 2.43489 l -0.026,-0.09115 q -0.0781,-0.247395 -0.16927,-0.455729 h -2.23958 v -0.716146 h 1.86198 q -0.20834,-0.299479 -0.46875,-0.533854 h -1.39323 v -0.79427 q -0.8724,-0.221355 -2.23958,-0.221355 h -2.3698 v 8.554688 h -5.33854 v -0.716146 h 2.31771 v -0.546875 h -2.31771 v -0.716146 h 2.31771 v -0.533854 h -2.31771 v -0.716146 h 2.31771 v -0.546875 h -2.31771 v -0.716146 h 2.31771 v -0.533854 h -2.31771 v -0.716146 h 2.31771 V 17.22469 h -2.31771 v -0.716146 h 2.31771 V 15.97469 h -2.31771 v -0.716145 h 2.31771 V 14.71167 h -2.31771 v -0.716146 h 2.31771 V 13.46167 h -2.31771 v -0.716146 h 2.31771 v -0.546875 h -2.31771 v -0.716146 h 2.31771 v -0.533854 h -2.31771 v -0.716146 h 2.31771 V 9.685628 h -2.31771 V 8.9694822 h 2.31771 V 8.435628 h -4.08854 q 0,-0.2213541 -0.0391,-0.7421875 -0.026,-0.15625 -0.026,-0.3385416 z M 324.6609,9.685628 h -1.17187 V 8.8002113 q -0.57292,-0.234375 -1.25,-0.2994791 -0.67708,-0.065104 -2.33073,-0.065104 h -1.02865 v 5.364583 h 2.9948 V 9.0866697 h 0.10416 q 0.50781,0 0.97656,0.15625 v 3.5026043 h 1.58855 q 0.22135,-0.286459 0.33854,-0.546875 h -1.39323 v -0.716146 h 1.58854 q 0.026,-0.260417 0.026,-0.3125 0,-0.0651 -0.013,-0.104167 0,-0.05208 0,-0.117187 h -1.60156 v -0.716146 h 1.45833 Q 324.83017,9.9460446 324.6609,9.685628 Z"
       id="path29" />
    <path
       d="m 337.78591,23.513753 h -4.50521 v -0.716146 h 1.96615 v -0.546875 h -1.96615 v -0.716146 h 1.96615 v -0.533854 h -1.96615 v -0.716146 h 1.96615 v -0.546875 h -1.96615 v -0.716146 h 1.96615 v -0.533854 h -1.96615 v -0.716146 h 1.96615 V 17.22469 h -1.96615 v -0.716146 h 1.96615 V 15.97469 h -1.96615 v -0.716145 h 1.96615 V 14.71167 h -1.96615 v -0.716146 h 1.96615 V 13.46167 h -3.6849 q -0.013,-0.117188 -0.013,-0.247396 l -0.0521,-0.546875 -0.026,-0.286459 h 6.45834 l -0.0391,0.325521 q -0.11719,1.132813 -0.11719,1.223959 l -0.013,0.09115 q 1.13281,-1.210937 2.65625,-1.653645 v 1.171875 q -0.8724,0.208333 -1.62761,0.703125 -0.75521,0.494791 -1.21093,1.171875 v 0.625 q 0.58593,-0.833334 1.47135,-1.380209 0.88542,-0.546875 1.875,-0.703125 v -1.705729 q 0.46875,-0.143229 1.10677,-0.169271 v 4.739583 q -0.98958,-0.872395 -2.1224,-0.872395 -0.63802,0 -1.26302,0.260416 -0.61198,0.260417 -1.0677,0.729167 v 0.09115 q -0.026,1.5625 -0.026,1.653646 0,1.783854 0.11719,3.502604 0.026,0.520833 0.11719,1.328125 z m 0.14323,1.614583 h -6.45834 q 0.11719,-1.106771 0.16928,-2.044271 0.15625,-2.539062 0.15625,-4.570312 0,-2.291667 -0.16928,-4.21875 l -0.013,-0.299479 h 1.1198 v 10.052083 h 5.10416 q 0,0.09115 0,0.15625 0.013,0.0651 0.013,0.117187 l 0.0651,0.625 q 0,0.09115 0.013,0.182292 z"
       id="path31" />
    <path
       d="m 346.95257,22.810628 v -0.559896 h -0.75521 q -0.40364,-0.351563 -0.67708,-0.716146 h 1.43229 v -0.533854 h -1.78385 q -0.1823,-0.299479 -0.32552,-0.716146 h 2.10937 v -0.546875 h -2.26562 q -0.0521,-0.221354 -0.0912,-0.625 v -0.09115 h 2.35677 v -0.533854 h -2.35677 q 0.0391,-0.390625 0.11719,-0.716146 h 2.23958 V 17.22469 h -2.08333 q 0.11718,-0.351562 0.32552,-0.716146 h 1.75781 V 15.97469 h -1.41927 q 0.2474,-0.32552 0.65104,-0.716145 h 0.76823 V 14.71167 h -2.44792 q 0.63802,-0.807292 1.60157,-1.39323 0.97656,-0.598958 2.16145,-0.911458 1.19792,-0.325521 2.51303,-0.325521 1.6276,0 3.04687,0.520834 1.41927,0.507812 2.47396,1.41927 1.05469,0.911459 1.65364,2.161459 0.59896,1.236979 0.59896,2.643229 0,1.002604 -0.26041,1.809896 -0.26042,0.79427 -0.84636,1.614583 h -3.61979 v -0.716146 h 1.57552 q 0.11719,-0.247396 0.23438,-0.533854 h -1.8099 v -0.716146 h 1.99219 q 0.0911,-0.46875 0.10416,-0.546875 h -2.09635 v -0.716146 h 2.17448 v -0.09115 -0.208333 -0.143229 -0.09115 h -2.17448 v -0.716146 h 2.1224 q -0.013,-0.208333 -0.0781,-0.546875 h -2.04427 v -0.716146 h 1.86198 q -0.15625,-0.403645 -0.20833,-0.533854 h -1.65365 v -0.716145 h 1.23698 q -0.13021,-0.208334 -0.36458,-0.481771 l -0.0521,-0.0651 h -0.82031 v -0.729167 l -0.0781,-0.03906 q -1.15886,-0.755208 -2.89063,-0.755208 -0.72917,0 -1.5625,0.195313 v 10.32552 q -1.25,-0.208333 -2.34375,-0.898437 z m -2.85156,-7.552083 h 1.41927 q -1.41927,1.614583 -1.41927,3.567708 0,1.523437 0.87239,2.8125 0.88542,1.289062 2.42188,2.03125 1.54948,0.742187 3.37239,0.742187 0.66407,0 1.44532,-0.15625 V 13.878336 q 0.63802,0.143229 1.06771,0.390625 v 8.528646 h 3.75 q -0.76823,0.885416 -1.75782,1.497396 -0.97656,0.598958 -2.12239,0.898437 -1.14584,0.3125 -2.44792,0.3125 -2.1224,0 -3.91927,-0.872396 -1.79688,-0.885416 -2.83854,-2.408854 -1.02865,-1.523437 -1.02865,-3.320312 0,-1.940104 1.1849,-3.645833 z"
       id="path33" />
    <path
       d="m 373.3458,19.737711 h -1.99219 l -0.36458,-0.716146 h 1.99219 l -0.27344,-0.533854 h -1.99219 l -0.36458,-0.716146 h 1.99219 l -2.01823,-3.971354 q 0.013,-0.02604 0.026,-0.05208 0.026,-0.03906 0.026,-0.0651 0.013,-0.02604 0.026,-0.05208 0.013,-0.02604 0.026,-0.05208 0.44271,-1.015625 0.59896,-1.445312 h 1.04167 q 0.53385,1.315104 1.3151,3.033854 0.88542,1.914062 1.5625,3.229166 l 0.20834,-0.520833 q 0.76822,-1.979167 1.10677,-2.955729 0.33854,-0.976563 0.82031,-2.539063 h 2.42187 l -0.20833,0.351563 q -1.13281,1.979167 -1.69271,3.059896 -0.55989,1.080729 -1.34114,2.760416 -1.38021,2.929688 -2.34375,5.442708 l -0.16927,0.46875 -1.48438,-2.929687 h 1.48438 l 0.24739,-0.533854 h -2.00521 l -0.36458,-0.716146 h 1.99219 z m -7.07031,0 h -1.875 l -0.33854,-0.716146 h 1.91406 l -0.22136,-0.533854 h -1.9401 l -0.32552,-0.716146 h 1.96614 l -0.22135,-0.546875 h -1.99219 l -0.33854,-0.716146 h 2.03125 l -0.22135,-0.533854 h -2.05729 l -0.33855,-0.716145 h 2.09636 l -0.22136,-0.546875 h -2.12239 l -0.32552,-0.716146 h 2.14843 L 363.6583,13.46167 h -4.29688 q -0.23437,-0.442709 -0.49479,-0.872396 l -0.13021,-0.208334 h 6.99219 q 0.22136,0.703125 0.52084,1.54948 1.01562,2.916666 1.74479,4.54427 l 0.27343,-0.520833 q 0.19532,-0.377604 0.37761,-0.729167 0.18229,-0.351562 0.39062,-0.78125 l 0.75521,-1.523437 0.2474,-0.46875 1.41927,2.773437 h -1.95313 l 3.9974,7.903646 -0.0521,0.130208 q -0.0781,0.182292 -0.10417,0.325521 h -1.04167 q -1.30208,-3.164062 -3.20312,-6.666666 -0.48177,0.872395 -0.92448,1.809895 -0.11719,0.234375 -0.36458,0.755209 -0.2474,0.520833 -0.50782,1.054687 -0.19531,0.429688 -0.3125,0.677083 -0.11718,0.247396 -0.19531,0.403646 -0.0651,0.15625 -0.14323,0.325521 l -0.15625,0.351563 -1.26302,-2.760417 h 1.41927 l 0.2474,-0.533854 h -1.92709 l -0.32552,-0.716146 h 1.84896 z m -0.29948,5.846354 h -1.00261 l -0.14323,-0.364583 q -0.85937,-2.265625 -1.54947,-3.945313 -0.97657,-2.317708 -2.44792,-5.208333 -0.53386,-1.041666 -1.13281,-2.070312 h 1.45833 l 5.07812,10.95052 q -0.0521,0.104167 -0.0781,0.182292 l -0.13021,0.3125 q 0,-0.01302 -0.0521,0.143229 z"
       id="path35" />
    <path
       d="m 390.46819,24.047607 h 5.09115 q 0.026,0.273437 0.026,0.273437 l 0.0521,0.625 q 0.013,0.02604 0.013,0.182292 h -6.45833 q 0.10417,-0.820313 0.16927,-2.044271 0.15625,-2.539062 0.15625,-4.53125 0,-1.614583 -0.0912,-3.385416 -0.013,-0.559896 -0.0781,-0.924479 0.44271,-0.15625 1.11979,-0.234375 z m 5.16927,-11.484375 -0.0391,0.351563 q -0.16927,1.705729 -0.2474,3.125 -0.0651,1.406249 -0.0651,2.526041 0,1.809896 0.10417,3.619792 0.026,0.520833 0.11718,1.328125 h -4.50521 v -0.716146 h 1.97917 v -0.546875 h -1.97917 v -0.716146 h 1.97917 v -0.533854 h -1.97917 v -0.716146 h 1.97917 v -0.546875 h -1.97917 v -0.716146 h 1.97917 v -0.533854 h -1.97917 v -0.716146 h 1.97917 V 17.22469 h -1.97917 v -0.716146 h 1.97917 V 15.97469 h -1.97917 v -0.716145 h 1.97917 V 14.71167 h -1.97917 v -0.755209 q 0.92448,-0.15625 1.77084,-0.15625 h 0.20833 v -0.507812 h -0.46875 q -0.76823,0 -1.60156,0.104166 -0.83333,0.09115 -1.64063,0.29948 -0.80729,0.195312 -1.49739,0.46875 -0.67709,0.273437 -1.30209,0.63802 l -0.11718,0.07813 -0.013,0.07813 -0.0391,0.638021 q -0.0911,1.367188 -0.0911,2.994792 0,2.825521 0.23437,4.921875 h -4.50521 v -0.716146 h 1.96615 v -0.546875 h -1.96615 v -0.716146 h 1.96615 v -0.533854 h -1.96615 v -0.716146 h 1.96615 v -0.546875 h -1.96615 v -0.716146 h 1.96615 v -0.533854 h -1.96615 v -0.716146 h 1.96615 V 17.22469 h -1.96615 v -0.716146 h 1.96615 V 15.97469 h -1.96615 v -0.716145 h 1.96615 V 14.71167 h -1.96615 v -0.716146 h 1.96615 V 13.46167 h -3.6849 q -0.013,-0.117188 -0.013,-0.247396 l -0.0521,-0.546875 -0.026,-0.286459 h 6.45833 q -0.0391,0.273438 -0.11719,1.09375 l -0.013,0.09115 0.14323,-0.0651 q 1.58854,-0.729167 2.87761,-1.015625 1.30208,-0.299479 2.95573,-0.299479 1.53645,0 3.20312,0.377604 z m -9.04948,12.565104 h -6.45833 q 0.11719,-1.106771 0.16927,-2.044271 0.15625,-2.539062 0.15625,-4.570312 0,-2.291667 -0.16927,-4.21875 l -0.013,-0.299479 h 1.11979 v 10.052083 h 5.10417 q 0,0.09115 0,0.15625 0.013,0.0651 0.013,0.117187 l 0.0651,0.625 q 0,0.09115 0.013,0.182292 z"
       id="path37" />
    <path
       d="m 168.16351,41.912193 -0.013,0.09115 q -0.0781,1.380208 -0.14323,2.903646 -0.0521,1.510416 -0.0781,3.13802 v 0.09115 h 5.89844 v 1.523438 h -5.91146 v 0.09115 q 0,3.385416 0.20833,6.627604 l 0.0391,0.46875 h -5.41666 v -0.716146 h 2.3177 v -0.546875 h -2.3177 v -0.716146 h 2.3177 v -0.533854 h -2.3177 v -0.716146 h 2.3177 v -0.546875 h -2.3177 v -0.716146 h 2.3177 v -0.533854 h -2.3177 v -0.716146 h 2.3177 v -0.546875 h -2.3177 V 49.84188 h 2.3177 v -0.533854 h -2.3177 V 48.59188 h 2.3177 v -0.546875 h -2.3177 V 47.32886 h 2.3177 v -0.533855 h -2.3177 V 46.07886 h 2.3177 v -0.546875 h -2.3177 v -0.716146 h 2.3177 v -0.533854 h -2.3177 v -0.716146 h 2.3177 v -0.546875 h -2.3177 v -0.716146 h 2.3177 v -0.533854 h -4.08854 q 0,-0.221354 -0.0391,-0.742188 -0.026,-0.15625 -0.026,-0.338541 h 12.91667 l 0.45572,2.239583 q -1.92708,-0.572917 -6.02864,-1.002604 z m -7.2526,16.549479 0.026,-0.286458 q 0.15625,-1.536459 0.23438,-3.880209 0.0911,-2.356771 0.0911,-4.934895 0,-3.177084 -0.22135,-6.666667 l -0.026,-0.390625 h 1.19791 v 15.078125 h 5.98959 q 0.013,0.546875 0.0651,1.080729 z"
       id="path39" />
    <path
       d="m 179.75205,56.143964 v -0.559896 h -0.7552 q -0.40365,-0.351563 -0.67709,-0.716146 h 1.43229 v -0.533854 h -1.78385 q -0.18229,-0.299479 -0.32552,-0.716146 h 2.10937 v -0.546875 h -2.26562 q -0.0521,-0.221354 -0.0911,-0.625 v -0.09115 h 2.35677 v -0.533854 h -2.35677 q 0.0391,-0.390625 0.11719,-0.716146 h 2.23958 v -0.546875 h -2.08333 q 0.11719,-0.351562 0.32552,-0.716146 h 1.75781 v -0.533854 h -1.41927 q 0.2474,-0.325521 0.65105,-0.716146 h 0.76822 v -0.546875 h -2.44791 q 0.63802,-0.807291 1.60156,-1.393229 0.97656,-0.598958 2.16146,-0.911458 1.19792,-0.325521 2.51302,-0.325521 1.6276,0 3.04687,0.520833 1.41928,0.507813 2.47396,1.419271 1.05469,0.911459 1.65365,2.161459 0.59896,1.236979 0.59896,2.643229 0,1.002604 -0.26042,1.809895 -0.26042,0.794271 -0.84635,1.614584 h -3.6198 v -0.716146 h 1.57553 q 0.11718,-0.247396 0.23437,-0.533854 h -1.8099 v -0.716146 h 1.99219 q 0.0911,-0.46875 0.10417,-0.546875 h -2.09636 v -0.716146 h 2.17448 v -0.09115 -0.208333 -0.143229 -0.09115 h -2.17448 v -0.716146 h 2.1224 q -0.013,-0.208333 -0.0781,-0.546875 h -2.04428 V 49.84188 h 1.86198 q -0.15625,-0.403645 -0.20833,-0.533854 h -1.65365 V 48.59188 h 1.23698 q -0.1302,-0.208333 -0.36458,-0.48177 l -0.0521,-0.0651 h -0.82032 v -0.729166 l -0.0781,-0.03906 q -1.15885,-0.755208 -2.89063,-0.755208 -0.72916,0 -1.5625,0.195312 v 10.325521 q -1.25,-0.208333 -2.34375,-0.898437 z m -2.85156,-7.552084 h 1.41927 q -1.41927,1.614584 -1.41927,3.567709 0,1.523437 0.8724,2.8125 0.88541,1.289062 2.42187,2.03125 1.54948,0.742187 3.3724,0.742187 0.66406,0 1.44531,-0.15625 V 47.211672 q 0.63802,0.143229 1.06771,0.390625 v 8.528646 h 3.75 q -0.76823,0.885416 -1.75781,1.497396 -0.97657,0.598958 -2.1224,0.898437 -1.14583,0.3125 -2.44792,0.3125 -2.12239,0 -3.91927,-0.872396 -1.79687,-0.885416 -2.83854,-2.408854 -1.02864,-1.523437 -1.02864,-3.320312 0,-1.940104 1.18489,-3.645834 z"
       id="path41" />
    <path
       d="m 200.19476,51.821047 h -2.22656 l -0.44271,-0.716146 h 2.22656 l -0.33854,-0.546875 h -2.22656 l -0.45573,-0.716146 h 2.22656 l -0.32552,-0.533854 h -2.22656 l -0.45573,-0.716146 h 2.22656 l -0.33854,-0.546875 h -2.22656 l -0.44271,-0.716145 h 2.22656 l -0.33854,-0.533855 h -4.38802 q -0.11719,-0.15625 -0.26042,-0.338541 -0.1302,-0.182292 -0.3776,-0.507813 l -0.16927,-0.234375 h 7.34375 l 0.22135,0.416667 1.19792,2.265625 q 0.20833,0.403646 0.83333,1.536458 l 0.0521,0.07813 q 0.026,-0.0651 0.0911,-0.130208 0.18229,-0.195313 0.76823,-1.106771 0.0911,-0.130208 0.2474,-0.390625 0.15625,-0.260417 0.23437,-0.377604 l 1.27604,-2.070313 q 0.013,-0.01302 0.13021,-0.221354 h 2.39584 l -0.26042,0.299479 q -2.44792,2.734375 -4.07552,4.921875 -0.0391,0.05208 -0.15625,0.208334 l 0.0521,0.0651 q 0.36459,0.611979 1.02865,1.653646 0.67708,1.041666 1.28906,1.966145 0.625,0.911459 1.13281,1.601563 l 0.28646,0.416667 h -4.84375 l -0.45573,-0.716146 h 2.25261 l -0.33855,-0.546875 h -2.2526 l -0.44271,-0.716146 h 2.23959 l -0.33855,-0.533854 h -2.23958 l -0.44271,-0.716146 h 2.23959 l -0.33855,-0.546875 h -2.23958 l -0.44271,-0.716146 h 2.22656 z m -3.73698,0.546875 q -0.0391,-0.0651 -0.11718,-0.195313 -1.75782,-2.877604 -3.28125,-4.843749 h 1.53645 l 6.27605,10.052083 h 5.45573 q 0.15625,0.195312 0.20833,0.247396 l 0.46875,0.598958 q 0.10417,0.104166 0.20833,0.234375 h -7.46094 q -0.98958,-2.174479 -2.51302,-4.804688 l -0.0391,-0.0651 -0.0651,0.0651 q -0.42969,0.572917 -1.47136,2.200521 -0.3125,0.494792 -0.50781,0.807292 -0.18229,0.299479 -0.39062,0.611979 -0.19532,0.299479 -0.33855,0.520833 -0.1302,0.208334 -0.22135,0.364584 l -0.16927,0.299479 h -2.5 q 0.24739,-0.299479 0.3125,-0.351563 l 2.42187,-2.955729 q 0.83334,-1.015625 1.23698,-1.536458 0.44271,-0.546875 0.80729,-1.054688 0.0521,-0.0651 0.0781,-0.117187 0.0391,-0.05208 0.0651,-0.07813 z"
       id="path43" />
    <path
       d="m 225.80674,40.688235 -0.026,0.338541 q -0.11719,1.276042 -0.18229,2.591146 -0.0651,1.302083 -0.10417,3.138021 -0.0391,1.822917 -0.0391,3.697917 0,0.807291 0.026,1.614583 l 0.0391,0.9375 v 0.3125 q 0,0.716146 -0.16927,1.236979 -0.16927,0.507812 -0.61198,1.028646 h -4.4401 v -0.716146 h 2.30469 v -0.533854 h -2.30469 v -0.716146 h 2.30469 v -0.546875 h -2.30469 v -0.716146 h 2.30469 v -0.533854 h -2.30469 v -0.716146 h 2.30469 v -0.546875 h -2.30469 V 49.84188 h 2.30469 v -0.533854 h -2.30469 V 48.59188 h 2.30469 v -0.546875 h -2.30469 V 47.32886 h 2.30469 v -0.533855 h -2.30469 V 46.07886 h 2.30469 v -0.546875 h -2.30469 v -0.716146 h 2.30469 v -0.533854 h -2.30469 v -0.716146 h 2.30469 v -0.546875 h -2.30469 v -0.716146 h 2.30469 v -0.533854 h -4.07552 q -0.013,-0.09115 -0.013,-0.117188 0,-0.03906 -0.013,-0.130208 0,-0.104167 -0.026,-0.494792 0,-0.0651 -0.013,-0.16927 0,-0.104167 -0.013,-0.169271 z m -7.2526,1.614583 h 1.19791 v 13.828125 h 4.53125 q -1.01562,0.9375 -3.07291,1.940104 -2.04427,1.002604 -4.57031,1.770833 l -0.78125,-1.106771 q 0.74218,-0.429687 1.25,-0.859375 0.50781,-0.442708 0.80729,-0.898437 0.3125,-0.46875 0.49479,-1.119792 0.22135,-0.768229 0.29948,-2.34375 0.0911,-1.432291 0.0911,-4.335937 0,-3.072917 -0.22135,-6.484375 z"
       id="path45" />
    <path
       d="m 243.82758,58.461672 h -6.36719 q 0.0521,-0.390625 0.0911,-1.015625 l 0.013,-0.299479 q -2.44791,1.588541 -5.40364,1.588541 -1.01563,0 -2.01823,-0.208333 -0.98958,-0.195313 -1.78385,-0.533854 l 0.013,-0.09115 q 0.10416,-0.625 0.15625,-1.705729 0.026,-0.403646 0.0911,-2.317708 0.0521,-1.575521 0.0521,-2.057292 0,-2.291667 -0.16928,-4.192708 l -0.013,-0.299479 h 1.1198 v 10.052083 q 1.10677,0.221354 2.1875,0.221354 1.52343,0 3.02083,-0.46875 1.51042,-0.46875 2.76042,-1.341146 0.013,-0.104167 0.026,-0.546875 l 0.10416,-3.398437 q 0,-0.703125 -0.0391,-1.536459 -0.0521,-1.848958 -0.15625,-2.98177 h 1.13281 v 10.052083 h 5.09115 q 0.026,0.273437 0.026,0.273437 l 0.0521,0.625 q 0.013,0.02604 0.013,0.182292 z m -11.70573,-2.330729 v -0.546875 h -1.96615 v -0.716146 h 1.96615 v -0.533854 h -1.96615 v -0.716146 h 1.96615 v -0.546875 h -1.96615 v -0.716146 h 1.96615 v -0.533854 h -1.96615 v -0.716146 h 1.96615 V 50.558026 H 230.1557 V 49.84188 h 1.96615 V 49.308026 H 230.1557 V 48.59188 h 1.96615 V 48.045005 H 230.1557 V 47.32886 h 1.96615 v -0.533855 h -3.6849 q -0.013,-0.104166 -0.013,-0.247395 l -0.0521,-0.546875 -0.026,-0.286459 h 6.45834 l -0.0391,0.325521 q -0.33855,3.007813 -0.33855,5.9375 0,2.1875 0.15625,4.088542 l 0.0391,0.429687 v 0.143229 q -1.47136,0.46875 -2.92969,0.46875 -0.8724,0 -1.53646,-0.117187 v -0.859375 z m 9.03645,-8.802083 v -0.533855 h -3.69791 q 0,-0.104166 -0.013,-0.143229 0,-0.05208 0,-0.104166 l -0.0521,-0.546875 -0.026,-0.286459 h 6.45834 l -0.026,0.325521 q -0.33854,3.007813 -0.33854,5.9375 0,2.630208 0.22136,4.869792 h -4.50521 v -0.716146 h 1.97916 v -0.546875 h -1.97916 v -0.716146 h 1.97916 v -0.533854 h -1.97916 v -0.716146 h 1.97916 v -0.546875 h -1.97916 v -0.716146 h 1.97916 v -0.533854 h -1.97916 v -0.716146 h 1.97916 v -0.546875 h -1.97916 V 49.84188 h 1.97916 v -0.533854 h -1.97916 V 48.59188 h 1.97916 v -0.546875 h -1.97916 V 47.32886 Z"
       id="path47" />
    <path
       d="m 261.18434,46.912193 q 1.19792,-0.664063 2.78646,-1.028646 1.58854,-0.364583 3.22917,-0.364583 0.9375,0 2.36979,0.221354 0.0912,0.02604 0.42969,0.0651 l -0.013,0.117188 -0.013,0.117187 q -0.32552,3.541667 -0.32552,5.898437 0,2.760417 0.22135,4.908855 h -4.50521 v -0.716146 h 1.97917 v -0.546875 h -1.97917 v -0.716146 h 1.97917 v -0.533854 h -1.97917 v -0.716146 h 1.97917 v -0.546875 h -1.97917 v -0.716146 h 1.97917 v -0.533854 h -1.97917 v -0.716146 h 1.97917 v -0.546875 h -1.97917 V 49.84188 h 1.97917 v -0.533854 h -1.97917 V 48.59188 h 1.97917 v -0.546875 h -1.97917 V 47.34188 q 1.1849,-0.16927 1.97917,-0.16927 v -0.546875 q -3.51563,0.07813 -6.27604,1.640625 v 0.09115 l -0.0391,0.572917 q -0.0911,1.276042 -0.0911,2.942708 0,2.799479 0.22135,4.973959 h -4.50521 v -0.716146 h 1.97917 v -0.546875 h -1.97917 v -0.716146 h 1.97917 v -0.533854 h -1.97917 v -0.716146 h 1.97917 v -0.546875 h -1.97917 v -0.716146 h 1.97917 v -0.533854 h -1.97917 v -0.716146 h 1.97917 v -0.546875 h -1.97917 V 49.84188 h 1.97917 v -0.533854 h -1.97917 V 48.59188 h 1.97917 v -0.546875 h -1.97917 V 47.34188 q 1.1849,-0.16927 1.97917,-0.16927 v -0.546875 q -3.51562,0.07813 -6.27604,1.640625 v 0.09115 q -0.13021,1.692709 -0.13021,3.671875 0,1.822917 0.11719,3.489584 0.026,0.520833 0.11719,1.328125 h -4.50521 v -0.716146 h 1.96614 v -0.546875 h -1.96614 v -0.716146 h 1.96614 v -0.533854 h -1.96614 v -0.716146 h 1.96614 v -0.546875 h -1.96614 v -0.716146 h 1.96614 v -0.533854 h -1.96614 v -0.716146 h 1.96614 v -0.546875 h -1.96614 V 49.84188 h 1.96614 v -0.533854 h -1.96614 V 48.59188 h 1.96614 v -0.546875 h -1.96614 V 47.32886 h 1.96614 v -0.533855 h -3.68489 q -0.013,-0.117187 -0.013,-0.247395 l -0.0521,-0.546875 -0.026,-0.286459 h 6.45833 q -0.013,0.143229 -0.11718,1.106771 l -0.013,0.09115 q 1.18489,-0.651042 2.76041,-1.015625 1.57552,-0.377604 3.16407,-0.377604 1.49739,0 2.89062,0.286458 l -0.026,0.234375 q -0.0651,0.677083 -0.0651,0.78125 z m -5.0651,10.46875 h 5.10417 q 0,0.09115 0,0.15625 0.013,0.0651 0.013,0.117187 l 0.0651,0.625 q 0,0.09115 0.013,0.182292 h -6.47135 q 0.0911,-0.755208 0.18229,-2.044271 0.14323,-2.65625 0.14323,-4.361979 0,-0.299479 -0.026,-2.122396 -0.0391,-1.445312 -0.10417,-1.940104 -0.026,-0.15625 -0.026,-0.273437 0.45573,-0.15625 0.92448,-0.260417 l 0.18229,-0.03906 z m 8.71094,0 h 5.09114 q 0.026,0.273437 0.026,0.273437 l 0.0521,0.625 q 0.013,0.02604 0.013,0.182292 h -6.45833 q 0.10416,-0.833333 0.16927,-2.044271 0.15625,-2.473958 0.15625,-4.361979 0,-0.299479 -0.026,-2.122396 -0.0391,-1.302083 -0.11718,-1.940104 -0.013,-0.221354 -0.026,-0.273437 0.50781,-0.169271 0.92447,-0.260417 l 0.19532,-0.03906 z m -12.22657,1.080729 h -6.45833 q 0.11719,-1.106771 0.16927,-2.044271 0.15625,-2.539062 0.15625,-4.570312 0,-2.291667 -0.16927,-4.21875 l -0.013,-0.299479 h 1.11979 v 10.052083 h 5.10417 q 0,0.09115 0,0.15625 0.013,0.0651 0.013,0.117187 l 0.0651,0.625 q 0,0.09115 0.013,0.182292 z"
       id="path49" />
    <path
       d="m 278.68435,48.253339 v 0.07813 q -0.0781,1.380208 -0.11719,2.161458 -0.026,0.78125 -0.0651,1.705729 -0.026,0.924479 -0.0521,1.783854 -0.013,0.846354 -0.013,1.679688 l 0.013,1.067708 v 0.09115 q 0.013,0 0.026,0.01302 0.013,0.01302 0.013,0.01302 l 0.0911,0.0651 q 0.5599,0.403646 1.36719,0.638021 0.82031,0.234375 1.5625,0.234375 0.0521,0 0.49479,-0.02604 V 47.068443 q 0.3125,-0.07813 0.65104,-0.07813 0.10417,0 0.41667,0.02604 v 10.364583 h 3.20312 q -0.9375,0.820312 -1.9401,1.171875 -1.00261,0.351562 -2.30469,0.351562 -2.09635,0 -3.56771,-0.898437 v 0.07813 q 0.0391,2.122395 0.19531,4.583333 l 0.026,0.455729 h -4.50521 v -0.716146 h 1.96614 V 61.87313 h -1.96614 v -0.716146 h 1.96614 v -0.546875 h -1.96614 v -0.716146 h 1.96614 v -0.533854 h -1.96614 v -0.716146 h 1.96614 v -0.546874 h -1.96614 v -0.716146 h 1.96614 v -0.533854 h -1.96614 v -0.716146 h 1.96614 v -0.546875 h -1.96614 v -0.716146 h 1.96614 v -0.533854 h -1.96614 v -0.716146 h 1.96614 v -0.546875 h -1.96614 v -0.716146 h 1.96614 v -0.533854 h -1.96614 v -0.716146 h 1.96614 v -0.546875 h -1.96614 V 49.84188 h 1.96614 v -0.533854 h -1.96614 V 48.59188 h 1.96614 v -0.546875 h -1.96614 V 47.32886 h 1.96614 v -0.533855 h -3.76302 l -0.013,-0.286458 q -0.013,-0.208333 -0.026,-0.390625 0,-0.195312 -0.013,-0.403646 h 6.23698 l -0.026,1.223959 q 1.88802,-1.5625 4.1276,-1.5625 1.23698,0 2.30469,0.48177 1.06771,0.46875 1.82292,1.354167 0.7552,0.872396 1.17187,2.070313 0.42969,1.184895 0.42969,2.656249 0,2.838542 -1.66667,4.908855 h -3.15104 v -0.716146 h 1.3151 q 0.16927,-0.299479 0.26042,-0.46875 l 0.0391,-0.07813 h -1.61458 v -0.716146 h 1.92708 q 0.0521,-0.130208 0.18229,-0.533854 h -2.10937 v -0.716146 h 2.2526 q 0.026,-0.15625 0.0651,-0.429688 l 0.013,-0.117187 h -2.33073 v -0.716146 h 2.36979 q 0.013,-0.143229 0.013,-0.338542 v -0.195312 h -2.38281 v -0.716146 h 2.34375 l -0.013,-0.169271 q -0.026,-0.299479 -0.026,-0.286458 v -0.09115 h -2.30469 V 49.84188 h 2.1875 q -0.026,-0.195312 -0.10417,-0.455729 l -0.013,-0.07813 h -2.07031 V 48.59188 h 1.8099 q -0.10417,-0.234375 -0.26042,-0.546875 h -1.54948 v -0.989583 q 0.53385,0.0651 1.11979,0.390625 -0.3125,-0.481771 -0.61198,-0.716146 -0.72916,-0.273437 -1.48437,-0.273437 -1.08073,0 -2.13542,0.481771 -1.04167,0.48177 -1.78385,1.315104 z m -6.35417,16.497395 0.026,-0.286458 q 0.0781,-0.78125 0.15625,-2.278646 0.0781,-1.497396 0.11719,-3.151042 0.0521,-1.653645 0.0521,-3.072916 0,-1.5625 -0.0521,-3.606771 -0.013,-1.393229 -0.0781,-2.773437 -0.026,-0.924479 -0.0911,-1.861979 l -0.026,-0.390625 h 1.19791 v 16.341145 h 5.09115 q 0.013,0.286458 0.0651,1.080729 z"
       id="path51" />
    <path
       d="m 301.26247,46.417401 v 2.018229 q -2.8125,-1.861979 -5.71614,-1.861979 -1.32813,0 -2.3698,0.442709 -1.04166,0.429687 -1.6276,1.197916 -0.58594,0.768229 -0.58594,1.731771 0,0.846354 0.46875,1.40625 0.48177,0.559896 1.78386,1.236979 l 6.44531,3.346354 q -0.23438,0.273438 -0.41667,0.416667 -0.18229,0.130208 -0.53385,0.299479 l -5.32552,-2.773437 q -1.26302,-0.664063 -1.65365,-0.885417 -0.3776,-0.234375 -0.71614,-0.520833 -0.5599,-0.481771 -0.85938,-1.145834 -0.29948,-0.664062 -0.29948,-1.380208 0,-1.992187 1.74479,-3.28125 1.74479,-1.302083 4.40104,-1.302083 1.30209,0 2.7474,0.299479 1.44531,0.286458 2.51302,0.755208 z m -3.65885,7.838542 1.15885,-1.601563 -0.48177,-0.247396 -1.17187,1.601563 -0.63803,-0.338542 1.17188,-1.601562 -0.48177,-0.247396 -1.17188,1.601562 -0.65104,-0.338541 1.17188,-1.601563 -0.48177,-0.247395 -1.17188,1.601562 -0.63802,-0.338542 1.15885,-1.601562 -0.48177,-0.247396 -1.15885,1.601562 -0.18229,-0.09115 q -0.0391,-0.02604 -0.0912,-0.05208 -0.0521,-0.02604 -0.10416,-0.05208 l -0.19532,-0.104167 q 0,0 -0.013,0 -0.013,-0.01302 -0.0651,-0.03906 l 1.17187,-1.601563 -0.49479,-0.247395 -1.14583,1.57552 q -0.39063,-0.247396 -0.57292,-0.416666 l 1.08073,-1.497396 -0.48177,-0.247396 -0.95052,1.302083 q -0.22136,-0.403645 -0.22136,-0.820312 0,-0.807292 0.50782,-1.458333 0.52083,-0.664063 1.41927,-1.054688 l 5.10416,2.604167 q 1.83594,0.950521 2.40886,1.445312 0.53385,0.455729 0.83333,1.145833 0.29948,0.677084 0.29948,1.458334 0,0.963541 -0.46875,1.888021 -0.46875,0.924479 -1.27604,1.549479 -0.54688,0.442708 -1.3151,0.755208 -0.75521,0.299479 -1.61459,0.455729 -0.85937,0.15625 -1.84896,0.15625 -3.22916,0 -5.70312,-1.302083 v -2.421875 q 1.51042,1.223958 3.125,1.861979 1.61458,0.638021 3.1901,0.638021 1.35417,0 2.46094,-0.442708 1.10677,-0.45573 1.71875,-1.263021 0.625,-0.807292 0.625,-1.809896 0,-0.234375 -0.0521,-0.416667 l -0.50782,-0.273437 q 0.0912,0.403646 0.0912,0.716146 0,0.677083 -0.42969,1.328125 l -1.3151,-0.677084 1.17187,-1.601562 -0.48177,-0.260417 -1.17187,1.614583 z"
       id="path53" />
    <path
       d="m 317.66872,54.867922 h 0.89843 v -0.533854 h -1.36718 l -0.0651,-0.07813 q -0.24739,-0.325521 -0.39062,-0.559896 l -0.0521,-0.07813 h 1.875 v -0.546875 h -2.16145 q -0.1823,-0.364583 -0.3125,-0.716146 h 2.47395 v -0.533854 h -2.65625 q -0.0911,-0.273438 -0.18229,-0.638021 l -0.013,-0.07813 h 2.85156 v -0.546875 h -2.95573 q -0.0521,-0.3125 -0.0651,-0.716146 h 3.02083 v -0.533854 h -3.02083 q 0.026,-0.364583 0.0521,-0.651041 l 0.013,-0.0651 h 2.95573 v -0.546875 h -2.85156 q 0.0781,-0.351562 0.16927,-0.625 l 0.026,-0.09115 h 2.65625 v -0.533855 h -2.46093 q 0.0651,-0.16927 0.28645,-0.63802 l 0.0391,-0.07813 h 2.13541 v -0.546875 h -1.83593 q 0.22135,-0.351563 0.49479,-0.716146 h 1.34114 v -0.533854 h -0.85937 q 0.3125,-0.325521 0.85937,-0.742188 v -0.520833 h -1.97916 q 2.99479,-2.695313 6.91406,-2.695313 2.07031,0 3.86719,0.690105 1.79687,0.690104 3.15104,1.979166 1.36719,1.276042 2.09635,2.955729 0.74219,1.666667 0.74219,3.632813 0,3.359375 -2.2526,6.002604 h -3.9323 v -0.716146 h 1.61459 q 0.10416,-0.195313 0.27344,-0.533854 h -1.88803 v -0.716146 h 2.17448 q 0.0521,-0.143229 0.0781,-0.247396 0.0391,-0.104167 0.0651,-0.208333 l 0.026,-0.09115 h -2.34375 v -0.716146 h 2.52605 q 0.013,-0.09115 0.026,-0.182292 0.026,-0.104166 0.0521,-0.260416 l 0.013,-0.09115 h -2.61719 v -0.716146 h 2.72136 v -0.07813 q 0.0391,-0.3125 0.0391,-0.46875 h -2.76042 V 49.84188 h 2.79948 v -0.390625 -0.143229 h -2.79948 V 48.59188 h 2.77344 q 0,-0.09115 -0.013,-0.15625 0,-0.07813 -0.026,-0.260416 l -0.013,-0.130209 h -2.72136 V 47.32886 h 2.63021 l -0.013,-0.09115 q 0,-0.05208 -0.0521,-0.338542 l -0.026,-0.104167 h -2.53907 V 46.07886 h 2.38282 q -0.026,-0.104167 -0.026,-0.09115 l -0.11719,-0.364584 q 0,0.01302 -0.026,-0.09115 h -2.21355 v -0.716146 h 1.92709 q -0.10417,-0.247396 -0.28646,-0.533854 h -1.64063 v -0.716146 h 1.14584 q -0.28646,-0.351563 -0.50781,-0.546875 h -0.63803 v -0.481771 q -0.7552,-0.520833 -1.79687,-0.794271 -1.02865,-0.286458 -2.08333,-0.286458 -0.79427,0 -1.67969,0.195312 V 57.02938 q -2.13542,-0.351562 -3.94531,-2.161458 z m 8.95833,1.263021 h 3.89323 q -0.92448,0.911458 -2.00521,1.510416 -1.08073,0.598959 -2.34375,0.898438 -1.25,0.3125 -2.63021,0.3125 -1.9401,0 -3.65885,-0.638021 -1.70573,-0.638021 -3.04688,-1.861979 -1.43229,-1.315104 -2.23958,-3.111979 -0.79427,-1.809896 -0.79427,-3.658854 0,-1.614584 0.55989,-3.138021 0.57292,-1.523438 1.69271,-2.877604 h 1.69271 q -1.32812,1.171875 -2.04427,2.760416 -0.70312,1.575521 -0.70312,3.307292 0,1.080729 0.32552,2.174479 0.32552,1.09375 0.9375,2.057292 0.61198,0.950521 1.47135,1.757812 2.31771,2.083334 5.70313,2.083334 1.01562,0 2.12239,-0.195313 v -15.15625 q 0.5599,0.15625 1.06771,0.481771 z"
       id="path55" />
    <path
       d="m 342.25204,53.071047 h -2.04427 l -0.40364,-0.716146 h 2.07031 l -0.28646,-0.533854 h -2.09635 l -0.40365,-0.716146 h 2.1224 l -0.28646,-0.546875 h -2.13542 l -0.40364,-0.716146 h 2.16146 l -0.28646,-0.533854 h -2.1875 l -0.40365,-0.716146 h 2.21354 l -0.28646,-0.546875 h -2.22656 l -0.40364,-0.716145 h 2.2526 l -0.28646,-0.533855 h -4.42708 q -0.26042,-0.390625 -0.58594,-0.846354 -0.013,-0.01302 -0.026,-0.03906 -0.026,-0.03906 -0.0651,-0.09115 -0.0521,-0.0651 -0.0781,-0.104167 h 7.33073 q 0.3125,0.78125 0.88542,1.992188 0.97656,1.979166 2.08333,3.984375 l 0.20833,0.377604 q 0.74219,-1.419271 1.61459,-3.4375 0.76823,-1.731771 1.15885,-2.916667 h 2.53906 q -0.76823,1.067709 -1.43229,2.122396 -0.65104,1.054688 -1.39323,2.34375 -0.96354,1.679687 -1.52344,2.708333 -0.54687,1.028646 -1.39322,2.760417 -0.74219,1.549479 -0.97657,2.096354 l -1.6276,-2.877604 h 1.65364 l 0.3125,-0.533854 h -2.26562 l -0.41667,-0.716146 h 2.03125 z m -7.36979,-5.742187 h 1.52344 l 6.19792,10.963541 q -0.14323,0.3125 -0.15625,0.351562 l -0.0651,0.15625 h -1.10677 q -0.39062,-0.976562 -0.96354,-2.148437 -0.57292,-1.184896 -1.41927,-2.708333 -2.14844,-3.880208 -3.84115,-6.380208 z"
       id="path57" />
    <path
       d="m 353.26768,56.130943 h 0.48177 v -0.546875 h -1.13281 q -0.35156,-0.351563 -0.59896,-0.716146 h 1.73177 v -0.533854 h -2.04427 q -0.18229,-0.351563 -0.28646,-0.677084 l -0.013,-0.03906 h 2.34375 v -0.546875 h -2.47396 q -0.0781,-0.325521 -0.0911,-0.716146 h 2.5651 v -0.533854 h -2.55208 q 0.026,-0.338542 0.10416,-0.716146 h 2.44792 v -0.546875 h -2.27865 q 0.0912,-0.273437 0.3125,-0.716146 h 1.96615 v -0.533854 h -1.6276 q 0.29948,-0.429687 0.58593,-0.716146 h 1.04167 v -0.546875 h -2.66927 q 1.09375,-1.302083 2.65625,-1.992187 1.5625,-0.690104 3.4375,-0.690104 1.30208,0 2.48698,0.364583 1.18489,0.364583 2.12239,1.054688 0.95053,0.690104 1.60157,1.653645 0.66406,0.963542 0.92448,2.122396 h -3.72396 V 49.84188 h 1.32812 q -0.0651,-0.3125 -0.14323,-0.533854 h -1.18489 V 48.59188 h 0.84635 q -0.13021,-0.221354 -0.3776,-0.546875 h -0.46875 v -0.455729 q -0.5599,-0.507812 -1.44531,-0.807291 -0.8724,-0.29948 -1.8099,-0.29948 -0.61198,0 -1.25,0.169271 v 4.453125 h 2.90365 v -3.828125 q 0.61197,0.15625 1.0677,0.520834 v 3.307291 h 4.36198 q 0.14323,0.520833 0.16927,1.067708 h -8.5026 v 4.921875 q -1.64063,-0.143229 -2.8125,-0.963541 z m 10.03906,-1.158854 0.83334,1.458333 q -2.96875,2.421875 -6.82292,2.421875 -1.70573,0 -3.11198,-0.46875 -1.39323,-0.481771 -2.44792,-1.380208 -1.05468,-0.911459 -1.61458,-2.122396 -0.5599,-1.223959 -0.5599,-2.682292 0,-2.005208 1.13282,-3.606771 h 1.3802 q -0.71614,0.846355 -1.0677,1.744792 -0.33855,0.885417 -0.33855,1.835937 0,1.106771 0.45573,2.17448 0.46875,1.067708 1.30209,1.822916 1.67968,1.497396 4.40104,1.497396 2.60417,0 4.7526,-1.341146 0.66407,-0.416666 1.70573,-1.354166 z"
       id="path59" />
    <path
       d="m 372.77288,56.847089 h -4.50521 v -0.716146 h 1.96615 v -0.546875 h -1.96615 v -0.716146 h 1.96615 v -0.533854 h -1.96615 v -0.716146 h 1.96615 v -0.546875 h -1.96615 v -0.716146 h 1.96615 v -0.533854 h -1.96615 v -0.716146 h 1.96615 v -0.546875 h -1.96615 V 49.84188 h 1.96615 v -0.533854 h -1.96615 V 48.59188 h 1.96615 v -0.546875 h -1.96615 V 47.32886 h 1.96615 v -0.533855 h -3.6849 q -0.013,-0.117187 -0.013,-0.247395 l -0.0521,-0.546875 -0.026,-0.286459 h 6.45834 l -0.0391,0.325521 q -0.11718,1.132813 -0.11718,1.223958 l -0.013,0.09115 q 1.13281,-1.210937 2.65625,-1.653646 v 1.171875 q -0.8724,0.208334 -1.62761,0.703125 -0.75521,0.494792 -1.21094,1.171875 v 0.625 q 0.58594,-0.833333 1.47136,-1.380208 0.88542,-0.546875 1.875,-0.703125 v -1.705729 q 0.46875,-0.143229 1.10677,-0.169271 v 4.739583 q -0.98958,-0.872395 -2.1224,-0.872395 -0.63802,0 -1.26302,0.260416 -0.61198,0.260417 -1.06771,0.729167 v 0.09115 q -0.026,1.5625 -0.026,1.653645 0,1.783855 0.11719,3.502605 0.026,0.520833 0.11719,1.328125 z m 0.14323,1.614583 h -6.45834 q 0.11719,-1.106771 0.16927,-2.044271 0.15625,-2.539062 0.15625,-4.570312 0,-2.291667 -0.16927,-4.21875 l -0.013,-0.299479 h 1.11979 v 10.052083 h 5.10417 q 0,0.09115 0,0.15625 0.013,0.0651 0.013,0.117187 l 0.0651,0.625 q 0,0.09115 0.013,0.182292 z"
       id="path61" />
    <path
       d="m 164.75205,75.857508 q 0.48178,-0.0651 1.19792,-0.104167 v 14.960938 h 5.98958 q 0.013,0.286458 0.0651,1.080729 h -7.35677 l 0.026,-0.286459 q 0.13021,-1.432291 0.23437,-3.958333 0.026,-0.598958 0.0391,-1.197916 0.026,-0.598959 0.0391,-1.184896 0.026,-0.859375 0.026,-1.601563 l -0.0651,-4.153645 q -0.0391,-2.617188 -0.19532,-3.554688 z m 7.13542,-0.507812 v 0.09115 q -0.23437,3.854167 -0.23437,7.578125 0,3.723958 0.20833,6.692708 l 0.0391,0.46875 h -5.40364 v -0.716145 h 2.30468 v -0.546875 h -2.30468 v -0.716146 h 2.30468 v -0.533854 h -2.30468 v -0.716146 h 2.30468 v -0.546875 h -2.30468 v -0.716146 h 2.30468 v -0.533854 h -2.30468 v -0.716146 h 2.30468 v -0.546875 h -2.30468 v -0.716146 h 2.30468 v -0.533854 h -2.30468 v -0.716146 h 2.30468 v -0.546875 h -2.30468 v -0.716146 h 2.30468 v -0.533854 h -2.30468 v -0.716145 h 2.30468 v -0.546875 h -2.30468 v -0.716146 h 2.30468 v -0.533854 h -2.30468 v -0.716146 h 2.30468 V 76.3523 h -2.29166 v -0.625 l 0.23437,-0.01302 q 1.17188,-0.07813 1.82292,-0.07813 h 0.23437 V 75.1023 q -2.21354,0.02604 -4.4401,0.299479 -2.22656,0.260417 -4.49219,0.78125 l -0.33854,0.07813 0.48177,-2.239583 h 16.62761 l 0.48177,2.239583 q -2.1224,-0.559896 -5.10417,-0.898438 z"
       id="path63" />
    <path
       d="m 184.42653,80.245529 q 1.04167,-0.611979 2.66927,-1.002604 1.62761,-0.390625 3.28125,-0.390625 1.54948,0 3.22917,0.377604 l -0.0391,0.351562 q -0.16927,1.705729 -0.2474,3.138021 -0.0651,1.419271 -0.0651,2.552083 0,2.760417 0.22135,4.908854 h -4.50521 v -0.716145 h 1.97917 v -0.546875 h -1.97917 v -0.716146 h 1.97917 v -0.533854 h -1.97917 v -0.716146 h 1.97917 v -0.546875 h -1.97917 v -0.716146 h 1.97917 v -0.533854 h -1.97917 v -0.716146 h 1.97917 v -0.546875 h -1.97917 v -0.716146 h 1.97917 v -0.533854 h -1.97917 v -0.716146 h 1.97917 v -0.546875 h -1.97917 v -0.755208 q 0.92448,-0.15625 1.77084,-0.15625 h 0.20833 V 79.95907 h -0.46875 q -1.02865,0 -2.1224,0.182292 -1.08072,0.182292 -2.05729,0.494792 -0.96354,0.3125 -1.75781,0.768229 l -0.10417,0.0651 -0.0391,0.02604 v 0.09115 q -0.013,0.3125 -0.013,1.197916 0,2.083334 0.0521,3.710938 0.0651,1.627604 0.16927,3.216145 l 0.026,0.46875 h -4.51823 v -0.716145 h 1.97916 v -0.546875 h -1.97916 v -0.716146 h 1.97916 v -0.533854 h -1.97916 v -0.716146 h 1.97916 v -0.546875 h -1.97916 v -0.716146 h 1.97916 v -0.533854 h -1.97916 v -0.716146 h 1.97916 v -0.546875 h -1.97916 v -0.716146 h 1.97916 v -0.533854 h -1.97916 v -0.716146 h 1.97916 v -0.546875 h -1.97916 v -0.716146 h 1.97916 v -0.533854 h -1.97916 v -0.716145 h 1.97916 v -0.546875 h -1.97916 v -0.716146 h 1.97916 v -0.533854 h -1.97916 v -0.716146 h 1.97916 V 76.3523 h -1.97916 v -0.716146 h 1.97916 V 75.1023 h -3.75 q 0,-0.221354 -0.0521,-0.742188 0,-0.09115 -0.013,-0.169271 0,-0.07813 0,-0.16927 h 6.45833 l -0.026,0.338541 q -0.22135,2.460938 -0.28646,5.794271 z m 4.01042,10.46875 h 5.09114 q 0.026,0.286458 0.026,0.273437 l 0.0521,0.625 q 0,0 0.026,0.182292 h -6.47135 q 0.10416,-0.820313 0.16927,-2.044271 0.15625,-2.539063 0.15625,-4.53125 0,-1.614583 -0.0911,-3.385417 -0.013,-0.559895 -0.0781,-0.924479 0.44271,-0.15625 1.11979,-0.234375 z m -10.15625,1.080729 0.026,-0.286459 q 0.15625,-1.536458 0.23438,-3.880208 0.0911,-2.356771 0.0911,-4.934896 0,-3.177083 -0.22135,-6.666666 l -0.026,-0.390625 h 1.19791 v 15.078125 h 5.09115 q 0.013,0.286458 0.0651,1.080729 z"
       id="path65" />
    <path
       d="m 199.17914,89.464279 h 0.48177 v -0.546875 h -1.13281 q -0.35157,-0.351563 -0.59896,-0.716146 h 1.73177 v -0.533854 h -2.04427 q -0.18229,-0.351563 -0.28646,-0.677084 l -0.013,-0.03906 h 2.34375 v -0.546875 h -2.47396 q -0.0781,-0.325521 -0.0911,-0.716146 h 2.56511 v -0.533854 h -2.55209 q 0.026,-0.338542 0.10417,-0.716146 h 2.44792 v -0.546875 h -2.27865 q 0.0911,-0.273437 0.3125,-0.716146 h 1.96615 v -0.533854 h -1.62761 q 0.29948,-0.429687 0.58594,-0.716146 h 1.04167 v -0.546875 h -2.66927 q 1.09375,-1.302083 2.65625,-1.992187 1.5625,-0.690104 3.4375,-0.690104 1.30208,0 2.48698,0.364583 1.18489,0.364583 2.12239,1.054687 0.95052,0.690105 1.60156,1.653646 0.66407,0.963542 0.92448,2.122396 h -3.72396 v -0.716146 h 1.32813 q -0.0651,-0.3125 -0.14323,-0.533854 h -1.1849 v -0.716146 h 0.84636 q -0.13021,-0.221354 -0.37761,-0.546875 h -0.46875 v -0.455729 q -0.55989,-0.507812 -1.44531,-0.807292 -0.87239,-0.299479 -1.80989,-0.299479 -0.61198,0 -1.25,0.169271 v 4.453125 h 2.90364 v -3.828125 q 0.61198,0.15625 1.06771,0.520833 v 3.307292 h 4.36198 q 0.14323,0.520833 0.16927,1.067708 h -8.5026 v 4.921875 q -1.64063,-0.143229 -2.8125,-0.963541 z m 10.03906,-1.158855 0.83333,1.458334 q -2.96875,2.421875 -6.82291,2.421875 -1.70573,0 -3.11198,-0.46875 -1.39323,-0.481771 -2.44792,-1.380209 -1.05469,-0.911458 -1.61458,-2.122395 -0.5599,-1.223959 -0.5599,-2.682292 0,-2.005208 1.13281,-3.606771 h 1.38021 q -0.71614,0.846354 -1.06771,1.744792 -0.33854,0.885417 -0.33854,1.835937 0,1.106771 0.45573,2.174479 0.46875,1.067709 1.30208,1.822917 1.67969,1.497396 4.40105,1.497396 2.60416,0 4.7526,-1.341146 0.66406,-0.416667 1.70573,-1.354167 z"
       id="path67" />
    <path
       d="m 222.70778,91.795008 0.026,-0.286459 q 0.15625,-1.536458 0.23437,-3.880208 0.0911,-2.356771 0.0911,-4.934896 0,-3.177083 -0.22136,-6.666666 l -0.026,-0.390625 h 1.19792 v 15.078125 h 2.8776 q 1.94011,0 3.29427,-0.07813 1.36719,-0.09115 2.72136,-0.325521 1.36718,-0.234375 3.11198,-0.651042 l 0.4427,-0.104167 -0.59895,2.239584 z m 4.15365,-16.158854 V 75.1023 h -4.08854 q 0,-0.221354 -0.0391,-0.742188 -0.026,-0.15625 -0.026,-0.338541 h 7.35677 l -0.0391,0.338541 q -0.3125,3.59375 -0.3125,8.723958 0,3.385417 0.20834,6.627604 l 0.0391,0.46875 h -5.41667 v -0.716145 h 2.31771 v -0.546875 h -2.31771 v -0.716146 h 2.31771 v -0.533854 h -2.31771 v -0.716146 h 2.31771 v -0.546875 h -2.31771 v -0.716146 h 2.31771 v -0.533854 h -2.31771 v -0.716146 h 2.31771 v -0.546875 h -2.31771 v -0.716146 h 2.31771 v -0.533854 h -2.31771 v -0.716146 h 2.31771 v -0.546875 h -2.31771 v -0.716146 h 2.31771 v -0.533854 h -2.31771 v -0.716145 h 2.31771 v -0.546875 h -2.31771 v -0.716146 h 2.31771 v -0.533854 h -2.31771 v -0.716146 h 2.31771 V 76.3523 h -2.31771 v -0.716146 z"
       id="path69" />
    <path
       d="m 245.91091,84.099695 v -0.09114 q -0.0391,-1.5625 -0.1823,-3.398438 l -0.013,-0.130208 q 0.33855,-0.03906 0.4948,-0.03906 0.24739,0 0.65104,0.05208 v 10.221354 h 5.10416 q 0,0.09114 0,0.15625 0.013,0.0651 0.013,0.117187 l 0.0651,0.625 q 0,0.09115 0.013,0.182292 h -6.45833 l 0.026,-0.299479 q 0.013,-0.117188 0.0391,-0.3125 0.026,-0.195313 0.026,-0.260417 v -0.09115 q -1.78385,1.197917 -4.03646,1.197917 -2.2526,0 -3.68489,-1.171875 -1.41927,-1.184896 -1.41927,-3.007813 0,-1.263021 0.71614,-2.161458 h 1.40625 q -1.0026,0.846354 -1.0026,2.096354 0,1.393229 1.11979,2.291667 1.11979,0.898437 2.90365,0.898437 1.96614,0 3.8151,-1.210937 l 0.11719,-0.07813 q 0.0391,-0.02604 0.0781,-0.05208 0.0391,-0.02604 0.0781,-0.05208 v -0.07813 q 0.14323,-2.460937 0.14323,-4.257812 v -0.07813 q -0.026,-0.01302 -0.16927,-0.05208 -1.19792,-0.338541 -2.70834,-0.364583 v 5.520833 q -0.63802,0.169271 -1.27604,0.169271 -1.86198,0 -2.8776,-0.976562 h 1.79687 v -0.546875 h -2.21354 q -0.14323,-0.286459 -0.23437,-0.716146 h 2.44791 v -0.533854 h -2.48698 q 0.013,-0.351563 0.15625,-0.716146 h 2.33073 v -0.546875 h -2.04427 q 0.2474,-0.351563 0.76823,-0.716146 h 1.27604 v -0.533854 h -2.95573 q 0.72917,-0.768229 1.84896,-1.158854 1.13281,-0.403646 2.61719,-0.403646 1.01562,0 1.97917,0.130208 0.97656,0.130209 1.5625,0.325521 l 0.10416,0.03906 q 0.013,0 0.026,0 0.026,0 0.0391,0.01302 z m -5.58594,-4.557291 q 2.53906,-0.872396 5.13021,-0.872396 1.28906,0 2.46093,0.247396 1.17188,0.247396 2.01823,0.729166 0.85938,0.46875 1.30209,1.106771 0.26041,0.377604 0.36458,0.833334 0.11719,0.442708 0.11719,1.236979 0,0.403646 -0.026,1.419271 0,0.546875 -0.013,0.807291 v 0.533854 q 0,2.447917 0.23437,4.596354 h -4.50521 v -0.716145 h 1.96615 v -0.546875 h -1.96615 v -0.716146 h 1.96615 v -0.533854 h -1.96615 v -0.716146 h 1.96615 v -0.546875 h -1.96615 v -0.716146 h 1.96615 v -0.533854 h -1.96615 v -0.716146 h 1.96615 v -0.546875 h -1.96615 v -0.716146 h 1.96615 v -0.09115 -0.104166 q -0.013,-0.09115 -0.013,-0.247396 v -0.09115 h -1.95313 v -0.716146 h 1.875 q -0.0651,-0.286458 -0.19531,-0.546875 h -1.67969 v -0.716146 h 1.09375 q -1.04166,-0.768229 -2.82552,-0.768229 -1.34114,0 -2.85156,0.416667 -1.4974,0.416667 -2.5,1.080729 z"
       id="path71" />
    <path
       d="m 259.11403,88.917404 h -2.14844 l 0.33854,-0.716146 h 2.13542 l 0.26042,-0.533854 h -2.13542 l 0.35156,-0.716146 h 2.10938 l 0.26041,-0.546875 h -2.12239 l 0.35156,-0.716146 h 2.09635 l 0.26042,-0.533854 h -2.09635 l 0.33854,-0.716146 h 2.08333 l 0.26042,-0.546875 h -2.08333 l 0.33854,-0.716146 h 2.07031 l 0.26042,-0.533854 h -2.07032 l 0.35157,-0.716146 h 2.04427 l 0.24739,-0.546875 h -2.03125 l 0.33854,-0.716146 h 2.03125 l 0.26042,-0.533854 h -3.03385 q -1.71875,0 -3.19011,0.169271 -1.45833,0.15625 -2.89062,0.520833 v -1.770833 h 12.77344 q -0.8724,1.276042 -1.8099,2.96875 -1.28906,2.330729 -2.83854,5.611979 -0.78125,1.666667 -1.09375,2.552083 h -4.76563 l 0.33854,-0.716145 h 2.14844 z m 7.76042,2.877604 h -13.56771 l 0.16927,-0.299479 q 1.15885,-1.914063 1.99219,-3.4375 0.83333,-1.523438 1.78385,-3.450521 1.21094,-2.5 1.74479,-3.945313 h 1.36719 l -4.81771,10.052084 h 4.63542 q 2.26562,0 3.69791,-0.208334 1.44532,-0.221354 2.9948,-0.807291 z"
       id="path73" />
    <path
       d="m 275.24685,87.667404 h -1.95313 l -0.3776,-0.716146 h 1.96614 l -0.26041,-0.546875 h -2.00521 l -0.37761,-0.716146 h 2.01823 l -0.26041,-0.533854 h -2.04427 l -0.39063,-0.716146 h 2.07031 l -0.26041,-0.546875 h -2.09636 l -0.39062,-0.716146 h 2.12239 l -0.26041,-0.533854 h -2.14844 l -0.37761,-0.716146 h 2.16146 l -0.26041,-0.546875 h -2.1875 l -0.39063,-0.716146 h 2.21354 l -0.26041,-0.533854 h -4.3099 q -0.32552,-0.481771 -0.57292,-0.820312 l -0.19531,-0.260417 h 7.25261 l 0.16927,0.429688 q 0.66406,1.627604 1.01562,2.408854 0.35156,0.78125 1.71875,3.554687 l 0.3125,0.625 q 0.92448,-1.679687 1.45833,-3.476562 0.53386,-1.809896 0.61198,-3.541667 h 2.33073 q -0.70312,2.434896 -2.38281,5.885417 -1.67969,3.45052 -3.64583,6.432291 l -1.00261,-1.901041 h 0.88542 l 0.29948,-0.546875 h -1.47136 l -0.39062,-0.716146 h 1.9401 z m -8.33334,10.846354 v -2.33073 q 0.48177,0.104167 0.82032,0.104167 1.40625,0 2.83854,-1.158854 0.78125,-0.638021 1.51041,-1.510417 0.72917,-0.859375 1.28907,-1.822916 -0.29948,-0.78125 -1.02865,-2.291667 -2.61719,-5.416666 -4.80469,-8.841146 h 1.47136 l 5.96354,11.132813 -0.27344,0.403646 q -1.96614,2.916666 -3.41146,4.401041 -1.88802,1.940104 -3.95833,1.940104 -0.22135,0 -0.41667,-0.02604 z"
       id="path75" />
    <path
       d="m 292.60361,91.795008 0.026,-0.286459 q 0.15625,-1.536458 0.23438,-3.880208 0.0911,-2.356771 0.0911,-4.934896 0,-3.177083 -0.22135,-6.666666 l -0.026,-0.390625 h 1.19792 v 15.078125 h 7.77343 q 0.92448,0 1.30209,-0.09115 V 75.753341 q 0.55989,0.0651 1.0677,0.338542 v 13.372396 h 4.16667 q -0.98958,0.95052 -1.86198,1.458333 -0.85937,0.494792 -1.90104,0.690104 -1.04167,0.182292 -2.66927,0.182292 z m 0,-17.773437 h 8.76302 q 2.21354,0 3.25521,0.247395 1.34115,0.3125 2.47396,1.106771 1.14583,0.794271 1.97917,1.966146 0.84635,1.158854 1.28906,2.565104 0.45573,1.40625 0.45573,2.96875 0,1.731771 -0.49479,3.164063 -0.4948,1.41927 -1.58855,2.877604 h -4.15364 v -0.716146 h 1.875 q 0.0521,-0.104167 0.0911,-0.182292 0.0391,-0.09115 0.0781,-0.169271 l 0.0391,-0.104166 q 0,-0.02604 0.0391,-0.07813 h -2.12239 v -0.716146 h 2.38281 q 0.10417,-0.338542 0.15625,-0.546875 h -2.53906 v -0.716146 h 2.69531 q 0.013,-0.07813 0.026,-0.182292 0.026,-0.104166 0.0521,-0.260416 l 0.013,-0.09115 h -2.78646 v -0.716146 h 2.86458 l 0.013,-0.09115 q 0.013,-0.15625 0.013,-0.260416 0.013,-0.117188 0.013,-0.195313 h -2.90364 v -0.716146 h 2.92969 v -0.143229 -0.390625 h -2.92969 v -0.716146 h 2.90364 l -0.013,-0.09115 q -0.026,-0.351562 -0.0391,-0.455729 h -2.85156 v -0.716146 h 2.77344 l -0.013,-0.09114 q -0.0521,-0.364584 -0.0651,-0.442709 h -2.69531 v -0.716145 h 2.53906 q -0.026,-0.15625 -0.11719,-0.45573 0,-0.01302 -0.026,-0.09115 h -2.39583 v -0.716146 h 2.13542 q -0.13021,-0.3125 -0.26042,-0.533854 h -1.875 v -0.716146 h 1.39323 q -0.33854,-0.377604 -0.53386,-0.546875 h -0.85937 v -0.585938 q -0.75521,-0.403646 -1.4974,-0.533854 Q 302.3432,75.1023 300.67653,75.1023 h -0.92448 v 15.078124 h -5.3125 v -0.716145 h 2.31771 v -0.546875 h -2.31771 v -0.716146 h 2.31771 v -0.533854 h -2.31771 v -0.716146 h 2.31771 v -0.546875 h -2.31771 v -0.716146 h 2.31771 v -0.533854 h -2.31771 v -0.716146 h 2.31771 v -0.546875 h -2.31771 v -0.716146 h 2.31771 v -0.533854 h -2.31771 v -0.716146 h 2.31771 v -0.546875 h -2.31771 v -0.716146 h 2.31771 v -0.533854 h -2.31771 v -0.716145 h 2.31771 v -0.546875 h -2.31771 v -0.716146 h 2.31771 v -0.533854 h -2.31771 v -0.716146 h 2.31771 V 76.3523 h -2.31771 v -0.716146 h 2.31771 V 75.1023 h -4.08854 q 0,-0.221354 -0.0391,-0.742188 -0.026,-0.15625 -0.026,-0.338541 z"
       id="path77" />
    <path
       d="m 316.50987,89.477299 v -0.559895 h -0.75521 q -0.40365,-0.351563 -0.67708,-0.716146 h 1.43229 v -0.533854 h -1.78386 q -0.18229,-0.29948 -0.32552,-0.716146 h 2.10938 v -0.546875 h -2.26563 q -0.0521,-0.221354 -0.0911,-0.625 v -0.09115 h 2.35677 v -0.533854 h -2.35677 q 0.0391,-0.390625 0.11718,-0.716146 h 2.23959 v -0.546875 h -2.08334 q 0.11719,-0.351562 0.32552,-0.716146 h 1.75782 v -0.533854 h -1.41927 q 0.24739,-0.325521 0.65104,-0.716146 h 0.76823 v -0.546875 h -2.44792 q 0.63802,-0.807291 1.60156,-1.393229 0.97657,-0.598958 2.16146,-0.911458 1.19792,-0.325521 2.51302,-0.325521 1.62761,0 3.04688,0.520833 1.41927,0.507813 2.47396,1.419271 1.05468,0.911458 1.65364,2.161458 0.59896,1.23698 0.59896,2.64323 0,1.002604 -0.26042,1.809895 -0.26041,0.794271 -0.84635,1.614584 h -3.61979 v -0.716146 h 1.57552 q 0.11719,-0.247396 0.23437,-0.533854 h -1.80989 v -0.716146 h 1.99218 q 0.0912,-0.46875 0.10417,-0.546875 h -2.09635 v -0.716146 h 2.17448 v -0.09115 -0.208333 -0.143229 -0.09115 h -2.17448 v -0.716146 h 2.12239 q -0.013,-0.208333 -0.0781,-0.546875 h -2.04427 v -0.716146 h 1.86198 q -0.15625,-0.403646 -0.20834,-0.533854 h -1.65364 v -0.716146 h 1.23698 q -0.13021,-0.208333 -0.36459,-0.481771 l -0.0521,-0.0651 h -0.82031 v -0.729166 l -0.0781,-0.03906 q -1.15885,-0.755208 -2.89062,-0.755208 -0.72917,0 -1.5625,0.195312 v 10.325521 q -1.25,-0.208333 -2.34375,-0.898438 z m -2.85157,-7.552083 h 1.41928 q -1.41928,1.614584 -1.41928,3.567709 0,1.523437 0.8724,2.812499 0.88542,1.289063 2.42188,2.03125 1.54947,0.742188 3.37239,0.742188 0.66406,0 1.44531,-0.15625 V 80.545008 q 0.63802,0.143229 1.06771,0.390625 v 8.528646 h 3.75 q -0.76823,0.885416 -1.75781,1.497395 -0.97656,0.598959 -2.1224,0.898438 -1.14583,0.3125 -2.44791,0.3125 -2.1224,0 -3.91927,-0.872396 -1.79688,-0.885417 -2.83855,-2.408854 -1.02864,-1.523438 -1.02864,-3.320312 0,-1.940105 1.18489,-3.645834 z"
       id="path79" />
    <path
       d="m 334.16612,88.943445 0.61198,-1.40625 -0.0911,-0.01302 q -1.44531,-0.221354 -2.52604,-0.807291 -1.06771,-0.598958 -1.66667,-1.497396 -0.58594,-0.911458 -0.58594,-1.979167 0,-0.755208 0.2474,-1.380208 0.2474,-0.625 0.76823,-1.197917 h 1.73177 q -1.61458,1.015625 -1.61458,2.513021 0,0.729167 0.42968,1.419271 0.44271,0.677083 1.19792,1.132813 0.59896,0.364583 1.73177,0.611979 1.13281,0.247395 2.22656,0.247395 0.39063,0 1.34115,-0.07813 v -6.041666 q 0.58594,0.09115 1.10677,0.299479 v 4.921875 h 3.19011 q -0.83334,0.963542 -2.31771,1.471354 -1.48438,0.494792 -3.50261,0.494792 -0.35156,0 -0.54687,-0.01302 l -1.10677,2.721354 -0.39063,0.911458 q -0.23437,0.598959 -0.23437,0.976563 0,0.664062 0.48177,1.015625 0.49479,0.351562 1.75781,0.585937 l 5.95052,1.080729 q -0.48177,0.481771 -1.13281,0.885417 l -4.14063,-0.742187 q -2.09635,-0.377605 -2.83854,-0.78125 -0.55989,-0.29948 -0.89844,-0.846355 -0.32552,-0.533854 -0.32552,-1.171874 0,-0.651042 0.53386,-1.927084 l 0.0651,-0.15625 h -0.0651 q -0.5599,0 -1.39323,0.299479 -0.92448,0.338542 -1.43229,1.054688 -0.49479,0.703125 -0.49479,1.679687 0,1.263021 0.78125,2.226563 0.79427,0.963541 2.2526,1.471354 1.47135,0.507812 3.39844,0.507812 1.9401,0 3.54166,-0.572916 1.61459,-0.559896 2.52605,-1.549479 0.92447,-0.976563 0.92447,-2.148438 0,-0.247396 -0.0781,-0.507812 l -0.2474,-0.03906 -0.7552,1.848958 -0.70313,-0.130208 0.76823,-1.848958 -0.53385,-0.104167 -0.78125,1.861979 -0.71615,-0.143229 0.78125,-1.861979 -0.54688,-0.104167 -0.78125,1.875 -0.72916,-0.143229 0.79427,-1.861979 -0.54688,-0.104167 -0.78125,1.875 -0.71614,-0.143229 0.78125,-1.875 -0.54688,-0.104166 -0.78125,1.88802 -0.71614,-0.143229 0.78125,-1.888021 -0.53386,-0.09114 -0.79427,1.875 q -0.13021,-0.02604 -0.20833,-0.05208 -0.0781,-0.01302 -0.10417,-0.01302 -0.14323,-0.02604 -0.23437,-0.05208 -0.0911,-0.01302 -0.16927,-0.02604 l 0.79427,-1.875 -0.54688,-0.104166 -0.74219,1.770833 q -0.3776,-0.247396 -0.3776,-0.677083 0,-0.364584 0.29948,-1.080729 l 0.88542,-2.096355 4.25781,0.703125 0.89844,0.14323 q 1.21093,0.208333 1.875,0.455729 0.67708,0.234375 1.08073,0.625 0.84635,0.78125 0.84635,2.109375 0,1.848958 -1.60156,3.346354 -1.11979,1.054687 -2.85157,1.614583 -1.73177,0.572917 -3.8802,0.572917 -2.29167,0 -4.03646,-0.664063 -1.74479,-0.664062 -2.69531,-1.888021 -0.9375,-1.210937 -0.9375,-2.799479 0,-0.95052 0.36458,-1.757812 0.36458,-0.820313 1.02864,-1.393229 0.67709,-0.585938 1.60157,-0.898438 0.92448,-0.3125 2.03125,-0.3125 z m -0.49479,-3.346354 v -0.442708 h -0.95053 q -0.42968,-0.3125 -0.74218,-0.716146 h 1.69271 v -0.546875 h -1.97917 q -0.11719,-0.351562 -0.11719,-0.716146 h 2.09636 v -0.533854 h -2.03125 q 0.10416,-0.390625 0.33854,-0.716146 h 1.69271 v -0.546875 h -1.21094 q 0.54687,-0.46875 1.21094,-0.716146 v -0.533854 h -2.20053 q 1.78386,-1.40625 5.11719,-1.40625 1.71875,0 3.28125,0.481771 l 2.07031,-1.822916 0.44271,0.807291 -1.6276,1.354167 q 0.27344,0.130208 0.49479,0.260416 l 1.79688,-1.497395 -0.69011,-1.276042 0.69011,-0.611979 1.58854,2.773437 -2.63021,1.184896 q 0.59896,0.559896 0.91146,1.263021 0.3125,0.703125 0.3125,1.510417 0,0.976562 -0.58594,2.005208 h -3.02083 v -0.716146 h 1.22395 q 0.13021,-0.221354 0.22136,-0.546875 h -1.44531 v -0.716146 h 1.5625 q 0,-0.05208 0,-0.07813 0.013,-0.03906 0.013,-0.07813 0,-0.0651 -0.026,-0.377604 h -1.54948 v -0.716146 h 1.35416 q -0.13021,-0.325521 -0.27343,-0.546875 h -1.08073 v -0.716146 h 0.3776 q -1.28906,-0.924479 -3.76302,-0.924479 -0.50781,0 -1.09375,0.0651 v 6.132813 q -0.80729,-0.104167 -1.47135,-0.338542 z"
       id="path81" />
  </g>
</svg>
