<?xml version="1.0" encoding="UTF-8" standalone="no"?>
<svg
   xmlns:dc="http://purl.org/dc/elements/1.1/"
   xmlns:cc="http://creativecommons.org/ns#"
   xmlns:rdf="http://www.w3.org/1999/02/22-rdf-syntax-ns#"
   xmlns:svg="http://www.w3.org/2000/svg"
   xmlns="http://www.w3.org/2000/svg"
   viewBox="159.104 4.72301 216.2 95.552"
   version="1.1"
   id="svg2">
  <metadata
     id="metadata11">
    <rdf:RDF>
      <cc:Work
         rdf:about="">
        <dc:format>image/svg+xml</dc:format>
        <dc:type
           rdf:resource="http://purl.org/dc/dcmitype/StillImage" />
      </cc:Work>
    </rdf:RDF>
  </metadata>
  <defs
     id="defs9" />
  <g
     aria-label="The Quick BrownFox Jumps OverThe Lazy Dog"
     id="text4521"
     style="font-style:normal;font-variant:normal;font-weight:normal;font-stretch:normal;font-size:26.6667px;line-height:125%;font-family:Luminari, fantasy;font-variant-ligatures:normal;font-variant-caps:normal;font-variant-numeric:normal;font-feature-settings:normal;text-align:left;letter-spacing:0px;word-spacing:0px;writing-mode:lr-tb;text-anchor:start;fill:#000000;fill-opacity:1;stroke:none;stroke-width:1px;stroke-linecap:butt;stroke-linejoin:miter;stroke-opacity:1">
    <path
       d="m 170.0107,6.3550031 q 2.72,0 4.29333,-0.1333334 1.6,-0.1333333 2.45334,-0.3466666 0.88,-0.2133333 1.17333,-0.48 0.29333,-0.2666667 0.4,-0.5333333 0.0533,-0.1333334 0.26667,-0.1333334 0.26666,0 0.26666,0.1333334 -0.0533,0.053333 -0.18666,0.4 -0.10667,0.3466666 -0.29334,0.8533333 -0.16,0.48 -0.34666,1.0666666 -0.18667,0.56 -0.34667,1.0933333 -0.16,0.5066667 -0.26667,0.9066667 -0.10666,0.4 -0.10666,0.5333333 -0.0533,0 -0.13334,0.026667 -0.08,0 -0.16,0 -0.24,0 -0.24,-0.16 0,-0.1333334 0.0267,-0.32 0.0267,-0.1866667 0.0267,-0.32 0,-0.1333334 -0.0267,-0.1866667 -0.13333,-0.2666667 -0.90667,-0.4 -0.74666,-0.1333333 -1.76,-0.1866666 -0.98666,-0.053333 -2.02666,-0.053333 -1.04,-0.026667 -1.70667,-0.026667 -1.01333,0 -2.02667,0.5866666 -0.98666,0.56 -1.78666,1.626667 -0.77334,1.066666 -1.28,2.64 -0.48,1.546666 -0.48,3.519999 0,1.733334 0.37333,3.2 0.4,1.466667 1.12,2.56 0.72,1.093334 1.76,1.706667 1.04,0.613333 2.34667,0.613333 1.25333,0 2.18666,-0.453333 0.96,-0.48 1.6,-1.226667 0.64,-0.746666 0.96,-1.706666 0.34667,-0.96 0.34667,-1.973334 0,-0.72 -0.18667,-1.386666 -0.16,-0.666667 -0.50666,-1.173334 -0.34667,-0.533333 -0.90667,-0.826666 -0.53333,-0.32 -1.25333,-0.32 -1.12,0 -1.57334,0.506667 -0.45333,0.479999 -0.45333,1.039999 0,0.506667 0.29333,0.906667 0.29334,0.373333 0.77334,0.373333 0.29333,0 0.29333,0.213334 0,0.08 -0.08,0.16 -0.13333,0.186666 -0.74667,0.373333 -0.61333,0.186667 -1.46666,0.186667 -1.04,0 -1.70667,-0.533334 -0.66667,-0.56 -0.66667,-1.333333 0,-0.506667 0.48,-0.986667 0.48,-0.479999 1.30667,-0.853333 0.85333,-0.4 2.02667,-0.613333 1.17333,-0.24 2.53333,-0.24 1.2,0 2.21333,0.24 1.01334,0.24 1.73334,0.693333 0.74666,0.426667 1.17333,1.066667 0.42667,0.613333 0.42667,1.386666 0,1.173334 -0.74667,2.506667 -0.74667,1.306667 -2.05333,2.426667 -1.30667,1.093333 -3.09334,1.813333 -1.76,0.72 -3.78666,0.72 -2.08,0 -3.70667,-0.586667 -1.6,-0.613333 -2.72,-1.68 -1.09333,-1.093333 -1.68,-2.56 -0.58667,-1.493333 -0.58667,-3.253333 0,-1.333333 0.4,-2.506666 0.4,-1.173334 1.04,-2.186667 0.64,-1.013333 1.41334,-1.84 0.77333,-0.826667 1.49333,-1.4133333 0.74667,-0.6133334 1.36,-0.96 0.61333,-0.3466667 0.90667,-0.4266667 -0.90667,0.026667 -1.94667,0.08 -1.01333,0.053333 -1.94667,0.16 -0.93333,0.08 -1.65333,0.24 -0.72,0.1333333 -0.98667,0.3466667 -0.29333,0.2133333 -0.48,0.56 -0.18666,0.3466666 -0.32,0.7200003 -0.21333,0 -0.34666,-0.05333 -0.13334,-0.08 -0.21334,-0.3199997 0.24,-0.32 0.50667,-1.0133333 0.29333,-0.6933333 0.56,-1.44 0.29333,-0.7733333 0.48,-1.4133333 0.21333,-0.6399999 0.29333,-0.8266666 0.10667,-0.053333 0.24,-0.053333 0.10667,0 0.21334,0.053333 -0.08,0.32 -0.08,0.5066667 0,0.2666666 0.26666,0.3466666 0.77334,0.2133333 1.92,0.2933333 1.17334,0.053333 2.69334,0.053333 z"
       id="path13" />
    <path
       d="m 184.94402,14.755003 q 0.53333,-0.48 1.2,-0.986667 0.66666,-0.533333 1.38666,-0.96 0.74667,-0.453333 1.54667,-0.72 0.8,-0.293333 1.62667,-0.293333 0.96,0 1.78666,0.32 0.85334,0.293333 1.49334,0.88 0.64,0.586667 1.01333,1.413333 0.37333,0.8 0.37333,1.813333 0,2.053334 -0.72,3.786667 -0.69333,1.706667 -1.65333,3.013333 -0.93333,1.28 -1.86667,2.133334 -0.93333,0.853333 -1.38666,1.12 -0.13334,0.08 -0.26667,-0.05333 -0.13333,-0.133333 0,-0.293333 0.21333,-0.16 0.64,-0.8 0.45333,-0.613333 0.90667,-1.573333 0.45333,-0.96 0.8,-2.186667 0.34666,-1.226667 0.34666,-2.64 0,-1.173333 -0.29333,-2.08 -0.26667,-0.906666 -0.74667,-1.52 -0.48,-0.613333 -1.12,-0.933333 -0.61333,-0.32 -1.33333,-0.32 -0.48,0 -1.01333,0.16 -0.53334,0.133333 -0.98667,0.4 -0.48,0.293333 -0.93333,0.72 -0.45334,0.426667 -0.66667,0.88 -0.0533,0.106667 -0.10667,0.213333 -0.0267,0.08 -0.08,0.266667 -0.0267,0.16 -0.08,0.426666 -0.0267,0.266667 -0.0533,0.72 -0.08,0.773334 -0.13333,1.52 -0.0267,0.72 -0.0267,1.733334 0,1.306666 0.16,2.026666 0.16,0.693334 0.93333,0.8 0.08,0 0.18667,0 0.10667,-0.02667 0.24,-0.05333 0.10667,-0.02667 0.26667,-0.08 0.08,0 0.10666,0.08 0.0533,0.08 0.0533,0.16 0,0.08 -0.29334,0.24 -0.29333,0.16 -0.74666,0.346667 -0.45334,0.16 -1.01334,0.346666 -0.53333,0.16 -1.01333,0.32 -0.50667,0.133334 -0.88,0.24 -0.34667,0.106667 -0.48,0.106667 -0.8,0 -0.8,-0.613333 0,-0.133334 0.13333,-0.506667 0.13334,-0.373333 0.21334,-1.146667 0.10666,-1.12 0.21333,-2.453333 0.10667,-1.36 0.16,-2.72 0.08,-1.36 0.10667,-2.666666 0.0533,-1.306667 0.0533,-2.346667 0,-1.92 -0.08,-3.2533333 -0.0533,-1.3333333 -0.10667,-1.8933333 -0.08,-0.6933334 -0.16,-0.9066667 -0.08,-0.24 -0.18666,-0.4266666 -0.13334,-0.24 -0.34667,-0.32 -0.18667,-0.1066667 -0.37333,-0.1333334 -0.16,-0.026667 -0.29334,0 -0.10666,0 -0.10666,-0.053333 0,-0.3733333 0.24,-0.6133333 0.24,-0.24 0.64,-0.24 0.77333,0 1.6,-0.026667 0.82666,-0.026667 1.52,-0.08 0.58666,-0.053333 1.06666,-0.16 0.50667,-0.1066666 0.66667,-0.16 0.21333,-0.026667 0.21333,0.08 0.0267,0.08 0.0267,0.32 0,0.16 -0.13333,0.24 -0.13334,0.08 -0.29334,0.1333334 -0.16,0.053333 -0.32,0.1066666 -0.13333,0.026667 -0.18666,0.1066667 -0.10667,0.16 -0.21334,0.9866666 -0.10666,0.8266667 -0.21333,2.1066666 -0.08,1.2533337 -0.16,2.7999997 -0.0533,1.546667 -0.08,3.12 z"
       id="path15" />
    <path
       d="m 209.69067,22.008336 q -0.29333,0.32 -0.90666,0.88 -0.61334,0.56 -1.49334,1.12 -0.85333,0.56 -1.92,0.96 -1.06666,0.4 -2.26666,0.4 -1.09334,0 -2.13334,-0.32 -1.04,-0.346667 -1.86666,-1.013333 -0.82667,-0.693334 -1.33334,-1.733334 -0.48,-1.066666 -0.48,-2.533333 0,-1.2 0.16,-2.053333 0.16,-0.88 0.42667,-1.52 0.26667,-0.666667 0.58667,-1.12 0.34666,-0.48 0.69333,-0.853333 0.42667,-0.48 1.04,-0.906667 0.61333,-0.426667 1.30667,-0.773333 0.72,-0.346667 1.49333,-0.533334 0.8,-0.213333 1.6,-0.213333 1.44,0 2.24,0.48 0.82667,0.48 0.82667,1.333333 0,0.533334 -0.32,0.986667 0.26666,-0.08 0.66666,-0.266667 0.42667,-0.186666 0.85334,-0.373333 0.42666,-0.213333 0.74666,-0.373333 0.34667,-0.16 0.45334,-0.24 0.0533,-0.05333 0.10666,-0.02667 0.08,0 0.08,0.08 0,0.346667 -0.13333,0.586667 -0.13333,0.213333 -0.32,0.346666 -0.42667,0.266667 -1.22667,0.666667 -0.8,0.4 -1.78666,0.853333 -0.96,0.426667 -2,0.88 -1.04,0.426667 -1.97334,0.826667 -0.90666,0.4 -1.6,0.72 -0.66666,0.293333 -0.90666,0.426666 0,0.906667 0.34666,1.706667 0.37334,0.773333 1.01334,1.36 0.64,0.586667 1.52,0.933333 0.90666,0.32 1.97333,0.32 0.96,0 1.73333,-0.186666 0.77334,-0.213334 1.30667,-0.453334 0.53333,-0.266666 0.82667,-0.453333 0.32,-0.213333 0.34666,-0.213333 0.10667,0 0.21334,0.106666 0.10666,0.08 0.10666,0.186667 z m -9.38666,-4.08 q 0.45333,-0.16 1.01333,-0.373333 0.58667,-0.24 1.12,-0.506667 0.56,-0.266667 1.01333,-0.506667 0.45334,-0.24 0.69334,-0.426666 0.48,-0.346667 0.48,-1.173333 0,-0.32 -0.13334,-0.666667 -0.10666,-0.346667 -0.34666,-0.613333 -0.24,-0.293334 -0.58667,-0.453334 -0.34667,-0.186666 -0.77333,-0.186666 -0.37334,0 -0.8,0.266666 -0.42667,0.24 -0.8,0.826667 -0.37334,0.56 -0.64,1.52 -0.24,0.933333 -0.24,2.293333 z"
       id="path17" />
    <path
       d="m 238.06395,28.621669 q 0,0.533334 -0.18666,1.2 -0.18667,0.666667 -0.53334,1.253333 -0.32,0.613334 -0.8,1.013334 -0.48,0.4 -1.06666,0.4 -0.32,0 -0.64,-0.186667 -0.29334,-0.16 -0.29334,-0.453333 0,-0.293334 0.18667,-0.453334 0.18667,-0.16 0.4,-0.16 0.16,0 0.21333,0.05333 0.08,0.08 0.08,0.186666 0.0267,0.106667 0.0267,0.186667 0.0267,0.106667 0.10667,0.186667 0.37333,-0.02667 0.69333,-0.32 0.32,-0.266667 0.32,-0.826667 0,-0.56 -0.4,-1.28 -0.4,-0.693333 -1.36,-1.36 -0.93333,-0.666666 -2.48,-1.226666 -1.54667,-0.533334 -3.84,-0.773334 -0.61333,-0.133333 -1.25333,-0.293333 -0.64,-0.133333 -1.25334,-0.213333 -0.18666,0.02667 -0.34666,0.02667 -0.16,0 -0.37334,0 -2.10666,0 -3.86666,-0.72 -1.76,-0.746666 -3.01334,-2.026666 -1.25333,-1.306667 -1.97333,-3.093334 -0.69333,-1.813333 -0.69333,-3.973333 0,-2.08 0.85333,-3.92 0.88,-1.84 2.32,-3.2266663 1.46667,-1.4133333 3.33333,-2.2133333 1.89334,-0.8266666 3.89334,-0.8266666 1.81333,0 3.44,0.6666666 1.62666,0.64 2.85333,1.84 1.22667,1.1999999 1.94667,2.9066666 0.72,1.706667 0.72,3.813333 0,1.52 -0.48,2.986667 -0.48,1.466666 -1.28,2.746666 -0.8,1.253334 -1.86667,2.266667 -1.04,1.013333 -2.16,1.626667 0.45333,0.08 1.30667,0.16 0.88,0.08 1.92,0.213333 1.04,0.106667 2.10666,0.293333 1.09334,0.16 1.97334,0.4 0.88,0.266667 1.44,0.64 0.56,0.373334 0.56,0.88 0,0.32 -0.16,0.693334 -0.13334,0.373333 -0.37334,0.693333 z m -12.16,-4.08 q 1.04,0 1.97334,-0.56 0.96,-0.586666 1.68,-1.653333 0.74666,-1.066667 1.17333,-2.613333 0.42667,-1.546667 0.42667,-3.493334 0,-2.293333 -0.48,-4.053333 -0.48,-1.76 -1.30667,-2.9599997 -0.8,-1.1999999 -1.92,-1.8133333 -1.12,-0.6133333 -2.4,-0.6133333 -1.12,0 -2.10667,0.56 -0.96,0.5333333 -1.68,1.6 -0.72,1.0666663 -1.12,2.6933333 -0.4,1.6 -0.4,3.706667 0,2.506666 0.66667,4.266666 0.69333,1.733333 1.65333,2.853333 0.96,1.093334 2,1.6 1.06667,0.48 1.84,0.48 z"
       id="path19" />
    <path
       d="m 236.49061,14.115003 q -0.21333,-0.05333 -0.21333,-0.213333 0.0267,-0.16 0.21333,-0.186667 0.08,-0.02667 0.50667,-0.186667 0.42667,-0.16 1.01333,-0.373333 0.61334,-0.213333 1.25334,-0.453333 0.66666,-0.24 1.17333,-0.4 0.32,-0.106667 0.42667,-0.133334 0.13333,-0.05333 0.21333,-0.05333 0.08,0 0.18667,0.08 0.10666,0.05333 0.0533,0.186667 -0.08,0.213333 -0.18667,1.013333 -0.08,0.8 -0.16,1.786667 -0.08,0.96 -0.16,1.919999 -0.0533,0.96 -0.0533,1.52 0,2.133334 0.90667,3.306667 0.90666,1.146667 2.82666,1.146667 0.98667,0 1.62667,-0.4 0.66667,-0.4 1.01333,-0.933334 0.24,-0.346666 0.32,-1.52 0,-0.213333 0,-0.56 0.0267,-0.346666 0.0267,-0.72 0.0267,-0.4 0.0267,-0.746666 0.0267,-0.373334 0.0267,-0.613334 0.0267,-1.226666 -0.08,-2.266666 -0.08,-1.066667 -0.26666,-1.573333 -0.08,-0.32 -0.32,-0.32 -0.16,0 -0.32,0.02667 -0.13334,0 -0.16,-0.24 0,-0.08 0.16,-0.16 0.16,-0.106666 0.61333,-0.293333 0.42667,-0.16 0.93333,-0.32 0.53334,-0.16 1.04,-0.266667 0.50667,-0.106666 0.90667,-0.133333 0.4,-0.05333 0.58667,0.02667 0,0.02667 0.0267,0.08 0.0533,0.02667 0.08,0.16 0.0533,0.16 -0.08,1.013333 -0.10666,0.826667 -0.24,2.72 -0.10666,1.306666 -0.18666,2.533333 -0.08,1.226667 -0.08,1.866667 0,1.253333 0.45333,2 0.48,0.72 1.17333,0.72 0.45334,0 0.85334,-0.186667 0.42666,-0.186667 0.61333,-0.32 0.21333,0 0.21333,0.186667 0.0267,0.186666 -0.08,0.24 -0.4,0.266666 -1.12,0.666666 -0.69333,0.4 -1.46666,0.773334 -0.74667,0.346666 -1.44,0.613333 -0.69334,0.24 -1.12,0.24 -0.21334,0 -0.4,-0.266667 -0.16,-0.293333 -0.26667,-0.693333 -0.10667,-0.4 -0.16,-0.826667 -0.0533,-0.426666 -0.0533,-0.746666 -0.56,0.4 -1.28,0.853333 -0.72,0.426667 -1.49334,0.826667 -0.77333,0.373333 -1.54666,0.613333 -0.74667,0.24 -1.38667,0.24 -1.62667,0 -2.66667,-0.853333 -1.04,-0.88 -1.04,-2.266667 0,-0.293333 0.0533,-0.88 0.0533,-0.586667 0.13333,-1.333333 0.08,-0.746667 0.13333,-1.6 0.0533,-0.853334 0.0533,-1.653334 0,-1.226666 -0.4,-1.866666 -0.37334,-0.666667 -0.98667,-0.746667 z"
       id="path21" />
    <path
       d="m 257.45056,20.488336 q 0,0.56 0.0267,1.093333 0.0267,0.506667 0.18667,0.88 0.16,0.373334 0.48,0.613334 0.32,0.213333 0.90666,0.213333 0.29334,0 0.66667,-0.05333 0.37333,-0.08 0.69333,-0.186667 0.34667,-0.106667 0.58667,-0.213333 0.26667,-0.106667 0.32,-0.16 0.08,-0.08 0.10667,0 0.0267,0.08 0,0.213333 0,0.106667 -0.0533,0.24 -0.0533,0.106667 -0.13333,0.16 -0.26667,0.133333 -0.93333,0.48 -0.66667,0.346667 -1.57334,0.72 -0.85333,0.373333 -1.68,0.64 -0.8,0.24 -1.33333,0.24 -0.61333,0 -0.96,-0.373333 -0.34667,-0.373334 -0.34667,-0.933334 0,-0.186666 0,-0.32 0.0267,-0.133333 0.0533,-0.346666 0.0267,-0.266667 0.08,-0.96 0.08,-0.72 0.13333,-1.6 0.08,-0.88 0.13333,-1.76 0.0533,-0.906667 0.0533,-1.546667 v -0.933333 q 0,-0.693333 -0.08,-1.226667 -0.08,-0.533333 -0.26667,-0.826666 -0.13333,-0.186667 -0.34667,-0.293334 -0.18666,-0.133333 -0.48,-0.133333 -0.16,0 -0.32,0.08 -0.16,0.05333 -0.24,0.05333 -0.0533,0 -0.18666,-0.16 -0.10667,-0.16 0.0267,-0.24 0.18667,-0.133333 0.77334,-0.426666 0.58666,-0.293334 1.28,-0.64 0.74666,-0.373334 1.44,-0.64 0.69333,-0.293334 0.98666,-0.293334 0.29334,0 0.4,0.186667 0.10667,0.16 0.10667,0.373333 v 0.106667 q 0,0.266667 -0.08,0.853333 -0.08,0.586667 -0.18667,1.44 -0.08,0.853334 -0.16,1.973333 -0.08,1.12 -0.08,2.426667 z M 256.3839,6.6216697 q 0.13333,0.026667 0.42666,0.2933334 0.32,0.2666666 0.64,0.6133333 0.32,0.3466666 0.56,0.6666666 0.24,0.32 0.24,0.4266667 0,0.1333333 -0.32,0.4 -0.32,0.2666666 -0.74666,0.56 -0.4,0.2666666 -0.8,0.4800003 -0.37334,0.213333 -0.53334,0.213333 -0.08,0 -0.4,-0.24 -0.29333,-0.2666667 -0.61333,-0.5866667 -0.32,-0.32 -0.58667,-0.6133333 -0.24,-0.32 -0.24,-0.4266666 0,-0.1333334 0.34667,-0.4 0.34667,-0.2933334 0.74667,-0.5866667 0.42666,-0.32 0.8,-0.5333333 0.4,-0.24 0.48,-0.2666667 z"
       id="path23" />
    <path
       d="m 271.77053,13.02167 q -0.0533,0.16 -0.32,0.506666 -0.24,0.32 -0.58666,0.693334 -0.34667,0.346666 -0.74667,0.693333 -0.37333,0.32 -0.66667,0.48 -0.18666,0.08 -0.24,-0.05333 -0.0267,-0.133334 -0.0267,-0.266667 0,-0.213333 -0.24,-0.533333 -0.21334,-0.32 -0.64,-0.613334 -0.4,-0.32 -0.96,-0.533333 -0.56,-0.213333 -1.22667,-0.213333 -1.14667,0 -1.86667,1.253333 -0.72,1.226667 -0.72,3.28 0,1.253333 0.37334,2.266666 0.4,0.986667 1.06666,1.68 0.69334,0.666667 1.65334,1.04 0.96,0.346667 2.08,0.346667 1.52,0 2.42666,-0.373333 0.90667,-0.4 1.49334,-0.906667 0.0267,0 0.0267,-0.02667 0.0267,-0.02667 0.0533,-0.02667 0.13333,0 0.18666,0.106666 0.0533,0.08 0.0533,0.213334 0,0.106666 -0.0533,0.16 -0.4,0.32 -1.12,0.853333 -0.69333,0.533333 -1.6,1.066667 -0.90666,0.506666 -1.89333,0.88 -0.98667,0.373333 -1.94667,0.373333 -2.74666,0 -4.29333,-1.6 -1.52,-1.6 -1.52,-4.373333 0,-2.106667 0.8,-3.546667 0.82667,-1.44 2,-2.293333 1.2,-0.88 2.53333,-1.253333 1.33334,-0.373334 2.34667,-0.373334 0.82667,0 1.46667,0.133334 0.66666,0.106666 1.12,0.293333 0.48,0.16 0.72,0.346667 0.26666,0.186666 0.26666,0.32 z"
       id="path25" />
    <path
       d="m 276.11716,18.968336 q 0,0.533333 -0.0267,1.333333 -0.0267,0.8 -0.0267,1.653334 0,0.96 0.29333,1.386666 0.29333,0.4 0.77333,0.4 0.0267,0 0.13334,-0.02667 0.10666,-0.02667 0.21333,-0.02667 0.13333,-0.02667 0.24,-0.05333 0.10667,-0.02667 0.13333,-0.02667 0.0533,0 0.10667,0.106667 0.08,0.08 0.0533,0.133333 -0.16,0.186667 -0.74666,0.453333 -0.56,0.266667 -1.28,0.533334 -0.69334,0.24 -1.36,0.426666 -0.64,0.186667 -0.96,0.186667 -0.37334,0 -0.58667,-0.213333 -0.21333,-0.213334 -0.21333,-0.32 0,-0.08 0,-0.106667 0.0267,-0.02667 0.0267,-0.05333 0.0267,-0.02667 0.0533,-0.08 0.0267,-0.08 0.0533,-0.24 0.08,-0.346667 0.16,-0.88 0.08,-0.56 0.13333,-1.36 0.08,-0.826667 0.13334,-1.973334 0.0533,-1.173333 0.10666,-2.773333 0.0267,-1.253333 0.0267,-2.453333 0.0267,-1.226667 0.0267,-2.293333 0.0267,-1.066667 0.0267,-1.946667 0,-0.9066667 0,-1.52 0,-1.28 -0.13333,-2 -0.13333,-0.7199999 -0.29333,-0.9333333 -0.18667,-0.2666666 -0.53334,-0.2666666 -0.32,-0.026667 -0.45333,-0.053333 -0.0267,-0.24 0.0267,-0.4266666 0.0533,-0.16 0.16,-0.2933333 0.10666,-0.1333334 0.4,-0.1333334 0.48,0 1.12,0 0.64,-0.026667 1.33333,-0.053333 0.69333,-0.053333 1.36,-0.1066667 0.66667,-0.08 1.17333,-0.1866666 0.16,-0.026667 0.16,0.1066666 0.0267,0.1066667 -0.0267,0.4 -0.0267,0.16 -0.16,0.2133334 -0.10667,0.026667 -0.26667,0.026667 -0.13333,0 -0.26667,0.026667 -0.10666,0 -0.16,0.1066667 -0.0533,0.1333333 -0.13333,0.3466666 -0.08,0.2133333 -0.13333,0.6133333 -0.08,0.5333333 -0.16,1.44 -0.08,0.88 -0.16,1.9733333 -0.0533,1.093333 -0.13334,2.293333 -0.0533,1.2 -0.10666,2.32 -0.0533,1.12 -0.08,2.08 -0.0267,0.96 -0.0267,1.573333 0.77333,0 1.65333,-0.373333 0.90667,-0.373333 1.65334,-1.013333 0.77333,-0.64 1.28,-1.493333 0.50666,-0.88 0.50666,-1.866667 0,-0.773333 -0.50666,-0.773333 -0.42667,0 -0.77334,0.133333 -0.34666,0.106667 -0.48,0.106667 -0.4,0 -0.45333,-0.213334 0,-0.16 0.13333,-0.346666 0.13334,-0.213334 0.26667,-0.266667 0.56,0 1.25333,-0.05333 0.72,-0.05333 1.44,-0.133334 0.72,-0.106666 1.38667,-0.213333 0.66667,-0.106667 1.12,-0.186667 0.13333,0.05333 0.13333,0.16 0,0.24 -0.45333,1.04 -0.42667,0.8 -1.17333,1.76 -0.72,0.96 -1.65334,1.866667 -0.93333,0.906666 -1.92,1.36 0.29334,0.186666 0.77334,0.693333 0.48,0.506667 1.04,1.173333 0.58666,0.666667 1.22666,1.386667 0.64,0.72 1.30667,1.333333 0.66667,0.586667 1.28,0.986667 0.64,0.373333 1.2,0.373333 0.4,0 0.61333,-0.08 0.24,-0.08 0.48,-0.213333 0.13334,0.08 0.13334,0.186667 0,0.213333 -0.21334,0.426666 -0.18666,0.186667 -0.88,0.4 -0.45333,0.133334 -1.04,0.373334 -0.58666,0.213333 -1.14666,0.4 -0.53334,0.213333 -0.96,0.346666 -0.4,0.133334 -0.50667,0.106667 -0.21333,-0.05333 -0.69333,-0.533333 -0.45334,-0.453334 -1.06667,-1.12 -0.58667,-0.693334 -1.28,-1.493334 -0.66667,-0.826666 -1.33333,-1.546666 -0.64,-0.72 -1.2,-1.28 -0.56,-0.56 -0.93334,-0.746667 z"
       id="path27" />
    <path
       d="m 296.06379,24.568336 q -0.61334,0.346667 -1.54667,0.72 -0.93333,0.373333 -1.94667,0.373333 -0.61333,0 -0.88,-0.106666 -0.26666,-0.106667 -0.26666,-0.426667 0,-0.106667 0.0267,-0.24 0.0533,-0.133333 0.10667,-0.213333 0.0533,-0.106667 0.13333,-0.133334 0.08,-0.05333 0.16,0.05333 0.16,0.213333 0.48,0.24 0.32,0.02667 0.69334,0.02667 0.56,-0.02667 1.01333,-0.373333 0.45333,-0.373333 0.66667,-0.986667 0.10666,-0.373333 0.21333,-1.173333 0.10667,-0.8 0.16,-1.92 0.08,-1.12 0.10667,-2.48 0.0533,-1.386667 0.0533,-2.906666 0,-3.466667 -0.18667,-5.386667 -0.18666,-1.9466666 -0.48,-2.24 -0.21333,-0.16 -0.53333,-0.24 -0.32,-0.1066666 -0.66667,-0.1333333 -0.32,-0.026667 -0.64,-0.026667 -0.32,0 -0.50666,0.026667 -0.18667,0.026667 -0.29334,-0.1066666 -0.10666,-0.1333334 -0.10666,-0.2666667 0,-0.48 0.34666,-0.48 0.18667,0 0.66667,0.053333 0.48,0.026667 1.09333,0.08 0.64,0.026667 1.33334,0.053333 0.69333,0.026667 1.25333,0.026667 0.69333,0 1.28,-0.2133333 0.61333,-0.2133333 1.25333,-0.48 0.64,-0.2666666 1.38667,-0.48 0.77333,-0.2133333 1.78667,-0.2133333 1.25333,0 2.34666,0.2133333 1.09334,0.2133334 1.89334,0.6666667 0.8,0.4266666 1.25333,1.12 0.48,0.6933333 0.48,1.6266666 0,1.0666666 -0.45333,1.9466663 -0.45334,0.853334 -1.14667,1.52 -0.66667,0.666667 -1.44,1.146667 -0.74667,0.453333 -1.36,0.693333 0.98667,0.08 2.16,0.346667 1.17333,0.24 2.18667,0.773333 1.01333,0.506667 1.68,1.36 0.69333,0.853333 0.69333,2.133333 0,1.013334 -0.42667,1.946667 -0.4,0.906667 -1.09333,1.706667 -0.69333,0.773333 -1.6,1.44 -0.88,0.64 -1.86667,1.093333 -0.96,0.453333 -1.97333,0.693333 -0.98667,0.266667 -1.84,0.266667 -0.50667,0 -1.28,-0.106667 -0.74667,-0.08 -1.54667,-0.24 -0.8,-0.16 -1.57333,-0.346666 -0.74667,-0.213334 -1.25333,-0.426667 z m 2.29333,-5.44 q 0.0267,1.386667 0.08,2 0.0533,0.613333 0.10667,0.933333 0.08,0.453334 0.37333,0.906667 0.32,0.426667 0.8,0.8 0.50667,0.373333 1.14667,0.613333 0.66666,0.213334 1.46666,0.213334 0.85334,0 1.6,-0.293334 0.74667,-0.293333 1.28,-0.906666 0.56,-0.64 0.88,-1.626667 0.32,-0.986667 0.32,-2.373333 0,-1.253334 -0.4,-2.133334 -0.4,-0.88 -1.14666,-1.413333 -0.72,-0.56 -1.76,-0.8 -1.04,-0.24 -2.32,-0.24 -0.74667,0 -1.41334,0.02667 -0.66666,0 -0.98666,0.02667 -0.0267,0.293333 -0.0267,0.613333 0,0.32 0,0.693333 z m 0.37333,-11.573333 q -0.0533,0.3466667 -0.10666,0.96 -0.0533,0.6133333 -0.10667,1.44 -0.0533,0.8 -0.10667,1.76 -0.0267,0.933333 -0.0533,1.946667 0.0267,0.08 0.29333,0.133333 0.26667,0.02667 0.61334,0.05333 0.37333,0.02667 0.77333,0.05333 0.4,0 0.72,0 0.50667,0 0.88,-0.02667 0.37333,-0.05333 0.64,-0.133333 0.29333,-0.106667 0.53333,-0.24 0.24,-0.133334 0.48,-0.346667 0.45334,-0.346667 0.82667,-1.12 0.4,-0.773333 0.4,-2.1333334 0,-0.9599999 -0.26667,-1.6799999 -0.26666,-0.7466667 -0.69333,-1.2266666 -0.42667,-0.5066667 -0.98667,-0.7466667 -0.53333,-0.24 -1.12,-0.24 -0.29333,0 -0.72,0.08 -0.42666,0.08 -0.82666,0.2666667 -0.4,0.16 -0.74667,0.48 -0.32,0.2933333 -0.42667,0.7199999 z"
       id="path29" />
    <path
       d="m 324.22375,13.795003 q -0.29334,0.24 -0.69334,0.613333 -0.4,0.346667 -0.85333,0.693334 -0.42667,0.32 -0.88,0.56 -0.45333,0.24 -0.88,0.24 -0.37333,0 -0.66667,-0.16 -0.29333,-0.186667 -0.56,-0.373334 -0.24,-0.213333 -0.48,-0.373333 -0.24,-0.186667 -0.50666,-0.186667 -0.72,0 -1.22667,0.586667 -0.48,0.586667 -0.8,1.493333 -0.29333,0.906667 -0.45333,1.973333 -0.13334,1.066667 -0.13334,2.053334 0,0.826666 0.0533,1.36 0.08,0.506666 0.21333,0.826666 0.13333,0.293334 0.34667,0.4 0.24,0.106667 0.56,0.106667 0.34666,0 0.74666,-0.106667 0.08,-0.02667 0.10667,0.106667 0.0533,0.133333 0.0533,0.213333 0,0.05333 -0.08,0.133334 -0.08,0.05333 -0.10666,0.05333 -0.58667,0.24 -1.2,0.533333 -0.61334,0.266667 -1.01334,0.453334 -0.37333,0.16 -0.90666,0.346666 -0.50667,0.186667 -0.88,0.186667 -0.42667,0 -0.72,-0.133333 -0.26667,-0.133334 -0.26667,-0.266667 0,-0.133333 0.0533,-0.24 0.08,-0.106667 0.13334,-0.4 0.0533,-0.4 0.10666,-0.933333 0.08,-0.56 0.13334,-1.2 0.08,-0.64 0.10666,-1.306667 0.0533,-0.693333 0.0533,-1.36 0,-1.493333 -0.10667,-2.533333 -0.08,-1.04 -0.32,-1.68 -0.24,-0.64 -0.66666,-0.906667 -0.4,-0.293333 -1.04,-0.293333 -0.13334,0 -0.24,0 -0.10667,0 -0.21334,0.02667 -0.16,0 -0.16,-0.16 0,-0.16 0.16,-0.24 0.29334,-0.186667 0.90667,-0.533334 0.61333,-0.373333 1.25333,-0.693333 0.66667,-0.346667 1.28,-0.613333 0.61333,-0.266667 0.90667,-0.266667 0.34666,0 0.58666,0.24 0.24,0.213333 0.34667,0.56 0.13333,0.346667 0.18667,0.8 0.0533,0.426667 0.0533,0.853333 0,0.32 -0.0267,0.666667 0,0.346667 0,0.746667 1.2,-1.76 2.16,-2.72 0.96,-0.986667 1.81334,-0.986667 0.32,0 0.61333,0.266667 0.32,0.266666 0.66667,0.613333 0.34666,0.32 0.72,0.586667 0.37333,0.266666 0.77333,0.266666 0.34667,0 0.50667,-0.08 0.16,-0.08 0.26666,-0.133333 0.21334,0 0.21334,0.293333 z"
       id="path31" />
    <path
       d="m 333.53041,22.995003 q -0.29334,0.24 -0.8,0.64 -0.50667,0.4 -1.17334,0.8 -0.66666,0.4 -1.46666,0.693333 -0.8,0.266667 -1.68,0.266667 -1.33334,0 -2.37334,-0.453334 -1.04,-0.48 -1.76,-1.253333 -0.69333,-0.8 -1.06666,-1.866667 -0.34667,-1.066666 -0.34667,-2.266666 0,-1.413334 0.42667,-2.506667 0.42666,-1.093333 1.04,-1.893333 0.64,-0.826667 1.36,-1.36 0.72,-0.56 1.30666,-0.88 0.26667,-0.16 0.66667,-0.346667 0.42667,-0.186666 0.90667,-0.346666 0.50666,-0.16 1.06666,-0.266667 0.58667,-0.133333 1.2,-0.133333 1.14667,0 2.21334,0.293333 1.09333,0.293333 1.92,0.933333 0.82666,0.613334 1.33333,1.6 0.50667,0.986667 0.50667,2.373333 0,1.12 -0.42667,2.106667 -0.4,0.986667 -0.96,1.76 -0.56,0.773333 -1.12,1.333333 -0.53333,0.533334 -0.77333,0.773334 z m -3.01334,0.426666 q 1.52,0 2.32,-1.146666 0.82667,-1.146667 0.82667,-3.52 0,-1.2 -0.34667,-2.213334 -0.32,-1.039999 -0.93333,-1.813333 -0.58667,-0.773333 -1.38667,-1.2 -0.8,-0.453333 -1.73333,-0.453333 -0.66667,0 -1.28,0.346667 -0.58667,0.346666 -1.04,1.013333 -0.45333,0.64 -0.72,1.573333 -0.26667,0.933333 -0.26667,2.106667 0,1.253333 0.37334,2.24 0.4,0.986666 1.04,1.68 0.64,0.666666 1.44,1.04 0.82666,0.346666 1.70666,0.346666 z"
       id="path33" />
    <path
       d="m 350.43704,24.941669 q -0.18667,-0.4 -0.53333,-1.226666 -0.32,-0.853334 -0.72,-1.893334 -0.4,-1.04 -0.85334,-2.133333 -0.45333,-1.12 -0.85333,-2.026667 -0.45333,0.773334 -1.09333,1.893334 -0.64,1.093333 -1.28,2.186666 -0.64,1.093334 -1.17334,2.053334 -0.53333,0.933333 -0.77333,1.413333 -0.08,0.106667 -0.34667,0.133333 -0.24,0.02667 -0.37333,0.02667 -0.29333,0 -0.4,-0.32 -0.16,-0.693333 -0.42667,-1.76 -0.24,-1.066667 -0.58666,-2.266667 -0.32,-1.226666 -0.72,-2.453333 -0.37334,-1.226667 -0.77334,-2.213333 -0.4,-0.986667 -0.82666,-1.6 -0.4,-0.613333 -0.77334,-0.613333 -0.13333,0 -0.26666,0 -0.10667,-0.02667 -0.24,-0.02667 -0.24,0 -0.32,0.02667 -0.10667,0 -0.10667,-0.186667 0,-0.05333 0.08,-0.186667 0.16,-0.106666 0.72,-0.4 0.56,-0.32 1.17333,-0.64 0.64,-0.346666 1.17334,-0.613333 0.56,-0.266667 0.72,-0.266667 0.45333,0 0.88,0.96 0.45333,0.96 0.88,2.4 0.42666,1.44 0.85333,3.12 0.42667,1.68 0.85333,3.12 0.24,-0.346667 0.53334,-0.853333 0.32,-0.533334 0.64,-1.173334 0.34666,-0.64 0.69333,-1.36 0.37333,-0.72 0.72,-1.44 -0.10667,-0.266666 -0.26667,-0.613333 -0.13333,-0.373333 -0.29333,-0.746666 -0.16,-0.373334 -0.34667,-0.72 -0.16,-0.373334 -0.32,-0.613334 -0.16,-0.24 -0.37333,-0.266666 -0.21333,-0.05333 -0.21333,-0.186667 0,-0.05333 0.0533,-0.106667 0.74667,-0.426666 1.62667,-0.853333 0.90666,-0.453333 1.78666,-0.586667 0.24,0.05333 0.34667,0.24 0.10667,0.16 0.16,0.373334 0.10667,0.32 0.32,0.986666 0.24,0.64 0.50667,1.493334 0.29333,0.853333 0.61333,1.839999 0.34667,0.96 0.66667,1.92 0.32,0.933334 0.61333,1.786667 0.32,0.826667 0.58667,1.386667 0.37333,-0.773334 0.82666,-1.813334 0.48,-1.04 0.88,-2.106666 0.42667,-1.093334 0.69334,-2.08 0.29333,-1.013333 0.29333,-1.653333 0,-1.333334 -1.2,-1.333334 -0.29333,0 -0.58667,0.08 -0.26666,0.05333 -0.34666,0.05333 -0.08,0 -0.16,-0.08 -0.0533,-0.106667 -0.0533,-0.24 0,-0.106667 0.37334,-0.24 0.37333,-0.16 0.98666,-0.266667 0.61334,-0.133333 1.36,-0.213333 0.74667,-0.106667 1.52,-0.106667 0.58667,0 0.96,0.16 0.4,0.16 0.50667,0.48 -0.21333,0.8 -0.72,1.866667 -0.50667,1.066666 -1.17333,2.239999 -0.64,1.173334 -1.38667,2.426667 -0.74667,1.226667 -1.44,2.373333 -0.69333,1.146667 -1.28,2.133334 -0.56,0.986666 -0.85333,1.653333 -0.0533,0.05333 -0.34667,0.05333 -0.26667,0 -0.4,0 -0.21333,0 -0.24,-0.106666 -0.0267,-0.08 -0.16,-0.293334 z"
       id="path35" />
    <path
       d="m 362.49037,18.088336 q -0.0267,0.24 -0.0533,0.426667 -0.0267,0.186666 -0.0533,0.426666 0,0.24 -0.0267,0.613334 0,0.346666 0,0.933333 0,0.96 0.0533,1.573333 0.08,0.613334 0.21333,0.986667 0.13334,0.346667 0.32,0.48 0.21334,0.133333 0.50667,0.133333 0.18667,0 0.4,-0.05333 0.0533,0 0.08,0.16 0.0533,0.133333 0,0.186667 -0.16,0.133333 -0.64,0.4 -0.45333,0.24 -1.04,0.48 -0.58667,0.24 -1.22667,0.426666 -0.61333,0.186667 -1.04,0.186667 -0.37333,0 -0.58666,-0.106667 -0.21334,-0.08 -0.21334,-0.213333 0,-0.133333 0.0267,-0.16 0.0267,-0.02667 0.08,-0.133333 0.0533,-0.133334 0.08,-0.32 0.0267,-0.213334 0.08,-0.48 0.0533,-0.373334 0.10667,-0.933334 0.0533,-0.586666 0.10666,-1.253333 0.0533,-0.693333 0.08,-1.413333 0.0533,-0.746667 0.0533,-1.44 0,-0.293334 -0.0267,-0.72 0,-0.453334 -0.0267,-1.146667 -0.0267,-0.773333 -0.18666,-1.306666 -0.13334,-0.56 -0.37334,-0.88 -0.21333,-0.346667 -0.50666,-0.506667 -0.26667,-0.16 -0.53334,-0.16 -0.13333,0 -0.26666,0 -0.13334,0 -0.26667,0.02667 -0.10667,0 -0.10667,-0.24 0,-0.05333 0.0267,-0.08 0.0533,-0.05333 0.26667,-0.186667 0.34666,-0.24 0.93333,-0.586667 0.58667,-0.346666 1.2,-0.64 0.61333,-0.293333 1.14667,-0.506666 0.56,-0.213334 0.85333,-0.213334 0.77333,0 0.77333,0.88 0,0.133334 -0.0267,0.48 -0.0267,0.346667 -0.0533,0.72 0,0.346667 -0.0267,0.666667 -0.0267,0.32 -0.0267,0.426667 0.56,-0.533334 1.2,-1.093334 0.64,-0.56 1.38667,-1.013333 0.74666,-0.48 1.57333,-0.773333 0.82667,-0.293334 1.70667,-0.293334 1.6,0 2.61333,0.933334 1.04,0.906666 1.04,2.906666 0,0.533333 -0.08,1.253333 -0.0533,0.72 -0.13333,1.493334 -0.08,0.773333 -0.16,1.52 -0.0533,0.746666 -0.0533,1.333333 0,2.133333 1.38667,2.133333 0.26667,0 0.58667,-0.08 0.34666,-0.106666 0.64,-0.213333 0.32,-0.133333 0.56,-0.24 0.24,-0.133333 0.32,-0.213333 0.0267,-0.02667 0.0533,0.05333 0.0533,0.05333 0.08,0.16 0.0267,0.106667 0,0.186667 0,0.08 -0.0267,0.106666 -0.21333,0.133334 -0.93333,0.506667 -0.69333,0.373333 -1.57333,0.773333 -0.85334,0.373334 -1.70667,0.666667 -0.85333,0.32 -1.36,0.32 -0.61333,0 -0.85333,-0.293333 -0.21334,-0.293334 -0.21334,-0.613334 0,-0.213333 0.0533,-0.533333 0.08,-0.32 0.18666,-1.04 0.10667,-0.773333 0.18667,-1.813333 0.10667,-1.04 0.10667,-2.24 0,-2.346667 -0.88,-3.546667 -0.85334,-1.226666 -2.16,-1.226666 -0.82667,0 -1.46667,0.32 -0.64,0.32 -1.09333,0.88 -0.45334,0.533333 -0.72,1.253333 -0.26667,0.693333 -0.34667,1.493333 z"
       id="path37" />
    <path
       d="m 171.74403,53.128339 q -0.37333,-0.08 -0.82666,-0.133334 -0.45334,-0.05333 -0.96,-0.08 -0.50667,-0.02667 -1.01334,-0.02667 -0.48,-0.02667 -0.90666,-0.02667 -0.18667,0 -0.42667,0 -0.21333,0 -0.4,0 -0.18667,0 -0.32,0.02667 -0.13333,0.02667 -0.13333,0.08 0,0.693333 0,1.626666 0.0267,0.906667 0.0533,1.84 0.0533,0.906667 0.10667,1.68 0.0533,0.773333 0.16,1.12 0.0533,0.213333 0.45333,0.293333 0.4,0.106667 0.90667,0.106667 0.21333,0 0.42666,-0.02667 0.24,0 0.53334,0 0.29333,0 0.45333,0.133334 0.16,0.133333 0.16,0.32 0,0.213333 -0.0533,0.373333 -0.0267,0.16 -0.56,0.16 -0.21334,0 -0.69334,-0.02667 -0.45333,-0.02667 -1.01333,-0.05333 -0.53333,-0.02667 -1.12,0 -0.58667,0.02667 -1.04,0.106667 -1.06667,0.213333 -2,0.48 -0.93333,0.293333 -1.68,0.586666 -0.74667,0.293334 -1.25333,0.56 -0.50667,0.293334 -0.72,0.533334 -0.10667,0.133333 -0.16,0.133333 -0.0533,0 -0.13334,0 -0.0533,0 -0.26666,-0.16 -0.21334,-0.133333 -0.21334,-0.373333 0,-0.133334 0.42667,-0.4 0.45333,-0.24 1.06667,-0.533334 0.61333,-0.266666 1.28,-0.533333 0.66666,-0.24 1.14666,-0.373333 0.13334,-0.186667 0.21334,-1.066667 0.10666,-0.853333 0.16,-2.506666 0.08,-1.68 0.10666,-4.186667 0.0533,-2.506667 0.08,-6 0,-0.96 -0.0267,-1.946667 -0.0267,-1.013333 -0.08,-1.866666 -0.0533,-0.88 -0.16,-1.52 -0.10667,-0.64 -0.26667,-0.906667 -0.13333,-0.186666 -0.50667,-0.24 -0.34666,-0.08 -0.82666,-0.08 h -1.06667 q -0.13333,0 -0.32,0 -0.16,0 -0.34667,-0.02667 -0.18666,-0.05333 -0.32,-0.133334 -0.10666,-0.08 -0.10666,-0.213333 0,-0.293333 0.08,-0.4 0.08,-0.133333 0.72,-0.133333 0.26666,0 0.66666,0.02667 0.4,0.02667 0.8,0.05333 0.42667,0 0.82667,0.02667 0.42667,0.02667 0.74667,0.02667 0.85333,0 2.10666,-0.16 1.28,-0.16 2.61334,-0.213333 0.98666,-0.02667 2,-0.02667 1.04,-0.02667 1.92,-0.02667 0.90666,-0.02667 1.54666,-0.02667 0.66667,-0.02667 0.90667,-0.08 0.24,-0.746667 0.53333,-1.28 0.29334,-0.56 0.61334,-0.586667 0.13333,0 0.34666,0.106667 0.24,0.08 0.24,0.24 -0.08,0.08 -0.13333,0.16 -0.10667,0.16 -0.10667,0.24 -0.32,0.56 -0.58666,1.44 -0.24,0.88 -0.42667,1.813333 -0.16,0.933333 -0.24,1.813333 -0.08,0.88 0,1.466667 -0.08,0.4 -0.32,0.4 -0.42667,0 -0.53333,-0.133334 -0.08,-0.16 -0.0267,-0.319999 0.0533,-0.213334 0.08,-0.533334 0.0267,-0.346666 0.0267,-0.56 0,-0.64 -0.42667,-1.093333 -0.42667,-0.48 -1.14667,-0.773333 -0.72,-0.32 -1.70666,-0.48 -0.96,-0.16 -2.05334,-0.16 -0.29333,0 -0.8,0.02667 -0.48,0 -0.72,0.213334 -0.0533,0.213333 -0.10666,0.906666 -0.0533,0.693334 -0.10667,1.653334 -0.0267,0.933333 -0.0533,2.026666 -0.0267,1.066667 -0.0533,2.08 0,1.013333 -0.0267,1.84 0,0.826667 0,1.226667 0.53333,0.02667 1.01333,0.02667 0.50667,0 0.98667,0 1.6,0.02667 2.8,-0.05333 1.22666,-0.106667 1.62666,-0.24 0.24,-0.08 0.37334,-0.213333 0.16,-0.16 0.24,-0.32 0.10666,-0.16 0.18666,-0.266667 0.10667,-0.133333 0.21334,-0.133333 0.13333,0 0.26666,0.133333 0.13334,0.133333 0.08,0.24 -0.16,0.293333 -0.29333,0.826667 -0.13333,0.506666 -0.24,1.146666 -0.08,0.613334 -0.16,1.28 -0.0533,0.666667 -0.0533,1.253334 0,0.106666 0,0.213333 0.0267,0.106667 0.0267,0.24 0,0.08 -0.13333,0.133333 -0.10667,0.02667 -0.24,0.02667 -0.10667,0 -0.21333,-0.02667 -0.10667,-0.02667 -0.10667,-0.106666 0,-0.16 -0.0267,-0.373334 -0.0267,-0.24 -0.13333,-0.453333 -0.08,-0.213333 -0.29333,-0.4 -0.18667,-0.213333 -0.53334,-0.346667 z"
       id="path39" />
    <path
       d="m 187.18403,56.328339 q -0.29334,0.24 -0.8,0.64 -0.50667,0.4 -1.17334,0.8 -0.66666,0.4 -1.46666,0.693333 -0.8,0.266666 -1.68,0.266666 -1.33334,0 -2.37334,-0.453333 -1.04,-0.48 -1.76,-1.253333 -0.69333,-0.8 -1.06666,-1.866667 -0.34667,-1.066666 -0.34667,-2.266666 0,-1.413334 0.42667,-2.506667 0.42666,-1.093333 1.04,-1.893333 0.64,-0.826667 1.36,-1.36 0.72,-0.56 1.30666,-0.88 0.26667,-0.16 0.66667,-0.346667 0.42667,-0.186667 0.90667,-0.346667 0.50666,-0.16 1.06666,-0.266666 0.58667,-0.133334 1.2,-0.133334 1.14667,0 2.21334,0.293334 1.09333,0.293333 1.92,0.933333 0.82666,0.613333 1.33333,1.6 0.50667,0.986667 0.50667,2.373333 0,1.12 -0.42667,2.106667 -0.4,0.986667 -0.96,1.76 -0.56,0.773333 -1.12,1.333333 -0.53333,0.533334 -0.77333,0.773334 z m -3.01334,0.426666 q 1.52,0 2.32,-1.146666 0.82667,-1.146667 0.82667,-3.52 0,-1.2 -0.34667,-2.213334 -0.32,-1.04 -0.93333,-1.813333 -0.58667,-0.773333 -1.38667,-1.2 -0.8,-0.453333 -1.73333,-0.453333 -0.66667,0 -1.28,0.346666 -0.58667,0.346667 -1.04,1.013334 -0.45333,0.64 -0.72,1.573333 -0.26667,0.933333 -0.26667,2.106667 0,1.253333 0.37334,2.24 0.4,0.986666 1.04,1.68 0.64,0.666666 1.44,1.04 0.82666,0.346666 1.70666,0.346666 z"
       id="path41" />
    <path
       d="m 200.35733,58.808338 q -0.45333,-0.08 -0.98667,-0.639999 -0.50666,-0.56 -1.01333,-1.306667 -0.48,-0.773333 -0.88,-1.6 -0.37333,-0.826667 -0.56,-1.413333 -0.16,0.24 -0.61333,0.8 -0.42667,0.533333 -0.98667,1.146666 -0.56,0.613334 -1.17333,1.253334 -0.58667,0.613333 -1.01334,1.013333 -0.64,0.666666 -1.33333,1.333333 -0.69333,0.666667 -1.36,1.173333 -0.69333,0.533334 -1.30667,0.853334 -0.61333,0.32 -1.09333,0.32 -0.32,0 -0.48,-0.106667 -0.18667,-0.08 -0.26667,-0.133333 0.10667,-0.133334 0.32,-0.56 0.21334,-0.426667 0.48,-1.013334 0.24,-0.56 0.50667,-1.226666 0.24,-0.64 0.4,-1.253333 0.08,-0.08 0.13333,-0.08 0.08,0 0.10667,0.266666 0.0267,0.24 0.10667,0.56 0.08,0.293333 0.29333,0.533333 0.18667,0.266667 0.61333,0.266667 0.69334,0 1.54667,-0.666667 0.88,-0.666666 1.73333,-1.653333 0.88,-1.013333 1.65334,-2.213333 0.8,-1.2 1.33333,-2.24 -0.21333,-0.8 -0.66667,-1.653333 -0.45333,-0.88 -1.06666,-1.6 -0.58667,-0.746667 -1.30667,-1.2 -0.72,-0.48 -1.46667,-0.48 -0.21333,0 -0.42666,0.16 -0.21334,0.16 -0.48,0.24 -0.18667,0 -0.18667,-0.24 0,-0.08 0.53333,-0.426667 0.56,-0.373333 1.28,-0.773333 0.72,-0.4 1.38667,-0.693334 0.69333,-0.32 0.98667,-0.32 0.66666,0 1.17333,0.373334 0.53333,0.346666 0.93333,0.933333 0.42667,0.586667 0.72,1.306667 0.29334,0.693333 0.48,1.413333 0.50667,-0.746667 1.14667,-1.493333 0.64,-0.746667 1.33333,-1.333334 0.72,-0.586666 1.46667,-0.933333 0.77333,-0.373333 1.49333,-0.373333 0.45334,0 0.74667,0.08 0.32,0.05333 0.53333,0.293333 -0.0267,0.133333 -0.26666,0.666667 -0.21334,0.533333 -0.50667,1.146666 -0.26667,0.586667 -0.50667,1.066667 -0.24,0.48 -0.32,0.48 -0.16,0 -0.34666,-0.16 -0.18667,-0.186667 -0.42667,-0.373333 -0.24,-0.213334 -0.58667,-0.373334 -0.32,-0.186666 -0.8,-0.186666 -0.93333,0 -1.57333,0.8 -0.61333,0.8 -0.82667,2.373333 0.08,0.773333 0.42667,1.653333 0.34667,0.88 0.85333,1.626667 0.50667,0.746667 1.12,1.253333 0.64,0.506667 1.28,0.506667 0.93334,0 1.52,-0.32 0.58667,-0.346667 0.98667,-0.72 0.0267,-0.02667 0.10667,-0.02667 0.16,0 0.16,0.213334 0,0.133333 -0.18667,0.32 -0.18667,0.186666 -0.48,0.4 -0.26667,0.186666 -0.58667,0.4 -0.29333,0.213333 -0.56,0.426666 -0.74666,0.613334 -1.62666,1.226667 -0.85334,0.613333 -1.62667,0.906666 z"
       id="path43" />
    <path
       d="m 214.6773,61.048338 q -0.77333,1.386667 -1.94667,2.053334 -1.14666,0.693333 -2.29333,0.693333 -0.69333,-0.133333 -0.69333,-0.533333 0,-0.346667 0.26666,-0.346667 0.10667,0 0.26667,0.02667 0.16,0.02667 0.50667,0.02667 1.46666,0 2.29333,-1.04 0.82667,-1.04 1.12,-2.666666 0.32,-1.946667 0.45333,-4.213333 0.16,-2.293334 0.21334,-5.28 0,-4.666667 -0.13334,-6.933333 -0.13333,-2.293334 -0.37333,-2.613334 -0.18667,-0.05333 -0.53333,-0.08 -0.32,-0.05333 -0.66667,-0.05333 -0.34667,-0.02667 -0.66667,-0.02667 -0.29333,-0.02667 -0.42666,-0.02667 -0.10667,0 -0.21334,-0.05333 -0.08,-0.08 -0.08,-0.24 0,-0.506666 0.32,-0.586666 0.0533,0 0.4,0.05333 0.37334,0.05333 0.96,0.133333 0.61334,0.05333 1.41334,0.106667 0.8,0.05333 1.70666,0.05333 1.86667,0 2.88,-0.106666 1.01334,-0.106667 1.30667,-0.16 0.08,0 0.13333,0.106666 0.0533,0.106667 0.0533,0.266667 0,0.133333 -0.08,0.266667 -0.08,0.133333 -0.24,0.133333 -0.32,0.02667 -0.72,0.08 -0.4,0.05333 -0.77334,0.16 -0.29333,0.08 -0.50666,0.666667 -0.18667,0.586666 -0.32,1.52 -0.10667,0.906666 -0.16,2.106666 -0.0533,1.173333 -0.08,2.453333 v 1.2 q 0,1.226667 0,2.426667 0.0267,1.173333 0.0267,2.266667 0,1.066666 0,2 0.0267,0.906666 0.0267,1.573333 0,1.466667 -0.29333,2.106666 -0.26667,0.64 -0.72,0.906667 -0.42667,0.293333 -0.98667,0.426667 -0.56,0.16 -1.14667,0.613333 z"
       id="path45" />
    <path
       d="m 221.31727,47.448339 q -0.21333,-0.05333 -0.21333,-0.213334 0.0267,-0.16 0.21333,-0.186666 0.08,-0.02667 0.50667,-0.186667 0.42667,-0.16 1.01333,-0.373333 0.61334,-0.213334 1.25334,-0.453334 0.66666,-0.24 1.17333,-0.4 0.32,-0.106666 0.42667,-0.133333 0.13333,-0.05333 0.21333,-0.05333 0.08,0 0.18667,0.08 0.10666,0.05333 0.0533,0.186666 -0.08,0.213334 -0.18667,1.013334 -0.08,0.8 -0.16,1.786666 -0.08,0.96 -0.16,1.92 -0.0533,0.96 -0.0533,1.52 0,2.133334 0.90667,3.306667 0.90666,1.146667 2.82666,1.146667 0.98667,0 1.62667,-0.4 0.66667,-0.4 1.01333,-0.933334 0.24,-0.346666 0.32,-1.52 0,-0.213333 0,-0.56 0.0267,-0.346666 0.0267,-0.72 0.0267,-0.4 0.0267,-0.746666 0.0267,-0.373334 0.0267,-0.613334 0.0267,-1.226666 -0.08,-2.266666 -0.08,-1.066667 -0.26666,-1.573334 -0.08,-0.32 -0.32,-0.32 -0.16,0 -0.32,0.02667 -0.13334,0 -0.16,-0.24 0,-0.08 0.16,-0.16 0.16,-0.106667 0.61333,-0.293333 0.42667,-0.16 0.93333,-0.32 0.53334,-0.16 1.04,-0.266667 0.50667,-0.106667 0.90667,-0.133333 0.4,-0.05333 0.58667,0.02667 0,0.02667 0.0267,0.08 0.0533,0.02667 0.08,0.16 0.0533,0.16 -0.08,1.013334 -0.10666,0.826666 -0.24,2.72 -0.10666,1.306666 -0.18666,2.533333 -0.08,1.226667 -0.08,1.866667 0,1.253333 0.45333,2 0.48,0.72 1.17333,0.72 0.45334,0 0.85334,-0.186667 0.42666,-0.186667 0.61333,-0.32 0.21333,0 0.21333,0.186667 0.0267,0.186666 -0.08,0.24 -0.4,0.266666 -1.12,0.666666 -0.69333,0.4 -1.46666,0.773334 -0.74667,0.346666 -1.44,0.613333 -0.69334,0.24 -1.12,0.24 -0.21334,0 -0.4,-0.266667 -0.16,-0.293333 -0.26667,-0.693333 -0.10667,-0.4 -0.16,-0.826667 -0.0533,-0.426666 -0.0533,-0.746666 -0.56,0.4 -1.28,0.853333 -0.72,0.426667 -1.49334,0.826667 -0.77333,0.373333 -1.54666,0.613333 -0.74667,0.24 -1.38667,0.24 -1.62667,0 -2.66667,-0.853333 -1.04,-0.88 -1.04,-2.266667 0,-0.293333 0.0533,-0.88 0.0533,-0.586667 0.13333,-1.333333 0.08,-0.746667 0.13333,-1.6 0.0533,-0.853334 0.0533,-1.653334 0,-1.226666 -0.4,-1.866666 -0.37334,-0.666667 -0.98667,-0.746667 z"
       id="path47" />
    <path
       d="m 263.05056,56.141672 q 0.08,0 0.10666,0.106667 0.0267,0.08 0.0267,0.213333 0,0.133333 -0.0533,0.186667 -0.0533,0.02667 -0.10667,0.08 -0.18667,0.106666 -0.90667,0.453333 -0.69333,0.346667 -1.57333,0.72 -0.85333,0.346667 -1.70667,0.613333 -0.82666,0.293333 -1.25333,0.293333 -0.37333,0 -0.72,-0.16 -0.32,-0.16 -0.26667,-0.506666 0.0533,-0.213333 0.10667,-0.64 0.08,-0.426667 0.13333,-1.04 0.0533,-0.773333 0.10667,-1.786667 0.08,-1.013333 0.08,-2.24 0,-1.44 -0.18667,-2.373333 -0.18666,-0.96 -0.53333,-1.52 -0.34667,-0.56 -0.85333,-0.773333 -0.50667,-0.24 -1.17334,-0.24 -0.61333,0 -1.04,0.213333 -0.42666,0.186667 -0.74666,0.426667 -0.58667,0.453333 -0.93334,1.173333 -0.32,0.693333 -0.4,1.84 -0.0267,0.293333 -0.0533,0.586667 0,0.293333 -0.0267,0.64 0,0.346666 -0.0267,0.773333 0,0.426667 0,1.013333 0,1.573334 0.24,2.186667 0.26666,0.613333 0.88,0.613333 0.21333,0 0.26666,0 0.0533,-0.02667 0.21334,-0.05333 0.0533,0.05333 0.10666,0.133333 0.08,0.133334 -0.0267,0.293334 -0.13334,0.16 -0.64,0.426666 -0.50667,0.24 -1.12,0.453334 -0.61334,0.213333 -1.2,0.373333 -0.58667,0.16 -0.88,0.16 -0.37334,0 -0.69334,-0.106667 -0.29333,-0.08 -0.29333,-0.213333 0,-0.16 0.10667,-0.373333 0.08,-0.133334 0.16,-0.64 0.08,-0.506667 0.13333,-1.306667 0.08,-0.8 0.13333,-1.84 0.0533,-1.066667 0.0533,-2.293333 0,-0.64 -0.08,-1.413334 -0.0533,-0.773333 -0.32,-1.44 -0.26667,-0.693333 -0.8,-1.146666 -0.50667,-0.48 -1.41334,-0.48 -0.53333,0 -0.96,0.16 -0.42666,0.133333 -0.72,0.346666 -0.58666,0.453334 -1.01333,1.12 -0.4,0.666667 -0.53333,1.893334 -0.0533,0.56 -0.10667,1.173333 -0.0533,0.586667 -0.0533,1.36 0,1.013333 0.0533,1.68 0.0533,0.666667 0.18667,1.066667 0.13333,0.373333 0.32,0.533333 0.18666,0.133333 0.48,0.133333 0.29333,0 0.4,-0.05333 0.13333,-0.05333 0.18666,0.16 0.0533,0.213333 -0.0267,0.266667 -0.10667,0.106666 -0.56,0.346666 -0.45334,0.213334 -1.04,0.453334 -0.58667,0.239999 -1.2,0.426666 -0.61334,0.186667 -1.04,0.186667 -0.45334,0 -0.72,-0.106667 -0.24,-0.106667 -0.24,-0.24 0,-0.02667 0.0533,-0.16 0.0533,-0.16 0.08,-0.266666 0.10667,-0.826667 0.18667,-1.52 0.10666,-0.72 0.13333,-1.546667 0.0533,-0.826667 0.08,-1.893333 0.0267,-1.066667 0.0267,-2.586667 0,-1.466667 -0.48,-2.16 -0.45334,-0.693333 -0.96,-0.693333 -0.21334,0 -0.37334,0.05333 -0.13333,0.02667 -0.26666,0.05333 -0.16,0.02667 -0.16,-0.16 v -0.186666 q 0.0267,-0.02667 0.53333,-0.373334 0.50667,-0.346666 1.2,-0.746666 0.69333,-0.4 1.44,-0.72 0.74667,-0.346667 1.22667,-0.346667 0.32,0 0.53333,0.186667 0.24,0.186666 0.24,0.693333 0,0.24 -0.0267,0.533333 0,0.293334 -0.0267,0.613334 0,0.32 -0.0267,0.64 -0.0267,0.293333 -0.0267,0.506666 0.37334,-0.346666 0.93334,-0.906666 0.58666,-0.56 1.30666,-1.066667 0.72,-0.506667 1.54667,-0.88 0.85333,-0.373333 1.78667,-0.373333 1.22666,0 2,0.72 0.77333,0.72 0.82666,2.506666 0.42667,-0.4 1.04,-0.96 0.61334,-0.56 1.36,-1.066666 0.77334,-0.506667 1.62667,-0.853334 0.85333,-0.346666 1.73333,-0.346666 3.09334,0 3.09334,3.28 0,0.533333 -0.0533,1.226666 -0.0533,0.693334 -0.13333,1.466667 -0.08,0.746667 -0.13333,1.493333 -0.0533,0.746667 -0.0533,1.36 0,2.773334 1.46667,2.773334 0.24,0 0.53333,-0.05333 0.29334,-0.08 0.58667,-0.16 0.29333,-0.106666 0.53333,-0.186666 0.24,-0.106667 0.34667,-0.186667 z"
       id="path49" />
    <path
       d="m 273.02386,57.235005 q -0.85334,0.533334 -2.10667,0.96 -1.25333,0.426667 -2.42667,0.426667 -0.37333,0 -0.85333,-0.05333 -0.45333,-0.05333 -0.74667,-0.106666 -0.0267,0.506666 -0.0533,1.04 0,0.533333 -0.0267,1.013333 0,0.506667 -0.0267,0.933333 0,0.426667 0,0.72 0,1.36 0.21333,1.84 0.24,0.48 0.72,0.48 0.24,0 0.64,-0.08 0.42667,-0.05333 0.74667,-0.213333 0.0533,-0.05333 0.10666,0.106667 0.08,0.16 0.08,0.293333 0,0.02667 -0.37333,0.133333 -0.37333,0.133334 -0.96,0.293334 -0.56,0.186666 -1.22667,0.373333 -0.66666,0.213333 -1.28,0.373333 -0.61333,0.186667 -1.06666,0.293334 -0.42667,0.106666 -0.53334,0.106666 -0.16,0 -0.29333,-0.02667 -0.13333,-0.02667 -0.13333,-0.24 0,-0.133334 0.08,-0.186667 0.10666,-0.02667 0.16,-0.106667 0.13333,-0.16 0.16,-0.613333 0.0267,-0.426667 0.08,-0.853333 0.08,-1.04 0.16,-2.48 0.10666,-1.413334 0.18666,-2.986667 0.08,-1.546666 0.13334,-3.093333 0.08,-1.573333 0.08,-2.853333 0,-1.813334 -0.16,-2.826667 -0.13334,-1.04 -0.4,-1.52 -0.26667,-0.506667 -0.61334,-0.613333 -0.32,-0.133334 -0.69333,-0.133334 -0.08,0 -0.24,0.02667 -0.13333,0 -0.26667,0 -0.10666,0 -0.10666,-0.186667 0,-0.133333 0.0267,-0.16 0,-0.05333 0.10667,-0.106666 0.13333,-0.08 0.48,-0.266667 0.37333,-0.186667 0.82667,-0.4 0.48,-0.24 1.01333,-0.48 0.53333,-0.266667 0.98667,-0.453333 0.48,-0.213334 0.82666,-0.346667 0.34667,-0.133333 0.48,-0.133333 0.4,0 0.53334,0.346666 0.16,0.346667 0.18666,0.933334 0,0.24 -0.0267,0.773333 0,0.506667 -0.0267,1.173333 0.34667,-0.373333 0.93333,-0.906666 0.61334,-0.56 1.36,-1.066667 0.77334,-0.506667 1.6,-0.853333 0.85334,-0.373334 1.65334,-0.373334 1.14666,0 2.02666,0.426667 0.90667,0.4 1.49334,1.093333 0.58666,0.666667 0.88,1.546667 0.32,0.853333 0.32,1.76 0,1.28 -0.4,2.373333 -0.37334,1.066667 -0.93334,1.92 -0.56,0.826667 -1.22666,1.44 -0.66667,0.613334 -1.22667,0.96 z m -6,-2.053333 q 0.08,0.293333 0.42666,0.613333 0.34667,0.293334 0.88,0.56 0.56,0.24 1.25334,0.426667 0.72,0.16 1.52,0.16 0.72,0 1.36,-0.266667 0.66666,-0.293333 1.14666,-0.88 0.48,-0.613333 0.74667,-1.573333 0.29333,-0.96 0.29333,-2.32 0,-0.96 -0.26666,-1.813333 -0.26667,-0.853334 -0.77334,-1.493334 -0.50666,-0.64 -1.2,-0.986666 -0.69333,-0.373334 -1.52,-0.373334 -0.42666,0 -0.96,0.186667 -0.50666,0.186667 -0.98666,0.506667 -0.48,0.32 -0.90667,0.746666 -0.4,0.426667 -0.58667,0.906667 -0.13333,0.32 -0.24,1.013333 -0.08,0.666667 -0.13333,1.493334 -0.0267,0.8 -0.0533,1.626666 0,0.826667 0,1.466667 z"
       id="path51" />
    <path
       d="m 278.91714,57.795005 q -0.21333,0.133334 -0.4,0.453334 -0.18666,0.293333 -0.24,0.453333 -0.0267,0.05333 -0.16,0.08 -0.10666,0.05333 -0.16,0.05333 -0.24,0 -0.24,-0.24 0,-0.08 0.21334,-0.426666 0.16,-0.266667 0.50666,-0.826667 0.34667,-0.586667 0.69334,-1.173333 0.37333,-0.613334 0.66666,-1.093334 0.32,-0.506666 0.45334,-0.666666 0.13333,-0.133334 0.32,-0.02667 0.18666,0.08 0.10666,0.213333 -0.0533,0.05333 -0.08,0.133334 -0.0267,0.08 -0.0267,0.266666 0,0.24 0.4,0.613334 0.42666,0.346666 1.06666,0.693333 0.64,0.32 1.41334,0.56 0.77333,0.24 1.52,0.24 0.88,0 1.38666,-0.506667 0.53334,-0.506666 0.53334,-1.333333 0,-0.933333 -0.58667,-1.386667 -0.58667,-0.453333 -1.46667,-0.693333 -0.85333,-0.24 -1.89333,-0.373333 -1.01333,-0.16 -1.89333,-0.453334 -0.85334,-0.293333 -1.44,-0.853333 -0.58667,-0.56 -0.58667,-1.626667 0,-0.826666 0.56,-1.68 0.58667,-0.853333 1.52,-1.52 0.96,-0.666666 2.18667,-1.093333 1.22666,-0.426667 2.56,-0.426667 0.4,0 0.93333,0.08 0.53333,0.08 1.04,0.213334 0.53333,0.106666 0.96,0.24 0.45333,0.106666 0.66667,0.186666 0.0533,0 -0.0267,0.213334 -0.08,0.24 -0.4,0.746666 -0.32,0.48 -0.72,0.96 -0.37333,0.48 -0.72,0.853334 -0.32,0.373333 -0.45333,0.373333 -0.0267,0 -0.16,0 -0.13334,0 -0.18667,-0.05333 0.0267,-0.133334 0.0267,-0.346667 0,-0.933333 -0.85334,-1.466667 -0.82666,-0.533333 -2.42666,-0.533333 -0.77334,0 -1.28,0.453333 -0.48,0.453334 -0.48,1.093334 0,1.04 0.58666,1.546666 0.58667,0.506667 1.46667,0.773334 0.88,0.24 1.89333,0.373333 1.01334,0.133333 1.89334,0.426667 0.88,0.266666 1.46666,0.826666 0.58667,0.56 0.58667,1.68 0,0.506667 -0.21333,0.986667 -0.21334,0.48 -0.56,0.906667 -0.34667,0.426666 -0.77334,0.8 -0.42666,0.346666 -0.85333,0.613333 -0.4,0.266667 -0.90667,0.56 -0.50666,0.266667 -1.09333,0.506667 -0.58667,0.239999 -1.2,0.373333 -0.61333,0.16 -1.22667,0.16 -0.29333,0 -0.93333,-0.133334 -0.64,-0.106666 -1.30667,-0.266666 -0.64,-0.16 -1.14666,-0.293333 -0.50667,-0.16 -0.53334,-0.213334 z"
       id="path53" />
    <path
       d="m 307.66378,57.848339 q 1.46666,0 2.58666,-0.72 1.12,-0.746667 1.86667,-1.946667 0.77333,-1.226667 1.14667,-2.8 0.37333,-1.6 0.37333,-3.333333 0,-2.106667 -0.50667,-3.786667 -0.50666,-1.706666 -1.38666,-2.88 -0.85334,-1.173333 -2.02667,-1.786666 -1.14667,-0.64 -2.42667,-0.64 -1.46666,0 -2.64,0.666666 -1.14666,0.64 -1.97333,1.786667 -0.8,1.146667 -1.22667,2.746666 -0.42666,1.573334 -0.42666,3.44 0,2.373334 0.56,4.133334 0.56,1.733333 1.46666,2.88 0.93334,1.12 2.13334,1.68 1.2,0.56 2.48,0.56 z m -0.72,0.986666 q -2.08,0 -3.89334,-0.613333 -1.78666,-0.613333 -3.12,-1.786667 -1.33333,-1.2 -2.10666,-2.906666 -0.77334,-1.706667 -0.77334,-3.893334 0,-2.4 0.90667,-4.346666 0.90667,-1.946667 2.4,-3.333333 1.49333,-1.386667 3.41333,-2.133334 1.92,-0.773333 3.97334,-0.773333 1.94666,0 3.73333,0.586667 1.78667,0.56 3.14667,1.68 1.36,1.093333 2.16,2.746666 0.8,1.626667 0.8,3.733333 0,2 -0.8,3.973334 -0.8,1.973333 -2.21334,3.546666 -1.41333,1.573334 -3.36,2.56 -1.94666,0.96 -4.26666,0.96 z"
       id="path55" />
    <path
       d="m 325.77043,55.501672 q 0.10666,-0.16 0.4,-0.64 0.32,-0.506667 0.69333,-1.226667 0.4,-0.72 0.8,-1.546666 0.42667,-0.853334 0.77333,-1.706667 0.34667,-0.853333 0.56,-1.6 0.24,-0.773333 0.24,-1.333333 0,-0.426667 -0.10666,-0.666667 -0.10667,-0.266667 -0.32,-0.4 -0.18667,-0.133333 -0.45334,-0.186667 -0.26666,-0.05333 -0.56,-0.05333 -0.16,0 -0.32,0.02667 -0.16,0.02667 -0.32,0.08 -0.16,0.05333 -0.26666,-0.02667 -0.08,-0.106667 -0.08,-0.16 0,-0.106667 0.34666,-0.266667 0.37334,-0.16 0.98667,-0.293333 0.64,-0.133333 1.44,-0.213333 0.82667,-0.106667 1.70667,-0.106667 1.25333,0 1.25333,0.826667 0,0.373333 -0.50667,1.28 -0.48,0.906666 -1.25333,2.133333 -0.74667,1.2 -1.68,2.56 -0.90667,1.36 -1.78667,2.64 -0.88,1.253333 -1.62666,2.32 -0.72,1.066667 -1.09334,1.653333 -0.08,0.106667 -0.58666,0.106667 -0.21334,0 -0.29334,-0.08 -0.0533,-0.05333 -0.10666,-0.213334 -0.24,-0.746666 -0.56,-1.653333 -0.29334,-0.906666 -0.64,-1.84 -0.34667,-0.933333 -0.72,-1.84 -0.34667,-0.933333 -0.69334,-1.733333 -0.93333,-2.24 -1.6,-3.12 -0.64,-0.906667 -1.2,-0.906667 -0.16,0 -0.29333,0.05333 -0.16,0.05333 -0.29333,0.106666 -0.0533,0 -0.13334,-0.106666 -0.10666,-0.133334 -0.0533,-0.186667 0.0267,-0.02667 0.50667,-0.346667 0.48,-0.32 1.12,-0.693333 0.64,-0.4 1.28,-0.72 0.66666,-0.32 1.06666,-0.32 0.61334,0 1.12,1.146667 0.50667,1.12 1.2,3.12 z"
       id="path57" />
    <path
       d="m 345.21038,55.341672 q -0.29333,0.32 -0.90667,0.88 -0.61333,0.56 -1.49333,1.12 -0.85333,0.56 -1.92,0.96 -1.06667,0.4 -2.26667,0.4 -1.09333,0 -2.13333,-0.32 -1.04,-0.346667 -1.86667,-1.013333 -0.82666,-0.693334 -1.33333,-1.733334 -0.48,-1.066666 -0.48,-2.533333 0,-1.2 0.16,-2.053333 0.16,-0.88 0.42667,-1.52 0.26666,-0.666667 0.58666,-1.12 0.34667,-0.48 0.69334,-0.853334 0.42666,-0.48 1.04,-0.906666 0.61333,-0.426667 1.30666,-0.773334 0.72,-0.346666 1.49334,-0.533333 0.8,-0.213333 1.6,-0.213333 1.44,0 2.24,0.48 0.82666,0.48 0.82666,1.333333 0,0.533333 -0.32,0.986667 0.26667,-0.08 0.66667,-0.266667 0.42667,-0.186667 0.85333,-0.373333 0.42667,-0.213334 0.74667,-0.373334 0.34667,-0.16 0.45333,-0.24 0.0533,-0.05333 0.10667,-0.02667 0.08,0 0.08,0.08 0,0.346666 -0.13333,0.586666 -0.13334,0.213334 -0.32,0.346667 -0.42667,0.266667 -1.22667,0.666667 -0.8,0.4 -1.78667,0.853333 -0.96,0.426667 -2,0.88 -1.04,0.426667 -1.97333,0.826667 -0.90667,0.4 -1.6,0.72 -0.66667,0.293333 -0.90667,0.426666 0,0.906667 0.34667,1.706667 0.37333,0.773333 1.01333,1.36 0.64,0.586667 1.52,0.933333 0.90667,0.32 1.97334,0.32 0.96,0 1.73333,-0.186666 0.77333,-0.213334 1.30667,-0.453334 0.53333,-0.266666 0.82666,-0.453333 0.32,-0.213333 0.34667,-0.213333 0.10667,0 0.21333,0.106666 0.10667,0.08 0.10667,0.186667 z m -9.38667,-4.08 q 0.45334,-0.16 1.01334,-0.373333 0.58666,-0.24 1.12,-0.506667 0.56,-0.266667 1.01333,-0.506667 0.45333,-0.24 0.69333,-0.426666 0.48,-0.346667 0.48,-1.173334 0,-0.32 -0.13333,-0.666666 -0.10667,-0.346667 -0.34667,-0.613334 -0.24,-0.293333 -0.58666,-0.453333 -0.34667,-0.186667 -0.77334,-0.186667 -0.37333,0 -0.8,0.266667 -0.42666,0.24 -0.8,0.826667 -0.37333,0.56 -0.64,1.52 -0.24,0.933333 -0.24,2.293333 z"
       id="path59" />
    <path
       d="m 357.58369,47.128339 q -0.29334,0.24 -0.69334,0.613333 -0.4,0.346667 -0.85333,0.693333 -0.42667,0.32 -0.88,0.56 -0.45333,0.24 -0.88,0.24 -0.37333,0 -0.66667,-0.16 -0.29333,-0.186666 -0.56,-0.373333 -0.24,-0.213333 -0.48,-0.373333 -0.24,-0.186667 -0.50666,-0.186667 -0.72,0 -1.22667,0.586667 -0.48,0.586666 -0.8,1.493333 -0.29333,0.906667 -0.45333,1.973333 -0.13334,1.066667 -0.13334,2.053334 0,0.826666 0.0533,1.36 0.08,0.506666 0.21333,0.826666 0.13333,0.293334 0.34667,0.4 0.24,0.106667 0.56,0.106667 0.34666,0 0.74666,-0.106667 0.08,-0.02667 0.10667,0.106667 0.0533,0.133333 0.0533,0.213333 0,0.05333 -0.08,0.133334 -0.08,0.05333 -0.10666,0.05333 -0.58667,0.24 -1.2,0.533333 -0.61334,0.266667 -1.01334,0.453333 -0.37333,0.16 -0.90666,0.346667 -0.50667,0.186667 -0.88,0.186667 -0.42667,0 -0.72,-0.133334 -0.26667,-0.133333 -0.26667,-0.266666 0,-0.133334 0.0533,-0.24 0.08,-0.106667 0.13334,-0.4 0.0533,-0.4 0.10666,-0.933333 0.08,-0.56 0.13334,-1.2 0.08,-0.64 0.10666,-1.306667 0.0533,-0.693333 0.0533,-1.36 0,-1.493333 -0.10667,-2.533333 -0.08,-1.04 -0.32,-1.68 -0.24,-0.64 -0.66667,-0.906667 -0.4,-0.293333 -1.04,-0.293333 -0.13333,0 -0.24,0 -0.10666,0 -0.21333,0.02667 -0.16,0 -0.16,-0.16 0,-0.16 0.16,-0.24 0.29333,-0.186666 0.90667,-0.533333 0.61333,-0.373333 1.25333,-0.693333 0.66667,-0.346667 1.28,-0.613334 0.61333,-0.266666 0.90667,-0.266666 0.34666,0 0.58666,0.24 0.24,0.213333 0.34667,0.56 0.13333,0.346666 0.18667,0.8 0.0533,0.426666 0.0533,0.853333 0,0.32 -0.0267,0.666667 0,0.346666 0,0.746666 1.2,-1.76 2.16,-2.72 0.96,-0.986666 1.81334,-0.986666 0.32,0 0.61333,0.266666 0.32,0.266667 0.66667,0.613334 0.34666,0.32 0.72,0.586666 0.37333,0.266667 0.77333,0.266667 0.34667,0 0.50667,-0.08 0.16,-0.08 0.26666,-0.133333 0.21334,0 0.21334,0.293333 z"
       id="path61" />
    <path
       d="m 170.0107,73.021675 q 2.72,0 4.29333,-0.133334 1.6,-0.133333 2.45334,-0.346666 0.88,-0.213333 1.17333,-0.48 0.29333,-0.266667 0.4,-0.533333 0.0533,-0.133334 0.26667,-0.133334 0.26666,0 0.26666,0.133334 -0.0533,0.05333 -0.18666,0.4 -0.10667,0.346666 -0.29334,0.853333 -0.16,0.48 -0.34666,1.066666 -0.18667,0.56 -0.34667,1.093334 -0.16,0.506666 -0.26667,0.906666 -0.10666,0.4 -0.10666,0.533334 -0.0533,0 -0.13334,0.02667 -0.08,0 -0.16,0 -0.24,0 -0.24,-0.16 0,-0.133333 0.0267,-0.32 0.0267,-0.186666 0.0267,-0.32 0,-0.133333 -0.0267,-0.186666 -0.13333,-0.266667 -0.90667,-0.4 -0.74666,-0.133334 -1.76,-0.186667 -0.98666,-0.05333 -2.02666,-0.05333 -1.04,-0.02667 -1.70667,-0.02667 -1.01333,0 -2.02667,0.586667 -0.98666,0.56 -1.78666,1.626666 -0.77334,1.066667 -1.28,2.64 -0.48,1.546667 -0.48,3.52 0,1.733334 0.37333,3.2 0.4,1.466667 1.12,2.56 0.72,1.093333 1.76,1.706667 1.04,0.613333 2.34667,0.613333 1.25333,0 2.18666,-0.453333 0.96,-0.48 1.6,-1.226667 0.64,-0.746667 0.96,-1.706667 0.34667,-0.96 0.34667,-1.973333 0,-0.72 -0.18667,-1.386666 -0.16,-0.666667 -0.50666,-1.173334 -0.34667,-0.533333 -0.90667,-0.826666 -0.53333,-0.32 -1.25333,-0.32 -1.12,0 -1.57334,0.506666 -0.45333,0.48 -0.45333,1.04 0,0.506667 0.29333,0.906667 0.29334,0.373333 0.77334,0.373333 0.29333,0 0.29333,0.213334 0,0.08 -0.08,0.16 -0.13333,0.186666 -0.74667,0.373333 -0.61333,0.186667 -1.46666,0.186667 -1.04,0 -1.70667,-0.533334 -0.66667,-0.56 -0.66667,-1.333333 0,-0.506667 0.48,-0.986667 0.48,-0.48 1.30667,-0.853333 0.85333,-0.4 2.02667,-0.613333 1.17333,-0.24 2.53333,-0.24 1.2,0 2.21333,0.24 1.01334,0.24 1.73334,0.693333 0.74666,0.426667 1.17333,1.066667 0.42667,0.613333 0.42667,1.386666 0,1.173334 -0.74667,2.506667 -0.74667,1.306666 -2.05333,2.426666 -1.30667,1.093334 -3.09334,1.813334 -1.76,0.72 -3.78666,0.72 -2.08,0 -3.70667,-0.586667 -1.6,-0.613333 -2.72,-1.68 -1.09333,-1.093333 -1.68,-2.56 -0.58667,-1.493333 -0.58667,-3.253333 0,-1.333333 0.4,-2.506667 0.4,-1.173333 1.04,-2.186666 0.64,-1.013334 1.41334,-1.84 0.77333,-0.826667 1.49333,-1.413334 0.74667,-0.613333 1.36,-0.96 0.61333,-0.346666 0.90667,-0.426666 -0.90667,0.02667 -1.94667,0.08 -1.01333,0.05333 -1.94667,0.16 -0.93333,0.08 -1.65333,0.24 -0.72,0.133333 -0.98667,0.346666 -0.29333,0.213334 -0.48,0.56 -0.18666,0.346667 -0.32,0.72 -0.21333,0 -0.34666,-0.05333 -0.13334,-0.08 -0.21334,-0.32 0.24,-0.32 0.50667,-1.013333 0.29333,-0.693334 0.56,-1.44 0.29333,-0.773334 0.48,-1.413334 0.21333,-0.639999 0.29333,-0.826666 0.10667,-0.05333 0.24,-0.05333 0.10667,0 0.21334,0.05333 -0.08,0.32 -0.08,0.506667 0,0.266666 0.26666,0.346666 0.77334,0.213333 1.92,0.293333 1.17334,0.05333 2.69334,0.05333 z"
       id="path63" />
    <path
       d="m 184.94402,81.421675 q 0.53333,-0.48 1.2,-0.986667 0.66666,-0.533333 1.38666,-0.96 0.74667,-0.453333 1.54667,-0.72 0.8,-0.293333 1.62667,-0.293333 0.96,0 1.78666,0.32 0.85334,0.293333 1.49334,0.88 0.64,0.586666 1.01333,1.413333 0.37333,0.8 0.37333,1.813333 0,2.053334 -0.72,3.786667 -0.69333,1.706666 -1.65333,3.013333 -0.93333,1.28 -1.86667,2.133333 -0.93333,0.853334 -1.38666,1.12 -0.13334,0.08 -0.26667,-0.05333 -0.13333,-0.133333 0,-0.293333 0.21333,-0.16 0.64,-0.8 0.45333,-0.613334 0.90667,-1.573334 0.45333,-0.96 0.8,-2.186666 0.34666,-1.226667 0.34666,-2.64 0,-1.173333 -0.29333,-2.08 -0.26667,-0.906667 -0.74667,-1.52 -0.48,-0.613333 -1.12,-0.933333 -0.61333,-0.32 -1.33333,-0.32 -0.48,0 -1.01333,0.16 -0.53334,0.133333 -0.98667,0.4 -0.48,0.293333 -0.93333,0.72 -0.45334,0.426666 -0.66667,0.88 -0.0533,0.106666 -0.10667,0.213333 -0.0267,0.08 -0.08,0.266667 -0.0267,0.16 -0.08,0.426666 -0.0267,0.266667 -0.0533,0.72 -0.08,0.773334 -0.13333,1.52 -0.0267,0.72 -0.0267,1.733333 0,1.306667 0.16,2.026667 0.16,0.693333 0.93333,0.8 0.08,0 0.18667,0 0.10667,-0.02667 0.24,-0.05333 0.10667,-0.02667 0.26667,-0.08 0.08,0 0.10666,0.08 0.0533,0.08 0.0533,0.16 0,0.08 -0.29334,0.24 -0.29333,0.16 -0.74666,0.346666 -0.45334,0.16 -1.01334,0.346667 -0.53333,0.16 -1.01333,0.32 -0.50667,0.133333 -0.88,0.24 -0.34667,0.106667 -0.48,0.106667 -0.8,0 -0.8,-0.613334 0,-0.133333 0.13333,-0.506666 0.13334,-0.373334 0.21334,-1.146667 0.10666,-1.12 0.21333,-2.453333 0.10667,-1.36 0.16,-2.72 0.08,-1.36 0.10667,-2.666667 0.0533,-1.306666 0.0533,-2.346666 0,-1.92 -0.08,-3.253334 -0.0533,-1.333333 -0.10667,-1.893333 -0.08,-0.693333 -0.16,-0.906667 -0.08,-0.24 -0.18666,-0.426666 -0.13334,-0.24 -0.34667,-0.32 -0.18667,-0.106667 -0.37333,-0.133334 -0.16,-0.02667 -0.29334,0 -0.10666,0 -0.10666,-0.05333 0,-0.373333 0.24,-0.613333 0.24,-0.24 0.64,-0.24 0.77333,0 1.6,-0.02667 0.82666,-0.02667 1.52,-0.08 0.58666,-0.05333 1.06666,-0.16 0.50667,-0.106666 0.66667,-0.16 0.21333,-0.02667 0.21333,0.08 0.0267,0.08 0.0267,0.32 0,0.16 -0.13333,0.24 -0.13334,0.08 -0.29334,0.133334 -0.16,0.05333 -0.32,0.106666 -0.13333,0.02667 -0.18666,0.106667 -0.10667,0.16 -0.21334,0.986666 -0.10666,0.826667 -0.21333,2.106667 -0.08,1.253333 -0.16,2.8 -0.0533,1.546667 -0.08,3.12 z"
       id="path65" />
    <path
       d="m 209.69067,88.675008 q -0.29333,0.32 -0.90666,0.88 -0.61334,0.56 -1.49334,1.12 -0.85333,0.56 -1.92,0.96 -1.06666,0.4 -2.26666,0.4 -1.09334,0 -2.13334,-0.32 -1.04,-0.346667 -1.86666,-1.013334 -0.82667,-0.693333 -1.33334,-1.733333 -0.48,-1.066667 -0.48,-2.533333 0,-1.2 0.16,-2.053333 0.16,-0.88 0.42667,-1.52 0.26667,-0.666667 0.58667,-1.12 0.34666,-0.48 0.69333,-0.853334 0.42667,-0.48 1.04,-0.906666 0.61333,-0.426667 1.30667,-0.773334 0.72,-0.346666 1.49333,-0.533333 0.8,-0.213333 1.6,-0.213333 1.44,0 2.24,0.48 0.82667,0.48 0.82667,1.333333 0,0.533333 -0.32,0.986667 0.26666,-0.08 0.66666,-0.266667 0.42667,-0.186667 0.85334,-0.373333 0.42666,-0.213334 0.74666,-0.373334 0.34667,-0.16 0.45334,-0.24 0.0533,-0.05333 0.10666,-0.02667 0.08,0 0.08,0.08 0,0.346666 -0.13333,0.586666 -0.13333,0.213334 -0.32,0.346667 -0.42667,0.266667 -1.22667,0.666667 -0.8,0.4 -1.78666,0.853333 -0.96,0.426667 -2,0.88 -1.04,0.426667 -1.97334,0.826667 -0.90666,0.4 -1.6,0.72 -0.66666,0.293333 -0.90666,0.426666 0,0.906667 0.34666,1.706667 0.37334,0.773333 1.01334,1.36 0.64,0.586666 1.52,0.933333 0.90666,0.32 1.97333,0.32 0.96,0 1.73333,-0.186667 0.77334,-0.213333 1.30667,-0.453333 0.53333,-0.266667 0.82667,-0.453333 0.32,-0.213334 0.34666,-0.213334 0.10667,0 0.21334,0.106667 0.10666,0.08 0.10666,0.186667 z m -9.38666,-4.08 q 0.45333,-0.16 1.01333,-0.373333 0.58667,-0.24 1.12,-0.506667 0.56,-0.266667 1.01333,-0.506667 0.45334,-0.24 0.69334,-0.426666 0.48,-0.346667 0.48,-1.173334 0,-0.32 -0.13334,-0.666666 -0.10666,-0.346667 -0.34666,-0.613334 -0.24,-0.293333 -0.58667,-0.453333 -0.34667,-0.186667 -0.77333,-0.186667 -0.37334,0 -0.8,0.266667 -0.42667,0.24 -0.8,0.826667 -0.37334,0.56 -0.64,1.52 -0.24,0.933333 -0.24,2.293333 z"
       id="path67" />
    <path
       d="m 216.67729,73.501675 q -0.69334,-0.02667 -0.88,-0.133334 -0.16,-0.133333 -0.16,-0.266666 0,-0.186667 0.0533,-0.32 0.0533,-0.16 0.29333,-0.186667 0.29334,0.02667 0.88,0.106667 0.61334,0.05333 1.62667,0.106666 h 1.6 q 1.17333,-0.02667 2.18667,-0.133333 1.01333,-0.106667 1.81333,-0.24 0.8,-0.133333 1.33333,-0.266666 0.53334,-0.133334 0.74667,-0.24 h 0.0267 q 0.0267,0 0.0267,0 0.0267,-0.02667 0.0533,-0.02667 0.26666,0 0.26666,0.56 0,0.24 -0.50666,0.4 -0.48,0.16 -1.12,0.293333 -0.64,0.106667 -1.25334,0.213333 -0.61333,0.106667 -0.82666,0.24 -0.16,0.266667 -0.29334,1.466667 -0.10666,1.173333 -0.18666,2.8 -0.0533,1.6 -0.10667,3.413333 -0.0267,1.813334 -0.0267,3.333334 0,2.453333 0.0533,3.973333 0.08,1.52 0.26666,1.706666 0.08,0.02667 0.29334,0.02667 0.24,0 0.56,-0.02667 0.34666,-0.05333 0.69333,-0.08 0.34667,-0.05333 0.66667,-0.106666 0.34666,-0.05333 0.58666,-0.08 0.61334,-0.08 1.30667,-0.186667 0.72,-0.133333 1.41333,-0.293333 0.69334,-0.186667 1.28,-0.453334 0.61334,-0.266666 1.04,-0.666666 0.0267,-0.05333 0.0267,-0.02667 0.0267,0 0.0533,-0.02667 0.10667,-0.106666 0.24,-0.08 0.13334,0.02667 0.21334,0.16 0.10666,0.106667 0.13333,0.266667 0.0267,0.133333 -0.08,0.213333 -0.24,0.186667 -0.48,0.56 -0.21333,0.373334 -0.4,0.8 -0.18667,0.426667 -0.32,0.826667 -0.13333,0.373333 -0.16,0.56 0.21333,0.133333 0.45333,0.373333 0.26667,0.24 0.26667,0.586667 0,0.106667 -0.08,0.266667 -0.0533,0.186666 -0.26667,0.186666 -0.0533,0 -0.18666,-0.02667 -0.13334,-0.02667 -0.13334,-0.24 0,-0.24 0.21334,-0.346667 -0.10667,-0.05333 -0.29334,-0.186667 -0.18666,-0.133333 -0.37333,-0.186666 -0.48,-0.08 -0.98667,-0.16 -0.50666,-0.08 -1.12,-0.133334 -0.58666,-0.02667 -1.33333,-0.05333 -0.74667,-0.02667 -1.68,-0.02667 -2.16,0 -3.68,0.106667 -1.49333,0.133333 -2.53333,0.266667 -1.04,0.133333 -1.70667,0.24 -0.66667,0.133333 -1.09333,0.133333 -0.37334,0 -0.37334,-0.32 0,-0.186667 0.08,-0.4 0.08,-0.213333 0.37334,-0.186667 0.32,0.02667 0.82666,-0.02667 0.53334,-0.05333 1.04,-0.16 0.53334,-0.106667 0.90667,-0.213334 0.4,-0.133333 0.48,-0.24 0.10667,-0.213333 0.21333,-1.013333 0.13334,-0.8 0.21334,-2 0.08,-1.226667 0.13333,-2.773333 0.0533,-1.546667 0.0533,-3.28 0,-2.346667 -0.0533,-3.866667 -0.0267,-1.52 -0.08,-2.426666 -0.0533,-0.906667 -0.13333,-1.333334 -0.08,-0.426666 -0.16,-0.64 z"
       id="path69" />
    <path
       d="m 240.33058,87.635008 q -0.08,-0.453334 -0.16,-0.986667 -0.08,-0.533333 -0.16,-1.013333 -0.08,-0.48 -0.16,-0.826667 -0.0533,-0.346666 -0.08,-0.453333 -0.42667,0.16 -0.96,0.373333 -0.53333,0.213334 -1.06667,0.48 -0.53333,0.24 -1.01333,0.506667 -0.48,0.24 -0.8,0.453333 -0.61333,0.4 -0.93333,0.8 -0.32,0.4 -0.32,0.96 0,0.773333 0.45333,1.36 0.45333,0.586667 1.41333,0.586667 0.50667,0 1.04,-0.186667 0.56,-0.186667 1.01334,-0.426667 0.48,-0.24 0.82666,-0.48 0.34667,-0.24 0.48,-0.373333 0.21334,-0.213333 0.32,-0.346667 0.13334,-0.16 0.10667,-0.426666 z m -0.77333,-4.133333 q -0.16,-0.826667 -0.37334,-1.466667 -0.21333,-0.666667 -0.53333,-1.093333 -0.32,-0.453334 -0.77333,-0.666667 -0.45334,-0.24 -1.12,-0.24 -0.58667,0 -1.09334,0.213333 -0.48,0.213334 -0.85333,0.506667 -0.34667,0.293333 -0.56,0.586667 -0.18667,0.293333 -0.21333,0.453333 -0.0267,0.213333 -0.24,0.213333 -0.37334,0 -0.69334,-0.266666 -0.32,-0.266667 -0.32,-0.64 0,-0.213334 0.0533,-0.32 0.61333,-0.346667 1.49333,-0.746667 0.88,-0.4 1.81333,-0.746667 0.96,-0.346666 1.89334,-0.56 0.93333,-0.24 1.68,-0.24 1.12,0 1.70666,0.32 0.61334,0.32 0.90667,0.906667 0.29333,0.586667 0.34667,1.386667 0.08,0.773333 0.13333,1.68 0.08,1.36 0.21333,2.64 0.13334,1.253333 0.4,2.239999 0.26667,0.96 0.66667,1.573334 0.42667,0.586666 1.04,0.586666 0.29333,0 0.64,-0.106666 0.34667,-0.106667 0.66667,-0.24 0.32,-0.16 0.56,-0.293334 0.26666,-0.16 0.34666,-0.213333 0.24,0 0.29334,0.24 0,0.133333 -0.0533,0.24 -0.0533,0.05333 -0.4,0.266667 -0.34666,0.213333 -0.85333,0.506666 -0.50667,0.293334 -1.12,0.64 -0.61333,0.32 -1.22667,0.613334 -0.58666,0.293333 -1.09333,0.48 -0.50667,0.186666 -0.8,0.186666 -0.34667,0 -0.61333,-0.293333 -0.24,-0.266667 -0.42667,-0.72 -0.18667,-0.48 -0.32,-1.093333 -0.13333,-0.613334 -0.24,-1.28 -0.48,0.4 -1.22667,0.96 -0.74666,0.533333 -1.62666,1.013333 -0.88,0.48 -1.81334,0.826667 -0.90666,0.32 -1.76,0.32 -0.72,0 -1.25333,-0.213334 -0.53333,-0.24 -0.90667,-0.613333 -0.34666,-0.373333 -0.53333,-0.853333 -0.16,-0.506667 -0.16,-1.04 0,-0.853334 0.50667,-1.386667 0.53333,-0.56 1.62666,-1.146667 0.50667,-0.266666 1.41334,-0.693333 0.90666,-0.453333 1.84,-0.906666 0.96,-0.453334 1.76,-0.853334 0.82666,-0.426666 1.2,-0.666666 z"
       id="path71" />
    <path
       d="m 244.65056,91.448341 q 0.58667,-0.346667 1.17334,-0.96 0.58666,-0.613333 1.17333,-1.36 0.58667,-0.773333 1.17333,-1.626667 0.61334,-0.853333 1.2,-1.706666 0.98667,-1.44 1.84,-2.746667 0.88,-1.306666 1.38667,-2.133333 h -0.42667 q -0.98666,0 -2.16,-0.08 -1.14666,-0.08 -2.08,-0.08 -0.85333,0 -1.22666,0.133333 -0.37334,0.133334 -0.66667,0.426667 -0.08,0 -0.24,-0.05333 -0.13333,-0.08 -0.13333,-0.213334 0,-0.08 0.0267,-0.106666 0.32,-0.213334 0.85334,-0.72 0.53333,-0.506667 1.06666,-1.013334 0.53334,-0.506666 0.93334,-0.88 0.4,-0.4 0.48,-0.4 0.18666,0 0.26666,0.08 0.08,0.05333 0.13334,0.133334 0.0533,0.08 0.13333,0.186666 0.08,0.08 0.26667,0.16 0.32,0.133334 0.88,0.266667 0.56,0.133333 1.25333,0.24 0.69333,0.08 1.49333,0.16 0.8,0.05333 1.6,0.05333 0.50667,0 1.04,-0.05333 0.53334,-0.08 0.93334,-0.186667 0.0267,0 0.08,0.106667 0.0533,0.106667 0.0533,0.186667 0,0.05333 -0.0267,0.106666 -0.0267,0.02667 -0.0267,0.05333 -0.74667,0.56 -1.68,1.866666 -0.90667,1.306667 -2.48,3.28 -0.13334,0.133334 -0.21334,0.266667 -0.0533,0.133333 -0.16,0.266667 -1.17333,1.493333 -2.05333,2.559999 -0.88,1.04 -1.57333,1.786667 0.4,0.05333 0.93333,0.186667 0.56,0.133333 1.22667,0.266666 0.69333,0.133334 1.49333,0.24 0.82667,0.106667 1.76,0.106667 0.98667,0 1.6,-0.16 0.64,-0.186667 1.17333,-0.693333 0.18667,-0.186667 0.16,-0.16 0,0.02667 0.10667,0.02667 0.13333,0 0.10667,0.16 0,0.133334 0,0.186667 0,0.32 -0.37334,0.773333 -0.37333,0.453334 -1.04,0.88 -0.66666,0.4 -1.6,0.693334 -0.90666,0.293333 -2.02666,0.293333 -0.69334,0 -1.52,-0.08 -0.8,-0.08 -1.65334,-0.186667 -0.85333,-0.106666 -1.70666,-0.186666 -0.85334,-0.08 -1.6,-0.08 -0.45334,0 -0.74667,0.08 -0.32,0.106666 -0.72,0.213333 -0.13333,0 -0.13333,-0.16 0,-0.02667 0.0533,-0.24 z"
       id="path73" />
    <path
       d="m 257.45052,99.715008 q 0.24,-0.266667 0.72,-0.88 0.48,-0.613334 1.04,-1.386667 0.58667,-0.773333 1.17334,-1.653333 0.61333,-0.88 1.14666,-1.68 0.53334,-0.773334 0.90667,-1.44 0.4,-0.64 0.50667,-0.96 -0.42667,-1.12 -0.90667,-2.373334 -0.48,-1.253333 -1.01333,-2.48 -0.50667,-1.226666 -1.04,-2.346666 -0.50667,-1.12 -1.01334,-1.946667 -0.50666,-0.853333 -0.98666,-1.36 -0.45334,-0.506666 -0.82667,-0.506666 -0.10667,0 -0.24,0.08 -0.13333,0.05333 -0.24,0.106666 -0.08,0.05333 -0.18667,-0.133333 -0.10666,-0.186667 0,-0.24 0.10667,-0.08 0.61334,-0.4 0.53333,-0.32 1.17333,-0.666667 0.64,-0.373333 1.22667,-0.666666 0.61333,-0.293334 0.88,-0.293334 0.26666,0 0.61333,0.48 0.37333,0.48 0.74667,1.306667 0.4,0.8 0.82666,1.84 0.42667,1.04 0.85334,2.186667 0.42666,1.12 0.82666,2.266666 0.42667,1.146667 0.8,2.133333 0.34667,-0.533333 0.88,-1.52 0.56,-0.986666 1.06667,-2.106666 0.50667,-1.12 0.85333,-2.213333 0.37334,-1.093334 0.37334,-1.84 0,-0.773334 -0.37334,-1.093334 -0.37333,-0.346666 -0.82666,-0.346666 -0.34667,0 -0.56,0.02667 -0.18667,0 -0.42667,0.05333 -0.0533,0 -0.16,-0.05333 -0.10667,-0.08 -0.10667,-0.213333 0,-0.133333 0.58667,-0.293333 0.58667,-0.16 1.36,-0.293334 0.77333,-0.133333 1.52,-0.213333 0.74667,-0.106667 1.04,-0.106667 0.61333,0 0.90667,0.24 0.29333,0.24 0.29333,0.56 -0.16,0.64 -0.69333,1.68 -0.50667,1.013334 -1.22667,2.24 -0.72,1.2 -1.54667,2.506667 -0.8,1.28 -1.54666,2.426666 -0.74667,1.146667 -1.36,2.053334 -0.58667,0.906666 -0.85334,1.333333 -0.53333,0.826667 -1.01333,1.706667 -0.48,0.906666 -0.88,1.786666 -0.4,0.906667 -0.72,1.706667 -0.29333,0.826667 -0.42667,1.493333 -0.08,0.4 0.13334,0.506667 0.24,0.133333 0.58666,0.05333 0.37334,-0.05333 0.8,-0.24 0.42667,-0.186666 0.72,-0.426666 0.13334,-0.106667 0.16,-0.05333 0.0533,0.08 0.0533,0.213334 0,0.133333 -0.0533,0.266666 -0.0533,0.16 -0.13333,0.213334 -0.0267,0 -0.61333,0.24 -0.58667,0.24 -1.41334,0.506666 -0.82666,0.293334 -1.76,0.533336 -0.90666,0.24 -1.6,0.24 -0.66666,0 -0.66666,-0.426669 0,-0.05333 0,-0.08 0.0267,-0.02667 0.0267,-0.05333 z"
       id="path75" />
    <path
       d="m 281.63717,91.235008 q -0.61334,0.346666 -1.54667,0.72 -0.93333,0.373333 -1.94667,0.373333 -0.61333,0 -0.88,-0.106667 -0.26666,-0.106666 -0.26666,-0.426666 0,-0.16 0.08,-0.373334 0.08,-0.24 0.21333,-0.24 0.0533,0 0.13333,0.08 0.16,0.213334 0.48,0.24 0.32,0.02667 0.69334,0.02667 0.56,-0.02667 1.01333,-0.373333 0.45333,-0.373334 0.66667,-0.986667 0.10666,-0.373333 0.21333,-1.173333 0.10667,-0.8 0.16,-1.92 0.08,-1.12 0.10667,-2.48 0.0533,-1.386667 0.0533,-2.906667 0,-3.466666 -0.18667,-5.386666 -0.18666,-1.946667 -0.48,-2.24 -0.29333,-0.24 -0.74666,-0.32 -0.42667,-0.08 -0.88,-0.08 -0.21334,0 -0.42667,0.02667 -0.21333,0 -0.34667,0 -0.16,0 -0.26666,-0.106666 -0.08,-0.133334 -0.08,-0.266667 0,-0.48 0.34666,-0.48 0.18667,0 0.66667,0.05333 0.48,0.02667 1.09333,0.08 0.64,0.02667 1.33334,0.05333 0.69333,0.02667 1.25333,0.02667 0.69333,0 1.28,-0.213333 0.61333,-0.213333 1.25333,-0.48 0.64,-0.266666 1.38667,-0.48 0.77333,-0.213333 1.78667,-0.213333 2.61333,0 4.48,0.746667 1.89333,0.746666 3.09333,2.026666 1.2,1.253333 1.76,2.906667 0.58667,1.626666 0.58667,3.386666 0,2.08 -0.74667,4.16 -0.72,2.08 -2.08,3.76 -1.36,1.653333 -3.30667,2.693333 -1.92,1.013334 -4.29333,1.013334 -0.50667,0 -1.28,-0.106667 -0.74667,-0.08 -1.54667,-0.24 -0.8,-0.16 -1.57333,-0.346667 -0.74667,-0.213333 -1.25333,-0.426666 z m 6.26666,0.02667 q 1.57334,0 2.74667,-0.746666 1.17333,-0.773334 1.94667,-2 0.8,-1.253334 1.2,-2.853333 0.4,-1.6 0.4,-3.28 0,-1.786667 -0.45334,-3.52 -0.42666,-1.76 -1.33333,-3.12 -0.90667,-1.386667 -2.26667,-2.213334 -1.33333,-0.853333 -3.12,-0.853333 -0.29333,0 -0.72,0.08 -0.42666,0.05333 -0.82666,0.24 -0.4,0.186667 -0.72,0.48 -0.32,0.293333 -0.42667,0.746667 -0.08,0.346666 -0.16,0.96 -0.0533,0.613333 -0.13333,1.44 -0.0533,0.8 -0.08,1.76 -0.0267,0.933333 -0.0267,1.946666 0,2.293334 0,3.84 0.0267,1.546667 0.0533,2.506667 0.0267,0.96 0.0533,1.44 0.0533,0.453333 0.08,0.613333 0.08,0.453333 0.37333,0.906667 0.32,0.426666 0.8,0.8 0.50667,0.373333 1.14667,0.613333 0.66666,0.213333 1.46666,0.213333 z"
       id="path77" />
    <path
       d="m 309.74379,89.661674 q -0.29334,0.24 -0.8,0.64 -0.50667,0.4 -1.17334,0.8 -0.66666,0.4 -1.46666,0.693334 -0.8,0.266666 -1.68,0.266666 -1.33334,0 -2.37334,-0.453333 -1.04,-0.48 -1.76,-1.253333 -0.69333,-0.8 -1.06666,-1.866667 -0.34667,-1.066667 -0.34667,-2.266666 0,-1.413334 0.42667,-2.506667 0.42666,-1.093333 1.04,-1.893333 0.64,-0.826667 1.36,-1.36 0.72,-0.56 1.30666,-0.88 0.26667,-0.16 0.66667,-0.346667 0.42667,-0.186667 0.90667,-0.346667 0.50666,-0.16 1.06666,-0.266666 0.58667,-0.133334 1.2,-0.133334 1.14667,0 2.21334,0.293334 1.09333,0.293333 1.92,0.933333 0.82666,0.613333 1.33333,1.6 0.50667,0.986667 0.50667,2.373333 0,1.12 -0.42667,2.106667 -0.4,0.986666 -0.96,1.76 -0.56,0.773333 -1.12,1.333333 -0.53333,0.533333 -0.77333,0.773333 z m -3.01334,0.426667 q 1.52,0 2.32,-1.146667 0.82667,-1.146666 0.82667,-3.519999 0,-1.2 -0.34667,-2.213334 -0.32,-1.04 -0.93333,-1.813333 -0.58667,-0.773333 -1.38667,-1.2 -0.8,-0.453333 -1.73333,-0.453333 -0.66667,0 -1.28,0.346666 -0.58667,0.346667 -1.04,1.013334 -0.45333,0.64 -0.72,1.573333 -0.26667,0.933333 -0.26667,2.106667 0,1.253333 0.37334,2.239999 0.4,0.986667 1.04,1.68 0.64,0.666667 1.44,1.04 0.82666,0.346667 1.70666,0.346667 z"
       id="path79" />
    <path
       d="m 332.11708,80.115008 q -0.53333,0.4 -1.78666,0.72 -1.22667,0.293333 -2.85334,0.293333 -0.32,0 -0.72,0.02667 -0.37333,0 -0.58666,0 0.10666,1.013333 -0.26667,2.08 -0.34667,1.066667 -0.82667,2.026667 -0.45333,0.933333 -0.85333,1.653333 -0.4,0.72 -0.4,1.04 0,0.426666 0.37333,0.826666 0.37334,0.4 0.93334,0.8 0.56,0.4 1.2,0.826667 0.64,0.4 1.2,0.88 0.56,0.453333 0.93333,1.013333 0.37333,0.56 0.37333,1.226667 0,0.96 -0.74666,2.106667 -0.72,1.146666 -1.97334,2.133333 -1.25333,1.013333 -2.93333,1.68 -1.68,0.666669 -3.57333,0.666669 -0.88,0 -1.92,-0.186669 -1.01334,-0.186667 -1.89334,-0.56 -0.85333,-0.373333 -1.44,-0.933333 -0.56,-0.533334 -0.56,-1.28 0,-0.426667 0.64,-1.12 0.66667,-0.693334 1.52,-1.413334 0.85334,-0.72 1.68,-1.386666 0.82667,-0.666667 1.17334,-1.066667 0.08,0 0.18666,0.106667 0.13334,0.106666 0.13334,0.24 0,0.02667 -0.0267,0.02667 0,0.02667 0,0.05333 -0.26667,0.213333 -0.66667,0.533333 -0.37333,0.32 -0.74666,0.693333 -0.37334,0.373334 -0.64,0.8 -0.26667,0.453334 -0.26667,0.88 0,0.56 0.42667,1.093334 0.45333,0.56 1.14666,0.986666 0.72,0.426667 1.62667,0.693334 0.90667,0.266666 1.84,0.266666 1.92,0 2.90667,-0.853333 1.01333,-0.826667 1.01333,-2.346667 0,-0.64 -0.37333,-1.226666 -0.34667,-0.586667 -0.88,-1.093334 -0.50667,-0.506666 -1.14667,-0.96 -0.61333,-0.426666 -1.14667,-0.8 -0.50666,-0.373333 -0.88,-0.693333 -0.34666,-0.32 -0.34666,-0.586667 0,-0.24 0.13333,-0.533333 0.16,-0.32 0.34667,-0.613333 0.18666,-0.32 0.32,-0.56 0.16,-0.266667 0.16,-0.4 0,0.02667 -0.0533,-0.08 -0.18666,0.186666 -0.53333,0.373333 -0.34667,0.186667 -0.82667,0.346667 -0.45333,0.16 -0.98666,0.266666 -0.50667,0.106667 -1.04,0.106667 -1.01334,0 -1.78667,-0.32 -0.77333,-0.346667 -1.30667,-0.906667 -0.50666,-0.56 -0.77333,-1.279999 -0.26667,-0.746667 -0.26667,-1.573334 0,-1.226666 0.34667,-2.106666 0.37333,-0.88 0.90667,-1.493334 0.56,-0.613333 1.17333,-0.986666 0.61333,-0.4 1.12,-0.666667 0.32,-0.16 0.74667,-0.293333 0.45333,-0.16 0.96,-0.266667 0.50666,-0.133333 1.04,-0.213333 0.53333,-0.08 1.01333,-0.08 1.68,0 2.72,0.373333 1.04,0.373333 1.36,0.666667 0.32,0.05333 1.14667,0.08 0.82666,0.02667 1.76,0.02667 0.93333,0 1.76,0 0.85333,0 1.2,0 0.13333,0 0.26666,0 0.13334,0 0.26667,-0.02667 0.13333,0.02667 0.10667,0.133333 -0.0267,0.106667 -0.13334,0.16 z m -10.98666,7.2 q 0.37333,0 0.74666,-0.16 0.37334,-0.16 0.66667,-0.533334 0.32,-0.399999 0.50667,-1.039999 0.21333,-0.666667 0.21333,-1.653334 0,-0.906666 -0.21333,-1.68 -0.18667,-0.773333 -0.58667,-1.333333 -0.4,-0.56 -0.98667,-0.853333 -0.58666,-0.32 -1.38666,-0.32 -1.14667,0 -1.94667,0.88 -0.8,0.853333 -0.8,2.453333 0,0.88 0.32,1.653333 0.32,0.773334 0.82667,1.36 0.53333,0.56 1.22666,0.906667 0.69334,0.32 1.41334,0.32 z"
       id="path81" />
  </g>
</svg>
