<?xml version="1.0" encoding="UTF-8" standalone="no"?>
<svg
   xmlns:dc="http://purl.org/dc/elements/1.1/"
   xmlns:cc="http://creativecommons.org/ns#"
   xmlns:rdf="http://www.w3.org/1999/02/22-rdf-syntax-ns#"
   xmlns:svg="http://www.w3.org/2000/svg"
   xmlns="http://www.w3.org/2000/svg"
   viewBox="159.797 2.96834 178.483 93.84"
   version="1.1"
   id="svg2">
  <metadata
     id="metadata11">
    <rdf:RDF>
      <cc:Work
         rdf:about="">
        <dc:format>image/svg+xml</dc:format>
        <dc:type
           rdf:resource="http://purl.org/dc/dcmitype/StillImage" />
      </cc:Work>
    </rdf:RDF>
  </metadata>
  <defs
     id="defs9" />
  <g
     aria-label="The Quick BrownFox Jumps OverThe Lazy Dog"
     id="text4521"
     style="font-style:normal;font-variant:normal;font-weight:normal;font-stretch:normal;font-size:26.6667px;line-height:125%;font-family:'Marker Felt', fantasy;font-variant-ligatures:normal;font-variant-caps:normal;font-variant-numeric:normal;font-feature-settings:normal;text-align:left;letter-spacing:0px;word-spacing:0px;writing-mode:lr-tb;text-anchor:start;fill:#000000;fill-opacity:1;stroke:none;stroke-width:1px;stroke-linecap:butt;stroke-linejoin:miter;stroke-opacity:1">
    <path
       d="m 172.0107,6.7283364 q -0.29333,0.56 -1.25333,0.56 -1.25334,0 -1.46667,0.08 -0.98667,0.4266666 -2.29333,0.96 -0.08,2.0266666 -0.08,4.4533336 0,4.933333 0.29333,10.106666 0,0.373333 0.26667,0.986667 0.29333,0.586666 0.29333,0.853333 0,0.346667 -0.24,0.64 -0.58667,0.8 -1.76,0.8 -1.01333,0 -1.94667,-0.56 -0.90666,-0.533333 -1.04,-1.28 -0.08,-0.4 0.4,-0.906667 0.50667,-0.506666 0.50667,-0.96 -0.18667,-5.306666 -0.18667,-9.279999 0,-2.4 0.08,-3.8400003 -0.0267,0 -0.74666,0.2666666 -0.48,0.1866667 -0.77334,0.1866667 -0.42666,0 -0.77333,-0.2933333 -0.85333,-0.72 -1.06667,-0.96 -0.42666,-0.48 -0.42666,-1.0133333 0,-0.1866667 0.0533,-0.4266667 0.08,-0.3733333 3.89333,-1.5199999 4.10667,-1.2533334 4.42667,-1.4666667 0.29333,-0.1066666 0.64,-0.48 0.37333,-0.3733333 0.8,-0.4266666 0.58667,-0.053333 1.54667,0.7733333 1.06666,0.9333333 1.06666,1.9466666 0,0.4 -0.21333,0.8 z"
       id="path13" />
    <path
       d="m 184.01069,22.888336 q 0.16,0.666667 0.16,0.853333 0,0.56 -0.66667,0.933334 -0.64,0.346666 -1.38667,0.346666 -1.14666,0 -1.46666,-0.853333 -0.13334,-0.346667 -0.13334,-0.586667 0,-0.346666 0.29334,-0.746666 0.32,-0.4 0.32,-0.746667 0.32,-1.386667 0.32,-4 0,-4.533333 -0.64,-4.64 -0.48,-0.08 -1.54667,1.52 -1.12,1.68 -1.86666,3.76 -0.88,2.453333 -0.74667,4.32 -0.08,0.16 -0.08,0.32 0,0.24 0.21333,0.693333 0.21334,0.426667 0.21334,0.693334 0,0.266666 -0.18667,0.506666 -0.72,1.04 -1.44,1.04 -0.74667,0 -1.44,-1.173333 -0.4,-0.693333 -0.4,-7.973333 0,-2.666667 0.13333,-12.1333332 0,-0.16 -0.0267,-0.48 -0.0267,-0.3466667 -0.0267,-0.5333333 0.0267,-0.2666667 0.16,-0.48 0.29333,-0.56 1.25333,-0.56 0.85334,0 1.54667,0.4533333 0.72,0.4533333 0.56,1.0666666 -0.0267,0.16 -0.26667,0.3733334 -0.21333,0.2133333 -0.21333,0.4266666 v 8.5866666 q 1.52,-3.413333 4.48,-3.626667 1.6,-0.106666 2.56,2.4 0.88,2.293334 0.88,5.626667 0,2.56 -0.56,4.613333 z"
       id="path15" />
    <path
       d="m 196.4373,22.328336 q -0.21333,1.013333 -1.44,2.16 -0.18666,0.293333 -1.46666,0.773333 -1.46667,0.56 -2.53334,0.48 -2,-0.133333 -3.14666,-2.293333 -1.04,-2 -1.04,-4.906667 0,-3.146666 1.17333,-5.519999 1.30667,-2.613334 3.49333,-2.933334 0.42667,-0.05333 0.82667,-0.05333 3.17333,0 3.49333,3.893333 0.16,1.786667 -1.41333,3.893333 -1.70667,2.32 -4.37333,3.253334 0.29333,1.066666 0.45333,1.386666 0.37333,0.666667 1.01333,0.666667 0.61334,0 1.30667,-0.48 0.58667,-0.4 0.8,-0.773333 0.10667,-0.05333 0.21333,-0.586667 0.10667,-0.56 0.56,-0.8 0.16,-0.08 0.37334,-0.08 0.64,0 1.22666,0.64 0.61334,0.613333 0.48,1.28 z m -4.18666,-9.386666 q -1.06667,0 -1.73334,1.52 -0.88,2.026666 -0.72,3.999999 1.25334,-0.4 2.32,-1.866666 1.06667,-1.466667 1.06667,-2.613333 0,-1.04 -0.93333,-1.04 z"
       id="path17" />
    <path
       d="m 219.10389,25.421669 q 0.16,0.906667 -0.58666,1.493334 -0.72,0.613333 -1.65334,0.48 -0.74666,-0.106667 -1.73333,-1.2 -1.62667,-1.76 -1.94667,-2.026667 -0.56,0.506667 -1.14666,0.96 -0.58667,0.48 -1.73334,0.506667 -3.49333,0.106666 -5.25333,-3.573334 -1.41333,-2.986666 -1.41333,-7.493333 0,-3.573333 1.81333,-7.2266663 1.84,-3.6533332 3.62667,-3.6533332 0.34666,0 0.74666,0.1333333 0.42667,0.1333333 0.69334,0.1333333 0.37333,0.026667 0.90666,-0.1066666 0.53334,-0.16 1.17334,-0.16 2.05333,0 3.33333,3.0666666 1.14667,2.7199999 1.14667,6.0533329 0,2.72 -0.29334,4.453333 -0.42666,2.56 -1.62666,4.666667 l 2.56,2.293333 q 0.37333,0.16 0.77333,0.32 0.50667,0.24 0.61333,0.88 z m -5.70666,-11.973333 q 0,-2.613333 -0.48,-4.453333 -0.64,-2.3733333 -1.86667,-2.3733333 -1.06667,0 -2.24,2.6933333 -1.17333,2.666667 -1.17333,5.253333 0,3.04 0.53333,5.28 0.69333,2.773333 1.97333,2.826667 0.37334,0 0.56,-0.266667 0.18667,-0.266667 0.34667,-0.533333 l -1.33333,-1.12 q -0.29334,-0.16 -0.61334,-0.32 -0.29333,-0.16 -0.34666,-0.64 -0.10667,-0.693334 0.61333,-1.28 0.72,-0.586667 1.46667,-0.586667 0.29333,0 0.48,0.106667 0.10666,0.05333 0.13333,0.266666 0.0533,0.213334 0.13333,0.266667 l 0.90667,0.746667 q 0.90667,-2.373334 0.90667,-5.866667 z"
       id="path19" />
    <path
       d="m 229.6372,12.115003 q 0.0533,0.4 -0.16,0.853333 -0.26667,0.613334 -0.32,0.906667 0,5.546666 -0.45333,7.706666 -0.98667,4.533334 -4.18667,4.533334 -4.66666,0 -4.66666,-8.506667 0,-2.293333 0.34666,-4.853333 -0.18666,-0.613333 -0.18666,-1.093333 0,-0.773334 0.50666,-1.306667 0.42667,-0.4533334 1.25334,-0.4533334 0.66666,0 1.25333,0.2933334 0.58666,0.266667 0.69333,0.64 0.0533,0.186667 0.0533,0.373333 0,0.346667 -0.29333,1.12 -0.29333,0.746667 -0.24,1.226667 -0.26667,1.493333 -0.26667,3.76 0,2.293333 0.29334,3.813333 0.37333,1.76 1.04,1.76 1.12,0 1.46666,-3.786667 0.18667,-1.893333 0.18667,-6.026666 0,-0.266667 -0.08,-0.773333 -0.08,-0.506667 -0.08,-0.746667 0,-0.64 0.48,-0.88 0.26667,-0.133333 0.74667,-0.133333 0.88,0 1.62666,0.373333 0.88,0.453333 0.98667,1.2 z"
       id="path21" />
    <path
       d="m 235.85049,5.1283364 q 0.08,0.08 0.08,0.2666667 0,0.24 -0.16,0.8266666 -0.18667,0.72 -0.24,0.9866667 -0.0533,0.2666666 0.0533,1.1733333 0,0.56 -0.34667,0.7466666 -0.32,0.16 -0.82666,0.16 -0.72,0 -1.46667,-0.2933333 -0.90667,-0.3733333 -0.90667,-0.9866666 0,-0.1866667 0.16,-0.5066667 0.16,-0.3466667 0.18667,-0.56 0.0533,-0.2133333 0,-1.0666666 -0.0533,-0.6666667 0.26667,-0.9066667 0.42666,-0.32 1.52,-0.32 1.2,0 1.68,0.48 z m 0.34666,6.5066666 q 0,0.373333 -0.42666,1.173333 -0.4,0.773334 -0.4,1.28 v 7.84 q 0,0.533333 0.29333,1.52 0.29333,0.96 0.29333,1.333333 0,0.533334 -0.42666,0.8 -0.66667,0.426667 -1.44,0.426667 -1.01334,0 -1.44,-0.693333 -0.56,-0.853334 -0.56,-5.093334 0,-1.013333 0.0267,-3.146666 0.0533,-2.16 0.0533,-3.146667 0,-0.373333 -0.08,-0.96 -0.08,-0.613333 -0.08,-0.88 0,-0.88 0.64,-1.52 0.26666,-0.266666 0.98666,-0.266666 0.72,0 1.44,0.24 0.72,0.213333 0.90667,0.506666 0.21333,0.293334 0.21333,0.586667 z"
       id="path23" />
    <path
       d="m 247.10376,20.701669 q -0.0267,0.586667 -0.50667,1.2 -0.74667,0.88 -0.96,1.333334 -1.68,2.56 -3.46667,2.56 -2.10666,0 -3.28,-2.133334 -1.04,-1.946666 -1.04,-4.906666 0,-3.386667 1.28,-5.893333 1.41334,-2.773334 3.65334,-2.773334 1.76,0 2.85333,1.946667 0.90667,1.653333 0.90667,3.6 0,0.533333 -0.08,0.933333 -0.18667,0.906667 -1.52,0.906667 -1.04,0 -1.6,-0.586667 -0.26667,-0.293333 -0.26667,-1.36 0,-0.266666 0.0267,-0.773333 0,-0.533333 0,-0.773333 0,-1.2 -0.42667,-1.2 -0.45333,0 -0.96,2.64 -0.50667,2.613333 -0.50667,4.906666 0,2.666667 0.8,2.666667 1.04,0 1.54667,-1.68 0.21333,-0.24 0.24,-0.96 0,-0.64 0.32,-0.826667 0.32,-0.213333 0.93333,-0.213333 0.8,0 1.38667,0.346666 0.69333,0.4 0.66667,1.04 z"
       id="path25" />
    <path
       d="m 261.69035,23.048336 q 0.0267,0.186667 0.0267,0.373333 0,1.6 -1.78666,2.16 -0.34667,0.106667 -0.61334,0.106667 -0.48,0 -0.88,-0.453333 -0.61333,-0.666667 -0.74666,-0.746667 l -4.8,-3.36 v 2.24 q 0,0.24 0.13333,0.613333 0.16,0.346667 0.16,0.533334 0,0.293333 -0.29333,0.613333 -0.66667,0.693333 -1.92,0.693333 -1.2,0 -1.54667,-0.8 -0.16,-0.373333 -0.10667,-0.773333 0.10667,-0.693333 0.10667,-0.933333 V 5.7683364 q -0.0267,-0.48 0.10667,-1.44 0.24,-0.5866666 1.46666,-0.5866666 1.6,0 2.05334,0.5866666 0.24,0.32 0.24,0.6933334 0,0.2933333 -0.21334,0.9066666 -0.18666,0.6133333 -0.18666,0.96 -0.0533,1.5466666 0,8.7199996 1.49333,-1.44 3.84,-3.76 0.32,-0.32 0.82666,-1.146666 0.29334,-0.48 0.88,-0.64 0.16,-0.05333 0.37334,-0.05333 0.77333,0 1.57333,0.586667 0.82667,0.586667 0.82667,1.253333 0,0.373334 -0.53334,0.906667 -0.53333,0.533333 -1.06666,1.013333 l -4.42667,4.586667 4.74667,3.413333 q 0.0533,0.05333 1.06666,0.426667 0.58667,0.24 0.69334,0.853333 z"
       id="path27" />
    <path
       d="m 280.43695,16.115003 q 0,1.68 -1.73333,3.813333 -0.34667,0.4 -3.46667,3.653333 -0.50666,0.96 -1.01333,1.893334 -0.66667,0.906666 -1.6,0.8 -1.81333,-0.213334 -3.04,-1.893334 -0.42667,-0.56 -0.42667,-1.04 0,-0.533333 0.58667,-1.013333 -0.26667,-1.466667 -0.50667,-7.946666 -0.18666,-5.3333337 -0.18666,-7.2800003 -0.56,-0.88 -0.56,-1.8133333 0,-0.6933333 0.4,-1.1199999 0.29333,-0.2933334 0.85333,-0.2933334 1.44,0 2.34667,1.0933333 2.58666,-0.9599999 4.21333,-0.9599999 1.84,0 2.45333,1.1733333 0.4,0.7466666 0.4,1.6533333 0,2.7999999 -3.01333,5.8666669 1.22667,0.373333 2.45333,0.746666 1.14667,0.426667 1.49334,1.173334 0.34666,0.72 0.34666,1.493333 z m -5.68,-8.8 q -0.66666,0 -2.45333,1.1733333 0,0.24 0.0533,1.5733337 0.0533,1.306666 0.0533,1.733333 1.06666,-0.906667 1.94666,-2.16 0.90667,-1.28 0.90667,-1.8933333 0,-0.4266667 -0.50667,-0.4266667 z m 0.90667,8.48 q -1.54667,0 -2.93333,1.173333 l 0.10666,4.053333 q 3.81334,-3.013333 3.81334,-4.506666 0,-0.72 -0.98667,-0.72 z"
       id="path29" />
    <path
       d="m 292.38361,11.528336 q -0.10667,0.56 -1.01333,0.773334 -1.06667,0.266666 -1.36,0.613333 l -4.34667,5.013333 v 4.053333 q 0,0.586667 0.32,1.2 0.34667,0.586667 0.34667,0.906667 0,0.32 -0.18667,0.72 -0.45333,1.013333 -1.84,1.013333 -0.96,0 -1.52,-0.613333 -0.37333,-0.4 -0.37333,-1.013333 0,-0.213334 0.0533,-0.693334 0.0533,-0.48 0.0533,-0.773333 v -9.973333 q 0,-0.24 -0.21333,-0.586667 -0.21333,-0.346666 -0.21333,-0.56 0,-0.16 0.10666,-0.373333 0.34667,-0.64 2.16,-0.64 1.41334,0 1.6,0.666667 0.08,0.266666 0.08,0.453333 0,0.293333 -0.21333,0.453333 -0.21333,0.16 -0.21333,0.32 l 0.0533,0.96 2.29333,-2.426666 q 0.4,-0.453334 0.82667,-0.906667 0.45333,-0.4533333 1.04,-0.5066667 0.90667,-0.08 1.73333,0.3999997 0.85334,0.48 0.85334,1.253334 0,0.133333 -0.0267,0.266666 z"
       id="path31" />
    <path
       d="m 301.13023,11.368336 q 1.78667,1.813334 1.78667,6.106667 0,3.333333 -1.25334,5.68 -1.41333,2.64 -3.89333,2.64 -2.45333,0 -3.78667,-2.373334 -1.17333,-2.08 -1.17333,-5.28 0,-2.826666 0.90667,-5.066666 0.96,-2.4 2.45333,-2.826667 0.77333,-0.213333 1.6,-0.213333 2.05333,0 3.36,1.333333 z m -3.04,1.28 q -0.88,-0.08 -1.52,1.653334 -0.56,1.573333 -0.56,3.306666 0,2.506667 0.21333,3.546667 0.37334,1.866666 1.54667,2.053333 0.74667,0.106667 1.38667,-2.053333 0.61333,-2.08 0.61333,-4.453334 0,-3.893333 -1.68,-4.053333 z"
       id="path33" />
    <path
       d="m 324.17021,10.568336 q 0.08,0.213334 0.08,0.4 0,0.426667 -0.48,1.04 -0.58667,0.72 -0.72,1.12 l -2.93334,8.853333 q -0.13333,0.426667 -0.13333,1.013334 0,0.186666 0,0.586666 0.0267,0.373334 0.0267,0.56 0,0.986667 -0.66667,1.466667 -0.66667,0.48 -1.52,0.48 -1.28,0 -2.13333,-0.96 -0.42667,-0.48 -0.42667,-1.093333 0,-0.906667 -0.0533,-1.146667 l -1.6,-5.92 -1.54667,5.333333 q -0.08,0.293334 -0.13333,1.12 -0.0533,0.666667 -0.29334,1.066667 -1.01333,1.653333 -2.48,1.653333 -0.50666,0 -0.93333,-0.293333 -0.53333,-0.346667 -0.64,-1.066667 -0.10667,-0.72 -0.21333,-1.413333 l -2.34667,-9.12 q -0.08,-0.346666 -0.48,-1.28 -0.32,-0.72 -0.32,-1.226666 0,-0.346667 0.13333,-0.693334 0.24,-0.746666 1.92,-0.746666 0.93334,0 1.25334,0.266666 0.4,0.346667 0.42666,1.12 0.0267,1.173334 0.0533,1.28 l 1.6,6.4 2.24,-6.56 q 0.0533,-0.186666 0.0533,-0.373333 0,-0.16 -0.08,-0.453333 -0.0533,-0.32 -0.0533,-0.48 0,-0.586667 0.64,-0.906667 0.53333,-0.293333 1.17333,-0.293333 0.88,0 1.46667,0.426666 0.74666,0.533334 0.82666,1.386667 0.08,0.826667 0.13334,1.653333 l 1.6,6.4 2.56,-7.68 q 0.0533,-0.16 0.0533,-0.346666 0,-0.213334 -0.08,-0.56 -0.08,-0.373334 -0.08,-0.56 0,-0.24 0.10667,-0.453334 0.4,-0.7199997 2.10666,-0.7199997 1.6,0 1.89334,0.7199997 z"
       id="path35" />
    <path
       d="m 338.27684,23.421669 q -0.0533,0.586667 -0.77334,1.013334 -0.72,0.4 -1.6,0.4 -1.30666,0 -1.78666,-0.826667 0.21333,-8.213333 -0.48,-8.32 -0.66667,-0.106666 -3.25334,7.36 0,0.8 0,1.6 -0.0267,0.96 -0.53333,1.36 -0.48,0.4 -1.04,0.4 -0.96,0 -2.05333,-1.04 -0.32,-0.266667 -0.34667,-4.053333 0.0267,2.32 0.0267,-8.613333 0,-0.24 -0.0533,-0.64 -0.0533,-0.426667 -0.0533,-0.613334 0,-0.506666 0.26667,-0.88 0.32,-0.48 1.01333,-0.48 0.72,0 1.49333,0.453334 0.8,0.426666 0.96,0.826666 0.10667,0.266667 0.10667,0.533334 0,0.266666 -0.21333,0.746666 -0.21334,0.48 -0.21334,0.8 v 3.68 q 1.68,-3.573333 2.53334,-4.72 1.52,-1.973333 3.44,-1.84 1.14666,0.08 1.62666,2.133334 0.37334,1.546666 0.4,4.586666 0,2.4 0,4.8 0.0533,0.186667 0.37334,0.666667 0.18666,0.266666 0.16,0.666666 z"
       id="path37" />
    <path
       d="m 170.62403,38.888339 q 0.0533,1.2 -1.04,1.466667 -0.0533,0.02667 -2,0.16 -0.16,0 -0.21333,0.02667 -1.62667,0.773334 -2.4,1.066667 -0.29333,2.373333 -0.0533,6.346666 0.34666,-0.24 1.06666,-0.72 0.64,-0.746666 1.06667,-0.72 0.88,0.05333 1.76,0.88 0.90667,0.8 0.90667,1.68 0,0.346667 -0.16,0.64 -0.29334,0.586667 -1.46667,0.64 -1.33333,0.05333 -1.78667,0.426667 -0.37333,0.133333 -0.72,0.48 -0.32,0.32 -0.61333,0.64 -0.21333,1.786667 0,5.013333 0.13333,0.346667 0.13333,0.666667 0,0.853333 -0.93333,1.333333 -0.34667,0.186667 -0.82667,0.186667 -0.85333,0 -1.57333,-0.506667 -0.8,-0.533333 -0.96,-1.36 -0.0533,-0.373333 0.10667,-0.56 0.18666,-0.186666 0.37333,-0.346666 -0.16,-11.626667 0,-17.173333 -0.0267,-0.266667 -0.0267,-0.48 0,-1.386667 1.68,-1.386667 0.29334,0 0.64,0.05333 0.58667,0.08 0.8,0.213334 0.0533,0.02667 0.37334,0.373333 0.53333,-0.186667 1.70666,-0.586667 0.26667,-0.16 0.56,-0.346666 0.32,-0.213334 0.98667,-0.213334 0.77333,0 1.68,0.666667 0.90667,0.666667 0.93333,1.44 z"
       id="path39" />
    <path
       d="m 179.53065,44.701672 q 1.78667,1.813333 1.78667,6.106667 0,3.333333 -1.25334,5.68 -1.41333,2.639999 -3.89333,2.639999 -2.45333,0 -3.78666,-2.373333 -1.17334,-2.08 -1.17334,-5.28 0,-2.826666 0.90667,-5.066666 0.96,-2.4 2.45333,-2.826667 0.77334,-0.213333 1.6,-0.213333 2.05334,0 3.36,1.333333 z m -3.04,1.28 q -0.88,-0.08 -1.52,1.653333 -0.56,1.573334 -0.56,3.306667 0,2.506667 0.21334,3.546667 0.37333,1.866666 1.54666,2.053333 0.74667,0.106667 1.38667,-2.053333 0.61333,-2.08 0.61333,-4.453334 0,-3.893333 -1.68,-4.053333 z"
       id="path41" />
    <path
       d="m 193.5306,44.328339 q 0.0533,0.453333 -0.53333,0.853333 -0.74667,0.533333 -0.90667,0.8 l -3.04,5.28 2.56,4.96 q 0.0533,0.08 0.56,0.826667 0.32,0.453333 0.32,0.826666 0,0.213334 -0.08,0.426667 -0.45333,1.146666 -1.68,1.146666 -0.50667,0 -0.98667,-0.213333 -0.66666,-0.293333 -0.74666,-0.773333 -0.0533,-0.453333 -0.10667,-0.906667 l -1.44,-3.573333 -1.6,3.2 q -0.16,0.533333 -0.37333,1.066667 -0.21334,0.506666 -0.82667,0.506666 -0.77333,0 -1.49333,-0.533333 -0.77334,-0.613333 -0.66667,-1.36 0.0533,-0.293333 0.34667,-0.613333 0.32,-0.346667 0.4,-0.506667 l 2.34666,-4.266667 -1.65333,-5.173333 q -0.08,-0.266667 -0.53333,-0.64 -0.42667,-0.4 -0.48,-0.746667 -0.08,-0.613333 0.74666,-1.093333 0.74667,-0.4 1.6,-0.4 0.48,0 0.74667,0.16 0.58667,0.373334 0.72,0.96 0.13333,0.56 0.24,1.12 l 0.8,2.506667 1.76,-3.146667 q 0.24,-0.506667 0.50667,-1.04 0.29333,-0.533333 0.77333,-0.72 0.29333,-0.133333 0.66667,-0.133333 0.69333,0 1.33333,0.4 0.66667,0.373333 0.72,0.8 z"
       id="path43" />
    <path
       d="m 211.26388,38.941672 q -0.0267,0.586667 -0.45333,0.933334 -0.4,0.32 -0.4,0.613333 -0.08,0.133333 -0.13334,7.173333 -0.08,7.493333 -0.50666,9.68 -0.13334,0.72 -1.09334,1.386666 -0.96,0.693334 -1.94666,0.56 -1.25334,-0.16 -2.69334,-1.893333 -0.69333,-0.88 -2.85333,-4.213333 -0.34667,-0.293333 -0.72,-0.586667 -0.34667,-0.32 -0.34667,-1.066666 0,-0.48 1.14667,-0.773334 0.96,-0.24 2.05333,-0.24 0.66667,0 0.8,0.106667 0.48,0.4 0.56,1.146667 0.10667,0.986666 0.29334,1.306666 0.21333,0.613334 0.45333,1.253334 0.26667,0.64 0.61333,0.666666 0.77334,0.02667 0.77334,-9.253333 0,-3.04 -0.08,-6.16 0,-0.266666 -0.0533,-0.746666 -0.0267,-0.506667 -0.0267,-0.693334 0,-1.173333 1.41333,-1.44 0.61333,-0.106666 1.86667,0.613334 1.36,0.8 1.33333,1.626666 z"
       id="path45" />
    <path
       d="m 222.0105,45.448339 q 0.0533,0.4 -0.16,0.853333 -0.26667,0.613333 -0.32,0.906667 0,5.546666 -0.45333,7.706666 -0.98667,4.533333 -4.18667,4.533333 -4.66667,0 -4.66667,-8.506666 0,-2.293333 0.34667,-4.853333 -0.18667,-0.613334 -0.18667,-1.093334 0,-0.773333 0.50667,-1.306666 0.42667,-0.453333 1.25333,-0.453333 0.66667,0 1.25334,0.293333 0.58666,0.266667 0.69333,0.64 0.0533,0.186666 0.0533,0.373333 0,0.346667 -0.29333,1.12 -0.29333,0.746667 -0.24,1.226667 -0.26667,1.493333 -0.26667,3.76 0,2.293333 0.29334,3.813333 0.37333,1.76 1.04,1.76 1.12,0 1.46666,-3.786667 0.18667,-1.893333 0.18667,-6.026666 0,-0.266667 -0.08,-0.773334 -0.08,-0.506666 -0.08,-0.746666 0,-0.64 0.48,-0.88 0.26667,-0.133333 0.74667,-0.133333 0.88,0 1.62666,0.373333 0.88,0.453333 0.98667,1.2 z"
       id="path47" />
    <path
       d="m 241.98382,58.461672 q -0.34667,0.986666 -1.57333,0.986666 -1.54667,0 -2.29334,-1.066666 -0.4,-0.586667 -0.4,-4.026667 0,-0.506666 0,-1.413333 0.0267,-0.933333 0.0267,-1.306667 0,-1.866666 -0.18667,-1.92 -0.4,-0.16 -2.72,7.466667 0,0.02667 -0.10666,1.28 -0.0533,0.773333 -0.53334,1.04 -0.34666,0.186666 -0.77333,0.186666 -0.77333,0 -1.49333,-0.506666 -0.72,-0.506667 -0.90667,-1.2 -0.26667,-0.986667 -0.24,-3.893333 0.0533,-4.24 0.0533,-4.08 -0.0267,-1.12 -0.16,-1.146667 -0.61333,1.013333 -1.06666,1.946667 -1.09334,2.24 -1.25334,3.733333 -0.13333,0.32 -0.0267,1.253333 0.10666,0.8 -0.24,1.093334 -0.34667,0.293333 -0.93334,0.293333 -0.64,0 -1.30666,-0.346667 -0.64,-0.373333 -0.93334,-0.826666 -0.42666,-0.666667 -0.48,-3.893334 0,-3.146666 0,-6.293333 -0.0267,-0.266667 -0.21333,-0.746667 -0.18667,-0.48 -0.18667,-0.72 0,-0.239999 0.13334,-0.453333 0.34666,-0.533333 1.76,-0.533333 1.73333,0 2.08,0.853333 0.08,0.186667 0.08,0.373333 0,0.24 -0.26667,0.693334 -0.24,0.453333 -0.24,0.746666 v 3.04 q 0.8,-1.68 2.10667,-4.266666 0.16,-0.346667 0.29333,-0.693333 0.16,-0.346667 0.45333,-0.613334 0.29334,-0.266666 0.98667,-0.266666 1.06667,0 2.13333,0.48 1.09334,0.48 1.12,1.146666 0.0267,0.693333 -0.21333,1.066667 -0.21333,0.346666 -0.21333,0.586666 l -0.0533,5.76 q 0.42667,-0.96 1.54667,-4.533333 0.88,-2.72 1.33333,-3.04 0.58667,-0.426666 1.73334,-0.426666 2.13333,0 2.21333,1.226666 -0.0267,3.253333 0,10.88 0,0.293333 0.53333,0.72 0.53334,0.4 0.53334,0.853333 0,0.213334 -0.10667,0.506667 z"
       id="path49" />
    <path
       d="m 254.25043,51.101672 q 0,2.826667 -1.2,5.146667 -1.33333,2.506666 -3.28,2.506666 -1.09333,0 -2.24,-1.733333 v 3.413333 q 0,0.426667 0.34667,1.093333 0.34666,0.666667 0.34666,1.013334 0,0.266666 -0.13333,0.533333 -0.56,1.2 -2.18667,1.2 -1.33333,0 -1.65333,-0.96 -0.10667,-0.32 -0.10667,-0.613333 0,-0.293334 0.16,-0.8 0.18667,-0.48 0.18667,-0.826667 V 45.901672 q 0,-0.293333 -0.21333,-0.693333 -0.21334,-0.426667 -0.21334,-0.693334 0,-0.213333 0.10667,-0.453333 0.32,-0.746666 1.97333,-0.746666 1.04,0 1.38667,0.426666 0.13333,0.16 0.13333,0.4 0,0.186667 -0.13333,0.586667 -0.13333,0.4 -0.16,0.613333 1.22667,-1.76 2.88,-1.76 2.21333,0 3.22667,2.506667 0.77333,1.946666 0.77333,5.013333 z m -3.36,0 q 0,-2.533333 -0.10667,-3.226667 -0.26666,-1.733333 -1.33333,-1.733333 -0.61333,0 -1.12,1.68 -0.48,1.653333 -0.48,3.28 0,1.226667 0.53333,2.88 0.53334,1.76 1.06667,1.76 0.64,0 1.06667,-1.626667 0.37333,-1.413333 0.37333,-3.013333 z"
       id="path51" />
    <path
       d="m 265.10372,54.888339 q 0,1.866666 -1.33333,3.2 -1.33334,1.306666 -3.14667,1.306666 -1.14667,0 -2.37333,-1.093333 -0.96,-0.88 -1.73334,-2.16 -0.66666,-1.12 -0.58666,-1.413333 0.29333,-0.666667 1.84,-0.666667 0.64,0 1.01333,0.186667 0.64,0.346666 0.72,0.88 0.08,0.613333 0.26667,0.773333 0.56,0.853333 1.01333,0.853333 0.34667,0 0.64,-0.453333 0.32,-0.48 0.32,-1.12 0,-0.4 -0.13333,-0.8 -0.13334,-0.4 -1.44,-1.226667 -1.57334,-0.986666 -2.24,-1.733333 -1.14667,-1.28 -1.14667,-2.986667 0,-2 1.17333,-3.493333 1.17334,-1.52 2.98667,-1.52 1.86667,0 2.85333,1.413333 0.8,1.146667 0.66667,2.32 0.29333,0.32 0.29333,1.066667 0,0.8 -0.58666,1.36 -0.58667,0.56 -1.2,0.56 -0.90667,0 -1.57334,-1.2 -0.18666,-0.32 -0.18666,-0.853333 0,-0.24 0.0267,-0.666667 0.0533,-0.453333 0.0533,-0.64 0,-0.693333 -0.50667,-0.693333 -0.77333,0 -0.77333,1.52 0,1.546666 1.01333,2.48 0.4,0.373333 1.73333,1.066666 1.14667,0.586667 1.62667,1.2 0.72,0.933334 0.72,2.533334 z"
       id="path53" />
    <path
       d="m 285.87697,47.261672 q 0.18666,3.573333 -1.22667,7.386667 -1.41333,3.786666 -3.01333,4.266666 -0.64,0.213333 -1.25334,0.16 -0.64,-0.08 -1.25333,-0.16 -5.49333,-0.64 -6.05333,-11.653333 -0.16,-2.986666 0.96,-6.4 1.04,-3.173333 2.16,-3.92 0.26666,-0.186666 0.58666,-0.186666 0.24,0 0.74667,0.16 0.50667,0.133333 0.77333,0.133333 0.32,0 1.14667,-0.133333 0.85333,-0.16 1.25333,-0.16 0.37334,0 0.61334,0.106666 4.13333,1.68 4.56,10.4 z m -3.6,0 q -0.26667,-3.333333 -0.72,-5.013333 -0.74667,-2.826667 -2.21334,-2.826667 -0.4,0 -0.85333,0.213334 -0.42667,0.213333 -1.14667,2.746666 -0.74666,2.773333 -0.74666,4.88 0,2.746667 0.96,5.786667 0.96,3.013333 1.84,3.013333 0.82666,0 1.84,-2.72 1.06666,-2.826667 1.06666,-5.36 0,-0.373333 -0.0267,-0.72 z"
       id="path55" />
    <path
       d="m 300.54359,44.061672 q 0.18667,0.346667 0.18667,0.72 0,0.533333 -0.45334,1.333333 -0.64,1.066667 -0.74666,1.36 -1.17334,3.36 -3.01334,8.48 -0.34666,1.76 -0.88,2.506667 -0.66666,1.013333 -1.97333,0.933333 -1.25333,-0.08 -1.68,-0.506667 -0.32,-0.32 -0.32,-0.986666 0,-0.106667 0,-0.293333 0,-0.186667 0,-0.266667 0,-0.48 -0.08,-0.8 l -2.72,-9.76 q -0.08,-0.32 -0.69333,-1.04 -0.50667,-0.56 -0.4,-1.04 0.26666,-1.173333 1.89333,-1.173333 0.34667,0 0.64,0.05333 1.04,0.213334 2.05333,3.653333 0.82667,3.226667 1.68,6.426667 l 2.77334,-8.533333 q 0.21333,-0.64 0.34666,-0.88 0.24,-0.426667 0.66667,-0.666667 0.45333,-0.24 1.09333,-0.24 1.22667,0 1.62667,0.72 z"
       id="path57" />
    <path
       d="m 311.07688,55.661672 q -0.21333,1.013333 -1.44,2.16 -0.18667,0.293333 -1.46667,0.773333 -1.46666,0.56 -2.53333,0.48 -2,-0.133333 -3.14667,-2.293333 -1.04,-2 -1.04,-4.906667 0,-3.146666 1.17334,-5.52 1.30666,-2.613333 3.49333,-2.933333 0.42667,-0.05333 0.82667,-0.05333 3.17333,0 3.49333,3.893333 0.16,1.786667 -1.41333,3.893333 -1.70667,2.32 -4.37334,3.253334 0.29334,1.066666 0.45334,1.386666 0.37333,0.666667 1.01333,0.666667 0.61333,0 1.30667,-0.48 0.58666,-0.4 0.8,-0.773333 0.10666,-0.05333 0.21333,-0.586667 0.10667,-0.56 0.56,-0.8 0.16,-0.08 0.37333,-0.08 0.64,0 1.22667,0.64 0.61333,0.613333 0.48,1.28 z m -4.18667,-9.386667 q -1.06666,0 -1.73333,1.52 -0.88,2.026667 -0.72,4 1.25333,-0.4 2.32,-1.866666 1.06667,-1.466667 1.06667,-2.613334 0,-1.04 -0.93334,-1.04 z"
       id="path59" />
    <path
       d="m 323.29019,44.861672 q -0.10667,0.56 -1.01334,0.773333 -1.06666,0.266667 -1.36,0.613334 l -4.34666,5.013333 v 4.053333 q 0,0.586667 0.32,1.2 0.34666,0.586667 0.34666,0.906667 0,0.32 -0.18666,0.72 -0.45334,1.013333 -1.84,1.013333 -0.96,0 -1.52,-0.613333 -0.37334,-0.4 -0.37334,-1.013333 0,-0.213334 0.0533,-0.693334 0.0533,-0.48 0.0533,-0.773333 v -9.973333 q 0,-0.24 -0.21333,-0.586667 -0.21334,-0.346667 -0.21334,-0.56 0,-0.16 0.10667,-0.373333 0.34667,-0.64 2.16,-0.64 1.41333,0 1.6,0.666666 0.08,0.266667 0.08,0.453334 0,0.293333 -0.21333,0.453333 -0.21334,0.16 -0.21334,0.32 l 0.0533,0.96 2.29333,-2.426667 q 0.4,-0.453333 0.82667,-0.906666 0.45333,-0.453333 1.04,-0.506667 0.90666,-0.08 1.73333,0.4 0.85333,0.48 0.85333,1.253333 0,0.133334 -0.0267,0.266667 z"
       id="path61" />
    <path
       d="m 172.0107,73.395008 q -0.29333,0.56 -1.25333,0.56 -1.25334,0 -1.46667,0.08 -0.98667,0.426667 -2.29333,0.96 -0.08,2.026667 -0.08,4.453333 0,4.933334 0.29333,10.106667 0,0.373333 0.26667,0.986666 0.29333,0.586667 0.29333,0.853334 0,0.346666 -0.24,0.64 -0.58667,0.8 -1.76,0.8 -1.01333,0 -1.94667,-0.56 -0.90666,-0.533334 -1.04,-1.28 -0.08,-0.4 0.4,-0.906667 0.50667,-0.506667 0.50667,-0.96 -0.18667,-5.306666 -0.18667,-9.28 0,-2.4 0.08,-3.84 -0.0267,0 -0.74666,0.266667 -0.48,0.186667 -0.77334,0.186667 -0.42666,0 -0.77333,-0.293334 -0.85333,-0.72 -1.06667,-0.96 -0.42666,-0.48 -0.42666,-1.013333 0,-0.186667 0.0533,-0.426667 0.08,-0.373333 3.89333,-1.519999 4.10667,-1.253334 4.42667,-1.466667 0.29333,-0.106667 0.64,-0.48 0.37333,-0.373333 0.8,-0.426667 0.58667,-0.05333 1.54667,0.773334 1.06666,0.933333 1.06666,1.946666 0,0.4 -0.21333,0.8 z"
       id="path63" />
    <path
       d="m 184.01069,89.555008 q 0.16,0.666666 0.16,0.853333 0,0.56 -0.66667,0.933333 -0.64,0.346667 -1.38667,0.346667 -1.14666,0 -1.46666,-0.853333 -0.13334,-0.346667 -0.13334,-0.586667 0,-0.346667 0.29334,-0.746667 0.32,-0.4 0.32,-0.746666 0.32,-1.386667 0.32,-4 0,-4.533333 -0.64,-4.64 -0.48,-0.08 -1.54667,1.52 -1.12,1.68 -1.86666,3.76 -0.88,2.453333 -0.74667,4.32 -0.08,0.16 -0.08,0.32 0,0.24 0.21333,0.693333 0.21334,0.426667 0.21334,0.693333 0,0.266667 -0.18667,0.506667 -0.72,1.04 -1.44,1.04 -0.74667,0 -1.44,-1.173333 -0.4,-0.693334 -0.4,-7.973333 0,-2.666667 0.13333,-12.133333 0,-0.16 -0.0267,-0.48 -0.0267,-0.346667 -0.0267,-0.533334 0.0267,-0.266666 0.16,-0.48 0.29333,-0.56 1.25333,-0.56 0.85334,0 1.54667,0.453334 0.72,0.453333 0.56,1.066666 -0.0267,0.16 -0.26667,0.373334 -0.21333,0.213333 -0.21333,0.426666 v 8.586667 q 1.52,-3.413334 4.48,-3.626667 1.6,-0.106667 2.56,2.4 0.88,2.293333 0.88,5.626667 0,2.559999 -0.56,4.613333 z"
       id="path65" />
    <path
       d="m 196.4373,88.995008 q -0.21333,1.013333 -1.44,2.16 -0.18666,0.293333 -1.46666,0.773333 -1.46667,0.56 -2.53334,0.48 -2,-0.133333 -3.14666,-2.293333 -1.04,-2 -1.04,-4.906667 0,-3.146666 1.17333,-5.52 1.30667,-2.613333 3.49333,-2.933333 0.42667,-0.05333 0.82667,-0.05333 3.17333,0 3.49333,3.893333 0.16,1.786667 -1.41333,3.893333 -1.70667,2.32 -4.37333,3.253333 0.29333,1.066667 0.45333,1.386667 0.37333,0.666667 1.01333,0.666667 0.61334,0 1.30667,-0.48 0.58667,-0.4 0.8,-0.773334 0.10667,-0.05333 0.21333,-0.586666 0.10667,-0.56 0.56,-0.8 0.16,-0.08 0.37334,-0.08 0.64,0 1.22666,0.64 0.61334,0.613333 0.48,1.28 z m -4.18666,-9.386667 q -1.06667,0 -1.73334,1.52 -0.88,2.026667 -0.72,4 1.25334,-0.4 2.32,-1.866666 1.06667,-1.466667 1.06667,-2.613334 0,-1.04 -0.93333,-1.04 z"
       id="path67" />
    <path
       d="m 214.09056,87.688341 q 0.16,0.32 0.16,0.72 0,0.666667 -0.42667,1.28 -0.4,0.613333 -0.96,0.826667 -0.53333,0.186666 -1.54666,0.186666 -1.01334,0 -1.46667,0.133334 -0.45333,0.133333 -1.04,0.826666 -0.50667,0.56 -1.76,0.746667 -0.77333,0.106667 -1.57333,-0.533333 -0.8,-0.64 -1.09334,-1.573334 -0.0533,-0.186666 -0.0533,-0.346666 0,-0.346667 0.37333,-0.773334 0.4,-0.426666 0.37334,-0.746666 l -1.12,-16.16 q 0,-0.106666 -0.29334,-0.48 -0.26666,-0.4 -0.26666,-0.666666 0,-0.373334 0.4,-0.72 0.56,-0.506667 1.6,-0.506667 0.88,0 1.68,0.373333 0.82666,0.373334 1.04,0.88 0.13333,0.293334 0.13333,0.506667 0,0.24 -0.24,0.48 -0.24,0.24 -0.21333,0.453333 l 0.96,14.72 1.6,-0.64 q 0.50666,-0.24 1.01333,-0.453333 0.53333,-0.24 0.88,-0.24 0.96,0 1.84,1.706666 z"
       id="path69" />
    <path
       d="m 227.55715,90.675008 q -0.4,1.306666 -1.97334,1.306666 -0.53333,0 -0.85333,-0.186666 -0.42667,-0.293334 -0.58667,-1.173334 -0.32,-1.52 -0.64,-2.373333 -0.08,1.466667 -1.6,2.986667 -1.52,1.493333 -3.06666,1.493333 -1.94667,0 -2.69334,-2.586667 -0.26666,-0.96 -0.26666,-1.813333 0,-2.48 2.53333,-4.24 2.08,-1.226666 4.18667,-2.426666 0.10666,-0.453334 0.10666,-0.88 0,-0.826667 -0.45333,-0.96 -0.45333,-0.16 -0.77333,-0.16 -0.56,0 -0.93334,0.373333 -0.34666,0.346667 -0.66666,0.666667 -0.32,0.213333 -0.82667,0.986666 -0.4,0.613334 -0.88,0.666667 -0.69333,0.08 -1.25333,-0.48 -0.56,-0.56 -0.56,-1.306667 0,-0.426666 0.21333,-0.773333 0.61333,-1.013333 1.84,-1.76 1.86667,-1.12 4.66667,-1.12 1.78666,0 2.45333,1.706667 0.42667,1.146666 0.64,4.293333 0.24,3.813333 0.58667,5.573333 0.0533,0.346667 0.45333,0.88 0.4,0.533333 0.4,0.933333 0,0.186667 -0.0533,0.373334 z m -4.64,-6.56 q -0.8,0.426667 -1.6,0.88 -0.77334,0.453333 -1.44,1.2 -0.96,1.093333 -0.96,1.866666 0,0.64 0.48,1.333334 0.26666,0.373333 0.58666,0.373333 0.69334,0 1.49334,-1.546667 0.82666,-1.546666 1.44,-4.106666 z"
       id="path71" />
    <path
       d="m 241.77043,79.155008 q -0.08,0.586667 -0.64,1.066667 -0.82667,0.746666 -0.96,0.906666 l -5.86667,7.946667 4,-0.64 q 0.29333,-0.05333 0.8,-0.266667 0.50667,-0.24 0.82667,-0.24 0.74666,0 1.28,0.693333 0.53333,0.666667 0.53333,1.44 0,0.666667 -0.37333,1.066667 -0.34667,0.373333 -0.90667,0.373333 -0.13333,0 -0.77333,-0.08 -0.50667,-0.05333 -0.85334,0 l -4.96,0.773334 q -0.32,0.05333 -0.96,0.373333 -0.53333,0.293333 -0.96,0.266667 -0.98666,-0.05333 -1.73333,-0.693334 -0.74667,-0.613333 -0.74667,-1.466666 0,-0.16 0.0267,-0.32 0.10667,-0.64 0.53333,-1.013334 0.66667,-0.586666 0.74667,-0.693333 l 5.97333,-8.266666 -2.88,0.373333 q -0.21333,0.02667 -0.58666,0.16 -0.34667,0.133333 -0.56,0.133333 -0.24,0 -0.50667,-0.133333 -1.52,-0.693333 -1.52,-1.84 0,-0.64 0.50667,-1.253333 0.32,-0.4 0.90666,-0.4 0.18667,0 0.82667,0.106666 0.53333,0.05333 0.88,0.02667 l 4.16,-0.48 q 0.32,-0.02667 0.88,-0.213333 0.56,-0.213334 0.88,-0.213334 0.8,0 1.46667,0.853334 0.66666,0.853333 0.56,1.653333 z"
       id="path73" />
    <path
       d="m 256.14374,78.515008 q 0.08,0.533333 -0.26666,1.146667 -0.61334,1.013333 -0.64,1.093333 -1.12,2.666667 -3.46667,8.586666 -1.06667,2.826667 -1.33333,5.093334 -0.0533,0.213333 -0.0267,0.933333 0.0267,0.586667 -0.18667,0.88 -0.42666,0.56 -1.28,0.56 -1.52,0 -1.97333,-1.146667 -0.10667,-0.293333 -0.10667,-0.506666 0,-0.266667 0.21334,-0.613334 0.21333,-0.32 0.26666,-0.533333 l 0.64,-3.333333 -3.84,-11.04 q -0.08,-0.213333 -0.42666,-0.88 -0.24,-0.48 -0.24,-0.826667 0,-0.186666 0.0533,-0.373333 0.26667,-0.96 1.81333,-0.96 0.96,0 1.52,0.32 0.66667,0.4 0.77334,1.413333 0.13333,1.653334 0.18666,1.84 l 1.76,5.546667 2.72,-6.88 q 0.0267,-0.08 0.24,-1.173333 0.13334,-0.666667 0.56,-0.906667 0.26667,-0.16 0.61334,-0.16 0.77333,0 1.54666,0.586667 0.77334,0.56 0.88,1.333333 z"
       id="path75" />
    <path
       d="m 275.55701,74.408341 q 0.10667,1.786667 -1.22667,6.266667 -1.41333,4.8 -3.2,8.186666 -2.16,4.026667 -3.94666,4.026667 -0.90667,0 -1.76,-0.8 -0.82667,-0.8 -0.82667,-1.653333 0,-0.4 0.24,-0.72 -0.42667,-11.493333 -0.32,-15.626667 -0.56,-0.906666 -0.56,-1.36 0,-0.639999 0.72,-1.119999 0.64,-0.453334 1.33333,-0.453334 0.64,0 1.06667,0.373334 3.46667,-1.36 4.61333,-1.36 0.61334,0 1.2,0.293333 0.88,0.426667 1.68,1.493333 0.90667,1.226667 0.98667,2.453333 z m -3.62667,-0.8 q -0.26666,-0.32 -0.69333,-0.32 -0.82667,0 -3.25333,1.92 -0.16,2 -0.16,4.426667 0,3.466667 0.32,7.146666 1.41333,-3.439999 2.61333,-7.226666 1.28,-4.08 1.28,-5.44 0,-0.373333 -0.10667,-0.506667 z"
       id="path77" />
    <path
       d="m 284.73034,78.035008 q 1.78666,1.813333 1.78666,6.106667 0,3.333333 -1.25333,5.679999 -1.41333,2.64 -3.89333,2.64 -2.45334,0 -3.78667,-2.373333 -1.17333,-2.08 -1.17333,-5.28 0,-2.826666 0.90666,-5.066666 0.96,-2.4 2.45334,-2.826667 0.77333,-0.213333 1.6,-0.213333 2.05333,0 3.36,1.333333 z m -3.04,1.28 q -0.88,-0.08 -1.52,1.653333 -0.56,1.573334 -0.56,3.306667 0,2.506666 0.21333,3.546666 0.37333,1.866667 1.54667,2.053334 0.74666,0.106666 1.38666,-2.053334 0.61334,-2.079999 0.61334,-4.453333 0,-3.893333 -1.68,-4.053333 z"
       id="path79" />
    <path
       d="m 298.27698,77.635008 q 0.0533,2.293333 0.24,7.546667 0.10666,3.706666 0.10666,5.306666 0,3.52 -0.56,4.8 -0.56,1.28 -2.26666,1.413333 -2.13334,0.186667 -3.76,-1.12 -0.8,-0.24 -1.01334,-0.373333 -0.45333,-0.266667 -0.58666,-0.906667 -0.24,-1.253333 1.97333,-1.253333 0.56,0 1.06667,0.133333 0.37333,0.08 0.82666,0.613334 0.45334,0.56 0.85334,0.586666 0.77333,0.05333 0.77333,-2.186666 0,-0.96 -0.13333,-3.12 -0.96,1.626666 -1.38667,2.106666 -0.88,0.906667 -2.05333,0.906667 -1.65334,0 -2.66667,-2.293333 -0.93333,-2.106667 -0.93333,-5.12 0,-3.093333 0.98666,-5.226667 1.12,-2.4 3.09334,-2.453333 1.06666,-0.02667 1.57333,0.426667 0.50667,0.453333 0.98667,0.933333 -0.34667,-0.96 0.16,-1.44 0.29333,-0.293333 0.88,-0.293333 0.56,0 1.12,0.293333 0.56,0.293333 0.72,0.72 z m -3.2,6.8 q 0.10666,-1.546667 -0.37334,-2.933333 -0.53333,-1.546667 -1.38666,-1.546667 -0.69334,0 -1.22667,1.546667 -0.48,1.386666 -0.53333,2.933333 -0.0533,1.626667 0.24,2.933333 0.37333,1.546667 1.04,1.546667 0.58666,0 1.36,-1.493334 0.77333,-1.519999 0.88,-2.986666 z"
       id="path81" />
  </g>
</svg>
