<?xml version="1.0" encoding="UTF-8" standalone="no"?>
<svg
   xmlns:dc="http://purl.org/dc/elements/1.1/"
   xmlns:cc="http://creativecommons.org/ns#"
   xmlns:rdf="http://www.w3.org/1999/02/22-rdf-syntax-ns#"
   xmlns:svg="http://www.w3.org/2000/svg"
   xmlns="http://www.w3.org/2000/svg"
   viewBox="160.037 5.475 215.199 91.8133"
   version="1.1"
   id="svg2">
  <metadata
     id="metadata11">
    <rdf:RDF>
      <cc:Work
         rdf:about="">
        <dc:format>image/svg+xml</dc:format>
        <dc:type
           rdf:resource="http://purl.org/dc/dcmitype/StillImage" />
      </cc:Work>
    </rdf:RDF>
  </metadata>
  <defs
     id="defs9" />
  <g
     aria-label="The Quick BrownFox Jumps OverThe Lazy Dog"
     id="text4521"
     style="font-style:normal;font-variant:normal;font-weight:normal;font-stretch:normal;font-size:26.6667px;line-height:125%;font-family:'New Century Schoolbook', 'TeX Gyre Schola', serif;font-variant-ligatures:normal;font-variant-caps:normal;font-variant-numeric:normal;font-feature-settings:normal;text-align:left;letter-spacing:0px;word-spacing:0px;writing-mode:lr-tb;text-anchor:start;fill:#000000;fill-opacity:1;stroke:none;stroke-width:1px;stroke-linecap:butt;stroke-linejoin:miter;stroke-opacity:1">
    <path
       d="m 176.4107,5.8750031 h -15.97333 l -0.4,7.4133329 h 1.14666 c 0.18667,-1.333333 0.4,-2.346666 0.72,-3.2 0.69334,-1.973333 1.97334,-2.9599996 3.78667,-2.9599996 0.88,0 1.25333,0.2933333 1.25333,0.96 V 21.848336 c 0,1.36 0,1.413333 -0.16,1.653333 -0.21333,0.266667 -0.72,0.373334 -2.24,0.373334 h -0.69333 v 1.253333 h 9.14667 v -1.253333 h -0.69334 c -1.49333,0 -2,-0.106667 -2.21333,-0.373334 -0.16,-0.24 -0.16,-0.293333 -0.16,-1.653333 V 8.0883364 c 0,-0.6666667 0.37333,-0.96 1.25333,-0.96 1.62667,0 2.93334,0.9066666 3.6,2.5066666 0.4,0.986667 0.66667,2.133333 0.88,3.653333 h 1.14667 z"
       id="path13" />
    <path
       d="m 183.05068,5.4750031 -4.93333,0.2933333 v 1.1466667 h 1.28 c 1.01333,0.026667 1.14666,0.1866666 1.14666,1.3333333 v 13.5999996 0.64 0.64 c -0.0267,0.373333 -0.0533,0.533333 -0.16,0.666667 -0.18666,0.24 -0.69333,0.346666 -1.84,0.373333 h -0.10666 v 0.96 h 6.74666 v -0.96 h -0.10666 c -1.78667,-0.05333 -2.02667,-0.186667 -2.02667,-1.146667 v -1.173333 -2.773333 c 0,-1.306667 0.18667,-2.506667 0.48,-3.12 0.58667,-1.2 1.76,-2.026667 2.90667,-2.026667 0.69333,0 1.49333,0.4 1.86666,0.933334 0.42667,0.586666 0.61334,1.386666 0.61334,2.693333 v 4.293333 1.28 c -0.0267,0.373333 -0.0533,0.533333 -0.16,0.666667 -0.18667,0.24 -0.72,0.346666 -1.86667,0.373333 h -0.10667 v 0.96 h 6.74667 v -0.96 h -0.10667 c -1.76,-0.05333 -2,-0.186667 -2,-1.146667 v -1.173333 -4.186667 c 0,-1.919999 -0.08,-2.399999 -0.56,-3.306666 -0.66666,-1.306667 -2,-2.053333 -3.6,-2.053333 -1.73333,0 -3.01333,0.773333 -4.21333,2.56 z"
       id="path15" />
    <path
       d="m 206.41063,19.128336 c 0.0267,-4 -2.24,-6.826666 -5.49334,-6.826666 -3.41333,0 -5.97333,2.96 -5.97333,6.959999 0,3.76 2.42667,6.266667 6.02667,6.266667 2.56,0 4.34666,-1.253333 5.44,-3.786667 l -0.93334,-0.506666 c -1.09333,2.053333 -2.21333,2.853333 -4,2.853333 -1.36,0 -2.34666,-0.56 -3.04,-1.76 -0.48,-0.8 -0.69333,-1.733333 -0.66666,-3.2 z m -8.61334,-1.146667 c 0,-0.826666 0.10667,-1.413333 0.37334,-2.159999 0.56,-1.6 1.41333,-2.373334 2.72,-2.373334 1.6,0 2.66666,1.413334 2.66666,3.573333 0,0.746667 -0.24,0.96 -1.09333,0.96 z"
       id="path17" />
    <path
       d="m 233.50391,25.661669 c -0.13334,1.706667 -0.4,2.346667 -1.06667,2.346667 -0.77333,0 -1.41333,-1.12 -2.32,-4.026667 2.77333,-2.293333 4.21333,-5.28 4.21333,-8.693333 0,-5.493333 -4.08,-9.8133329 -9.22666,-9.8133329 -2.18667,0 -4.05334,0.6933333 -5.68,2.1599999 -2.18667,1.9466667 -3.46667,4.853333 -3.46667,7.893333 0,5.6 4.10667,10 9.33333,10 0.90667,0 1.49334,-0.08 2.37334,-0.4 0.10666,3.2 1.44,5.04 3.62666,5.04 2.13334,0 3.44,-1.706667 3.41334,-4.506667 z m -4.08,-3.706666 c -0.69334,-2.506667 -2.32,-3.893334 -4.56,-3.893334 -2.24,0 -3.84,1.493334 -3.84,3.626667 0,0.08 0,0.266667 0.0267,0.48 -1.06666,-1.413333 -1.57333,-3.546667 -1.57333,-6.64 0,-2.613333 0.45333,-4.826666 1.36,-6.453333 0.82667,-1.4933333 2.37333,-2.3466666 4.29333,-2.3466666 2.02667,0 3.76,0.9866666 4.58667,2.6399999 0.77333,1.4933337 1.09333,3.3333337 1.09333,6.0799997 0,3.12 -0.37333,4.853333 -1.38666,6.506667 z m -1.86667,1.733333 c -0.8,0.426667 -1.46667,0.586667 -2.50667,0.586667 -1.76,0 -2.8,-0.853334 -2.8,-2.32 0,-1.573334 1.01334,-2.64 2.48,-2.64 1.89334,0 2.82667,1.466666 2.82667,4.373333 z"
       id="path19" />
    <path
       d="m 246.62388,25.315003 4.85333,-0.186667 v -1.146667 h -0.66666 c -1.54667,-0.05333 -1.68,-0.213333 -1.68,-1.946666 V 12.70167 l -5.01334,0.293333 v 1.146667 h 1.36 c 1.01334,0.02667 1.14667,0.186666 1.14667,1.333333 v 3.28 c 0,1.52 -0.16,2.426666 -0.56,3.28 -0.56,1.2 -1.62667,1.866666 -2.93333,1.866666 -0.82667,0 -1.52,-0.293333 -1.86667,-0.826666 -0.34667,-0.506667 -0.4,-0.773334 -0.4,-2.24 V 12.70167 l -4.66667,0.293333 v 1.146667 h 1.01334 c 1.01333,0.02667 1.14666,0.186666 1.14666,1.333333 v 5.76 c 0,1.36 0.10667,1.973333 0.50667,2.586666 0.72,1.093334 2,1.706667 3.6,1.706667 1.76,0 2.98667,-0.72 4.16,-2.426667 z"
       id="path21" />
    <path
       d="m 257.42383,12.70167 -5.01333,0.293333 v 1.146667 h 1.36 c 1.01333,0.02667 1.14666,0.186666 1.14666,1.333333 v 6.373333 1.253333 c -0.0267,0.4 -0.0533,0.56 -0.16,0.693334 -0.18666,0.24 -0.69333,0.346666 -1.84,0.373333 h -0.18666 v 0.96 h 6.90666 v -0.96 h -0.18666 c -1.78667,-0.05333 -2.02667,-0.186667 -2.02667,-1.146667 V 21.848336 Z M 256.1705,6.0616697 c -0.85334,0 -1.54667,0.6933334 -1.54667,1.5466667 0,0.8533333 0.69333,1.5466666 1.52,1.5466666 0.88,0 1.57333,-0.6933333 1.57333,-1.5466666 0,-0.8533333 -0.69333,-1.5466667 -1.54666,-1.5466667 z"
       id="path23" />
    <path
       d="m 270.65046,21.208336 c -0.85333,1.92 -1.76,2.693333 -3.14667,2.693333 -2.13333,0 -3.46666,-1.946666 -3.46666,-5.066666 0,-3.253333 1.30666,-5.386667 3.28,-5.386667 0.8,0 1.49333,0.373334 1.49333,0.8 0,0.08 -0.0267,0.16 -0.16,0.32 -0.42667,0.506667 -0.53333,0.773334 -0.53333,1.226667 0,0.88 0.66666,1.493333 1.6,1.493333 0.96,0 1.62666,-0.746667 1.62666,-1.813333 0,-1.813333 -1.78666,-3.173333 -4.16,-3.173333 -3.46666,0 -5.94666,2.826666 -5.94666,6.826666 0,3.786667 2.26666,6.4 5.57333,6.4 2.37333,0 3.73333,-1.093333 4.88,-3.92 z"
       id="path25" />
    <path
       d="M 277.15705,18.675003 V 5.4750031 l -4.93333,0.2933333 v 1.1466667 h 1.28 c 1.01333,0.026667 1.14667,0.1866666 1.14667,1.3333333 v 13.5999996 1.28 c -0.0267,0.373333 -0.0533,0.533333 -0.16,0.666667 -0.18667,0.24 -0.69334,0.346666 -1.84,0.373333 h -0.10667 v 0.96 h 6.74667 v -0.96 h -0.10667 c -1.78667,-0.05333 -2.02667,-0.186667 -2.02667,-1.146667 v -1.173333 -1.52 l 1.62667,-1.546667 3.17333,4.453334 c 0.13334,0.213333 0.18667,0.346666 0.18667,0.453333 0,0.373333 -0.29333,0.48 -1.17333,0.48 h -0.50667 v 0.96 h 7.04 v -0.96 c -1.49333,-0.133333 -2.02667,-0.453333 -3.12,-1.84 l -3.78667,-5.173333 1.2,-1.173333 c 1.57334,-1.52 2.69334,-2.106667 4.50667,-2.32 v -0.96 h -7.01333 v 0.96 h 0.82666 c 0.85334,0 1.25334,0.16 1.25334,0.506666 0,0.293334 -0.18667,0.613334 -0.61334,1.04 z"
       id="path27" />
    <path
       d="m 295.87701,5.8750031 v 1.2533333 h 0.48 c 1.52,0.026667 2.02667,0.1066666 2.24,0.3733333 0.16,0.24 0.16,0.2933333 0.16,1.6533333 v 12.693333 c 0,1.36 0,1.413333 -0.16,1.653333 -0.21333,0.266667 -0.72,0.373334 -2.24,0.373334 h -0.48 v 1.253333 h 9.68 c 4.61333,0 7.38667,-1.946667 7.38667,-5.226667 0,-2.666666 -1.68,-4.186666 -5.33334,-4.826666 1.28,-0.266667 1.86667,-0.506667 2.56,-1.013333 1.09334,-0.826667 1.76,-2.133334 1.76,-3.466667 0,-1.7333333 -1.06666,-3.4133333 -2.61333,-4.0799999 -0.96,-0.4266667 -2.29333,-0.64 -3.86667,-0.64 z m 5.86667,8.6666669 V 8.4616697 c 0,-1.04 0.34666,-1.3066667 1.76,-1.3333333 h 1.06666 c 1.22667,0 2.24,0.2133333 2.8,0.56 0.96,0.5866666 1.46667,1.7066666 1.46667,3.1999996 0,2.64 -1.28,3.653334 -4.72,3.653334 z m 0,1.253333 h 2.34666 c 4.08,0 5.57334,1.093333 5.57334,4.026666 0,1.706667 -0.58667,2.933334 -1.62667,3.44 -0.82667,0.426667 -1.94667,0.613334 -3.62667,0.613334 h -1.12 c -1.33333,0 -1.6,-0.266667 -1.54666,-1.68 z"
       id="path29" />
    <path
       d="m 319.61029,12.70167 -4.72,0.293333 v 1.146667 h 1.09334 c 1.01333,0.02667 1.14666,0.186666 1.14666,1.333333 v 6.373333 1.253333 c -0.0267,0.4 -0.0533,0.56 -0.16,0.693334 -0.18666,0.24 -0.72,0.346666 -1.86666,0.373333 h -0.10667 v 0.96 h 7.12 v -0.96 h -0.48 c -1.78667,-0.05333 -2.02667,-0.186667 -2.02667,-1.146667 v -1.173333 -0.266667 c 0.0267,-4.48 1.62667,-7.893333 3.70667,-7.999999 -0.37334,0.426666 -0.48,0.693333 -0.48,1.2 0,0.853333 0.61333,1.466666 1.46666,1.466666 0.98667,0 1.62667,-0.72 1.62667,-1.786666 0,-1.306667 -0.90667,-2.16 -2.32,-2.16 -1.68,0 -3.12,1.333333 -4,3.706666 z"
       id="path31" />
    <path
       d="m 332.7569,12.30167 c -3.28,0 -5.81334,2.906666 -5.81334,6.639999 0,3.653334 2.56,6.586667 5.76,6.586667 3.2,0 5.76,-2.933333 5.76,-6.613333 0,-3.653333 -2.56,-6.613333 -5.70666,-6.613333 z m 0,1.146666 c 1.86666,0 2.90666,1.946667 2.90666,5.466667 0,3.546666 -1.04,5.466666 -2.96,5.466666 -1.92,0 -2.96,-1.92 -2.96,-5.44 0,-3.626666 1.01334,-5.493333 3.01334,-5.493333 z"
       id="path33" />
    <path
       d="m 353.26349,21.688336 -2.61334,-6.853333 c -0.08,-0.186667 -0.10666,-0.346667 -0.10666,-0.56 0,-0.48 0.24,-0.613333 1.12,-0.613333 h 0.64 v -0.96 h -5.97334 v 0.96 h 0.45334 c 0.85333,0.02667 1.2,0.24 1.41333,0.986666 l 0.21333,0.693334 -2.34666,6.213333 -2.58667,-6.693333 c -0.0533,-0.186667 -0.10667,-0.426667 -0.10667,-0.586667 0,-0.453333 0.29334,-0.613333 1.09334,-0.613333 h 0.48 v -0.96 h -5.86667 v 0.96 h 0.48 c 0.74667,0.02667 1.09333,0.346666 1.38667,1.306666 l 4,10.56 h 0.93333 l 3.17333,-8.426667 3.25334,8.426667 h 0.82666 l 3.73334,-9.84 c 0.58666,-1.573333 0.98666,-2 1.97333,-2.026666 h 0.18667 v -0.96 h -5.04 v 0.96 h 0.45333 c 0.93333,0 1.30667,0.266666 1.30667,0.986666 0,0.266667 -0.08,0.613334 -0.21334,0.96 z"
       id="path35" />
    <path
       d="m 364.75681,12.70167 -4.61333,0.293333 v 1.146667 h 0.96 c 1.01333,0.02667 1.14666,0.186666 1.14666,1.333333 v 6.373333 0.64 0.613333 c -0.0267,0.4 -0.0533,0.56 -0.16,0.693334 -0.18666,0.24 -0.69333,0.346666 -1.84,0.373333 h -0.10666 v 0.96 h 6.74666 v -0.96 h -0.10666 c -1.78667,-0.05333 -2.02667,-0.186667 -2.02667,-1.146667 v -1.173333 -2.773333 c 0,-1.306667 0.18667,-2.506667 0.48,-3.12 0.56,-1.2 1.76,-2.026667 2.90667,-2.026667 0.69333,0 1.49333,0.373334 1.89333,0.933334 0.4,0.586666 0.58667,1.386666 0.58667,2.666666 v 4.32 1.253333 c -0.0267,0.4 -0.0533,0.56 -0.16,0.693334 -0.18667,0.24 -0.72,0.346666 -1.86667,0.373333 h -0.10667 v 0.96 h 6.74667 v -0.96 h -0.10667 c -1.76,-0.05333 -2,-0.186667 -2,-1.146667 v -1.173333 -4.186667 c 0,-1.919999 -0.08,-2.399999 -0.56,-3.306666 -0.66666,-1.28 -2,-2.053333 -3.6,-2.053333 -1.73333,0 -3.04,0.8 -4.21333,2.56 z"
       id="path37" />
    <path
       d="m 176.1707,39.208339 h -15.86667 v 1.253333 h 0.48 c 1.52,0.02667 2.02667,0.106667 2.24,0.373334 0.16,0.24 0.16,0.293333 0.16,1.653333 v 12.693333 c 0,1.36 0,1.413333 -0.16,1.653333 -0.21333,0.266667 -0.72,0.373334 -2.24,0.373334 h -0.48 v 1.253333 h 9.14667 v -1.253333 h -0.88 c -1.52,0 -2.02667,-0.106667 -2.24,-0.373334 -0.16,-0.24 -0.16,-0.32 -0.16,-1.653333 v -6.053333 h 0.53333 c 2.74667,-0.106667 3.73334,0.88 3.84,3.84 h 1.25334 v -8.746667 h -1.25334 c -0.16,2.613333 -1.2,3.626667 -3.73333,3.653333 h -0.64 v -6.079999 c -0.0267,-1.12 0.24,-1.306667 1.68,-1.333334 h 1.22667 c 4.37333,-0.02667 5.46666,0.96 6.29333,5.546667 h 1.17333 z"
       id="path39" />
    <path
       d="m 182.94402,45.635005 c -3.28,0 -5.81334,2.906667 -5.81334,6.64 0,3.653334 2.56,6.586667 5.76,6.586667 3.2,0 5.76,-2.933333 5.76,-6.613333 0,-3.653334 -2.56,-6.613334 -5.70666,-6.613334 z m 0,1.146667 c 1.86666,0 2.90666,1.946667 2.90666,5.466667 0,3.546666 -1.04,5.466666 -2.96,5.466666 -1.92,0 -2.96,-1.92 -2.96,-5.44 0,-3.626666 1.01334,-5.493333 3.01334,-5.493333 z"
       id="path41" />
    <path
       d="m 197.10394,51.661672 3.04,-3.546667 c 0.66667,-0.773333 1.28,-1.12 2,-1.12 h 0.24 v -0.96 h -5.52 v 0.96 h 0.50667 c 0.8,0 1.2,0.186667 1.2,0.586667 0,0.266667 -0.18667,0.64 -0.53334,1.066667 l -1.68,2.026666 -2.05333,-2.613333 c -0.16,-0.213333 -0.26667,-0.426667 -0.26667,-0.586667 0,-0.346666 0.34667,-0.48 1.17334,-0.48 h 0.37333 v -0.96 h -6.32 v 0.96 c 0.98667,0.08 1.36,0.32 2.21333,1.44 l 3.25334,4.08 -3.06667,3.573334 c -0.90667,1.013333 -1.68,1.44 -2.4,1.413333 h -0.16 v 0.96 h 5.62667 v -0.96 h -0.4 c -0.61334,0 -0.74667,-0.02667 -0.93334,-0.106667 -0.21333,-0.133333 -0.37333,-0.373333 -0.37333,-0.613333 0,-0.186667 0.08,-0.426667 0.21333,-0.586667 l 2.24,-2.666666 2.02667,2.693333 c 0.18667,0.266667 0.34667,0.613333 0.34667,0.8 0,0.346667 -0.4,0.48 -1.41334,0.48 h -0.18666 v 0.96 h 6.72 v -0.96 h -0.18667 c -0.93333,0 -1.54667,-0.346667 -2.32,-1.306667 z"
       id="path43" />
    <path
       d="m 216.17057,40.461672 h 0.48 c 1.52,0.02667 2.02667,0.106667 2.24,0.373334 0.16,0.24 0.16,0.293333 0.16,1.653333 v 8.586666 c 0,2.346667 -0.08,3.413334 -0.34667,4.24 -0.50666,1.493334 -1.6,2.293334 -3.14666,2.293334 -1.12,0 -2.16,-0.453334 -2.72,-1.173334 -0.29334,-0.373333 -0.50667,-0.906666 -0.50667,-1.226666 0,-0.24 0.13333,-0.426667 0.32,-0.426667 h 0.08 c 0.45333,0.106667 0.66667,0.133333 0.98667,0.133333 0.96,0 1.68,-0.826666 1.68,-1.92 0,-1.12 -0.82667,-1.92 -2,-1.92 -1.54667,0 -2.66667,1.36 -2.66667,3.253334 0,1.28 0.58667,2.586666 1.54667,3.386666 0.90666,0.773333 2.13333,1.146667 3.73333,1.146667 2.37333,0 4.08,-0.773333 5.01333,-2.266667 0.69334,-1.066666 0.98667,-2.666666 0.98667,-5.28 v -8.826666 c 0,-1.36 0,-1.413333 0.18667,-1.653333 0.18666,-0.266667 0.69333,-0.346667 2.21333,-0.373334 h 0.50667 v -1.253333 h -8.74667 z"
       id="path45" />
    <path
       d="m 236.41056,58.648338 4.85334,-0.186666 v -1.146667 h -0.66667 c -1.54667,-0.05333 -1.68,-0.213333 -1.68,-1.946666 v -9.333334 l -5.01333,0.293334 v 1.146666 h 1.36 c 1.01333,0.02667 1.14666,0.186667 1.14666,1.333334 v 3.28 c 0,1.52 -0.16,2.426666 -0.56,3.28 -0.56,1.2 -1.62666,1.866666 -2.93333,1.866666 -0.82667,0 -1.52,-0.293333 -1.86667,-0.826666 -0.34666,-0.506667 -0.4,-0.773334 -0.4,-2.24 v -8.133334 l -4.66666,0.293334 v 1.146666 h 1.01333 c 1.01333,0.02667 1.14667,0.186667 1.14667,1.333334 v 5.76 c 0,1.36 0.10666,1.973333 0.50666,2.586666 0.72,1.093334 2,1.706667 3.6,1.706667 1.76,0 2.98667,-0.72 4.16,-2.426667 z"
       id="path47" />
    <path
       d="m 247.07718,46.035005 -4.74667,0.293334 v 1.146666 h 1.09333 c 1.01334,0.02667 1.14667,0.186667 1.14667,1.333334 v 6.373333 1.04 0.213333 c -0.0267,0.4 -0.0533,0.56 -0.16,0.693334 -0.18667,0.24 -0.69333,0.346666 -1.84,0.373333 h -0.10667 v 0.96 h 6.72 v -0.96 h -0.10666 c -1.76,-0.05333 -2,-0.186667 -2,-1.173333 v -1.146667 -3.786667 c 0,-2.373333 1.30666,-4.133333 3.04,-4.133333 1.52,0 2.29333,1.093333 2.29333,3.253333 v 4.666667 1.28 c -0.0267,0.346667 -0.0533,0.533333 -0.18667,0.666667 -0.16,0.24 -0.69333,0.346666 -1.84,0.373333 h -0.10666 v 0.96 h 6.74666 v -0.96 h -0.10666 c -1.76,-0.05333 -2,-0.186667 -2,-1.146667 v -1.173333 -3.546667 c 0,-2.666666 1.2,-4.373333 3.06666,-4.373333 1.52,0 2.26667,1.146667 2.26667,3.546667 v 4.373333 1.253333 c -0.0267,0.373334 -0.0533,0.56 -0.18667,0.693334 -0.16,0.24 -0.69333,0.346666 -1.84,0.373333 h -0.10666 v 0.96 h 6.74666 v -0.96 h -0.10666 c -1.76,-0.05333 -2,-0.186667 -2,-1.173333 v -1.146667 -4.906667 c 0,-1.653333 -0.16,-2.213333 -0.85334,-3.12 -0.77333,-0.986666 -1.86666,-1.52 -3.14666,-1.52 -1.73334,0 -3.01334,0.826667 -4.16,2.666667 -0.45334,-1.6 -1.89334,-2.666667 -3.68,-2.666667 -1.62667,0 -2.8,0.773334 -3.84,2.453334 z"
       id="path49" />
    <path
       d="m 269.98382,46.035005 -4.61333,0.293334 v 1.146666 h 0.96 c 1.01334,0.02667 1.14667,0.186667 1.14667,1.333334 v 11.759999 1.28 c -0.0267,0.373334 -0.0533,0.533334 -0.16,0.666667 -0.18667,0.24 -0.69333,0.346667 -1.84,0.373333 h -0.10667 v 0.96 h 6.93333 v -0.96 h -0.29333 c -1.78667,-0.05333 -2.02667,-0.186666 -2.02667,-1.146666 v -1.173334 -3.866666 c 0.88,1.546667 1.86667,2.16 3.52,2.16 1.62667,0 2.96,-0.693333 3.92,-2 0.93334,-1.28 1.46667,-2.933333 1.46667,-4.666667 0,-1.733333 -0.53333,-3.36 -1.52,-4.64 -0.98667,-1.28 -2.21333,-1.92 -3.70667,-1.92 -1.65333,0 -2.74666,0.693334 -3.68,2.293334 z m 3.2,1.04 c 1.84,0 2.90667,1.84 2.90667,4.96 0,3.44 -1.06667,5.386667 -2.98667,5.386667 -1.92,0 -3.14666,-1.973333 -3.14666,-5.04 0,-3.333333 1.2,-5.306667 3.22666,-5.306667 z"
       id="path51" />
    <path
       d="m 290.33048,45.741672 h -0.93333 l -0.77334,0.96 c -0.96,-0.746667 -1.92,-1.066667 -3.25333,-1.066667 -2.34667,0 -3.89333,1.52 -3.89333,3.866667 0,1.04 0.34666,1.92 0.93333,2.453333 0.61333,0.56 1.22667,0.826667 2.82667,1.2 l 1.41333,0.32 c 2.10667,0.506667 2.85333,1.04 2.85333,2.106667 0,1.253333 -1.09333,2.133333 -2.64,2.133333 -2.26666,0 -3.86666,-1.44 -4.50666,-4.106666 h -1.06667 v 5.039999 h 0.93333 l 0.93334,-1.093333 c 1.09333,0.88 2.29333,1.306667 3.65333,1.306667 2.61333,0 4.34667,-1.626667 4.34667,-4.106667 0,-1.173333 -0.37334,-2.08 -1.12,-2.693333 -0.64,-0.56 -1.17334,-0.773333 -2.8,-1.12 l -1.33334,-0.293333 c -1.46666,-0.32 -1.46666,-0.32 -1.94666,-0.586667 -0.58667,-0.266667 -0.93334,-0.826667 -0.93334,-1.413333 0,-1.093334 1.01334,-1.84 2.48,-1.84 1.01334,0 1.84,0.346666 2.58667,1.066666 0.58667,0.586667 0.88,1.12 1.30667,2.346667 h 0.93333 z"
       id="path53" />
    <path
       d="m 310.17046,38.808339 c -2.37333,0 -4.4,0.746667 -6.02667,2.24 -2.05333,1.893333 -3.25333,4.773333 -3.25333,7.813333 0,2.986667 1.22667,5.893333 3.25333,7.76 1.6,1.466667 3.62667,2.24 5.92,2.24 5.22667,0 9.17334,-4.32 9.17334,-10.026667 0,-5.653333 -3.94667,-10.026666 -9.06667,-10.026666 z m -0.0267,1.253333 c 1.78667,0 3.28,0.826667 4.24,2.293334 0.98667,1.573333 1.33334,3.199999 1.33334,6.479999 0,3.253334 -0.34667,4.88 -1.33334,6.48 -0.96,1.493334 -2.42666,2.293334 -4.32,2.293334 -1.89333,0 -3.36,-0.773334 -4.32,-2.293334 -1.01333,-1.6 -1.33333,-3.226666 -1.33333,-6.533333 0,-3.226667 0.34667,-4.826666 1.33333,-6.426666 0.98667,-1.546667 2.4,-2.293334 4.4,-2.293334 z"
       id="path55" />
    <path
       d="m 328.5704,55.235005 -3.04,-7.04 c -0.08,-0.213333 -0.13333,-0.426666 -0.13333,-0.586666 0,-0.453334 0.34667,-0.613334 1.44,-0.613334 h 0.37333 v -0.96 h -6.29333 v 0.96 h 0.21333 c 1.01334,0 1.38667,0.266667 1.76,1.146667 l 4.58667,10.72 h 0.93333 l 3.78667,-9.36 c 0.74667,-1.813333 1.38667,-2.426667 2.48,-2.506667 h 0.10667 v -0.96 h -5.33334 v 0.96 h 0.37334 c 0.93333,0 1.44,0.32 1.44,0.933334 0,0.32 -0.08,0.72 -0.24,1.12 z"
       id="path57" />
    <path
       d="m 346.7837,52.461672 c 0.0267,-4 -2.24,-6.826667 -5.49334,-6.826667 -3.41333,0 -5.97333,2.96 -5.97333,6.96 0,3.76 2.42667,6.266667 6.02667,6.266667 2.56,0 4.34666,-1.253333 5.44,-3.786667 l -0.93334,-0.506666 c -1.09333,2.053333 -2.21333,2.853333 -4,2.853333 -1.36,0 -2.34666,-0.56 -3.04,-1.76 -0.48,-0.8 -0.69333,-1.733333 -0.66666,-3.2 z m -8.61334,-1.146667 c 0,-0.826666 0.10667,-1.413333 0.37334,-2.16 0.56,-1.6 1.41333,-2.373333 2.72,-2.373333 1.6,0 2.66666,1.413333 2.66666,3.573333 0,0.746667 -0.24,0.96 -1.09333,0.96 z"
       id="path59" />
    <path
       d="m 352.99698,46.035005 -4.72,0.293334 v 1.146666 h 1.09333 c 1.01334,0.02667 1.14667,0.186667 1.14667,1.333334 v 6.373333 1.253333 c -0.0267,0.4 -0.0533,0.56 -0.16,0.693334 -0.18667,0.24 -0.72,0.346666 -1.86667,0.373333 h -0.10666 v 0.96 h 7.12 v -0.96 h -0.48 c -1.78667,-0.05333 -2.02667,-0.186667 -2.02667,-1.146667 v -1.173333 -0.266667 c 0.0267,-4.48 1.62667,-7.893333 3.70667,-8 -0.37334,0.426667 -0.48,0.693334 -0.48,1.2 0,0.853334 0.61333,1.466667 1.46666,1.466667 0.98667,0 1.62667,-0.72 1.62667,-1.786667 0,-1.306666 -0.90667,-2.16 -2.32,-2.16 -1.68,0 -3.12,1.333334 -4,3.706667 z"
       id="path61" />
    <path
       d="m 176.4107,72.541675 h -15.97333 l -0.4,7.413333 h 1.14666 c 0.18667,-1.333333 0.4,-2.346667 0.72,-3.2 0.69334,-1.973333 1.97334,-2.96 3.78667,-2.96 0.88,0 1.25333,0.293333 1.25333,0.96 v 13.76 c 0,1.36 0,1.413333 -0.16,1.653333 -0.21333,0.266667 -0.72,0.373333 -2.24,0.373333 h -0.69333 v 1.253334 h 9.14667 v -1.253334 h -0.69334 c -1.49333,0 -2,-0.106666 -2.21333,-0.373333 -0.16,-0.24 -0.16,-0.293333 -0.16,-1.653333 v -13.76 c 0,-0.666667 0.37333,-0.96 1.25333,-0.96 1.62667,0 2.93334,0.906667 3.6,2.506667 0.4,0.986666 0.66667,2.133333 0.88,3.653333 h 1.14667 z"
       id="path63" />
    <path
       d="m 183.05068,72.141675 -4.93333,0.293333 v 1.146667 h 1.28 c 1.01333,0.02667 1.14666,0.186666 1.14666,1.333333 v 13.6 0.64 0.64 c -0.0267,0.373333 -0.0533,0.533333 -0.16,0.666666 -0.18666,0.24 -0.69333,0.346667 -1.84,0.373334 h -0.10666 v 0.96 h 6.74666 v -0.96 h -0.10666 c -1.78667,-0.05333 -2.02667,-0.186667 -2.02667,-1.146667 v -1.173333 -2.773333 c 0,-1.306667 0.18667,-2.506667 0.48,-3.12 0.58667,-1.2 1.76,-2.026667 2.90667,-2.026667 0.69333,0 1.49333,0.4 1.86666,0.933333 0.42667,0.586667 0.61334,1.386667 0.61334,2.693334 v 4.293333 1.28 c -0.0267,0.373333 -0.0533,0.533333 -0.16,0.666666 -0.18667,0.24 -0.72,0.346667 -1.86667,0.373334 h -0.10667 v 0.96 h 6.74667 v -0.96 h -0.10667 c -1.76,-0.05333 -2,-0.186667 -2,-1.146667 v -1.173333 -4.186667 c 0,-1.92 -0.08,-2.4 -0.56,-3.306666 -0.66666,-1.306667 -2,-2.053334 -3.6,-2.053334 -1.73333,0 -3.01333,0.773334 -4.21333,2.56 z"
       id="path65" />
    <path
       d="m 206.41063,85.795008 c 0.0267,-4 -2.24,-6.826667 -5.49334,-6.826667 -3.41333,0 -5.97333,2.96 -5.97333,6.96 0,3.76 2.42667,6.266667 6.02667,6.266667 2.56,0 4.34666,-1.253334 5.44,-3.786667 l -0.93334,-0.506667 c -1.09333,2.053334 -2.21333,2.853334 -4,2.853334 -1.36,0 -2.34666,-0.56 -3.04,-1.76 -0.48,-0.8 -0.69333,-1.733334 -0.66666,-3.2 z m -8.61334,-1.146667 c 0,-0.826666 0.10667,-1.413333 0.37334,-2.16 0.56,-1.6 1.41333,-2.373333 2.72,-2.373333 1.6,0 2.66666,1.413333 2.66666,3.573333 0,0.746667 -0.24,0.96 -1.09333,0.96 z"
       id="path67" />
    <path
       d="m 231.98391,84.488341 h -1.17334 c -0.88,4.8 -2.08,5.973333 -6.21333,6.053333 h -1.12 c -1.6,-0.05333 -2,-0.32 -1.92,-1.28 V 75.821675 c 0,-1.333334 0,-1.413334 0.16,-1.653334 0.21333,-0.266666 0.72,-0.346666 2.24,-0.373333 h 0.48 v -1.253333 h -8.74667 v 1.253333 h 0.48 c 1.52,0.02667 2.02667,0.106667 2.24,0.373333 0.16,0.24 0.16,0.293334 0.16,1.653334 v 12.693333 c 0,1.36 0,1.413333 -0.16,1.653333 -0.21333,0.266667 -0.72,0.373333 -2.24,0.373333 h -0.48 v 1.253334 h 15.73334 z"
       id="path69" />
    <path
       d="m 244.70389,83.208341 c 0,-1.68 -0.29333,-2.533333 -1.06667,-3.173333 -0.88,-0.72 -2.18666,-1.066667 -3.89333,-1.066667 -3.01333,0 -5.2,1.413334 -5.2,3.36 0,0.986667 0.61334,1.626667 1.54667,1.626667 0.85333,0 1.44,-0.56 1.44,-1.36 0,-0.346667 -0.13333,-0.72 -0.4,-1.093333 -0.16,-0.186667 -0.18667,-0.24 -0.18667,-0.373334 0,-0.533333 1.06667,-1.013333 2.34667,-1.013333 0.85333,0 1.78666,0.266667 2.21333,0.666667 0.50667,0.426666 0.69333,1.066666 0.69333,2.266666 v 1.04 c -2.77333,0.48 -3.65333,0.693334 -4.95999,1.2 -2.32,0.853334 -3.41334,2.08 -3.41334,3.786667 0,1.92 1.49334,3.12 3.86667,3.12 1.84,0 3.49333,-0.746667 4.64,-2.106667 0.42666,1.36 1.09333,1.893333 2.34666,1.893333 1.2,0 2.45334,-0.773333 2.45334,-1.546666 0,-0.186667 -0.10667,-0.32 -0.26667,-0.32 -0.10667,0 -0.21333,0.02667 -0.4,0.106666 -0.37333,0.16 -0.53333,0.186667 -0.74667,0.186667 -0.74666,0 -1.01333,-0.48 -1.01333,-1.84 z m -2.50667,3.253333 c 0,1.6 -0.08,1.973334 -0.53333,2.666667 -0.66667,0.986667 -1.86667,1.653333 -3.04,1.653333 -1.22666,0 -2.10666,-0.88 -2.10666,-2.08 0,-1.12 0.56,-1.92 1.73333,-2.479999 0.82666,-0.373334 1.86666,-0.64 3.94666,-0.986667 z"
       id="path71" />
    <path
       d="m 259.05052,79.368341 h -9.62667 l -0.24,4.506667 h 1.06667 c 0.21333,-2.373333 1.25333,-3.386667 3.38666,-3.36 h 2.32 l -7.28,10.32 v 0.96 h 10.37334 l 0.18666,-4.773334 h -1.06666 c -0.26667,2.613334 -1.30667,3.653334 -3.68,3.626667 h -2.72 l 7.28,-10.32 z"
       id="path73" />
    <path
       d="m 268.46382,88.408341 -2.93333,-6.853333 c -0.10667,-0.266667 -0.16,-0.4 -0.16,-0.533333 0,-0.506667 0.32,-0.693334 1.22666,-0.693334 h 0.56 v -0.96 h -6.34666 v 0.96 h 0.29333 c 0.90667,0.02667 1.25333,0.293334 1.81333,1.44 l 4.34667,9.84 -0.45333,0.933333 c -0.96,2.026667 -2.21334,3.44 -3.06667,3.44 -0.24,0 -0.42667,-0.106666 -0.42667,-0.266666 0,-0.05333 0.0267,-0.133334 0.0533,-0.24 0.08,-0.24 0.13333,-0.48 0.13333,-0.693334 0,-0.693333 -0.56,-1.2 -1.36,-1.2 -0.93333,0 -1.6,0.693334 -1.6,1.653334 0,1.2 1.01333,2.053333 2.42667,2.053333 1.41333,0 2.61333,-0.693333 3.68,-2.133333 0.82666,-1.093334 1.36,-2.213334 2.53333,-5.12 l 3.04,-7.546667 c 0.61333,-1.546666 1.2,-2.133333 2.24,-2.16 h 0.16 v -0.96 h -5.33333 v 0.96 h 0.42666 c 1.01334,0 1.44,0.293334 1.44,0.986667 0,0.293333 -0.08,0.613333 -0.26666,1.066667 z"
       id="path75" />
    <path
       d="m 282.97045,91.795008 h 8.96 c 2.37334,0 4.18667,-0.373334 5.6,-1.173334 2.69334,-1.52 4.18667,-4.559999 4.18667,-8.559999 0,-3.68 -1.33333,-6.56 -3.78667,-8.16 -1.46666,-0.933334 -3.44,-1.36 -6.48,-1.36 h -8.48 v 1.253333 h 0.50667 c 1.49333,0.02667 2,0.106667 2.21333,0.373333 0.16,0.24 0.16,0.293334 0.16,1.653334 v 12.693333 c 0,1.36 0,1.413333 -0.16,1.653333 -0.21333,0.266667 -0.72,0.346667 -2.21333,0.373333 h -0.50667 z m 7.38667,-1.253334 c -1.36,0 -1.52,-0.16 -1.52,-1.466666 V 75.288341 c 0,-1.306666 0.18667,-1.493333 1.52,-1.493333 h 1.38667 c 4.56,0 6.45333,2.48 6.45333,8.373333 0,5.973333 -1.70667,8.373333 -6.02667,8.373333 z"
       id="path77" />
    <path
       d="m 309.71709,78.968341 c -3.28,0 -5.81334,2.906667 -5.81334,6.64 0,3.653333 2.56,6.586667 5.76,6.586667 3.2,0 5.76,-2.933334 5.76,-6.613333 0,-3.653334 -2.56,-6.613334 -5.70666,-6.613334 z m 0,1.146667 c 1.86666,0 2.90666,1.946667 2.90666,5.466667 0,3.546666 -1.04,5.466666 -2.96,5.466666 -1.92,0 -2.96,-1.92 -2.96,-5.44 0,-3.626666 1.01334,-5.493333 3.01334,-5.493333 z"
       id="path79" />
    <path
       d="m 321.37031,89.821674 c -1.46666,-0.02667 -1.54666,-0.05333 -1.86666,-0.24 -0.18667,-0.106666 -0.32,-0.4 -0.32,-0.693333 0,-0.8 0.72,-1.146667 2.50666,-1.2 2.50667,-0.05333 2.90667,-0.106667 3.81334,-0.506667 1.6,-0.72 2.48,-2.106666 2.48,-3.866666 0,-1.066667 -0.24,-1.733333 -0.96,-2.613333 0.45333,-0.48 0.69333,-0.64 0.90666,-0.64 0.13334,0 0.21334,0.08 0.26667,0.373333 0.10667,0.64 0.53333,0.986667 1.2,0.986667 0.69333,0 1.2,-0.56 1.2,-1.28 0,-0.906667 -0.72,-1.546667 -1.76,-1.546667 -0.85333,0 -1.33333,0.266667 -2.56,1.386667 -1.12,-0.746667 -1.97333,-1.013334 -3.30667,-1.013334 -3.17333,0 -5.25333,1.76 -5.25333,4.426667 0,1.573333 0.85333,2.906667 2.24,3.573333 -1.78667,0.4 -2.53333,1.2 -2.53333,2.666667 0,1.173333 0.53333,1.866666 1.78666,2.293333 -1.65333,0.613333 -2.45333,1.44 -2.45333,2.533333 0,0.8 0.53333,1.546667 1.38667,2 1.04,0.533334 2.32,0.746667 4.24,0.746667 4.45333,0 6.66666,-1.413333 6.66666,-4.213333 0,-1.333334 -0.61333,-2.4 -1.57333,-2.8 -0.72,-0.266667 -1.57333,-0.373334 -3.38667,-0.373334 z m 1.57334,-9.706666 c 1.65333,0 2.58666,1.146667 2.58666,3.226667 0,2.08 -1.01333,3.333333 -2.69333,3.333333 -1.65333,0 -2.69333,-1.253333 -2.69333,-3.253333 0,-2.106667 1.01333,-3.306667 2.8,-3.306667 z m -0.24,12 c 2.21333,0 2.37333,0 2.74666,0.05333 1.09334,0.106667 1.73334,0.693333 1.73334,1.546667 0,1.52 -1.73334,2.4 -4.69334,2.4 -2.26666,0 -3.52,-0.666667 -3.52,-1.866667 0,-0.88 0.48,-1.466667 1.76,-2.133333 z"
       id="path81" />
  </g>
</svg>
