<?xml version="1.0" encoding="UTF-8" standalone="no"?>
<svg
   xmlns:dc="http://purl.org/dc/elements/1.1/"
   xmlns:cc="http://creativecommons.org/ns#"
   xmlns:rdf="http://www.w3.org/1999/02/22-rdf-syntax-ns#"
   xmlns:svg="http://www.w3.org/2000/svg"
   xmlns="http://www.w3.org/2000/svg"
   viewBox="159.797 4.86167 209.866 93.3333"
   version="1.1"
   id="svg2">
  <metadata
     id="metadata11">
    <rdf:RDF>
      <cc:Work
         rdf:about="">
        <dc:format>image/svg+xml</dc:format>
        <dc:type
           rdf:resource="http://purl.org/dc/dcmitype/StillImage" />
      </cc:Work>
    </rdf:RDF>
  </metadata>
  <defs
     id="defs9" />
  <g
     aria-label="The Quick BrownFox Jumps OverThe Lazy Dog"
     id="text4521"
     style="font-style:normal;font-variant:normal;font-weight:normal;font-stretch:normal;font-size:26.6667px;line-height:125%;font-family:'Noto Sans', sans-serif;font-variant-ligatures:normal;font-variant-caps:normal;font-variant-numeric:normal;font-feature-settings:normal;text-align:left;letter-spacing:0px;word-spacing:0px;writing-mode:lr-tb;text-anchor:start;fill:#000000;fill-opacity:1;stroke:none;stroke-width:1px;stroke-linecap:butt;stroke-linejoin:miter;stroke-opacity:1">
    <path
       d="m 168.14403,25.128336 h -2.4 V 8.195003 h -5.94666 V 6.0883364 h 14.26666 V 8.195003 h -5.92 z"
       id="path13" />
    <path
       d="m 178.97069,10.808336 q 0,1.066667 -0.13333,2 h 0.16 q 0.69333,-1.093333 1.86667,-1.653333 1.2,-0.56 2.58666,-0.56 2.61334,0 3.92,1.253333 1.30667,1.226667 1.30667,3.973334 v 9.306666 h -2.32 V 15.98167 q 0,-3.44 -3.2,-3.44 -2.4,0 -3.30667,1.36 -0.88,1.333333 -0.88,3.839999 v 7.386667 h -2.34666 V 4.8616698 h 2.34666 z"
       id="path15" />
    <path
       d="m 198.62398,10.568336 q 1.84,0 3.14666,0.8 1.33334,0.8 2.02667,2.266667 0.72,1.44 0.72,3.386666 v 1.413334 h -9.78667 q 0.0533,2.426666 1.22667,3.706666 1.2,1.253334 3.33333,1.253334 1.36,0 2.4,-0.24 1.06667,-0.266667 2.18667,-0.746667 v 2.053333 q -1.09333,0.48 -2.16,0.693334 -1.06667,0.24 -2.53333,0.24 -2.02667,0 -3.6,-0.826667 -1.54667,-0.826667 -2.42667,-2.453333 -0.85333,-1.653334 -0.85333,-4.026667 0,-2.346666 0.77333,-4.026666 0.8,-1.68 2.21333,-2.586667 1.44,-0.906667 3.33334,-0.906667 z m -0.0267,1.92 q -1.68,0 -2.66667,1.093334 -0.96,1.066666 -1.14666,2.986666 h 7.28 q -0.0267,-1.813333 -0.85334,-2.933333 -0.82666,-1.146667 -2.61333,-1.146667 z"
       id="path17" />
    <path
       d="m 232.01058,15.58167 q 0,3.493333 -1.41334,5.946666 -1.38666,2.453333 -4.13333,3.386667 l 4.56,4.746666 h -3.44 l -3.68,-4.293333 q -0.16,0 -0.34667,0 -0.16,0.02667 -0.32,0.02667 -2.96,0 -4.93333,-1.226667 -1.94667,-1.226667 -2.90667,-3.44 -0.96,-2.213333 -0.96,-5.173333 0,-2.933333 0.96,-5.12 0.96,-2.1866666 2.90667,-3.4133333 1.97333,-1.2266666 4.96,-1.2266666 2.85333,0 4.8,1.2266666 1.94667,1.2 2.93333,3.4133333 1.01334,2.186667 1.01334,5.146667 z m -15.04,0 q 0,3.599999 1.52,5.679999 1.52,2.053334 4.74666,2.053334 3.25334,0 4.74667,-2.053334 1.49333,-2.08 1.49333,-5.679999 0,-3.6 -1.49333,-5.626667 -1.49333,-2.0533333 -4.72,-2.0533333 -3.22667,0 -4.77333,2.0533333 -1.52,2.026667 -1.52,5.626667 z"
       id="path19" />
    <path
       d="m 247.85052,10.835003 v 14.293333 h -1.92 l -0.34666,-1.893333 h -0.10667 q -0.69333,1.12 -1.92,1.653333 -1.22667,0.506667 -2.61333,0.506667 -2.58667,0 -3.89333,-1.226667 -1.30667,-1.253333 -1.30667,-3.973333 v -9.36 h 2.37333 v 9.2 q 0,3.413333 3.17333,3.413333 2.37334,0 3.28,-1.333333 0.93334,-1.333334 0.93334,-3.84 v -7.44 z"
       id="path21" />
    <path
       d="m 253.58381,5.4750031 q 0.53333,0 0.93333,0.3733333 0.42667,0.3466667 0.42667,1.12 0,0.7466666 -0.42667,1.12 -0.4,0.3733333 -0.93333,0.3733333 -0.58667,0 -0.98667,-0.3733333 -0.4,-0.3733334 -0.4,-1.12 0,-0.7733333 0.4,-1.12 0.4,-0.3733333 0.98667,-0.3733333 z m 1.14666,5.3599999 v 14.293333 h -2.34666 V 10.835003 Z"
       id="path23" />
    <path
       d="m 264.99713,25.395003 q -1.89333,0 -3.38667,-0.773334 -1.46666,-0.773333 -2.32,-2.4 -0.82666,-1.626666 -0.82666,-4.16 0,-2.639999 0.88,-4.293333 0.88,-1.653333 2.37333,-2.426666 1.52,-0.773334 3.44,-0.773334 1.09333,0 2.10667,0.24 1.01333,0.213334 1.65333,0.533334 l -0.72,1.946666 q -0.64,-0.24 -1.49333,-0.453333 -0.85334,-0.213333 -1.6,-0.213333 -4.21334,0 -4.21334,5.413333 0,2.586666 1.01334,3.973333 1.04,1.36 3.06666,1.36 1.17334,0 2.05334,-0.24 0.90666,-0.24 1.65333,-0.586667 v 2.08 q -0.72,0.373334 -1.6,0.56 -0.85333,0.213334 -2.08,0.213334 z"
       id="path25" />
    <path
       d="m 274.38379,15.448336 q 0,0.426667 -0.0533,1.12 -0.0267,0.693333 -0.0533,1.2 h 0.10667 q 0.16,-0.213333 0.48,-0.613333 0.32,-0.4 0.64,-0.8 0.34666,-0.426667 0.58666,-0.693333 l 4.56,-4.826667 h 2.74667 l -5.78667,6.106666 6.18667,8.186667 h -2.82667 l -4.96,-6.666667 -1.62666,1.413334 v 5.253333 h -2.32 V 4.8616698 h 2.32 z"
       id="path27" />
    <path
       d="m 298.99703,6.0883364 q 3.57334,0 5.38667,1.0666666 1.84,1.04 1.84,3.653333 0,1.68 -0.93333,2.8 -0.93334,1.093334 -2.69334,1.413334 v 0.133333 q 1.2,0.186667 2.16,0.693333 0.98667,0.506667 1.54667,1.44 0.56,0.933333 0.56,2.426667 0,2.586666 -1.78667,4 -1.76,1.413333 -4.82666,1.413333 h -6.69334 V 6.0883364 Z m 0.48,8.1066666 q 2.45334,0 3.36,-0.773333 0.90667,-0.8 0.90667,-2.346667 0,-1.5733333 -1.12,-2.24 -1.09333,-0.6933333 -3.52,-0.6933333 h -3.14667 v 6.0533333 z m -3.52,2 v 6.906666 h 3.84 q 2.53334,0 3.52,-0.986666 0.98667,-0.986667 0.98667,-2.586667 0,-1.493333 -1.04,-2.4 -1.01333,-0.933333 -3.65333,-0.933333 z"
       id="path29" />
    <path
       d="m 317.23703,10.568336 q 0.4,0 0.85333,0.05333 0.48,0.02667 0.82667,0.106666 l -0.29333,2.16 q -0.34667,-0.08 -0.77334,-0.133333 -0.4,-0.05333 -0.77333,-0.05333 -1.09333,0 -2.05333,0.613333 -0.96,0.586667 -1.54667,1.68 -0.56,1.066667 -0.56,2.506666 v 7.626667 h -2.34667 V 10.835003 h 1.92 l 0.26667,2.613333 h 0.10667 q 0.69333,-1.173333 1.78666,-2.026666 1.09334,-0.853334 2.58667,-0.853334 z"
       id="path31" />
    <path
       d="m 333.47696,17.955003 q 0,3.546666 -1.81333,5.493333 -1.78667,1.946667 -4.85333,1.946667 -1.89334,0 -3.38667,-0.853334 -1.46667,-0.88 -2.32,-2.533333 -0.85333,-1.68 -0.85333,-4.053333 0,-3.546667 1.78666,-5.466667 1.78667,-1.92 4.85334,-1.92 1.94666,0 3.41333,0.88 1.49333,0.853334 2.32,2.506667 0.85333,1.626667 0.85333,4 z m -10.8,0 q 0,2.533333 0.98667,4.026666 1.01333,1.466667 3.2,1.466667 2.16,0 3.17333,-1.466667 1.01334,-1.493333 1.01334,-4.026666 0,-2.533333 -1.01334,-3.973333 -1.01333,-1.44 -3.2,-1.44 -2.18666,0 -3.17333,1.44 -0.98667,1.44 -0.98667,3.973333 z"
       id="path33" />
    <path
       d="m 345.87694,17.048336 q -0.34667,-1.093333 -0.61333,-2.133333 -0.24,-1.066667 -0.37334,-1.653333 h -0.10666 q -0.10667,0.586666 -0.34667,1.653333 -0.24,1.04 -0.61333,2.16 l -2.56,8.026666 h -2.66667 l -3.92,-14.293333 h 2.42667 l 1.97333,7.626667 q 0.29333,1.146666 0.56,2.32 0.26667,1.173333 0.37333,1.946666 h 0.10667 q 0.10667,-0.453333 0.24,-1.12 0.16,-0.666666 0.34667,-1.386666 0.18666,-0.746667 0.37333,-1.333334 l 2.53333,-8.053333 h 2.56 l 2.45334,8.053333 q 0.29333,0.906667 0.56,1.973334 0.29333,1.066666 0.4,1.84 h 0.10666 q 0.08,-0.666667 0.34667,-1.84 0.29333,-1.173334 0.61333,-2.4 l 2,-7.626667 h 2.4 l -3.97333,14.293333 h -2.74667 z"
       id="path35" />
    <path
       d="m 364.49025,10.568336 q 2.56,0 3.86667,1.253334 1.30666,1.226666 1.30666,4 v 9.306666 h -2.32 V 15.98167 q 0,-3.44 -3.2,-3.44 -2.37333,0 -3.28,1.333333 -0.90666,1.333333 -0.90666,3.84 v 7.413333 h -2.34667 V 10.835003 h 1.89333 l 0.34667,1.946667 h 0.13333 q 0.69334,-1.12 1.92,-1.653334 1.22667,-0.56 2.58667,-0.56 z"
       id="path37" />
    <path
       d="m 164.51737,58.461672 h -2.4 v -19.04 h 10.64 v 2.106667 h -8.24 v 6.746666 h 7.73333 v 2.106667 h -7.73333 z"
       id="path39" />
    <path
       d="m 188.06401,51.288339 q 0,3.546666 -1.81333,5.493333 -1.78667,1.946666 -4.85334,1.946666 -1.89333,0 -3.38666,-0.853333 -1.46667,-0.88 -2.32,-2.533333 -0.85334,-1.68 -0.85334,-4.053333 0,-3.546667 1.78667,-5.466667 1.78667,-1.92 4.85333,-1.92 1.94667,0 3.41334,0.88 1.49333,0.853333 2.32,2.506667 0.85333,1.626666 0.85333,4 z m -10.8,0 q 0,2.533333 0.98667,4.026666 1.01333,1.466667 3.2,1.466667 2.16,0 3.17333,-1.466667 1.01333,-1.493333 1.01333,-4.026666 0,-2.533334 -1.01333,-3.973334 -1.01333,-1.44 -3.2,-1.44 -2.18667,0 -3.17333,1.44 -0.98667,1.44 -0.98667,3.973334 z"
       id="path41" />
    <path
       d="m 194.62398,51.155005 -4.93333,-6.986666 h 2.66667 l 3.68,5.386666 3.65333,-5.386666 h 2.64 l -4.93333,6.986666 5.2,7.306667 h -2.66667 l -3.89333,-5.706667 -3.94667,5.706667 h -2.64 z"
       id="path43" />
    <path
       d="m 209.90392,63.528338 q -0.64,0 -1.12,-0.106666 -0.48,-0.08 -0.85333,-0.24 v -2.026667 q 0.42667,0.106667 0.90667,0.186667 0.48,0.08 1.01333,0.08 0.66667,0 1.25333,-0.266667 0.61334,-0.266667 0.98667,-0.933333 0.37333,-0.666667 0.37333,-1.866667 V 39.421672 h 2.4 v 18.746667 q 0,2.746666 -1.36,4.053333 -1.36,1.306666 -3.6,1.306666 z"
       id="path45" />
    <path
       d="m 231.50389,44.168339 v 14.293333 h -1.92 l -0.34667,-1.893333 h -0.10666 q -0.69334,1.12 -1.92,1.653333 -1.22667,0.506666 -2.61334,0.506666 -2.58666,0 -3.89333,-1.226666 -1.30667,-1.253333 -1.30667,-3.973333 v -9.36 h 2.37334 v 9.2 q 0,3.413333 3.17333,3.413333 2.37333,0 3.28,-1.333333 0.93333,-1.333334 0.93333,-3.84 v -7.44 z"
       id="path47" />
    <path
       d="m 251.71717,43.901672 q 2.42667,0 3.62667,1.253333 1.2,1.226667 1.2,4 v 9.306667 h -2.32 v -9.2 q 0,-3.386667 -2.90667,-3.386667 -2.08,0 -2.98666,1.2 -0.88,1.2 -0.88,3.493334 v 7.893333 h -2.32 v -9.2 q 0,-3.386667 -2.93334,-3.386667 -2.16,0 -2.98666,1.333334 -0.82667,1.333333 -0.82667,3.84 v 7.413333 h -2.34667 V 44.168339 h 1.89334 l 0.34666,1.946666 h 0.13334 q 0.66666,-1.12 1.78666,-1.653333 1.14667,-0.56 2.42667,-0.56 3.36,0 4.37333,2.4 h 0.13334 q 0.72,-1.226667 1.94666,-1.813333 1.25334,-0.586667 2.64,-0.586667 z"
       id="path49" />
    <path
       d="m 267.77049,43.901672 q 2.64,0 4.24,1.84 1.62667,1.84 1.62667,5.546667 0,3.653333 -1.62667,5.546666 -1.6,1.893333 -4.26666,1.893333 -1.65334,0 -2.74667,-0.613333 -1.06667,-0.64 -1.68,-1.466666 h -0.16 q 0.0533,0.453333 0.10667,1.146666 0.0533,0.693333 0.0533,1.2 v 5.866667 h -2.34667 V 44.168339 h 1.92 l 0.32,1.946666 h 0.10667 q 0.64,-0.933333 1.68,-1.573333 1.04,-0.64 2.77333,-0.64 z m -0.42666,1.973333 q -2.18667,0 -3.09334,1.226667 -0.88,1.226667 -0.93333,3.733333 v 0.453334 q 0,2.64 0.85333,4.08 0.88,1.413333 3.22667,1.413333 1.30667,0 2.13333,-0.72 0.85334,-0.72 1.25334,-1.946667 0.42666,-1.253333 0.42666,-2.853333 0,-2.453333 -0.96,-3.92 -0.93333,-1.466667 -2.90666,-1.466667 z"
       id="path51" />
    <path
       d="m 286.67715,54.515005 q 0,2.08 -1.54666,3.146667 -1.54667,1.066666 -4.16,1.066666 -1.49334,0 -2.58667,-0.24 -1.06667,-0.239999 -1.89333,-0.666666 v -2.133333 q 0.85333,0.426666 2.05333,0.8 1.22667,0.346666 2.48,0.346666 1.78667,0 2.58667,-0.56 0.8,-0.586666 0.8,-1.546666 0,-0.533334 -0.29334,-0.96 -0.29333,-0.426667 -1.06666,-0.853334 -0.74667,-0.426666 -2.16,-0.96 -1.38667,-0.533333 -2.37334,-1.066666 -0.98666,-0.533334 -1.52,-1.28 -0.53333,-0.746667 -0.53333,-1.92 0,-1.813334 1.46667,-2.8 1.49333,-0.986667 3.89333,-0.986667 1.30667,0 2.42667,0.266667 1.14666,0.24 2.13333,0.693333 l -0.8,1.866667 q -0.90667,-0.373334 -1.89333,-0.64 -0.98667,-0.266667 -2.02667,-0.266667 -1.44,0 -2.21333,0.48 -0.74667,0.453333 -0.74667,1.253333 0,0.586667 0.34667,1.013334 0.34666,0.4 1.14666,0.8 0.82667,0.373333 2.18667,0.906666 1.36,0.506667 2.32,1.04 0.96,0.533334 1.46667,1.306667 0.50666,0.746667 0.50666,1.893333 z"
       id="path53" />
    <path
       d="m 314.01039,48.915005 q 0,2.96 -1.01333,5.173334 -0.98667,2.186666 -2.93333,3.413333 -1.94667,1.226666 -4.82667,1.226666 -2.96,0 -4.93333,-1.226666 -1.94667,-1.226667 -2.90667,-3.44 -0.96,-2.213333 -0.96,-5.173333 0,-2.933334 0.96,-5.12 0.96,-2.186667 2.90667,-3.413333 1.97333,-1.226667 4.96,-1.226667 2.85333,0 4.8,1.226667 1.94666,1.2 2.93333,3.413333 1.01333,2.186666 1.01333,5.146666 z m -15.04,0 q 0,3.6 1.52,5.68 1.52,2.053334 4.74667,2.053334 3.25333,0 4.74667,-2.053334 1.49333,-2.08 1.49333,-5.68 0,-3.6 -1.49333,-5.626666 -1.49334,-2.053333 -4.72,-2.053333 -3.22667,0 -4.77334,2.053333 -1.52,2.026666 -1.52,5.626666 z"
       id="path55" />
    <path
       d="m 321.05034,58.461672 -5.41333,-14.293333 h 2.50667 l 3.04,8.426666 q 0.21333,0.586667 0.45333,1.306667 0.24,0.72 0.42667,1.386667 0.18666,0.64 0.26666,1.093333 h 0.10667 q 0.10667,-0.453333 0.29333,-1.12 0.21334,-0.666667 0.45334,-1.386667 0.26666,-0.72 0.45333,-1.28 l 3.04,-8.426666 h 2.50667 l -5.44,14.293333 z"
       id="path57" />
    <path
       d="m 336.97032,43.901672 q 1.84,0 3.14667,0.8 1.33333,0.8 2.02666,2.266667 0.72,1.44 0.72,3.386666 v 1.413334 h -9.78666 q 0.0533,2.426666 1.22666,3.706666 1.2,1.253334 3.33334,1.253334 1.36,0 2.4,-0.24 1.06666,-0.266667 2.18666,-0.746667 v 2.053333 q -1.09333,0.48 -2.16,0.693333 -1.06666,0.24 -2.53333,0.24 -2.02667,0 -3.6,-0.826666 -1.54667,-0.826667 -2.42667,-2.453333 -0.85333,-1.653334 -0.85333,-4.026667 0,-2.346667 0.77333,-4.026667 0.8,-1.68 2.21334,-2.586666 1.44,-0.906667 3.33333,-0.906667 z m -0.0267,1.92 q -1.68,0 -2.66666,1.093333 -0.96,1.066667 -1.14667,2.986667 h 7.28 q -0.0267,-1.813333 -0.85333,-2.933333 -0.82667,-1.146667 -2.61334,-1.146667 z"
       id="path59" />
    <path
       d="m 353.15697,43.901672 q 0.4,0 0.85333,0.05333 0.48,0.02667 0.82667,0.106666 l -0.29334,2.16 q -0.34666,-0.08 -0.77333,-0.133333 -0.4,-0.05333 -0.77333,-0.05333 -1.09334,0 -2.05334,0.613334 -0.96,0.586666 -1.54666,1.68 -0.56,1.066666 -0.56,2.506666 v 7.626667 H 346.4903 V 44.168339 h 1.92 l 0.26667,2.613333 h 0.10666 q 0.69334,-1.173333 1.78667,-2.026667 1.09333,-0.853333 2.58667,-0.853333 z"
       id="path61" />
    <path
       d="m 168.14403,91.795008 h -2.4 V 74.861675 h -5.94666 v -2.106667 h 14.26666 v 2.106667 h -5.92 z"
       id="path63" />
    <path
       d="m 178.97069,77.475008 q 0,1.066667 -0.13333,2 h 0.16 q 0.69333,-1.093333 1.86667,-1.653333 1.2,-0.56 2.58666,-0.56 2.61334,0 3.92,1.253333 1.30667,1.226667 1.30667,3.973333 v 9.306667 h -2.32 v -9.146667 q 0,-3.44 -3.2,-3.44 -2.4,0 -3.30667,1.36 -0.88,1.333334 -0.88,3.84 v 7.386667 h -2.34666 V 71.528342 h 2.34666 z"
       id="path65" />
    <path
       d="m 198.62398,77.235008 q 1.84,0 3.14666,0.8 1.33334,0.8 2.02667,2.266667 0.72,1.44 0.72,3.386666 v 1.413334 h -9.78667 q 0.0533,2.426666 1.22667,3.706666 1.2,1.253333 3.33333,1.253333 1.36,0 2.4,-0.24 1.06667,-0.266666 2.18667,-0.746666 v 2.053333 q -1.09333,0.48 -2.16,0.693333 -1.06667,0.24 -2.53333,0.24 -2.02667,0 -3.6,-0.826666 -1.54667,-0.826667 -2.42667,-2.453334 -0.85333,-1.653333 -0.85333,-4.026666 0,-2.346667 0.77333,-4.026667 0.8,-1.68 2.21333,-2.586666 1.44,-0.906667 3.33334,-0.906667 z m -0.0267,1.92 q -1.68,0 -2.66667,1.093333 -0.96,1.066667 -1.14666,2.986667 h 7.28 q -0.0267,-1.813333 -0.85334,-2.933333 -0.82666,-1.146667 -2.61333,-1.146667 z"
       id="path67" />
    <path
       d="m 215.39724,91.795008 v -19.04 h 2.4 v 16.906666 h 8.32 v 2.133334 z"
       id="path69" />
    <path
       d="m 234.46387,77.261675 q 2.61333,0 3.86666,1.146666 1.25334,1.146667 1.25334,3.653334 v 9.733333 h -1.70667 l -0.45333,-2.026667 h -0.10667 q -0.93333,1.173333 -1.97333,1.733333 -1.01334,0.56 -2.82667,0.56 -1.94667,0 -3.22667,-1.013333 -1.28,-1.04 -1.28,-3.226667 0,-2.133333 1.68,-3.279999 1.68,-1.173334 5.17334,-1.28 l 2.42666,-0.08 v -0.853334 q 0,-1.786666 -0.77333,-2.48 -0.77333,-0.693333 -2.18667,-0.693333 -1.12,0 -2.13333,0.346667 -1.01333,0.32 -1.89333,0.746666 l -0.72,-1.76 q 0.93333,-0.506666 2.21333,-0.853333 1.28,-0.373333 2.66667,-0.373333 z m 0.69333,7.626666 q -2.66667,0.106667 -3.70667,0.853334 -1.01333,0.746666 -1.01333,2.106666 0,1.2 0.72,1.76 0.74667,0.56 1.89333,0.56 1.81334,0 3.01334,-0.986667 1.2,-1.013333 1.2,-3.093333 v -1.28 z"
       id="path71" />
    <path
       d="m 253.23717,91.795008 h -10.45333 v -1.546667 l 7.68,-10.933333 h -7.22667 v -1.813333 h 9.81333 v 1.76 l -7.57333,10.719999 h 7.76 z"
       id="path73" />
    <path
       d="m 254.30381,77.501675 h 2.50667 l 3.09333,8.133333 q 0.4,1.066666 0.72,2.053333 0.32,0.96 0.48,1.84 h 0.10667 q 0.16,-0.666667 0.50667,-1.733333 0.34666,-1.093334 0.72,-2.186667 l 2.90666,-8.106666 h 2.53334 l -6.16,16.266666 q -0.74667,2.026667 -1.94667,3.226667 -1.17333,1.2 -3.25333,1.2 -0.64,0 -1.12,-0.08 -0.48,-0.05333 -0.82667,-0.133334 v -1.866666 q 0.29333,0.05333 0.69333,0.106666 0.42667,0.05333 0.88,0.05333 1.22667,0 1.97334,-0.693334 0.77333,-0.693333 1.2,-1.84 l 0.74666,-1.893333 z"
       id="path75" />
    <path
       d="m 292.65039,82.088341 q 0,4.826667 -2.64,7.28 -2.61333,2.426667 -7.30666,2.426667 h -5.30667 v -19.04 h 5.86667 q 2.88,0 4.98666,1.066667 2.10667,1.066666 3.25334,3.146666 1.14666,2.053334 1.14666,5.12 z m -2.53333,0.08 q 0,-3.813333 -1.89333,-5.573333 -1.86667,-1.786667 -5.30667,-1.786667 h -3.12 v 14.933333 h 2.58667 q 7.73333,0 7.73333,-7.573333 z"
       id="path77" />
    <path
       d="m 308.97037,84.621675 q 0,3.546666 -1.81333,5.493333 -1.78667,1.946666 -4.85333,1.946666 -1.89334,0 -3.38667,-0.853333 -1.46667,-0.88 -2.32,-2.533333 -0.85333,-1.68 -0.85333,-4.053333 0,-3.546667 1.78666,-5.466667 1.78667,-1.92 4.85334,-1.92 1.94666,0 3.41333,0.88 1.49333,0.853333 2.32,2.506667 0.85333,1.626666 0.85333,4 z m -10.8,0 q 0,2.533333 0.98667,4.026666 1.01333,1.466667 3.2,1.466667 2.16,0 3.17333,-1.466667 1.01333,-1.493333 1.01333,-4.026666 0,-2.533334 -1.01333,-3.973334 -1.01333,-1.44 -3.2,-1.44 -2.18666,0 -3.17333,1.44 -0.98667,1.44 -0.98667,3.973334 z"
       id="path79" />
    <path
       d="m 317.7437,77.235008 q 1.41334,0 2.53334,0.533333 1.14666,0.533334 1.94666,1.626667 h 0.13334 l 0.32,-1.893333 h 1.86666 v 14.533333 q 0,3.066666 -1.57333,4.613333 -1.54667,1.546667 -4.82667,1.546667 -3.14666,0 -5.14666,-0.906667 v -2.16 q 2.10666,1.12 5.28,1.12 1.84,0 2.88,-1.093333 1.06666,-1.066667 1.06666,-2.933334 v -0.56 q 0,-0.32 0.0267,-0.906666 0.0267,-0.613334 0.0533,-0.853334 h -0.10666 q -1.44,2.16 -4.42667,2.16 -2.77333,0 -4.34667,-1.946666 -1.54666,-1.946667 -1.54666,-5.44 0,-3.413333 1.54666,-5.413333 1.57334,-2.026667 4.32,-2.026667 z m 0.32,1.973333 q -1.78666,0 -2.77333,1.44 -0.98667,1.413334 -0.98667,4.053334 0,2.639999 0.96,4.053333 0.98667,1.386666 2.85334,1.386666 2.16,0 3.14666,-1.146666 0.98667,-1.173334 0.98667,-3.76 v -0.56 q 0,-2.933333 -1.01333,-4.186667 -1.01334,-1.28 -3.17334,-1.28 z"
       id="path81" />
  </g>
</svg>
