<?xml version="1.0" encoding="UTF-8" standalone="no"?>
<svg
   xmlns:dc="http://purl.org/dc/elements/1.1/"
   xmlns:cc="http://creativecommons.org/ns#"
   xmlns:rdf="http://www.w3.org/1999/02/22-rdf-syntax-ns#"
   xmlns:svg="http://www.w3.org/2000/svg"
   xmlns="http://www.w3.org/2000/svg"
   viewBox="162.544 4.38167 281.656 92.8533"
   version="1.1"
   id="svg2">
  <metadata
     id="metadata11">
    <rdf:RDF>
      <cc:Work
         rdf:about="">
        <dc:format>image/svg+xml</dc:format>
        <dc:type
           rdf:resource="http://purl.org/dc/dcmitype/StillImage" />
      </cc:Work>
    </rdf:RDF>
  </metadata>
  <defs
     id="defs9" />
  <g
     aria-label="The Quick BrownFox Jumps OverThe Lazy Dog"
     id="text4521"
     style="font-style:normal;font-variant:normal;font-weight:normal;font-stretch:normal;font-size:26.6667px;line-height:125%;font-family:'OCR A Std', monospace;font-variant-ligatures:normal;font-variant-caps:normal;font-variant-numeric:normal;font-feature-settings:normal;text-align:left;letter-spacing:0px;word-spacing:0px;writing-mode:lr-tb;text-anchor:start;fill:#000000;fill-opacity:1;stroke:none;stroke-width:1px;stroke-linecap:butt;stroke-linejoin:miter;stroke-opacity:1">
    <path
       d="M 167.79737,7.0483364 V 23.795003 c 0,0.853333 0.37333,1.333333 1.33333,1.333333 0.96,0 1.33333,-0.48 1.33333,-1.333333 V 7.0483364 h 2.58667 v 0.96 c 0,0.8533333 0.37333,1.3333333 1.33333,1.3333333 0.96,0 1.33334,-0.48 1.33334,-1.3333333 V 4.3816698 h -13.17334 v 3.6266666 c 0,0.8533333 0.37334,1.3333333 1.33334,1.3333333 0.96,0 1.33333,-0.48 1.33333,-1.3333333 v -0.96 z"
       id="path13" />
    <path
       d="m 190.38402,13.315003 c 1.44,0 1.36,0.96 1.41333,2.186667 l 0.26667,7.893333 c 0.0267,0.853333 0.24,1.733333 1.28,1.733333 1.14666,0 1.28,-1.013333 1.25333,-1.92 l -0.26667,-8.053333 c -0.0533,-1.386667 0,-2.48 -1.14666,-3.466667 -1.06667,-0.933333 -1.97334,-0.933333 -2.48,-0.933333 h -1.70667 c -0.85333,0 -1.62667,0.426667 -2.29333,0.853333 l -2.08,1.36 V 7.235003 c 0,-0.8799999 -0.18667,-1.7599999 -1.28,-1.7599999 -1.09334,0 -1.28,0.88 -1.28,1.7599999 v 16.133333 c 0,0.88 0.18666,1.76 1.28,1.76 1.09333,0 1.28,-0.88 1.28,-1.76 v -7.44 l 3.78666,-2.373333 c 0.26667,-0.16 0.53334,-0.24 0.8,-0.24 z"
       id="path15" />
    <path
       d="m 212.03733,25.128336 c 0.74667,0 1.76,-0.16 1.76,-1.28 0,-1.093333 -0.90667,-1.28 -1.76,-1.28 H 206.544 c -0.85334,0 -1.36,-0.106667 -1.70667,-0.48 l -0.64,-0.693333 C 204.01066,21.208336 203.824,20.888336 203.824,20.648336 v -0.853333 h 8.21333 c 1.52,0 1.76,-0.426667 1.76,-1.893334 v -2.053333 c 0,-1.413333 -0.16,-2.4 -1.33333,-3.333333 l -1.04,-0.826667 c -0.98667,-0.8 -1.57334,-0.933333 -2.82667,-0.933333 h -2.34667 c -1.04,0 -1.62666,0.02667 -2.82666,1.066667 l -0.90667,0.773333 C 201.45066,13.50167 201.264,14.30167 201.264,15.66167 v 4.933333 c 0,1.386666 0.29333,1.973333 1.30666,2.88 l 1.09334,0.96 c 0.8,0.693333 1.22666,0.693333 2.29333,0.693333 z M 203.824,15.42167 c 0,-0.746667 0.21333,-0.933334 0.53333,-1.173334 l 0.88,-0.64 c 0.42667,-0.293333 0.82667,-0.293333 1.30667,-0.293333 h 2.16 c 0.4,0 0.90666,0.02667 1.22666,0.32 l 0.98667,0.853333 c 0.34667,0.32 0.32,0.72 0.32,1.2 v 1.546667 H 203.824 Z"
       id="path17" />
    <path
       d="m 247.69063,25.128336 h 3.06666 c 0.93334,0 1.76,-0.213333 1.76,-1.333333 0,-0.853334 -0.64,-1.333334 -1.44,-1.333334 h -1.57333 l -0.66667,-1.6 1.57334,-1.36 c 1.57333,-1.36 2.10666,-2.533333 2.10666,-4.586666 V 7.8483364 c 0,-1.9733333 -1.30666,-3.4666666 -3.33333,-3.4666666 -0.96,0 -1.57333,0.48 -2.26667,1.0933333 l -5.44,4.6399999 c -1.44,1.226667 -2.13333,2.453333 -2.13333,4.4 v 6.986666 c 0,1.066667 0.13333,1.786667 0.88,2.613334 0.61333,0.666666 1.44,1.013333 2.34667,1.013333 1.04,0 1.65333,-0.293333 2.4,-0.933333 l 1.76,-1.493334 z m -0.18667,-7.653333 c -0.34667,-0.8 -0.50667,-1.706667 -1.54667,-1.706667 -0.69333,0 -1.33333,0.56 -1.33333,1.28 0,0.4 0.21333,0.88 0.37333,1.253333 l 0.69334,1.76 -2.29334,2 c -0.21333,0.186667 -0.50666,0.4 -0.8,0.4 -0.61333,0 -0.58666,-0.506666 -0.58666,-0.933333 V 14.62167 c 0,-1.2 0.29333,-1.706667 1.2,-2.48 l 5.36,-4.6400003 c 0.24,-0.1866667 0.42666,-0.4533333 0.74666,-0.4533333 0.58667,0 0.53334,0.64 0.53334,1.0666666 v 6.64 c 0,1.6 -0.18667,1.973333 -1.41334,2.986666 l -0.61333,0.506667 z"
       id="path19" />
    <path
       d="m 271.39728,12.515003 c 0,-0.88 -0.18667,-1.76 -1.28,-1.76 -1.09334,0 -1.28,0.88 -1.28,1.76 v 7.44 l -3.76,2.373333 c -0.24,0.16 -0.50667,0.24 -0.8,0.24 h -0.85334 c -0.61333,0 -1.28,-0.16 -1.49333,-0.533333 -0.21333,-0.373334 -0.24,-1.066667 -0.26667,-1.653334 l -0.26666,-7.866666 c -0.0267,-0.826667 -0.16,-1.76 -1.25334,-1.76 -1.17333,0 -1.30666,0.986667 -1.28,1.92 l 0.26667,8.053333 c 0.0533,1.386667 0.0267,2.48 1.17333,3.466667 0.85334,0.72 1.65334,0.933333 2.37334,0.933333 h 1.89333 c 0.69333,0 1.38667,-0.32 2.21333,-0.853333 l 2.08,-1.36 v 0.426666 c 0,0.88 0.18667,1.786667 1.28,1.786667 1.36,0 1.25334,-1.306667 1.25334,-1.893333 z"
       id="path21" />
    <path
       d="m 285.66392,12.54167 c 0,-1.52 -0.42666,-1.786667 -1.89333,-1.786667 h -2.69333 c -0.85334,0 -1.76,0.186667 -1.76,1.28 0,1.12 1.01333,1.28 1.76,1.28 h 2.02666 v 9.253333 h -2.02666 c -0.85334,0 -1.76,0.186667 -1.76,1.28 0,1.12 1.01333,1.28 1.76,1.28 h 6.50666 c 0.74667,0 1.76,-0.16 1.76,-1.28 0,-1.093333 -0.90666,-1.28 -1.76,-1.28 h -1.92 z m -3.86666,-5.7333336 c 0,0.9066666 0.50666,1.2 1.2,1.2 h 1.46666 c 0.69334,0 1.2,-0.2933334 1.2,-1.2 V 5.5816698 c 0,-0.9066667 -0.50666,-1.2 -1.2,-1.2 h -1.46666 c -0.69334,0 -1.2,0.2933333 -1.2,1.2 z"
       id="path23" />
    <path
       d="m 297.26391,19.181669 c 0,1.573334 0.29333,2.346667 1.52,3.36 l 1.89333,1.573334 c 1.2,0.986666 1.81333,1.013333 3.30667,1.013333 h 4.05333 c 0.85333,0 1.76,-0.186667 1.76,-1.28 0,-1.12 -1.01333,-1.28 -1.76,-1.28 h -4.50667 c -0.50666,0 -1.01333,-0.266667 -1.46666,-0.64 l -1.54667,-1.306667 c -0.4,-0.32 -0.69333,-0.586666 -0.69333,-1.093333 v -3.173333 c 0,-0.506667 0.29333,-0.773333 0.69333,-1.093333 l 1.54667,-1.306667 c 0.45333,-0.373333 0.96,-0.64 1.46666,-0.64 h 4.50667 c 0.74667,0 1.76,-0.16 1.76,-1.28 0,-1.093333 -0.90667,-1.28 -1.76,-1.28 h -4.05333 c -1.49334,0 -2.10667,0.02667 -3.30667,1.013333 l -1.89333,1.573334 c -1.22667,1.013333 -1.52,1.786666 -1.52,3.359999 z"
       id="path25" />
    <path
       d="M 319.02389,16.728336 V 7.235003 c 0,-0.8799999 -0.18667,-1.7599999 -1.28,-1.7599999 -1.09334,0 -1.28,0.88 -1.28,1.7599999 v 16.133333 c 0,0.88 0.18666,1.76 1.28,1.76 1.09333,0 1.28,-0.88 1.28,-1.76 v -3.253333 l 1.06666,-0.96 6.42667,5.36 c 0.37333,0.293333 0.69333,0.613333 1.2,0.613333 0.72,0 1.28,-0.586667 1.28,-1.306667 0,-0.666666 -0.42667,-0.96 -0.90667,-1.36 l -6.02666,-5.013333 4.96,-4.106666 c 0.45333,-0.373334 0.85333,-0.666667 0.85333,-1.28 0,-0.72 -0.56,-1.306667 -1.28,-1.306667 -0.61333,0 -1.25333,0.64 -1.70667,1.04 z"
       id="path27" />
    <path
       d="m 354.54385,25.128336 h 7.46667 c 3.38666,0 5.70666,-2.053333 5.70666,-5.546667 0,-1.973333 -0.24,-3.386666 -1.76,-4.826666 1.41334,-1.253333 1.76,-2.666667 1.76,-4.213333 0,-3.7600003 -1.78666,-6.1600002 -5.70666,-6.1600002 h -7.46667 z m 2.66667,-9.04 h 4.8 c 2.42666,0 3.04,1.253333 3.04,3.493333 0,2.026667 -1.12,2.88 -3.04,2.88 h -4.8 z m 0,-9.0399996 h 4.8 c 2.42666,0 3.04,1.2533333 3.04,3.4933336 0,2.026666 -1.12,2.88 -3.04,2.88 h -4.8 z"
       id="path29" />
    <path
       d="m 374.06383,23.368336 c 0,0.88 0.18667,1.76 1.28,1.76 1.09334,0 1.28,-0.88 1.28,-1.76 v -6.48 l 3.57334,-2.96 c 0.45333,-0.373333 0.8,-0.613333 1.28,-0.613333 h 0.74666 c 0.61334,0 1.22667,0 1.54667,0.453333 0.26667,0.373334 0.26667,0.693334 0.26667,1.12 0,0.826667 0.37333,1.573333 1.30666,1.573333 1.09334,0 1.25334,-0.906666 1.25334,-1.786666 0,-1.173333 -0.29334,-2.053333 -1.14667,-2.906667 -0.69333,-0.693333 -1.52,-1.013333 -2.50667,-1.013333 h -2.05333 c -0.8,0 -1.54667,0.506667 -2.26667,1.093333 l -2,1.653334 v -1.04 c 0,-0.853334 -0.26666,-1.706667 -1.28,-1.706667 -1.17333,0 -1.28,0.96 -1.28,1.893333 z"
       id="path31" />
    <path
       d="m 393.26381,20.355003 c 0,1.68 0.42667,2.32 1.76,3.44 1.33334,1.12 1.86667,1.333333 3.49334,1.333333 h 2.02666 c 1.62667,0 2.16,-0.213333 3.49334,-1.333333 1.33333,-1.12 1.76,-1.76 1.76,-3.44 v -4.826667 c 0,-1.706666 -0.34667,-2.293333 -1.62667,-3.333333 -1.25333,-1.04 -1.84,-1.44 -3.62667,-1.44 h -2.02666 c -1.78667,0 -2.37334,0.4 -3.62667,1.44 -1.28,1.04 -1.62667,1.626667 -1.62667,3.333333 z m 2.56,-4.826667 c 0,-0.533333 0.18667,-0.88 0.93334,-1.52 0.56,-0.48 0.96,-0.693333 1.76,-0.693333 h 2.02666 c 0.8,0 1.2,0.213333 1.76,0.693333 0.74667,0.64 0.93334,0.986667 0.93334,1.52 v 4.826667 c 0,0.533333 -0.18667,0.88 -0.93334,1.52 -0.56,0.48 -0.96,0.693333 -1.76,0.693333 h -2.02666 c -0.8,0 -1.2,-0.213333 -1.76,-0.693333 -0.74667,-0.64 -0.93334,-0.986667 -0.93334,-1.52 z"
       id="path33" />
    <path
       d="m 420.01046,16.861669 c 0,-0.879999 -0.18666,-1.786666 -1.28,-1.786666 -1.09333,0 -1.28,0.906667 -1.28,1.786666 v 2.346667 l -1.38666,2.373333 -0.8,-2.373333 -0.26667,-6.613333 c -0.0267,-0.88 -0.18667,-1.84 -1.28,-1.84 -1.12,0 -1.28,0.96 -1.25333,1.84 l 0.26666,7.12 1.25334,3.786666 c 0.26666,0.773334 0.4,1.626667 1.30666,1.626667 h 0.98667 c 0.45333,0 0.82667,-0.48 1.06667,-0.826667 l 1.38666,-2.08 1.38667,2.08 c 0.24,0.346667 0.61333,0.826667 1.06667,0.826667 h 0.98666 c 0.90667,0 1.04,-0.853333 1.30667,-1.626667 l 1.25333,-3.786666 0.26667,-7.12 c 0.0267,-0.88 -0.13333,-1.84 -1.25333,-1.84 -1.09334,0 -1.25334,0.96 -1.28,1.84 l -0.26667,6.613333 -0.8,2.373333 -1.38667,-2.373333 z"
       id="path35" />
    <path
       d="m 438.01044,13.555003 c 0.26667,-0.16 0.53334,-0.24 0.8,-0.24 h 0.85334 c 1.54666,0 1.68,0.613333 1.73333,2.186667 l 0.26667,7.893333 c 0.0267,0.853333 0.24,1.733333 1.28,1.733333 1.14666,0 1.28,-1.013333 1.25333,-1.92 l -0.26667,-8.053333 c -0.0533,-1.386667 0,-2.48 -1.14666,-3.466667 -0.77334,-0.666666 -1.38667,-0.933333 -2.37334,-0.933333 h -1.89333 c -0.82667,0 -1.54667,0.426667 -2.21333,0.853333 l -2.08,1.36 v -0.05333 -0.293333 c 0,-0.906667 -0.13334,-1.866667 -1.28,-1.866667 -1.17334,0 -1.28,0.96 -1.28,1.893333 v 10.72 c 0,0.88 0.18666,1.76 1.28,1.76 1.09333,0 1.28,-0.88 1.28,-1.76 v -7.44 z"
       id="path37" />
    <path
       d="m 162.54403,57.128339 c 0,0.853333 0.37334,1.333333 1.33334,1.333333 0.96,0 1.33333,-0.48 1.33333,-1.333333 v -9.973334 h 6.56 c 0.69333,0 1.33333,-0.373333 1.33333,-1.333333 0,-0.96 -0.64,-1.333333 -1.33333,-1.333333 h -6.56 v -4.106667 h 9.17333 c 0.69334,0 1.33334,-0.373333 1.33334,-1.333333 0,-0.96 -0.64,-1.333333 -1.33334,-1.333333 h -11.84 z"
       id="path39" />
    <path
       d="m 182.06402,53.688339 c 0,1.68 0.42666,2.32 1.76,3.44 1.33333,1.12 1.86666,1.333333 3.49333,1.333333 h 2.02667 c 1.62666,0 2.16,-0.213333 3.49333,-1.333333 1.33333,-1.12 1.76,-1.76 1.76,-3.44 v -4.826667 c 0,-1.706667 -0.34667,-2.293333 -1.62667,-3.333333 -1.25333,-1.04 -1.84,-1.44 -3.62666,-1.44 h -2.02667 c -1.78667,0 -2.37333,0.4 -3.62667,1.44 -1.28,1.04 -1.62666,1.626666 -1.62666,3.333333 z m 2.56,-4.826667 c 0,-0.533333 0.18666,-0.88 0.93333,-1.52 0.56,-0.48 0.96,-0.693333 1.76,-0.693333 h 2.02667 c 0.8,0 1.2,0.213333 1.76,0.693333 0.74666,0.64 0.93333,0.986667 0.93333,1.52 v 4.826667 c 0,0.533333 -0.18667,0.88 -0.93333,1.52 -0.56,0.48 -0.96,0.693333 -1.76,0.693333 h -2.02667 c -0.8,0 -1.2,-0.213333 -1.76,-0.693333 -0.74667,-0.64 -0.93333,-0.986667 -0.93333,-1.52 z"
       id="path41" />
    <path
       d="m 201.87733,55.928339 c -0.29333,0.373333 -0.61333,0.72 -0.61333,1.2 0,0.72 0.56,1.333333 1.28,1.333333 0.77333,0 1.28,-0.773333 1.73333,-1.333333 l 3.25333,-4 3.25334,4 c 0.45333,0.56 0.96,1.333333 1.73333,1.333333 0.72,0 1.28,-0.613333 1.28,-1.333333 0,-0.48 -0.32,-0.826667 -0.61333,-1.2 l -3.92,-4.64 3.92,-4.64 c 0.29333,-0.373334 0.61333,-0.72 0.61333,-1.2 0,-0.72 -0.56,-1.36 -1.28,-1.36 -0.77333,0 -1.28,0.8 -1.73333,1.36 l -3.25334,4 -3.25333,-4 c -0.45333,-0.56 -0.96,-1.36 -1.73333,-1.36 -0.72,0 -1.28,0.64 -1.28,1.36 0,0.48 0.32,0.826666 0.61333,1.2 l 3.92,4.64 z"
       id="path43" />
    <path
       d="m 251.18396,39.048339 c 0,-0.853333 -0.37333,-1.333333 -1.33333,-1.333333 -0.96,0 -1.33334,0.48 -1.33334,1.333333 v 15.306666 c 0,1.28 -0.69333,1.44 -1.81333,1.44 h -1.46667 c -1.57333,0 -1.89333,-0.426666 -1.89333,-1.973333 v -3.466667 c 0,-0.853333 -0.37333,-1.333333 -1.33333,-1.333333 -0.96,0 -1.33334,0.48 -1.33334,1.333333 v 3.866667 c 0,1.066667 0.16,1.813333 0.82667,2.693333 0.96,1.28 2.24,1.546667 3.73333,1.546667 h 1.54667 c 1.65333,0 2.98667,-0.453333 3.89333,-1.973333 0.50667,-0.906667 0.50667,-1.546667 0.50667,-2.56 z"
       id="path45" />
    <path
       d="m 271.39728,45.848339 c 0,-0.88 -0.18667,-1.76 -1.28,-1.76 -1.09334,0 -1.28,0.88 -1.28,1.76 v 7.44 l -3.76,2.373333 c -0.24,0.16 -0.50667,0.24 -0.8,0.24 h -0.85334 c -0.61333,0 -1.28,-0.16 -1.49333,-0.533333 -0.21333,-0.373334 -0.24,-1.066667 -0.26667,-1.653334 l -0.26666,-7.866666 c -0.0267,-0.826667 -0.16,-1.76 -1.25334,-1.76 -1.17333,0 -1.30666,0.986666 -1.28,1.92 l 0.26667,8.053333 c 0.0533,1.386667 0.0267,2.48 1.17333,3.466667 0.85334,0.72 1.65334,0.933333 2.37334,0.933333 h 1.89333 c 0.69333,0 1.38667,-0.32 2.21333,-0.853333 l 2.08,-1.36 v 0.426666 c 0,0.88 0.18667,1.786667 1.28,1.786667 1.36,0 1.25334,-1.306667 1.25334,-1.893333 z"
       id="path47" />
    <path
       d="m 286.14392,47.795005 c 0.21334,-0.24 0.69334,-0.88 1.06667,-0.88 0.69333,0 0.56,0.906667 0.58667,1.36 l 0.26666,8.453334 c 0.0267,0.853333 0.24,1.733333 1.28,1.733333 1.14667,0 1.28,-1.013333 1.25334,-1.92 l -0.26667,-8.853333 c -0.0267,-0.986667 0.0267,-1.733334 -0.61333,-2.56 -0.50667,-0.666667 -1.28,-1.04 -2.13334,-1.04 -1.12,0 -1.44,0.266666 -2.24,1.066666 l -0.21333,0.213334 c -0.58667,-0.8 -1.36,-1.28 -2.34667,-1.28 -0.88,0 -1.28,0.346666 -1.94666,0.853333 l -0.21334,0.16 c -0.16,-0.586667 -0.58666,-1.013333 -1.22666,-1.013333 -1.09334,0 -1.33334,0.906666 -1.33334,1.813333 v 10.8 c 0,0.88 0.18667,1.76 1.28,1.76 1.09334,0 1.28,-0.88 1.28,-1.76 v -8.32 l 1.12,-1.04 c 0.21334,-0.186667 0.4,-0.426667 0.69334,-0.426667 0.66666,0 0.61333,0.8 0.61333,1.226667 v 8.56 c 0,0.88 0.18667,1.76 1.28,1.76 1.09333,0 1.28,-0.88 1.28,-1.76 v -8.32 z"
       id="path49" />
    <path
       d="m 309.79724,50.168339 c 0,-1.813334 -0.13333,-2.533334 -1.62667,-3.706667 l -1.54666,-1.2 c -0.69334,-0.533333 -1.52,-1.173333 -2.13334,-1.173333 h -1.76 c -0.72,0 -1.73333,0.96 -2.4,1.546666 l -0.50666,0.453334 v -0.32 c 0,-0.853334 -0.24,-1.68 -1.28,-1.68 -1.17334,0 -1.28,0.986666 -1.28,1.893333 v 16.16 c 0,0.88 0.18666,1.76 1.28,1.76 1.09333,0 1.28,-0.88 1.28,-1.76 v -5.146667 l 0.50666,0.48 c 0.82667,0.773334 1.36,1.52 2.50667,1.52 h 1.73333 c 0.69334,0 1.52,-0.72 2.05334,-1.146666 l 1.54666,-1.226667 c 1.49334,-1.173333 1.62667,-1.866667 1.62667,-3.706667 z m -2.56,3.093333 c 0,0.48 -0.13333,0.773333 -0.53333,1.12 l -1.92,1.6 c -0.24,0.213333 -0.53334,0.453333 -0.88,0.453333 h -0.66667 c -0.32,0 -0.72,-0.346666 -1.09333,-0.72 l -1.94667,-1.84 c -0.26667,-0.24 -0.37333,-0.72 -0.37333,-1.093333 v -2.506667 c 0,-0.56 0.18666,-0.853333 0.72,-1.36 l 1.6,-1.52 c 0.26666,-0.266666 0.72,-0.746666 1.09333,-0.746666 h 0.66667 c 0.34666,0 0.64,0.24 0.88,0.453333 l 1.92,1.6 c 0.4,0.346667 0.53333,0.64 0.53333,1.12 z"
       id="path51" />
    <path
       d="m 324.73055,46.648339 c 0.69334,0 1.14667,0.05333 1.57334,0.506666 0.32,0.346667 0.61333,0.533334 1.09333,0.533334 0.69333,0 1.30667,-0.56 1.30667,-1.28 0,-0.72 -0.53334,-1.04 -1.01334,-1.44 -0.96,-0.8 -1.54666,-0.88 -2.96,-0.88 h -4.37333 c -1.92,0 -3.52,1.226666 -3.52,3.253333 0,1.653333 0.82667,2.48 2.24,3.12 l 6.02667,2.746667 c 0.58666,0.266666 1.33333,0.666666 1.33333,1.28 0,1.493333 -1.22667,1.413333 -2.13333,1.413333 h -3.46667 c -0.8,0 -1.6,-0.05333 -2.05333,-0.56 -0.29334,-0.32 -0.58667,-0.453333 -0.98667,-0.453333 -0.72,0 -1.33333,0.56 -1.33333,1.28 0,0.64 0.69333,1.12 1.17333,1.493333 0.96,0.746666 1.86667,0.8 3.2,0.8 h 3.94667 c 2.45333,0 4.21333,-1.226667 4.21333,-3.813333 0,-1.84 -0.85333,-2.88 -2.50667,-3.626667 l -6.4,-2.906667 c -0.37333,-0.16 -0.69333,-0.32 -0.69333,-0.746666 0,-0.826667 0.90667,-0.72 1.44,-0.72 z"
       id="path53" />
    <path
       d="m 364.35718,39.901672 c -0.64,-1.253333 -1.73333,-2.186666 -3.22666,-2.186666 -1.49334,0 -2.58667,0.933333 -3.22667,2.186666 l -2.66667,5.306667 c -0.50666,1.04 -0.69333,1.813333 -0.69333,2.96 0,1.28 0.34667,2.08 0.88,3.173333 l 2.45333,4.906667 c 0.64,1.28 1.70667,2.213333 3.25334,2.213333 1.54666,0 2.61333,-0.933333 3.25333,-2.213333 l 2.45333,-4.906667 c 0.53334,-1.093333 0.88,-1.893333 0.88,-3.173333 0,-1.146667 -0.18666,-1.92 -0.69333,-2.96 z m 0.08,6.106667 c 0.4,0.773333 0.61334,1.28 0.61334,2.16 0,0.693333 -0.16,1.173333 -0.45334,1.76 l -2.56,5.066666 c -0.18666,0.373334 -0.37333,0.8 -0.90666,0.8 -0.53334,0 -0.72,-0.426666 -0.90667,-0.8 l -2.56,-5.066666 c -0.29333,-0.586667 -0.45333,-1.066667 -0.45333,-1.76 0,-0.88 0.21333,-1.386667 0.61333,-2.16 l 2.4,-4.826667 c 0.21333,-0.426666 0.34667,-0.8 0.90667,-0.8 0.56,0 0.69333,0.373334 0.90666,0.8 z"
       id="path55" />
    <path
       d="m 380.3305,55.795005 -3.70667,-8.506666 v -1.306667 c 0,-0.906667 -0.16,-1.893333 -1.30666,-1.893333 -0.90667,0 -1.25334,0.72 -1.25334,1.546666 v 1.813334 c 0,0.426666 0.10667,0.64 0.29334,1.04 l 3.81333,8.373333 c 0.24,0.533333 0.69333,1.6 1.33333,1.6 h 1.65334 c 0.64,0 1.09333,-1.066667 1.33333,-1.6 l 3.81333,-8.373333 c 0.18667,-0.4 0.29334,-0.613334 0.29334,-1.04 v -1.813334 c 0,-0.826666 -0.34667,-1.546666 -1.25334,-1.546666 -1.14666,0 -1.30666,0.986666 -1.30666,1.893333 v 1.306667 z"
       id="path57" />
    <path
       d="m 404.03715,58.461672 c 0.74666,0 1.76,-0.16 1.76,-1.28 0,-1.093333 -0.90667,-1.28 -1.76,-1.28 h -5.49334 c -0.85333,0 -1.36,-0.106667 -1.70666,-0.48 l -0.64,-0.693333 c -0.18667,-0.186667 -0.37334,-0.506667 -0.37334,-0.746667 v -0.853333 h 8.21334 c 1.52,0 1.76,-0.426667 1.76,-1.893334 v -2.053333 c 0,-1.413333 -0.16,-2.4 -1.33334,-3.333333 l -1.04,-0.826667 c -0.98666,-0.8 -1.57333,-0.933333 -2.82666,-0.933333 h -2.34667 c -1.04,0 -1.62667,0.02667 -2.82667,1.066666 l -0.90666,0.773334 c -1.06667,0.906666 -1.25334,1.706666 -1.25334,3.066666 v 4.933334 c 0,1.386666 0.29334,1.973333 1.30667,2.88 l 1.09333,0.96 c 0.8,0.693333 1.22667,0.693333 2.29334,0.693333 z m -8.21334,-9.706667 c 0,-0.746666 0.21334,-0.933333 0.53334,-1.173333 l 0.88,-0.64 c 0.42666,-0.293333 0.82666,-0.293333 1.30666,-0.293333 h 2.16 c 0.4,0 0.90667,0.02667 1.22667,0.32 l 0.98667,0.853333 c 0.34666,0.32 0.32,0.72 0.32,1.2 v 1.546667 h -7.41334 z"
       id="path59" />
    <path
       d="m 412.4638,56.701672 c 0,0.88 0.18666,1.76 1.28,1.76 1.09333,0 1.28,-0.88 1.28,-1.76 v -6.48 l 3.57333,-2.96 c 0.45333,-0.373333 0.8,-0.613333 1.28,-0.613333 h 0.74667 c 0.61333,0 1.22666,0 1.54666,0.453333 0.26667,0.373333 0.26667,0.693333 0.26667,1.12 0,0.826667 0.37333,1.573333 1.30667,1.573333 1.09333,0 1.25333,-0.906666 1.25333,-1.786666 0,-1.173334 -0.29333,-2.053334 -1.14667,-2.906667 -0.69333,-0.693333 -1.52,-1.013333 -2.50666,-1.013333 h -2.05334 c -0.8,0 -1.54666,0.506666 -2.26666,1.093333 l -2,1.653333 v -1.04 c 0,-0.853333 -0.26667,-1.706666 -1.28,-1.706666 -1.17334,0 -1.28,0.96 -1.28,1.893333 z"
       id="path61" />
    <path
       d="m 167.79737,73.715008 v 16.746666 c 0,0.853334 0.37333,1.333334 1.33333,1.333334 0.96,0 1.33333,-0.48 1.33333,-1.333334 V 73.715008 h 2.58667 v 0.96 c 0,0.853333 0.37333,1.333333 1.33333,1.333333 0.96,0 1.33334,-0.48 1.33334,-1.333333 v -3.626666 h -13.17334 v 3.626666 c 0,0.853333 0.37334,1.333333 1.33334,1.333333 0.96,0 1.33333,-0.48 1.33333,-1.333333 v -0.96 z"
       id="path63" />
    <path
       d="m 190.38402,79.981675 c 1.44,0 1.36,0.96 1.41333,2.186666 l 0.26667,7.893333 c 0.0267,0.853334 0.24,1.733334 1.28,1.733334 1.14666,0 1.28,-1.013334 1.25333,-1.92 l -0.26667,-8.053333 c -0.0533,-1.386667 0,-2.48 -1.14666,-3.466667 -1.06667,-0.933333 -1.97334,-0.933333 -2.48,-0.933333 h -1.70667 c -0.85333,0 -1.62667,0.426666 -2.29333,0.853333 l -2.08,1.36 v -5.733333 c 0,-0.88 -0.18667,-1.76 -1.28,-1.76 -1.09334,0 -1.28,0.88 -1.28,1.76 v 16.133333 c 0,0.88 0.18666,1.76 1.28,1.76 1.09333,0 1.28,-0.88 1.28,-1.76 v -7.44 l 3.78666,-2.373333 c 0.26667,-0.16 0.53334,-0.24 0.8,-0.24 z"
       id="path65" />
    <path
       d="m 212.03733,91.795008 c 0.74667,0 1.76,-0.16 1.76,-1.28 0,-1.093334 -0.90667,-1.28 -1.76,-1.28 H 206.544 c -0.85334,0 -1.36,-0.106667 -1.70667,-0.48 l -0.64,-0.693334 C 204.01066,87.875008 203.824,87.555008 203.824,87.315008 v -0.853334 h 8.21333 c 1.52,0 1.76,-0.426666 1.76,-1.893333 v -2.053333 c 0,-1.413333 -0.16,-2.4 -1.33333,-3.333333 l -1.04,-0.826667 c -0.98667,-0.8 -1.57334,-0.933333 -2.82667,-0.933333 h -2.34667 c -1.04,0 -1.62666,0.02667 -2.82666,1.066666 l -0.90667,0.773334 c -1.06667,0.906666 -1.25333,1.706666 -1.25333,3.066666 v 4.933333 c 0,1.386667 0.29333,1.973334 1.30666,2.88 l 1.09334,0.96 c 0.8,0.693334 1.22666,0.693334 2.29333,0.693334 z M 203.824,82.088341 c 0,-0.746666 0.21333,-0.933333 0.53333,-1.173333 l 0.88,-0.64 c 0.42667,-0.293333 0.82667,-0.293333 1.30667,-0.293333 h 2.16 c 0.4,0 0.90666,0.02667 1.22666,0.32 l 0.98667,0.853333 c 0.34667,0.32 0.32,0.72 0.32,1.2 v 1.546667 H 203.824 Z"
       id="path67" />
    <path
       d="M 242.01063,89.128341 V 72.381675 c 0,-0.853333 -0.37334,-1.333333 -1.33334,-1.333333 -0.96,0 -1.33333,0.48 -1.33333,1.333333 v 19.413333 h 11.84 c 0.69333,0 1.33333,-0.373334 1.33333,-1.333334 0,-0.96 -0.64,-1.333333 -1.33333,-1.333333 z"
       id="path69" />
    <path
       d="m 266.33061,79.981675 c 1.84,0 2.26667,0.32 2.26667,2.24 v 0.586666 h -5.49334 c -1.12,0 -2.10666,0.186667 -2.98666,0.96 -0.96,0.853334 -1.25334,1.626667 -1.25334,2.853333 v 1.12 c 0,1.333334 0.26667,2.266667 1.33334,3.146667 0.93333,0.773333 1.76,0.906667 2.90666,0.906667 h 2.45334 c 0.82666,0 0.85333,0 1.57333,-0.373334 l 1.76,-0.906666 c -0.0267,0.72 0.64,1.28 1.30667,1.28 0.85333,0 1.22666,-0.746667 1.2,-1.493334 l -0.26667,-8.693333 c -0.0267,-1.28 -0.16,-2.053333 -1.14667,-3.04 -1.01333,-1.013333 -1.97333,-1.146666 -3.30666,-1.146666 h -3.52 c -0.85334,0 -1.76,0.186666 -1.76,1.28 0,1.12 1.01333,1.28 1.76,1.28 z m 0.58667,5.386666 c 1.41333,0 1.81333,0.426667 1.81333,1.84 v 0.56 l -2.82667,1.466667 h -2.82666 c -0.61334,0 -1.65334,-0.186667 -1.65334,-1.04 v -1.706667 c 0,-0.933333 1.01334,-1.12 1.70667,-1.12 z"
       id="path71" />
    <path
       d="m 278.54392,88.408341 c -0.45333,0.426667 -0.48,0.613333 -0.48,1.226667 v 0.666666 c 0,0.746667 0.10667,1.493334 1.89334,1.493334 h 8.88 c 0.74666,0 1.76,-0.16 1.76,-1.28 0,-1.093334 -0.90667,-1.28 -1.76,-1.28 h -7.57334 l 8.58667,-8.186667 c 0.58667,-0.56 0.74667,-0.933333 0.74667,-1.44 v -0.853333 c 0,-0.906667 -0.42667,-1.333333 -1.73334,-1.333333 h -8.32 c -0.85333,0 -1.76,0.186666 -1.76,1.28 0,1.12 1.01334,1.28 1.76,1.28 h 6.82667 z"
       id="path73" />
    <path
       d="m 303.82391,88.195008 h -0.56 l -3.44,-7.546667 v -1.466666 c 0,-0.88 -0.18667,-1.76 -1.28,-1.76 -1.09334,0 -1.28,0.88 -1.28,1.76 v 1.146666 c 0,0.746667 0.26666,1.333334 0.61333,2.106667 l 3.14667,6.96 c 0.4,0.88 0.45333,1.36 1.52,1.36 h 0.13333 l -1.89333,3.92 h -1.76 c -0.85334,0 -1.76,0.186666 -1.76,1.28 0,1.12 1.01333,1.28 1.76,1.28 h 1.97333 c 1.17333,0 1.46667,-0.133334 2.02667,-1.333334 l 6.45333,-14.053333 c 0.26667,-0.56 0.32,-0.986666 0.32,-1.626666 v -1.04 c 0,-0.88 -0.18667,-1.76 -1.28,-1.76 -1.09333,0 -1.28,0.88 -1.28,1.76 v 1.466666 z"
       id="path75" />
    <path
       d="m 337.9572,89.128341 h -1.28 c -0.69333,0 -1.33333,0.373333 -1.33333,1.333333 0,0.96 0.64,1.333334 1.33333,1.333334 h 4.42667 c 2.08,0 3.28,-0.613334 4.21333,-2.506667 l 2.42667,-4.853333 c 0.48,-0.96 0.77333,-1.866667 0.77333,-2.933333 0,-1.226667 -0.26666,-2 -0.8,-3.093334 l -2.34666,-4.693333 c -0.90667,-1.813333 -1.94667,-2.666666 -4.02667,-2.666666 h -4.45333 c -0.82667,0 -1.54667,0.373333 -1.54667,1.333333 0,1.013333 0.74667,1.333333 1.62667,1.333333 h 0.98666 z m 2.66667,-15.413333 h 0.32 c 1.22667,0 1.46667,-0.02667 2.02667,1.12 l 2.21333,4.506667 c 0.37333,0.773333 0.66667,1.28 0.66667,2.186666 0,0.666667 -0.21334,1.12 -0.50667,1.733334 l -2.34667,4.746666 c -0.48,0.986667 -0.74666,1.12 -1.86666,1.12 h -0.50667 z"
       id="path77" />
    <path
       d="m 354.86385,87.021674 c 0,1.68 0.42667,2.32 1.76,3.44 1.33333,1.12 1.86667,1.333334 3.49333,1.333334 h 2.02667 c 1.62667,0 2.16,-0.213334 3.49333,-1.333334 1.33334,-1.12 1.76,-1.76 1.76,-3.44 v -4.826666 c 0,-1.706667 -0.34666,-2.293333 -1.62666,-3.333333 -1.25334,-1.04 -1.84,-1.44 -3.62667,-1.44 h -2.02667 c -1.78666,0 -2.37333,0.4 -3.62666,1.44 -1.28,1.04 -1.62667,1.626666 -1.62667,3.333333 z m 2.56,-4.826666 c 0,-0.533333 0.18667,-0.88 0.93333,-1.52 0.56,-0.48 0.96,-0.693333 1.76,-0.693333 h 2.02667 c 0.8,0 1.2,0.213333 1.76,0.693333 0.74667,0.64 0.93333,0.986667 0.93333,1.52 v 4.826666 c 0,0.533334 -0.18666,0.88 -0.93333,1.52 -0.56,0.48 -0.96,0.693334 -1.76,0.693334 h -2.02667 c -0.8,0 -1.2,-0.213334 -1.76,-0.693334 -0.74666,-0.64 -0.93333,-0.986666 -0.93333,-1.52 z"
       id="path79" />
    <path
       d="m 374.06383,86.088341 c 0,1.04 0.0533,1.706667 0.8,2.4 l 1.6,1.44 c 0.77334,0.693333 1.38667,0.773333 1.92,0.773333 h 3.01334 c 0.72,0 1.52,-0.666666 2.10666,-1.253333 l 0.53334,-0.533333 v 3.52 c 0,0.48 -0.16,0.853333 -0.37334,1.066666 l -0.64,0.586667 c -0.4,0.346667 -0.74666,0.586667 -1.28,0.586667 h -4.69333 c -0.85333,0 -1.76,0.186666 -1.76,1.28 0,1.12 1.01333,1.28 1.76,1.28 h 4.24 c 1.44,0 2.08,-0.16 3.2,-1.093334 l 0.85333,-0.72 c 1.06667,-0.906666 1.25334,-1.386666 1.25334,-3.706666 V 79.208341 c 0,-0.853333 -0.13334,-1.786666 -1.25334,-1.786666 -0.88,0 -1.30666,0.693333 -1.30666,1.493333 v 0.293333 l -0.64,-0.506666 c -0.98667,-0.773334 -1.81334,-1.28 -2.50667,-1.28 h -2.48 c -0.66667,0 -1.06667,0.186666 -1.6,0.613333 l -1.86667,1.466667 c -0.53333,0.426666 -0.88,1.493333 -0.88,2.693333 z m 2.56,-3.68 c 0,-0.533333 0.0267,-1.093333 0.32,-1.333333 l 1.06667,-0.853333 c 0.18667,-0.16 0.42667,-0.24 0.74667,-0.24 h 1.86666 c 0.32,0 0.69334,0.266666 1.17334,0.666666 l 1.97333,1.626667 c 0.18667,0.16 0.26667,0.506667 0.26667,0.853333 v 1.866667 c 0,0.346667 -0.08,0.693333 -0.26667,0.853333 l -1.97333,1.626667 c -0.48,0.4 -0.85334,0.666666 -1.17334,0.666666 h -1.86666 c -0.32,0 -0.56,-0.08 -0.74667,-0.24 l -1.06667,-0.853333 c -0.29333,-0.24 -0.32,-0.8 -0.32,-1.333333 z"
       id="path81" />
  </g>
</svg>
