<?xml version="1.0" encoding="UTF-8" standalone="no"?>
<svg
   xmlns:dc="http://purl.org/dc/elements/1.1/"
   xmlns:cc="http://creativecommons.org/ns#"
   xmlns:rdf="http://www.w3.org/1999/02/22-rdf-syntax-ns#"
   xmlns:svg="http://www.w3.org/2000/svg"
   xmlns="http://www.w3.org/2000/svg"
   viewBox="160.064 5.075 199.946 93.8667"
   version="1.1"
   id="svg2">
  <metadata
     id="metadata11">
    <rdf:RDF>
      <cc:Work
         rdf:about="">
        <dc:format>image/svg+xml</dc:format>
        <dc:type
           rdf:resource="http://purl.org/dc/dcmitype/StillImage" />
      </cc:Work>
    </rdf:RDF>
  </metadata>
  <defs
     id="defs9" />
  <g
     aria-label="The Quick BrownFox Jumps OverThe Lazy Dog"
     id="text4521"
     style="font-style:normal;font-variant:normal;font-weight:normal;font-stretch:normal;font-size:26.6667px;line-height:125%;font-family:Optima, sans-serif;font-variant-ligatures:normal;font-variant-caps:normal;font-variant-numeric:normal;font-feature-settings:normal;text-align:left;letter-spacing:0px;word-spacing:0px;writing-mode:lr-tb;text-anchor:start;fill:#000000;fill-opacity:1;stroke:none;stroke-width:1px;stroke-linecap:butt;stroke-linejoin:miter;stroke-opacity:1">
    <path
       d="m 165.8507,13.768336 v 4.586667 q 0,1.76 -0.08,3.466666 -0.0533,1.706667 -0.13333,3.36 0.61333,-0.05333 1.30666,-0.05333 0.69334,0 1.30667,0.05333 -0.08,-1.653333 -0.16,-3.36 -0.0533,-1.706666 -0.0533,-3.466666 v -4.586667 q 0,-2.773333 0.08,-5.5199996 0.69333,0 1.44,0.026667 0.77333,0 1.52,0.053333 0.77333,0.026667 1.46666,0.08 0.72,0.053333 1.28,0.1333333 -0.13333,-0.48 -0.13333,-0.8266667 0,-0.32 0.13333,-0.8533333 -1.76,0.053333 -3.44,0.1066667 -1.68,0.026667 -3.44,0.026667 -1.76,0 -3.44,-0.026667 -1.68,-0.053333 -3.44,-0.1066667 0.13334,0.5333333 0.13334,0.8266667 0,0.3733333 -0.13334,0.8533333 0.56,-0.08 1.25334,-0.1333333 0.72,-0.053333 1.46666,-0.08 0.77334,-0.053333 1.52,-0.053333 0.77334,-0.026667 1.46667,-0.026667 0.08,2.7466666 0.08,5.5199996 z"
       id="path13" />
    <path
       d="m 175.39736,12.755003 v 4.826666 q 0,0.906667 -0.0267,1.973334 0,1.066666 -0.0267,2.106666 -0.0267,1.04 -0.08,1.973334 -0.0267,0.933333 -0.08,1.546666 0.61334,-0.05333 1.2,-0.05333 0.58667,0 1.2,0.05333 -0.0533,-0.586666 -0.10666,-1.52 -0.0267,-0.933333 -0.0533,-1.92 -0.0267,-1.013333 -0.0533,-2 0,-0.986666 0,-1.733333 0,-2.08 0.85333,-3.226666 0.88,-1.146667 2.74667,-1.146667 1.36,0 2.13333,1.04 0.77334,1.013333 0.77334,3.013333 v 1.626667 q 0,1.546666 -0.08,3.013333 -0.0533,1.466667 -0.10667,2.853333 0.53333,-0.05333 1.09333,-0.05333 0.58667,0 1.12,0.05333 -0.0267,-0.373333 -0.0533,-0.773333 0,-0.426667 0,-0.853333 v -1.733334 q 0,-1.36 0.0533,-2.56 0.0533,-1.226666 0.0533,-2.373333 0,-1.386666 -0.4,-2.266666 -0.37334,-0.906667 -0.98667,-1.413334 -0.61333,-0.533333 -1.38667,-0.746666 -0.74666,-0.213334 -1.49333,-0.213334 -1.44,0 -2.48,0.64 -1.04,0.613334 -1.78667,1.76 h -0.0533 V 12.62167 q 0,-0.88 0,-1.92 0.0267,-1.0400003 0.0533,-2.0533337 0.0267,-1.0399999 0.0533,-1.9733332 0.0533,-0.9333334 0.10666,-1.6 -0.74666,0.1333333 -1.2,0.1333333 -0.45333,0 -1.2,-0.1333333 0.0533,0.6666666 0.08,1.6266666 0.0533,0.9333333 0.08,1.9733333 0.0267,1.04 0.0267,2.106667 0.0267,1.066666 0.0267,1.973333 z"
       id="path15" />
    <path
       d="m 195.07735,13.10167 q 1.04,0 1.68,0.453333 0.64,0.453333 0.98667,1.146667 0.37333,0.693333 0.48,1.493333 0.13333,0.8 0.13333,1.52 -0.85333,0.02667 -1.76,0.05333 -0.90667,0.02667 -1.78667,0.02667 -0.85333,0 -1.76,-0.02667 -0.88,-0.02667 -1.70666,-0.05333 0.0533,-0.72 0.26666,-1.52 0.24,-0.826667 0.66667,-1.493333 0.45333,-0.693334 1.12,-1.146667 0.69333,-0.453333 1.68,-0.453333 z m -6.16,6.159999 q 0,1.333334 0.45333,2.48 0.48,1.146667 1.33334,2 0.88,0.826667 2.05333,1.28 1.2,0.426667 2.64,0.426667 1.28,0 2.45333,-0.453333 1.2,-0.453334 2,-1.093334 l 0.16,-1.306666 -0.13333,-0.08 q -0.34667,0.4 -0.82667,0.746666 -0.45333,0.346667 -0.98666,0.613334 -0.53334,0.24 -1.09334,0.4 -0.56,0.133333 -1.09333,0.133333 -1.12,0 -1.97333,-0.373333 -0.85334,-0.4 -1.44,-1.04 -0.58667,-0.666667 -0.90667,-1.573334 -0.29333,-0.906666 -0.29333,-1.946666 v -0.346667 q 0,-0.266667 0.0267,-0.4 0.88,-0.02667 1.73334,-0.05333 0.88,-0.02667 1.76,-0.02667 1.44,0 2.85333,0.02667 1.41333,0.02667 2.85333,0.05333 0.0267,-0.266667 0.0267,-0.506667 0.0267,-0.266666 0.0267,-0.533333 0,-1.12 -0.34667,-2.106666 -0.32,-0.986667 -1.01333,-1.706667 -0.69334,-0.746667 -1.73334,-1.173333 -1.01333,-0.453334 -2.42666,-0.453334 -2.98667,0 -4.56,1.866667 -1.54667,1.866667 -1.54667,5.146666 z"
       id="path17" />
    <path
       d="m 209.85063,16.06167 q 0,2.266666 0.72,4.053333 0.74667,1.76 2.05333,2.986666 1.33334,1.226667 3.17334,1.84 1.84,0.586667 4.02666,0.586667 h 0.37334 q 0.26666,0 0.4,-0.02667 1.68,1.36 3.17333,2.693334 1.49333,1.333333 2.96,2.693333 0.21333,-0.346667 0.8,-0.693334 0.58667,-0.346666 1.28,-0.399999 -1.62667,-1.146667 -3.12,-2.293334 -1.46667,-1.146666 -2.90667,-2.293333 1.6,-0.293333 2.88,-1.066667 1.30667,-0.773333 2.21334,-1.946666 0.93333,-1.2 1.44,-2.72 0.50666,-1.546667 0.50666,-3.413333 0,-2.266667 -0.74666,-4.026667 -0.72,-1.786667 -2.05334,-3.0133333 -1.30666,-1.2266667 -3.14666,-1.8666667 -1.84,-0.6399999 -4.05334,-0.6399999 -2.18666,0 -4.02666,0.6399999 -1.84,0.64 -3.17334,1.8666667 -1.30666,1.2266663 -2.05333,3.0133333 -0.72,1.76 -0.72,4.026667 z m 17.36,0 q 0,2.213333 -0.56,3.839999 -0.56,1.6 -1.57333,2.666667 -0.98667,1.04 -2.34667,1.546667 -1.33333,0.506666 -2.90667,0.506666 -1.54666,0 -2.90666,-0.506666 -1.33334,-0.506667 -2.34667,-1.546667 -0.98667,-1.066667 -1.54667,-2.666667 -0.56,-1.626666 -0.56,-3.839999 0,-2.213334 0.56,-3.813334 0.56,-1.626666 1.54667,-2.6666663 1.01333,-1.0666667 2.34667,-1.5733333 1.36,-0.5066667 2.90666,-0.5066667 1.57334,0 2.90667,0.5066667 1.36,0.5066666 2.34667,1.5733333 1.01333,1.0400003 1.57333,2.6666663 0.56,1.6 0.56,3.813334 z"
       id="path19" />
    <path
       d="m 232.97058,21.155003 q 0,2.08 1.17334,3.2 1.2,1.093333 3.28,1.093333 1.28,0 2.37333,-0.586667 1.09333,-0.613333 1.78667,-1.893333 h 0.0533 v 1.146667 q 0,0.293333 -0.0267,0.56 0,0.266666 -0.0267,0.506666 0.53333,-0.05333 1.04,-0.05333 0.50666,0 1.04,0.05333 -0.0533,-1.066666 -0.08,-2.213333 -0.0267,-1.146667 -0.0267,-2.346667 0,-2.16 0.0267,-4.08 0.0267,-1.946666 0.16,-4.026666 -0.26667,0.05333 -0.53334,0.106667 -0.26666,0.02667 -0.56,0.02667 -0.29333,0 -0.56,-0.02667 -0.26666,-0.05333 -0.56,-0.106667 0.0267,0.48 0.0267,1.013333 0.0267,0.533334 0.0267,1.12 v 2.24 q 0,1.573333 -0.0267,2.48 0,0.906667 -0.08,1.44 -0.0533,0.533333 -0.16,0.853333 -0.10667,0.32 -0.29333,0.773334 -0.34667,0.72 -1.09334,1.226666 -0.74666,0.48 -1.86666,0.48 -0.77334,0 -1.36,-0.266666 -0.56,-0.293334 -0.93334,-0.72 -0.34666,-0.373334 -0.58666,-1.093334 -0.24,-0.746666 -0.24,-2.133333 0,-2 0.0533,-3.893333 0.08,-1.92 0.21333,-3.52 -0.66666,0.133333 -1.09333,0.133333 -0.45333,0 -1.12,-0.133333 0.0267,1.12 0.0267,2.213333 0.0267,1.093334 0.0267,2.026667 0,0.986666 -0.0533,2 -0.0267,0.986666 -0.0267,2.4 z"
       id="path21" />
    <path
       d="m 248.11724,7.875003 q 0,0.56 0.4,0.96 0.4,0.4 0.96,0.4 0.56,0 0.96,-0.4 0.4,-0.4 0.4,-0.96 0,-0.56 -0.4,-0.9599999 -0.4,-0.4 -0.96,-0.4 -0.56,0 -0.96,0.4 -0.4,0.3999999 -0.4,0.9599999 z m 0.37334,9.626666 v 2.773334 q 0,1.2 -0.0533,2.533333 -0.0267,1.306667 -0.16,2.373333 0.61334,-0.05333 1.2,-0.05333 0.58667,0 1.2,0.05333 -0.13333,-1.066666 -0.18666,-2.373333 -0.0267,-1.333333 -0.0267,-2.533333 v -2.773334 q 0,-1.2 0.0267,-2.506666 0.0533,-1.333333 0.18666,-2.48 -0.74666,0.133333 -1.2,0.133333 -0.45333,0 -1.2,-0.133333 0.13334,1.146667 0.16,2.48 0.0533,1.306666 0.0533,2.506666 z"
       id="path23" />
    <path
       d="m 254.30391,18.888336 q 0,1.813333 0.56,3.066667 0.58666,1.253333 1.52,2.053333 0.93333,0.773333 2.08,1.12 1.17333,0.32 2.32,0.32 1.28,0 2.45333,-0.453333 1.2,-0.453334 2,-1.093334 0.0267,-0.666666 0.16,-1.306666 l -0.13333,-0.08 q -0.34667,0.4 -0.82667,0.746666 -0.45333,0.346667 -0.98667,0.613334 -0.53333,0.24 -1.09333,0.4 -0.56,0.133333 -1.09333,0.133333 -2.26667,0 -3.44,-1.386667 -1.17334,-1.413333 -1.17334,-4.16 0,-1.226666 0.24,-2.266666 0.26667,-1.066667 0.8,-1.84 0.56,-0.773333 1.41334,-1.2 0.88,-0.453333 2.08,-0.453333 0.64,0 1.17333,0.213333 0.53333,0.186667 0.96,0.506667 0.45333,0.293333 0.77333,0.666666 0.32,0.346667 0.50667,0.693334 h 0.21333 q 0.10667,-0.48 0.24,-0.906667 0.16,-0.453333 0.34667,-0.853333 -0.50667,-0.453334 -1.68,-0.8 -1.14667,-0.373334 -2.61333,-0.373334 -1.28,0 -2.50667,0.4 -1.22667,0.373334 -2.18667,1.2 -0.93333,0.8 -1.52,2.053334 -0.58666,1.253333 -0.58666,2.986666 z"
       id="path25" />
    <path
       d="m 268.27715,12.755003 v 4.826666 q 0,0.906667 -0.0267,1.973334 0,1.066666 -0.0267,2.106666 -0.0267,1.04 -0.08,1.973334 -0.0267,0.933333 -0.08,1.546666 0.61334,-0.05333 1.2,-0.05333 0.58667,0 1.2,0.05333 -0.13333,-1.146666 -0.18666,-2.266666 -0.0267,-1.146667 -0.0267,-2.346667 v -1.6 q 0,-0.32 0.26667,-0.32 0.10666,0 0.21333,0.08 0.10667,0.08 0.18667,0.186667 0.48,0.506666 1.14666,1.28 0.66667,0.773333 1.38667,1.653333 0.74667,0.88 1.49333,1.786667 0.74667,0.88 1.33334,1.546666 0.37333,-0.05333 0.72,-0.05333 0.34666,0 0.64,0 0.34666,0 0.69333,0 0.37333,0 0.82667,0.05333 -1.68,-1.786666 -3.30667,-3.626666 -1.6,-1.84 -3.12,-3.68 1.38667,-1.36 2.90667,-2.666667 1.54666,-1.333333 3.22666,-2.693333 -0.45333,0.05333 -0.74666,0.106667 -0.29334,0.02667 -0.58667,0.02667 -0.48,0 -1.01333,-0.133333 -0.61334,0.72 -1.36,1.52 -0.74667,0.8 -1.46667,1.52 -0.69333,0.693333 -1.28,1.226666 -0.56,0.533334 -0.8,0.72 -0.32,0.24 -0.58667,0.426667 -0.24,0.186667 -0.45333,0.186667 -0.32,0 -0.32,-0.506667 v -4.853333 q 0,-0.906667 0,-1.973333 0.0267,-1.066667 0.0533,-2.106667 0.0267,-1.04 0.0533,-1.9733333 0.0533,-0.96 0.10666,-1.6266666 -0.74666,0.1333333 -1.2,0.1333333 -0.45333,0 -1.2,-0.1333333 0.0533,0.6666666 0.08,1.6266666 0.0533,0.9333333 0.08,1.9733333 0.0267,1.04 0.0267,2.106667 0.0267,1.066666 0.0267,1.973333 z"
       id="path27" />
    <path
       d="m 291.58376,18.755003 v -2.72 h 1.2 q 1.33333,0 2.4,0.16 1.09333,0.16 1.86667,0.586666 0.77333,0.4 1.17333,1.146667 0.42667,0.72 0.42667,1.866667 0,1.066666 -0.34667,1.92 -0.34667,0.826666 -0.93333,1.413333 -0.58667,0.56 -1.38667,0.853333 -0.77333,0.293334 -1.62667,0.293334 -0.72,0 -1.41333,-0.02667 -0.69333,-0.05333 -1.2,-0.106667 -0.0533,-1.36 -0.10667,-2.693333 -0.0533,-1.333333 -0.0533,-2.693333 z m 1.44,-3.706667 h -1.44 v -2 q 0,-1.28 0.0533,-2.533333 0.0533,-1.2533333 0.10667,-2.5333333 0.37333,-0.053333 0.85333,-0.08 0.48,-0.053333 1.17334,-0.053333 0.77333,0 1.54666,0.1333333 0.77334,0.1066667 1.38667,0.48 0.61333,0.3466666 1.01333,1.0133333 0.4,0.64 0.4,1.733333 0,1.12 -0.45333,1.866667 -0.42667,0.72 -1.14667,1.173333 -0.72,0.426667 -1.65333,0.613334 -0.90667,0.186666 -1.84,0.186666 z m -3.62667,-1.306666 v 4.586666 q 0,1.76 -0.08,3.466667 -0.0533,1.68 -0.13333,3.386666 0.64,-0.05333 1.28,-0.05333 0.66667,0 1.30667,0 0.64,0 1.28,0.02667 0.66666,0.02667 1.30666,0.02667 1.17334,0 2.34667,-0.24 1.2,-0.266666 2.18667,-0.88 0.98666,-0.64 1.6,-1.653333 0.61333,-1.013333 0.61333,-2.506667 0,-2.293333 -1.38667,-3.333333 -1.36,-1.04 -3.73333,-1.146666 v -0.05333 q 2,-0.453333 3.22667,-1.573333 1.25333,-1.12 1.25333,-3.093333 0,-1.1200003 -0.45333,-1.866667 -0.45334,-0.7466666 -1.22667,-1.1733333 -0.77333,-0.4533333 -1.78667,-0.6133333 -1.01333,-0.1866667 -2.16,-0.1866667 -0.69333,0 -1.41333,0.08 -0.72,0.053333 -1.41333,0.053333 -0.69334,0 -1.41334,-0.026667 -0.72,-0.053333 -1.41333,-0.1066667 0.08,1.7066666 0.13333,3.4133333 0.08,1.706667 0.08,3.466667 z"
       id="path29" />
    <path
       d="m 311.21037,14.70167 0.18667,-0.133334 q 0,-0.533333 0.0267,-1.173333 0.0267,-0.666667 0.16,-0.986667 -0.26667,-0.106666 -0.45334,-0.133333 -0.16,-0.02667 -0.4,-0.02667 -1.94666,0 -3.52,2.88 l -0.0533,-0.02667 q 0,-0.506667 0,-1.066667 0.0267,-0.56 0.13333,-1.52 -0.29333,0.05333 -0.56,0.106667 -0.26666,0.02667 -0.50666,0.02667 -0.29334,0 -0.56,-0.02667 -0.26667,-0.05333 -0.56,-0.106667 0.08,1.76 0.08,3.12 0.0267,1.36 0.0267,2.4 v 0.853333 q 0,2.266667 -0.0267,3.84 0,1.546667 -0.08,2.453333 0.53333,-0.05333 1.12,-0.05333 0.53333,0 1.06666,0.05333 -0.08,-0.586666 -0.10666,-1.52 0,-0.96 0,-2.746666 v -2.933334 q 0,-0.773333 0.18666,-1.44 0.18667,-0.693333 0.53334,-1.173333 0.34666,-0.506666 0.85333,-0.8 0.50667,-0.293333 1.14667,-0.293333 0.4,0 0.77333,0.133333 0.4,0.133334 0.53333,0.293334 z"
       id="path31" />
    <path
       d="m 315.237,18.888336 q 0,-1.12 0.18667,-2.16 0.21333,-1.04 0.69333,-1.84 0.48,-0.826666 1.28,-1.306666 0.8,-0.48 1.97333,-0.48 1.17334,0 1.97334,0.48 0.8,0.48 1.28,1.306666 0.48,0.8 0.66666,1.84 0.21334,1.04 0.21334,2.16 0,1.12 -0.21334,2.16 -0.18666,1.04 -0.66666,1.866667 -0.48,0.8 -1.28,1.28 -0.8,0.48 -1.97334,0.48 -1.17333,0 -1.97333,-0.48 -0.8,-0.48 -1.28,-1.28 -0.48,-0.826667 -0.69333,-1.866667 -0.18667,-1.04 -0.18667,-2.16 z m -2.34667,0 q 0,1.813333 0.56,3.093333 0.58667,1.253334 1.52,2.053334 0.93334,0.773333 2.08,1.093333 1.17334,0.32 2.32,0.32 1.17334,0 2.32,-0.32 1.14667,-0.32 2.08,-1.093333 0.93334,-0.8 1.49334,-2.053334 0.58666,-1.28 0.58666,-3.093333 0,-1.813333 -0.58666,-3.066666 -0.56,-1.28 -1.49334,-2.053334 -0.93333,-0.8 -2.08,-1.146666 -1.14666,-0.373334 -2.32,-0.373334 -1.14666,0 -2.32,0.373334 -1.14666,0.346666 -2.08,1.146666 -0.93333,0.773334 -1.52,2.053334 -0.56,1.253333 -0.56,3.066666 z"
       id="path33" />
    <path
       d="m 331.61029,25.181669 q 0.32,-0.05333 0.74667,-0.05333 0.42666,0 0.74666,0.05333 0.37334,-1.12 0.85334,-2.506666 0.48,-1.413334 0.96,-2.773334 0.48,-1.36 0.93333,-2.533333 0.45333,-1.2 0.77333,-2 1.06667,2.64 1.89334,5.04 0.82666,2.4 1.52,4.773333 0.13333,-0.05333 0.32,-0.05333 0.18666,0 0.37333,0 0.4,0 0.69333,0.05333 1.14667,-3.146666 2.45334,-6.293333 1.33333,-3.146666 2.85333,-6.373333 -0.45333,0.133333 -0.8,0.133333 -0.32,0 -0.85333,-0.133333 -0.45334,1.253333 -0.98667,2.693333 -0.50667,1.44 -1.01333,2.826667 -0.50667,1.36 -0.98667,2.613333 -0.45333,1.226667 -0.8,2.08 -0.96,-2.666667 -1.84,-5.146667 -0.88,-2.506666 -1.54667,-5.066666 -0.21333,0.05333 -0.37333,0.106667 -0.16,0.02667 -0.37333,0.02667 -0.32,0 -0.8,-0.133333 -0.37334,1.253333 -0.85334,2.72 -0.48,1.466666 -0.96,2.88 -0.48,1.413333 -0.93333,2.64 -0.45333,1.226666 -0.77333,1.973333 -1.04,-2.666667 -1.89334,-5.173333 -0.82666,-2.533333 -1.52,-5.04 -0.34666,0.05333 -0.64,0.106667 -0.29333,0.02667 -0.58666,0.02667 -0.32,0 -0.64,-0.02667 -0.29334,-0.05333 -0.61334,-0.106667 0.66667,1.6 1.33334,3.413333 0.69333,1.786667 1.30666,3.52 0.64,1.706667 1.17334,3.226667 0.53333,1.52 0.85333,2.506666 z"
       id="path35" />
    <path
       d="m 357.9303,17.688336 v 1.626667 q 0,1.546666 -0.08,3.013333 -0.0533,1.466667 -0.10667,2.853333 0.53333,-0.05333 1.09333,-0.05333 0.58667,0 1.12,0.05333 -0.0267,-0.373333 -0.0533,-0.773333 0,-0.426667 0,-0.853333 v -1.733334 q 0,-1.36 0.0533,-2.56 0.0533,-1.226666 0.0533,-2.373333 0,-1.386666 -0.4,-2.266666 -0.37334,-0.906667 -0.98667,-1.413334 -0.61333,-0.533333 -1.38667,-0.746666 -0.74666,-0.213334 -1.49333,-0.213334 -1.44,0 -2.48,0.64 -1.04,0.613334 -1.78667,1.76 h -0.0533 q 0,-1.066666 0.08,-2.133333 -0.34667,0.05333 -0.61333,0.106667 -0.24,0.02667 -0.45334,0.02667 -0.45333,0 -1.2,-0.133333 0.13334,1.146667 0.16,2.48 0.0533,1.306666 0.0533,2.506666 v 2.773334 q 0,1.2 -0.0533,2.533333 -0.0267,1.306667 -0.16,2.373333 0.61334,-0.05333 1.2,-0.05333 0.58667,0 1.2,0.05333 -0.13333,-1.066666 -0.18666,-2.373333 -0.0267,-1.333333 -0.0267,-2.533333 v -2.266667 q 0,-2.08 0.85333,-3.226666 0.88,-1.146667 2.74667,-1.146667 1.36,0 2.13333,1.04 0.77334,1.013333 0.77334,3.013333 z"
       id="path37" />
    <path
       d="m 162.14403,47.101672 v 4.586667 q 0,1.76 -0.08,3.466666 -0.0533,1.706667 -0.13333,3.36 0.61333,-0.05333 1.30667,-0.05333 0.69333,0 1.30666,0.05333 -0.08,-1.653333 -0.16,-3.36 -0.0533,-1.706666 -0.0533,-3.466666 v -2.266667 q 0.85333,0 1.78667,0 0.93333,0 1.84,0.02667 0.90666,0.02667 1.73333,0.08 0.85333,0.02667 1.52,0.106666 -0.10667,-0.4 -0.10667,-0.8 0,-0.4 0.10667,-0.8 -1.68,0.16 -3.41333,0.213334 -1.70667,0.05333 -3.46667,0.05333 0,-0.853333 -0.0267,-1.626667 0,-0.8 0,-1.733333 0,-0.853333 0,-1.706666 0.0267,-0.853334 0.0533,-1.786667 0.64,0 1.6,0.02667 0.98666,0.02667 2.02666,0.08 1.06667,0.02667 2.08,0.106666 1.01334,0.05333 1.73334,0.133334 -0.08,-0.4 -0.08,-0.8 0,-0.4 0.08,-0.8 -1.44,0.05333 -2.66667,0.106666 -1.22667,0.02667 -2.42667,0.02667 -1.2,0 -2.4,-0.02667 -1.17333,-0.05333 -2.37333,-0.106666 0.08,1.76 0.13333,3.466666 0.08,1.68 0.08,3.44 z"
       id="path39" />
    <path
       d="m 174.94398,52.221672 q 0,-1.12 0.18667,-2.16 0.21333,-1.04 0.69333,-1.84 0.48,-0.826667 1.28,-1.306667 0.8,-0.48 1.97333,-0.48 1.17334,0 1.97334,0.48 0.8,0.48 1.28,1.306667 0.48,0.8 0.66666,1.84 0.21334,1.04 0.21334,2.16 0,1.12 -0.21334,2.16 -0.18666,1.04 -0.66666,1.866667 -0.48,0.8 -1.28,1.28 -0.8,0.48 -1.97334,0.48 -1.17333,0 -1.97333,-0.48 -0.8,-0.48 -1.28,-1.28 -0.48,-0.826667 -0.69333,-1.866667 -0.18667,-1.04 -0.18667,-2.16 z m -2.34667,0 q 0,1.813333 0.56,3.093333 0.58667,1.253334 1.52,2.053334 0.93334,0.773333 2.08,1.093333 1.17334,0.32 2.32,0.32 1.17334,0 2.32,-0.32 1.14667,-0.32 2.08,-1.093333 0.93334,-0.8 1.49334,-2.053334 0.58666,-1.28 0.58666,-3.093333 0,-1.813333 -0.58666,-3.066667 -0.56,-1.28 -1.49334,-2.053333 -0.93333,-0.8 -2.08,-1.146667 -1.14666,-0.373333 -2.32,-0.373333 -1.14666,0 -2.32,0.373333 -1.14666,0.346667 -2.08,1.146667 -0.93333,0.773333 -1.52,2.053333 -0.56,1.253334 -0.56,3.066667 z"
       id="path41" />
    <path
       d="m 193.39731,50.835005 q -0.93334,-1.28 -1.78667,-2.48 -0.82667,-1.226666 -1.6,-2.506666 -0.37333,0.05333 -0.72,0.106666 -0.32,0.02667 -0.69333,0.02667 -0.37334,0 -0.72,-0.02667 -0.32,-0.05333 -0.69334,-0.106666 1.28,1.68 2.48,3.28 1.22667,1.6 2.42667,3.226666 -1.2,1.6 -2.42667,3.146667 -1.22666,1.52 -2.50666,3.013333 0.42666,-0.05333 0.90666,-0.05333 0.45334,0 0.88,0.05333 0.90667,-1.306666 1.84,-2.64 0.96,-1.36 1.94667,-2.72 0.96,1.36 1.89333,2.72 0.93334,1.333334 1.81334,2.64 0.37333,-0.05333 0.72,-0.05333 0.34666,0 0.64,0 0.29333,0 0.64,0 0.34666,0 0.72,0.05333 -1.36,-1.706666 -2.66667,-3.413333 -1.28,-1.733333 -2.48,-3.493333 1.2,-1.44 2.4,-2.853334 1.22667,-1.44 2.50667,-2.906666 -0.58667,0.133333 -0.90667,0.133333 -0.24,0 -0.48,-0.02667 -0.21333,-0.05333 -0.45333,-0.106666 -0.88,1.28 -1.81334,2.506666 -0.90666,1.2 -1.86666,2.48 z"
       id="path43" />
    <path
       d="m 206.51725,61.475005 0.21333,0.746667 q 1.17334,0 2.16,-0.453334 1.01334,-0.426666 1.73334,-1.2 0.72,-0.773333 1.09333,-1.786666 0.4,-0.986667 0.4,-2.186667 0,-0.96 -0.0267,-2.106666 0,-1.146667 -0.0267,-2.373334 0,-1.253333 -0.0267,-2.533333 0,-1.28 0,-2.48 0,-1.76 0.0533,-3.44 0.08,-1.706666 0.16,-3.466666 -0.34666,0.05333 -0.66666,0.106666 -0.32,0.02667 -0.64,0.02667 -0.32,0 -0.64,-0.02667 -0.32,-0.05333 -0.66667,-0.106666 0.08,1.76 0.13333,3.466666 0.08,1.68 0.08,3.44 v 7.333333 q 0,1.573334 -0.10666,2.853334 -0.08,1.279999 -0.42667,2.213333 -0.34667,0.933333 -1.01333,1.44 -0.66667,0.533333 -1.78667,0.533333 z"
       id="path45" />
    <path
       d="m 216.19721,54.488339 q 0,2.08 1.17333,3.2 1.2,1.093333 3.28,1.093333 1.28,0 2.37333,-0.586667 1.09334,-0.613333 1.78667,-1.893333 h 0.0533 v 1.146667 q 0,0.293333 -0.0267,0.56 0,0.266666 -0.0267,0.506666 0.53333,-0.05333 1.04,-0.05333 0.50667,0 1.04,0.05333 -0.0533,-1.066666 -0.08,-2.213333 -0.0267,-1.146667 -0.0267,-2.346667 0,-2.16 0.0267,-4.08 0.0267,-1.946666 0.16,-4.026666 -0.26667,0.05333 -0.53333,0.106666 -0.26667,0.02667 -0.56,0.02667 -0.29334,0 -0.56,-0.02667 -0.26667,-0.05333 -0.56,-0.106666 0.0267,0.48 0.0267,1.013333 0.0267,0.533333 0.0267,1.12 v 2.24 q 0,1.573333 -0.0267,2.48 0,0.906667 -0.08,1.44 -0.0533,0.533333 -0.16,0.853333 -0.10666,0.32 -0.29333,0.773334 -0.34667,0.72 -1.09333,1.226666 -0.74667,0.48 -1.86667,0.48 -0.77333,0 -1.36,-0.266666 -0.56,-0.293334 -0.93333,-0.72 -0.34667,-0.373334 -0.58667,-1.093334 -0.24,-0.746666 -0.24,-2.133333 0,-2 0.0533,-3.893333 0.08,-1.92 0.21334,-3.52 -0.66667,0.133333 -1.09334,0.133333 -0.45333,0 -1.12,-0.133333 0.0267,1.12 0.0267,2.213333 0.0267,1.093333 0.0267,2.026667 0,0.986666 -0.0533,2 -0.0267,0.986666 -0.0267,2.4 z"
       id="path47" />
    <path
       d="m 231.0772,50.835005 v 2.773334 q 0,1.2 -0.0533,2.533333 -0.0267,1.306667 -0.16,2.373333 0.61333,-0.05333 1.2,-0.05333 0.58666,0 1.2,0.05333 -0.13334,-1.066666 -0.18667,-2.373333 -0.0267,-1.333333 -0.0267,-2.533333 v -2.266667 q 0,-2.08 0.82667,-3.226667 0.82667,-1.146666 2.58667,-1.146666 0.66666,0 1.28,0.373333 0.64,0.346667 0.93333,0.853333 0.16,0.32 0.24,0.586667 0.10667,0.266667 0.16,0.693333 0.0533,0.4 0.0533,1.12 0.0267,0.693334 0.0267,1.946667 0,1.466667 -0.0533,2.986667 -0.0533,1.52 -0.18667,2.986666 0.61333,-0.05333 1.17333,-0.05333 0.56,0 1.17334,0.05333 -0.0533,-1.12 -0.10667,-2.053333 -0.0267,-0.96 -0.0267,-2.106667 0,-1.893333 0.0267,-2.96 0.0267,-1.093333 0.08,-1.68 0.08,-0.613333 0.18667,-0.906666 0.13333,-0.293334 0.34666,-0.586667 0.37334,-0.506667 1.04,-0.88 0.66667,-0.373333 1.62667,-0.373333 0.8,0 1.33333,0.266666 0.53334,0.24 0.85334,0.666667 0.32,0.426667 0.45333,1.013333 0.16,0.586667 0.16,1.253334 0,3.626666 -0.10667,5.653333 -0.08,2.026667 -0.16,2.693333 0.29334,-0.05333 0.58667,-0.05333 0.29333,0 0.58667,0 0.26666,0 0.56,0 0.29333,0 0.58666,0.05333 -0.0533,-0.773333 -0.08,-1.44 0,-0.666666 0,-1.386666 0,-1.173334 0.0267,-2.053334 0.0267,-0.906666 0.0533,-1.6 0.0267,-0.72 0.0533,-1.253333 0.0267,-0.533333 0.0267,-0.986667 0,-1.12 -0.32,-1.92 -0.29333,-0.8 -0.85333,-1.306666 -0.53333,-0.506667 -1.28,-0.746667 -0.74667,-0.24 -1.62667,-0.24 -1.44,0 -2.56,0.693333 -1.09333,0.666667 -1.73333,1.946667 h -0.0533 q -0.13334,-0.56 -0.50667,-1.04 -0.37333,-0.506667 -0.90667,-0.853333 -0.50666,-0.346667 -1.14666,-0.533334 -0.64,-0.213333 -1.30667,-0.213333 -2.56,0 -3.97333,2.4 h -0.0533 q 0,-1.066667 0.08,-2.133333 -0.34666,0.05333 -0.61333,0.106666 -0.24,0.02667 -0.45333,0.02667 -0.45334,0 -1.2,-0.133333 0.13333,1.146666 0.16,2.48 0.0533,1.306666 0.0533,2.506666 z"
       id="path49" />
    <path
       d="m 252.94382,53.608339 v 4.32 q 0,0.853333 -0.0267,1.893333 0,1.066666 -0.0267,2.106666 -0.0267,1.04 -0.08,1.973334 -0.0267,0.96 -0.08,1.626666 0.74666,-0.133333 1.2,-0.133333 0.45333,0 1.2,0.133333 -0.0533,-0.666666 -0.10667,-1.626666 -0.0267,-0.933334 -0.0533,-1.973334 -0.0267,-1.04 -0.0533,-2.106666 0,-1.04 0,-1.893333 v -1.68 h 0.0533 q 1.25333,2.533333 4.18666,2.533333 1.04,0 2.08,-0.373334 1.04,-0.399999 1.84,-1.226666 0.82667,-0.826667 1.33334,-2.08 0.50666,-1.253333 0.50666,-2.96 0,-1.706667 -0.48,-2.933333 -0.45333,-1.253334 -1.22666,-2.053334 -0.74667,-0.8 -1.73334,-1.173333 -0.98666,-0.4 -2,-0.4 -0.98666,0 -1.76,0.293333 -0.77333,0.293334 -1.33333,0.746667 -0.53333,0.426667 -0.88,0.933333 -0.34667,0.48 -0.53333,0.906667 h -0.0533 q 0,-0.64 0.0533,-1.28 0.0533,-0.64 0.16,-1.333333 -0.74667,0.133333 -1.2,0.133333 -0.45334,0 -1.2,-0.133333 0.0533,0.693333 0.08,1.653333 0.0533,0.96 0.08,2.026667 0.0267,1.04 0.0267,2.106666 0.0267,1.066667 0.0267,1.973334 z m 9.62667,-1.493334 q 0,1.2 -0.24,2.266667 -0.21334,1.04 -0.69334,1.84 -0.45333,0.773333 -1.17333,1.226667 -0.69333,0.426666 -1.65333,0.426666 -3.89334,0 -3.89334,-5.546666 0,-1.146667 0.21334,-2.16 0.21333,-1.04 0.69333,-1.786667 0.48,-0.773333 1.22667,-1.226667 0.77333,-0.453333 1.84,-0.453333 0.64,0 1.30666,0.24 0.66667,0.24 1.17334,0.88 0.53333,0.613333 0.85333,1.653333 0.34667,1.04 0.34667,2.64 z"
       id="path51" />
    <path
       d="m 267.93048,56.035005 h -0.32 q 0,0.4 -0.18667,1.013334 -0.16,0.586666 -0.32,0.933333 0.56,0.32 1.38667,0.56 0.82667,0.24 2.05333,0.24 1.12,0 2,-0.32 0.88,-0.346667 1.49334,-0.933333 0.64,-0.613334 0.96,-1.36 0.34666,-0.746667 0.34666,-1.52 0,-1.12 -0.48,-1.76 -0.45333,-0.64 -1.14666,-0.986667 -0.69334,-0.373333 -1.52,-0.56 -0.82667,-0.213333 -1.52,-0.48 -0.69334,-0.266667 -1.17334,-0.72 -0.45333,-0.48 -0.45333,-1.333333 0,-0.586667 0.21333,-1.013334 0.21334,-0.426666 0.53334,-0.693333 0.32,-0.266667 0.72,-0.4 0.4,-0.133333 0.8,-0.133333 0.90666,0 1.52,0.506666 0.61333,0.506667 0.82666,1.146667 h 0.32 q 0.0533,-0.32 0.24,-0.906667 0.18667,-0.586666 0.4,-0.986666 -0.61333,-0.213334 -1.30666,-0.48 -0.66667,-0.266667 -1.65334,-0.266667 -1.06666,0 -1.89333,0.32 -0.82667,0.293333 -1.38667,0.826667 -0.56,0.533333 -0.85333,1.28 -0.29333,0.72 -0.29333,1.6 0,1.12 0.45333,1.76 0.48,0.64 1.17333,1.04 0.69334,0.373333 1.52,0.586666 0.82667,0.213334 1.52,0.506667 0.69334,0.266667 1.14667,0.72 0.48,0.426667 0.48,1.253333 0,0.586667 -0.21333,1.04 -0.21334,0.453334 -0.58667,0.746667 -0.34667,0.293333 -0.82667,0.453333 -0.45333,0.16 -0.96,0.16 -0.56,0 -1.06666,-0.186666 -0.48,-0.186667 -0.88,-0.453334 -0.37334,-0.293333 -0.66667,-0.613333 -0.26667,-0.32 -0.4,-0.586667 z"
       id="path53" />
    <path
       d="m 284.94381,49.395005 q 0,2.266667 0.72,4.053334 0.74666,1.76 2.05333,2.986666 1.33333,1.226667 3.17333,1.84 1.84,0.586667 4.02667,0.586667 2.21333,0 4.05333,-0.586667 1.84,-0.613333 3.14667,-1.84 1.33333,-1.226666 2.05333,-2.986666 0.74667,-1.786667 0.74667,-4.053334 0,-2.266666 -0.74667,-4.026666 -0.72,-1.786667 -2.05333,-3.013333 -1.30667,-1.226667 -3.14667,-1.866667 -1.84,-0.64 -4.05333,-0.64 -2.18667,0 -4.02667,0.64 -1.84,0.64 -3.17333,1.866667 -1.30667,1.226666 -2.05333,3.013333 -0.72,1.76 -0.72,4.026666 z m 17.36,0 q 0,2.213334 -0.56,3.84 -0.56,1.6 -1.57334,2.666667 -0.98666,1.04 -2.34666,1.546667 -1.33334,0.506666 -2.90667,0.506666 -1.54667,0 -2.90667,-0.506666 -1.33333,-0.506667 -2.34666,-1.546667 -0.98667,-1.066667 -1.54667,-2.666667 -0.56,-1.626666 -0.56,-3.84 0,-2.213333 0.56,-3.813333 0.56,-1.626666 1.54667,-2.666666 1.01333,-1.066667 2.34666,-1.573334 1.36,-0.506666 2.90667,-0.506666 1.57333,0 2.90667,0.506666 1.36,0.506667 2.34666,1.573334 1.01334,1.04 1.57334,2.666666 0.56,1.6 0.56,3.813333 z"
       id="path55" />
    <path
       d="m 311.77043,58.515005 q 0.42666,-0.05333 0.85333,-0.05333 0.42667,0 0.82667,0.05333 1.14666,-3.146666 2.53333,-6.293333 1.38667,-3.146667 2.82667,-6.373333 -0.48,0.133333 -0.82667,0.133333 -0.34667,0 -0.82667,-0.133333 -0.48,1.306666 -0.98666,2.693333 -0.48,1.36 -1.01334,2.72 -0.50666,1.36 -1.04,2.64 -0.50666,1.253333 -1.04,2.346667 -1.2,-2.666667 -2.18666,-5.2 -0.96,-2.56 -1.78667,-5.2 -0.29333,0.05333 -0.58667,0.106666 -0.29333,0.02667 -0.58666,0.02667 -0.34667,0 -0.66667,-0.02667 -0.32,-0.05333 -0.66667,-0.106666 1.46667,3.226666 2.69334,6.373333 1.25333,3.146667 2.48,6.293333 z"
       id="path57" />
    <path
       d="m 326.14369,46.435005 q 1.04,0 1.68,0.453334 0.64,0.453333 0.98666,1.146666 0.37334,0.693334 0.48,1.493334 0.13334,0.8 0.13334,1.52 -0.85334,0.02667 -1.76,0.05333 -0.90667,0.02667 -1.78667,0.02667 -0.85333,0 -1.76,-0.02667 -0.88,-0.02667 -1.70667,-0.05333 0.0533,-0.72 0.26667,-1.52 0.24,-0.826667 0.66667,-1.493334 0.45333,-0.693333 1.12,-1.146666 0.69333,-0.453334 1.68,-0.453334 z m -6.16,6.16 q 0,1.333334 0.45333,2.48 0.48,1.146667 1.33333,2 0.88,0.826667 2.05334,1.28 1.2,0.426667 2.64,0.426667 1.28,0 2.45333,-0.453334 1.2,-0.453333 2,-1.093333 l 0.16,-1.306666 -0.13333,-0.08 q -0.34667,0.4 -0.82667,0.746666 -0.45333,0.346667 -0.98667,0.613334 -0.53333,0.24 -1.09333,0.4 -0.56,0.133333 -1.09333,0.133333 -1.12,0 -1.97334,-0.373333 -0.85333,-0.4 -1.44,-1.04 -0.58666,-0.666667 -0.90666,-1.573334 -0.29334,-0.906666 -0.29334,-1.946666 v -0.346667 q 0,-0.266667 0.0267,-0.4 0.88,-0.02667 1.73333,-0.05333 0.88,-0.02667 1.76,-0.02667 1.44,0 2.85334,0.02667 1.41333,0.02667 2.85333,0.05333 0.0267,-0.266667 0.0267,-0.506667 0.0267,-0.266666 0.0267,-0.533333 0,-1.12 -0.34666,-2.106667 -0.32,-0.986666 -1.01334,-1.706666 -0.69333,-0.746667 -1.73333,-1.173334 -1.01333,-0.453333 -2.42667,-0.453333 -2.98666,0 -4.56,1.866667 -1.54666,1.866666 -1.54666,5.146666 z"
       id="path59" />
    <path
       d="m 340.51697,48.035005 0.18667,-0.133333 q 0,-0.533333 0.0267,-1.173333 0.0267,-0.666667 0.16,-0.986667 -0.26666,-0.106667 -0.45333,-0.133333 -0.16,-0.02667 -0.4,-0.02667 -1.94667,0 -3.52,2.88 l -0.0533,-0.02667 q 0,-0.506666 0,-1.066666 0.0267,-0.56 0.13333,-1.52 -0.29333,0.05333 -0.56,0.106666 -0.26667,0.02667 -0.50667,0.02667 -0.29333,0 -0.56,-0.02667 -0.26666,-0.05333 -0.56,-0.106666 0.08,1.76 0.08,3.12 0.0267,1.36 0.0267,2.4 v 0.853333 q 0,2.266667 -0.0267,3.84 0,1.546667 -0.08,2.453333 0.53334,-0.05333 1.12,-0.05333 0.53334,0 1.06667,0.05333 -0.08,-0.586666 -0.10667,-1.52 0,-0.96 0,-2.746666 v -2.933334 q 0,-0.773333 0.18667,-1.44 0.18667,-0.693333 0.53333,-1.173333 0.34667,-0.506667 0.85334,-0.8 0.50666,-0.293333 1.14666,-0.293333 0.4,0 0.77334,0.133333 0.4,0.133333 0.53333,0.293333 z"
       id="path61" />
    <path
       d="m 165.8507,80.435008 v 4.586667 q 0,1.759999 -0.08,3.466666 -0.0533,1.706667 -0.13333,3.36 0.61333,-0.05333 1.30666,-0.05333 0.69334,0 1.30667,0.05333 -0.08,-1.653333 -0.16,-3.36 -0.0533,-1.706667 -0.0533,-3.466666 v -4.586667 q 0,-2.773333 0.08,-5.52 0.69333,0 1.44,0.02667 0.77333,0 1.52,0.05333 0.77333,0.02667 1.46666,0.08 0.72,0.05333 1.28,0.133333 -0.13333,-0.48 -0.13333,-0.826666 0,-0.32 0.13333,-0.853334 -1.76,0.05333 -3.44,0.106667 -1.68,0.02667 -3.44,0.02667 -1.76,0 -3.44,-0.02667 -1.68,-0.05333 -3.44,-0.106667 0.13334,0.533334 0.13334,0.826667 0,0.373333 -0.13334,0.853333 0.56,-0.08 1.25334,-0.133333 0.72,-0.05333 1.46666,-0.08 0.77334,-0.05333 1.52,-0.05333 0.77334,-0.02667 1.46667,-0.02667 0.08,2.746667 0.08,5.52 z"
       id="path63" />
    <path
       d="m 175.39736,79.421675 v 4.826666 q 0,0.906667 -0.0267,1.973334 0,1.066666 -0.0267,2.106666 -0.0267,1.04 -0.08,1.973333 -0.0267,0.933334 -0.08,1.546667 0.61334,-0.05333 1.2,-0.05333 0.58667,0 1.2,0.05333 -0.0533,-0.586667 -0.10666,-1.52 -0.0267,-0.933333 -0.0533,-1.92 -0.0267,-1.013333 -0.0533,-2 0,-0.986666 0,-1.733333 0,-2.08 0.85333,-3.226667 0.88,-1.146666 2.74667,-1.146666 1.36,0 2.13333,1.04 0.77334,1.013333 0.77334,3.013333 v 1.626667 q 0,1.546666 -0.08,3.013333 -0.0533,1.466666 -0.10667,2.853333 0.53333,-0.05333 1.09333,-0.05333 0.58667,0 1.12,0.05333 -0.0267,-0.373333 -0.0533,-0.773333 0,-0.426667 0,-0.853334 v -1.733333 q 0,-1.36 0.0533,-2.56 0.0533,-1.226666 0.0533,-2.373333 0,-1.386667 -0.4,-2.266667 -0.37334,-0.906666 -0.98667,-1.413333 -0.61333,-0.533333 -1.38667,-0.746667 -0.74666,-0.213333 -1.49333,-0.213333 -1.44,0 -2.48,0.64 -1.04,0.613333 -1.78667,1.76 h -0.0533 v -2.026667 q 0,-0.88 0,-1.92 0.0267,-1.04 0.0533,-2.053333 0.0267,-1.04 0.0533,-1.973333 0.0533,-0.933333 0.10666,-1.6 -0.74666,0.133333 -1.2,0.133333 -0.45333,0 -1.2,-0.133333 0.0533,0.666667 0.08,1.626666 0.0533,0.933334 0.08,1.973334 0.0267,1.04 0.0267,2.106666 0.0267,1.066667 0.0267,1.973334 z"
       id="path65" />
    <path
       d="m 195.07735,79.768341 q 1.04,0 1.68,0.453334 0.64,0.453333 0.98667,1.146666 0.37333,0.693334 0.48,1.493334 0.13333,0.8 0.13333,1.52 -0.85333,0.02667 -1.76,0.05333 -0.90667,0.02667 -1.78667,0.02667 -0.85333,0 -1.76,-0.02667 -0.88,-0.02667 -1.70666,-0.05333 0.0533,-0.72 0.26666,-1.52 0.24,-0.826667 0.66667,-1.493334 0.45333,-0.693333 1.12,-1.146666 0.69333,-0.453334 1.68,-0.453334 z m -6.16,6.16 q 0,1.333333 0.45333,2.48 0.48,1.146667 1.33334,2 0.88,0.826667 2.05333,1.28 1.2,0.426667 2.64,0.426667 1.28,0 2.45333,-0.453334 1.2,-0.453333 2,-1.093333 l 0.16,-1.306667 -0.13333,-0.08 q -0.34667,0.4 -0.82667,0.746667 -0.45333,0.346667 -0.98666,0.613333 -0.53334,0.24 -1.09334,0.4 -0.56,0.133334 -1.09333,0.133334 -1.12,0 -1.97333,-0.373334 -0.85334,-0.4 -1.44,-1.04 -0.58667,-0.666666 -0.90667,-1.573333 -0.29333,-0.906667 -0.29333,-1.946666 v -0.346667 q 0,-0.266667 0.0267,-0.4 0.88,-0.02667 1.73334,-0.05333 0.88,-0.02667 1.76,-0.02667 1.44,0 2.85333,0.02667 1.41333,0.02667 2.85333,0.05333 0.0267,-0.266667 0.0267,-0.506667 0.0267,-0.266666 0.0267,-0.533333 0,-1.12 -0.34667,-2.106667 -0.32,-0.986666 -1.01333,-1.706666 -0.69334,-0.746667 -1.73334,-1.173334 -1.01333,-0.453333 -2.42666,-0.453333 -2.98667,0 -4.56,1.866667 -1.54667,1.866666 -1.54667,5.146666 z"
       id="path67" />
    <path
       d="m 211.34396,80.435008 v 4.586667 q 0,1.759999 -0.08,3.466666 -0.0533,1.706667 -0.13333,3.36 1.28,-0.05333 2.45333,-0.05333 1.2,0 2.48,0 1.22667,0 2.45334,0 1.22666,0 2.45333,0.05333 -0.13333,-0.426667 -0.13333,-0.72 0,-0.32 0.13333,-0.8 -2,0.266667 -3.73333,0.32 -1.73334,0.02667 -3.62667,0.02667 -0.0267,-1.946667 -0.0533,-4.4 -0.0267,-2.48 -0.0267,-5.84 0,-1.76 0.0533,-3.44 0.08,-1.706667 0.16,-3.466667 -0.34666,0.05333 -0.66666,0.106667 -0.32,0.02667 -0.64,0.02667 -0.32,0 -0.64,-0.02667 -0.32,-0.05333 -0.66667,-0.106667 0.08,1.76 0.13333,3.466667 0.08,1.68 0.08,3.44 z"
       id="path69" />
    <path
       d="m 230.94391,85.208341 -0.10667,4 q -0.45333,0.746667 -1.30666,1.306667 -0.82667,0.56 -1.84,0.56 -0.88,0 -1.6,-0.64 -0.72,-0.64 -0.72,-1.893334 0,-0.746666 0.26666,-1.226666 0.29334,-0.48 0.74667,-0.8 0.48,-0.32 1.06667,-0.506667 0.61333,-0.186666 1.22666,-0.293333 0.61334,-0.133333 1.2,-0.24 0.61334,-0.106667 1.06667,-0.266667 z m -6.58667,-4.746666 v 1.386666 h 0.29334 q 0.45333,-0.853333 1.36,-1.333333 0.93333,-0.48 2,-0.48 0.8,0 1.36,0.293333 0.56,0.266667 0.90666,0.72 0.34667,0.453334 0.50667,1.066667 0.16,0.613333 0.16,1.28 0,0.4 -0.08,0.666667 -0.08,0.24 -0.48,0.426666 -0.37333,0.186667 -1.2,0.373334 -0.8,0.16 -2.24,0.4 -1.76,0.293333 -2.77333,1.173333 -0.98667,0.88 -0.98667,2.48 0,0.773333 0.29333,1.386666 0.32,0.586667 0.8,1.013334 0.50667,0.426666 1.14667,0.613333 0.64,0.186667 1.30667,0.186667 1.36,0 2.29333,-0.453334 0.93333,-0.453333 1.89333,-1.413333 0.08,0.693333 0.53334,1.146667 0.45333,0.426666 1.30666,0.426666 0.53334,0 0.96,-0.08 0.45334,-0.08 0.74667,-0.213333 v -0.586667 q -0.13333,0.08 -0.29333,0.106667 -0.13334,0 -0.26667,0 -0.4,0 -0.61333,-0.186667 -0.18667,-0.186666 -0.29334,-0.453333 -0.10666,-0.293333 -0.13333,-0.64 0,-0.373333 0,-0.693333 0,-1.68 0.0533,-3.173333 0.0533,-1.52 0.0533,-3.04 0,-0.88 -0.32,-1.6 -0.32,-0.746667 -0.88,-1.253334 -0.56,-0.533333 -1.36,-0.8 -0.8,-0.293333 -1.76,-0.293333 -1.06667,0 -2.08,0.32 -1.01334,0.32 -2.21334,1.226667 z"
       id="path71" />
    <path
       d="m 236.30386,91.555008 v 0.293333 q 1.2,-0.05333 2.34667,-0.05333 1.17333,0 2.37333,0 1.68,0 3.33333,0 1.65334,0 3.33334,0.05333 -0.10667,-0.24 -0.10667,-0.666667 0,-0.426666 0.10667,-0.746666 -1.41334,0.133333 -2.48,0.213333 -1.06667,0.05333 -2,0.106667 -0.93334,0.02667 -1.86667,0.05333 -0.90667,0 -2,0 0.50667,-0.693333 1.49333,-2 0.98667,-1.333333 2.18667,-2.906666 1.2,-1.6 2.45333,-3.253334 1.28,-1.68 2.34667,-3.066666 v -0.4 q -0.42667,0.02667 -0.82667,0.05333 -0.37333,0.02667 -0.77333,0.05333 -0.4,0.02667 -0.88,0.02667 -0.45333,0 -1.01333,0 -2.50667,0 -4.16,-0.02667 -1.65334,-0.02667 -2.50667,-0.106666 0.08,0.426666 0.08,0.773333 0,0.373333 -0.08,0.746667 0.74667,-0.08 1.89333,-0.133334 1.17334,-0.08 2.29334,-0.133333 1.12,-0.08 1.97333,-0.106667 0.88,-0.02667 1.06667,-0.02667 -0.72,0.96 -1.73334,2.32 -0.98666,1.36 -2.13333,2.88 -1.14667,1.519999 -2.37333,3.093333 -1.2,1.573333 -2.34667,2.96 z"
       id="path73" />
    <path
       d="m 254.65048,91.875008 q -1.46667,3.493333 -3.57334,6.986666 0.53334,-0.133333 0.90667,-0.133333 0.37333,0 0.90667,0.133333 0.21333,-0.666666 0.64,-1.813333 0.45333,-1.12 1.04,-2.533333 0.58666,-1.386667 1.28,-2.933334 0.69333,-1.573333 1.38666,-3.146666 0.72,-1.6 1.38667,-3.093333 0.69333,-1.52 1.25333,-2.746667 0.58667,-1.253333 0.98667,-2.133333 0.42667,-0.906667 0.61333,-1.28 -0.53333,0.133333 -0.88,0.133333 -0.34666,0 -0.88,-0.133333 -0.8,2.56 -1.84,5.226666 -1.01333,2.666667 -2.13333,5.013333 -1.12,-2.666666 -2.13333,-5.173333 -1.01334,-2.506666 -1.84,-5.066666 -0.34667,0.05333 -0.64,0.106666 -0.29334,0.02667 -0.58667,0.02667 -0.29333,0 -0.58667,-0.02667 -0.29333,-0.05333 -0.64,-0.106666 0.18667,0.426666 0.56,1.306666 0.37334,0.88 0.85334,2.053334 0.50666,1.146666 1.06666,2.48 0.56,1.306666 1.09334,2.586666 0.53333,1.253333 0.98666,2.4 0.48,1.146667 0.77334,1.866667 z"
       id="path75" />
    <path
       d="m 272.09042,80.435008 v 4.586667 q 0,1.759999 -0.08,3.466666 -0.0533,1.706667 -0.13333,3.36 0.90667,-0.05333 1.78667,-0.05333 0.88,0 1.78666,0 0.90667,0 1.78667,0.02667 0.88,0.02667 1.78667,0.02667 1.57333,0 3.28,-0.453333 1.73333,-0.48 3.14666,-1.6 1.44,-1.12 2.34667,-2.933334 0.93333,-1.839999 0.93333,-4.506666 0,-2.053333 -0.50666,-3.68 -0.48,-1.653333 -1.54667,-2.773333 -1.06667,-1.146667 -2.74667,-1.76 -1.65333,-0.613334 -4,-0.613334 -1.01333,0 -2.02666,0.08 -0.98667,0.05333 -2,0.05333 -1.01334,0 -2.02667,-0.02667 -0.98667,-0.05333 -2,-0.106667 0.08,1.76 0.13333,3.466667 0.08,1.68 0.08,3.44 z m 2.18667,4.586667 v -4.586667 q 0,-1.44 0.0267,-2.826667 0.0533,-1.413333 0.13333,-2.693333 0.82667,-0.106667 1.86667,-0.186667 1.04,-0.08 2.24,-0.08 1.65333,0 3.04,0.346667 1.38666,0.32 2.37333,1.2 1.01333,0.853333 1.57333,2.346667 0.58667,1.493333 0.58667,3.813333 0,2.64 -0.74667,4.32 -0.72,1.653333 -1.89333,2.613333 -1.14667,0.96 -2.61333,1.306667 -1.46667,0.346666 -2.93334,0.346666 -1.01333,0 -1.97333,-0.05333 -0.96,-0.08 -1.52,-0.213333 -0.16,-2.773334 -0.16,-5.653333 z"
       id="path77" />
    <path
       d="m 293.50375,85.555008 q 0,-1.12 0.18667,-2.16 0.21333,-1.04 0.69333,-1.84 0.48,-0.826667 1.28,-1.306667 0.8,-0.48 1.97334,-0.48 1.17333,0 1.97333,0.48 0.8,0.48 1.28,1.306667 0.48,0.8 0.66667,1.84 0.21333,1.04 0.21333,2.16 0,1.12 -0.21333,2.16 -0.18667,1.04 -0.66667,1.866666 -0.48,0.8 -1.28,1.28 -0.8,0.48 -1.97333,0.48 -1.17334,0 -1.97334,-0.48 -0.8,-0.48 -1.28,-1.28 -0.48,-0.826666 -0.69333,-1.866666 -0.18667,-1.04 -0.18667,-2.16 z m -2.34666,0 q 0,1.813333 0.56,3.093333 0.58666,1.253333 1.52,2.053333 0.93333,0.773334 2.08,1.093334 1.17333,0.32 2.32,0.32 1.17333,0 2.32,-0.32 1.14666,-0.32 2.08,-1.093334 0.93333,-0.8 1.49333,-2.053333 0.58667,-1.28 0.58667,-3.093333 0,-1.813333 -0.58667,-3.066667 -0.56,-1.28 -1.49333,-2.053333 -0.93334,-0.8 -2.08,-1.146667 -1.14667,-0.373333 -2.32,-0.373333 -1.14667,0 -2.32,0.373333 -1.14667,0.346667 -2.08,1.146667 -0.93334,0.773333 -1.52,2.053333 -0.56,1.253334 -0.56,3.066667 z"
       id="path79" />
    <path
       d="m 315.85041,94.675008 q 0,0.906666 -0.37333,1.546666 -0.37333,0.666667 -0.98667,1.093334 -0.58666,0.426666 -1.36,0.64 -0.77333,0.213333 -1.57333,0.213333 -0.82667,0 -1.54667,-0.186667 -0.72,-0.186666 -1.25333,-0.586666 -0.50667,-0.4 -0.82667,-1.04 -0.29333,-0.64 -0.29333,-1.546667 0,-1.706667 1.09333,-2.373333 1.09334,-0.64 3.09334,-0.64 2.16,0 3.09333,0.64 0.93333,0.64 0.93333,2.24 z m -1.44,-11.546667 q 0,0.746667 -0.18666,1.44 -0.16,0.666667 -0.53334,1.2 -0.34666,0.506667 -0.90666,0.826667 -0.53334,0.293333 -1.30667,0.293333 -1.54667,0 -2.29333,-0.96 -0.72,-0.986666 -0.72,-2.666666 0,-1.626667 0.8,-2.586667 0.8,-0.986667 2.24,-0.986667 1.30666,0 2.10666,0.88 0.8,0.88 0.8,2.56 z m -8.02666,0.133334 q 0,1.466666 0.69333,2.453333 0.69333,0.96 1.92,1.493333 v 0.05333 q -0.32,0.05333 -0.66667,0.24 -0.34666,0.186667 -0.61333,0.48 -0.26667,0.293334 -0.45333,0.666667 -0.16,0.373333 -0.16,0.826667 0,0.773333 0.42666,1.333333 0.42667,0.56 1.25334,0.8 v 0.05333 q -0.53334,0.133334 -1.04,0.4 -0.50667,0.266667 -0.90667,0.72 -0.4,0.453334 -0.66666,1.04 -0.24,0.586667 -0.24,1.28 0,1.786667 1.49333,2.8 1.49333,1.04 4.08,1.04 1.68,0 2.88,-0.506666 1.2,-0.506667 1.94666,-1.28 0.77334,-0.773334 1.12,-1.733334 0.37334,-0.96 0.37334,-1.893333 0,-0.693333 -0.26667,-1.28 -0.24,-0.586667 -0.8,-1.04 -0.53333,-0.453333 -1.41333,-0.72 -0.85334,-0.266667 -2.08,-0.293333 -0.74667,-0.02667 -1.46667,-0.02667 -0.72,-0.02667 -1.46667,-0.05333 -0.90666,-0.02667 -1.25333,-0.346667 -0.32,-0.32 -0.32,-1.013333 0,-0.533334 0.4,-0.88 0.42667,-0.346667 0.90667,-0.346667 0.37333,0 0.72,0.02667 0.37333,0.02667 0.74666,0.02667 2.26667,0 3.6,-1.12 1.36,-1.146666 1.36,-3.146666 0,-1.013333 -0.50666,-1.946667 -0.50667,-0.96 -1.33334,-1.413333 l 0.0533,-0.05333 q 0.72,0.02667 1.44,0.106666 0.74666,0.05333 1.52,0.106667 -0.0267,-0.133333 -0.0533,-0.266667 0,-0.16 0,-0.293333 0,-0.133333 0,-0.266667 0.0267,-0.16 0.0533,-0.293333 -0.66667,0.133333 -2.16,0.133333 -0.29334,0 -0.77334,-0.02667 -0.48,-0.02667 -1.09333,-0.08 -0.72,-0.05333 -1.2,-0.08 -0.45333,-0.02667 -0.96,-0.02667 -1.04,0 -1.97333,0.266667 -0.90667,0.266666 -1.62667,0.8 -0.69333,0.533333 -1.09333,1.36 -0.4,0.8 -0.4,1.92 z"
       id="path81" />
  </g>
</svg>
