<?xml version="1.0" encoding="UTF-8" standalone="no"?>
<svg
   xmlns:dc="http://purl.org/dc/elements/1.1/"
   xmlns:cc="http://creativecommons.org/ns#"
   xmlns:rdf="http://www.w3.org/1999/02/22-rdf-syntax-ns#"
   xmlns:svg="http://www.w3.org/2000/svg"
   xmlns="http://www.w3.org/2000/svg"
   viewBox="160.091 4.39917 207.383 94.7917"
   version="1.1"
   id="svg2">
  <metadata
     id="metadata11">
    <rdf:RDF>
      <cc:Work
         rdf:about="">
        <dc:format>image/svg+xml</dc:format>
        <dc:type
           rdf:resource="http://purl.org/dc/dcmitype/StillImage" />
      </cc:Work>
    </rdf:RDF>
  </metadata>
  <defs
     id="defs9" />
  <g
     aria-label="The Quick BrownFox Jumps OverThe Lazy Dog"
     id="text4521"
     style="font-style:normal;font-variant:normal;font-weight:normal;font-stretch:normal;font-size:26.6667px;line-height:125%;font-family:Palatino, 'URW Palladio L', serif;font-variant-ligatures:normal;font-variant-caps:normal;font-variant-numeric:normal;font-feature-settings:normal;text-align:left;letter-spacing:0px;word-spacing:0px;writing-mode:lr-tb;text-anchor:start;fill:#000000;fill-opacity:1;stroke:none;stroke-width:1px;stroke-linecap:butt;stroke-linejoin:miter;stroke-opacity:1">
    <path
       d="m 161.0281,10.935628 h -0.8073 q -0.013,-3.1119791 -0.1302,-4.3098958 1.41927,0.052083 4.45312,0.1302084 2.46094,0.052083 3.28125,0.052083 0.88542,0 4.10156,-0.078125 2.33073,-0.052083 3.39844,-0.1041667 -0.15625,1.4583333 -0.20833,4.3098958 h -0.83334 l -0.10416,-1.25 q -0.10417,-1.1328125 -0.14323,-1.2890625 -0.0391,-0.15625 -0.11719,-0.2213541 -0.0651,-0.065104 -0.20833,-0.1041667 -0.18229,-0.039063 -1.30209,-0.1041667 -1.11979,-0.065104 -1.77083,-0.065104 h -1.58854 q -0.13021,1.2499999 -0.13021,3.3723961 v 7.617187 q 0,1.770833 0.0391,3.450521 0.0391,1.236979 0.1823,1.471354 0.15625,0.234375 0.48177,0.351562 0.33854,0.104167 1.88802,0.130209 v 0.833333 q -2.33073,-0.104167 -3.50261,-0.104167 -0.50781,0 -4.0625,0.104167 v -0.833333 q 1.54948,-0.02604 1.88802,-0.130209 0.33855,-0.117187 0.45573,-0.3125 0.16927,-0.260416 0.20834,-1.26302 0,-0.273438 0.0521,-3.697917 v -7.591146 q 0,-0.546875 -0.026,-1.197916 l -0.0781,-2.2005211 h -1.9401 q -1.67969,0 -2.66927,0.1302083 -0.3125,0.039063 -0.40365,0.1692708 -0.14323,0.2213542 -0.26041,1.4192708 z"
       id="path13" />
    <path
       d="m 176.04112,25.128336 v -0.742188 l 1.22395,-0.01302 q 0.28646,-0.01302 0.42969,-0.09115 0.15625,-0.09115 0.23438,-0.221354 0.14323,-0.260417 0.16927,-0.924479 0.013,-0.169271 0.0911,-3.73698 v -6.73177 q 0,-2.174479 -0.0781,-4.4921876 -0.0521,-1.5625 -0.14323,-1.7447917 -0.0651,-0.1302083 -0.20833,-0.1822916 -0.19532,-0.091146 -1.79688,-0.091146 V 5.3887531 q 2.94271,-0.3645833 4.08854,-0.9114583 0.16927,-0.078125 0.26042,-0.078125 0.0911,0 0.14323,0.065104 0.0521,0.052083 0.0521,0.15625 0,0.091146 -0.026,0.2604167 l -0.013,0.4296875 q -0.0651,2.3307291 -0.0781,3.9713541 l -0.026,2.0312498 v 3.802083 q 0.18229,-0.143229 1.02865,-0.885416 0.84635,-0.742188 1.0026,-0.885417 0.2474,-0.234375 0.39063,-0.3125 0.24739,-0.130208 0.74219,-0.260417 0.67708,-0.182291 1.3151,-0.182291 1.19792,0 2.26562,0.572916 1.08073,0.559896 1.4974,1.419271 0.41667,0.859375 0.41667,2.539063 v 2.291666 l 0.0391,1.796875 q 0.0391,1.679688 0.0391,1.888021 0.026,0.625 0.15625,0.911458 0.0521,0.130209 0.15625,0.221354 0.10417,0.07813 0.3125,0.117188 0.0781,0.01302 1.35417,0.03906 v 0.742188 q -1.48438,-0.0651 -2.16146,-0.0651 -0.57292,0 -2.35677,0.0651 0.18229,-1.927083 0.18229,-3.75 v -3.229167 q 0,-1.510416 -0.22135,-2.174479 -0.22136,-0.664062 -0.91146,-1.184895 -0.67708,-0.533855 -1.8099,-0.533855 -0.71614,0 -1.27604,0.208334 -0.55989,0.208333 -1.02864,0.625 -0.46875,0.416666 -0.79428,0.898437 -0.15625,0.234375 -0.20833,0.572917 -0.0521,0.325521 -0.0521,1.328125 v 1.523437 q 0.0651,3.372396 0.0781,3.645834 0.026,0.651041 0.15625,0.95052 0.0521,0.130209 0.15625,0.221354 0.10417,0.07813 0.3125,0.117188 0.0911,0.01302 1.44532,0.03906 v 0.742188 q -2.31771,-0.09115 -3.20313,-0.09115 -0.76823,0 -3.34635,0.09115 z"
       id="path15" />
    <path
       d="m 202.90309,23.110107 -0.41666,0.9375 q -0.89844,0.559896 -1.31511,0.742187 -0.61198,0.273438 -1.40625,0.455729 -0.78125,0.195313 -1.65364,0.195313 -1.71875,0 -3.11198,-0.716146 -1.39323,-0.716146 -2.17448,-2.135416 -0.76823,-1.432292 -0.76823,-3.346355 0,-1.497395 0.40365,-2.695312 0.41666,-1.210937 0.9375,-1.783854 0.3776,-0.416667 1.17187,-0.950521 0.79427,-0.546875 1.57552,-0.859375 1.02865,-0.429687 2.22656,-0.429687 1.45834,0 2.63021,0.664062 1.1849,0.664063 1.73177,1.809896 0.54688,1.145833 0.54688,2.591146 0,0.364583 -0.0521,0.885416 -0.9375,0.182292 -1.67968,0.234375 -1.40625,0.104167 -2.8125,0.104167 h -4.17969 q 0.026,1.861979 0.63802,3.020833 0.625,1.145834 1.70573,1.692708 1.09375,0.546875 2.26562,0.546875 0.79428,0 1.57553,-0.247395 0.79427,-0.260417 1.95312,-0.9375 z m -8.34635,-5.325521 q 0.36458,0.03906 1.38021,0.07813 1.9401,0.0651 2.66927,0.0651 1.73177,0 2.27864,-0.0651 0.013,-0.3125 0.013,-0.481771 0,-2.057291 -0.83334,-3.020833 -0.83333,-0.963542 -2.22656,-0.963542 -1.47135,0 -2.36979,1.054688 -0.89844,1.054687 -0.91146,3.333333 z"
       id="path17" />
    <path
       d="m 217.87705,28.461669 v -0.846354 q 2.13542,-1.666667 3.38542,-2.109375 -3.29427,0 -5.32552,-1.080729 -2.03125,-1.080729 -3.25521,-3.398437 -1.22396,-2.317709 -1.22396,-5.169271 0,-4.192708 2.77344,-6.8880208 2.77344,-2.7083333 7.29167,-2.7083333 2.2526,0 4.03645,0.6380208 1.78386,0.6380208 2.95573,1.7578125 1.1849,1.1067708 1.8099,2.4479168 0.84635,1.809896 0.84635,4.153646 0,2.786458 -1.17187,5.039062 -1.15886,2.239583 -3.39844,3.619791 -2.23958,1.380209 -5.05208,1.588542 0.70312,0.117188 1.26302,0.273438 0.55989,0.16927 1.61458,0.598958 2.36979,0.950521 3.45052,1.223958 1.09375,0.286459 1.875,0.286459 0.52084,0 1.38021,-0.273438 v 0.664063 q -0.26042,0.195312 -0.625,0.390625 -0.6901,0.390625 -0.96354,0.572916 -0.26042,0.195313 -0.52083,0.442709 -0.1823,0 -0.84636,-0.09115 -0.66406,-0.09115 -1.36719,-0.286459 -0.6901,-0.182291 -2.44791,-0.79427 -3.32031,-1.132813 -4.07552,-1.132813 -0.26042,0 -0.54688,0.09115 -0.28646,0.09115 -0.65104,0.286458 z M 214.16612,15.19344 q 0,1.276042 0.33854,2.760417 0.35156,1.484375 0.9375,2.604167 0.59896,1.119791 1.47135,1.966145 0.8724,0.846354 2.01823,1.328125 1.14583,0.481771 2.68229,0.481771 2.09636,0 3.65886,-0.963542 1.5625,-0.963541 2.35677,-2.864583 0.79427,-1.901041 0.79427,-4.335937 0,-2.005208 -0.54688,-3.710938 -0.53385,-1.705729 -1.45833,-2.7864578 -0.92448,-1.09375 -2.33073,-1.6927083 -1.40625,-0.6119792 -3.125,-0.6119792 -3.13802,0 -4.97396,1.9661458 -1.82291,1.9661455 -1.82291,5.8593745 z"
       id="path19" />
    <path
       d="m 247.19997,24.386148 v 0.742188 q -1.70573,-0.09115 -2.57812,-0.09115 -0.96355,0 -1.95313,0.09115 0.0781,-1.054688 0.11719,-2.369792 -0.78125,0.625 -1.86198,1.705729 -0.2474,0.247396 -0.48177,0.364584 -0.5599,0.3125 -1.11979,0.442708 -0.5599,0.143229 -1.34115,0.143229 -1.05469,0 -1.77083,-0.286458 -0.70313,-0.286458 -1.21094,-0.872396 -0.3776,-0.429687 -0.58594,-1.106771 -0.19531,-0.690104 -0.19531,-1.653645 0,-0.45573 0.026,-0.859375 0.0391,-0.403646 0.0391,-0.794271 v -2.226563 q 0,-0.338541 -0.0391,-1.705729 -0.026,-0.859375 -0.11719,-1.119791 -0.0521,-0.130209 -0.16927,-0.208334 -0.19531,-0.130208 -0.6901,-0.130208 -0.71615,0 -1.13281,-0.01302 v -0.742187 q 2.79948,-0.3125 4.0625,-1.002605 0.20833,-0.117187 0.32552,-0.117187 0.0911,0 0.14323,0.0651 0.0651,0.0651 0.0651,0.195313 0,0.104166 -0.013,0.260416 -0.0521,0.416667 -0.0911,1.601563 -0.0781,2.174479 -0.0781,2.916666 v 2.539063 q 0,1.588541 0.20833,2.239583 0.22136,0.638021 0.83334,1.028646 0.625,0.377604 1.53645,0.377604 0.625,0 1.23698,-0.208333 0.625,-0.221355 1.1198,-0.625 0.36458,-0.299479 0.74218,-0.807292 0.28646,-0.377604 0.37761,-0.572917 0.0911,-0.208333 0.11718,-0.598958 0.0651,-1.145833 0.0651,-2.278646 v -1.09375 q 0,-0.338541 -0.0391,-1.705729 -0.026,-0.859375 -0.11719,-1.119791 -0.0521,-0.130209 -0.16927,-0.208334 -0.19531,-0.130208 -0.69011,-0.130208 -0.71614,0 -1.13281,-0.01302 v -0.742187 q 2.79948,-0.3125 4.0625,-1.002605 0.20833,-0.117187 0.32552,-0.117187 0.0911,0 0.14323,0.0651 0.0651,0.0651 0.0651,0.195313 0,0.104166 -0.013,0.260416 -0.0391,0.416667 -0.0911,1.653646 -0.0781,2.122396 -0.0781,2.864583 v 1.783854 l 0.026,1.809896 q 0.0391,1.575521 0.0521,1.848959 0.013,0.651041 0.14323,0.95052 0.0651,0.117188 0.16927,0.208334 0.10417,0.07813 0.3125,0.130208 0.0781,0.01302 1.44531,0.03906 z"
       id="path21" />
    <path
       d="m 251.64007,6.7950031 q 0.61198,0 1.02865,0.4296874 0.42969,0.4296875 0.42969,1.0416667 0,0.5989583 -0.42969,1.0286458 -0.42969,0.4296875 -1.02865,0.4296875 -0.61198,0 -1.04166,-0.4296875 -0.42969,-0.4296875 -0.42969,-1.0286458 0,-0.6119792 0.42969,-1.0416667 0.42968,-0.4296874 1.04166,-0.4296874 z m -3.17708,7.6171869 v -0.742187 q 2.52604,-0.286458 4.24479,-1.09375 l 0.28646,0.208333 q -0.10417,2.773438 -0.10417,4.244792 v 2.369791 q 0.0651,3.385417 0.0781,3.658855 0.013,0.651041 0.14323,0.95052 0.0651,0.117188 0.16927,0.208334 0.10416,0.07813 0.3125,0.130208 0.0781,0.01302 1.44531,0.03906 v 0.742188 q -1.97917,-0.09115 -3.16406,-0.09115 -1.04167,0 -3.41146,0.09115 v -0.742188 l 1.23698,-0.01302 q 0.27344,-0.01302 0.41667,-0.09115 0.15625,-0.09115 0.23437,-0.221354 0.14323,-0.260417 0.18229,-0.924479 0,-0.169271 0.0781,-3.73698 v -2.291666 q 0,-1.940104 -0.13021,-2.304688 -0.0781,-0.195312 -0.28646,-0.286458 -0.19531,-0.104167 -1.73177,-0.104167 z"
       id="path23" />
    <path
       d="m 266.93955,23.63094 -0.52083,0.872396 q -0.89844,0.481771 -1.78386,0.703125 -0.87239,0.221354 -1.97916,0.221354 -2.73438,0 -4.36198,-1.640625 -1.61459,-1.653646 -1.61459,-4.53125 0,-1.523437 0.42969,-2.643229 0.44271,-1.132812 1.08073,-1.744791 0.42969,-0.429688 1.6276,-1.106771 1.21094,-0.690104 1.69271,-0.885417 0.88542,-0.377604 2.1224,-0.377604 1.17187,0 2.10937,0.247396 0.59896,0.15625 1.19792,0.520833 -0.15625,1.002604 -0.22135,1.523438 -0.0651,0.507812 -0.16928,1.861979 h -0.74218 q -0.0781,-1.263021 -0.15625,-1.575521 -0.0521,-0.195313 -0.23438,-0.351563 -0.46875,-0.364583 -1.21094,-0.625 -0.72916,-0.273437 -1.60156,-0.273437 -1.09375,0 -1.90104,0.455729 -0.79427,0.442708 -1.23698,1.419271 -0.44271,0.976562 -0.44271,2.421875 0,1.770833 0.625,3.203125 0.625,1.432291 1.69271,2.096354 1.08073,0.651041 2.40886,0.651041 0.66406,0 1.28906,-0.15625 0.63802,-0.16927 1.6276,-0.625 z"
       id="path25" />
    <path
       d="m 267.98122,25.128336 v -0.742188 l 1.22395,-0.01302 q 0.28646,-0.01302 0.42969,-0.09115 0.15625,-0.09115 0.23438,-0.221354 0.14323,-0.260417 0.16927,-0.924479 0.013,-0.169271 0.0911,-3.73698 v -5.403645 q 0,-2.174479 -0.0781,-4.4921877 -0.0521,-1.5624999 -0.14323,-1.7447916 -0.0651,-0.1302083 -0.20833,-0.1822917 -0.19532,-0.091146 -1.79688,-0.091146 V 6.7168781 q 2.94271,-0.3645834 4.08854,-0.9114584 0.16927,-0.078125 0.26042,-0.078125 0.0912,0 0.14323,0.065104 0.0521,0.052083 0.0521,0.15625 0,0.091146 -0.026,0.2604167 l -0.013,0.4296875 q -0.0651,2.3307291 -0.0781,3.9713539 l -0.026,2.03125 v 5.234375 l 0.14323,0.07813 q 0.69011,-0.429688 1.99219,-1.523438 0.8724,-0.742187 3.91927,-3.593749 1.0026,0.03906 1.27604,0.03906 0.26042,0 1.31511,-0.03906 v 0.729166 q -0.75521,0.03906 -0.96355,0.104167 -0.28645,0.09115 -1.08072,0.598958 -1.25,0.794271 -3.00782,2.252604 l -1.32812,1.054688 q 1.05469,1.080729 3.64583,3.619791 1.95313,1.992188 2.34375,2.330729 0.40365,0.325521 0.78125,0.390625 0.37761,0.06511 1.17188,0.06511 v 0.585937 q -0.96355,0.182292 -1.62761,0.338542 -0.66406,0.143229 -1.52344,0.351562 -0.4427,-0.364583 -0.85937,-0.742187 -0.41667,-0.390625 -1.70573,-1.71875 -2.64323,-2.708333 -4.34896,-4.231771 l -0.14323,0.0651 v 0.768229 q 0.0651,3.385417 0.0781,3.658855 0.013,0.651041 0.15625,0.95052 0.0521,0.117188 0.15625,0.208334 0.10416,0.07813 0.3125,0.130208 0.0911,0.01302 1.44531,0.03906 v 0.742188 q -1.71875,-0.104167 -3.11198,-0.104167 -1.35417,0 -3.35937,0.104167 z"
       id="path27" />
    <path
       d="m 290.40309,25.128336 v -0.611979 q 0.80729,-0.403646 0.89843,-0.494792 0.0912,-0.104167 0.14323,-0.351562 0.0781,-0.390625 0.13021,-1.653646 0.0651,-1.276042 0.0651,-1.940104 V 12.22469 q 0,-1.276041 -0.0781,-2.9947912 -0.0521,-1.0807291 -0.18229,-1.3411458 -0.0912,-0.1692708 -0.27344,-0.2473958 -0.42969,-0.1822917 -1.78385,-0.1953125 V 6.6257322 q 0.42968,0.026042 1.08073,0.026042 l 2.70833,0.065104 4.79167,-0.1171875 q 1.90104,0 2.92968,0.390625 1.02865,0.3906249 1.60157,1.2760416 0.58593,0.8723958 0.58593,1.9531248 0,0.859375 -0.35156,1.614583 -0.33854,0.755209 -0.92448,1.315105 -0.57291,0.546875 -1.28906,0.898437 -0.70313,0.338542 -1.84896,0.625 1.52344,0.143229 2.46094,0.429688 0.9375,0.273437 1.5625,0.833333 0.63802,0.546875 0.96354,1.341146 0.32552,0.79427 0.32552,1.770833 0,1.927083 -1.17187,3.398437 -1.15886,1.458334 -2.9948,2.161459 -1.36718,0.520833 -3.24218,0.520833 l -3.77604,-0.104167 q -0.61198,0 -2.33073,0.104167 z m 3.71093,-10.820312 q 0.74219,0.03906 1.30209,0.03906 1.61458,0 2.48698,-0.247396 0.88541,-0.247395 1.36718,-0.651041 0.48177,-0.403646 0.79427,-1.09375 0.32553,-0.690104 0.32553,-1.614584 0,-1.6276037 -1.04167,-2.3437495 -1.02865,-0.7291666 -3.02083,-0.7291666 -1.10678,0 -2.09636,0.1953125 -0.11719,1.0807291 -0.11719,3.3463536 z m 0.0391,9.479166 q 0.97656,0.234375 2.05729,0.234375 1.71875,0 2.77344,-0.520833 1.05468,-0.533854 1.61458,-1.601563 0.57292,-1.067708 0.57292,-2.447916 0,-1.367188 -0.53386,-2.291667 -0.53385,-0.9375 -1.60156,-1.380208 -1.05469,-0.455729 -3.48958,-0.455729 -0.5599,0 -1.4323,0.05208 v 4.934896 q 0,0.716146 0.0391,3.476562 z"
       id="path29" />
    <path
       d="m 305.87184,25.128336 v -0.742188 q 1.47135,-0.02604 1.58854,-0.05208 0.22135,-0.03906 0.32552,-0.117187 0.11719,-0.09115 0.18229,-0.247396 0.13021,-0.299479 0.15625,-0.9375 0.0781,-3.476563 0.0781,-3.632813 V 17.84969 q 0,-1.041666 -0.0391,-2.239583 -0.026,-0.768229 -0.11718,-0.911458 -0.0781,-0.143229 -0.29948,-0.208334 -0.20834,-0.07813 -1.69271,-0.0651 v -0.742187 q 2.63021,-0.364584 3.84114,-0.950521 0.26042,-0.130208 0.35157,-0.130208 0.0911,0 0.14323,0.0651 0.0521,0.0651 0.0521,0.195312 0,0.09115 -0.013,0.208334 -0.0651,0.79427 -0.0781,2.460937 0.58594,-0.677083 1.08073,-1.341146 0.49479,-0.664062 0.71615,-0.859375 0.39062,-0.338541 0.89844,-0.533854 0.50781,-0.208333 1.05468,-0.208333 0.54688,0 1.08073,0.234375 l 0.0781,0.182291 q -0.19532,1.731771 -0.22136,3.046875 h -0.58593 q -0.29948,-0.625 -0.70313,-0.911458 -0.39062,-0.286458 -0.98958,-0.286458 -1.00261,0 -1.70573,0.833333 -0.70313,0.820312 -0.70313,2.473958 v 1.341146 q 0,0.859375 0.0651,3.138021 0.013,0.807291 0.0651,1.028646 0.0521,0.221354 0.13021,0.32552 0.0911,0.09115 0.28646,0.15625 0.39062,0.117188 2.10937,0.234375 v 0.742188 q -2.29166,-0.09115 -3.90625,-0.09115 -1.66666,0 -3.22916,0.09115 z"
       id="path31" />
    <path
       d="m 316.21038,19.138753 q 0,-2.916667 1.84896,-4.752604 1.86198,-1.848959 4.76563,-1.848959 2.73437,0 4.45312,1.71875 1.71875,1.71875 1.71875,4.440104 0,1.901042 -0.88542,3.476563 -0.88541,1.575521 -2.5,2.473958 -1.61458,0.885417 -3.55468,0.885417 -1.51042,0 -2.56511,-0.507813 -1.04166,-0.507812 -1.69271,-1.276041 -0.65104,-0.768229 -0.98958,-1.575521 -0.59896,-1.419271 -0.59896,-3.033854 z m 2.46094,-0.963542 q 0,1.601563 0.53385,3.255208 0.53386,1.653646 1.53646,2.421875 1.01563,0.755209 2.20052,0.755209 1.51042,0 2.52605,-1.197917 1.01562,-1.197917 1.01562,-3.684896 0,-2.070312 -0.61198,-3.567708 -0.59896,-1.510417 -1.53646,-2.122396 -0.9375,-0.625 -2.07031,-0.625 -1.60156,0 -2.60417,1.158854 -0.98958,1.158855 -0.98958,3.606771 z"
       id="path33" />
    <path
       d="m 335.4682,25.271565 -0.54687,-1.809896 -1.21094,-4.023437 q -0.52084,-1.744792 -1.06771,-3.372396 -0.53385,-1.627604 -0.71615,-1.875 -0.16927,-0.247396 -0.42968,-0.351562 -0.2474,-0.104167 -1.23698,-0.195313 v -0.755208 q 1.43229,0.09115 3.07291,0.09115 1.7448,0 3.25521,-0.09115 v 0.755208 q -1.21094,0.01302 -1.57552,0.09115 -0.24739,0.05208 -0.36458,0.195313 -0.10417,0.130208 -0.10417,0.3125 0,0.299479 0.37761,1.601562 l 1.21093,4.192708 q 0.29948,1.054688 0.72917,2.278646 l 0.98958,-2.265625 1.91407,-4.283854 q 0.67708,-1.523437 1.27604,-3.072917 h 0.63802 q 0.85937,2.382813 1.17187,3.151042 l 1.4974,3.776042 q 0.76823,1.901041 1.15885,2.864583 l 0.97657,-2.565104 q 0.95052,-2.473959 1.48437,-4.21875 0.29948,-0.950521 0.29948,-1.341146 0,-0.364583 -0.26042,-0.520833 -0.24739,-0.169271 -1.67968,-0.195313 v -0.755208 q 1.97916,0.09115 2.73437,0.09115 0.91146,0 2.47396,-0.09115 v 0.755208 q -0.75521,0.01302 -1.01563,0.143229 -0.26041,0.117188 -0.45573,0.403646 -0.33854,0.442709 -1.05468,2.083333 l -1.36719,3.255209 -0.58594,1.458333 q -0.16927,0.429688 -1.0026,2.643229 -0.36459,0.9375 -0.54688,1.640625 h -1.22396 l -0.625,-1.627604 -2.96875,-7.460937 -1.25,2.695312 -1.47135,3.268229 q -0.50781,1.132813 -0.82031,1.927083 l -0.42969,1.197917 z"
       id="path35" />
    <path
       d="m 352.48642,25.128336 v -0.742188 l 1.23698,-0.01302 q 0.27344,-0.01302 0.41667,-0.09115 0.15625,-0.09115 0.23438,-0.221354 0.14322,-0.260417 0.18229,-0.924479 0,-0.169271 0.0781,-3.73698 V 17.84969 q 0,-1.041666 -0.0391,-2.239583 -0.0391,-0.768229 -0.13021,-0.911458 -0.0781,-0.143229 -0.28646,-0.208334 -0.20833,-0.07813 -1.69271,-0.0651 v -0.742187 q 2.63021,-0.364584 3.84115,-0.950521 0.26042,-0.130208 0.35156,-0.130208 0.0912,0 0.14323,0.0651 0.0521,0.0651 0.0521,0.195312 0,0.09115 -0.013,0.208334 -0.0391,0.46875 -0.0781,1.979166 l 2.42187,-2.070312 q 1.06771,-0.390625 2.01823,-0.390625 1.05469,0 1.99219,0.429687 0.95052,0.429688 1.41927,1.080729 0.48177,0.651042 0.63802,1.640625 0.0912,0.585938 0.0912,3.268229 v 2.304688 q 0,1.692708 0.0911,2.304687 0.0651,0.390625 0.19532,0.546875 0.14323,0.143229 0.42968,0.182292 l 1.39323,0.03906 v 0.742188 q -1.27604,-0.09115 -2.12239,-0.09115 -0.72917,0 -2.42188,0.09115 0.18229,-3.216146 0.18229,-4.0625 v -2.1875 q 0,-2.044271 -0.15625,-2.682292 -0.22135,-0.872395 -1.0026,-1.406249 -0.78125,-0.533855 -1.88802,-0.533855 -0.97656,0 -1.78385,0.46875 -0.8073,0.45573 -1.15886,1.067709 -0.33854,0.598958 -0.33854,2.03125 v 1.57552 q 0.0781,3.385417 0.0781,3.658855 0.026,0.651041 0.15625,0.95052 0.0521,0.117188 0.15625,0.208334 0.10417,0.07813 0.32553,0.130208 0.0781,0.01302 1.43229,0.03906 v 0.742188 q -1.58854,-0.09115 -2.87761,-0.09115 -1.09375,0 -3.56771,0.09115 z"
       id="path37" />
    <path
       d="m 160.10362,40.792401 v -0.833333 q 1.97916,0.07813 3.35937,0.07813 0.97656,0 3.50261,-0.05208 2.52604,-0.05208 3.41145,-0.05208 0.95053,0 1.73178,0.02604 0.79427,0.01302 1.43229,0.0651 -0.32552,1.106771 -0.41667,3.945313 h -0.82031 q -0.11719,-1.575521 -0.32552,-2.421875 -0.67709,-0.234375 -1.67969,-0.338542 -0.98958,-0.117187 -2.30469,-0.117187 -1.3151,0 -2.72135,0.15625 -0.0781,0.703125 -0.10417,1.315104 -0.013,0.351562 -0.0651,2.98177 v 2.890625 q 1.45833,0.03906 2.57812,0.03906 1.65365,0 2.64323,-0.169271 0.37761,-0.0651 0.48177,-0.208333 0.11719,-0.15625 0.2474,-1.106771 l 0.10416,-0.807292 h 0.82032 l -0.0911,2.96875 0.0911,3.190104 h -0.82032 l -0.0911,-0.833333 q -0.14323,-1.419271 -0.20833,-1.523437 -0.10417,-0.182292 -0.4948,-0.273438 -0.74218,-0.169271 -3.35937,-0.169271 -0.92448,0 -1.90104,0.05208 v 2.630208 q 0,1.770833 0.0521,3.450521 0.026,1.236979 0.16927,1.471354 0.15625,0.234375 0.49479,0.351562 0.33854,0.104167 1.875,0.130209 v 0.833333 q -1.65364,-0.104167 -3.29427,-0.104167 -1.47135,0 -4.29687,0.104167 v -0.833333 q 1.53646,-0.02604 1.875,-0.130209 0.33854,-0.117187 0.46875,-0.3125 0.15625,-0.260416 0.19531,-1.263021 0.013,-0.273437 0.0521,-3.697916 v -6.028646 q 0,-1.770833 -0.0391,-3.463541 -0.0391,-1.23698 -0.19531,-1.458334 -0.14323,-0.234375 -0.48177,-0.338541 -0.32552,-0.117188 -1.875,-0.14323 z"
       id="path39" />
    <path
       d="m 175.24685,52.472089 q 0,-2.916667 1.84895,-4.752604 1.86198,-1.848959 4.76563,-1.848959 2.73437,0 4.45312,1.71875 1.71875,1.71875 1.71875,4.440104 0,1.901042 -0.88541,3.476563 -0.88542,1.575521 -2.5,2.473958 -1.61459,0.885417 -3.55469,0.885417 -1.51042,0 -2.5651,-0.507813 -1.04167,-0.507812 -1.69271,-1.276041 -0.65104,-0.76823 -0.98959,-1.575521 -0.59895,-1.419271 -0.59895,-3.033854 z m 2.46093,-0.963542 q 0,1.601562 0.53386,3.255208 0.53385,1.653646 1.53646,2.421875 1.01562,0.755209 2.20052,0.755209 1.51041,0 2.52604,-1.197917 1.01562,-1.197917 1.01562,-3.684896 0,-2.070312 -0.61198,-3.567708 -0.59895,-1.510417 -1.53645,-2.122396 -0.9375,-0.625 -2.07032,-0.625 -1.60156,0 -2.60416,1.158854 -0.98959,1.158854 -0.98959,3.606771 z"
       id="path41" />
    <path
       d="m 189.38747,58.461672 v -0.742188 q 0.625,0 0.97656,-0.182291 0.46875,-0.260417 1.26302,-1.184896 l 3.04688,-3.736979 -1.10677,-1.640625 q -0.88542,-1.328125 -1.73177,-2.369792 -0.83334,-1.041666 -1.38021,-1.367187 -0.20833,-0.117188 -0.49479,-0.117188 -0.11719,0 -0.41667,0.02604 l -0.15625,-0.742188 q 1.51042,-0.16927 3.0599,-0.507812 0.49479,0.455729 0.91145,0.963542 0.71615,0.924479 1.7448,2.51302 l 0.96354,1.523438 0.80729,-1.041667 q 0.95052,-1.210937 2.68229,-3.710937 0.67708,0.03906 1.01563,0.03906 0.3125,0 0.97656,-0.03906 v 0.729166 q -0.57292,0.01302 -0.85938,0.208334 -0.59896,0.403646 -1.96614,2.083333 l -1.25,1.497396 -0.80729,1.054687 0.48177,0.729167 q 0.3125,0.455729 1.66666,2.34375 1.36719,1.875 1.92709,2.473958 0.28645,0.299479 0.48177,0.377604 0.19531,0.07813 0.76823,0.07813 v 0.742188 q -0.91146,-0.05208 -1.64063,-0.05208 -0.76823,0 -1.61458,0.05208 -0.83333,-1.054688 -1.4974,-2.03125 l -1.97916,-2.96875 q -1.44532,1.679687 -3.59375,5 -0.52084,-0.05208 -1.14584,-0.05208 -0.61198,0 -1.13281,0.05208 z"
       id="path43" />
    <path
       d="m 209.03591,63.461672 0.0391,-0.898438 v -0.182291 q 0,-0.29948 -0.0391,-0.92448 l 0.24739,-0.16927 q 0.37761,0.273437 0.69011,0.377604 0.32552,0.117187 0.71614,0.117187 0.70313,0 1.08073,-0.286458 0.37761,-0.273438 0.54688,-0.872396 0.16927,-0.585937 0.16927,-3.111979 V 46.196047 q 0,-1.770833 -0.0521,-3.463541 -0.026,-1.23698 -0.1823,-1.458334 -0.14323,-0.234375 -0.48177,-0.338541 -0.33854,-0.117188 -1.875,-0.14323 v -0.833333 q 2.05729,0.07813 3.85417,0.07813 1.90104,0 3.86719,-0.07813 v 0.833333 q -1.53646,0.02604 -1.875,0.14323 -0.33854,0.104166 -0.45573,0.299479 -0.16927,0.260416 -0.20834,1.263021 0,0.260416 -0.0521,3.697916 v 9.348958 q 0,2.135417 -0.36458,3.372396 -0.36459,1.236979 -1.23698,2.34375 -0.85938,1.119792 -1.875,1.692708 -1.01563,0.572917 -1.96615,0.572917 -0.26041,0 -0.54687,-0.0651 z"
       id="path45" />
    <path
       d="m 233.63226,57.719484 v 0.742188 q -1.70573,-0.09115 -2.57812,-0.09115 -0.96355,0 -1.95313,0.09115 0.0781,-1.054688 0.11719,-2.369792 -0.78125,0.625 -1.86198,1.705729 -0.2474,0.247396 -0.48177,0.364584 -0.5599,0.3125 -1.11979,0.442708 -0.5599,0.143229 -1.34115,0.143229 -1.05469,0 -1.77083,-0.286458 -0.70313,-0.286458 -1.21094,-0.872396 -0.3776,-0.429687 -0.58594,-1.106771 -0.19531,-0.690104 -0.19531,-1.653646 0,-0.455729 0.026,-0.859375 0.0391,-0.403645 0.0391,-0.79427 v -2.226563 q 0,-0.338541 -0.0391,-1.705729 -0.026,-0.859375 -0.11719,-1.119792 -0.0521,-0.130208 -0.16927,-0.208333 -0.19531,-0.130208 -0.6901,-0.130208 -0.71615,0 -1.13281,-0.01302 V 47.02938 q 2.79948,-0.3125 4.0625,-1.002604 0.20833,-0.117187 0.32552,-0.117187 0.0911,0 0.14323,0.0651 0.0651,0.0651 0.0651,0.195312 0,0.104167 -0.013,0.260417 -0.0521,0.416667 -0.0911,1.601563 -0.0781,2.174479 -0.0781,2.916666 v 2.539063 q 0,1.588541 0.20833,2.239583 0.22136,0.638021 0.83334,1.028646 0.625,0.377604 1.53645,0.377604 0.625,0 1.23698,-0.208333 0.625,-0.221355 1.11979,-0.625 0.36459,-0.29948 0.74219,-0.807292 0.28646,-0.377604 0.37761,-0.572917 0.0911,-0.208333 0.11718,-0.598958 0.0651,-1.145833 0.0651,-2.278646 v -1.09375 q 0,-0.338541 -0.0391,-1.705729 -0.026,-0.859375 -0.11719,-1.119792 -0.0521,-0.130208 -0.16927,-0.208333 -0.19532,-0.130208 -0.69011,-0.130208 -0.71614,0 -1.13281,-0.01302 V 47.02938 q 2.79948,-0.3125 4.0625,-1.002604 0.20833,-0.117187 0.32552,-0.117187 0.0911,0 0.14323,0.0651 0.0651,0.0651 0.0651,0.195312 0,0.104167 -0.013,0.260417 -0.0391,0.416667 -0.0911,1.653646 -0.0781,2.122396 -0.0781,2.864583 v 1.783854 l 0.026,1.809896 q 0.0391,1.575521 0.0521,1.848958 0.013,0.651042 0.14323,0.950521 0.0651,0.117188 0.16927,0.208334 0.10416,0.07813 0.3125,0.130208 0.0781,0.01302 1.44531,0.03906 z"
       id="path47" />
    <path
       d="m 234.85622,58.461672 v -0.742188 l 1.23698,-0.01302 q 0.27343,-0.01302 0.41666,-0.09115 0.15625,-0.09115 0.23438,-0.221354 0.14323,-0.260417 0.18229,-0.92448 0,-0.16927 0.0781,-3.736979 v -1.549479 q 0,-1.041666 -0.0391,-2.239583 -0.0391,-0.768229 -0.13021,-0.911458 -0.0781,-0.14323 -0.28646,-0.208334 -0.20833,-0.07813 -1.6927,-0.0651 V 47.01636 q 2.6302,-0.364584 3.84114,-0.950521 0.26042,-0.130209 0.35156,-0.130209 0.0911,0 0.14323,0.0651 0.0521,0.0651 0.0521,0.195312 0,0.09115 -0.013,0.208333 -0.0521,0.625 -0.0781,1.86198 l 1.70573,-1.5625 q 0.32552,-0.286459 0.40365,-0.325521 0.29948,-0.169271 0.85937,-0.3125 0.5599,-0.143229 1.17188,-0.143229 1.25,0 2.22656,0.611979 0.97656,0.611979 1.49739,1.809896 l 1.4323,-1.328125 q 0.48177,-0.442709 0.66406,-0.546875 0.33854,-0.195313 0.96354,-0.364584 0.625,-0.169271 1.23698,-0.169271 1.48437,0 2.48698,0.794271 1.0026,0.78125 1.28906,1.783854 0.18229,0.664063 0.18229,2.864584 v 1.354166 l 0.0391,1.809896 q 0.0391,1.575521 0.0391,1.848958 0.026,0.651042 0.15625,0.950521 0.0521,0.117188 0.15625,0.208334 0.11719,0.07813 0.32552,0.130208 0.0781,0.01302 1.43229,0.03906 v 0.742188 q -1.64062,-0.07813 -2.23958,-0.07813 -0.57292,0 -2.30469,0.07813 l 0.11719,-3.59375 0.0391,-1.40625 V 52.34188 q 0,-2.1875 -0.22135,-2.98177 -0.22136,-0.807292 -0.9375,-1.302084 -0.70313,-0.494791 -1.64063,-0.494791 -1.08073,0 -1.95312,0.625 -0.65105,0.48177 -0.85938,1.132812 -0.20833,0.651042 -0.20833,2.539062 v 0.872396 l 0.0391,1.809896 q 0.026,1.575521 0.0391,1.848958 0.026,0.651042 0.15625,0.950521 0.0521,0.117188 0.15625,0.208334 0.10417,0.07813 0.3125,0.130208 0.0911,0.01302 1.44531,0.03906 v 0.742188 q -1.91406,-0.104167 -3.07291,-0.104167 -0.9375,0 -3.41146,0.104167 v -0.742188 l 1.23698,-0.01302 q 0.28646,-0.01302 0.42969,-0.09115 0.15625,-0.09115 0.23437,-0.221354 0.14323,-0.260417 0.16927,-0.92448 0.013,-0.16927 0.0781,-3.736979 V 51.71688 q 0,-1.679687 -0.26042,-2.447916 -0.26042,-0.78125 -0.91146,-1.236979 -0.65104,-0.46875 -1.5625,-0.46875 -0.78125,0 -1.48437,0.338541 -0.69011,0.325521 -1.06771,0.820313 -0.37761,0.494791 -0.45573,1.054687 -0.13021,0.898438 -0.13021,2.161458 v 0.794271 q 0.0781,3.385417 0.0781,3.658854 0.026,0.651042 0.15625,0.950521 0.0521,0.117188 0.15625,0.208334 0.10416,0.07813 0.32552,0.130208 0.0781,0.01302 1.43229,0.03906 v 0.742188 q -1.79688,-0.104167 -3.0599,-0.104167 -1.11979,0 -3.38541,0.104167 z"
       id="path49" />
    <path
       d="m 258.31976,47.745526 v -0.755208 q 0.23438,0 0.98959,-0.104167 0.7552,-0.117187 1.67968,-0.377604 0.92448,-0.273437 1.39323,-0.520833 0.14323,-0.07813 0.23438,-0.07813 0.0911,0 0.14323,0.0651 0.0651,0.0651 0.0651,0.221354 0,0.0651 -0.013,0.3125 -0.026,0.377604 -0.026,0.690104 v 1.380209 q 2.20052,-2.044271 2.74739,-2.304688 0.71615,-0.351562 2.13542,-0.351562 1.65365,0 2.85156,0.755208 1.19792,0.742187 1.73177,1.940104 0.54688,1.184896 0.54688,2.539063 0,0.820312 -0.19531,1.549479 -0.18229,0.729166 -0.48177,1.380208 -0.28646,0.638021 -0.65105,1.184896 -0.35156,0.533854 -0.66406,0.807291 -0.18229,0.169271 -0.95052,0.78125 -0.75521,0.61198 -1.6276,1.067709 -0.85938,0.442708 -1.19792,0.546875 -0.74219,0.234375 -1.57552,0.234375 -0.65104,0 -1.27604,-0.15625 -0.61198,-0.15625 -1.39323,-0.533854 v 2.070312 q 0.0651,3.294271 0.0781,3.632812 0.013,0.638021 0.15625,0.9375 0.0521,0.14323 0.15625,0.221355 0.11719,0.09114 0.32552,0.130208 0.11719,0.02604 1.54948,0.05208 v 0.742188 q -1.6276,-0.0651 -4.30989,-0.0651 -1.48438,0 -2.27865,0.0651 v -0.742188 l 1.23698,-0.01302 q 0.27344,-0.01302 0.41667,-0.104166 0.15625,-0.07813 0.23437,-0.208334 0.14323,-0.260416 0.18229,-0.924479 0.013,-0.169271 0.0781,-3.723958 V 55.46688 q 0,-2.252604 -0.0521,-4.622395 -0.0521,-2.369792 -0.11719,-2.578125 -0.0521,-0.221355 -0.18229,-0.325521 -0.13021,-0.117188 -0.33854,-0.15625 z m 4.46615,8.033854 q 0.6901,0.703125 1.57552,1.106771 0.88542,0.403646 1.86198,0.403646 1.18489,0 2.14844,-0.585938 0.97656,-0.598958 1.53645,-1.848958 0.57292,-1.25 0.57292,-2.721354 0,-1.419271 -0.54687,-2.460937 -0.53386,-1.054688 -1.52344,-1.575521 -0.98958,-0.533854 -1.99219,-0.533854 -0.74219,0 -1.47135,0.299479 -0.71615,0.286458 -1.30209,0.846354 -0.58593,0.559896 -0.78125,1.067708 -0.0781,0.247396 -0.0781,0.950521 z"
       id="path51" />
    <path
       d="m 275.09059,54.52938 h 0.78125 q 0.013,0.755209 0.0781,1.197917 0.0651,0.442708 0.22135,0.872396 0.15625,0.416666 0.48177,0.716146 0.32552,0.286458 0.70313,0.455729 0.39062,0.15625 0.78125,0.208333 0.40364,0.05208 1.21093,0.05208 1.32813,0 2.17448,-0.703125 0.85938,-0.703125 0.85938,-1.927083 0,-0.546875 -0.27344,-0.963542 -0.26042,-0.416666 -0.76823,-0.651041 -0.49479,-0.234375 -2.14844,-0.611979 -1.65364,-0.377605 -2.13541,-0.546875 -0.72917,-0.273438 -1.15886,-0.664063 -0.42968,-0.390625 -0.6901,-0.989583 -0.2474,-0.598958 -0.2474,-1.302083 0,-1.028646 0.53386,-1.888021 0.54687,-0.872396 1.70573,-1.40625 1.15885,-0.546875 2.52604,-0.546875 0.82031,0 1.90104,0.234375 1.08073,0.221354 1.75781,0.559896 -0.0911,1.445312 -0.13021,2.942708 h -0.74218 q -0.0651,-0.950521 -0.15625,-1.25 -0.0781,-0.299479 -0.22136,-0.533854 -0.14323,-0.234375 -0.49479,-0.494792 -0.35156,-0.273437 -0.91146,-0.481771 -0.54687,-0.208333 -1.35416,-0.208333 -1.14584,0 -1.84896,0.677083 -0.69011,0.677084 -0.69011,1.588542 0,0.507812 0.19532,0.872396 0.20833,0.364583 0.54687,0.598958 0.33854,0.221354 0.95052,0.403646 l 2.16146,0.533854 q 1.64062,0.416667 2.2526,0.716146 0.625,0.299479 1.00261,0.9375 0.3776,0.625 0.3776,1.510416 0,1.757813 -1.45833,3.072917 -1.44531,1.302083 -3.88021,1.302083 -1.11979,0 -2.98177,-0.338541 -1.02865,-0.195313 -1.10677,-0.273438 -0.0521,-0.03906 -0.0521,-0.130208 0,-0.09115 0.026,-0.221354 0.11718,-0.559896 0.15625,-1.09375 0.0391,-0.533854 0.0651,-2.226563 z"
       id="path53" />
    <path
       d="m 292.48642,49.334068 q 0,-2.057292 0.61198,-3.802083 0.625,-1.744792 2.0573,-3.138021 1.43229,-1.393229 3.24218,-2.096354 1.8099,-0.716146 4.14063,-0.716146 2.14844,0 3.90625,0.611979 1.75781,0.598958 2.8776,1.601563 1.13281,0.989583 1.78386,2.174479 0.49479,0.885416 0.78125,2.083333 0.29948,1.197917 0.29948,2.565104 0,4.388021 -2.95573,7.304687 -2.94271,2.916667 -7.4349,2.916667 -2.04427,0 -3.8151,-0.664062 -1.77084,-0.664063 -2.9948,-1.966146 -1.22395,-1.315104 -1.86197,-3.177084 -0.63803,-1.874999 -0.63803,-3.697916 z m 2.70834,-1.080729 q 0,1.236979 0.24739,2.513021 0.2474,1.276041 0.625,2.20052 0.625,1.5625 1.62761,2.630209 1.01562,1.054687 2.2526,1.5625 1.25,0.494791 2.76042,0.494791 2.09635,0 3.64583,-1.015625 1.54948,-1.028646 2.30469,-2.877604 0.76823,-1.861979 0.76823,-4.283854 0,-2.070312 -0.54688,-3.815104 -0.33854,-1.067708 -0.89843,-1.927083 -0.5599,-0.872396 -1.34115,-1.510417 -0.76823,-0.651042 -2.00521,-1.09375 -1.23698,-0.442708 -2.66927,-0.442708 -2.07031,0 -3.63281,0.924479 -1.5625,0.924479 -2.35677,2.682292 -0.78125,1.744791 -0.78125,3.958333 z"
       id="path55" />
    <path
       d="m 319.45258,58.59188 q -0.50782,-1.328125 -0.70313,-1.783854 l -1.06771,-2.486979 -2.66927,-6.210937 q -0.26042,-0.585938 -0.44271,-0.78125 -0.18229,-0.195313 -0.40364,-0.247396 -0.18229,-0.05208 -0.96354,-0.07813 v -0.78125 q 2.16145,0.09115 3.15104,0.09115 1.09375,0 2.99479,-0.09115 v 0.78125 q -1.40625,0.03906 -1.65365,0.182291 -0.24739,0.14323 -0.24739,0.390625 0,0.390625 0.52083,1.679688 l 1.58854,3.958333 0.37761,0.885417 q 0.63802,1.549479 0.87239,2.070312 l 1.30209,-2.955729 q 0.11718,-0.260417 1.18489,-2.929687 0.625,-1.549479 0.83333,-2.369792 0.0521,-0.221354 0.0521,-0.390625 0,-0.221354 -0.16927,-0.3125 -0.3125,-0.169271 -1.66667,-0.208333 v -0.78125 q 1.9401,0.09115 2.48698,0.09115 0.45573,0 2.48698,-0.09115 v 0.78125 q -0.80729,0.03906 -1.08073,0.195312 -0.26042,0.143229 -0.52083,0.611979 -0.1823,0.3125 -1.40625,2.8125 l -1.25,2.669271 q -0.32552,0.716146 -2.25261,5.299479 z"
       id="path57" />
    <path
       d="m 339.38746,56.443443 -0.41667,0.9375 q -0.89843,0.559896 -1.3151,0.742187 -0.61198,0.273438 -1.40625,0.455729 -0.78125,0.195313 -1.65365,0.195313 -1.71875,0 -3.11197,-0.716146 -1.39323,-0.716146 -2.17448,-2.135417 -0.76823,-1.432291 -0.76823,-3.346354 0,-1.497395 0.40364,-2.695312 0.41667,-1.210938 0.9375,-1.783854 0.37761,-0.416667 1.17188,-0.950521 0.79427,-0.546875 1.57552,-0.859375 1.02864,-0.429688 2.22656,-0.429688 1.45833,0 2.63021,0.664063 1.1849,0.664062 1.73177,1.809896 0.54688,1.145833 0.54688,2.591146 0,0.364583 -0.0521,0.885416 -0.9375,0.182292 -1.67969,0.234375 -1.40625,0.104167 -2.8125,0.104167 h -4.17968 q 0.026,1.861979 0.63802,3.020833 0.625,1.145833 1.70573,1.692708 1.09375,0.546875 2.26562,0.546875 0.79427,0 1.57552,-0.247395 0.79427,-0.260417 1.95313,-0.9375 z m -8.34635,-5.325521 q 0.36458,0.03906 1.38021,0.07813 1.9401,0.0651 2.66927,0.0651 1.73177,0 2.27864,-0.0651 0.013,-0.3125 0.013,-0.481771 0,-2.057291 -0.83333,-3.020833 -0.83333,-0.963542 -2.22656,-0.963542 -1.47136,0 -2.36979,1.054688 -0.89844,1.054687 -0.91146,3.333333 z"
       id="path59" />
    <path
       d="m 341.26246,58.461672 v -0.742188 q 1.47136,-0.02604 1.58854,-0.05208 0.22136,-0.03906 0.32552,-0.117187 0.11719,-0.09115 0.1823,-0.247396 0.1302,-0.299479 0.15625,-0.9375 0.0781,-3.476563 0.0781,-3.632813 v -1.549479 q 0,-1.041666 -0.0391,-2.239583 -0.026,-0.768229 -0.11719,-0.911458 -0.0781,-0.14323 -0.29948,-0.208334 -0.20833,-0.07813 -1.69271,-0.0651 V 47.01636 q 2.63021,-0.364584 3.84115,-0.950521 0.26042,-0.130209 0.35156,-0.130209 0.0912,0 0.14323,0.0651 0.0521,0.0651 0.0521,0.195312 0,0.09115 -0.013,0.208333 -0.0651,0.794271 -0.0781,2.460938 0.58594,-0.677083 1.08073,-1.341146 0.49479,-0.664062 0.71614,-0.859375 0.39063,-0.338542 0.89844,-0.533854 0.50781,-0.208333 1.05469,-0.208333 0.54687,0 1.08073,0.234375 l 0.0781,0.182291 q -0.19531,1.731771 -0.22135,3.046875 h -0.58594 q -0.29948,-0.625 -0.70312,-0.911458 -0.39063,-0.286458 -0.98959,-0.286458 -1.0026,0 -1.70573,0.833333 -0.70312,0.820312 -0.70312,2.473958 v 1.341146 q 0,0.859375 0.0651,3.138021 0.013,0.807291 0.0651,1.028646 0.0521,0.221354 0.1302,0.32552 0.0911,0.09115 0.28646,0.15625 0.39063,0.117188 2.10938,0.234375 v 0.742188 q -2.29167,-0.09115 -3.90625,-0.09115 -1.66667,0 -3.22917,0.09115 z"
       id="path61" />
    <path
       d="m 161.0281,77.6023 h -0.8073 q -0.013,-3.111979 -0.1302,-4.309896 1.41927,0.05208 4.45312,0.130208 2.46094,0.05208 3.28125,0.05208 0.88542,0 4.10156,-0.07813 2.33073,-0.05208 3.39844,-0.104167 -0.15625,1.458333 -0.20833,4.309896 h -0.83334 l -0.10416,-1.25 q -0.10417,-1.132813 -0.14323,-1.289063 -0.0391,-0.15625 -0.11719,-0.221354 -0.0651,-0.0651 -0.20833,-0.104167 -0.18229,-0.03906 -1.30209,-0.104166 -1.11979,-0.0651 -1.77083,-0.0651 h -1.58854 q -0.13021,1.25 -0.13021,3.372395 v 7.617188 q 0,1.770833 0.0391,3.45052 0.0391,1.23698 0.1823,1.471355 0.15625,0.234375 0.48177,0.351562 0.33854,0.104167 1.88802,0.130208 v 0.833334 q -2.33073,-0.104167 -3.50261,-0.104167 -0.50781,0 -4.0625,0.104167 v -0.833334 q 1.54948,-0.02604 1.88802,-0.130208 0.33855,-0.117187 0.45573,-0.3125 0.16927,-0.260417 0.20834,-1.263021 0,-0.273437 0.0521,-3.697916 v -7.591146 q 0,-0.546875 -0.026,-1.197917 l -0.0781,-2.20052 h -1.9401 q -1.67969,0 -2.66927,0.130208 -0.3125,0.03906 -0.40365,0.169271 -0.14323,0.221354 -0.26041,1.419271 z"
       id="path63" />
    <path
       d="M 176.04112,91.795008 V 91.05282 l 1.22395,-0.01302 q 0.28646,-0.01302 0.42969,-0.09114 0.15625,-0.09115 0.23438,-0.221355 0.14323,-0.260416 0.16927,-0.924479 0.013,-0.169271 0.0911,-3.736979 v -6.73177 q 0,-2.17448 -0.0781,-4.492188 -0.0521,-1.5625 -0.14323,-1.744792 -0.0651,-0.130208 -0.20833,-0.182291 -0.19532,-0.09115 -1.79688,-0.09115 v -0.768229 q 2.94271,-0.364583 4.08854,-0.911458 0.16927,-0.07813 0.26042,-0.07813 0.0911,0 0.14323,0.0651 0.0521,0.05208 0.0521,0.15625 0,0.09115 -0.026,0.260416 l -0.013,0.429688 q -0.0651,2.330729 -0.0781,3.971354 l -0.026,2.03125 v 3.802083 q 0.18229,-0.143229 1.02865,-0.885417 0.84635,-0.742187 1.0026,-0.885416 0.2474,-0.234375 0.39063,-0.3125 0.24739,-0.130209 0.74219,-0.260417 0.67708,-0.182291 1.3151,-0.182291 1.19792,0 2.26562,0.572916 1.08073,0.559896 1.4974,1.419271 0.41667,0.859375 0.41667,2.539062 v 2.291667 l 0.0391,1.796875 q 0.0391,1.679687 0.0391,1.888021 0.026,0.625 0.15625,0.911458 0.0521,0.130208 0.15625,0.221354 0.10417,0.07813 0.3125,0.117188 0.0781,0.01302 1.35417,0.03906 v 0.742188 q -1.48438,-0.0651 -2.16146,-0.0651 -0.57292,0 -2.35677,0.0651 0.18229,-1.927084 0.18229,-3.75 v -3.229167 q 0,-1.510416 -0.22135,-2.174479 -0.22136,-0.664062 -0.91146,-1.184896 -0.67708,-0.533854 -1.8099,-0.533854 -0.71614,0 -1.27604,0.208333 -0.55989,0.208334 -1.02864,0.625 -0.46875,0.416667 -0.79428,0.898438 -0.15625,0.234375 -0.20833,0.572917 -0.0521,0.32552 -0.0521,1.328125 v 1.523437 q 0.0651,3.372396 0.0781,3.645833 0.026,0.651042 0.15625,0.950521 0.0521,0.130208 0.15625,0.221354 0.10417,0.07813 0.3125,0.117188 0.0911,0.01302 1.44532,0.03906 v 0.742188 q -2.31771,-0.09115 -3.20313,-0.09115 -0.76823,0 -3.34635,0.09115 z"
       id="path65" />
    <path
       d="m 202.90309,89.776779 -0.41666,0.9375 q -0.89844,0.559895 -1.31511,0.742187 -0.61198,0.273438 -1.40625,0.455729 -0.78125,0.195313 -1.65364,0.195313 -1.71875,0 -3.11198,-0.716146 -1.39323,-0.716146 -2.17448,-2.135417 -0.76823,-1.432291 -0.76823,-3.346354 0,-1.497396 0.40365,-2.695312 0.41666,-1.210938 0.9375,-1.783854 0.3776,-0.416667 1.17187,-0.950521 0.79427,-0.546875 1.57552,-0.859375 1.02865,-0.429688 2.22656,-0.429688 1.45834,0 2.63021,0.664063 1.1849,0.664062 1.73177,1.809896 0.54688,1.145833 0.54688,2.591145 0,0.364584 -0.0521,0.885417 -0.9375,0.182292 -1.67968,0.234375 -1.40625,0.104167 -2.8125,0.104167 h -4.17969 q 0.026,1.861979 0.63802,3.020833 0.625,1.145833 1.70573,1.692708 1.09375,0.546875 2.26562,0.546875 0.79428,0 1.57553,-0.247396 0.79427,-0.260416 1.95312,-0.9375 z m -8.34635,-5.325521 q 0.36458,0.03906 1.38021,0.07813 1.9401,0.0651 2.66927,0.0651 1.73177,0 2.27864,-0.0651 0.013,-0.3125 0.013,-0.481771 0,-2.057292 -0.83334,-3.020833 -0.83333,-0.963542 -2.22656,-0.963542 -1.47135,0 -2.36979,1.054688 -0.89844,1.054687 -0.91146,3.333333 z"
       id="path67" />
    <path
       d="m 212.48643,91.795008 v -0.677084 q 0.80729,-0.377604 1.02864,-0.598958 0.13021,-0.117187 0.1823,-0.299479 0.11718,-0.364583 0.15625,-1.5625 0.0521,-1.783854 0.0521,-2.122396 v -7.005208 q 0,-1.770833 -0.0391,-3.463542 -0.0391,-1.236979 -0.19532,-1.458333 -0.14322,-0.234375 -0.48177,-0.338542 -0.32552,-0.117187 -1.875,-0.143229 v -0.833333 q 3.17709,0.104167 3.9323,0.104167 0.83333,0 3.73697,-0.104167 v 0.833333 q -1.54947,0.02604 -1.88802,0.143229 -0.32552,0.104167 -0.45573,0.29948 -0.15625,0.260416 -0.19531,1.26302 -0.013,0.260417 -0.0521,3.697917 v 8.75 q 0,1.367187 0.0521,2.226562 1.48438,0.09115 2.94271,0.09115 3.67187,0 5.14323,-0.46875 0.16927,-0.390625 0.29948,-0.898437 l 0.52083,-2.161459 h 0.8724 q -0.28646,1.940104 -0.5599,4.557292 -0.53385,0.104167 -0.84635,0.130208 -0.67709,0.03906 -2.08334,0.03906 l -7.70833,-0.104167 q -1.25,0 -2.53906,0.104167 z"
       id="path69" />
    <path
       d="m 229.94736,82.875737 -0.6901,-0.182292 q 0.013,-0.299479 0.013,-0.820312 0,-0.546875 -0.013,-0.872396 1.65364,-1.080729 2.70833,-1.458333 0.80729,-0.273438 1.8099,-0.273438 1.48437,0 2.5,0.559896 1.01562,0.559896 1.51041,1.601563 0.33855,0.729166 0.33855,1.992187 l -0.0521,2.382813 v 3.880208 q 0,0.625 0.10417,0.898437 0.0781,0.195313 0.24739,0.286459 0.13021,0.07813 0.54688,0.104166 l 0.84635,0.07813 v 0.742188 q -1.0677,-0.09115 -1.875,-0.09115 -0.78125,0 -2.08333,0.09115 l 0.0651,-2.291667 q -2.65625,2.005208 -3.15104,2.265625 -0.49479,0.247396 -1.25,0.247396 -1.57552,0 -2.46093,-0.833333 -0.8724,-0.846355 -0.8724,-2.239584 0,-0.898437 0.29948,-1.640625 0.3125,-0.742187 0.74219,-1.171875 0.42968,-0.442708 0.87239,-0.651041 0.75521,-0.351563 2.44792,-0.755209 1.70573,-0.403645 3.37239,-0.598958 0.013,-1.236979 -0.29947,-1.927083 -0.3125,-0.690104 -1.05469,-1.132813 -0.74219,-0.442708 -1.8099,-0.442708 -0.76823,0 -1.35416,0.208333 -0.57292,0.208334 -0.70313,0.351563 l -0.23437,0.46875 q -0.35157,0.78125 -0.52084,1.223958 z m 5.97656,2.044271 q -1.6927,0.286458 -2.89062,0.638021 -1.19792,0.351562 -1.69271,0.729166 -0.29948,0.221354 -0.52083,0.664063 -0.33854,0.651041 -0.33854,1.445312 0,0.963542 0.53385,1.510417 0.53385,0.533854 1.48438,0.533854 0.87239,0 1.71875,-0.494792 0.85937,-0.507812 1.70572,-1.510416 z"
       id="path71" />
    <path
       d="m 241.06716,91.795008 -0.14323,-0.598959 q 1.34114,-1.432291 2.08333,-2.317708 1.71875,-2.070312 4.6224,-5.703125 0.36458,-0.455729 1.86198,-2.565104 h -3.02084 q -0.625,0 -2.00521,0.07813 -0.84635,0.03906 -1.02864,0.130208 -0.0911,0.03906 -0.14323,0.130209 -0.0651,0.104166 -0.18229,0.638021 l -0.26042,1.510416 h -0.72917 q 0.13021,-2.252604 0.13021,-2.5 0,-0.3125 -0.026,-0.872396 l 0.10417,-0.09114 q 4.83073,0.09114 7.76041,0.09114 1.40625,0 2.48698,-0.09114 v 0.690104 q -0.88541,0.924479 -3.07291,3.710937 -4.19271,5.286458 -5.26042,6.770833 h 0.91146 q 1.09375,0 3.07291,-0.05208 1.99219,-0.05208 2.89063,-0.247396 0.28646,-0.0651 0.35156,-0.130208 0.0521,-0.03906 0.0911,-0.169271 0.26041,-0.820312 0.49479,-2.200521 h 0.80729 q -0.19531,1.523438 -0.23437,1.835938 -0.026,0.195312 -0.14323,1.809896 -0.75521,0.143229 -1.90104,0.143229 l -5.65105,-0.104167 z"
       id="path73" />
    <path
       d="m 254.37445,98.761153 0.66406,-2.005208 h 0.3125 q 0.2474,0.208333 0.41667,0.325521 0.18229,0.130208 0.3776,0.195312 0.20834,0.06511 0.59896,0.06511 0.40365,0 0.78125,-0.182292 0.39063,-0.169271 0.71615,-0.546875 0.33854,-0.377604 0.79427,-1.302083 0.6901,-1.39323 1.23698,-2.838542 -0.41667,-1.171875 -1.00261,-2.630208 l -2.07031,-5.130208 q -0.92448,-2.291667 -1.51042,-3.515625 -0.23437,-0.481771 -0.50781,-0.638021 -0.26041,-0.169271 -1.18489,-0.273438 v -0.729166 q 1.61458,0.09114 3.1901,0.09114 1.53646,0 2.95573,-0.09114 v 0.729166 q -1.34115,0.09115 -1.53646,0.169271 -0.33854,0.130208 -0.33854,0.46875 0,0.208333 0.22135,0.859375 0.50782,1.601563 0.96355,2.734375 l 0.82031,2.03125 q 0.74219,1.822917 1.25,2.955729 l 0.6901,-1.536458 q 0.40365,-0.911459 1.41927,-3.463542 1.01563,-2.552083 1.1849,-3.151041 0.0521,-0.208334 0.0521,-0.364584 0,-0.247396 -0.20833,-0.377604 -0.19531,-0.143229 -1.5625,-0.273437 v -0.78125 q 1.51042,0.09114 2.66927,0.09114 1.17187,0 2.31771,-0.09114 l -0.13021,0.78125 q -0.66406,0.02604 -1.02865,0.286458 -0.36458,0.260417 -1.10677,1.757812 -0.72916,1.484375 -2.72135,5.859375 l -3.00781,7.03125 q -0.72917,1.705729 -1.26302,2.434896 -0.53386,0.729167 -1.27605,1.106771 -0.74218,0.377604 -1.6276,0.377604 -0.42969,0 -0.78125,-0.104167 -0.33854,-0.09115 -0.76823,-0.325521 z"
       id="path75" />
    <path
       d="m 276.45778,91.795008 v -0.625 q 0.75521,-0.429688 1.26302,-0.78125 0.0781,-0.885417 0.13021,-2.460938 0.0911,-2.682291 0.0911,-3.723958 v -5.3125 q 0,-1.276041 -0.0781,-2.994791 -0.0521,-1.08073 -0.18229,-1.341146 -0.0911,-0.169271 -0.27344,-0.247396 -0.42969,-0.182292 -1.78385,-0.195313 v -0.820312 q 1.90104,0.07813 3.35937,0.07813 1.11979,0 3.04688,-0.05208 1.9401,-0.05208 3.00781,-0.05208 3.1901,0 5.13021,0.820313 1.9401,0.807291 3.29427,2.721354 1.35416,1.914062 1.35416,4.674479 0,1.979167 -0.63802,3.710937 -0.63802,1.731771 -1.73177,3.033854 -1.09375,1.289063 -2.34375,2.044271 -1.25,0.755209 -2.63021,1.145834 -1.36718,0.377604 -3.76302,0.377604 -0.79427,0 -2.14843,-0.05208 -1.77084,-0.05208 -2.31771,-0.05208 -0.79427,0 -2.78646,0.104167 z m 4.03646,-1.419271 q 1.43229,0.247396 3.02083,0.247396 1.64063,0 2.89063,-0.286459 1.26302,-0.286458 2.14843,-0.807291 0.89844,-0.520834 1.73177,-1.536459 0.83334,-1.015625 1.27605,-2.591145 0.45572,-1.588542 0.45572,-3.28125 0,-2.421875 -0.87239,-4.153646 -0.85938,-1.744792 -2.60417,-2.669271 -1.74479,-0.924479 -4.79166,-0.924479 -1.60157,0 -3.25521,0.247396 -0.0391,0.638021 -0.0651,2.265625 l -0.0521,1.888021 v 5.195312 l 0.0391,4.036458 q 0.013,0.924479 0.0781,2.369792 z"
       id="path77" />
    <path
       d="m 296.80934,85.805425 q 0,-2.916667 1.84895,-4.752605 1.86198,-1.848958 4.76563,-1.848958 2.73437,0 4.45312,1.71875 1.71875,1.71875 1.71875,4.440104 0,1.901042 -0.88541,3.476563 -0.88542,1.57552 -2.5,2.473958 -1.61459,0.885417 -3.55469,0.885417 -1.51042,0 -2.5651,-0.507813 -1.04167,-0.507812 -1.69271,-1.276042 -0.65104,-0.768229 -0.98959,-1.57552 -0.59895,-1.419271 -0.59895,-3.033854 z m 2.46093,-0.963542 q 0,1.601562 0.53386,3.255208 0.53385,1.653646 1.53646,2.421875 1.01562,0.755208 2.20052,0.755208 1.51041,0 2.52604,-1.197916 1.01562,-1.197917 1.01562,-3.684896 0,-2.070312 -0.61198,-3.567708 -0.59895,-1.510417 -1.53645,-2.122396 -0.9375,-0.625 -2.07032,-0.625 -1.60156,0 -2.60416,1.158854 -0.98959,1.158854 -0.98959,3.606771 z"
       id="path79" />
    <path
       d="m 324.9083,80.27157 0.10417,0.247396 q -0.50782,0.768229 -0.66407,1.054688 h -2.42187 q 0.29948,0.768229 0.29948,1.445312 0,0.989584 -0.52084,1.940104 -0.50781,0.9375 -1.49739,1.614584 -0.98958,0.664062 -2.10938,0.898437 -0.72916,0.15625 -1.96614,0.130208 -0.84636,0.677084 -1.06771,1.015625 -0.14323,0.234375 -0.14323,0.507813 0,0.3125 0.18229,0.559896 0.19531,0.234375 0.58594,0.325521 0.58594,0.15625 2.08333,0.15625 l 2.8125,-0.05208 q 1.47136,0 2.22657,0.390625 0.76822,0.377604 1.13281,1.171875 0.36458,0.78125 0.36458,1.770833 0,1.341146 -0.88542,2.721355 -0.87239,1.393229 -2.60416,2.1875 -1.73177,0.807291 -3.88021,0.807291 -1.79688,0 -3.0599,-0.559896 -1.26302,-0.559895 -1.875,-1.497395 -0.59895,-0.9375 -0.59895,-1.966146 0,-0.572917 0.16927,-1.080729 0.18229,-0.494792 0.59895,-1.067709 1.58855,-0.729166 2.27865,-1.276041 -1.08073,-0.351563 -1.39323,-0.664063 -0.29948,-0.3125 -0.29948,-0.625 0,-0.260416 0.39063,-1.40625 0.63802,-0.533854 2.00521,-1.510416 -1.17188,-0.325521 -1.8099,-0.755209 -0.625,-0.442708 -0.97656,-1.184895 -0.35157,-0.755209 -0.35157,-1.653646 0,-1.328125 0.67709,-2.369792 0.67708,-1.054687 2.27864,-1.705729 1.60157,-0.664062 2.96875,-0.664062 0.88542,0 1.67969,0.286458 0.80729,0.286458 1.52344,0.859375 2.44792,-0.01302 3.76302,-0.05208 z m -10.65104,2.929688 q 0,0.924479 0.33854,1.796875 0.35156,0.872396 1.01562,1.315104 0.67709,0.442708 1.53646,0.442708 1.11979,0 1.97917,-0.716145 0.85937,-0.729167 0.85937,-2.33073 0,-1.640625 -0.85937,-2.604166 -0.85938,-0.976563 -2.07031,-0.976563 -1.26302,0 -2.03125,0.807292 -0.76823,0.794271 -0.76823,2.265625 z m 3.8151,8.736979 q -1.9401,0 -2.43489,0.05208 -0.2474,0.03906 -0.5599,0.260417 -1.02865,0.729167 -1.09375,0.807292 -0.13021,0.130208 -0.28646,0.533854 -0.27344,0.729166 -0.27344,1.471354 0,1.367187 1.05469,2.304687 1.06771,0.950521 2.92969,0.950521 1.38021,0 2.51302,-0.559896 1.14583,-0.546875 1.71875,-1.510416 0.58594,-0.950521 0.58594,-1.914063 -0.0391,-0.833333 -0.26042,-1.263021 -0.20833,-0.429687 -0.52083,-0.677083 -0.29948,-0.247396 -0.83334,-0.403646 -0.3125,-0.03906 -2.53906,-0.05208 z"
       id="path81" />
  </g>
</svg>
