<?xml version="1.0" encoding="UTF-8" standalone="no"?>
<svg
   xmlns:dc="http://purl.org/dc/elements/1.1/"
   xmlns:cc="http://creativecommons.org/ns#"
   xmlns:rdf="http://www.w3.org/1999/02/22-rdf-syntax-ns#"
   xmlns:svg="http://www.w3.org/2000/svg"
   xmlns="http://www.w3.org/2000/svg"
   viewBox="161.184 5.98167 188.319 94.0267"
   version="1.1"
   id="svg2">
  <metadata
     id="metadata11">
    <rdf:RDF>
      <cc:Work
         rdf:about="">
        <dc:format>image/svg+xml</dc:format>
        <dc:type
           rdf:resource="http://purl.org/dc/dcmitype/StillImage" />
      </cc:Work>
    </rdf:RDF>
  </metadata>
  <defs
     id="defs9" />
  <g
     aria-label="The Quick BrownFox Jumps OverThe Lazy Dog"
     id="text4521"
     style="font-style:normal;font-variant:normal;font-weight:normal;font-stretch:normal;font-size:26.6667px;line-height:125%;font-family:'Snell Roundhand', cursive;font-variant-ligatures:normal;font-variant-caps:normal;font-variant-numeric:normal;font-feature-settings:normal;text-align:left;letter-spacing:0px;word-spacing:0px;writing-mode:lr-tb;text-anchor:start;fill:#000000;fill-opacity:1;stroke:none;stroke-width:1px;stroke-linecap:butt;stroke-linejoin:miter;stroke-opacity:1">
    <path
       d="m 176.8907,11.955003 q 0.0267,0.266667 0.0267,0.506667 0,0.24 0,0.48 0,1.04 -0.50667,2 -0.48,0.933333 -1.38667,1.679999 -0.88,0.72 -2.10666,1.146667 -1.22667,0.426667 -2.69334,0.426667 -2.18666,0 -3.28,-0.986667 -1.06666,-0.986667 -1.06666,-2.56 0,-1.28 0.85333,-2.64 0.88,-1.36 2.88,-2.4799997 2,-1.1199999 5.28,-1.8399999 3.28,-0.7466667 8.13333,-0.7466667 1.49334,0 2.72,0.08 1.22667,0.08 2.10667,0.08 0.77333,0 1.28,-0.08 0.53333,-0.08 0.90667,-0.08 0.32,0 0.58666,0.2133333 0.26667,0.1866667 0.26667,0.56 0,0.24 -0.16,0.4 -0.13333,0.1333334 -0.50667,0.1866667 -0.37333,0.053333 -1.01333,0.08 -0.61333,0 -1.57333,0 -1.86667,0 -3.12,0.6666666 -1.22667,0.64 -2.29334,1.9733337 -1.06666,1.306666 -2.21333,3.306666 -1.14667,1.973333 -2.85333,4.613333 -0.58667,0.906667 -1.49334,2.053334 -0.88,1.146666 -2.10666,2.16 -1.22667,1.013333 -2.8,1.706666 -1.57334,0.693334 -3.54667,0.693334 -0.74667,0 -1.57333,-0.186667 -0.82667,-0.16 -1.52,-0.533333 -0.66667,-0.4 -1.12,-1.04 -0.42667,-0.64 -0.42667,-1.573334 0,-0.586666 0.32,-0.986666 0.34667,-0.426667 0.96,-0.426667 0.42667,0 0.69333,0.293333 0.29334,0.266667 0.29334,0.693334 0,0.4 -0.26667,0.64 -0.26667,0.24 -0.61333,0.24 -0.18667,0 -0.32,-0.05333 0.13333,1.28 1.2,1.946667 1.06666,0.666667 2.64,0.666667 1.49333,0 2.74666,-0.666667 1.25334,-0.666667 2.32,-1.76 1.09334,-1.093333 2.05334,-2.48 0.96,-1.413333 1.89333,-2.906667 0.96,-1.519999 1.92,-2.986666 0.96,-1.493333 2.02667,-2.72 1.06666,-1.226667 2.26666,-2.08 1.22667,-0.88 2.69334,-1.1466667 V 8.435003 q -1.2,0 -2.61334,-0.1066666 -1.41333,-0.1066667 -2.61333,-0.1066667 -3.36,0 -5.97333,0.5066666 -2.58667,0.48 -4.37334,1.3599997 -1.78666,0.853334 -2.72,2.026667 -0.90666,1.173333 -0.90666,2.533333 0,1.6 1.06666,2.426667 1.09334,0.8 3.06667,0.8 1.38667,0 2.53333,-0.4 1.14667,-0.426667 1.97334,-1.093334 0.82666,-0.693333 1.28,-1.573333 0.48,-0.88 0.48,-1.813333 0,-0.266667 0,-0.506667 0,-0.266666 -0.0267,-0.533333 z"
       id="path13" />
    <path
       d="m 192.38403,6.6750031 -9.44,14.0266659 0.0533,0.05333 q 0.53334,-0.666667 1.25334,-1.52 0.72,-0.88 1.54666,-1.653334 0.85334,-0.773333 1.78667,-1.306666 0.93333,-0.533333 1.86667,-0.533333 1.62666,0 1.62666,1.626666 0,0.426667 -0.32,1.013333 -0.29333,0.586667 -0.77333,1.253334 -0.45333,0.64 -0.98667,1.306666 -0.53333,0.666667 -1.01333,1.306667 -0.45333,0.613333 -0.77333,1.173333 -0.29334,0.533334 -0.29334,0.906667 0,0.293333 0.16,0.506667 0.18667,0.186666 0.48,0.186666 0.61334,0 1.33334,-0.373333 0.74666,-0.4 1.52,-1.013333 0.8,-0.64 1.57333,-1.413334 0.77333,-0.773333 1.41333,-1.52 0.66667,-0.773333 1.17334,-1.44 0.53333,-0.693333 0.77333,-1.12 l 0.16,0.05333 q -0.29333,0.506666 -0.82667,1.226666 -0.53333,0.72 -1.22666,1.52 -0.66667,0.8 -1.46667,1.6 -0.77333,0.773334 -1.57333,1.413334 -0.77334,0.613333 -1.54667,1.013333 -0.77333,0.373333 -1.44,0.373333 -0.69333,0 -1.14667,-0.426666 -0.42666,-0.426667 -0.42666,-1.173334 0,-0.533333 0.29333,-1.173333 0.32,-0.64 0.77333,-1.28 0.48,-0.666667 1.01334,-1.306667 0.53333,-0.666666 0.98666,-1.253333 0.48,-0.586667 0.77334,-1.066667 0.32,-0.506666 0.32,-0.853333 0,-0.426667 -0.24,-0.586667 -0.24,-0.159999 -0.58667,-0.159999 -0.66667,0 -1.49333,0.506666 -0.8,0.48 -1.68,1.28 -0.85334,0.8 -1.70667,1.813333 -0.85333,0.986667 -1.62667,2 -0.74666,1.013334 -1.33333,1.92 -0.56,0.906667 -0.88,1.546667 h -1.73333 q 1.46666,-2.293333 3.01333,-4.666667 1.54667,-2.373333 3.06667,-4.719999 1.54666,-2.346667 3.01333,-4.613334 1.46667,-2.293333 2.77333,-4.3733329 z"
       id="path15" />
    <path
       d="m 200.11732,16.808336 q 0,-0.373333 -0.21334,-0.56 -0.18666,-0.186666 -0.48,-0.186666 -0.56,0 -1.22666,0.453333 -0.64,0.426666 -1.28,1.093333 -0.64,0.64 -1.17334,1.386667 -0.50666,0.746666 -0.77333,1.333333 0.58667,-0.106667 1.46667,-0.4 0.88,-0.32 1.68,-0.773333 0.82666,-0.453334 1.41333,-1.04 0.58667,-0.613334 0.58667,-1.306667 z m 4.32,1.413333 q -0.4,0.666667 -1.01334,1.466667 -0.58666,0.8 -1.36,1.6 -0.74666,0.773333 -1.62666,1.52 -0.85334,0.72 -1.78667,1.306667 -0.93333,0.56 -1.89333,0.906666 -0.93334,0.32 -1.84,0.32 -1.12,0 -1.73334,-0.56 -0.61333,-0.586666 -0.61333,-1.653333 0,-1.173333 0.69333,-2.453333 0.72,-1.306667 1.81334,-2.4 1.09333,-1.093334 2.4,-1.813334 1.30666,-0.719999 2.50666,-0.719999 0.66667,0 1.04,0.293333 0.37334,0.266666 0.37334,0.8 0,0.64 -0.69334,1.253333 -0.69333,0.586667 -1.70666,1.093333 -0.98667,0.48 -2.13334,0.88 -1.14666,0.373334 -2.02666,0.56 -0.29334,0.533334 -0.48,1.2 -0.18667,0.666667 -0.18667,1.333334 0,0.32 0.0533,0.64 0.08,0.293333 0.21334,0.56 0.16,0.24 0.4,0.4 0.26666,0.16 0.64,0.16 0.88,0 2.05333,-0.56 1.2,-0.586667 2.42667,-1.546667 1.22666,-0.96 2.34666,-2.186667 1.12,-1.226666 1.92,-2.533333 z"
       id="path17" />
    <path
       d="m 224.03722,14.248336 q -0.96,1.04 -2.08,1.626667 -1.09333,0.56 -2.50667,0.56 -1.65333,0 -2.69333,-0.96 -1.01333,-0.986667 -1.01333,-2.56 0,-1.226667 0.69333,-2.426667 0.69333,-1.2266663 1.86667,-2.1866663 1.2,-0.96 2.72,-1.5466666 1.54666,-0.6133334 3.22666,-0.6133334 1.01334,0 1.84,0.24 0.82667,0.2133334 1.44,0.72 0.61334,0.48 0.93334,1.2533333 0.34666,0.7466667 0.34666,1.813333 0,1.36 -0.69333,2.746667 -0.66667,1.36 -1.78667,2.693333 -1.09333,1.306667 -2.50666,2.506667 -1.41334,1.2 -2.90667,2.24 -1.49333,1.013333 -2.96,1.84 -1.44,0.8 -2.58667,1.306666 1.2,0.373334 2.53334,0.666667 1.36,0.266667 2.93333,0.266667 1.70667,0 3.09333,-0.666667 1.41334,-0.666667 2.53334,-1.653333 1.14666,-1.013334 2.05333,-2.133334 0.90667,-1.146666 1.62667,-2.053333 l 0.16,0.106667 q -0.93334,1.306666 -2.10667,2.693333 -1.17333,1.386667 -2.58667,2.533333 -1.38666,1.12 -3.01333,1.84 -1.6,0.72 -3.41333,0.72 -0.77334,0 -1.57334,-0.186666 -0.77333,-0.16 -1.49333,-0.426667 -0.72,-0.24 -1.33333,-0.506667 -0.58667,-0.266666 -0.96,-0.453333 -1.30667,0.586667 -2.50667,0.853333 -1.17333,0.24 -2.37333,0.24 -0.88,0 -1.46667,-0.24 -0.61333,-0.24 -0.61333,-0.72 0,-0.826666 1.06666,-1.173333 1.09334,-0.346667 2.82667,-0.346667 1.01333,0 2.16,0.16 1.14667,0.133334 2.10667,0.346667 0.98666,-0.506667 2.26666,-1.226667 1.28,-0.746666 2.61334,-1.706666 1.36,-0.96 2.64,-2.106667 1.28,-1.146667 2.29333,-2.453333 1.01333,-1.333333 1.62667,-2.8 0.64,-1.493333 0.64,-3.066667 0,-0.7466663 -0.24,-1.3866663 -0.21334,-0.6666667 -0.66667,-1.1466667 -0.42667,-0.4799999 -1.06667,-0.7466666 -0.61333,-0.2666667 -1.41333,-0.2666667 -1.28,0 -2.56,0.56 -1.25333,0.5333333 -2.29333,1.4666666 -1.01334,0.9333334 -1.65334,2.1599997 -0.61333,1.2 -0.61333,2.56 0,1.36 0.72,2.133334 0.72,0.773333 2.13333,0.773333 0.8,0 1.41334,-0.133333 0.61333,-0.16 1.12,-0.426667 0.53333,-0.293333 0.96,-0.666667 0.45333,-0.373333 0.93333,-0.826666 z m -16.21333,10 q 0,0.773333 1.78666,0.773333 0.48,0 1.04,-0.106666 0.58667,-0.106667 1.12,-0.24 0.56,-0.16 1.01334,-0.32 0.45333,-0.16 0.69333,-0.266667 -0.85333,-0.373333 -1.84,-0.586667 -0.98667,-0.213333 -1.97333,-0.213333 -0.24,0 -0.56,0.05333 -0.32,0.02667 -0.61334,0.133334 -0.26666,0.106666 -0.48,0.293333 -0.18666,0.186667 -0.18666,0.48 z"
       id="path19" />
    <path
       d="m 233.10384,15.955003 q -1.04,1.413333 -2,2.693333 -0.96,1.28 -1.70666,2.346667 -0.74667,1.066666 -1.2,1.866666 -0.42667,0.773334 -0.42667,1.226667 0,0.426667 0.21333,0.64 0.21334,0.186667 0.56,0.186667 0.50667,0 1.09334,-0.32 0.61333,-0.32 1.22666,-0.826667 0.64,-0.506667 1.22667,-1.12 0.61333,-0.613333 1.12,-1.2 0.53333,-0.613333 0.90667,-1.12 0.4,-0.506667 0.58666,-0.8 l 2.34667,-3.573333 h 1.84 q -1.44,1.973333 -2.45333,3.36 -0.98667,1.36 -1.62667,2.32 -0.61333,0.96 -0.88,1.573333 -0.26667,0.586667 -0.26667,1.04 0,0.32 0.18667,0.56 0.18667,0.213333 0.53333,0.213333 0.53334,0 1.22667,-0.373333 0.69333,-0.4 1.44,-1.013333 0.74667,-0.64 1.46667,-1.413334 0.74666,-0.8 1.38666,-1.573333 0.66667,-0.773333 1.2,-1.44 0.53333,-0.693333 0.82667,-1.12 l 0.26666,0.08 q -0.32,0.453333 -0.85333,1.173333 -0.53333,0.693334 -1.2,1.493334 -0.66667,0.773333 -1.41333,1.6 -0.74667,0.8 -1.54667,1.44 -0.77333,0.64 -1.54666,1.066666 -0.74667,0.4 -1.41334,0.4 -0.74666,0 -1.2,-0.4 -0.42666,-0.426666 -0.42666,-1.12 0,-0.533333 0.16,-1.013333 0.18666,-0.506667 0.26666,-0.64 l -0.0533,-0.05333 q -0.56,0.64 -1.17333,1.226666 -0.61334,0.586667 -1.22667,1.04 -0.61333,0.426667 -1.25333,0.693334 -0.61334,0.266666 -1.22667,0.266666 -0.85333,0 -1.22667,-0.373333 -0.37333,-0.4 -0.37333,-0.933333 0,-0.666667 0.37333,-1.44 0.34667,-0.773334 0.98667,-1.733334 0.64,-0.96 1.52,-2.16 0.90667,-1.2 1.97333,-2.746666 z"
       id="path21" />
    <path
       d="m 244.94379,15.955003 q -1.46666,2.106666 -2.48,3.546666 -1.01333,1.44 -1.65333,2.4 -0.61333,0.96 -0.90667,1.52 -0.26666,0.56 -0.26666,0.906667 0,0.693333 0.56,0.693333 0.53333,0 1.22666,-0.373333 0.72,-0.4 1.49334,-1.013333 0.77333,-0.613334 1.54666,-1.386667 0.77334,-0.773333 1.44,-1.52 0.69334,-0.773333 1.2,-1.466667 0.53334,-0.72 0.77334,-1.173333 l 0.21333,0.133333 q -0.32,0.533334 -0.88,1.28 -0.53333,0.746667 -1.22667,1.546667 -0.69333,0.773333 -1.46666,1.546667 -0.77334,0.773333 -1.57334,1.386666 -0.8,0.613334 -1.57333,0.986667 -0.74667,0.373333 -1.38667,0.373333 -0.72,0 -1.06666,-0.4 -0.34667,-0.4 -0.34667,-0.88 0,-0.56 0.24,-1.173333 0.26667,-0.64 0.82667,-1.546667 0.56,-0.906666 1.44,-2.186666 0.90666,-1.306667 2.16,-3.2 z m 1.54667,-4.96 q 0.37333,0 0.61333,0.266667 0.24,0.24 0.24,0.613333 0,0.373333 -0.24,0.64 -0.24,0.24 -0.61333,0.24 -0.37333,0 -0.61333,-0.24 -0.24,-0.266667 -0.24,-0.64 0,-0.373333 0.24,-0.613333 0.24,-0.266667 0.61333,-0.266667 z"
       id="path23" />
    <path
       d="m 256.81041,18.435003 q -0.61333,0.986666 -1.62667,2.133333 -0.98666,1.12 -2.16,2.106667 -1.44,1.2 -2.88,1.946666 -1.44,0.72 -2.82666,0.72 -0.98667,0 -1.65334,-0.506666 -0.66666,-0.533334 -0.66666,-1.546667 0,-1.28 0.72,-2.613333 0.74666,-1.333334 1.84,-2.426667 1.12,-1.12 2.42666,-1.813333 1.33334,-0.693333 2.50667,-0.693333 0.77333,0 1.33333,0.293333 0.58667,0.266666 0.58667,0.96 0,0.32 -0.18667,0.533333 -0.16,0.213333 -0.42666,0.346667 -0.24,0.133333 -0.56,0.213333 -0.29334,0.05333 -0.53334,0.08 0.10667,-0.266667 0.18667,-0.533333 0.08,-0.293334 0.08,-0.586667 0,-0.986666 -0.93333,-0.986666 -0.69334,0 -1.65334,0.693333 -0.93333,0.666666 -1.78666,1.706666 -0.82667,1.04 -1.41334,2.293334 -0.58666,1.253333 -0.58666,2.426666 0,0.72 0.32,1.226667 0.34666,0.506667 1.04,0.506667 0.93333,0 2.13333,-0.613334 1.22667,-0.613333 2.37333,-1.52 1.2,-0.933333 2.29334,-2.133333 1.12,-1.226667 1.86666,-2.373333 z"
       id="path25" />
    <path
       d="m 265.45036,6.6750031 q -2.18666,3.4666669 -4.37333,6.8266669 -2.18667,3.333333 -4.53333,6.586666 l 0.0533,0.05333 q 0.69333,-0.773333 1.36,-1.546666 0.69333,-0.8 1.41333,-1.413334 0.74667,-0.64 1.52,-1.039999 0.8,-0.4 1.65334,-0.4 0.88,0 1.25333,0.426666 0.4,0.426667 0.4,1.04 0,0.64 -0.4,1.146667 -0.37333,0.48 -0.96,0.853333 -0.56,0.346667 -1.25333,0.56 -0.66667,0.213333 -1.22667,0.32 v 0.05333 q 0.32,0.16 0.53333,0.613334 0.24,0.426666 0.24,0.906666 0,0.32 -0.13333,0.666667 -0.10667,0.346667 -0.26667,0.72 -0.16,0.373333 -0.29333,0.746667 -0.10667,0.346666 -0.10667,0.72 0,0.506666 0.42667,0.506666 0.72,0 1.81333,-0.64 1.09334,-0.64 2.32,-1.866666 0.85334,-0.853334 1.73334,-1.893334 0.88,-1.04 1.89333,-2.506666 l 0.24,0.16 q -0.50667,0.72 -1.49333,1.973333 -0.96,1.253333 -2.26667,2.56 -1.25333,1.253333 -2.37333,1.893333 -1.12,0.64 -2.05334,0.64 -0.8,0 -1.25333,-0.346666 -0.42667,-0.346667 -0.42667,-1.066667 0,-0.373333 0.18667,-0.826667 0.18667,-0.48 0.4,-0.906666 0.21333,-0.453334 0.4,-0.826667 0.18667,-0.4 0.18667,-0.64 0,-0.506667 -0.45334,-0.506667 -0.26666,0 -0.64,0.106667 -0.34666,0.106667 -0.8,0.106667 -0.4,0 -0.4,-0.24 0,-0.24 0.4,-0.24 0.16,0 0.34667,0.02667 0.21333,0.02667 0.50667,0.02667 0.8,0 1.46666,-0.186667 0.69334,-0.186666 1.2,-0.533333 0.50667,-0.373333 0.77334,-0.88 0.29333,-0.506667 0.29333,-1.146667 0,-0.56 -0.26667,-0.826666 -0.26666,-0.266667 -0.64,-0.266667 -0.50666,0 -1.17333,0.426667 -0.66667,0.4 -1.44,1.12 -0.74667,0.693333 -1.54667,1.626666 -0.77333,0.906667 -1.52,1.92 -0.72,0.986667 -1.36,2 -0.64,0.986667 -1.09333,1.866667 h -1.76 q 2.96,-4.613333 5.89333,-9.146666 2.96,-4.56 5.94667,-9.2266669 z"
       id="path27" />
    <path
       d="m 284.43694,13.155003 q 0.08,0.56 0.10667,0.96 0.0267,0.373333 0.0267,0.8 0,1.2 -0.34666,2.266666 -0.32,1.066667 -0.93334,1.893334 -0.61333,0.826666 -1.52,1.306666 -0.88,0.48 -2,0.48 -0.98666,0 -1.76,-0.346666 -0.74666,-0.373334 -1.28,-0.96 -0.50666,-0.613334 -0.77333,-1.386667 -0.26667,-0.8 -0.26667,-1.68 0,-1.173333 0.45334,-2.4 0.45333,-1.226666 1.28,-2.373333 0.82666,-1.146667 2,-2.16 1.2,-1.0133333 2.66666,-1.76 1.49334,-0.7733333 3.2,-1.1999999 1.73334,-0.4533334 3.65334,-0.4533334 1.54666,0 2.85333,0.2933334 1.30667,0.2933333 2.26667,0.8266666 1.06666,-0.5866666 1.94666,-0.8533333 0.90667,-0.2933333 1.76,-0.4266667 v 0.32 q -0.85333,0.1333334 -1.65333,0.4 -0.8,0.24 -1.65333,0.8 0.85333,0.6933333 1.28,1.4666666 0.45333,0.7466667 0.45333,1.8666667 0,1.013333 -0.45333,1.84 -0.45334,0.826667 -1.17334,1.44 -0.72,0.586667 -1.62666,0.986667 -0.90667,0.4 -1.81334,0.56 v 0.05333 q 0.77334,0.02667 1.44,0.266667 0.66667,0.213333 1.14667,0.639999 0.50667,0.4 0.77333,1.04 0.29334,0.613334 0.29334,1.466667 0,1.306667 -0.61334,2.453333 -0.61333,1.12 -1.54666,1.973334 -0.93334,0.826666 -2.08,1.306666 -1.14667,0.48 -2.24,0.48 -1.52,0 -2.45334,-0.64 -0.90666,-0.666666 -0.90666,-1.68 0,-0.666666 0.4,-1.146666 0.42666,-0.48 1.12,-0.48 0.42666,0 0.74666,0.32 -0.45333,0.08 -0.64,0.533333 -0.18666,0.426667 -0.18666,1.093333 0,0.72 0.53333,1.2 0.53333,0.48 1.36,0.48 1.22667,0 2.13333,-0.506666 0.93334,-0.533334 1.54667,-1.386667 0.61333,-0.853333 0.90667,-1.946667 0.32,-1.093333 0.32,-2.24 0,-0.853333 -0.29334,-1.413333 -0.29333,-0.586667 -0.8,-0.933333 -0.50666,-0.346667 -1.2,-0.48 -0.66666,-0.133333 -1.44,-0.133333 v -0.32 q 1.2,0 2.16,-0.4 0.98667,-0.4 1.68,-1.12 0.69334,-0.72 1.06667,-1.706667 0.4,-0.986667 0.4,-2.133333 0,-0.6133337 -0.24,-1.2000003 -0.24,-0.5866667 -0.66667,-1.04 -1.28,1.12 -2.42666,2.8533333 -1.12,1.733333 -2.26667,3.68 -1.12,1.946666 -2.32,3.893333 -1.17333,1.946667 -2.56,3.52 -1.36,1.573333 -2.98667,2.56 -1.62666,0.986667 -3.62666,0.986667 -1.38667,0 -2.18667,-0.586667 -0.8,-0.586667 -0.8,-1.413333 0,-0.533334 0.29333,-0.826667 0.32,-0.32 0.77334,-0.32 0.45333,0 0.66666,0.293333 0.24,0.266667 0.24,0.693334 0,0.373333 -0.26666,0.64 -0.24,0.24 -0.61334,0.24 0.0533,0.266666 0.26667,0.453333 0.21333,0.186667 0.48,0.32 0.29333,0.106667 0.58667,0.133333 0.29333,0.05333 0.50666,0.05333 1.33334,0 2.34667,-0.506667 1.01333,-0.506667 1.89333,-1.44 0.90667,-0.96 1.76,-2.293333 0.88,-1.36 1.89334,-3.04 1.06666,-1.733334 1.97333,-3.253333 0.93333,-1.546667 1.86667,-2.853334 0.93333,-1.306666 1.92,-2.373333 1.01333,-1.0666666 2.21333,-1.8133333 -0.85333,-0.6933333 -2.08,-0.9333333 -1.22667,-0.2666667 -2.58667,-0.2666667 -2.48,0 -4.69333,0.8533333 -2.21333,0.8266667 -3.86667,2.2133333 -1.65333,1.3599997 -2.64,3.1466667 -0.96,1.76 -0.96,3.653333 0,0.72 0.18667,1.493333 0.18667,0.746667 0.56,1.36 0.4,0.586667 0.98667,0.986667 0.58666,0.373333 1.38666,0.373333 0.98667,0 1.81334,-0.426666 0.82666,-0.426667 1.41333,-1.173334 0.58667,-0.746666 0.90667,-1.786666 0.34666,-1.066667 0.34666,-2.293333 0,-0.426667 -0.0267,-0.826667 -0.0267,-0.426667 -0.08,-0.853333 z"
       id="path29" />
    <path
       d="m 301.69026,15.955003 -3.38666,4.933333 0.0533,0.05333 q 0.37333,-0.453333 0.93333,-1.04 0.58667,-0.613333 1.25334,-1.226666 0.69333,-0.64 1.44,-1.253334 0.74666,-0.613333 1.46666,-1.093333 0.13334,-0.266666 0.29334,-0.426666 0.16,-0.16 0.64,-0.16 0.29333,0 0.50666,0.02667 0.24,0 0.48,0.02667 -0.45333,0.453333 -0.88,1.12 -0.42666,0.64 -0.42666,1.413333 0,0.613333 0.29333,0.96 0.32,0.346667 0.77333,0.346667 0.4,0 0.77334,-0.16 0.4,-0.16 0.74666,-0.4 0.34667,-0.24 0.66667,-0.506667 0.32,-0.266667 0.56,-0.48 l 0.16,0.106667 q -0.26667,0.266666 -0.61333,0.586666 -0.34667,0.293334 -0.74667,0.56 -0.4,0.266667 -0.85333,0.453334 -0.45334,0.16 -0.93334,0.16 -0.85333,0 -1.38666,-0.506667 -0.50667,-0.533333 -0.50667,-1.466667 0,-0.64 0.29333,-1.146666 l -0.0533,-0.05333 q -1.09333,0.746667 -2.4,1.973334 -1.30667,1.2 -2.77333,2.853333 -0.53334,0.586667 -1.12,1.546667 -0.56,0.96 -0.98667,1.973333 h -1.73333 q 1.44,-2.293333 2.88,-4.56 1.44,-2.266667 2.96,-4.613333 z"
       id="path31" />
    <path
       d="m 319.82356,18.381669 q -0.64,0.72 -1.44,1.146667 -0.8,0.426667 -1.57334,0.426667 -0.74666,0 -1.28,-0.32 -0.53333,-0.346667 -0.82666,-0.8 h -0.0533 q -0.26666,1.013333 -0.98666,2.16 -0.72,1.146666 -1.73334,2.106666 -0.98666,0.96 -2.18666,1.6 -1.2,0.64 -2.45334,0.64 -1.14666,0 -1.73333,-0.666666 -0.58667,-0.666667 -0.58667,-1.786667 0,-0.586667 0.29334,-1.36 0.29333,-0.773333 0.8,-1.546667 0.53333,-0.8 1.22666,-1.546666 0.72,-0.773334 1.54667,-1.36 0.82667,-0.613334 1.73333,-0.96 0.93334,-0.373333 1.86667,-0.373333 1.09333,0 1.68,0.639999 0.61333,0.64 0.66667,1.653334 0.0533,0.613333 0.56,1.146666 0.53333,0.506667 1.44,0.506667 0.8,0 1.49333,-0.4 0.72,-0.4 1.33333,-1.04 z m -13.41334,5.146667 q 0,0.693333 0.26667,1.093333 0.26667,0.4 0.8,0.4 0.72,0 1.41333,-0.373333 0.72,-0.4 1.36,-1.013333 0.66667,-0.64 1.22667,-1.44 0.56,-0.8 0.96,-1.653334 0.42667,-0.853333 0.66667,-1.653333 0.24,-0.826667 0.24,-1.493333 0,-0.56 -0.29334,-0.933334 -0.26666,-0.399999 -0.85333,-0.399999 -0.56,0 -1.2,0.373333 -0.64,0.346666 -1.30667,0.933333 -0.64,0.586667 -1.22666,1.36 -0.58667,0.773333 -1.06667,1.6 -0.45333,0.826667 -0.72,1.653333 -0.26667,0.826667 -0.26667,1.546667 z"
       id="path33" />
    <path
       d="m 322.75684,15.955003 q -1.12,1.546666 -2.05333,2.72 -0.93334,1.146666 -1.6,2.08 -0.66667,0.906666 -1.04,1.68 -0.34667,0.746666 -0.34667,1.466666 0,1.12 0.93333,1.12 0.88,0 1.86667,-0.773333 0.98667,-0.8 2,-2.08 1.04,-1.28 2.10667,-2.906667 1.09333,-1.626666 2.16,-3.306666 h 1.84 q -0.48,0.64 -1.25334,1.68 -0.74666,1.04 -1.49333,2.186666 -0.74667,1.12 -1.28,2.213334 -0.53333,1.066666 -0.53333,1.813333 0,0.533333 0.26666,0.853333 0.29334,0.32 0.82667,0.32 0.96,0 2.02667,-0.72 1.06666,-0.72 1.97333,-1.813333 0.93333,-1.12 1.57333,-2.426667 0.64,-1.306666 0.74667,-2.453333 -0.18667,-0.266667 -0.26667,-0.533333 -0.0533,-0.266667 -0.0533,-0.48 0,-0.853333 0.8,-0.853333 0.56,0 0.74667,0.479999 0.21333,0.48 0.21333,1.173334 0,0.346666 -0.0533,0.693333 -0.0533,0.32 -0.10667,0.613333 0.34667,0.32 0.8,0.613334 0.48,0.266666 1.2,0.266666 0.96,0 1.62667,-0.373333 0.66666,-0.4 1.04,-1.093333 l 0.24,0.16 q -0.90667,1.626666 -2.96,1.626666 -0.58667,0 -1.12,-0.213333 -0.50667,-0.24 -0.90667,-0.613333 -0.42667,1.12 -1.30667,2.24 -0.88,1.093333 -1.97333,2 -1.09333,0.906666 -2.29333,1.466666 -1.17334,0.56 -2.21334,0.56 -0.88,0 -1.49333,-0.48 -0.61333,-0.48 -0.61333,-1.413333 0,-0.506667 0.13333,-0.88 0.13333,-0.4 0.18667,-0.586667 l -0.0533,-0.05333 q -0.53333,0.693333 -1.09333,1.333333 -0.56,0.613334 -1.14667,1.093334 -0.56,0.453333 -1.14666,0.72 -0.58667,0.266666 -1.2,0.266666 -1.01334,0 -1.52,-0.506666 -0.50667,-0.533334 -0.50667,-1.413334 0,-0.64 0.32,-1.333333 0.32,-0.72 0.90667,-1.6 0.58666,-0.906667 1.41333,-2 0.85333,-1.12 1.92,-2.533333 z"
       id="path35" />
    <path
       d="m 340.14351,15.955003 -3.52,4.88 0.0533,0.05333 q 0.56,-0.666667 1.30667,-1.546667 0.74666,-0.906666 1.6,-1.706666 0.85333,-0.8 1.76,-1.333334 0.93333,-0.559999 1.84,-0.559999 0.8,0 1.22666,0.453333 0.45334,0.426666 0.45334,1.12 0,0.426666 -0.32,1.013333 -0.29334,0.586667 -0.74667,1.253333 -0.45333,0.666667 -0.98667,1.36 -0.53333,0.693334 -0.98666,1.333334 -0.45334,0.613333 -0.77334,1.146666 -0.29333,0.506667 -0.29333,0.853334 0,0.746666 0.74667,0.746666 0.85333,0 1.81333,-0.56 0.96,-0.586666 2.29333,-1.946666 0.53334,-0.533334 1.06667,-1.173334 0.56,-0.64 1.06667,-1.253333 0.50666,-0.64 0.90666,-1.2 0.42667,-0.56 0.66667,-0.933333 l 0.18667,0.106666 q -0.53334,0.8 -1.38667,1.92 -0.82667,1.093334 -1.81333,2.16 -0.58667,0.64 -1.2,1.226667 -0.61334,0.586667 -1.22667,1.04 -0.61333,0.426667 -1.22667,0.693333 -0.58666,0.24 -1.17333,0.24 -0.77333,0 -1.28,-0.426666 -0.50667,-0.426667 -0.50667,-1.173334 0,-0.8 0.64,-1.733333 0.64,-0.96 1.41334,-1.92 0.77333,-0.96 1.41333,-1.84 0.64,-0.88 0.64,-1.546667 0,-0.32 -0.21333,-0.48 -0.21334,-0.159999 -0.56,-0.159999 -0.66667,0 -1.49334,0.506666 -0.82666,0.48 -1.70666,1.306667 -0.85334,0.8 -1.73334,1.813333 -0.85333,0.986667 -1.6,2 -0.74666,0.986667 -1.33333,1.92 -0.58667,0.906667 -0.88,1.52 h -1.65333 q 0.69333,-1.173333 1.49333,-2.373333 0.77333,-1.226667 1.54667,-2.4 0.77333,-1.2 1.46666,-2.293334 0.72,-1.12 1.28,-2.026666 z"
       id="path37" />
    <path
       d="m 174.54403,49.848339 0.0533,-0.32 h 1.14666 q 0.77334,-1.2 1.57334,-2.426667 0.82666,-1.226667 1.78666,-2.293333 0.98667,-1.093333 2.16,-1.92 1.2,-0.853333 2.66667,-1.226667 v -0.05333 q -0.69333,0 -1.41333,0 -0.72,-0.02667 -1.57334,-0.05333 -0.82666,-0.02667 -1.86666,-0.02667 -1.01334,-0.02667 -2.32,-0.02667 -2.64,0 -4.8,0.453334 -2.16,0.453333 -3.70667,1.28 -1.52,0.826666 -2.37333,1.946666 -0.85334,1.093333 -0.90667,2.426667 -0.0533,1.28 0.90667,2.053333 0.98666,0.746667 2.66666,0.746667 1.09334,0 2.24,-0.346667 1.14667,-0.373333 2.08,-1.013333 0.93334,-0.666667 1.52,-1.573334 0.61334,-0.906666 0.61334,-1.973333 0,-0.453333 -0.08,-0.8 -0.08,-0.373333 -0.16,-0.666666 l 0.26666,-0.05333 q 0.29334,0.746667 0.29334,1.546667 0,0.96 -0.56,1.893333 -0.56,0.933333 -1.49334,1.68 -0.93333,0.72 -2.18666,1.173333 -1.22667,0.453334 -2.56,0.453334 -1.78667,0 -2.82667,-0.8 -1.04,-0.8 -1.04,-2.24 0,-1.466667 0.98667,-2.8 1.01333,-1.36 2.90666,-2.4 1.89334,-1.04 4.64,-1.653333 2.77334,-0.613334 6.29334,-0.613334 2.34666,0 4.08,0.05333 1.76,0.05333 2.61333,0.05333 0.61333,0 1.09333,-0.05333 0.50667,-0.05333 0.90667,-0.05333 0.53333,0 0.90667,0.08 0.37333,0.05333 0.37333,0.453334 0,0.346666 -0.13333,0.533333 -0.13334,0.186667 -0.66667,0.266667 -0.50667,0.08 -1.52,0.106666 -1.01333,0 -2.74667,0 -1.54666,0.56 -2.58666,1.493334 -1.04,0.906666 -1.81334,1.999999 -0.74666,1.066667 -1.36,2.213334 -0.58666,1.12 -1.30666,2.106666 0.32,-0.05333 0.8,-0.08 0.50666,-0.02667 0.98666,-0.08 0.48,-0.05333 0.88,-0.133333 0.4,-0.08 0.50667,-0.24 0.24,-0.32 0.56,-0.64 0.34667,-0.32 0.90667,-0.32 0.34666,0 0.66666,0.106667 -1.09333,0.933333 -2.05333,2.026666 -0.96,1.066667 -1.73333,2.293334 l -0.16,-0.08 q 0.26666,-0.746667 0.64,-1.413334 0.37333,-0.693333 0.74666,-1.386666 -0.34666,0.05333 -0.77333,0.106666 -0.4,0.02667 -0.8,0.08 -0.4,0.02667 -0.74667,0.05333 -0.34666,0.02667 -0.56,0.05333 -0.96,1.6 -2.08,3.173333 -1.09333,1.573334 -2.45333,2.853334 -1.36,1.253333 -3.04,2.053333 -1.68,0.773333 -3.78667,0.773333 -0.72,0 -1.54666,-0.186667 -0.8,-0.186666 -1.49334,-0.586666 -0.69333,-0.4 -1.14666,-1.013333 -0.45334,-0.613334 -0.45334,-1.466667 0,-0.533333 0.29334,-0.986667 0.32,-0.453333 0.90666,-0.453333 0.42667,0 0.64,0.266667 0.24,0.266666 0.24,0.666666 0,0.373334 -0.18666,0.666667 -0.18667,0.266667 -0.56,0.266667 -0.16,0 -0.26667,-0.02667 0,0.08 0.0533,0.506667 0.08,0.4 0.42667,0.853333 0.34667,0.453333 1.09333,0.826667 0.77334,0.346666 2.13334,0.346666 1.73333,0 3.17333,-0.853333 1.44,-0.88 2.61333,-2.16 1.17334,-1.28 2.10667,-2.773333 0.96,-1.493334 1.73333,-2.72 z"
       id="path39" />
    <path
       d="m 195.4507,51.715005 q -0.64,0.72 -1.44,1.146667 -0.8,0.426667 -1.57334,0.426667 -0.74666,0 -1.28,-0.32 -0.53333,-0.346667 -0.82666,-0.8 h -0.0533 q -0.26666,1.013333 -0.98666,2.16 -0.72,1.146666 -1.73334,2.106666 -0.98666,0.96 -2.18666,1.6 -1.2,0.64 -2.45334,0.64 -1.14666,0 -1.73333,-0.666666 -0.58667,-0.666667 -0.58667,-1.786667 0,-0.586667 0.29334,-1.36 0.29333,-0.773333 0.8,-1.546667 0.53333,-0.8 1.22666,-1.546666 0.72,-0.773334 1.54667,-1.36 0.82667,-0.613334 1.73333,-0.96 0.93334,-0.373334 1.86667,-0.373334 1.09333,0 1.68,0.64 0.61333,0.64 0.66667,1.653334 0.0533,0.613333 0.56,1.146666 0.53333,0.506667 1.44,0.506667 0.8,0 1.49333,-0.4 0.72,-0.4 1.33333,-1.04 z m -13.41334,5.146667 q 0,0.693333 0.26667,1.093333 0.26667,0.4 0.8,0.4 0.72,0 1.41333,-0.373333 0.72,-0.4 1.36,-1.013333 0.66667,-0.64 1.22667,-1.44 0.56,-0.8 0.96,-1.653334 0.42667,-0.853333 0.66667,-1.653333 0.24,-0.826667 0.24,-1.493333 0,-0.56 -0.29334,-0.933334 -0.26666,-0.4 -0.85333,-0.4 -0.56,0 -1.2,0.373334 -0.64,0.346666 -1.30667,0.933333 -0.64,0.586667 -1.22666,1.36 -0.58667,0.773333 -1.06667,1.6 -0.45333,0.826667 -0.72,1.653333 -0.26667,0.826667 -0.26667,1.546667 z"
       id="path41" />
    <path
       d="m 208.86398,51.368339 q -0.58666,1.04 -1.65333,2.32 -1.06667,1.253333 -2.32,2.373333 -1.25333,1.12 -2.58667,1.866667 -1.30666,0.746666 -2.45333,0.746666 -0.96,0 -1.46667,-0.453333 -0.50666,-0.453333 -0.50666,-1.146667 0,-0.666666 0.29333,-1.253333 l -0.0533,-0.05333 q -0.42667,0.56 -0.98667,1.093333 -0.53333,0.506667 -1.17333,0.933333 -0.61334,0.4 -1.30667,0.64 -0.69333,0.24 -1.41333,0.24 -1.25334,0 -1.94667,-0.613333 -0.72,-0.613333 -0.72,-1.626667 0,-0.693333 0.4,-1.173333 0.4,-0.48 0.96,-0.48 0.50667,0 0.72,0.266667 0.21333,0.266666 0.21333,0.613333 0,0.346667 -0.21333,0.586667 -0.18667,0.24 -0.56,0.24 -0.50667,0 -0.66667,-0.373334 -0.32,0.266667 -0.32,0.693334 0,0.746666 0.61334,1.146666 0.58666,0.4 1.52,0.4 0.69333,0 1.44,-0.373333 0.77333,-0.4 1.46666,-1.013333 0.72,-0.64 1.36,-1.44 0.64,-0.826667 1.12,-1.68 0.48,-0.853334 0.74667,-1.68 0.29333,-0.826667 0.29333,-1.466667 0,-0.64 -0.32,-1.066667 -0.29333,-0.453333 -0.93333,-0.453333 -0.50667,0 -0.96,0.266667 -0.42667,0.24 -0.8,0.64 -0.37333,0.373333 -0.66667,0.8 -0.26666,0.4 -0.48,0.72 l -0.24,-0.16 q 0.32,-0.506667 0.64,-0.96 0.34667,-0.48 0.74667,-0.826667 0.4,-0.373333 0.90667,-0.586667 0.50666,-0.213333 1.14666,-0.213333 0.61334,0 1.04,0.213333 0.45334,0.186667 0.74667,0.533334 0.29333,0.346666 0.45333,0.773333 0.16,0.426667 0.16,0.906667 0.32,-0.346667 0.77334,-0.72 0.48,-0.4 1.04,-0.72 0.56,-0.346667 1.2,-0.56 0.64,-0.213334 1.30666,-0.213334 0.85334,0 1.33334,0.426667 0.50666,0.4 0.50666,0.986667 0,0.373333 -0.34666,0.693333 -0.34667,0.32 -0.90667,0.32 -0.10667,0 -0.37333,-0.05333 0.13333,-0.373334 0.24,-0.666667 0.10666,-0.32 0.10666,-0.586667 0,-0.8 -0.74666,-0.8 -0.61334,0 -1.30667,0.373334 -0.69333,0.346666 -1.36,0.96 -0.66667,0.586666 -1.30667,1.36 -0.61333,0.746666 -1.09333,1.573333 -0.45333,0.8 -0.74667,1.573333 -0.26666,0.773334 -0.26666,1.413334 0,0.773333 0.29333,1.2 0.32,0.4 1.01333,0.4 0.58667,0 1.30667,-0.346667 0.72,-0.346667 1.52,-0.906667 0.8,-0.56 1.6,-1.28 0.8,-0.746666 1.52,-1.52 0.72,-0.773333 1.30667,-1.52 0.58666,-0.773333 0.93333,-1.386666 z"
       id="path43" />
    <path
       d="m 225.71722,45.101672 q 0.10666,0.266667 0.13333,0.56 0.0533,0.293333 0.0533,0.533333 0,0.826667 -0.4,1.546667 -0.37333,0.72 -0.98666,1.253333 -0.61334,0.506667 -1.41334,0.826667 -0.8,0.293333 -1.65333,0.293333 -1.70667,0 -2.66667,-0.826666 -0.93333,-0.826667 -0.93333,-2.16 0,-1.44 0.88,-2.48 0.88,-1.066667 2.29333,-1.813333 1.41334,-0.746667 3.17334,-1.2 1.78666,-0.48 3.54666,-0.746667 1.76,-0.266667 3.33334,-0.346667 1.6,-0.106666 2.66666,-0.106666 1.09334,0 1.97334,-0.266667 0.90666,-0.266667 1.44,-0.266667 0.13333,0 0.29333,0.08 0.16,0.05333 0.16,0.24 0,0.186667 -0.24,0.32 -0.24,0.106667 -0.61333,0.16 -0.34667,0.02667 -0.8,0.05333 -0.42667,0 -0.8,0 -0.8,0 -1.78667,0.933333 -0.98667,0.906667 -2.05333,2.4 -1.06667,1.466666 -2.18667,3.306666 -1.09333,1.813334 -2.16,3.626667 -1.04,1.786667 -1.97333,3.413333 -0.93334,1.6 -1.65334,2.613334 l 0.0533,0.05333 q 1.57333,-0.48 2.72,-0.986667 1.14666,-0.506666 2.08,-1.173333 0.93333,-0.666667 1.73333,-1.546667 0.8,-0.88 1.62667,-2.08 l 0.21333,0.133334 q -0.82667,1.226666 -1.65333,2.16 -0.82667,0.906666 -1.84,1.626666 -0.98667,0.693334 -2.26667,1.253334 -1.28,0.533333 -3.01333,1.013333 -1.04,1.573333 -2.26667,3.146666 -1.22667,1.6 -2.69333,2.88 -1.44,1.28 -3.12,2.08 -1.68,0.8 -3.6,0.8 -0.77334,0 -1.52,-0.213333 -0.74667,-0.213333 -1.33334,-0.64 -0.58666,-0.4 -0.93333,-0.986667 -0.37333,-0.586666 -0.37333,-1.333333 0,-1.173333 0.58666,-1.973333 0.56,-0.773334 1.57334,-1.306667 1.01333,-0.506667 2.4,-0.826667 1.36,-0.32 2.93333,-0.586666 1.6,-0.24 3.33333,-0.453333 1.73334,-0.24 3.44,-0.586667 0.85334,-1.333333 1.73334,-2.906667 0.90666,-1.6 1.86666,-3.226666 0.98667,-1.653334 2.02667,-3.253334 1.04,-1.626666 2.18667,-3.013333 1.17333,-1.413333 2.42666,-2.533333 1.28,-1.12 2.69334,-1.76 v -0.05333 q -1.12,0 -2.69334,0.106666 -1.54666,0.106667 -3.25333,0.373334 -1.68,0.266666 -3.36,0.746666 -1.65333,0.453334 -2.98667,1.2 -1.30666,0.746667 -2.13333,1.813333 -0.8,1.04 -0.8,2.453334 0,0.933333 0.56,1.653333 0.56,0.693333 1.76,0.693333 0.8,0 1.54667,-0.266666 0.74666,-0.293334 1.30666,-0.773334 0.58667,-0.506666 0.93334,-1.173333 0.34666,-0.666667 0.34666,-1.413333 0,-0.453334 -0.16,-1.04 z m -14.45334,20.986666 q 1.65334,0 3.14667,-0.88 1.52,-0.88 2.8,-2.16 1.28,-1.28 2.29333,-2.72 1.01334,-1.413333 1.68,-2.479999 -1.57333,0.32 -3.14666,0.533333 -1.54667,0.213333 -2.96,0.426666 -1.41334,0.24 -2.64,0.533334 -1.2,0.32 -2.08,0.8 -0.90667,0.506666 -1.41334,1.253333 -0.50666,0.773333 -0.50666,1.893333 0,1.493334 0.82666,2.133334 0.8,0.666666 2,0.666666 z"
       id="path45" />
    <path
       d="m 234.59717,49.288339 q -1.04,1.413333 -2,2.693333 -0.96,1.28 -1.70667,2.346667 -0.74667,1.066666 -1.2,1.866666 -0.42667,0.773334 -0.42667,1.226667 0,0.426667 0.21334,0.64 0.21333,0.186667 0.56,0.186667 0.50666,0 1.09333,-0.32 0.61333,-0.32 1.22667,-0.826667 0.64,-0.506667 1.22666,-1.12 0.61334,-0.613333 1.12,-1.2 0.53334,-0.613333 0.90667,-1.12 0.4,-0.506667 0.58667,-0.8 l 2.34666,-3.573333 h 1.84 q -1.44,1.973333 -2.45333,3.36 -0.98667,1.36 -1.62667,2.32 -0.61333,0.96 -0.88,1.573333 -0.26666,0.586667 -0.26666,1.04 0,0.32 0.18666,0.56 0.18667,0.213333 0.53334,0.213333 0.53333,0 1.22666,-0.373333 0.69334,-0.4 1.44,-1.013333 0.74667,-0.64 1.46667,-1.413334 0.74667,-0.8 1.38667,-1.573333 0.66666,-0.773333 1.2,-1.44 0.53333,-0.693333 0.82666,-1.12 l 0.26667,0.08 q -0.32,0.453333 -0.85333,1.173333 -0.53334,0.693334 -1.2,1.493334 -0.66667,0.773333 -1.41334,1.6 -0.74666,0.8 -1.54666,1.44 -0.77334,0.64 -1.54667,1.066666 -0.74667,0.4 -1.41333,0.4 -0.74667,0 -1.2,-0.4 -0.42667,-0.426666 -0.42667,-1.12 0,-0.533333 0.16,-1.013333 0.18667,-0.506667 0.26667,-0.64 l -0.0533,-0.05333 q -0.56,0.64 -1.17333,1.226666 -0.61333,0.586667 -1.22667,1.04 -0.61333,0.426667 -1.25333,0.693333 -0.61333,0.266667 -1.22667,0.266667 -0.85333,0 -1.22666,-0.373333 -0.37334,-0.4 -0.37334,-0.933333 0,-0.666667 0.37334,-1.44 0.34666,-0.773334 0.98666,-1.733334 0.64,-0.96 1.52,-2.16 0.90667,-1.2 1.97334,-2.746666 z"
       id="path47" />
    <path
       d="m 238.70379,58.461672 q 0.58667,-0.986667 1.36,-2.16 0.74667,-1.173333 1.52,-2.373333 0.8,-1.226667 1.54667,-2.4 0.77333,-1.2 1.38666,-2.24 h 1.62667 l -3.52,4.96 0.0533,0.05333 q 0.50667,-0.613333 1.22667,-1.493333 0.72,-0.906667 1.57333,-1.733334 0.88,-0.826666 1.86667,-1.413333 0.98667,-0.586667 2.02667,-0.586667 0.64,0 1.04,0.346667 0.42666,0.32 0.42666,0.96 0,0.373333 -0.26666,0.906667 -0.26667,0.533333 -0.64,1.093333 -0.34667,0.533333 -0.72,1.04 -0.37334,0.506667 -0.58667,0.826667 l 0.0533,0.05333 q 0.56,-0.8 1.33334,-1.706667 0.8,-0.906666 1.68,-1.68 0.90666,-0.8 1.84,-1.306666 0.96,-0.533334 1.84,-0.533334 0.77333,0 1.14666,0.373334 0.4,0.373333 0.4,1.04 0,0.453333 -0.32,1.066666 -0.29333,0.613334 -0.77333,1.306667 -0.45333,0.666667 -0.98667,1.36 -0.53333,0.693333 -1.01333,1.333333 -0.45333,0.64 -0.77333,1.2 -0.29334,0.533334 -0.29334,0.906667 0,0.32 0.18667,0.506667 0.21333,0.186666 0.50667,0.186666 0.64,0 1.49333,-0.506666 0.88,-0.506667 1.86667,-1.413334 1.01333,-0.906666 2.10666,-2.16 1.09334,-1.28 2.21334,-2.8 l 0.21333,0.106667 q -1.09333,1.493333 -2.18667,2.8 -1.09333,1.28 -2.13333,2.24 -1.01333,0.96 -1.97333,1.52 -0.93334,0.533333 -1.73334,0.533333 -0.82666,0 -1.22666,-0.453333 -0.4,-0.48 -0.4,-1.173333 0,-0.506667 0.29333,-1.12 0.32,-0.64 0.77333,-1.306667 0.48,-0.666667 1.01334,-1.333333 0.53333,-0.666667 0.98666,-1.28 0.48,-0.613334 0.77334,-1.12 0.32,-0.506667 0.32,-0.826667 0,-0.373333 -0.21334,-0.506667 -0.18666,-0.16 -0.48,-0.16 -0.53333,0 -1.25333,0.373334 -0.72,0.346666 -1.52,1.013333 -0.77333,0.64 -1.6,1.52 -0.82667,0.853333 -1.62667,1.866667 -0.77333,0.986666 -1.46666,2.106666 -0.69334,1.093334 -1.2,2.186667 h -1.70667 q 0.74667,-1.333333 1.6,-2.666667 0.88,-1.333333 1.62667,-2.453333 0.74666,-1.146667 1.25333,-1.973333 0.50667,-0.853334 0.50667,-1.253334 0,-0.72 -0.74667,-0.72 -0.66667,0 -1.49333,0.506667 -0.82667,0.48 -1.68,1.28 -0.85334,0.773333 -1.68,1.786667 -0.82667,0.986666 -1.57334,2 -0.72,1.013333 -1.28,1.946666 -0.56,0.906667 -0.88,1.546667 z"
       id="path49" />
    <path
       d="m 267.58378,44.115006 q -1.41333,2.159999 -2.93333,4.239999 -1.52,2.08 -2.90667,4.266667 l 0.0533,0.05333 q 0.4,-0.533333 0.93333,-1.146666 0.53333,-0.64 1.14667,-1.173334 0.61333,-0.56 1.33333,-0.906666 0.72,-0.373334 1.46667,-0.373334 0.85333,0 1.44,0.453334 0.58666,0.453333 0.58666,1.573333 0,0.693333 -0.18666,1.333333 -0.18667,0.613334 -0.50667,1.173334 -0.29333,0.533333 -0.69333,1.013333 -0.37334,0.453333 -0.77334,0.853333 l 0.0533,0.05333 q 1.92,-0.346667 3.46666,-1.306667 1.57334,-0.96 3.12,-2.88 l 0.21334,0.106667 q -1.2,1.466666 -2.24,2.293333 -1.04,0.826667 -1.92,1.253333 -0.88,0.4 -1.62667,0.56 -0.74667,0.16 -1.41333,0.32 -0.45334,0.346667 -1.04,0.826667 -0.56,0.48 -1.2,0.933333 -0.64,0.426667 -1.33334,0.746667 -0.69333,0.293333 -1.41333,0.293333 -0.37333,0 -0.74667,-0.213333 -0.34666,-0.186667 -0.34666,-0.64 0,-0.56 0.53333,-0.933333 0.56,-0.373334 1.33333,-0.586667 0.8,-0.24 1.65334,-0.346667 0.85333,-0.133333 1.44,-0.186666 0.34666,-0.4 0.69333,-0.96 0.37333,-0.586667 0.66667,-1.226667 0.29333,-0.64 0.48,-1.306667 0.18666,-0.693333 0.18666,-1.28 0,-0.933333 -0.26666,-1.2 -0.26667,-0.293333 -0.64,-0.293333 -0.61334,0 -1.30667,0.453333 -0.66667,0.426667 -1.36,1.146667 -0.69333,0.693333 -1.38667,1.573333 -0.66666,0.853334 -1.25333,1.706667 -0.58667,0.853333 -1.06667,1.6 -0.48,0.72 -0.8,1.146667 -0.24,0.346666 -0.69333,1.013333 -0.45333,0.666666 -1.01333,1.52 -0.56,0.853333 -1.17334,1.84 -0.64,0.986666 -1.25333,1.973333 -0.61333,1.013333 -1.17333,1.946667 -0.56,0.933333 -0.98667,1.68 h -1.65333 q 3.6,-5.786667 7.33333,-11.466667 3.76,-5.706666 7.41333,-11.519999 z m -6,14.239999 q 0.4,0 0.88,-0.266666 0.50667,-0.266667 0.96,-0.64 0.48,-0.373334 0.85334,-0.746667 0.37333,-0.373333 0.53333,-0.56 l -0.0533,-0.05333 q -0.45334,0.08 -1.14667,0.186666 -0.66667,0.08 -1.30667,0.24 -0.61333,0.16 -1.06666,0.453334 -0.42667,0.266666 -0.42667,0.746666 0,0.32 0.24,0.48 0.24,0.16 0.53333,0.16 z"
       id="path51" />
    <path
       d="m 282.11707,51.581672 q -0.8,1.28 -1.86666,2.56 -1.04,1.253333 -2.29333,2.266667 -1.25334,1.013333 -2.74667,1.653333 -1.46667,0.613333 -3.14667,0.613333 -0.64,0 -1.2,-0.16 -0.56,-0.16 -0.98666,-0.48 -0.4,-0.32 -0.64,-0.8 -0.26667,-0.506666 -0.26667,-1.173333 0,-0.693333 0.45333,-1.253333 0.45334,-0.56 1.22667,-0.56 0.4,0 0.64,0.213333 0.26667,0.186667 0.26667,0.586667 0,0.373333 -0.18667,0.64 -0.18667,0.266666 -0.56,0.266666 -0.29333,0 -0.48,-0.16 -0.16,-0.16 -0.21333,-0.4 -0.29334,0.16 -0.4,0.48 -0.10667,0.293334 -0.10667,0.613334 0,0.933333 0.69333,1.413333 0.72,0.453333 1.6,0.453333 0.56,0 0.96,-0.213333 0.42667,-0.24 0.69334,-0.586667 0.29333,-0.373333 0.42666,-0.853333 0.13334,-0.48 0.13334,-0.96 0,-0.506667 -0.18667,-1.04 -0.16,-0.56 -0.37333,-1.093333 -0.21334,-0.533334 -0.4,-1.04 -0.18667,-0.533334 -0.18667,-0.986667 0,-0.586667 0.24,-1.04 0.24,-0.48 0.64,-0.8 0.42667,-0.32 0.96,-0.48 0.53333,-0.186667 1.12,-0.186667 1.06667,0 1.73333,0.48 0.66667,0.453334 0.66667,1.226667 0,0.693333 -0.53333,1.013333 -0.50667,0.32 -1.14667,0.32 0.16,-0.293333 0.26667,-0.693333 0.13333,-0.426667 0.13333,-0.773333 0,-0.533334 -0.34667,-0.88 -0.32,-0.373334 -0.93333,-0.373334 -0.77333,0 -1.14667,0.48 -0.37333,0.453334 -0.37333,1.12 0,0.586667 0.18667,1.12 0.21333,0.533334 0.48,1.066667 0.24,0.533333 0.42666,1.093333 0.21334,0.56 0.21334,1.253334 0,0.506666 -0.24,0.986666 -0.21334,0.453334 -0.58667,0.853334 -0.37333,0.373333 -0.85333,0.64 -0.45334,0.266666 -0.93334,0.346666 l 0.0533,0.05333 q 1.44,-0.159999 2.74666,-0.826666 1.30667,-0.693333 2.42667,-1.653333 1.14666,-0.986667 2.10666,-2.133334 0.96,-1.173333 1.68,-2.293333 z"
       id="path53" />
    <path
       d="m 303.71697,42.915006 q 0,-0.453334 -0.08,-0.853334 -0.08,-0.4 -0.29333,-0.693333 -0.21334,-0.32 -0.64,-0.506667 -0.4,-0.186666 -1.04,-0.186666 -0.13334,0 -0.32,0 -0.16,0 -0.32,0.05333 -0.37334,0.4 -0.74667,0.986667 -0.37333,0.56 -0.66667,1.253333 -0.29333,0.693333 -0.48,1.466666 -0.18666,0.773334 -0.18666,1.573334 0,4.133333 3.30666,6.186666 1.28,-2.053333 2.02667,-4.426666 0.77333,-2.373334 0.77333,-4.8 0,-0.506667 -0.0533,-1.066667 -0.0533,-0.56 -0.24,-1.013333 -0.18667,-0.48 -0.58667,-0.773333 -0.37333,-0.32 -1.04,-0.32 -0.48,0 -0.96,0.16 -0.45333,0.133333 -0.74666,0.346666 l 0.0533,0.05333 h 0.37333 q 0.66667,0 1.09334,0.213333 0.42666,0.213333 0.66666,0.586667 0.24,0.346666 0.32,0.826666 0.10667,0.453334 0.10667,0.933334 z M 291.6103,54.568339 q 0,0.64 0.16,1.306666 0.18667,0.64 0.53334,1.173334 0.37333,0.533333 0.90666,0.88 0.56,0.32 1.28,0.32 0.98667,0 2.10667,-0.56 1.12,-0.586667 2.16,-1.44 1.06667,-0.88 1.94667,-1.893334 0.88,-1.013333 1.38666,-1.893333 -1.76,-1.04 -2.66666,-2.64 -0.90667,-1.626667 -0.90667,-3.6 0,-0.586667 0.10667,-1.253333 0.10666,-0.693333 0.34666,-1.386667 0.24,-0.693333 0.61334,-1.386666 0.37333,-0.72 0.93333,-1.333334 l -0.0533,-0.05333 q -1.68,0.506667 -3.28,1.92 -1.57334,1.386667 -2.82667,3.306666 -1.22667,1.92 -2,4.16 -0.74667,2.213334 -0.74667,4.373334 z m 17.89334,-3.12 q -0.4,0.426666 -0.93334,0.773333 -0.50666,0.346667 -1.06666,0.586667 -0.56,0.24 -1.12,0.373333 -0.56,0.133333 -1.06667,0.133333 -0.85333,0 -1.46667,-0.16 -0.61333,-0.16 -1.14666,-0.373333 -0.64,0.933333 -1.62667,1.973333 -0.96,1.04 -2.10667,1.92 -1.14666,0.853334 -2.4,1.44 -1.25333,0.56 -2.45333,0.56 -2.10667,0 -3.17333,-1.2 -1.04,-1.226666 -1.04,-3.28 0,-1.653333 0.53333,-3.253333 0.56,-1.626667 1.46667,-3.093333 0.90666,-1.493334 2.05333,-2.773334 1.17333,-1.279999 2.4,-2.266666 1.22667,-0.986667 2.4,-1.6 1.2,-0.64 2.16,-0.8 0.4,-0.373333 0.98667,-0.64 0.61333,-0.293333 1.30666,-0.293333 1.62667,0 2.37334,1.04 0.74666,1.04 0.74666,3.066666 0,1.066667 -0.32,2.293333 -0.32,1.2 -0.82666,2.4 -0.48,1.2 -1.09334,2.293334 -0.61333,1.093333 -1.22666,1.946666 0.53333,0.24 1.12,0.373334 0.61333,0.106666 1.36,0.106666 1.06666,0 2.10666,-0.48 1.04,-0.48 1.89334,-1.253333 z"
       id="path55" />
    <path
       d="m 312.3303,49.288339 q -0.50666,0.666666 -1.28,1.68 -0.77333,1.013333 -1.52,2.133333 -0.72,1.093333 -1.25333,2.186667 -0.53333,1.093333 -0.53333,1.893333 0,0.48 0.29333,0.826667 0.29333,0.346666 0.98667,0.346666 1.04,0 2.13333,-0.826666 1.09333,-0.826667 2,-2 0.90667,-1.2 1.49333,-2.453334 0.58667,-1.28 0.58667,-2.16 0,-0.213333 -0.10667,-0.453333 -0.10666,-0.24 -0.10666,-0.533333 0,-0.32 0.18666,-0.586667 0.18667,-0.266667 0.53334,-0.266667 0.37333,0 0.64,0.426667 0.29333,0.426667 0.29333,1.466667 0,0.293333 -0.0533,0.56 -0.0267,0.24 -0.0533,0.48 0.29334,0.4 0.85334,0.666666 0.56,0.24 1.09333,0.24 0.69333,0 1.46667,-0.346666 0.8,-0.373334 1.30666,-1.2 l 0.21334,0.133333 q -0.18667,0.4 -0.53334,0.72 -0.32,0.32 -0.72,0.56 -0.4,0.213333 -0.85333,0.346667 -0.45333,0.106666 -0.90667,0.106666 -0.58666,0 -1.12,-0.24 -0.53333,-0.266666 -0.90666,-0.586666 -0.32,1.04 -1.14667,2.16 -0.8,1.093333 -1.86667,2.026666 -1.06666,0.906667 -2.29333,1.493334 -1.2,0.586666 -2.37333,0.586666 -1.12,0 -1.73334,-0.506666 -0.58666,-0.533334 -0.58666,-1.733334 0,-0.8 0.48,-1.733333 0.50666,-0.96 1.17333,-1.92 0.66667,-0.986667 1.36,-1.893333 0.69333,-0.906667 1.12,-1.6 z"
       id="path57" />
    <path
       d="m 326.01025,50.141672 q 0,-0.373333 -0.21333,-0.56 -0.18667,-0.186667 -0.48,-0.186667 -0.56,0 -1.22667,0.453334 -0.64,0.426666 -1.28,1.093333 -0.64,0.64 -1.17333,1.386667 -0.50667,0.746666 -0.77333,1.333333 0.58666,-0.106667 1.46666,-0.4 0.88,-0.32 1.68,-0.773333 0.82667,-0.453334 1.41334,-1.04 0.58666,-0.613334 0.58666,-1.306667 z m 4.32,1.413333 q -0.4,0.666667 -1.01333,1.466667 -0.58667,0.8 -1.36,1.6 -0.74667,0.773333 -1.62667,1.52 -0.85333,0.72 -1.78666,1.306667 -0.93334,0.56 -1.89334,0.906666 -0.93333,0.32 -1.84,0.32 -1.12,0 -1.73333,-0.56 -0.61333,-0.586666 -0.61333,-1.653333 0,-1.173333 0.69333,-2.453333 0.72,-1.306667 1.81333,-2.4 1.09334,-1.093334 2.4,-1.813334 1.30667,-0.72 2.50667,-0.72 0.66667,0 1.04,0.293334 0.37333,0.266666 0.37333,0.8 0,0.64 -0.69333,1.253333 -0.69333,0.586667 -1.70667,1.093333 -0.98666,0.48 -2.13333,0.88 -1.14667,0.373334 -2.02667,0.56 -0.29333,0.533334 -0.48,1.2 -0.18666,0.666667 -0.18666,1.333334 0,0.32 0.0533,0.64 0.08,0.293333 0.21333,0.56 0.16,0.24 0.4,0.4 0.26667,0.16 0.64,0.16 0.88,0 2.05334,-0.56 1.2,-0.586667 2.42666,-1.546667 1.22667,-0.96 2.34667,-2.186667 1.12,-1.226666 1.92,-2.533333 z"
       id="path59" />
    <path
       d="m 332.81021,49.288339 -3.38666,4.933333 0.0533,0.05333 q 0.37333,-0.453333 0.93333,-1.04 0.58667,-0.613333 1.25334,-1.226666 0.69333,-0.64 1.44,-1.253334 0.74666,-0.613333 1.46666,-1.093333 0.13334,-0.266667 0.29334,-0.426667 0.16,-0.16 0.64,-0.16 0.29333,0 0.50666,0.02667 0.24,0 0.48,0.02667 -0.45333,0.453333 -0.88,1.12 -0.42666,0.64 -0.42666,1.413333 0,0.613333 0.29333,0.96 0.32,0.346667 0.77333,0.346667 0.4,0 0.77334,-0.16 0.4,-0.16 0.74666,-0.4 0.34667,-0.24 0.66667,-0.506667 0.32,-0.266667 0.56,-0.48 l 0.16,0.106667 q -0.26667,0.266666 -0.61333,0.586666 -0.34667,0.293334 -0.74667,0.56 -0.4,0.266667 -0.85333,0.453334 -0.45334,0.16 -0.93334,0.16 -0.85333,0 -1.38666,-0.506667 -0.50667,-0.533333 -0.50667,-1.466667 0,-0.64 0.29333,-1.146666 l -0.0533,-0.05333 q -1.09333,0.746667 -2.4,1.973334 -1.30667,1.2 -2.77333,2.853333 -0.53334,0.586667 -1.12,1.546667 -0.56,0.96 -0.98667,1.973333 h -1.73333 q 1.44,-2.293333 2.88,-4.56 1.44,-2.266667 2.96,-4.613333 z"
       id="path61" />
    <path
       d="m 176.8907,78.621675 q 0.0267,0.266666 0.0267,0.506666 0,0.24 0,0.48 0,1.04 -0.50667,2 -0.48,0.933334 -1.38667,1.68 -0.88,0.72 -2.10666,1.146667 -1.22667,0.426667 -2.69334,0.426667 -2.18666,0 -3.28,-0.986667 -1.06666,-0.986667 -1.06666,-2.56 0,-1.28 0.85333,-2.64 0.88,-1.36 2.88,-2.48 2,-1.12 5.28,-1.84 3.28,-0.746667 8.13333,-0.746667 1.49334,0 2.72,0.08 1.22667,0.08 2.10667,0.08 0.77333,0 1.28,-0.08 0.53333,-0.08 0.90667,-0.08 0.32,0 0.58666,0.213334 0.26667,0.186666 0.26667,0.56 0,0.24 -0.16,0.4 -0.13333,0.133333 -0.50667,0.186666 -0.37333,0.05333 -1.01333,0.08 -0.61333,0 -1.57333,0 -1.86667,0 -3.12,0.666667 -1.22667,0.64 -2.29334,1.973333 -1.06666,1.306667 -2.21333,3.306667 -1.14667,1.973333 -2.85333,4.613333 -0.58667,0.906667 -1.49334,2.053333 -0.88,1.146667 -2.10666,2.16 -1.22667,1.013334 -2.8,1.706667 -1.57334,0.693333 -3.54667,0.693333 -0.74667,0 -1.57333,-0.186666 -0.82667,-0.16 -1.52,-0.533334 -0.66667,-0.4 -1.12,-1.04 -0.42667,-0.64 -0.42667,-1.573333 0,-0.586667 0.32,-0.986667 0.34667,-0.426666 0.96,-0.426666 0.42667,0 0.69333,0.293333 0.29334,0.266667 0.29334,0.693333 0,0.4 -0.26667,0.64 -0.26667,0.24 -0.61333,0.24 -0.18667,0 -0.32,-0.05333 0.13333,1.28 1.2,1.946667 1.06666,0.666666 2.64,0.666666 1.49333,0 2.74666,-0.666666 1.25334,-0.666667 2.32,-1.76 1.09334,-1.093334 2.05334,-2.48 0.96,-1.413333 1.89333,-2.906667 0.96,-1.52 1.92,-2.986666 0.96,-1.493334 2.02667,-2.72 1.06666,-1.226667 2.26666,-2.08 1.22667,-0.88 2.69334,-1.146667 v -0.05333 q -1.2,0 -2.61334,-0.106667 -1.41333,-0.106667 -2.61333,-0.106667 -3.36,0 -5.97333,0.506667 -2.58667,0.48 -4.37334,1.36 -1.78666,0.853333 -2.72,2.026667 -0.90666,1.173333 -0.90666,2.533333 0,1.6 1.06666,2.426667 1.09334,0.8 3.06667,0.8 1.38667,0 2.53333,-0.4 1.14667,-0.426667 1.97334,-1.093334 0.82666,-0.693333 1.28,-1.573333 0.48,-0.88 0.48,-1.813333 0,-0.266667 0,-0.506667 0,-0.266667 -0.0267,-0.533333 z"
       id="path63" />
    <path
       d="m 192.38403,73.341675 -9.44,14.026666 0.0533,0.05333 q 0.53334,-0.666666 1.25334,-1.519999 0.72,-0.88 1.54666,-1.653334 0.85334,-0.773333 1.78667,-1.306666 0.93333,-0.533334 1.86667,-0.533334 1.62666,0 1.62666,1.626667 0,0.426667 -0.32,1.013333 -0.29333,0.586667 -0.77333,1.253334 -0.45333,0.639999 -0.98667,1.306666 -0.53333,0.666667 -1.01333,1.306667 -0.45333,0.613333 -0.77333,1.173333 -0.29334,0.533333 -0.29334,0.906667 0,0.293333 0.16,0.506666 0.18667,0.186667 0.48,0.186667 0.61334,0 1.33334,-0.373333 0.74666,-0.4 1.52,-1.013334 0.8,-0.64 1.57333,-1.413333 0.77333,-0.773333 1.41333,-1.52 0.66667,-0.773333 1.17334,-1.44 0.53333,-0.693333 0.77333,-1.12 l 0.16,0.05333 q -0.29333,0.506666 -0.82667,1.226666 -0.53333,0.72 -1.22666,1.52 -0.66667,0.8 -1.46667,1.6 -0.77333,0.773333 -1.57333,1.413333 -0.77334,0.613334 -1.54667,1.013334 -0.77333,0.373333 -1.44,0.373333 -0.69333,0 -1.14667,-0.426667 -0.42666,-0.426666 -0.42666,-1.173333 0,-0.533333 0.29333,-1.173333 0.32,-0.64 0.77333,-1.28 0.48,-0.666667 1.01334,-1.306667 0.53333,-0.666666 0.98666,-1.253333 0.48,-0.586667 0.77334,-1.066667 0.32,-0.506666 0.32,-0.853333 0,-0.426667 -0.24,-0.586667 -0.24,-0.16 -0.58667,-0.16 -0.66667,0 -1.49333,0.506667 -0.8,0.48 -1.68,1.28 -0.85334,0.8 -1.70667,1.813333 -0.85333,0.986667 -1.62667,2 -0.74666,1.013333 -1.33333,1.92 -0.56,0.906667 -0.88,1.546667 h -1.73333 q 1.46666,-2.293334 3.01333,-4.666667 1.54667,-2.373333 3.06667,-4.72 1.54666,-2.346666 3.01333,-4.613333 1.46667,-2.293333 2.77333,-4.373333 z"
       id="path65" />
    <path
       d="m 200.11732,83.475008 q 0,-0.373333 -0.21334,-0.56 -0.18666,-0.186667 -0.48,-0.186667 -0.56,0 -1.22666,0.453334 -0.64,0.426666 -1.28,1.093333 -0.64,0.64 -1.17334,1.386667 -0.50666,0.746666 -0.77333,1.333333 0.58667,-0.106667 1.46667,-0.4 0.88,-0.32 1.68,-0.773333 0.82666,-0.453334 1.41333,-1.04 0.58667,-0.613334 0.58667,-1.306667 z m 4.32,1.413333 q -0.4,0.666667 -1.01334,1.466667 -0.58666,0.8 -1.36,1.6 -0.74666,0.773333 -1.62666,1.52 -0.85334,0.72 -1.78667,1.306666 -0.93333,0.56 -1.89333,0.906667 -0.93334,0.32 -1.84,0.32 -1.12,0 -1.73334,-0.56 -0.61333,-0.586667 -0.61333,-1.653333 0,-1.173334 0.69333,-2.453334 0.72,-1.306666 1.81334,-2.399999 1.09333,-1.093334 2.4,-1.813334 1.30666,-0.72 2.50666,-0.72 0.66667,0 1.04,0.293334 0.37334,0.266666 0.37334,0.8 0,0.64 -0.69334,1.253333 -0.69333,0.586667 -1.70666,1.093333 -0.98667,0.48 -2.13334,0.88 -1.14666,0.373333 -2.02666,0.56 -0.29334,0.533333 -0.48,1.2 -0.18667,0.666667 -0.18667,1.333333 0,0.32 0.0533,0.64 0.08,0.293334 0.21334,0.56 0.16,0.24 0.4,0.4 0.26666,0.16 0.64,0.16 0.88,0 2.05333,-0.56 1.2,-0.586666 2.42667,-1.546666 1.22666,-0.96 2.34666,-2.186667 1.12,-1.226666 1.92,-2.533333 z"
       id="path67" />
    <path
       d="m 225.82389,84.888341 q -0.90667,0.853334 -2.29334,2.106667 -1.36,1.226666 -2.82666,2.56 -1.44,1.333333 -2.74667,2.613333 -1.30667,1.28 -2.10667,2.213333 -0.29333,0.773334 -0.77333,1.333334 -0.48,0.56 -0.93333,0.56 -0.34667,0 -0.34667,-0.293334 0,-0.186666 0.10667,-0.32 0.10666,-0.133333 0.21333,-0.266666 0.13333,-0.133334 0.21333,-0.32 0.10667,-0.16 0.10667,-0.4 0,-0.853334 -0.29333,-1.52 -0.29334,-0.64 -0.82667,-1.093334 -0.50667,-0.453333 -1.22667,-0.666666 -0.69333,-0.24 -1.49333,-0.24 -0.26667,0 -0.77333,0.16 -0.48,0.133333 -1.09334,0.346666 -0.61333,0.213334 -1.28,0.373334 -0.69333,0.186666 -1.30666,0.186666 -0.32,0 -0.53334,-0.106666 -0.24,-0.106667 -0.24,-0.32 0,-0.213334 0.32,-0.346667 0.32,-0.16 0.82667,-0.266667 0.50667,-0.106666 1.12,-0.16 0.58667,-0.05333 1.17333,-0.08 0.58667,-0.05333 1.06667,-0.05333 0.48,-0.02667 0.72,-0.05333 1.33333,-0.426667 2.45333,-1.52 1.12,-1.12 2.16,-2.64 1.04,-1.52 2.08,-3.306667 1.04,-1.813333 2.18667,-3.626666 -0.82667,-0.133334 -1.57333,-0.453334 -0.74667,-0.346666 -1.33334,-0.88 -0.56,-0.533333 -0.90666,-1.226666 -0.32,-0.72 -0.32,-1.573334 0,-0.56 0.21333,-1.066666 0.24,-0.533334 0.61333,-0.906667 0.37334,-0.373333 0.90667,-0.586667 0.53333,-0.24 1.12,-0.24 0.50667,0 0.96,0.133334 0.48,0.106666 0.8,0.266666 l -0.10667,0.293334 q -0.32,-0.16 -0.74666,-0.266667 -0.42667,-0.106667 -0.93334,-0.106667 -0.56,0 -1.04,0.213334 -0.45333,0.213333 -0.77333,0.586666 -0.32,0.346667 -0.50667,0.8 -0.18666,0.426667 -0.18666,0.88 0,0.746667 0.32,1.413334 0.34666,0.666666 0.90666,1.2 0.56,0.506666 1.28,0.826666 0.74667,0.32 1.54667,0.373334 0.74667,-1.146667 1.78667,-2.32 1.06666,-1.173334 2.32,-2.133334 1.25333,-0.96 2.64,-1.546666 1.38666,-0.613334 2.82666,-0.613334 1.01334,0 1.6,0.453334 0.61334,0.453333 0.61334,1.413333 0,0.88 -0.69334,1.813333 -0.69333,0.933334 -1.92,1.733334 -1.2,0.773333 -2.85333,1.28 -1.65333,0.48 -3.54667,0.48 -0.45333,0 -0.77333,0 -0.32,-0.02667 -0.66667,-0.05333 -0.98666,1.546667 -2,3.2 -0.98666,1.626667 -2.18666,3.12 -1.17334,1.466667 -2.61334,2.693333 -1.41333,1.226667 -3.25333,1.946667 l 0.0533,0.05333 q 0.21334,-0.02667 0.45334,-0.05333 0.26666,-0.02667 0.61333,-0.02667 1.81333,0 2.69333,0.88 0.90667,0.88 1.09334,2.16 1.06666,-1.2 2.29333,-2.373333 1.22667,-1.173333 2.50667,-2.32 1.28,-1.146667 2.53333,-2.266667 1.28,-1.146666 2.45333,-2.213333 z m 3.17333,-11.76 q -1.2,0 -2.37333,0.666667 -1.17334,0.64 -2.18667,1.626667 -1.01333,0.96 -1.86667,2.106666 -0.82666,1.12 -1.38666,2.08 0.29333,0.02667 0.61333,0.05333 0.32,0 0.74667,0 1.2,0 2.58666,-0.32 1.41334,-0.32 2.61334,-0.933334 1.22666,-0.64 2.02666,-1.546666 0.82667,-0.933334 0.82667,-2.16 0,-0.773334 -0.42667,-1.173334 -0.4,-0.4 -1.17333,-0.4 z"
       id="path69" />
    <path
       d="m 232.81055,82.621675 h 1.73333 q -0.98667,1.386666 -1.89333,2.693333 -0.90667,1.306666 -1.62667,2.426666 -0.69333,1.093334 -1.12,1.946667 -0.42667,0.826667 -0.42667,1.306667 0,0.693333 0.72,0.693333 0.56,0 1.41334,-0.533333 0.88,-0.56 1.89333,-1.52 1.01333,-0.96 2.08,-2.24 1.06667,-1.28 2.02667,-2.72 l 0.16,0.05333 q -0.72,1.093334 -1.70667,2.373333 -0.96,1.253334 -2.02667,2.346667 -1.06666,1.093333 -2.13333,1.84 -1.06667,0.72 -2,0.72 -0.77333,0 -1.14667,-0.373333 -0.34666,-0.4 -0.34666,-0.933334 0,-0.373333 0.10666,-0.72 0.13334,-0.373333 0.26667,-0.746666 l -0.0533,-0.02667 q -0.34667,0.373333 -0.88,0.88 -0.50667,0.48 -1.12,0.906667 -0.58667,0.426666 -1.22667,0.72 -0.64,0.293333 -1.22667,0.293333 -0.98666,0 -1.38666,-0.613333 -0.4,-0.613334 -0.4,-1.386667 0,-1.093333 0.69333,-2.4 0.69333,-1.333333 1.76,-2.48 1.06667,-1.173333 2.32,-1.946666 1.25333,-0.773334 2.37333,-0.773334 0.53334,0 0.93334,0.16 0.4,0.133334 0.66666,0.4 0.26667,0.24 0.4,0.56 0.16,0.32 0.24,0.666667 h 0.0533 z m -8.72,7.466666 q 0,0.613333 0.24,0.96 0.26666,0.32 0.72,0.32 0.45333,0 1.06666,-0.32 0.61334,-0.346667 1.28,-0.906667 0.66667,-0.56 1.30667,-1.28 0.66667,-0.746666 1.17333,-1.573333 0.50667,-0.826667 0.82667,-1.68 0.32,-0.853333 0.32,-1.626666 0,-0.613334 -0.34667,-0.933334 -0.34666,-0.32 -0.85333,-0.32 -0.8,0 -1.78667,0.693334 -0.98666,0.693333 -1.86666,1.786666 -0.88,1.066667 -1.49334,2.373333 -0.58666,1.306667 -0.58666,2.506667 z"
       id="path71" />
    <path
       d="m 248.17051,84.781675 q -0.56,1.066666 -1.49334,2.346666 -0.90666,1.253333 -2,2.346667 -1.06666,1.066666 -2.21333,1.813333 -1.14667,0.72 -2.16,0.72 -0.61333,0 -1.09333,-0.213333 -0.48,-0.186667 -0.93334,-0.426667 -0.45333,-0.24 -0.93333,-0.426667 -0.48,-0.213333 -1.09333,-0.213333 -0.37334,0 -0.69334,0.213333 -0.29333,0.186667 -0.53333,0.4 -0.24,0.213334 -0.42667,0.426667 -0.18666,0.186667 -0.37333,0.186667 -0.16,0 -0.16,-0.186667 0,-0.16 0.93333,-0.88 0.96,-0.746667 2.45334,-1.866667 1.49333,-1.12 3.33333,-2.533333 1.86667,-1.44 3.70667,-2.96 l -0.0533,-0.05333 q -0.32,0.266667 -0.88,0.453333 -0.56,0.186667 -1.12,0.186667 -0.29333,0 -0.66666,-0.133333 -0.34667,-0.133334 -0.74667,-0.293334 -0.37333,-0.16 -0.77333,-0.293333 -0.4,-0.133333 -0.77334,-0.133333 -0.32,0 -0.58666,0.186666 -0.26667,0.186667 -0.50667,0.48 -0.21333,0.266667 -0.42667,0.586667 -0.18666,0.32 -0.37333,0.586667 l -0.18667,-0.08 q 0.32,-0.56 0.58667,-1.04 0.29333,-0.48 0.64,-0.826667 0.34667,-0.346667 0.77333,-0.533333 0.45334,-0.213334 1.04,-0.213334 0.61334,0 1.09334,0.133334 0.48,0.133333 0.88,0.293333 0.4,0.16 0.74666,0.293333 0.34667,0.133334 0.64,0.133334 0.66667,0 1.04,-0.186667 0.37334,-0.213333 0.58667,-0.453333 0.24,-0.24 0.37333,-0.426667 0.16,-0.213333 0.32,-0.213333 0.16,0 0.16,0.213333 0,0.106667 -0.61333,0.666667 -0.61333,0.56 -1.57333,1.36 -0.96,0.773333 -2.13334,1.733333 -1.17333,0.933333 -2.34666,1.813333 -1.14667,0.88 -2.16,1.6 -0.98667,0.72 -1.57334,1.093333 l 0.0533,0.05333 q 0.53333,-0.213334 1.01333,-0.346667 0.50667,-0.133333 0.96,-0.133333 0.56,0 1.04,0.186666 0.50667,0.16 0.93333,0.373334 0.42667,0.213333 0.77334,0.4 0.37333,0.16 0.66666,0.16 0.72,0 1.6,-0.56 0.90667,-0.586667 1.78667,-1.493334 0.90667,-0.933333 1.76,-2.08 0.88,-1.173333 1.57333,-2.346666 z"
       id="path73" />
    <path
       d="m 250.8905,82.621675 q -0.96,1.386666 -1.92,2.666666 -0.96,1.28 -1.73333,2.346667 -0.74667,1.066666 -1.22667,1.893333 -0.48,0.8 -0.48,1.28 0,0.773333 0.74667,0.773333 0.77333,0 1.78666,-0.746666 1.04,-0.746667 2.18667,-1.973334 1.14667,-1.253333 2.32,-2.853333 1.2,-1.626666 2.29333,-3.386666 h 1.65334 q -1.57334,2.16 -2.93334,4.453333 -1.36,2.266666 -2.85333,4.506666 2.53333,-0.453333 4.82667,-2.213333 2.32,-1.786667 4.10666,-4.426666 l 0.18667,0.08 q -1.92,2.933333 -4.37333,4.719999 -2.42667,1.76 -4.93334,2.16 -1.04,1.413334 -2.13333,2.853334 -1.06667,1.466666 -2.37333,2.613333 -1.28,1.173333 -2.82667,1.893333 -1.54667,0.746666 -3.49333,0.746666 -0.88,0 -1.65334,-0.239999 -0.8,-0.213333 -1.38666,-0.613333 -0.58667,-0.4 -0.93334,-0.96 -0.34666,-0.56 -0.34666,-1.2 0,-1.386667 0.93333,-2.026667 0.90667,-0.64 2.21333,-0.64 v 0.08 q -0.96,0.213333 -1.41333,0.853333 -0.45333,0.666667 -0.45333,1.653334 0,0.666666 0.26666,1.173333 0.26667,0.533333 0.69334,0.88 0.42666,0.346667 0.98666,0.533333 0.53334,0.186667 1.12,0.186667 1.25334,0 2.42667,-0.586667 1.17333,-0.586666 2.26667,-1.546666 1.06666,-0.96 2.05333,-2.186667 0.98667,-1.2 1.86667,-2.506667 0.88,-1.28 1.62666,-2.506666 0.77334,-1.253334 1.41334,-2.24 l -0.0533,-0.05333 q -0.42666,0.506667 -1.04,1.2 -0.61333,0.666667 -1.36,1.28 -0.72,0.613334 -1.54666,1.04 -0.82667,0.426667 -1.70667,0.426667 -0.85333,0 -1.22667,-0.346667 -0.37333,-0.346666 -0.37333,-0.933333 0,-0.533333 0.29333,-1.12 0.26667,-0.613333 0.88,-1.52 0.61334,-0.906667 1.54667,-2.213333 0.96,-1.306667 2.29333,-3.253333 z"
       id="path75" />
    <path
       d="m 289.71707,72.328342 q -1.33333,0.239999 -2.56,0.853333 -1.2,0.613333 -2.18667,1.546666 0.61334,0.586667 1.04,1.333334 0.42667,0.746666 0.69334,1.573333 0.26666,0.8 0.37333,1.653333 0.13333,0.853334 0.13333,1.653334 0,2.4 -1.04,4.48 -1.04,2.053333 -2.74666,3.573333 -1.68,1.493333 -3.81334,2.373333 -2.13333,0.853333 -4.32,0.853333 -0.82666,0 -1.46666,-0.05333 -0.64,-0.02667 -1.17334,-0.106667 -0.50666,-0.05333 -0.96,-0.16 -0.42666,-0.08 -0.88,-0.186666 -0.37333,0.05333 -0.72,0.106666 -0.32,0.08 -0.66666,0.133334 -0.32,0.05333 -0.74667,0.08 -0.4,0.02667 -0.93333,0.02667 -0.64,0 -0.98667,-0.133333 -0.34667,-0.106667 -0.34667,-0.426667 0,-0.32 0.26667,-0.426666 0.29333,-0.133334 0.74667,-0.133334 0.32,0 0.61333,0.05333 0.32,0.02667 0.69333,0.106666 0.4,0.08 0.88,0.186667 0.48,0.08 1.17334,0.186667 1.36,-0.346667 2.48,-1.413334 1.14666,-1.066666 2.16,-2.533333 1.04,-1.466666 2.02666,-3.226666 0.98667,-1.76 2.02667,-3.493334 1.06667,-1.76 2.24,-3.36 1.2,-1.6 2.61333,-2.773333 -1.12,-0.933333 -2.50666,-1.306667 -1.36,-0.4 -2.50667,-0.4 -2.16,0 -4.21333,0.746667 -2.02667,0.746667 -3.62667,2.08 -1.57333,1.333333 -2.53333,3.146667 -0.96,1.813333 -0.96,3.946666 0,0.853334 0.16,1.626667 0.16,0.746667 0.56,1.333333 0.4,0.586667 1.04,0.933333 0.64,0.32 1.6,0.32 1.2,0 2.18666,-0.56 1.01334,-0.586666 1.70667,-1.546666 0.72,-0.986667 1.12,-2.266667 0.4,-1.306666 0.4,-2.72 v -0.906666 h 0.32 v 0.773333 q 0,1.653333 -0.45333,3.066667 -0.45334,1.386666 -1.28,2.426666 -0.82667,1.013334 -1.94667,1.6 -1.12,0.56 -2.45333,0.56 -1.01334,0 -1.78667,-0.373333 -0.74667,-0.4 -1.25333,-1.04 -0.48,-0.64 -0.74667,-1.493333 -0.24,-0.853334 -0.24,-1.786667 0,-1.653333 0.93333,-3.44 0.96,-1.786667 2.61334,-3.28 1.65333,-1.52 3.89333,-2.48 2.26667,-0.986667 4.88,-0.986667 1.54667,0 2.90667,0.48 1.36,0.453334 2.48,1.306667 1.12,-0.853333 2.37333,-1.466667 1.25333,-0.639999 2.66667,-0.853333 z m -14.88,19.573332 q 1.86667,0 3.41333,-0.56 1.54667,-0.56 2.77334,-1.493333 1.25333,-0.96 2.16,-2.24 0.90666,-1.28 1.52,-2.693333 0.61333,-1.44 0.90666,-2.933333 0.32,-1.52 0.32,-2.933334 0,-1.066666 -0.29333,-2.133333 -0.29333,-1.093333 -0.96,-1.813333 -1.09333,1.226666 -2.02667,2.773333 -0.90666,1.546667 -1.81333,3.2 -0.90667,1.653333 -1.86667,3.28 -0.96,1.626667 -2.08,3.04 -1.12,1.413333 -2.50666,2.533333 -1.36,1.093333 -3.12,1.653333 v 0.05333 q 0.82666,0.16 1.65333,0.213333 0.85333,0.05333 1.92,0.05333 z"
       id="path77" />
    <path
       d="m 302.0904,85.048341 q -0.64,0.72 -1.44,1.146667 -0.8,0.426666 -1.57333,0.426666 -0.74667,0 -1.28,-0.319999 -0.53334,-0.346667 -0.82667,-0.8 h -0.0533 q -0.26667,1.013333 -0.98667,2.159999 -0.72,1.146667 -1.73333,2.106667 -0.98667,0.96 -2.18667,1.6 -1.2,0.64 -2.45333,0.64 -1.14667,0 -1.73333,-0.666667 -0.58667,-0.666666 -0.58667,-1.786666 0,-0.586667 0.29333,-1.36 0.29334,-0.773334 0.8,-1.546667 0.53334,-0.8 1.22667,-1.546666 0.72,-0.773334 1.54667,-1.36 0.82666,-0.613334 1.73333,-0.96 0.93333,-0.373334 1.86666,-0.373334 1.09334,0 1.68,0.64 0.61334,0.64 0.66667,1.653334 0.0533,0.613333 0.56,1.146666 0.53333,0.506667 1.44,0.506667 0.8,0 1.49333,-0.4 0.72,-0.4 1.33334,-1.04 z m -13.41333,5.146667 q 0,0.693333 0.26667,1.093333 0.26666,0.4 0.8,0.4 0.72,0 1.41333,-0.373333 0.72,-0.4 1.36,-1.013334 0.66666,-0.64 1.22666,-1.44 0.56,-0.8 0.96,-1.653333 0.42667,-0.853333 0.66667,-1.653333 0.24,-0.826667 0.24,-1.493333 0,-0.56 -0.29333,-0.933334 -0.26667,-0.4 -0.85334,-0.4 -0.56,0 -1.2,0.373334 -0.63999,0.346666 -1.30666,0.933333 -0.64,0.586667 -1.22667,1.36 -0.58666,0.773333 -1.06666,1.6 -0.45334,0.826666 -0.72,1.653333 -0.26667,0.826667 -0.26667,1.546667 z"
       id="path79" />
    <path
       d="m 310.99702,82.621675 q -1.6,2.16 -3.04,4.399999 -1.41333,2.24 -2.93333,4.453334 1.33333,-0.293334 2.61333,-0.96 1.30667,-0.666667 2.45333,-1.6 1.14667,-0.933334 2.10667,-2.053334 0.98667,-1.119999 1.65333,-2.266666 l 0.10667,0.16 q -1.17333,2 -2.58667,3.333333 -1.38666,1.333333 -2.69333,2.133333 -1.30667,0.8 -2.34667,1.173334 -1.04,0.346666 -1.49333,0.4 -0.13333,0.08 -0.53333,0.693333 -0.4,0.613333 -1.06667,1.493333 -0.66667,0.88 -1.6,1.866667 -0.90667,0.986667 -2.08,1.813333 -1.14667,0.853334 -2.56,1.413334 -1.41333,0.56 -3.04,0.56 -0.96,0 -1.78667,-0.213334 -0.82666,-0.213333 -1.41333,-0.613333 -0.61333,-0.4 -0.93333,-0.96 -0.34667,-0.56 -0.34667,-1.253333 0,-1.146667 0.82667,-1.92 0.82666,-0.746667 2.08,-0.746667 0.26666,0 0.45333,0.02667 0.16,0.02667 0.34667,0.08 v 0.213333 h -0.21334 q -1.04,0 -1.54666,0.64 -0.50667,0.666667 -0.50667,1.76 0,0.72 0.26667,1.226667 0.24,0.506666 0.69333,0.826666 0.42667,0.32 1.01333,0.453334 0.58667,0.16 1.28,0.16 1.17334,0 2.32,-0.56 1.12,-0.533334 2.16,-1.44 1.04,-0.88 1.97334,-2 0.96,-1.12 1.78666,-2.266667 0.85334,-1.12 1.54667,-2.16 0.69333,-1.066667 1.22667,-1.813333 l -0.0533,-0.05333 q -0.42666,0.506667 -0.96,1.04 -0.50666,0.506667 -1.09333,0.96 -0.58667,0.426667 -1.22667,0.72 -0.64,0.266667 -1.33333,0.266667 -0.50667,0 -0.88,-0.186667 -0.37333,-0.186666 -0.61333,-0.48 -0.24,-0.32 -0.34667,-0.693333 -0.10667,-0.373333 -0.10667,-0.72 0,-0.826667 0.34667,-1.706667 0.37333,-0.88 0.96,-1.706666 0.58667,-0.853333 1.36,-1.573333 0.77333,-0.746667 1.6,-1.306667 0.85333,-0.56 1.70667,-0.88 0.85333,-0.346667 1.57333,-0.346667 1.04,0 1.49333,0.533334 0.48,0.506666 0.48,1.2 h 0.08 l 0.98667,-1.52 z m -4.93333,0.106666 q -0.88,0 -1.92,0.746667 -1.01334,0.72 -1.92,1.813333 -0.88,1.093334 -1.46667,2.373333 -0.58667,1.28 -0.58667,2.4 0,0.586667 0.29334,0.96 0.32,0.346667 0.8,0.346667 0.37333,0 0.96,-0.293333 0.61333,-0.32 1.25333,-0.853334 0.66667,-0.56 1.33333,-1.28 0.66667,-0.746666 1.17334,-1.573333 0.53333,-0.826667 0.85333,-1.706666 0.34667,-0.906667 0.34667,-1.786667 0,-0.453333 -0.26667,-0.8 -0.24,-0.346667 -0.85333,-0.346667 z"
       id="path81" />
  </g>
</svg>
