<?xml version="1.0" encoding="UTF-8" standalone="no"?>
<svg
   xmlns:dc="http://purl.org/dc/elements/1.1/"
   xmlns:cc="http://creativecommons.org/ns#"
   xmlns:rdf="http://www.w3.org/1999/02/22-rdf-syntax-ns#"
   xmlns:svg="http://www.w3.org/2000/svg"
   xmlns="http://www.w3.org/2000/svg"
   viewBox="160.117 4.78167 269.333 87.4133"
   version="1.1"
   id="svg2">
  <metadata
     id="metadata11">
    <rdf:RDF>
      <cc:Work
         rdf:about="">
        <dc:format>image/svg+xml</dc:format>
        <dc:type
           rdf:resource="http://purl.org/dc/dcmitype/StillImage" />
      </cc:Work>
    </rdf:RDF>
  </metadata>
  <defs
     id="defs9" />
  <g
     aria-label="The Quick BrownFox Jumps OverThe Lazy Dog"
     id="text4521"
     style="font-style:normal;font-variant:normal;font-weight:normal;font-stretch:normal;font-size:26.6667px;line-height:125%;font-family:'Stencil Std', fantasy;font-variant-ligatures:normal;font-variant-caps:normal;font-variant-numeric:normal;font-feature-settings:normal;text-align:left;letter-spacing:0px;word-spacing:0px;writing-mode:lr-tb;text-anchor:start;fill:#000000;fill-opacity:1;stroke:none;stroke-width:1px;stroke-linecap:butt;stroke-linejoin:miter;stroke-opacity:1">
    <path
       d="m 165.15737,22.141669 c 0,0.986667 0.0267,1.146667 -0.90667,1.44 -0.34667,0.106667 -0.58667,0.346667 -0.58667,0.72 0,0.773334 0.88,0.826667 0.98667,0.826667 h 7.54667 c 0.10666,0 0.98666,-0.05333 0.98666,-0.826667 0,-0.373333 -0.24,-0.613333 -0.58666,-0.72 -0.93334,-0.293333 -0.90667,-0.453333 -0.90667,-1.44 V 5.1816698 h -6.53333 z M 176.7307,5.1816698 h -3.84 v 1.5466666 c 1.38667,0.9866666 1.76,2.7466666 2,4.1599996 0.08,0.586667 0.21333,1.28 0.96,1.28 0.8,0 0.88,-0.666666 0.88,-0.773333 z m -16.61333,6.2133332 c 0,0.106667 0.08,0.773333 0.88,0.773333 0.74666,0 0.88,-0.693333 0.96,-1.28 0.24,-1.413333 0.61333,-3.173333 2,-4.1599996 V 5.1816698 h -3.84 z"
       id="path13" />
    <path
       d="m 186.81066,8.1683364 c 0,-0.9866667 -0.0267,-1.1466667 0.90667,-1.44 0.34666,-0.1066667 0.58666,-0.3466667 0.58666,-0.72 0,-0.7733333 -0.88,-0.8266666 -0.98666,-0.8266666 h -7.54667 c -0.10667,0 -0.98667,0.053333 -0.98667,0.8266666 0,0.3733333 0.24,0.6133333 0.58667,0.72 0.93333,0.2933333 0.90667,0.4533333 0.90667,1.44 V 22.141669 c 0,0.986667 0.0267,1.146667 -0.90667,1.44 -0.34667,0.106667 -0.58667,0.346667 -0.58667,0.72 0,0.773334 0.88,0.826667 0.98667,0.826667 h 7.54667 c 0.10666,0 0.98666,-0.05333 0.98666,-0.826667 0,-0.373333 -0.24,-0.613333 -0.58666,-0.72 -0.93334,-0.293333 -0.90667,-0.453333 -0.90667,-1.44 z m 3.54667,13.9733326 c 0,0.986667 0.0267,1.146667 -0.90667,1.44 -0.34667,0.106667 -0.58667,0.346667 -0.58667,0.72 0,0.773334 0.88,0.826667 0.98667,0.826667 h 7.54667 c 0.10666,0 0.98666,-0.05333 0.98666,-0.826667 0,-0.373333 -0.24,-0.613333 -0.58666,-0.72 -0.93334,-0.293333 -0.90667,-0.453333 -0.90667,-1.44 V 8.1683364 c 0,-0.9866667 -0.0267,-1.1466667 0.90667,-1.44 0.34666,-0.1066667 0.58666,-0.3466667 0.58666,-0.72 0,-0.7733333 -0.88,-0.8266666 -0.98666,-0.8266666 h -7.54667 c -0.10667,0 -0.98667,0.053333 -0.98667,0.8266666 0,0.3733333 0.24,0.6133333 0.58667,0.72 0.93333,0.2933333 0.90667,0.4533333 0.90667,1.44 V 14.22167 h -2.34667 v 1.546666 h 2.34667 z"
       id="path15" />
    <path
       d="m 200.86394,6.0083364 c 0,0.3733333 0.24,0.6133333 0.58667,0.72 0.93333,0.2933333 0.90667,0.4533333 0.90667,1.44 V 22.141669 c 0,0.986667 0.0267,1.146667 -0.90667,1.44 -0.34667,0.106667 -0.58667,0.346667 -0.58667,0.72 0,0.773334 0.88,0.826667 0.98667,0.826667 h 7.04 V 5.1816698 h -7.04 c -0.10667,0 -0.98667,0.053333 -0.98667,0.8266666 z m 9.22667,0.72 c 2.34667,0.3733333 3.70667,1.68 4.4,3.8399996 0.13333,0.4 0.26667,0.666667 0.72,0.666667 0.8,0 0.82667,-0.506667 0.82667,-0.64 V 5.1816698 h -5.94667 z m 0,18.3999996 h 6.13333 v -5.333333 c 0,-0.106667 0.08,-0.906667 -0.77333,-0.906667 -0.48,0 -0.64,0.426667 -0.82667,0.826667 -0.72,2.133333 -2.37333,3.6 -4.53333,3.866666 z m 0,-9.386666 c 1.12,0.293333 1.62667,1.333333 1.86667,2.346666 0.13333,0.453333 0.29333,0.88 0.85333,0.88 0.82667,0 0.69333,-0.96 0.69333,-1.173333 v -5.76 c 0,-0.213333 0.13334,-1.173333 -0.69333,-1.173333 -0.56,0 -0.72,0.426666 -0.85333,0.88 -0.24,1.013333 -0.74667,2.053333 -1.86667,2.346666 z"
       id="path17" />
    <path
       d="m 235.37054,4.7816698 c -5.65333,0.5066666 -8.29333,5.0666665 -8.29333,10.3733332 0,5.306666 2.64,9.866666 8.29333,10.373333 v -1.546667 c -1.25333,-0.453333 -1.36,-1.253333 -1.36,-1.92 V 8.2483364 c 0,-0.6666667 0.10667,-1.4666667 1.36,-1.92 z m 2.61333,16.3999992 c -0.42666,-0.266666 -0.93333,-0.346666 -1.44,-0.346666 -0.53333,0 -1.30666,0.186666 -1.30666,0.853333 0,0.64 0.45333,0.666667 0.93333,0.693333 0.58667,0.186667 0.88,0.533334 1.22667,0.986667 -0.18667,0.266667 -0.50667,0.426667 -0.82667,0.586667 v 1.573333 c 1.17333,0 1.76,-0.213333 2.29333,-0.586667 0.77334,0.853334 1.81334,1.2 2.93334,1.2 0.96,0 1.76,-0.32 2.53333,-0.853333 0.37333,-0.24 0.74667,-0.56 0.74667,-1.066667 0,-0.213333 -0.21334,-0.56 -0.48,-0.56 -0.29334,0 -0.74667,0.293334 -1.46667,0.293334 -0.56,0 -1.09333,-0.16 -1.49333,-0.586667 2.37333,-2.32 3.25333,-5.013333 3.28,-8.213333 0.0533,-5.3066667 -2.61334,-9.8666666 -8.26667,-10.3733332 h -0.0267 v 1.5466666 c 1.25334,0.4533333 1.36,1.2533333 1.36,1.92 z"
       id="path19" />
    <path
       d="m 261.37049,19.395003 c -0.16,2.373333 -1.12,3.76 -3.57333,4.506666 v 1.573334 c 1.73333,-0.02667 4.90667,-1.626667 5.12,-6.026667 V 9.395003 c 0.42667,-3.3333333 2.13333,-2.2933333 2.13333,-3.4399999 0,-0.8266667 -1.09333,-0.7733333 -1.38666,-0.7733333 h -3.04 c -0.29334,0 -1.38667,-0.053333 -1.38667,0.7733333 0,1.1466666 1.70667,0.1066666 2.13333,3.4399999 z m -4.77333,4.56 c -2,-0.586667 -1.76,-2.693334 -1.76,-2.96 V 8.1683364 c 0,-0.9866667 -0.0267,-1.1466667 0.90667,-1.44 0.34666,-0.1066667 0.58666,-0.3466667 0.58666,-0.72 0,-0.7733333 -0.88,-0.8266666 -0.98666,-0.8266666 h -7.54667 c -0.10667,0 -0.98667,0.053333 -0.98667,0.8266666 0,0.3733333 0.24,0.6133333 0.58667,0.72 0.93333,0.2933333 0.90667,0.4533333 0.90667,1.44 V 20.808336 c 0,1.333333 0.32,2.346667 2.72,3.68 1.84,1.013333 3.46666,1.04 5.57333,1.04 z"
       id="path21" />
    <path
       d="m 275.13045,8.1683364 c 0,-0.9866667 -0.0267,-1.1466667 0.90667,-1.44 0.34667,-0.1066667 0.58667,-0.3466667 0.58667,-0.72 0,-0.7733333 -0.88,-0.8266666 -0.98667,-0.8266666 h -7.54667 c -0.10666,0 -0.98666,0.053333 -0.98666,0.8266666 0,0.3733333 0.24,0.6133333 0.58666,0.72 0.93334,0.2933333 0.90667,0.4533333 0.90667,1.44 V 22.141669 c 0,0.986667 0.0267,1.146667 -0.90667,1.44 -0.34666,0.106667 -0.58666,0.346667 -0.58666,0.72 0,0.773334 0.88,0.826667 0.98666,0.826667 h 7.54667 c 0.10667,0 0.98667,-0.05333 0.98667,-0.826667 0,-0.373333 -0.24,-0.613333 -0.58667,-0.72 -0.93333,-0.293333 -0.90667,-0.453333 -0.90667,-1.44 z"
       id="path23" />
    <path
       d="m 288.25041,6.3283364 c 2.48,0.6666667 3.73334,3.4399999 4.18667,5.5999996 0.10667,0.506667 0.42667,0.96 0.98667,0.96 0.85333,0 0.85333,-0.826666 0.85333,-0.96 V 5.7416697 c 0,-0.1333333 0,-0.9599999 -0.85333,-0.9599999 -0.37334,0 -0.56,0.2133333 -0.72,0.56 -0.16,0.3466666 -0.32,0.5066666 -0.72,0.5066666 -0.69334,0 -2.74667,-1.04 -3.73334,-1.0666666 z m 4.37334,13.8666666 c -0.58667,1.973333 -2.32,3.333333 -4.37334,3.786666 v 1.546667 c 2.77334,0.106667 6,-3.093333 6.05334,-5.28 0,-0.48 -0.29334,-0.906667 -0.8,-0.906667 -0.56,0 -0.72,0.4 -0.88,0.853334 z m -5.57334,3.786666 c -1.28,-0.32 -1.70666,-1.413333 -1.70666,-2.533333 V 8.8083363 c 0,-1.1199999 0.42666,-2.2133332 1.70666,-2.4799999 V 4.7816698 c -5.17333,0.1866666 -8.64,4.5599999 -8.64,10.7200002 0,5.466666 2.77334,9.919999 8.64,10.026666 z"
       id="path25" />
    <path
       d="m 310.59703,10.968336 0.50667,-0.693333 c 1.12,-1.52 1.73333,-2.5333333 3.57333,-3.2266666 0.48,-0.1866667 0.98667,-0.3733333 0.98667,-0.9866667 0,-0.8533333 -0.77334,-0.8799999 -1.41334,-0.8799999 h -4.56 c -0.56,0 -1.30666,-0.026667 -1.30666,0.7999999 0,0.5333334 0.4,0.64 0.82666,0.8266667 0.64,0.2666666 1.01334,0.64 1.01334,1.36 0,0.6399999 -0.32,1.1733333 -0.69334,1.6799999 l -3.09333,4.3999997 c -0.32,0.453334 -0.61333,0.8 -0.61333,1.36 0,0.56 0.18666,1.12 0.34666,1.626667 l 1.65334,4.96 c 0.08,0.186666 0.21333,0.586666 0.21333,0.8 0,0.586666 -1.09333,0.426666 -1.09333,1.306666 0,0.826667 0.8,0.826667 1.41333,0.826667 h 6.69333 c 0.53334,0 1.41334,0.05333 1.41334,-0.72 0,-0.506667 -0.24,-0.666667 -0.64,-0.853333 -0.61334,-0.293334 -0.69334,-0.746667 -0.93334,-1.333334 z m -5.76,-2.7999996 c 0,-0.9866667 -0.0267,-1.1466667 0.90667,-1.44 0.34666,-0.1066667 0.58666,-0.3466667 0.58666,-0.72 0,-0.7733333 -0.88,-0.8266666 -0.98666,-0.8266666 h -7.54667 c -0.10666,0 -0.98666,0.053333 -0.98666,0.8266666 0,0.3733333 0.24,0.6133333 0.58666,0.72 0.93334,0.2933333 0.90667,0.4533333 0.90667,1.44 V 22.141669 c 0,0.986667 0.0267,1.146667 -0.90667,1.44 -0.34666,0.106667 -0.58666,0.346667 -0.58666,0.72 0,0.773334 0.88,0.826667 0.98666,0.826667 h 7.54667 c 0.10666,0 0.98666,-0.05333 0.98666,-0.826667 0,-0.373333 -0.24,-0.613333 -0.58666,-0.72 -0.93334,-0.293333 -0.90667,-0.453333 -0.90667,-1.44 z"
       id="path27" />
    <path
       d="m 335.23699,5.1816698 h -7.17333 c -0.18667,0 -0.85334,0.053333 -0.85334,0.8266666 0,0.3733333 0.24,0.6133333 0.58667,0.72 0.93333,0.2933333 0.90667,0.4533333 0.90667,1.44 V 22.141669 c 0,0.986667 0.0267,1.146667 -0.90667,1.44 -0.34667,0.106667 -0.58667,0.346667 -0.58667,0.72 0,0.773334 0.66667,0.826667 0.85334,0.826667 h 7.17333 z m 1.2,1.5466666 c 1.6,0.16 2,1.2266666 2,2.3466666 v 2.666667 c 0,0.986666 -0.0533,2.133333 -2,2.293333 v 1.546667 c 1.70667,0.133333 2,1.279999 2,2.506666 v 3.44 c 0,0.96 -0.21333,1.973333 -2,2.053333 v 1.546667 h 0.85333 c 1.89334,0 3.57334,0.08 5.28,-0.88 1.68,-0.933333 2.50667,-2.426667 2.50667,-4.32 0,-3.333333 -2.34667,-4.64 -5.30667,-5.12 v -0.05333 c 2.58667,-0.4 5.04,-1.76 5.04,-4.693333 0,-1.8933336 -0.96,-3.2800003 -2.61333,-4.1066669 -1.54667,-0.7466667 -3.25333,-0.7733333 -4.93333,-0.7733333 h -0.82667 z"
       id="path29" />
    <path
       d="m 349.18363,22.141669 c 0,0.986667 0.0267,1.146667 -0.90667,1.44 -0.34666,0.106667 -0.58666,0.346667 -0.58666,0.72 0,0.773334 0.88,0.826667 0.98666,0.826667 h 7.54667 c 0.10667,0 0.98667,-0.05333 0.98667,-0.826667 0,-0.373333 -0.24,-0.613333 -0.58667,-0.72 -0.93333,-0.293333 -0.90667,-0.453333 -0.90667,-1.44 V 5.1816698 h -7.04 c -0.10666,0 -0.98666,0.053333 -0.98666,0.8266666 0,0.3733333 0.24,0.6133333 0.58666,0.72 0.93334,0.2933333 0.90667,0.4533333 0.90667,1.44 z m 7.73333,-15.3866659 c 1.33334,0.4799999 1.62667,1.1199999 1.62667,2.4533332 v 3.2266667 c 0,1.306667 -0.18667,2.186667 -1.62667,2.32 v 1.573333 c 1.6,0.16 1.62667,1.653333 1.62667,2.88 v 1.813333 c 0,1.253334 0.13333,2.426667 1.06667,3.386667 0.82666,0.826667 1.86666,1.12 3.01333,1.12 1.14667,0 2.10667,-0.213333 3.01333,-0.96 0.58667,-0.453333 1.46667,-1.44 1.46667,-2.213333 0,-0.373334 -0.42667,-0.773334 -0.77333,-0.773334 -0.64,0 -0.72,0.773334 -1.14667,0.773334 -0.34667,0 -0.26667,-0.533334 -0.26667,-0.773334 v -2.346666 c -0.0533,-2.826667 -2.32,-3.52 -4.69333,-3.866667 v -0.05333 c 2.72,-0.64 4.74667,-1.973333 4.69333,-5.04 -0.0267,-2.0266666 -0.93333,-3.4933333 -2.72,-4.3733333 -1.6,-0.7733333 -3.41333,-0.7199999 -5.14666,-0.7199999 h -0.13334 z"
       id="path31" />
    <path
       d="m 375.66355,4.7816698 c -5.65333,0.5066666 -8.29333,5.0666665 -8.29333,10.3733332 0,5.306666 2.64,9.866666 8.29333,10.373333 v -1.546667 c -1.25333,-0.453333 -1.36,-1.253333 -1.36,-1.92 V 8.2483364 c 0,-0.6666667 0.10667,-1.4666667 1.36,-1.92 z m 1.2,20.7466662 c 5.65334,-0.506667 8.29334,-5.066667 8.29334,-10.373333 0,-5.3066667 -2.64,-9.8666666 -8.29334,-10.3733332 v 1.5466666 c 1.25334,0.4533333 1.36,1.2533333 1.36,1.92 V 22.061669 c 0,0.666667 -0.10666,1.466667 -1.36,1.92 z"
       id="path33" />
    <path
       d="m 397.13018,18.061669 -2.64,-9.786666 c -0.08,-0.2666666 -0.13333,-0.4266666 -0.13333,-0.6666666 0,-0.9866667 1.2,-0.7466667 1.2,-1.6533333 0,-0.8533333 -0.93334,-0.7733333 -1.52,-0.7733333 h -6.18667 c -0.61333,0 -1.70666,0 -1.70666,0.8799999 0,0.48 0.23999,0.6133334 0.63999,0.8 0.48,0.2133333 0.53334,0.4 0.66667,0.9066667 l 4.74667,17.3599996 h 3.17333 z m 1.38667,-12.8799992 -1.81334,7.0933332 3.46667,12.853333 h 3.17333 l 1.68,-6.64 -3.49333,-13.3066662 z m 7.04,11.0133332 0.0533,0.02667 1.70667,-6.7733327 c 0.34666,-1.3333333 0.69333,-2.2666666 2.02666,-2.8533332 0.34667,-0.16 0.56,-0.2666667 0.56,-0.6666667 0,-0.6933333 -0.58666,-0.7466666 -1.09333,-0.7466666 h -3.44 c -0.48,0 -1.04,0.1066666 -1.04,0.7199999 0,0.9866667 1.68,0.7733334 1.68,2.16 0,0.4 -0.10667,0.72 -0.18667,1.0933333 l -1.01333,4.16 z"
       id="path35" />
    <path
       d="m 413.37016,20.915003 c -0.42666,3.333333 -2.13333,2.293333 -2.13333,3.44 0,0.826666 1.09333,0.773333 1.38667,0.773333 h 3.04 c 0.29333,0 1.38666,0.05333 1.38666,-0.773333 0,-1.146667 -1.70666,-0.106667 -2.13333,-3.44 V 12.86167 l -1.49333,-2.666667 h -0.0533 z m 12.34667,-7.12 1.49333,2.693333 h 0.0533 v -6.48 c 0,-3.8133329 2.18666,-2.7999996 2.18666,-4.0266663 0,-0.7466666 -0.88,-0.7999999 -1.14666,-0.7999999 h -3.62667 c -0.26667,0 -1.14667,0.053333 -1.14667,0.7999999 0,1.2266667 2.18667,0.2133334 2.18667,4.0266663 z M 419.5035,5.1816698 h -6.85334 c -0.56,0.026667 -1.36,0.026667 -1.36,0.8266666 0,0.5866667 0.34667,0.6933333 0.8,0.8533333 0.88,0.2933333 1.01334,0.6933333 1.44,1.44 l 9.76,16.8266663 h 3.97334 v -6.453333 z"
       id="path37" />
    <path
       d="m 162.22403,55.475005 c 0,0.986667 0.0267,1.146667 -0.90666,1.44 -0.34667,0.106667 -0.58667,0.346667 -0.58667,0.72 0,0.773333 0.88,0.826667 0.98667,0.826667 h 7.54666 c 0.10667,0 0.98667,-0.05333 0.98667,-0.826667 0,-0.373333 -0.24,-0.613333 -0.58667,-0.72 -0.93333,-0.293333 -0.90666,-0.453333 -0.90666,-1.44 V 38.515006 h -7.04 c -0.10667,0 -0.98667,0.05333 -0.98667,0.826666 0,0.373334 0.24,0.613334 0.58667,0.72 0.93333,0.293334 0.90666,0.453334 0.90666,1.44 z m 7.73334,-15.413333 c 2.34666,0.373334 3.70666,1.68 4.4,3.84 0.13333,0.4 0.26666,0.666667 0.72,0.666667 0.8,0 0.82666,-0.506667 0.82666,-0.64 v -5.413333 h -5.94666 z m 0,9.013333 c 1.12,0.293334 1.62666,1.333334 1.86666,2.346667 0.13334,0.453333 0.29334,0.88 0.85334,0.88 0.82666,0 0.69333,-0.96 0.69333,-1.173333 v -5.76 c 0,-0.213334 0.13333,-1.173333 -0.69333,-1.173333 -0.56,0 -0.72,0.426666 -0.85334,0.879999 -0.24,1.013334 -0.74666,2.053334 -1.86666,2.346667 z"
       id="path39" />
    <path
       d="m 185.34399,38.115006 c -5.65333,0.506666 -8.29333,5.066666 -8.29333,10.373333 0,5.306666 2.64,9.866666 8.29333,10.373333 v -1.546667 c -1.25333,-0.453333 -1.36,-1.253333 -1.36,-1.92 V 41.581672 c 0,-0.666666 0.10667,-1.466666 1.36,-1.92 z m 1.2,20.746666 c 5.65333,-0.506667 8.29333,-5.066667 8.29333,-10.373333 0,-5.306667 -2.64,-9.866667 -8.29333,-10.373333 v 1.546666 c 1.25333,0.453334 1.36,1.253334 1.36,1.92 v 13.813333 c 0,0.666667 -0.10667,1.466667 -1.36,1.92 z"
       id="path41" />
    <path
       d="m 204.73062,41.368339 c -0.13334,-0.266667 -0.24,-0.426667 -0.24,-0.746667 0,-0.693333 0.82666,-0.48 0.82666,-1.2 0,-0.906666 -1.04,-0.906666 -1.70666,-0.906666 h -6.16 c -0.69334,0 -1.73334,-0.05333 -1.73334,0.906666 0,0.426667 0.21334,0.533334 0.53334,0.72 0.64,0.373334 0.69333,0.56 1.01333,1.226667 l 6.90667,13.866666 c 0.18666,0.426667 0.34666,0.613334 0.34666,1.093334 0,0.64 -0.90666,0.613333 -0.90666,1.28 0,0.986666 1.2,0.853333 1.84,0.853333 h 6.21333 c 0.61333,0 1.65333,0 1.65333,-0.853333 0,-0.48 -0.29333,-0.64 -0.66666,-0.826667 -0.50667,-0.266667 -0.61334,-0.56 -0.85334,-1.04 z m 3.12,3.84 2,-3.146667 c 0.53333,-0.826666 1.04,-1.413333 1.92,-1.92 0.42666,-0.213333 0.88,-0.4 0.88,-0.96 0,-0.64 -0.85334,-0.666666 -1.28,-0.666666 h -3.57334 c -0.37333,0 -0.72,-0.02667 -1.01333,0.266666 -0.13333,0.133334 -0.21333,0.346667 -0.21333,0.533334 0,0.453333 0.29333,0.613333 0.64,0.8 0.53333,0.266666 0.85333,0.586666 0.85333,1.226666 0,0.56 -0.32,0.986667 -0.61333,1.466667 l -0.4,0.773333 z m -6.88,6.08 -2.42667,3.946666 c -0.53333,0.826667 -0.96,1.306667 -1.89333,1.68 -0.4,0.16 -0.74667,0.32 -0.74667,0.826667 0,0.693333 0.82667,0.72 1.33333,0.72 h 3.12 c 0.26667,0 0.85334,0.02667 1.12,-0.106667 0.24,-0.133333 0.45334,-0.426666 0.45334,-0.72 0,-1.066666 -1.57334,-0.586666 -1.57334,-1.866666 0,-0.613334 0.66667,-1.546667 0.96,-2.026667 l 0.48,-0.8 z"
       id="path43" />
    <path
       d="m 227.71722,57.208339 c -0.24,-0.05333 -1.09334,-0.32 -1.09334,-0.586667 0,-0.08 0.21334,-0.186667 0.26667,-0.213333 1.12,-0.453334 1.84,-1.44 1.84,-2.666667 0,-1.573333 -1.36,-2.853333 -2.90667,-2.853333 -1.76,0 -3.12,1.466666 -3.12,3.226666 0,2.746667 2.50667,4.4 5.01334,4.666667 z m 8.77333,-15.706667 c 0,-0.986666 -0.0267,-1.146666 0.90667,-1.44 0.34666,-0.106666 0.58666,-0.346666 0.58666,-0.72 0,-0.773333 -0.88,-0.826666 -0.98666,-0.826666 h -7.54667 c -0.10667,0 -0.98667,0.05333 -0.98667,0.826666 0,0.373334 0.24,0.613334 0.58667,0.72 0.93333,0.293334 0.90667,0.453334 0.90667,1.44 v 13.306667 c 0,0.933333 0,1.973333 -1.04,2.453333 v 1.573333 l 0.93333,0.02667 c 1.65333,0 3.73333,-0.426667 5.01333,-1.52 1.33334,-1.146667 1.62667,-2.613333 1.62667,-4.293333 z"
       id="path45" />
    <path
       d="m 254.51716,52.728339 c -0.16,2.373333 -1.12,3.76 -3.57333,4.506666 v 1.573333 c 1.73333,-0.02667 4.90666,-1.626666 5.12,-6.026666 V 42.728339 c 0.42666,-3.333333 2.13333,-2.293333 2.13333,-3.44 0,-0.826667 -1.09333,-0.773333 -1.38667,-0.773333 h -3.03999 c -0.29334,0 -1.38667,-0.05333 -1.38667,0.773333 0,1.146667 1.70667,0.106667 2.13333,3.44 z m -4.77333,4.56 c -2,-0.586667 -1.76,-2.693334 -1.76,-2.96 V 41.501672 c 0,-0.986666 -0.0267,-1.146666 0.90667,-1.44 0.34666,-0.106666 0.58666,-0.346666 0.58666,-0.72 0,-0.773333 -0.88,-0.826666 -0.98666,-0.826666 h -7.54667 c -0.10667,0 -0.98667,0.05333 -0.98667,0.826666 0,0.373334 0.24,0.613334 0.58667,0.72 0.93333,0.293334 0.90667,0.453334 0.90667,1.44 v 12.64 c 0,1.333333 0.32,2.346667 2.72,3.68 1.84,1.013333 3.46666,1.04 5.57333,1.04 z"
       id="path47" />
    <path
       d="m 262.38379,54.248339 c -0.42667,3.333333 -2.13334,2.293333 -2.13334,3.44 0,0.826666 1.09334,0.773333 1.38667,0.773333 h 3.04 c 0.29333,0 1.38667,0.05333 1.38667,-0.773333 0,-1.146667 -1.70667,-0.106667 -2.13334,-3.44 v -4.586667 l -1.49333,-4.4 h -0.0533 z m 11.01333,1.226666 c 0,0.986667 0.0267,1.146667 -0.90667,1.44 -0.34666,0.106667 -0.58666,0.346667 -0.58666,0.72 0,0.773333 0.88,0.826667 0.98666,0.826667 h 7.54667 c 0.10667,0 0.98667,-0.05333 0.98667,-0.826667 0,-0.373333 -0.24,-0.613333 -0.58667,-0.72 -0.93333,-0.293333 -0.90667,-0.453333 -0.90667,-1.44 V 41.501672 c 0,-0.986666 -0.0267,-1.146666 0.90667,-1.44 0.34667,-0.106666 0.58667,-0.346666 0.58667,-0.72 0,-0.773333 -0.88,-0.826666 -0.98667,-0.826666 h -7.04 z M 260.14379,39.341672 c 0,0.64 0.72,0.693334 1.04,0.72 0.45333,0.02667 0.56,0.346667 0.8,0.746667 0.21333,0.346667 0.34666,0.746667 0.48,1.146667 l 5.57333,16.506666 h 0.77333 l 3.38667,-11.333333 v -4.853333 h -0.0533 l -1.2,4.426666 h -0.0533 l -2.85333,-8.186666 h -6.77333 c -0.32,0 -1.12,0 -1.12,0.826666 z"
       id="path49" />
    <path
       d="m 292.57045,40.061672 c 1.41333,0.213334 1.65333,1.306667 1.65333,2.506667 v 4.026666 c 0,1.306667 -0.08,2.4 -1.65333,2.693334 v 1.546666 c 2.53333,0 4.02666,-0.266666 5.28,-0.986666 1.97333,-1.173334 2.74666,-2.933334 2.74666,-5.173334 0,-2.239999 -0.77333,-3.999999 -2.74666,-5.173333 -1.25334,-0.72 -2.74667,-0.986666 -5.28,-0.986666 z m -7.73334,15.413333 c 0,0.986667 0.0267,1.146667 -0.90666,1.44 -0.34667,0.106667 -0.58667,0.346667 -0.58667,0.72 0,0.773333 0.88,0.826667 0.98667,0.826667 h 7.54666 c 0.10667,0 0.98667,-0.05333 0.98667,-0.826667 0,-0.373333 -0.24,-0.613333 -0.58667,-0.72 -0.93333,-0.293333 -0.90666,-0.453333 -0.90666,-1.44 V 38.515006 h -7.04 c -0.10667,0 -0.98667,0.05333 -0.98667,0.826666 0,0.373334 0.24,0.613334 0.58667,0.72 0.93333,0.293334 0.90666,0.453334 0.90666,1.44 z"
       id="path51" />
    <path
       d="m 309.47708,38.115006 c -3.92,0.133333 -6.85334,2.64 -6.85334,6.693333 0,4.186666 3.12,5.706666 6.48,7.12 1.28,0.56 3.25334,1.253333 3.2,2.933333 -0.0533,1.466667 -1.14666,2.053333 -2.42666,2.453333 v 1.546667 c 3.94666,-0.08 7.38666,-2.773333 7.38666,-6.906667 0,-2.453333 -1.06666,-4.96 -5.78666,-6.773333 -3.17334,-1.226666 -3.89334,-2.026666 -3.89334,-3.333333 0,-1.093333 0.88,-1.84 1.89334,-2.186667 z m 7.06666,1.2 c 0,-0.213334 0.0533,-1.12 -0.77333,-1.12 -0.69333,0 -0.64,0.96 -1.33333,0.96 -0.29334,0 -2.08,-1.013334 -3.76,-1.04 v 1.546666 c 2.08,0.453334 3.73333,2.48 4.02666,4.453334 0.08,0.533333 0.32,1.039999 0.96,1.039999 0.77334,0 0.88,-0.666666 0.88,-1.279999 z m -13.92,18.319999 c 0,0.133334 0,1.12 0.82667,1.12 0.66667,0 0.58667,-0.88 1.44,-0.88 0.96,0 1.46667,0.933333 3.78667,0.986667 v -1.546667 c -2.34667,-0.48 -3.84,-3.12 -4.21334,-5.253333 -0.08,-0.453333 -0.45333,-0.88 -0.98666,-0.88 -0.74667,0 -0.85334,0.746667 -0.85334,1.306667 z"
       id="path53" />
    <path
       d="m 336.30366,38.115006 c -5.65333,0.506666 -8.29333,5.066666 -8.29333,10.373333 0,5.306666 2.64,9.866666 8.29333,10.373333 v -1.546667 c -1.25333,-0.453333 -1.36,-1.253333 -1.36,-1.92 V 41.581672 c 0,-0.666666 0.10667,-1.466666 1.36,-1.92 z m 1.2,20.746666 c 5.65333,-0.506667 8.29333,-5.066667 8.29333,-10.373333 0,-5.306667 -2.64,-9.866667 -8.29333,-10.373333 v 1.546666 c 1.25333,0.453334 1.36,1.253334 1.36,1.92 v 13.813333 c 0,0.666667 -0.10667,1.466667 -1.36,1.92 z"
       id="path55" />
    <path
       d="m 358.57029,53.341672 -3.30667,-11.573333 c -0.08,-0.32 -0.13333,-0.453333 -0.13333,-0.773333 0,-1.093334 1.17333,-0.64 1.17333,-1.68 0,-0.96 -1.28,-0.8 -1.89333,-0.8 h -5.84 c -0.61334,0 -1.73334,-0.02667 -1.73334,0.853333 0,0.373333 0.21334,0.613333 0.53334,0.773333 0.72,0.32 0.64,0.4 0.85333,1.173334 l 5.12,17.146666 h 3.84 z m 0.53333,-2.026667 h 0.0533 l 2.24,-8.293333 c 0.16,-0.613333 0.37334,-1.226666 0.72,-1.786666 0.42667,-0.64 0.66667,-0.773334 1.36,-1.093334 0.45334,-0.213333 0.82667,-0.293333 0.82667,-0.88 0,-0.853333 -0.98667,-0.746666 -1.57333,-0.746666 h -2.93334 c -0.56,0 -1.52,0 -1.52,0.826666 0,0.533334 0.37334,0.693334 0.82667,0.853334 0.69333,0.24 1.01333,0.693333 1.01333,1.44 0,0.453333 -0.0533,0.613333 -0.18666,1.04 l -1.57334,5.893333 z"
       id="path57" />
    <path
       d="m 364.94353,39.341672 c 0,0.373334 0.24,0.613334 0.58667,0.72 0.93333,0.293334 0.90666,0.453334 0.90666,1.44 v 13.973333 c 0,0.986667 0.0267,1.146667 -0.90666,1.44 -0.34667,0.106667 -0.58667,0.346667 -0.58667,0.72 0,0.773333 0.88,0.826667 0.98667,0.826667 h 7.04 V 38.515006 h -7.04 c -0.10667,0 -0.98667,0.05333 -0.98667,0.826666 z m 9.22667,0.72 c 2.34666,0.373334 3.70666,1.68 4.4,3.84 0.13333,0.4 0.26666,0.666667 0.72,0.666667 0.8,0 0.82666,-0.506667 0.82666,-0.64 v -5.413333 h -5.94666 z m 0,18.4 h 6.13333 v -5.333333 c 0,-0.106667 0.08,-0.906667 -0.77333,-0.906667 -0.48,0 -0.64,0.426667 -0.82667,0.826667 -0.72,2.133333 -2.37333,3.6 -4.53333,3.866666 z m 0,-9.386667 c 1.12,0.293334 1.62666,1.333334 1.86666,2.346667 0.13334,0.453333 0.29334,0.88 0.85334,0.88 0.82666,0 0.69333,-0.96 0.69333,-1.173333 v -5.76 c 0,-0.213334 0.13333,-1.173333 -0.69333,-1.173333 -0.56,0 -0.72,0.426666 -0.85334,0.879999 -0.24,1.013334 -0.74666,2.053334 -1.86666,2.346667 z"
       id="path59" />
    <path
       d="m 384.33018,55.475005 c 0,0.986667 0.0267,1.146667 -0.90667,1.44 -0.34667,0.106667 -0.58667,0.346667 -0.58667,0.72 0,0.773333 0.88,0.826667 0.98667,0.826667 h 7.54667 c 0.10666,0 0.98666,-0.05333 0.98666,-0.826667 0,-0.373333 -0.24,-0.613333 -0.58666,-0.72 -0.93334,-0.293333 -0.90667,-0.453333 -0.90667,-1.44 V 38.515006 h -7.04 c -0.10667,0 -0.98667,0.05333 -0.98667,0.826666 0,0.373334 0.24,0.613334 0.58667,0.72 0.93333,0.293334 0.90667,0.453334 0.90667,1.44 z m 7.73333,-15.386666 c 1.33333,0.48 1.62667,1.12 1.62667,2.453333 v 3.226667 c 0,1.306666 -0.18667,2.186666 -1.62667,2.32 v 1.573333 c 1.6,0.16 1.62667,1.653333 1.62667,2.88 v 1.813333 c 0,1.253334 0.13333,2.426667 1.06666,3.386667 0.82667,0.826666 1.86667,1.12 3.01334,1.12 1.14666,0 2.10666,-0.213334 3.01333,-0.96 0.58667,-0.453333 1.46667,-1.44 1.46667,-2.213333 0,-0.373334 -0.42667,-0.773334 -0.77334,-0.773334 -0.64,0 -0.72,0.773334 -1.14666,0.773334 -0.34667,0 -0.26667,-0.533334 -0.26667,-0.773334 v -2.346666 c -0.0533,-2.826667 -2.32,-3.52 -4.69333,-3.866667 v -0.05333 c 2.72,-0.64 4.74666,-1.973334 4.69333,-5.04 -0.0267,-2.026667 -0.93333,-3.493333 -2.72,-4.373333 -1.6,-0.773334 -3.41333,-0.72 -5.14667,-0.72 h -0.13333 z"
       id="path61" />
    <path
       d="m 165.15737,88.808341 c 0,0.986667 0.0267,1.146667 -0.90667,1.44 -0.34667,0.106667 -0.58667,0.346667 -0.58667,0.72 0,0.773333 0.88,0.826667 0.98667,0.826667 h 7.54667 c 0.10666,0 0.98666,-0.05333 0.98666,-0.826667 0,-0.373333 -0.24,-0.613333 -0.58666,-0.72 -0.93334,-0.293333 -0.90667,-0.453333 -0.90667,-1.44 V 71.848342 h -6.53333 z M 176.7307,71.848342 h -3.84 v 1.546666 c 1.38667,0.986667 1.76,2.746667 2,4.16 0.08,0.586667 0.21333,1.28 0.96,1.28 0.8,0 0.88,-0.666667 0.88,-0.773333 z m -16.61333,6.213333 c 0,0.106666 0.08,0.773333 0.88,0.773333 0.74666,0 0.88,-0.693333 0.96,-1.28 0.24,-1.413333 0.61333,-3.173333 2,-4.16 v -1.546666 h -3.84 z"
       id="path63" />
    <path
       d="m 186.81066,74.835008 c 0,-0.986667 -0.0267,-1.146667 0.90667,-1.44 0.34666,-0.106667 0.58666,-0.346667 0.58666,-0.72 0,-0.773333 -0.88,-0.826666 -0.98666,-0.826666 h -7.54667 c -0.10667,0 -0.98667,0.05333 -0.98667,0.826666 0,0.373333 0.24,0.613333 0.58667,0.72 0.93333,0.293333 0.90667,0.453333 0.90667,1.44 v 13.973333 c 0,0.986667 0.0267,1.146667 -0.90667,1.44 -0.34667,0.106667 -0.58667,0.346667 -0.58667,0.72 0,0.773333 0.88,0.826667 0.98667,0.826667 h 7.54667 c 0.10666,0 0.98666,-0.05333 0.98666,-0.826667 0,-0.373333 -0.24,-0.613333 -0.58666,-0.72 -0.93334,-0.293333 -0.90667,-0.453333 -0.90667,-1.44 z m 3.54667,13.973333 c 0,0.986667 0.0267,1.146667 -0.90667,1.44 -0.34667,0.106667 -0.58667,0.346667 -0.58667,0.72 0,0.773333 0.88,0.826667 0.98667,0.826667 h 7.54667 c 0.10666,0 0.98666,-0.05333 0.98666,-0.826667 0,-0.373333 -0.24,-0.613333 -0.58666,-0.72 -0.93334,-0.293333 -0.90667,-0.453333 -0.90667,-1.44 V 74.835008 c 0,-0.986667 -0.0267,-1.146667 0.90667,-1.44 0.34666,-0.106667 0.58666,-0.346667 0.58666,-0.72 0,-0.773333 -0.88,-0.826666 -0.98666,-0.826666 h -7.54667 c -0.10667,0 -0.98667,0.05333 -0.98667,0.826666 0,0.373333 0.24,0.613333 0.58667,0.72 0.93333,0.293333 0.90667,0.453333 0.90667,1.44 v 6.053333 h -2.34667 v 1.546667 h 2.34667 z"
       id="path65" />
    <path
       d="m 200.86394,72.675008 c 0,0.373333 0.24,0.613333 0.58667,0.72 0.93333,0.293333 0.90667,0.453333 0.90667,1.44 v 13.973333 c 0,0.986667 0.0267,1.146667 -0.90667,1.44 -0.34667,0.106667 -0.58667,0.346667 -0.58667,0.72 0,0.773333 0.88,0.826667 0.98667,0.826667 h 7.04 V 71.848342 h -7.04 c -0.10667,0 -0.98667,0.05333 -0.98667,0.826666 z m 9.22667,0.72 c 2.34667,0.373333 3.70667,1.68 4.4,3.84 0.13333,0.4 0.26667,0.666667 0.72,0.666667 0.8,0 0.82667,-0.506667 0.82667,-0.64 v -5.413333 h -5.94667 z m 0,18.4 h 6.13333 v -5.333334 c 0,-0.106666 0.08,-0.906666 -0.77333,-0.906666 -0.48,0 -0.64,0.426667 -0.82667,0.826667 -0.72,2.133333 -2.37333,3.599999 -4.53333,3.866666 z m 0,-9.386667 c 1.12,0.293334 1.62667,1.333334 1.86667,2.346667 0.13333,0.453333 0.29333,0.88 0.85333,0.88 0.82667,0 0.69333,-0.96 0.69333,-1.173333 v -5.76 c 0,-0.213334 0.13334,-1.173334 -0.69333,-1.173334 -0.56,0 -0.72,0.426667 -0.85333,0.88 -0.24,1.013334 -0.74667,2.053334 -1.86667,2.346667 z"
       id="path67" />
    <path
       d="m 235.58387,74.835008 c 0,-0.986667 -0.0267,-1.146667 0.90667,-1.44 0.34667,-0.106667 0.58667,-0.346667 0.58667,-0.72 0,-0.773333 -0.88,-0.826666 -0.98667,-0.826666 h -7.54667 c -0.10666,0 -0.98666,0.05333 -0.98666,0.826666 0,0.373333 0.24,0.613333 0.58666,0.72 0.93334,0.293333 0.90667,0.453333 0.90667,1.44 v 13.973333 c 0,0.986667 0.0267,1.146667 -0.90667,1.44 -0.34666,0.106667 -0.58666,0.346667 -0.58666,0.72 0,0.773333 0.88,0.826667 0.98666,0.826667 h 7.04 z m 1.2,16.96 h 5.62667 v -5.92 c 0,-0.506667 -0.0533,-1.013333 -0.66667,-1.013333 -0.56,0 -0.88,0.16 -1.01333,0.746666 -0.56,2.48 -1.78667,4.346667 -3.94667,4.64 z"
       id="path69" />
    <path
       d="m 248.30383,75.581675 h -0.08 l -3.2,11.706666 c -0.50667,1.893333 -1.22667,2.506667 -1.78667,2.8 -0.58667,0.293333 -1.04,0.266667 -1.04,0.906667 0,0.773333 0.96,0.8 1.49333,0.8 h 3.06667 c 0.53333,0 1.38667,0.02667 1.38667,-0.72 0,-0.533334 -0.37334,-0.693334 -0.8,-0.88 -0.90667,-0.4 -1.28,-0.853334 -0.85334,-2.48 l 2.50667,-9.12 z m 4.08,13.093333 c 0.24,1.04 0.13333,1.226666 -0.56,1.626666 -0.34667,0.186667 -0.50667,0.32 -0.50667,0.746667 0,0.693333 0.77333,0.746667 1.30667,0.746667 h 6.63999 c 0.50667,0 1.46667,0.02667 1.46667,-0.693334 0,-0.48 -0.29333,-0.666666 -0.66667,-0.826666 -0.74666,-0.32 -0.77333,-0.826667 -0.93333,-1.573334 l -4,-16.853332 h -5.89333 l -0.34667,1.439999 2.69334,11.786667 h -3.25334 l -0.37333,1.546666 h 3.89333 z"
       id="path71" />
    <path
       d="m 276.01048,71.848342 h -6.34666 l -8.13334,18.506666 v 1.44 h 6.4 l 8.08,-18.266667 z m -13.97333,5.279999 c 0,0.16 0,0.773334 0.74667,0.773334 0.53333,0 0.66666,-0.346667 0.8,-0.8 0.53333,-1.973334 2.02666,-3.28 4.21333,-3.706667 l 0.66667,-1.546666 h -6.42667 z m 13.94667,9.226667 c 0,-0.16 0,-0.773333 -0.74667,-0.773333 -0.50667,0 -0.64,0.346666 -0.77333,0.8 -0.96,2.453333 -1.86667,3.279999 -4.64,3.866666 l -0.69334,1.546667 h 6.88 z"
       id="path73" />
    <path
       d="m 289.21048,81.181675 2.61333,-5.733334 c 0.50667,-1.093333 0.8,-1.493333 1.89333,-1.946666 0.37334,-0.16 0.66667,-0.346667 0.66667,-0.8 0,-0.8 -0.74667,-0.853333 -1.36,-0.853333 h -2.96 c -0.64,0 -1.73333,-0.133334 -1.73333,0.826666 0,1.093333 1.81333,0.506667 1.81333,2.106667 0,0.533333 -0.18667,0.96 -0.4,1.413333 l -1.38667,3.093333 z m -7.09334,7.626666 c 0,0.986667 0.0267,1.146667 -0.90666,1.44 -0.34667,0.106667 -0.58667,0.346667 -0.58667,0.72 0,0.773333 0.88,0.826667 0.98667,0.826667 h 7.54666 c 0.10667,0 0.98667,-0.05333 0.98667,-0.826667 0,-0.373333 -0.24,-0.613333 -0.58667,-0.72 -0.93333,-0.293333 -0.90666,-0.453333 -0.90666,-1.44 v -6.16 l -3.30667,-7.546666 c -0.13333,-0.32 -0.26667,-0.666667 -0.26667,-1.013334 0,-0.373333 0.21334,-0.48 0.50667,-0.64 0.29333,-0.186666 0.58667,-0.4 0.58667,-0.8 0,-0.853333 -0.88,-0.799999 -1.46667,-0.799999 h -6.58666 c -0.56,0 -1.41334,-0.05333 -1.41334,0.773333 0,0.453333 0.26667,0.586666 0.61334,0.773333 0.45333,0.293333 0.58666,0.64 0.77333,1.12 l 4.02666,9.546667 z"
       id="path75" />
    <path
       d="m 313.47708,73.395008 c 1.62667,0.213333 1.70667,1.733333 1.70667,2.746667 v 11.359999 c 0,1.013334 -0.08,2.533334 -1.70667,2.746667 v 1.546667 c 4.42667,0 8.93334,-3.706667 8.64,-9.973333 -0.32,-6.88 -4.10666,-10.026667 -8.64,-9.973333 z m -1.2,-1.546666 h -6.82666 c -0.53334,0 -1.2,0.08 -1.2,0.773333 0,0.666666 0.50666,0.746666 1.04,0.933333 0.50666,0.16 0.45333,0.88 0.45333,1.28 v 13.973333 c 0,0.986667 0.0267,1.146667 -0.90667,1.44 -0.34666,0.106667 -0.58666,0.346667 -0.58666,0.72 0,0.773333 0.66666,0.826667 1.25333,0.826667 h 6.77333 z"
       id="path77" />
    <path
       d="m 331.82373,71.448342 c -5.65334,0.506666 -8.29334,5.066666 -8.29334,10.373333 0,5.306666 2.64,9.866666 8.29334,10.373333 v -1.546667 c -1.25334,-0.453333 -1.36,-1.253333 -1.36,-1.92 V 74.915008 c 0,-0.666667 0.10666,-1.466667 1.36,-1.92 z m 1.2,20.746666 c 5.65333,-0.506667 8.29333,-5.066667 8.29333,-10.373333 0,-5.306667 -2.64,-9.866667 -8.29333,-10.373333 v 1.546666 c 1.25333,0.453333 1.36,1.253333 1.36,1.92 v 13.813333 c 0,0.666667 -0.10667,1.466667 -1.36,1.92 z"
       id="path79" />
    <path
       d="m 349.42369,75.421675 c 0,-0.96 0.21333,-2.053334 1.28,-2.426667 v -1.546666 c -4.64,0.106666 -8.21334,4.639999 -8.21334,10.373333 0,5.706666 3.57334,10.239999 8.21334,10.373333 v -1.546667 c -1.06667,-0.373333 -1.28,-1.493333 -1.28,-2.453333 z m 2.48,-2.426667 c 2.16,0.106667 4.18666,1.733333 5.01333,5.146667 0.13333,0.56 0.32,1.066666 1.01333,1.066666 0.82667,0 0.82667,-0.826666 0.82667,-0.96 v -5.946666 c 0,-0.133333 0.0533,-0.853333 -0.74667,-0.853333 -0.85333,0 -0.77333,0.986666 -1.57333,0.986666 -0.29333,0 -1.73333,-0.746666 -4.53333,-0.986666 z m 0,19.2 c 2.53333,-0.05333 4.98666,-1.146667 6.85333,-2.826667 v -5.28 c 0,-0.133333 -0.08,-0.453333 0.48,-0.8 0.24,-0.16 0.48,-0.346666 0.48,-0.8 0,-0.88 -0.8,-0.8 -0.93333,-0.8 h -6.37334 c -0.13333,0 -1.06666,0.02667 -1.06666,0.746667 0,0.453333 0.26666,0.693333 0.69333,0.8 1.06667,0.186667 1.09333,0.32 1.09333,0.906667 v 4.799999 c 0,0.453334 -0.0533,1.36 -1.22666,1.706667 z"
       id="path81" />
  </g>
</svg>
