<?xml version="1.0" encoding="UTF-8" standalone="no"?>
<svg
   xmlns:dc="http://purl.org/dc/elements/1.1/"
   xmlns:cc="http://creativecommons.org/ns#"
   xmlns:rdf="http://www.w3.org/1999/02/22-rdf-syntax-ns#"
   xmlns:svg="http://www.w3.org/2000/svg"
   xmlns="http://www.w3.org/2000/svg"
   viewBox="159.851 6.915 190.666 90.6933"
   version="1.1"
   id="svg2">
  <metadata
     id="metadata11">
    <rdf:RDF>
      <cc:Work
         rdf:about="">
        <dc:format>image/svg+xml</dc:format>
        <dc:type
           rdf:resource="http://purl.org/dc/dcmitype/StillImage" />
      </cc:Work>
    </rdf:RDF>
  </metadata>
  <defs
     id="defs9" />
  <g
     aria-label="The Quick BrownFox Jumps OverThe Lazy Dog"
     id="text4521"
     style="font-style:normal;font-variant:normal;font-weight:normal;font-stretch:normal;font-size:26.6667px;line-height:125%;font-family:Times, 'Times New Roman', serif;font-variant-ligatures:normal;font-variant-caps:normal;font-variant-numeric:normal;font-feature-settings:normal;text-align:left;letter-spacing:0px;word-spacing:0px;writing-mode:lr-tb;text-anchor:start;fill:#000000;fill-opacity:1;stroke:none;stroke-width:1px;stroke-linecap:butt;stroke-linejoin:miter;stroke-opacity:1">
    <path
       d="m 171.58403,24.621669 c -2.18666,-0.106666 -2.53333,-0.426666 -2.56,-2.4 V 8.595003 h 1.44 c 3.09334,0.053333 3.65334,0.5066667 4.24,3.413333 h 0.64 l -0.16,-4.533333 h -15.04 l -0.16,4.533333 h 0.64 c 0.61334,-2.9066663 1.17334,-3.3599997 4.24,-3.413333 h 1.44 v 13.333333 c -0.0267,2.293333 -0.26666,2.56 -2.50666,2.693333 v 0.506667 h 7.78666 z"
       id="path13" />
    <path
       d="m 189.21063,24.728336 c -1.44,-0.24 -1.57333,-0.426667 -1.6,-2.32 v -5.306667 c 0,-2.799999 -1.09333,-4.239999 -3.28,-4.239999 -1.57333,0 -2.69333,0.64 -3.91999,2.24 V 6.9950031 l -0.13334,-0.08 c -0.93333,0.3199999 -1.6,0.5333333 -3.06666,0.9599999 l -0.72,0.2133334 V 8.515003 c 0.10666,-0.026667 0.16,-0.026667 0.32,-0.026667 1.14666,0 1.36,0.2133334 1.36,1.36 V 22.408336 c -0.0533,1.92 -0.18667,2.133333 -1.70667,2.32 v 0.4 h 5.76 v -0.4 c -1.54667,-0.133333 -1.76,-0.426667 -1.81333,-2.32 V 15.98167 c 1.12,-1.226667 1.92,-1.68 2.98666,-1.68 1.30667,0 1.97333,0.96 1.97333,2.826666 v 5.28 c -0.0533,1.893333 -0.29333,2.186667 -1.81333,2.32 v 0.4 h 5.65333 z"
       id="path15" />
    <path
       d="m 200.43725,20.755003 c -1.28,2.026666 -2.42667,2.8 -4.13333,2.8 -1.52,0 -2.66667,-0.773334 -3.44,-2.293334 -0.48,-1.013333 -0.66667,-1.866666 -0.72,-3.52 h 8.21333 c -0.21333,-1.733333 -0.48,-2.506666 -1.14667,-3.359999 -0.8,-0.96 -2.02666,-1.52 -3.41333,-1.52 -1.33333,0 -2.58667,0.48 -3.6,1.386666 -1.25333,1.093334 -1.97333,2.986667 -1.97333,5.173333 0,3.68 1.92,5.973334 4.98666,5.973334 2.53334,0 4.53334,-1.573334 5.65334,-4.453334 z m -8.24,-3.866667 c 0.29333,-2.08 1.2,-3.066666 2.82667,-3.066666 1.62666,0 2.26666,0.746666 2.61333,3.066666 z"
       id="path17" />
    <path
       d="m 226.75715,29.368336 c -3.04,-0.08 -5.17333,-1.253333 -7.33333,-4.053333 1.81333,-0.346667 2.77333,-0.8 4,-1.866667 1.97333,-1.76 2.98667,-4.186667 2.98667,-7.146667 0,-5.359999 -3.62667,-9.1999993 -8.72,-9.1999993 -5.09334,0 -8.72,3.8400003 -8.72,9.2533333 0,2.613333 0.8,4.8 2.37333,6.506666 1.04,1.12 1.89333,1.653334 3.78667,2.293334 l 1.25333,1.466666 c 1.81333,2.133334 5.04,3.253334 9.30667,3.253334 0.29333,0 0.64,0 0.90666,-0.02667 h 0.16 z M 217.77049,8.0616697 c 1.14666,0 2.37333,0.5066666 3.30666,1.3333333 1.44,1.28 2.29334,3.84 2.29334,6.853333 0,2.64 -0.77334,5.36 -1.84,6.586667 -0.98667,1.093333 -2.37334,1.706666 -3.84,1.706666 -1.28,0 -2.45334,-0.453333 -3.44,-1.306666 -1.38667,-1.253334 -2.24,-3.893334 -2.24,-7.04 0,-2.586667 0.77333,-5.173333 1.86666,-6.4 1.09334,-1.1733333 2.34667,-1.7333333 3.89334,-1.7333333 z"
       id="path19" />
    <path
       d="m 240.1704,23.795003 h -0.13334 c -1.30666,-0.05333 -1.49333,-0.266667 -1.52,-1.52 v -9.146667 h -4.21333 v 0.453334 c 1.65333,0.08 1.97333,0.346666 1.97333,1.68 v 6.266666 c 0,0.746667 -0.13333,1.12 -0.50666,1.413333 -0.72,0.586667 -1.54667,0.906667 -2.34667,0.906667 -1.04,0 -1.89333,-0.906667 -1.89333,-2.026667 v -8.693333 h -3.89334 v 0.373334 c 1.25334,0.05333 1.62667,0.426666 1.65334,1.706666 v 6.72 c 0,2.106667 1.28,3.466667 3.22666,3.466667 0.98667,0 2.02667,-0.426667 2.74667,-1.146667 l 1.14667,-1.146667 v 2.213334 l 0.10666,0.05333 c 1.33334,-0.533333 2.29334,-0.826667 3.65334,-1.2 z"
       id="path21" />
    <path
       d="m 241.15701,25.128336 h 6.32 v -0.4 c -1.76,-0.133333 -1.94666,-0.373333 -1.97333,-2.32 V 12.94167 l -0.10667,-0.08 -4.13333,1.466666 v 0.4 l 0.21333,-0.02667 c 0.32,-0.05333 0.64,-0.08 0.90667,-0.08 0.64,0 0.88,0.426666 0.88,1.599999 v 6.186667 c -0.0533,1.973333 -0.29333,2.24 -2.10667,2.32 z m 2.98667,-18.2133329 c -0.72,0 -1.33333,0.6133333 -1.33333,1.3599999 0,0.7733333 0.58666,1.36 1.33333,1.36 0.8,0 1.38667,-0.5866667 1.38667,-1.36 0,-0.7733333 -0.61334,-1.3599999 -1.38667,-1.3599999 z"
       id="path23" />
    <path
       d="m 258.75701,20.968336 c -1.28,1.866667 -2.24,2.506667 -3.76,2.506667 -2.45333,0 -4.13333,-2.133334 -4.13333,-5.2 0,-2.773333 1.46666,-4.64 3.62666,-4.64 0.96,0 1.30667,0.266667 1.57334,1.28 l 0.16,0.586667 c 0.21333,0.773333 0.69333,1.226666 1.28,1.226666 0.69333,0 1.25333,-0.506667 1.25333,-1.12 0,-1.493333 -1.86667,-2.746666 -4.10667,-2.746666 -1.30666,0 -2.66666,0.533333 -3.76,1.493333 -1.33333,1.173333 -2.08,2.986666 -2.08,5.12 0,3.44 2.10667,5.92 5.06667,5.92 1.2,0 2.26667,-0.426667 3.22667,-1.253334 0.72,-0.613333 1.22666,-1.36 2.02666,-2.933333 z"
       id="path25" />
    <path
       d="m 259.6636,25.128336 h 6.24 v -0.4 l -0.53333,-0.02667 c -1.12,-0.08 -1.44,-0.373333 -1.46667,-1.36 v -4.906666 l 3.73334,4.986666 c 0.10666,0.133334 0.18666,0.266667 0.26666,0.346667 0.21334,0.266667 0.29334,0.426667 0.29334,0.56 0,0.24 -0.24,0.4 -0.56,0.4 h -0.50667 v 0.4 h 5.81333 v -0.4 c -1.17333,-0.08 -2,-0.586667 -3.12,-1.946667 l -4.08,-5.173333 0.77334,-0.72 c 3.33333,-2.986666 4.05333,-3.413333 5.76,-3.36 v -0.4 h -5.44 v 0.373334 c 1.04,0.02667 1.33333,0.133333 1.33333,0.48 0,0.24 -0.24,0.586666 -0.61333,0.933333 l -3.65334,3.253333 V 6.9683364 l -0.10666,-0.053333 c -1.04,0.3199999 -1.81334,0.5599999 -3.33334,0.9599999 l -0.8,0.2133334 V 8.515003 c 0.34667,-0.026667 0.58667,-0.053333 0.85334,-0.053333 0.90666,0 1.14666,0.3466666 1.14666,1.6266663 v 12.853333 c -0.0267,1.413334 -0.10666,1.493334 -2,1.786667 z"
       id="path27" />
    <path
       d="m 279.93017,7.9816697 c 2.24,0.1333333 2.53333,0.4 2.56,2.4000003 v 11.839999 c -0.0267,2 -0.37333,2.32 -2.56,2.4 v 0.506667 h 8.90667 c 2.05333,0 3.97333,-0.56 4.96,-1.466667 0.96,-0.853333 1.49333,-2.053333 1.49333,-3.333333 0,-1.173333 -0.45333,-2.24 -1.30667,-3.013333 -0.8,-0.72 -1.52,-1.04 -3.25333,-1.466667 1.38667,-0.346666 1.94667,-0.613333 2.58667,-1.173333 0.66666,-0.586667 1.06666,-1.546667 1.06666,-2.666667 0,-2.9866663 -2.4,-4.533333 -6.98666,-4.533333 h -7.46667 z m 5.28,8.4533333 c 2.58667,0 3.81333,0.16 4.77333,0.56 1.52,0.613333 2.24,1.706666 2.24,3.36 0,1.44 -0.56,2.48 -1.62666,3.093333 -0.85334,0.48 -1.94667,0.693333 -3.70667,0.693333 -1.30667,0 -1.68,-0.24 -1.68,-1.093333 z m 0,-1.04 V 9.2616697 c 0.0267,-0.5866667 0.13333,-0.7466667 0.58667,-0.7733334 l 1.17333,-0.026667 c 2.96,-0.08 4.69333,1.28 4.69333,3.6533333 0,2.106667 -1.36,3.226667 -3.92,3.253333 z"
       id="path29" />
    <path
       d="m 297.39682,25.128336 h 6.4 v -0.4 c -1.78666,-0.05333 -2.21333,-0.426667 -2.26666,-2 v -6 c 0,-0.853333 1.12,-2.186666 1.86666,-2.186666 0.16,0 0.4,0.133333 0.69334,0.4 0.4,0.4 0.72,0.533333 1.06666,0.533333 0.64,0 1.04,-0.453333 1.04,-1.2 0,-0.88 -0.56,-1.413333 -1.46666,-1.413333 -1.12,0 -1.86667,0.586666 -3.2,2.506666 v -2.453333 l -0.13334,-0.05333 c -1.49333,0.586666 -2.45333,0.96 -3.94666,1.44 v 0.426666 c 0.37333,-0.08 0.61333,-0.106666 0.93333,-0.106666 0.66667,0 0.90667,0.426666 0.90667,1.599999 v 6.666667 c -0.0533,1.386667 -0.21334,1.546667 -1.89334,1.84 z"
       id="path31" />
    <path
       d="m 312.59675,12.86167 c -3.49333,0 -5.89333,2.56 -5.89333,6.239999 0,3.626667 2.48,6.293334 5.84,6.293334 3.36,0 5.92,-2.8 5.92,-6.506667 0,-3.52 -2.45334,-6.026666 -5.86667,-6.026666 z m -0.34667,0.746666 c 2.24,0 3.81334,2.56 3.81334,6.213333 0,3.04 -1.2,4.826667 -3.2,4.826667 -1.04,0 -2.02667,-0.64 -2.58667,-1.706667 -0.74667,-1.386666 -1.17333,-3.253333 -1.17333,-5.146666 0,-2.533333 1.22666,-4.186667 3.14666,-4.186667 z"
       id="path33" />
    <path
       d="m 333.55665,13.128336 v 0.4 c 0.90667,0.186667 1.17334,0.373334 1.17334,0.826667 0,0.4 -0.16,1.04 -0.45334,1.76 l -2.4,5.92 -2.24,-5.973333 c -0.45333,-1.226667 -0.45333,-1.226667 -0.45333,-1.573334 0,-0.586666 0.29333,-0.773333 1.54667,-0.96 v -0.4 h -5.41334 v 0.4 c 0.98667,0.106667 1.30667,0.426667 1.84,1.84 0.13334,0.373334 0.37334,1.04 0.53334,1.493333 l -2.42667,5.306667 -2.64,-6.96 c -0.10667,-0.266666 -0.16,-0.533333 -0.16,-0.8 0,-0.56 0.29333,-0.773333 1.22667,-0.88 v -0.4 h -4.8 v 0.4 c 0.61333,0.05333 0.82666,0.32 1.41333,1.68 l 3.6,9.12 c 0.32,0.826667 0.53333,1.173333 0.69333,1.173333 0.13334,0 0.34667,-0.32 0.66667,-1.04 l 2.98667,-6.4 2.42666,6.293334 c 0.4,1.013333 0.45334,1.146666 0.64,1.146666 0.18667,0 0.32,-0.24 0.74667,-1.306666 l 3.68,-9.226667 c 0.48,-1.12 0.56,-1.253333 1.09333,-1.44 v -0.4 z"
       id="path35" />
    <path
       d="m 338.06327,25.128336 h 5.65333 v -0.4 c -1.33333,-0.08 -1.76,-0.426667 -1.76,-1.386667 v -7.493333 c 1.28,-1.2 1.86667,-1.52 2.74667,-1.52 1.30666,0 1.94666,0.826667 1.94666,2.586667 v 5.573333 c -0.0533,1.733333 -0.37333,2.16 -1.68,2.24 v 0.4 h 5.54667 v -0.4 c -1.30667,-0.133333 -1.6,-0.453333 -1.62667,-1.76 v -6.106667 c 0,-2.506666 -1.17333,-3.999999 -3.14666,-3.999999 -1.22667,0 -2.05334,0.453333 -3.86667,2.16 v -2.106667 l -0.18667,-0.05333 c -1.38666,0.506666 -2.29333,0.8 -3.68,1.2 v 0.453333 c 0.18667,-0.08 0.42667,-0.106667 0.72,-0.106667 0.74667,0 0.98667,0.4 0.98667,1.706667 v 6.613333 c -0.0267,1.573333 -0.32,1.92 -1.65333,2 z"
       id="path37" />
    <path
       d="m 172.30403,52.301672 v -6.186667 h -0.61333 c -0.29333,2.106667 -0.74667,2.48 -2.93333,2.533334 h -3.86667 v -5.92 c 0.0267,-0.8 0.10667,-0.88 0.85333,-0.906667 h 3.62667 c 3.09333,0.05333 3.62667,0.426667 4.05333,2.8 h 0.66667 l -0.08,-3.813333 h -14.16 v 0.506667 c 1.94667,0.133333 2.26667,0.48 2.32,2.4 v 11.546666 c -0.0267,2.266667 -0.29333,2.56 -2.32,2.693333 v 0.506667 h 7.46667 v -0.506667 c -2.02667,-0.08 -2.4,-0.453333 -2.42667,-2.4 v -5.813333 h 3.86667 c 2.18666,0.02667 2.61333,0.4 2.93333,2.56 z"
       id="path39" />
    <path
       d="m 180.46398,46.195005 c -3.49333,0 -5.89333,2.56 -5.89333,6.24 0,3.626667 2.48,6.293333 5.83999,6.293333 3.36,0 5.92,-2.799999 5.92,-6.506666 0,-3.52 -2.45333,-6.026667 -5.86666,-6.026667 z m -0.34667,0.746667 c 2.24,0 3.81333,2.56 3.81333,6.213333 0,3.04 -1.2,4.826667 -3.2,4.826667 -1.04,0 -2.02666,-0.64 -2.58666,-1.706667 -0.74667,-1.386666 -1.17333,-3.253333 -1.17333,-5.146666 0,-2.533334 1.22666,-4.186667 3.14666,-4.186667 z"
       id="path41" />
    <path
       d="m 193.55724,58.461672 h 5.36 v -0.4 c -0.82666,0 -1.36,-0.426667 -2.18666,-1.6 l -3.41334,-5.226667 2.21334,-3.2 c 0.50666,-0.72 1.28,-1.12 2.16,-1.173333 v -0.4 h -4.21334 v 0.4 c 0.8,0.05333 1.06667,0.213333 1.06667,0.586667 0,0.32 -0.32,0.906666 -0.98667,1.733333 -0.13333,0.16 -0.45333,0.64 -0.8,1.173333 l -0.21333,-0.32 c -0.4,-0.613333 -0.64,-0.96 -0.69333,-1.066666 -0.50667,-0.826667 -0.69334,-1.253334 -0.69334,-1.52 0,-0.4 0.34667,-0.56 1.14667,-0.586667 v -0.4 h -5.52 v 0.4 h 0.24 c 0.8,0 1.22667,0.346667 2.05333,1.6 l 2.50667,3.84 -3.04,4.4 c -0.8,1.093333 -1.06667,1.28 -1.94667,1.36 v 0.4 h 3.86667 v -0.4 c -0.77333,0 -1.06667,-0.133333 -1.06667,-0.48 0,-0.186667 0.16,-0.533333 0.53334,-1.093333 l 2.10666,-3.28 2.42667,3.733333 c 0.10667,0.16 0.16,0.293333 0.16,0.48 0,0.48 -0.18667,0.586667 -1.06667,0.64 z"
       id="path43" />
    <path
       d="m 216.01047,40.808339 h -7.65333 v 0.506667 c 2.16,0.16 2.45333,0.426666 2.48,2.4 v 12.346666 c 0,1.2 -0.32,1.76 -1.01333,1.76 -0.37334,0 -0.53334,-0.213333 -0.72,-0.88 -0.26667,-0.933333 -0.69334,-1.36 -1.38667,-1.36 -0.72,0 -1.30667,0.613333 -1.30667,1.333333 0,1.12 1.09334,1.92 2.64,1.92 2.88,0 4.50667,-1.92 4.50667,-5.253333 v -9.866666 c 0.0533,-2 0.29333,-2.24 2.45333,-2.4 z"
       id="path45" />
    <path
       d="m 229.29047,57.128339 h -0.13333 c -1.30667,-0.05333 -1.49333,-0.266667 -1.52,-1.52 v -9.146667 h -4.21333 v 0.453333 c 1.65333,0.08 1.97333,0.346667 1.97333,1.68 v 6.266667 c 0,0.746667 -0.13333,1.12 -0.50667,1.413333 -0.72,0.586667 -1.54666,0.906667 -2.34666,0.906667 -1.04,0 -1.89334,-0.906667 -1.89334,-2.026667 v -8.693333 h -3.89333 v 0.373333 c 1.25333,0.05333 1.62667,0.426667 1.65333,1.706667 v 6.72 c 0,2.106667 1.28,3.466666 3.22667,3.466666 0.98667,0 2.02667,-0.426666 2.74667,-1.146666 l 1.14666,-1.146667 v 2.213333 l 0.10667,0.05333 c 1.33333,-0.533333 2.29333,-0.826667 3.65333,-1.2 z"
       id="path47" />
    <path
       d="m 230.27708,58.461672 h 5.92 v -0.4 c -1.36,-0.02667 -1.78666,-0.32 -1.81333,-1.386667 v -7.52 c 0,-0.05333 0.21333,-0.32 0.4,-0.506666 0.66667,-0.613334 1.81333,-1.066667 2.74667,-1.066667 1.17333,0 1.76,0.933333 1.76,2.8 v 5.786667 c -0.0533,1.52 -0.32,1.813333 -1.81334,1.893333 v 0.4 h 5.97334 v -0.4 c -1.49334,0 -1.86667,-0.426667 -1.92,-2.133333 v -6.72 c 0.8,-1.146667 1.65333,-1.626667 2.90666,-1.626667 1.52,0 2,0.72 2,2.933333 v 5.626667 c -0.0533,1.573333 -0.21333,1.76 -1.76,1.92 v 0.4 h 5.84 v -0.4 l -0.69333,-0.05333 c -0.85333,-0.133334 -1.14667,-0.533334 -1.14667,-1.573334 v -5.493333 c 0,-3.146667 -1.04,-4.746667 -3.09333,-4.746667 -1.54667,0 -2.90667,0.693334 -4.34667,2.24 -0.48,-1.52 -1.38666,-2.24 -2.82666,-2.24 -1.2,0 -1.92,0.346667 -4.13334,2.053334 v -2 l -0.18666,-0.05333 c -1.41334,0.506667 -2.32,0.8 -3.73334,1.2 v 0.453334 c 0.32,-0.08 0.56,-0.106667 0.85334,-0.106667 0.69333,0 0.93333,0.426667 0.93333,1.706667 v 6.746666 c -0.0533,1.493334 -0.4,1.866667 -1.86667,1.866667 z"
       id="path49" />
    <path
       d="m 250.46375,64.248338 h 6.45333 v -0.48 c -2,-0.02667 -2.32,-0.293333 -2.34667,-2 v -4.186666 c 0.96,0.88 1.57334,1.146666 2.69334,1.146666 3.17333,0 5.6,-2.986666 5.6,-6.853333 0,-3.306666 -1.86667,-5.68 -4.45334,-5.68 -1.49333,0 -2.66666,0.64 -3.84,2.106667 v -2.053333 l -0.16,-0.05333 c -1.44,0.56 -2.37333,0.906667 -3.84,1.36 v 0.426667 c 0.24,-0.02667 0.4,-0.02667 0.66667,-0.02667 0.90667,0 1.09333,0.266667 1.09333,1.52 v 12.48 c 0,1.413333 -0.29333,1.68 -1.86666,1.84 z m 4.10666,-14.693333 c 0,-0.8 1.49334,-1.76 2.72,-1.76 1.97334,0 3.28,2.026667 3.28,5.146667 0,2.933333 -1.30666,4.933333 -3.22666,4.933333 -1.25334,0 -2.77334,-0.96 -2.77334,-1.76 z"
       id="path51" />
    <path
       d="m 272.0637,50.088339 -0.10667,-3.653334 h -0.29333 c -0.13334,0.213334 -0.26667,0.293334 -0.42667,0.293334 -0.16,0 -0.42667,-0.05333 -0.72,-0.186667 -0.61333,-0.213333 -1.22667,-0.346667 -1.86667,-0.346667 -2.10666,0 -3.62666,1.386667 -3.62666,3.306667 0,1.493333 0.85333,2.56 3.12,3.84 l 1.54666,0.88 c 0.93334,0.533333 1.38667,1.173333 1.38667,2 0,1.173333 -0.85333,1.92 -2.21333,1.92 -1.84,0 -2.77334,-1.013333 -3.38667,-3.733333 h -0.42667 v 4.159999 h 0.34667 c 0.18667,-0.266666 0.29333,-0.319999 0.61333,-0.319999 0.29334,0 0.61334,0.05333 1.22667,0.213333 0.72,0.16 1.41333,0.266666 1.94667,0.266666 2.08,0 3.76,-1.546666 3.76,-3.413333 0,-1.333333 -0.64,-2.213333 -2.24,-3.173333 l -2.88,-1.706667 c -0.74667,-0.453333 -1.14667,-1.093333 -1.14667,-1.813333 0,-1.093333 0.82667,-1.813333 2.05333,-1.813333 1.52,0 2.32,0.88 2.93334,3.28 z"
       id="path53" />
    <path
       d="m 290.33031,40.435006 c -5.09333,0 -8.72,3.813333 -8.72,9.199999 0,2.506667 0.85333,4.96 2.29333,6.48 1.54667,1.68 3.92,2.72 6.26667,2.72 5.25333,0 8.88,-3.706666 8.88,-9.093333 0,-2.64 -0.77333,-4.933333 -2.24,-6.506666 -1.68,-1.84 -3.92,-2.8 -6.48,-2.8 z m 0,0.96 c 1.22667,0 2.45333,0.48 3.41333,1.333333 1.44,1.306667 2.26667,3.813333 2.26667,6.986666 0,1.573334 -0.32,3.413334 -0.88,4.8 -0.24,0.666667 -0.69333,1.333334 -1.30667,1.946667 -0.93333,0.933333 -2.13333,1.413333 -3.54666,1.413333 -1.22667,0 -2.42667,-0.48 -3.38667,-1.306666 -1.36,-1.226667 -2.24,-3.92 -2.24,-6.88 0,-2.72 0.74667,-5.306667 1.86667,-6.56 1.04,-1.146667 2.34666,-1.733333 3.81333,-1.733333 z"
       id="path55" />
    <path
       d="m 312.67692,46.461672 h -3.70666 v 0.4 c 0.85333,0.08 1.25333,0.346667 1.25333,0.853333 0,0.266667 -0.0533,0.533334 -0.16,0.8 l -2.64,6.906667 -2.72,-6.826667 c -0.16,-0.373333 -0.24,-0.746666 -0.24,-0.986666 0,-0.48 0.29333,-0.666667 1.22667,-0.746667 v -0.4 h -5.22667 v 0.4 c 1.01333,0.05333 1.2,0.32 2.42667,3.066667 l 3.2,7.653333 c 0.0533,0.16 0.13333,0.346667 0.21333,0.56 0.08,0.213333 0.16,0.4 0.24,0.533333 0.0533,0.106667 0.16,0.16 0.24,0.16 0.16,0 0.34667,-0.346667 0.74667,-1.333333 l 3.41333,-8.56 c 0.77333,-1.813333 0.93333,-2 1.73333,-2.08 z"
       id="path57" />
    <path
       d="m 323.15687,54.088339 c -1.28,2.026666 -2.42667,2.8 -4.13333,2.8 -1.52,0 -2.66667,-0.773334 -3.44,-2.293334 -0.48,-1.013333 -0.66667,-1.866666 -0.72,-3.52 h 8.21333 c -0.21333,-1.733333 -0.48,-2.506666 -1.14667,-3.36 -0.8,-0.96 -2.02666,-1.52 -3.41333,-1.52 -1.33333,0 -2.58667,0.48 -3.6,1.386667 -1.25333,1.093333 -1.97333,2.986667 -1.97333,5.173333 0,3.68 1.92,5.973333 4.98666,5.973333 2.53334,0 4.53334,-1.573333 5.65334,-4.453333 z m -8.24,-3.866667 c 0.29333,-2.08 1.2,-3.066667 2.82667,-3.066667 1.62666,0 2.26666,0.746667 2.61333,3.066667 z"
       id="path59" />
    <path
       d="m 324.25015,58.461672 h 6.4 v -0.4 c -1.78666,-0.05333 -2.21333,-0.426667 -2.26666,-2 v -6 c 0,-0.853333 1.12,-2.186667 1.86666,-2.186667 0.16,0 0.4,0.133334 0.69334,0.4 0.4,0.4 0.72,0.533334 1.06666,0.533334 0.64,0 1.04,-0.453334 1.04,-1.2 0,-0.88 -0.56,-1.413334 -1.46666,-1.413334 -1.12,0 -1.86667,0.586667 -3.2,2.506667 v -2.453333 l -0.13334,-0.05333 c -1.49333,0.586667 -2.45333,0.96 -3.94666,1.44 v 0.426667 c 0.37333,-0.08 0.61333,-0.106667 0.93333,-0.106667 0.66667,0 0.90667,0.426667 0.90667,1.6 v 6.666667 c -0.0533,1.386667 -0.21334,1.546667 -1.89334,1.84 z"
       id="path61" />
    <path
       d="m 171.58403,91.288341 c -2.18666,-0.106667 -2.53333,-0.426667 -2.56,-2.4 V 75.261675 h 1.44 c 3.09334,0.05333 3.65334,0.506666 4.24,3.413333 h 0.64 l -0.16,-4.533333 h -15.04 l -0.16,4.533333 h 0.64 c 0.61334,-2.906667 1.17334,-3.36 4.24,-3.413333 h 1.44 v 13.333333 c -0.0267,2.293333 -0.26666,2.56 -2.50666,2.693333 v 0.506667 h 7.78666 z"
       id="path63" />
    <path
       d="m 189.21063,91.395008 c -1.44,-0.24 -1.57333,-0.426667 -1.6,-2.32 v -5.306667 c 0,-2.8 -1.09333,-4.24 -3.28,-4.24 -1.57333,0 -2.69333,0.64 -3.91999,2.24 v -8.106666 l -0.13334,-0.08 c -0.93333,0.32 -1.6,0.533333 -3.06666,0.96 l -0.72,0.213333 v 0.426667 c 0.10666,-0.02667 0.16,-0.02667 0.32,-0.02667 1.14666,0 1.36,0.213333 1.36,1.36 v 12.56 c -0.0533,1.92 -0.18667,2.133333 -1.70667,2.32 v 0.4 h 5.76 v -0.4 c -1.54667,-0.133334 -1.76,-0.426667 -1.81333,-2.32 v -6.426667 c 1.12,-1.226666 1.92,-1.68 2.98666,-1.68 1.30667,0 1.97333,0.96 1.97333,2.826667 v 5.28 c -0.0533,1.893333 -0.29333,2.186666 -1.81333,2.32 v 0.4 h 5.65333 z"
       id="path65" />
    <path
       d="m 200.43725,87.421674 c -1.28,2.026667 -2.42667,2.8 -4.13333,2.8 -1.52,0 -2.66667,-0.773333 -3.44,-2.293333 -0.48,-1.013333 -0.66667,-1.866666 -0.72,-3.52 h 8.21333 c -0.21333,-1.733333 -0.48,-2.506666 -1.14667,-3.36 -0.8,-0.96 -2.02666,-1.52 -3.41333,-1.52 -1.33333,0 -2.58667,0.48 -3.6,1.386667 -1.25333,1.093333 -1.97333,2.986667 -1.97333,5.173333 0,3.68 1.92,5.973333 4.98666,5.973333 2.53334,0 4.53334,-1.573333 5.65334,-4.453333 z m -8.24,-3.866666 c 0.29333,-2.08 1.2,-3.066667 2.82667,-3.066667 1.62666,0 2.26666,0.746667 2.61333,3.066667 z"
       id="path67" />
    <path
       d="m 215.90382,74.141675 h -7.52 v 0.506666 c 1.94667,0.133334 2.26667,0.48 2.32,2.4 v 11.84 c -0.0533,1.92 -0.4,2.293333 -2.32,2.4 v 0.506667 h 14.34667 l 1.28,-4.64 h -0.66667 c -1.25333,2.8 -2.4,3.493333 -5.84,3.6 h -1.78667 c -2.05333,-0.05333 -2.26666,-0.133334 -2.29333,-1.093334 V 77.048341 c 0.0533,-1.946666 0.4,-2.293333 2.48,-2.4 z"
       id="path69" />
    <path
       d="m 236.11706,90.035008 c -0.45333,0.373333 -0.77333,0.506666 -1.17333,0.506666 -0.61333,0 -0.8,-0.373333 -0.8,-1.546666 v -5.2 c 0,-1.386667 -0.13333,-2.16 -0.53333,-2.8 -0.58667,-0.96 -1.73333,-1.466667 -3.30667,-1.466667 -2.50666,0 -4.48,1.306667 -4.48,2.986667 0,0.613333 0.50667,1.146667 1.14667,1.146667 0.64,0 1.2,-0.533334 1.2,-1.12 0,-0.106667 -0.0267,-0.24 -0.0533,-0.426667 -0.0533,-0.24 -0.08,-0.453333 -0.08,-0.64 0,-0.72 0.85333,-1.306667 1.92,-1.306667 1.30666,0 2.02666,0.773334 2.02666,2.213334 v 1.626666 c -4.08,1.626667 -4.56,1.866667 -5.70666,2.88 -0.58667,0.533333 -0.96,1.44 -0.96,2.32 0,1.68 1.17333,2.853333 2.8,2.853333 1.17333,0 2.26666,-0.56 3.89333,-1.946666 0.13333,1.413333 0.61333,1.946666 1.70667,1.946666 0.90666,0 1.46666,-0.32 2.39999,-1.333333 z m -4.13333,-1.52 c 0,0.8 -0.13333,1.093333 -0.69333,1.413333 -0.66667,0.373333 -1.38667,0.586667 -1.94667,0.586667 -0.93333,0 -1.68,-0.906667 -1.68,-2.053334 v -0.106666 c 0.0267,-1.6 1.2,-2.613333 4.32,-3.706667 z"
       id="path71" />
    <path
       d="m 247.58365,88.195008 -0.48,-0.106667 c -0.48,2.506667 -0.85334,2.826667 -3.41334,2.906667 h -3.68 l 7.17334,-10.8 v -0.4 h -9.25334 l -0.08,3.146667 h 0.48 c 0.21334,-1.893334 0.58667,-2.293334 2.24,-2.346667 h 3.68 l -7.09333,10.8 v 0.4 h 10.05333 z"
       id="path73" />
    <path
       d="m 260.97026,79.795008 h -3.6 v 0.4 c 0.85333,0 1.28,0.24 1.28,0.666667 0,0.106666 -0.0267,0.266666 -0.10667,0.453333 l -2.58667,7.36 -3.06666,-6.746667 c -0.16,-0.373333 -0.26667,-0.746666 -0.26667,-1.013333 0,-0.48 0.4,-0.666667 1.54667,-0.72 v -0.4 h -5.49334 v 0.373333 c 0.69334,0.106667 1.14667,0.4 1.36,0.853334 l 3.04,6.559999 c 0.32,0.72 0.34667,0.746667 0.48,1.013334 0.74667,1.333333 1.17334,2.32 1.17334,2.72 0,0.426666 -0.61334,2.053333 -1.06667,2.88 -0.4,0.666666 -0.96,1.173333 -1.33333,1.173333 -0.16,0 -0.4,-0.05333 -0.69334,-0.186667 -0.48,-0.186666 -0.96,-0.293333 -1.38666,-0.293333 -0.64,0 -1.14667,0.506667 -1.14667,1.173333 0,0.88 0.82667,1.546667 1.97333,1.546667 1.81334,0 3.04,-1.466667 4.50667,-5.333333 l 4.10667,-10.88 c 0.34666,-0.853333 0.64,-1.12 1.28,-1.2 z"
       id="path75" />
    <path
       d="m 268.73015,91.795008 h 7.57333 c 3.09334,0 5.89334,-0.88 7.54667,-2.373334 1.73333,-1.573333 2.72,-3.946666 2.72,-6.533333 0,-2.4 -0.77334,-4.48 -2.26667,-5.946666 -1.81333,-1.84 -4.72,-2.8 -8.37333,-2.8 h -7.2 v 0.506666 c 2.10667,0.186667 2.32,0.4 2.34667,2.4 v 11.84 c -0.0267,1.946667 -0.34667,2.266667 -2.34667,2.4 z m 5.06667,-15.626667 c 0,-0.826666 0.26666,-1.04 1.38666,-1.04 2.32,0 4.02667,0.426667 5.30667,1.333334 2.08,1.44 3.17333,3.733333 3.17333,6.613333 0,3.146667 -1.09333,5.386666 -3.25333,6.64 -1.36,0.773333 -2.90667,1.093333 -5.22667,1.093333 -1.06666,0 -1.38666,-0.24 -1.38666,-1.093333 z"
       id="path77" />
    <path
       d="m 294.19673,79.528341 c -3.49333,0 -5.89333,2.56 -5.89333,6.24 0,3.626667 2.48,6.293333 5.84,6.293333 3.36,0 5.92,-2.8 5.92,-6.506666 0,-3.52 -2.45333,-6.026667 -5.86667,-6.026667 z m -0.34666,0.746667 c 2.24,0 3.81333,2.56 3.81333,6.213333 0,3.04 -1.2,4.826667 -3.2,4.826667 -1.04,0 -2.02667,-0.64 -2.58667,-1.706667 -0.74666,-1.386667 -1.17333,-3.253333 -1.17333,-5.146666 0,-2.533334 1.22667,-4.186667 3.14667,-4.186667 z"
       id="path79" />
    <path
       d="m 312.80997,81.448341 v -1.04 h -2.05333 c -0.56,0 -0.93333,-0.08 -1.46667,-0.266666 l -0.58666,-0.213334 c -0.69334,-0.266666 -1.44,-0.4 -2.13333,-0.4 -2.48,0 -4.45334,1.893334 -4.45334,4.346667 0,1.68 0.69334,2.693333 2.48,3.573333 l -0.69333,0.64 c -0.56,0.533333 -0.88,0.826667 -0.96,0.933333 -0.56,0.586667 -0.72,0.88 -0.72,1.333334 0,0.586666 0.29333,0.88 1.41333,1.413333 -1.92,1.386667 -2.61333,2.266667 -2.61333,3.253333 0,1.413334 2.05333,2.586667 4.61333,2.586667 2,0 4.08,-0.693333 5.46667,-1.813333 1.01333,-0.826667 1.46666,-1.68 1.46666,-2.693334 0,-1.653333 -1.25333,-2.746666 -3.22666,-2.853333 l -3.44,-0.16 c -1.44,-0.05333 -2.08,-0.293333 -2.08,-0.72 0,-0.533333 0.88,-1.466667 1.6,-1.68 0.96,0.08 1.46667,0.133333 1.52,0.133333 0.98666,0 2.05333,-0.4 2.88,-1.12 0.88,-0.746666 1.28,-1.679999 1.28,-3.013333 0,-0.773333 -0.13334,-1.386666 -0.50667,-2.24 z m -8.61333,10.4 c 0.90667,0.186667 2.98667,0.346667 4.34667,0.346667 2.4,0 3.28,0.346666 3.28,1.306666 0,1.546667 -2.02667,2.586667 -5.04,2.586667 -2.37333,0 -3.89333,-0.773333 -3.89333,-1.946667 0,-0.613333 0.24,-1.013333 1.30666,-2.293333 z m 0.13334,-9.066666 c 0,-1.573334 0.74666,-2.506667 1.97333,-2.506667 0.82667,0 1.52,0.453333 1.94666,1.253333 0.50667,0.933334 0.8,2.133334 0.8,3.2 0,1.493334 -0.74666,2.426667 -1.97333,2.426667 -1.65333,0 -2.74666,-1.733333 -2.74666,-4.293333 z"
       id="path81" />
  </g>
</svg>
