<?xml version="1.0" encoding="UTF-8" standalone="no"?>
<svg
   xmlns:dc="http://purl.org/dc/elements/1.1/"
   xmlns:cc="http://creativecommons.org/ns#"
   xmlns:rdf="http://www.w3.org/1999/02/22-rdf-syntax-ns#"
   xmlns:svg="http://www.w3.org/2000/svg"
   xmlns="http://www.w3.org/2000/svg"
   viewBox="159.765 5.46688 199.701 91.7969"
   version="1.1"
   id="svg2">
  <metadata
     id="metadata11">
    <rdf:RDF>
      <cc:Work
         rdf:about="">
        <dc:format>image/svg+xml</dc:format>
        <dc:type
           rdf:resource="http://purl.org/dc/dcmitype/StillImage" />
      </cc:Work>
    </rdf:RDF>
  </metadata>
  <defs
     id="defs9" />
  <g
     aria-label="The Quick BrownFox Jumps OverThe Lazy Dog"
     id="text4521"
     style="font-style:normal;font-variant:normal;font-weight:normal;font-stretch:normal;font-size:26.6667px;line-height:125%;font-family:'Trebuchet MS', sans-serif;font-variant-ligatures:normal;font-variant-caps:normal;font-variant-numeric:normal;font-feature-settings:normal;text-align:left;letter-spacing:0px;word-spacing:0px;writing-mode:lr-tb;text-anchor:start;fill:#000000;fill-opacity:1;stroke:none;stroke-width:1px;stroke-linecap:butt;stroke-linejoin:miter;stroke-opacity:1">
    <path
       d="M 168.43695,8.3965655 V 25.128336 h -2.60417 V 8.3965655 h -6.0677 V 6.0528156 h 15.01302 v 2.3437499 z"
       id="path13" />
    <path
       d="m 185.36403,25.128336 v -8.763021 q 0,-1.5625 -0.76823,-2.460937 -0.76822,-0.898438 -2.16145,-0.898438 -0.89844,0 -1.8099,0.533855 -0.89844,0.520833 -1.38021,1.223958 v 10.364583 h -2.47396 V 5.4668781 h 2.47396 v 7.2526039 q 0.49479,-0.768229 1.58854,-1.276042 1.10677,-0.520833 2.27865,-0.520833 2.21354,0 3.46354,1.458333 1.26302,1.458334 1.26302,3.984375 v 8.763021 z"
       id="path15" />
    <path
       d="M 203.08539,18.396565 H 193.0333 q 0,2.447917 1.34115,3.763021 1.1849,1.145833 3.04687,1.145833 2.1224,0 3.54167,-1.236979 l 1.04167,1.783854 q -0.57292,0.572917 -1.75782,0.989584 -1.48437,0.546875 -3.30729,0.546875 -2.6302,0 -4.46614,-1.783855 -2.04427,-1.966145 -2.04427,-5.286458 0,-3.45052 2.09635,-5.533854 1.875,-1.861979 4.44011,-1.861979 2.98177,0 4.67447,1.679688 1.64063,1.614583 1.64063,4.283854 0,0.820312 -0.19531,1.510416 z m -6.00261,-5.390625 q -1.65364,0 -2.77343,1.067709 -1.06771,1.015625 -1.21094,2.526041 h 7.72135 q 0,-1.497395 -0.9375,-2.5 -1.02864,-1.09375 -2.79948,-1.09375 z"
       id="path17" />
    <path
       d="m 231.95257,26.534586 -0.39062,2.539062 q -6.82292,0 -8.94531,-3.789062 -0.40365,0.169271 -1.73177,0.169271 -3.60677,0 -5.65105,-2.8125 -2.03125,-2.8125 -2.03125,-7.213542 0,-4.127604 2.07032,-6.914062 2.07031,-2.7994791 5.61198,-2.7994791 3.97135,0 6.08072,2.5651041 2.1224,2.565104 2.1224,7.148437 0,6.575521 -3.93229,9.023438 1.41927,2.083333 4.76562,2.083333 z M 220.88487,8.0580239 q -2.42188,0 -3.6849,1.9791661 -1.26302,1.979167 -1.26302,5.390625 0,3.28125 1.28906,5.481771 1.30209,2.200521 3.65886,2.200521 2.68229,0 4.07552,-2.03125 1.39323,-2.044271 1.39323,-5.651042 0,-7.3697911 -5.46875,-7.3697911 z"
       id="path19" />
    <path
       d="m 234.2833,11.183024 v 8.893229 q 0,3.229166 2.79948,3.229166 1.22396,0 2.23958,-0.703125 1.01563,-0.703125 1.34115,-1.627604 v -9.791666 h 2.47396 v 13.945312 h -2.47396 v -1.927083 q -0.41667,0.820312 -1.67969,1.510416 -1.25,0.677084 -2.44791,0.677084 -2.29167,0 -3.51563,-1.315105 -1.21094,-1.315104 -1.21094,-3.736979 v -9.153645 z"
       id="path21" />
    <path
       d="m 249.06195,5.9095864 q 0.63802,0 1.08073,0.4557292 0.45573,0.4427083 0.45573,1.0677083 0,0.6380208 -0.45573,1.0937499 -0.44271,0.4427084 -1.08073,0.4427084 -0.625,0 -1.08073,-0.4427084 -0.44271,-0.4557291 -0.44271,-1.0937499 0,-0.6380208 0.44271,-1.0807292 0.44271,-0.4427083 1.08073,-0.4427083 z M 247.70778,25.128336 V 13.266357 h -1.91406 v -2.083333 h 4.38802 v 13.945312 z"
       id="path23" />
    <path
       d="m 264.63486,12.315836 -1.22396,1.744792 q -0.3776,-0.377604 -1.34114,-0.716146 -0.95052,-0.338542 -1.875,-0.338542 -2.01823,0 -3.20313,1.419271 -1.18489,1.40625 -1.18489,3.867188 0,2.447916 1.21093,3.736979 1.21094,1.276041 3.35938,1.276041 1.66667,0 3.35937,-1.289062 l 0.97657,2.083333 q -1.99219,1.289063 -4.9349,1.289063 -2.85156,0 -4.71354,-1.914063 -1.86198,-1.914062 -1.86198,-5.182291 0,-3.333334 1.92708,-5.351563 1.94011,-2.018229 5.29948,-2.018229 1.08073,0 2.34375,0.455729 1.26302,0.455729 1.86198,0.9375 z"
       id="path25" />
    <path
       d="m 276.32757,25.128336 -4.375,-6.979167 -2.16146,2.226563 v 4.752604 h -2.47396 V 5.4668781 h 2.47396 V 17.667399 l 5.33854,-6.484375 h 2.89063 l -4.46615,5.299479 5.45573,8.645833 z"
       id="path27" />
    <path
       d="m 294.43955,25.128336 h -5.44271 V 6.0528156 q 3.47656,-0.1692709 5.01302,-0.1692709 2.82552,0 4.375,1.2239583 1.54948,1.2109375 1.54948,3.476562 0,1.328125 -0.98958,2.421875 -0.98959,1.09375 -2.1875,1.367188 2.26562,0.546875 3.29427,1.809896 1.04167,1.26302 1.04167,3.4375 0,2.51302 -1.84896,4.010416 -1.83594,1.497396 -4.80469,1.497396 z M 291.60101,8.1361489 V 13.61792 q 0.82031,0.07813 2.03125,0.07813 3.69791,0 3.69791,-3.007813 0,-2.643229 -3.39843,-2.643229 -1.30209,0 -2.33073,0.091146 z m 0,7.5000001 v 7.278645 q 1.34114,0.130209 2.05729,0.130209 2.44792,0 3.56771,-0.911459 1.13281,-0.924479 1.13281,-2.929687 0,-1.861979 -1.08073,-2.747396 -1.06771,-0.885416 -3.58073,-0.885416 z"
       id="path29" />
    <path
       d="m 311.47079,13.565836 q -0.80729,-0.559896 -1.6276,-0.559896 -1.3151,0 -2.30469,1.210938 -0.97656,1.210937 -0.97656,2.916666 v 7.994792 h -2.47396 V 11.183024 h 2.47396 v 2.226562 q 1.35417,-2.486979 4.02344,-2.486979 0.66406,0 1.91406,0.234375 z"
       id="path31" />
    <path
       d="m 313.3458,18.123128 q 0,-3.229167 1.73178,-5.208333 1.74479,-1.992188 4.58333,-1.992188 2.99479,0 4.64844,1.914063 1.65364,1.901041 1.65364,5.286458 0,3.372396 -1.69271,5.32552 -1.6927,1.940105 -4.60937,1.940105 -2.98177,0 -4.64844,-1.966146 -1.66667,-1.966146 -1.66667,-5.299479 z m 2.60417,0 q 0,5.247395 3.71094,5.247395 1.73177,0 2.70833,-1.406249 0.98959,-1.40625 0.98959,-3.841146 0,-5.182292 -3.69792,-5.182292 -1.69271,0 -2.70833,1.380209 -1.00261,1.380208 -1.00261,3.802083 z"
       id="path33" />
    <path
       d="m 341.45778,25.388753 h -0.65104 l -4.08854,-9.492188 -4.07553,9.492188 h -0.65104 l -4.98698,-14.244792 h 2.64323 l 2.98177,9.153646 3.71094,-9.153646 h 0.65104 l 3.82813,9.153646 3.20312,-9.153646 h 2.4349 z"
       id="path35" />
    <path
       d="m 356.99163,25.128336 v -8.111979 q 0,-2.226562 -0.67708,-3.111979 -0.66406,-0.898438 -2.23958,-0.898438 -0.84636,0 -1.77084,0.507813 -0.92448,0.507812 -1.41927,1.25 V 25.128336 H 348.4109 V 11.183024 h 1.69271 l 0.78125,1.796875 q 1.22396,-2.057292 3.9974,-2.057292 4.58333,0 4.58333,5.572917 v 8.632812 z"
       id="path37" />
    <path
       d="m 164.08799,41.729901 v 5.299479 h 6.70573 v 2.213542 h -6.70573 v 9.21875 h -2.60416 V 39.386151 h 11.78385 v 2.34375 z"
       id="path39" />
    <path
       d="m 174.37445,51.456464 q 0,-3.229167 1.73177,-5.208334 1.74479,-1.992187 4.58333,-1.992187 2.9948,0 4.64844,1.914062 1.65365,1.901042 1.65365,5.286459 0,3.372395 -1.69271,5.32552 -1.69271,1.940104 -4.60938,1.940104 -2.98177,0 -4.64843,-1.966145 -1.66667,-1.966146 -1.66667,-5.299479 z m 2.60417,0 q 0,5.247395 3.71093,5.247395 1.73178,0 2.70834,-1.40625 0.98958,-1.40625 0.98958,-3.841145 0,-5.182292 -3.69792,-5.182292 -1.6927,0 -2.70833,1.380208 -1.0026,1.380209 -1.0026,3.802084 z"
       id="path41" />
    <path
       d="m 198.08539,58.461672 -3.80209,-5.078125 -3.39843,5.078125 h -2.89063 l 5.06511,-7.135417 -4.64844,-6.809895 h 2.78646 l 3.125,4.791666 3.5026,-4.791666 h 2.73438 l -5.06511,6.809895 5.54688,7.135417 z"
       id="path43" />
    <path
       d="m 209.86924,54.646568 h 2.27865 q 0.3125,1.731771 2.07031,1.731771 1.74479,0 2.44792,-0.742188 0.71614,-0.755208 0.71614,-4.192708 V 39.386151 h 2.60417 v 11.953125 q 0,3.90625 -1.26302,5.651042 -1.26302,1.73177 -4.49219,1.73177 -1.86198,0 -3.0599,-1.10677 -1.18489,-1.106771 -1.30208,-2.96875 z"
       id="path45" />
    <path
       d="m 226.04111,44.51636 v 8.893229 q 0,3.229166 2.79948,3.229166 1.22396,0 2.23959,-0.703125 1.01562,-0.703125 1.34114,-1.627604 V 44.51636 h 2.47396 v 13.945312 h -2.47396 v -1.927083 q -0.41666,0.820312 -1.67968,1.510416 -1.25,0.677083 -2.44792,0.677083 -2.29167,0 -3.51563,-1.315104 -1.21093,-1.315104 -1.21093,-3.736979 V 44.51636 Z"
       id="path47" />
    <path
       d="m 254.41351,58.461672 v -8.828125 q 0,-3.294271 -2.85156,-3.294271 -0.89844,0 -1.67969,0.559896 -0.78125,0.546875 -1.06771,1.25 v 10.3125 h -2.47396 v -9.908854 q 0,-1.028646 -0.78125,-1.614583 -0.76823,-0.598959 -2.04427,-0.598959 -0.74218,0 -1.58854,0.572917 -0.83333,0.572917 -1.18489,1.263021 v 10.286458 h -2.47396 V 44.51636 h 1.61458 l 0.82031,1.614583 q 1.43229,-1.875 3.58073,-1.875 2.99479,0 4.19271,1.861979 0.41667,-0.794271 1.54948,-1.328125 1.13281,-0.533854 2.33073,-0.533854 2.16146,0 3.34635,1.289062 1.1849,1.276042 1.1849,3.59375 v 9.322917 z"
       id="path49" />
    <path
       d="m 262.87705,57.693443 v 6.236979 h -2.47396 V 44.51636 h 2.47396 v 1.145833 q 1.40625,-1.40625 3.39844,-1.40625 2.96875,0 4.62239,1.848958 1.65365,1.848959 1.65365,5.416667 0,3.177083 -1.66667,5.195312 -1.66666,2.005208 -4.81771,2.005208 -0.88541,0 -1.90104,-0.3125 -1.0026,-0.312499 -1.28906,-0.716145 z m 0,-10.169271 v 8.125 q 0.23437,0.351562 0.98958,0.677083 0.75521,0.3125 1.47136,0.3125 4.60937,0 4.60937,-5.208333 0,-2.643229 -1.09375,-3.867187 -1.09375,-1.223959 -3.5026,-1.223959 -0.52084,0 -1.27604,0.364584 -0.75521,0.364583 -1.19792,0.820312 z"
       id="path51" />
    <path
       d="m 274.34841,57.628339 0.87239,-2.34375 q 2.07031,1.354166 3.33334,1.354166 2.29166,0 2.29166,-1.927083 0,-1.380208 -2.21354,-2.369792 -1.70573,-0.78125 -2.30469,-1.184895 -0.58593,-0.403646 -1.02864,-0.911459 -0.42969,-0.520833 -0.65104,-1.09375 -0.20834,-0.585937 -0.20834,-1.25 0,-1.71875 1.25,-2.682291 1.25,-0.963542 3.26823,-0.963542 1.52344,0 3.84115,0.963542 l -0.70313,2.291666 q -1.47135,-1.171875 -2.95573,-1.171875 -0.88541,0 -1.49739,0.416667 -0.59896,0.416667 -0.59896,1.054687 0,1.341146 1.52344,2.03125 l 1.77083,0.807292 q 1.6276,0.742187 2.36979,1.692708 0.74219,0.950521 0.74219,2.382813 0,1.875 -1.31511,2.942708 -1.3151,1.054687 -3.64583,1.054687 -2.20052,0 -4.14062,-1.093749 z"
       id="path53" />
    <path
       d="m 293.37184,48.761151 q 0,-4.140625 2.07031,-6.927083 2.08333,-2.786458 5.61198,-2.786458 3.97135,0 6.08073,2.565104 2.12239,2.565104 2.12239,7.148437 0,4.700521 -2.12239,7.369792 -2.1224,2.65625 -6.08073,2.65625 -3.60677,0 -5.65104,-2.8125 -2.03125,-2.8125 -2.03125,-7.213542 z m 2.73437,0 q 0,3.28125 1.28906,5.481771 1.30209,2.200521 3.65886,2.200521 2.66927,0 4.0625,-2.018229 1.40625,-2.01823 1.40625,-5.664063 0,-7.369791 -5.46875,-7.369791 -2.42188,0 -3.6849,1.979166 -1.26302,1.979167 -1.26302,5.390625 z"
       id="path55" />
    <path
       d="m 317.08277,58.722088 h -0.65104 l -5.97656,-14.244791 h 2.70833 l 3.6849,9.765625 3.76302,-9.765625 h 2.59115 z"
       id="path57" />
    <path
       d="m 336.86143,51.729901 h -10.05208 q 0,2.447917 1.34114,3.763021 1.1849,1.145833 3.04688,1.145833 2.12239,0 3.54166,-1.236979 l 1.04167,1.783854 q -0.57292,0.572917 -1.75781,0.989584 -1.48438,0.546874 -3.30729,0.546874 -2.63021,0 -4.46615,-1.783854 -2.04427,-1.966145 -2.04427,-5.286458 0,-3.450521 2.09635,-5.533854 1.875,-1.861979 4.44011,-1.861979 2.98177,0 4.67448,1.679687 1.64062,1.614584 1.64062,4.283855 0,0.820312 -0.19531,1.510416 z m -6.0026,-5.390625 q -1.65365,0 -2.77344,1.067709 -1.06771,1.015625 -1.21094,2.526041 h 7.72135 q 0,-1.497396 -0.9375,-2.5 -1.02864,-1.09375 -2.79947,-1.09375 z"
       id="path59" />
    <path
       d="m 347.23903,46.899172 q -0.80729,-0.559896 -1.62761,-0.559896 -1.3151,0 -2.30468,1.210938 -0.97657,1.210937 -0.97657,2.916666 v 7.994792 h -2.47395 V 44.51636 h 2.47395 v 2.226562 q 1.35417,-2.486979 4.02344,-2.486979 0.66406,0 1.91406,0.234375 z"
       id="path61" />
    <path
       d="m 168.43695,75.063237 v 16.731771 h -2.60417 V 75.063237 h -6.0677 v -2.34375 h 15.01302 v 2.34375 z"
       id="path63" />
    <path
       d="m 185.36403,91.795008 v -8.763021 q 0,-1.5625 -0.76823,-2.460937 -0.76822,-0.898438 -2.16145,-0.898438 -0.89844,0 -1.8099,0.533854 -0.89844,0.520834 -1.38021,1.223959 v 10.364583 h -2.47396 V 72.13355 h 2.47396 v 7.252604 q 0.49479,-0.768229 1.58854,-1.276042 1.10677,-0.520833 2.27865,-0.520833 2.21354,0 3.46354,1.458333 1.26302,1.458333 1.26302,3.984375 v 8.763021 z"
       id="path65" />
    <path
       d="M 203.08539,85.063237 H 193.0333 q 0,2.447917 1.34115,3.763021 1.1849,1.145833 3.04687,1.145833 2.1224,0 3.54167,-1.236979 l 1.04167,1.783854 q -0.57292,0.572917 -1.75782,0.989583 -1.48437,0.546875 -3.30729,0.546875 -2.6302,0 -4.46614,-1.783854 -2.04427,-1.966146 -2.04427,-5.286458 0,-3.450521 2.09635,-5.533854 1.875,-1.861979 4.44011,-1.861979 2.98177,0 4.67447,1.679687 1.64063,1.614584 1.64063,4.283854 0,0.820313 -0.19531,1.510417 z m -6.00261,-5.390625 q -1.65364,0 -2.77343,1.067708 -1.06771,1.015625 -1.21094,2.526042 h 7.72135 q 0,-1.497396 -0.9375,-2.5 -1.02864,-1.09375 -2.79948,-1.09375 z"
       id="path67" />
    <path
       d="M 214.11403,91.795008 V 72.719487 h 2.60417 v 16.731771 h 8.61979 v 2.34375 z"
       id="path69" />
    <path
       d="m 235.29893,90.193445 q -1.48438,1.861979 -4.54427,1.861979 -1.64063,0 -2.85156,-1.184895 -1.19792,-1.197917 -1.19792,-2.96875 0,-2.122396 1.84896,-3.580729 1.86198,-1.471355 4.73958,-1.471355 0.78125,0 1.77083,0.338542 0,-3.385417 -3.02083,-3.385417 -2.31771,0 -3.56771,1.25 l -1.04166,-2.070312 q 0.70312,-0.572917 1.9401,-0.976562 1.25,-0.416667 2.38281,-0.416667 3.03386,0 4.40104,1.380208 1.38021,1.380208 1.38021,4.388021 v 5 q 0,1.835937 1.09375,2.447916 v 1.23698 q -1.51041,0 -2.26562,-0.429688 -0.74219,-0.429687 -1.06771,-1.419271 z m -0.23438,-5.247395 q -1.17187,-0.260417 -1.64062,-0.260417 -1.875,0 -3.0599,0.963542 -1.18489,0.963541 -1.18489,2.278645 0,2.174479 2.5651,2.174479 1.875,0 3.32031,-1.783854 z"
       id="path71" />
    <path
       d="m 244.07497,89.581466 h 7.73437 v 2.213542 h -11.61458 v -0.651042 l 7.92969,-11.080729 h -7.79948 v -2.213541 h 11.40625 v 0.703125 z"
       id="path73" />
    <path
       d="m 259.41351,94.164799 q -0.48177,1.328125 -2.03125,2.213542 -1.53646,0.885417 -3.4375,0.885417 v -2.213542 q 1.54948,0 2.65625,-0.729167 1.10677,-0.716146 1.10677,-1.757812 0,-1.145833 -0.40364,-2.252604 -0.40365,-1.119792 -1.04167,-2.760417 l -3.77604,-9.70052 h 2.52604 l 4.10156,10.781249 3.6849,-10.781249 h 2.52604 z"
       id="path75" />
    <path
       d="M 279.30935,91.795008 H 275.4682 V 72.719487 q 3.67188,-0.130208 4.70052,-0.130208 3.9974,0 6.32813,2.434896 2.33073,2.421875 2.33073,6.458333 0,10.3125 -9.51823,10.3125 z m -1.23698,-16.731771 v 14.257812 q 0.87239,0.130209 2.16146,0.130209 2.73437,0 4.29687,-2.044271 1.5625,-2.057292 1.5625,-5.703125 0,-6.770833 -6.08073,-6.770833 -0.36458,0 -1.9401,0.130208 z"
       id="path77" />
    <path
       d="m 290.71559,84.7898 q 0,-3.229167 1.73177,-5.208334 1.74479,-1.992187 4.58333,-1.992187 2.99479,0 4.64844,1.914062 1.65364,1.901042 1.65364,5.286459 0,3.372395 -1.6927,5.32552 -1.69271,1.940104 -4.60938,1.940104 -2.98177,0 -4.64844,-1.966145 -1.66666,-1.966146 -1.66666,-5.299479 z m 2.60416,0 q 0,5.247395 3.71094,5.247395 1.73177,0 2.70833,-1.40625 0.98959,-1.40625 0.98959,-3.841145 0,-5.182292 -3.69792,-5.182292 -1.69271,0 -2.70833,1.380208 -1.00261,1.380209 -1.00261,3.802084 z"
       id="path79" />
    <path
       d="m 305.42914,95.610112 1.34114,-1.979167 q 2.16146,1.445313 3.98438,1.445313 1.67969,0 2.64323,-0.585938 0.97656,-0.572917 0.97656,-1.432291 0,-1.692709 -2.44792,-1.692709 -0.41666,0 -1.51041,0.208334 -1.09375,0.208333 -1.70573,0.208333 -2.96875,0 -2.96875,-2.239583 0,-0.690105 0.6901,-1.25 0.70313,-0.559896 1.73177,-0.807292 -2.94271,-1.380208 -2.94271,-4.791667 0,-2.1875 1.52344,-3.645833 1.52344,-1.458333 3.76302,-1.458333 2.05729,0 3.21615,0.846354 l 1.23698,-1.484375 1.61458,1.523438 -1.48437,1.119791 q 0.95052,1.236979 0.95052,3.229167 0,2.109375 -1.31511,3.541666 -1.3151,1.432292 -3.45052,1.640625 l -2.04427,0.208334 q -0.36458,0.03906 -0.97656,0.286458 -0.61198,0.234375 -0.61198,0.625 0,0.533854 1.27604,0.533854 0.5599,0 1.74479,-0.195312 1.1849,-0.208334 1.75782,-0.208334 2.05729,0 3.20312,0.989584 1.15885,0.976562 1.15885,2.721354 0,1.927083 -1.73177,3.111979 -1.71875,1.184896 -4.36198,1.184896 -1.35416,0 -2.85156,-0.481771 -1.49739,-0.481771 -2.40885,-1.171875 z m 5.24739,-16.028646 q -1.28906,0 -2.10937,0.911459 -0.80729,0.911458 -0.80729,2.213541 0,1.458334 0.78125,2.421875 0.79427,0.950521 2.13541,0.950521 1.31511,0 2.0573,-0.924479 0.74218,-0.9375 0.74218,-2.447917 0,-1.302083 -0.80729,-2.213541 -0.79427,-0.911459 -1.99219,-0.911459 z"
       id="path81" />
  </g>
</svg>
