<?xml version="1.0" encoding="UTF-8" standalone="no"?>
<svg
   xmlns:dc="http://purl.org/dc/elements/1.1/"
   xmlns:cc="http://creativecommons.org/ns#"
   xmlns:rdf="http://www.w3.org/1999/02/22-rdf-syntax-ns#"
   xmlns:svg="http://www.w3.org/2000/svg"
   xmlns="http://www.w3.org/2000/svg"
   viewBox="161.077 7.04834 166.32 91.36"
   version="1.1"
   id="svg2">
  <metadata
     id="metadata11">
    <rdf:RDF>
      <cc:Work
         rdf:about="">
        <dc:format>image/svg+xml</dc:format>
        <dc:type
           rdf:resource="http://purl.org/dc/dcmitype/StillImage" />
      </cc:Work>
    </rdf:RDF>
  </metadata>
  <defs
     id="defs9" />
  <g
     aria-label="The Quick BrownFox Jumps OverThe Lazy Dog"
     id="text4521"
     style="font-style:normal;font-variant:normal;font-weight:normal;font-stretch:normal;font-size:26.6667px;line-height:125%;font-family:'URW Chancery L', cursive;font-variant-ligatures:normal;font-variant-caps:normal;font-variant-numeric:normal;font-feature-settings:normal;text-align:left;letter-spacing:0px;word-spacing:0px;writing-mode:lr-tb;text-anchor:start;fill:#000000;fill-opacity:1;stroke:none;stroke-width:1px;stroke-linecap:butt;stroke-linejoin:miter;stroke-opacity:1">
    <path
       d="m 163.79737,25.128336 c 6.42666,0 6.82666,-0.05333 8.98666,-1.253333 l 0.0533,-0.213334 c -1.2,0.16 -2.85334,0.266667 -4.32,0.266667 -0.21334,0 -0.66667,-0.02667 -1.22667,-0.05333 2.05333,-1.733334 2.72,-2.693334 3.17333,-4.72 l 2.08,-8.346667 c 3.46667,0.293334 3.49334,0.293334 4.05334,0.293334 1.25333,0 1.44,-0.266667 2.08,-2.8800003 l -0.34667,-0.4 c -1.09333,1.8666666 -1.22667,2 -2.18667,2 -0.26666,0 -0.85333,-0.026667 -1.68,-0.053333 -3.89333,-0.1866666 -4.32,-0.2133333 -5.25333,-0.2133333 -4.66667,0 -8.13333,2.533333 -8.13333,5.946667 0,0.879999 0.18666,1.599999 0.66666,2.533333 l 2,-1.306667 c -0.50666,-1.28 -0.61333,-1.706666 -0.61333,-2.453333 0,-1.52 0.69333,-2.64 2,-3.253333 0.69333,-0.32 1.6,-0.453334 3.09333,-0.453334 0.58667,0 0.69334,0 2.4,0.133334 l -2.16,8.693333 c -0.96,3.92 -1.46666,4.586666 -3.73333,4.693333 z"
       id="path13" />
    <path
       d="m 175.29062,25.368336 1.89333,-0.773333 1.57334,-6.213334 c 0.26666,-0.186666 0.50666,-0.32 0.64,-0.4 0.69333,-0.453333 1.17333,-0.746666 1.28,-0.8 1.76,-0.96 1.76,-0.96 2,-0.96 0.16,0 0.29333,0.16 0.29333,0.4 0,0.373334 -0.10667,0.88 -0.48,2.293334 -0.77333,3.013333 -1.14667,4.746666 -1.14667,5.466666 0,0.346667 0.10667,0.64 0.4,1.146667 1.46667,-0.746667 3.41334,-1.973333 4.85334,-3.04 l 0.18666,-0.773333 c -2.21333,1.306666 -2.64,1.52 -2.98666,1.52 -0.24,0 -0.4,-0.266667 -0.4,-0.693334 0,-0.72 0.13333,-1.253333 1.2,-5.173333 0.69333,-2.586666 0.69333,-2.586666 0.69333,-2.746666 0,-0.266667 -0.21333,-0.453334 -0.56,-0.453334 -0.58667,0 -2.32,0.96 -5.73333,3.173333 l 0.90666,-3.573333 c 0.64,-2.613333 0.90667,-3.44 1.25334,-4.1066663 0.37333,-0.7466667 0.93333,-1.0933334 1.65333,-1.0933334 0.34667,0 0.56,0.026667 1.6,0.24 l 1.14667,-1.6266666 c -0.48,-0.1066667 -0.69334,-0.1333333 -1.12,-0.1333333 -1.44,0 -2.21334,0.4 -4.16,2.1066666 -1.38667,1.226667 -1.6,1.68 -2.42667,5.2 z"
       id="path15" />
    <path
       d="m 195.15725,21.475003 c -2.13334,1.813333 -3.28,2.48 -4.29334,2.48 -0.69333,0 -1.22666,-0.453334 -1.41333,-1.146667 -0.10667,-0.426667 -0.13333,-0.72 -0.13333,-1.493333 1.22666,-0.773334 1.97333,-1.306667 3.54666,-2.48 1.46667,-1.093334 2,-1.973334 2,-3.173333 0,-0.933334 -0.56,-1.493334 -1.52,-1.493334 -0.58666,0 -0.98666,0.133334 -1.62666,0.48 -1.01334,0.586667 -1.92,1.306667 -2.45334,1.946667 -1.01333,1.226666 -1.92,4.16 -1.92,6.32 0,1.573333 0.82667,2.56 2.18667,2.56 1.57333,0 3.6,-1.173334 5.6,-3.226667 z m -5.76,-1.12 c 0.45333,-2.88 1.65333,-5.066667 2.82666,-5.066667 0.42667,0 0.72,0.426667 0.72,1.093333 0,1.333334 -0.77333,2.186667 -3.54666,3.973334 z"
       id="path17" />
    <path
       d="m 221.34385,25.901669 c -0.26667,1.92 -1.25333,3.013334 -2.69333,3.013334 -1.73334,0 -4.02667,-1.28 -7.6,-4.266667 2.24,-1.12 3.22666,-1.84 4.18666,-3.12 1.44,-1.893333 2.16,-4.213333 2.16,-6.853333 0,-1.92 -0.34666,-3.066667 -1.17333,-4.026667 -0.74667,-0.8266663 -1.78667,-1.2799997 -3.01333,-1.2799997 -2.42667,0 -5.30667,1.0933337 -7.14667,2.7199997 -2.08,1.84 -3.33333,4.853333 -3.33333,8.053333 0,3.52 1.6,5.333334 4.69333,5.333334 0.50667,0 0.85333,-0.02667 1.54667,-0.16 1.04,0.986666 1.92,1.76 3.06666,2.666666 2.13334,1.68 3.36,2.24 4.88,2.24 1.92,0 3.84,-1.013333 5.73334,-3.013333 z m -11.49333,-2.24 c -0.74667,0.56 -1.04,0.693334 -1.57334,0.693334 -2,0 -3.36,-2.053334 -3.36,-5.04 0,-4.933333 2.88,-8.88 6.50667,-8.88 2.37333,0 3.78667,1.866667 3.78667,4.986667 0,1.893333 -0.53334,4.159999 -1.33334,5.653333 -0.85333,1.6 -1.70666,2.346666 -3.44,3.093333 z"
       id="path19" />
    <path
       d="m 224.8638,21.608336 c -2.02667,1.386667 -2.96,1.946667 -3.30667,1.946667 -0.29333,0 -0.50666,-0.373334 -0.50666,-0.88 0,-0.613334 0.21333,-1.68 0.66666,-3.386667 0.26667,-1.013333 0.53334,-2.026667 0.56,-2.186667 0.24,-1.013333 0.42667,-1.679999 0.48,-1.866666 0.08,-0.293333 0.13334,-0.56 0.13334,-0.72 0,-0.213333 -0.13334,-0.346667 -0.32,-0.346667 -0.26667,0 -2.18667,1.04 -4.13334,2.24 l -0.18666,0.72 c 1.14666,-0.586667 1.62666,-0.773333 1.94666,-0.773333 0.21334,0 0.37334,0.186666 0.37334,0.506666 0,0.373334 -0.24,1.413334 -0.74667,3.306667 -0.66667,2.506667 -0.82667,3.226667 -0.82667,4 0,0.746667 0.32,1.306667 0.74667,1.306667 0.4,0 0.85333,-0.24 2.21333,-1.12 2.08,-1.333334 2.08,-1.333334 2.74667,-1.786667 -0.24,0.906667 -0.37333,1.813333 -0.37333,2.293333 0,0.373334 0.18666,0.613334 0.48,0.613334 0.53333,0 3.04,-1.466667 4.88,-2.853334 l 0.18666,-0.8 c -1.89333,1.12 -2.77333,1.6 -3.06666,1.6 -0.18667,0 -0.29334,-0.186666 -0.29334,-0.64 0,-1.36 0.96,-5.306666 2.13334,-8.719999 -0.34667,0.186666 -0.58667,0.32 -0.69334,0.373333 -0.32,0.16 -0.64,0.32 -0.98666,0.453333 -0.08,0.05333 -0.24,0.133334 -0.53334,0.293334 -0.18666,0.666666 -0.61333,2.453333 -1.30666,5.359999 z"
       id="path21" />
    <path
       d="m 235.61044,8.7016697 c -0.74666,0.5866666 -1.36,1.0666666 -1.84,1.3866663 0.18667,0.56 0.42667,1.013334 1.01334,1.866667 0.74666,-0.666667 0.82666,-0.746667 1.73333,-1.44 -0.08,-0.16 -0.13333,-0.266667 -0.34667,-0.6133334 -0.16,-0.3199999 -0.18666,-0.3199999 -0.4,-0.8533333 z m 1.01334,13.3333333 -0.45334,0.24 c -1.84,1.013333 -2.16,1.146666 -2.48,1.146666 -0.29333,0 -0.48,-0.293333 -0.48,-0.746666 0,-0.453334 0,-0.453334 0.88,-3.973334 0.98667,-4.053333 0.98667,-4.053333 0.98667,-4.266666 0,-0.16 -0.13333,-0.266667 -0.32,-0.266667 -0.45333,0 -2.02667,0.88 -4.21333,2.346667 l -0.0533,0.746666 c 1.62667,-0.88 1.70667,-0.906666 1.94667,-0.906666 0.21333,0 0.32,0.16 0.32,0.453333 0,0.373333 -0.08,0.746667 -0.48,2.266667 -1.25333,4.64 -1.25333,4.64 -1.25333,5.333333 0,0.64 0.24,1.066667 0.64,1.066667 0.45333,0 1.17333,-0.346667 2.58666,-1.253334 0.50667,-0.32 1.01334,-0.64 1.52,-0.986666 0.24,-0.133334 0.42667,-0.266667 0.74667,-0.453334 z"
       id="path23" />
    <path
       d="m 244.94377,21.741669 c -2.02667,1.466667 -3.46667,2.213334 -4.32,2.213334 -0.96,0 -1.52,-0.746667 -1.52,-2.026667 0,-1.306667 0.32,-2.986667 0.82667,-4.24 0.56,-1.413333 1.22666,-2.133333 2,-2.133333 0.64,0 0.98666,0.506667 1.12,1.68 l 1.54666,-0.906667 c 0.0267,-0.133333 0.0267,-0.266666 0.0267,-0.32 0,-1.146666 -0.58667,-1.84 -1.52,-1.84 -0.50667,0 -0.74667,0.106667 -1.73333,0.746667 -2,1.253333 -2.42667,1.653333 -3.01334,2.746666 -0.74666,1.44 -1.30666,3.706667 -1.30666,5.36 0,1.573334 0.69333,2.453334 1.94666,2.453334 1.28,0 3.41334,-1.04 5.89334,-2.88 z"
       id="path25" />
    <path
       d="m 246.03705,25.421669 c 0.29333,-0.106666 0.56,-0.213333 0.64,-0.24 0.16,-0.05333 0.42667,-0.133333 0.72,-0.24 0.08,-0.02667 0.32,-0.106666 0.58667,-0.186666 l 1.04,-4.746667 0.61333,-0.373333 c 0.53333,1.226666 0.64,1.466666 1.49333,3.466666 1.14667,2.72 1.84,3.813334 2.93334,4.666667 1.14666,0.88 2.79999,1.44 4.21333,1.44 1.22666,0 2.08,-0.266667 2.90666,-0.933333 l -0.53333,-1.92 c -0.85333,1.44 -1.62667,2 -2.74667,2 -0.88,0 -1.59999,-0.426667 -2.42666,-1.413334 -0.72,-0.853333 -0.72,-0.853333 -3.57333,-6.906666 l -0.77334,-1.653334 1.78667,-1.626666 c 1.06667,-0.933333 1.36,-1.12 1.86667,-1.12 0.45333,0 0.77333,0.213333 1.2,0.773333 l 1.35999,-2.026666 c -0.53333,-0.4 -0.90666,-0.533334 -1.49333,-0.533334 -0.72,0 -1.17333,0.24 -1.97333,0.986667 -0.82667,0.8 -0.85333,0.826667 -1.14667,1.093333 l -3.44,3.066667 1.01334,-4.08 c 0.85333,-3.52 1.14666,-4.373333 1.6,-5.12 0.48,-0.7733333 1.17333,-1.1466667 2.08,-1.1466667 0.24,0 0.45333,0.026667 0.93333,0.1066667 l 1.06667,-1.5466666 c -0.34667,-0.053333 -0.50667,-0.08 -0.77334,-0.08 -0.96,0 -1.57333,0.2133333 -2.42666,0.8266666 -1.70667,1.2 -2.90667,2.373333 -3.25334,3.146667 -0.26666,0.586666 -0.77333,2.346666 -1.12,3.893333 z"
       id="path27" />
    <path
       d="m 263.71699,25.101669 c 0.69334,0 0.72,0 1.54667,0.02667 h 0.90667 c 0.16,0 0.50666,0 0.93333,0.02667 1.78667,0.02667 1.78667,0.02667 2.26667,0.02667 1.84,0 3.2,-0.346666 5.01333,-1.226666 2.4,-1.226667 3.57333,-2.746667 3.57333,-4.693334 0,-0.826666 -0.4,-1.6 -1.06666,-2.106666 -0.56,-0.426667 -1.14667,-0.586667 -2.42667,-0.746667 2.66667,-1.173333 3.97333,-2.64 3.97333,-4.346666 0,-1.786667 -1.41333,-2.5333337 -4.74666,-2.5333337 h -0.4 l 0.21333,-0.8266666 -2.16,0.9333333 c -2.29333,0.3466666 -3.6,0.746667 -4.8,1.466667 -2.13333,1.306666 -3.22667,3.173333 -3.22667,5.519999 0,0.56 0.0533,0.933334 0.18667,1.733334 l 2.13333,-0.986667 c -0.24,-1.253333 -0.26666,-1.44 -0.26666,-1.973333 0,-1.813333 0.56,-2.933333 1.92,-3.813333 1.04,-0.693334 2.13333,-1.013334 3.81333,-1.12 l -1.97333,7.893333 c -1.12,4.613333 -1.57334,5.2 -4.16,5.466666 z m 7.62667,-7.76 c 0.50667,-0.05333 0.74667,-0.05333 1.01333,-0.05333 2.10667,0 3.28,0.933333 3.28,2.586667 0,1.013333 -0.42666,2.186666 -1.09333,2.933333 -0.72,0.826667 -1.78667,1.253333 -3.12,1.253333 -0.72,0 -1.30667,-0.05333 -3.94667,-0.346666 2.61334,-2.32 3.04,-2.96 3.6,-5.36 z m 1.76,-7.066666 c 1.28,0.02667 1.6,0.08 1.97333,0.266667 0.64,0.293333 1.04,1.066666 1.04,1.946666 0,1.253334 -0.61333,2.533334 -1.52,3.226667 -0.82666,0.613333 -1.62666,0.853333 -3.06666,0.88 z"
       id="path29" />
    <path
       d="m 279.71696,25.395003 2.05333,-0.773334 2,-7.6 c 0.90667,-0.693333 1.52,-0.933333 2.24,-0.933333 0.58667,0 0.93333,0.213333 1.41333,0.826667 l 0.8,-2.533333 c -0.48,-0.16 -0.72,-0.213334 -0.98666,-0.213334 -0.50667,0 -1.04,0.24 -1.76,0.746667 -0.34667,0.266667 -0.69334,0.533333 -1.06667,0.773333 -0.16,0.133334 -0.34667,0.266667 -0.50667,0.373334 l 0.32,-1.6 c 0,-0.16 -0.16,-0.293334 -0.34666,-0.293334 -0.34667,0 -2.69334,1.146667 -4.32,2.106667 l -0.08,0.72 c 1.54666,-0.746667 1.57333,-0.773334 1.92,-0.773334 0.34666,0 0.50666,0.186667 0.50666,0.56 0,0.373334 -0.26666,1.6 -0.58666,2.773334 z"
       id="path31" />
    <path
       d="m 294.30357,14.168336 c -1.06667,0 -2.77334,0.773334 -4.34667,1.946667 -1.70667,1.28 -2.90667,4.053333 -2.90667,6.72 0,1.6 0.90667,2.64 2.32,2.64 0.74667,0 1.52,-0.266667 2.72,-0.906667 1.33334,-0.746667 2.21334,-1.413333 2.69334,-2.026667 1.06666,-1.466666 1.92,-4.08 1.92,-5.92 0,-1.439999 -0.98667,-2.453333 -2.4,-2.453333 z m -1.38667,1.253334 c 1.06667,0 1.73333,1.013333 1.73333,2.639999 0,1.146667 -0.37333,2.506667 -1.01333,3.813334 -0.77333,1.52 -1.73333,2.346666 -2.74667,2.346666 -1.09333,0 -1.78666,-0.986666 -1.78666,-2.506666 0,-3.093334 1.94666,-6.293333 3.81333,-6.293333 z"
       id="path33" />
    <path
       d="m 298.17021,19.581669 c 0.50667,-1.306666 0.64,-1.653333 0.82667,-1.973333 0.42667,-0.72 0.90667,-1.013333 1.57333,-1.013333 l 0.88,0.02667 c 0.21334,0.02667 0.45334,0.02667 0.69334,0.02667 0.58666,0 0.74666,-0.02667 1.22666,-0.213333 -1.38666,1.573333 -2.18666,2.48 -2.37333,2.773333 -1.01333,1.466667 -1.65333,3.253333 -1.65333,4.64 0,0.96 0.58666,1.626667 1.44,1.626667 1.38666,0 2.96,-1.12 5.17333,-3.626667 -0.29333,0.88 -0.4,1.413333 -0.4,2.106667 0,0.986666 0.50667,1.52 1.44,1.52 3.36,0 8.58667,-6.506667 8.58667,-10.72 0,-0.72 -0.21334,-1.173333 -0.66667,-1.466667 -0.66667,0.16 -0.90667,0.266667 -1.86667,0.693334 0.26667,0.693333 0.34667,1.12 0.34667,1.866666 0,1.76 -0.66667,3.84 -1.76,5.546667 -0.96,1.44 -2.29333,2.56 -3.12,2.56 -0.56,0 -0.90667,-0.48 -0.90667,-1.226667 0,-1.146667 0.37334,-2.506667 2.16,-7.813333 -0.72,0.24 -1.01333,0.32 -1.97333,0.56 -0.0533,0.186667 -0.24,0.826666 -0.58667,1.946666 -0.64,2.026667 -0.85333,2.56 -1.36,3.386667 -0.96,1.573333 -2.74666,3.013333 -3.73333,3.013333 -0.45333,0 -0.72,-0.426666 -0.72,-1.173333 0,-1.146667 0.45333,-2.64 1.2,-4 0.64,-1.146667 1.25333,-1.893333 2.74667,-3.386666 v -0.266667 c 0,-0.05333 0,-0.106667 -0.0267,-0.213333 h -0.29333 c -0.45334,0.32 -0.64,0.373333 -1.09334,0.373333 -0.74666,0 -2.18666,-0.02667 -3.04,-0.05333 -0.26666,-0.02667 -0.56,-0.02667 -0.72,-0.02667 -0.45333,0 -0.74666,0.08 -0.90666,0.266667 -0.4,0.4 -0.93334,1.626666 -1.54667,3.599999 z"
       id="path35" />
    <path
       d="m 317.90352,24.621669 1.57333,-6.266666 0.66667,-0.426667 c 2.48,-1.546667 2.77333,-1.706667 3.14666,-1.706667 0.16,0 0.26667,0.133334 0.26667,0.346667 0,0.426667 -0.18667,1.2 -0.98667,4.453333 -0.58666,2.346667 -0.69333,2.826667 -0.69333,3.333334 0,0.373333 0.10667,0.693333 0.4,1.2 1.2,-0.533334 3.06666,-1.706667 4.93333,-3.093334 l 0.18667,-0.746666 c -2.58667,1.493333 -2.77334,1.573333 -3.04,1.573333 -0.26667,0 -0.42667,-0.266667 -0.42667,-0.72 0,-0.72 0.10667,-1.173333 1.28,-5.413333 0.66667,-2.373333 0.66667,-2.373333 0.66667,-2.533333 0,-0.293334 -0.18667,-0.453334 -0.50667,-0.453334 -0.58667,0 -0.66667,0.05333 -3.54666,1.813334 -1.06667,0.666666 -1.76,1.093333 -2.08,1.306666 0.26666,-0.933333 0.64,-2.56 0.64,-2.773333 0,-0.213333 -0.13334,-0.346667 -0.34667,-0.346667 -0.29333,0 -2.10667,0.933334 -4.18667,2.16 l -0.16,0.693333 c 1.70667,-0.773333 1.81334,-0.8 2.05334,-0.8 0.18666,0 0.32,0.16 0.32,0.373334 0,0.586666 -0.48,2.72 -1.17334,5.2 l -0.61333,2.16 c -0.0533,0.186666 -0.18667,0.693333 -0.37333,1.44 z"
       id="path37" />
    <path
       d="m 171.15737,50.648339 1.70666,-6.853333 4.26667,0.106666 c 0.34667,-0.293333 1.12,-0.88 1.68,-1.226666 0.13333,-0.32 0.16,-0.373334 0.26667,-0.746667 -1.12,0.693333 -2.05334,0.933333 -3.54667,0.933333 l -3.57333,-0.02667 c -2.88,0 -4.56,0.4 -6.02667,1.466666 -1.49333,1.093333 -2.4,2.96 -2.4,4.906667 0,0.666666 0.08,1.12 0.34667,2.053333 l 2.24,-1.013333 c -0.42667,-1.253334 -0.53334,-1.84 -0.53334,-2.64 0,-2.4 1.54667,-3.893333 4.05334,-3.893333 0.32,0 0.77333,0.02667 1.28,0.08 l -1.70667,6.853333 -0.96,1.226666 h 0.64 l -0.69333,2.853334 c -1.06667,4.266666 -1.70667,5.013333 -4.24,5.013333 -0.42667,0 -0.88,-0.02667 -1.78667,-0.05333 l -1.04,1.733334 c 0.56,0.05333 1.06667,0.08 1.33333,0.08 1.6,0 2.74667,-0.48 4.50667,-1.946667 1.94667,-1.573333 2.66667,-2.72 3.28,-5.253333 l 0.64,-2.56 c 1.54667,-0.08 2.74667,-0.16 2.85333,-0.186667 0.74667,-0.106666 0.98667,-0.24 1.62667,-0.906666 z"
       id="path39" />
    <path
       d="m 183.39735,47.501672 c -1.06667,0 -2.77334,0.773333 -4.34667,1.946667 -1.70667,1.28 -2.90667,4.053333 -2.90667,6.72 0,1.6 0.90667,2.639999 2.32,2.639999 0.74667,0 1.52,-0.266666 2.72,-0.906666 1.33334,-0.746667 2.21334,-1.413333 2.69334,-2.026667 1.06666,-1.466666 1.92,-4.08 1.92,-5.92 0,-1.44 -0.98667,-2.453333 -2.4,-2.453333 z m -1.38667,1.253333 c 1.06667,0 1.73333,1.013334 1.73333,2.64 0,1.146667 -0.37333,2.506667 -1.01333,3.813334 -0.77333,1.52 -1.73333,2.346666 -2.74667,2.346666 -1.09333,0 -1.78666,-0.986666 -1.78666,-2.506666 0,-3.093334 1.94666,-6.293334 3.81333,-6.293334 z"
       id="path41" />
    <path
       d="m 186.94396,59.128338 c 0.16,0.02667 0.24,0.05333 0.24,0.05333 0.0533,0 0.13334,-0.02667 0.21334,-0.05333 0.56,-2.346666 1.70666,-4.106666 3.65333,-5.679999 0.32,4.16 0.45333,5.146666 0.85333,6.373333 0.58667,1.786666 2.32,2.906666 4.56,2.906666 1.46667,0 2.4,-0.373333 3.28,-1.306666 l -1.04,-1.226667 c -0.72,1.28 -1.44,1.813333 -2.4,1.813333 -0.93333,0 -1.86666,-0.746666 -2.26666,-1.84 -0.56,-1.466666 -0.56,-1.493333 -1.36,-6.853333 l -0.16,-1.173333 c 2.24,-2.08 3.14666,-2.72 3.86666,-2.72 0.29334,0 0.56,0.05333 1.12,0.293333 l 0.58667,-1.866666 c -0.4,-0.266667 -0.58667,-0.346667 -0.93333,-0.346667 -0.34667,0 -0.56,0.05333 -1.01334,0.266667 -0.74666,0.666666 -0.85333,0.773333 -1.89333,1.786666 -0.88,0.853334 -0.93333,0.906667 -1.86667,1.786667 -0.10666,-0.986667 -0.26666,-1.973333 -0.34666,-2.346667 -0.24,-1.093333 -0.61334,-1.493333 -1.46667,-1.493333 -0.82667,0 -1.6,0.453333 -3.44,2.053333 l -0.0533,0.72 c 1.6,-1.066666 1.73333,-1.12 2.26666,-1.12 0.88,0 1.2,0.693334 1.6,3.493334 l -0.58666,0.48 c -0.21334,0.16 -0.53334,0.426666 -0.98667,0.773333 -1.38667,1.04 -1.41333,1.066667 -1.92,1.493333 -0.69333,0.613334 -0.90667,0.986667 -1.38667,2.346667 z"
       id="path43" />
    <path
       d="m 208.14389,49.341672 c -0.16,-0.906667 -0.21333,-1.333333 -0.21333,-1.92 0,-2.08 1.09333,-3.2 3.14667,-3.2 h 0.4 l -1.46667,5.866667 c -0.50667,0.426666 -0.58667,0.506666 -1.06667,0.986666 0.4,0.266667 0.50667,0.4 0.64,0.773334 -0.21333,0.666666 -0.21333,0.666666 -0.61333,2.186666 -0.77333,2.773334 -0.82667,2.906667 -1.33333,3.893334 -0.72,1.386666 -1.92,2.133333 -3.49334,2.133333 -0.53333,0 -0.96,-0.05333 -1.78666,-0.266667 l -1.06667,1.786667 c 0.50667,0.106666 0.74667,0.133333 1.17333,0.133333 1.65334,0 2.8,-0.533333 5.30667,-2.533333 2.24,-1.786667 2.45333,-2.133333 3.25333,-5.36 l 2.45334,-9.84 0.88,-0.773333 c -1.89334,0 -2.64,0.05333 -3.73334,0.266667 -2.93333,0.586666 -4.74666,2.613333 -4.74666,5.279999 0,0.533334 0.0533,0.826667 0.24,1.52 z"
       id="path45" />
    <path
       d="m 220.73055,54.941672 c -2.02667,1.386667 -2.96,1.946667 -3.30667,1.946667 -0.29333,0 -0.50666,-0.373334 -0.50666,-0.88 0,-0.613334 0.21333,-1.68 0.66666,-3.386667 0.26667,-1.013333 0.53334,-2.026667 0.56,-2.186667 0.24,-1.013333 0.42667,-1.68 0.48,-1.866666 0.08,-0.293334 0.13334,-0.56 0.13334,-0.72 0,-0.213334 -0.13334,-0.346667 -0.32,-0.346667 -0.26667,0 -2.18667,1.04 -4.13334,2.24 l -0.18666,0.72 c 1.14666,-0.586667 1.62666,-0.773333 1.94666,-0.773333 0.21334,0 0.37334,0.186666 0.37334,0.506666 0,0.373334 -0.24,1.413334 -0.74667,3.306667 -0.66667,2.506667 -0.82667,3.226667 -0.82667,4 0,0.746667 0.32,1.306666 0.74667,1.306666 0.4,0 0.85333,-0.24 2.21333,-1.119999 2.08,-1.333334 2.08,-1.333334 2.74667,-1.786667 -0.24,0.906667 -0.37333,1.813333 -0.37333,2.293333 0,0.373333 0.18666,0.613333 0.48,0.613333 0.53333,0 3.04,-1.466666 4.88,-2.853333 l 0.18666,-0.8 c -1.89333,1.12 -2.77333,1.6 -3.06666,1.6 -0.18667,0 -0.29334,-0.186666 -0.29334,-0.64 0,-1.36 0.96,-5.306666 2.13334,-8.72 -0.34667,0.186667 -0.58667,0.32 -0.69334,0.373334 -0.32,0.16 -0.64,0.32 -0.98666,0.453333 -0.08,0.05333 -0.24,0.133333 -0.53334,0.293333 -0.18666,0.666667 -0.61333,2.453334 -1.30666,5.36 z"
       id="path47" />
    <path
       d="m 226.65052,58.728338 1.89334,-0.719999 1.70666,-6.48 c 1.73334,-1.2 2.88,-1.84 3.22667,-1.84 0.21333,0 0.34667,0.213333 0.34667,0.586666 0,0.8 -1.01334,4.826667 -2.13334,8.453333 l 2.02667,-0.719999 1.65333,-6.666667 c 1.52,-0.986667 2.96,-1.786667 3.28,-1.786667 0.24,0 0.34667,0.186667 0.34667,0.506667 0,0.586667 -0.24,1.786667 -0.96,4.533333 -0.4,1.653334 -0.53333,2.32 -0.53333,2.933334 0,0.56 0.13333,0.853333 0.64,1.199999 1.54666,-0.773333 3.04,-1.733333 4.50666,-2.906666 l 0.0267,-0.613333 c -2.26667,1.386666 -2.26667,1.386666 -2.64,1.386666 -0.29333,0 -0.48,-0.266666 -0.48,-0.693333 0,-0.613333 0.32,-2.026667 0.88,-4 0.85333,-2.96 1.01333,-3.573333 1.01333,-4 0,-0.266667 -0.13333,-0.4 -0.42666,-0.4 -0.48,0 -2.13334,0.853333 -5.38667,2.773333 0.10667,-0.48 0.10667,-0.48 0.34667,-1.52 0.10666,-0.4 0.18666,-0.853333 0.18666,-0.96 0,-0.186666 -0.13333,-0.293333 -0.34666,-0.293333 -0.45334,0 -1.46667,0.56 -5.30667,2.986667 0.42667,-1.813334 0.56,-2.426667 0.56,-2.613334 0,-0.24 -0.16,-0.373333 -0.4,-0.373333 -0.26667,0 -0.56,0.16 -1.89333,0.906667 -1.76,1.013333 -1.76,1.013333 -2.24,1.333333 l -0.18667,0.746667 c 1.41333,-0.72 1.65333,-0.8 1.97333,-0.8 0.21334,0 0.37334,0.213333 0.37334,0.506666 0,0.4 -0.08,0.746667 -1.14667,4.986667 -0.24,0.853333 -0.45333,1.733333 -0.66667,2.613333 z"
       id="path49" />
    <path
       d="m 241.50383,64.141672 -0.8,0.853333 c 0.48,0.02667 0.8,0.02667 0.90666,0.02667 l 1.92,0.02667 1.70667,0.02667 c 0.21333,0 0.58667,0 1.25333,-0.02667 l 0.82667,-0.666666 -2.98667,-0.16 c 0.34667,-1.626667 0.50667,-2.4 0.61334,-2.826667 0.13333,-0.56 0.24,-1.12 0.37333,-1.706667 l 0.29333,-1.146666 c 0.53334,0.106666 0.82667,0.133333 1.28,0.133333 1.46667,0 1.76,-0.133333 3.84,-1.866666 0.90667,-0.72 1.22667,-1.093334 1.62667,-1.866667 0.85333,-1.733333 1.41333,-3.813333 1.41333,-5.333333 0,-1.28 -0.56,-2.106667 -1.44,-2.106667 -0.64,0 -1.54666,0.4 -2.64,1.2 -1.17333,0.853333 -1.89333,1.386667 -2.18666,1.573333 0.37333,-1.573333 0.56,-2.373333 0.56,-2.426666 0,-0.16 -0.18667,-0.346667 -0.37334,-0.346667 -0.26666,0 -2.42666,1.146667 -4.4,2.32 l -0.16,0.693333 c 0.18667,-0.08 0.56,-0.24 1.09334,-0.453333 0.50666,-0.24 0.61333,-0.266667 0.82666,-0.266667 0.32,0 0.50667,0.266667 0.50667,0.746667 0,0.96 -1.57333,7.813333 -3.09333,13.546666 z m 4.74666,-8.293333 0.4,-1.813334 0.4,-1.733333 c 0.0267,-0.133333 0.10667,-0.48 0.21334,-0.96 2.16,-1.6 3.01333,-2.053333 3.70666,-2.053333 0.53334,0 0.88,0.56 0.88,1.466666 0,1.2 -0.37333,2.72 -1.04,4.16 -0.72,1.6 -1.62666,2.373334 -2.72,2.373334 -0.66666,0 -1.38666,-0.213334 -2.02666,-0.586667 z"
       id="path51" />
    <path
       d="m 253.79713,56.248339 c -0.0267,0.24 -0.0533,0.453333 -0.0533,0.613333 0,1.173333 0.8,1.946666 1.97334,1.946666 0.85333,0 1.97333,-0.32 2.82666,-0.826666 1.6,-0.906667 2.53334,-2.266667 2.53334,-3.6 0,-0.986667 -0.16,-1.2 -1.68,-2.133333 -0.90667,-0.586667 -1.28,-1.093334 -1.28,-1.786667 0,-0.906667 0.77333,-1.706667 1.68,-1.706667 0.61333,0 1.09333,0.293334 1.65333,1.04 0.90667,-0.88 0.90667,-0.88 1.25333,-1.386666 -0.53333,-0.64 -1.04,-0.906667 -1.78666,-0.906667 -1.94667,0 -4.45334,2.293333 -4.45334,4.08 0,0.826667 0.42667,1.466667 1.44,2.186667 1.33334,0.933333 1.52,1.173333 1.52,1.84 0,0.96 -1.22666,2.08 -2.26666,2.08 -0.58667,0 -1.04,-0.32 -1.30667,-0.906667 -0.18667,-0.4 -0.24,-0.8 -0.26667,-1.733333 -0.29333,0.24 -0.50666,0.373333 -0.61333,0.453333 -0.21333,0.133333 -0.45333,0.266667 -0.69333,0.426667 -0.0267,0 -0.26667,0.186666 -0.48,0.32 z"
       id="path53" />
    <path
       d="m 280.0371,42.701672 c -2.21334,0 -5.04,1.12 -6.88,2.693333 -2.13334,1.893334 -3.33334,4.826667 -3.33334,8.186667 0,3.413333 1.57334,5.226666 4.53334,5.226666 2.45333,0 5.06666,-1.146666 7.09333,-3.066666 1.94667,-1.866667 2.98667,-4.613333 2.98667,-7.866667 0,-3.36 -1.54667,-5.173333 -4.4,-5.173333 z m -1.52,1.04 c 2.34666,0 3.73333,1.84 3.73333,4.96 0,2.053333 -0.53333,4.293333 -1.41333,5.84 -1.14667,2.026667 -2.96,3.2 -4.93334,3.2 -2.45333,0 -3.89333,-1.92 -3.89333,-5.2 0,-4.96 2.82667,-8.8 6.50667,-8.8 z"
       id="path55" />
    <path
       d="m 285.87703,52.728339 c 0.77334,-2.4 0.96,-2.64 1.94667,-2.693334 1.49333,-0.02667 1.89333,-0.05333 2.56,-0.213333 -1.57333,1.76 -2,2.293333 -2.37333,2.906667 -0.77334,1.28 -1.22667,2.8 -1.22667,4.106666 0,1.226667 0.56,1.973333 1.44,1.973333 2.10667,0 4.88,-2.213333 6.72,-5.359999 1.06667,-1.786667 1.76,-3.866667 1.76,-5.2 0,-0.64 -0.18667,-0.986667 -0.69333,-1.44 -0.64,0.186666 -0.93334,0.293333 -1.78667,0.72 0.32,0.72 0.42667,1.12 0.42667,1.866666 0,1.626667 -0.48,3.306667 -1.38667,4.853334 -1.04,1.76 -2.50667,3.04 -3.49333,3.04 -0.61334,0 -1.06667,-0.693334 -1.06667,-1.6 0,-1.226667 0.42667,-2.693334 1.17333,-4.026667 0.53334,-0.96 1.06667,-1.68 2.29334,-3.093333 v -0.186667 c 0,-0.05333 0,-0.16 -0.0267,-0.293333 h -0.26667 c -0.29333,0.373333 -0.58666,0.453333 -1.41333,0.453333 -0.34667,0 -0.66667,0 -1.49333,-0.05333 -0.66667,-0.02667 -1.12,-0.05333 -1.30667,-0.05333 -0.53333,0 -0.77333,0.08 -0.93333,0.293334 -0.34667,0.426666 -0.77334,1.52 -1.30667,3.44 z"
       id="path57" />
    <path
       d="m 304.91696,54.808339 c -2.13333,1.813333 -3.28,2.48 -4.29333,2.48 -0.69333,0 -1.22667,-0.453334 -1.41333,-1.146667 -0.10667,-0.426667 -0.13334,-0.72 -0.13334,-1.493333 1.22667,-0.773334 1.97334,-1.306667 3.54667,-2.48 1.46667,-1.093334 2,-1.973334 2,-3.173334 0,-0.933333 -0.56,-1.493333 -1.52,-1.493333 -0.58667,0 -0.98667,0.133333 -1.62667,0.48 -1.01333,0.586667 -1.92,1.306667 -2.45333,1.946667 -1.01333,1.226666 -1.92,4.16 -1.92,6.32 0,1.573333 0.82667,2.559999 2.18667,2.559999 1.57333,0 3.6,-1.173333 5.6,-3.226666 z m -5.76,-1.12 c 0.45334,-2.88 1.65334,-5.066667 2.82667,-5.066667 0.42667,0 0.72,0.426667 0.72,1.093333 0,1.333334 -0.77333,2.186667 -3.54667,3.973334 z"
       id="path59" />
    <path
       d="m 306.25025,58.728338 2.05333,-0.773333 2,-7.6 c 0.90667,-0.693333 1.52,-0.933333 2.24,-0.933333 0.58667,0 0.93334,0.213333 1.41334,0.826667 l 0.8,-2.533334 c -0.48,-0.16 -0.72,-0.213333 -0.98667,-0.213333 -0.50667,0 -1.04,0.24 -1.76,0.746667 -0.34667,0.266666 -0.69333,0.533333 -1.06667,0.773333 -0.16,0.133333 -0.34666,0.266667 -0.50666,0.373333 l 0.32,-1.6 c 0,-0.16 -0.16,-0.293333 -0.34667,-0.293333 -0.34667,0 -2.69333,1.146667 -4.32,2.106667 l -0.08,0.72 c 1.54667,-0.746667 1.57333,-0.773334 1.92,-0.773334 0.34667,0 0.50667,0.186667 0.50667,0.56 0,0.373334 -0.26667,1.6 -0.58667,2.773334 z"
       id="path61" />
    <path
       d="m 163.79737,91.795008 c 6.42666,0 6.82666,-0.05333 8.98666,-1.253334 l 0.0533,-0.213333 c -1.2,0.16 -2.85334,0.266667 -4.32,0.266667 -0.21334,0 -0.66667,-0.02667 -1.22667,-0.05333 2.05333,-1.733333 2.72,-2.693333 3.17333,-4.719999 l 2.08,-8.346667 c 3.46667,0.293333 3.49334,0.293333 4.05334,0.293333 1.25333,0 1.44,-0.266666 2.08,-2.88 l -0.34667,-0.4 c -1.09333,1.866667 -1.22667,2 -2.18667,2 -0.26666,0 -0.85333,-0.02667 -1.68,-0.05333 -3.89333,-0.186667 -4.32,-0.213333 -5.25333,-0.213333 -4.66667,0 -8.13333,2.533333 -8.13333,5.946666 0,0.88 0.18666,1.6 0.66666,2.533334 l 2,-1.306667 c -0.50666,-1.28 -0.61333,-1.706667 -0.61333,-2.453333 0,-1.52 0.69333,-2.64 2,-3.253334 0.69333,-0.32 1.6,-0.453333 3.09333,-0.453333 0.58667,0 0.69334,0 2.4,0.133333 l -2.16,8.693334 c -0.96,3.919999 -1.46666,4.586666 -3.73333,4.693333 z"
       id="path63" />
    <path
       d="m 175.29062,92.035008 1.89333,-0.773334 1.57334,-6.213333 c 0.26666,-0.186666 0.50666,-0.32 0.64,-0.4 0.69333,-0.453333 1.17333,-0.746666 1.28,-0.8 1.76,-0.96 1.76,-0.96 2,-0.96 0.16,0 0.29333,0.16 0.29333,0.4 0,0.373334 -0.10667,0.88 -0.48,2.293334 -0.77333,3.013333 -1.14667,4.746666 -1.14667,5.466666 0,0.346667 0.10667,0.64 0.4,1.146667 1.46667,-0.746667 3.41334,-1.973334 4.85334,-3.04 l 0.18666,-0.773334 c -2.21333,1.306667 -2.64,1.52 -2.98666,1.52 -0.24,0 -0.4,-0.266666 -0.4,-0.693333 0,-0.72 0.13333,-1.253333 1.2,-5.173333 0.69333,-2.586667 0.69333,-2.586667 0.69333,-2.746667 0,-0.266666 -0.21333,-0.453333 -0.56,-0.453333 -0.58667,0 -2.32,0.96 -5.73333,3.173333 l 0.90666,-3.573333 c 0.64,-2.613333 0.90667,-3.44 1.25334,-4.106667 0.37333,-0.746666 0.93333,-1.093333 1.65333,-1.093333 0.34667,0 0.56,0.02667 1.6,0.24 l 1.14667,-1.626667 c -0.48,-0.106666 -0.69334,-0.133333 -1.12,-0.133333 -1.44,0 -2.21334,0.4 -4.16,2.106667 -1.38667,1.226666 -1.6,1.68 -2.42667,5.2 z"
       id="path65" />
    <path
       d="m 195.15725,88.141674 c -2.13334,1.813334 -3.28,2.48 -4.29334,2.48 -0.69333,0 -1.22666,-0.453333 -1.41333,-1.146666 -0.10667,-0.426667 -0.13333,-0.72 -0.13333,-1.493334 1.22666,-0.773333 1.97333,-1.306666 3.54666,-2.479999 1.46667,-1.093334 2,-1.973334 2,-3.173334 0,-0.933333 -0.56,-1.493333 -1.52,-1.493333 -0.58666,0 -0.98666,0.133333 -1.62666,0.48 -1.01334,0.586667 -1.92,1.306667 -2.45334,1.946667 -1.01333,1.226666 -1.92,4.159999 -1.92,6.319999 0,1.573334 0.82667,2.56 2.18667,2.56 1.57333,0 3.6,-1.173333 5.6,-3.226666 z m -5.76,-1.12 c 0.45333,-2.879999 1.65333,-5.066666 2.82666,-5.066666 0.42667,0 0.72,0.426667 0.72,1.093333 0,1.333334 -0.77333,2.186667 -3.54666,3.973333 z"
       id="path67" />
    <path
       d="m 214.14385,76.488341 c -0.53333,-0.05333 -0.77333,-0.08 -1.17333,-0.08 -0.50667,0 -0.98667,0.05333 -1.41334,0.16 -0.72,0.186667 -2,1.093334 -3.06666,2.16 -1.30667,1.333334 -1.76,2.586667 -2.8,7.52 -0.72,3.413333 -1.41334,4.4 -3.09334,4.4 -0.18666,0 -0.53333,0 -0.82666,-0.02667 -0.37334,0.373334 -0.53334,0.56 -0.93334,1.066667 1.22667,-0.05333 1.86667,-0.08 2.61334,-0.08 0.72,0 2.10666,0.05333 4.08,0.133333 4.32,0.213334 4.48,0.213334 5.25333,0.213334 1.38667,0 1.97333,-0.293334 2.45333,-1.28 0.32,-0.613334 1.14667,-2.453334 1.54667,-3.466667 l -0.29333,-0.506667 c -1.73334,3.653334 -2.02667,3.813334 -6.61334,3.786667 h -5.04 c 1.78667,-1.68 1.89334,-1.813333 2.24,-2.586667 0.4,-1.04 0.42667,-1.146666 1.36,-5.146666 0.85334,-3.2 0.85334,-3.226667 1.09334,-3.653333 0.45333,-0.853334 1.01333,-1.173334 2,-1.173334 0.37333,0 0.61333,0 1.57333,0.05333 z"
       id="path69" />
    <path
       d="m 228.73051,88.301674 c -1.94667,1.333334 -2.4,1.6 -2.66667,1.6 -0.18666,0 -0.32,-0.213333 -0.32,-0.533333 0,-0.72 0.61334,-3.52 1.6,-7.173333 0.29334,-0.426667 0.34667,-0.48 0.77334,-0.96 -1.28,-0.293333 -2.18667,-0.4 -3.36,-0.4 -1.09334,0 -1.62667,0.106667 -2.29334,0.533333 -0.96,0.56 -2.08,1.386667 -2.42666,1.76 -1.01333,1.12 -2.10667,4.72 -2.10667,6.88 0,1.28 0.42667,2.133333 1.09334,2.133333 0.58666,0 1.46666,-0.533333 4.79999,-2.933333 -0.29333,1.36 -0.4,2.026667 -0.4,2.373333 0,0.373334 0.16,0.56 0.42667,0.56 0.34667,0 0.56,-0.106666 2.45333,-1.36 0.90667,-0.613333 1.41334,-0.96 2.4,-1.68 z m -4.69333,-0.186666 c -0.93334,0.693333 -1.41334,1.04 -1.44,1.066666 -0.88,0.56 -1.57334,0.906667 -1.92,0.906667 -0.45333,0 -0.69333,-0.48 -0.69333,-1.333333 0,-1.36 0.39999,-3.12 1.09333,-4.666667 0.64,-1.466666 1.22666,-2.026666 2.13333,-2.026666 0.48,0 1.38667,0.133333 2.26667,0.346666 -0.53334,1.92 -0.72,2.64 -0.74667,2.773334 -0.16,0.666666 -0.29333,1.333333 -0.45333,2.026666 -0.0267,0.133333 -0.10667,0.453333 -0.24,0.906667 z"
       id="path71" />
    <path
       d="m 228.09044,90.808341 c 0,0.16 0.0267,0.293333 0.08,0.506667 0.48,-0.32 0.69333,-0.426667 1.28,-0.773334 0.37333,0.106667 0.72,0.24 0.85333,0.266667 0.16,0.05333 0.96,0.346667 1.78667,0.64 1.44,0.506667 2.21333,0.693333 2.88,0.693333 0.93333,0 1.6,-0.373333 2.88,-1.626666 1.09333,-1.066667 1.49333,-1.68 1.49333,-2.346667 0,-0.346667 -0.08,-0.613333 -0.37333,-1.2 -0.24,0.16 -0.48,0.32 -0.74667,0.48 -0.34667,0.213333 -0.4,0.24 -0.82667,0.56 0.24,0.533333 0.29334,0.773333 0.29334,1.093333 0,0.853334 -0.66667,1.52 -1.54667,1.52 -0.93333,0 -1.65333,-0.24 -4.8,-1.626666 0.61333,-0.613334 1.73333,-1.68 3.36,-3.173333 l 1.89333,-1.866667 c 0.64,-0.64 1.30667,-1.28 1.94667,-1.893333 l 0.96,-0.986667 c 0.0267,-0.346667 0.0267,-0.506667 0.0267,-0.533333 v -0.106667 c -1.09334,0.746667 -1.28,0.8 -2.66667,0.8 -0.74667,0 -2.93333,-0.05333 -3.65333,-0.08 h -0.21334 c -0.74666,0 -0.8,0.08 -2.08,3.466667 l 0.48,0.506666 c 0.10667,-0.266666 0.26667,-0.586666 0.45334,-0.96 0.21333,-0.48 0.4,-0.773333 0.56,-0.906666 0.42666,-0.373334 0.66666,-0.426667 2.26666,-0.426667 l 0.53334,-0.02667 0.66666,-0.02667 c 0.4,0 0.48,-0.02667 0.98667,-0.106667 -2.4,2.32 -5.36,4.986666 -8.77333,7.973333 z"
       id="path73" />
    <path
       d="m 238.89039,98.221674 c 0.85334,0.106667 1.97334,0.186667 2.93334,0.186667 1.86666,0 2.90666,-0.506667 4.45333,-2.133333 1.54667,-1.68 1.65333,-1.946667 2.58667,-6.293334 0.93333,-4.266666 1.44,-6.239999 2.34666,-9.253333 -0.34666,0.186667 -0.64,0.346667 -0.74666,0.4 l -0.93334,0.453334 c -0.24,0.106666 -0.4,0.186666 -0.58666,0.293333 l -0.24,0.96 -0.56,2.186667 -0.53334,2.186666 -0.29333,1.146667 c -2.66667,1.653333 -2.8,1.733333 -3.28,1.733333 -0.32,0 -0.56,-0.346667 -0.56,-0.853333 0,-0.746667 0.21333,-1.706667 1.14667,-5.226667 0.64,-2.666666 0.64,-2.666666 0.64,-2.853333 0,-0.186667 -0.13334,-0.32 -0.29334,-0.32 -0.29333,0 -1.97333,0.88 -4.24,2.213333 l -0.08,0.72 c 1.33334,-0.666666 1.54667,-0.746666 1.84,-0.746666 0.26667,0 0.4,0.133333 0.4,0.4 0,0.48 -0.18666,1.253333 -0.82666,3.626666 -0.66667,2.426667 -0.77334,2.88 -0.77334,3.6 0,0.88 0.4,1.493333 0.93334,1.493333 0.32,0 0.69333,-0.186666 1.6,-0.746666 2.29333,-1.44 2.29333,-1.44 3.41333,-2.24 l -0.29333,1.413333 c -0.8,3.813333 -0.93334,4.293333 -1.25334,4.986667 -0.45333,0.933333 -1.28,1.333333 -2.77333,1.333333 -0.8,0 -1.38667,-0.106667 -2.96,-0.48 z"
       id="path75" />
    <path
       d="m 257.4237,91.795008 h 3.38667 c 4.37333,0 5.46667,-0.08 6.88,-0.586667 2.13333,-0.72 4.32,-2.106667 5.36,-3.386667 1.36,-1.679999 2.32,-4.479999 2.32,-6.746666 0,-1.84 -0.96,-3.226667 -2.77333,-4.026667 -1.14667,-0.506666 -2.50667,-0.72 -5.09334,-0.88 l 0.18667,-0.746666 -1.92,0.8 c -2.18667,0.373333 -3.57333,0.853333 -4.98667,1.76 -2.26666,1.466666 -3.36,3.253333 -3.36,5.546666 0,0.506667 0.0267,0.826667 0.18667,1.493334 l 2.18667,-0.986667 c -0.16,-0.693333 -0.18667,-0.986667 -0.18667,-1.493333 0,-3.173334 1.97333,-5.04 5.70667,-5.413334 l -2,7.946667 c -1.04,4.453333 -1.73334,5.28 -4.61334,5.493333 z m 9.86667,-14.8 c 1.97333,0.08 2.85333,0.24 3.68,0.666667 1.30667,0.693333 2.08,2.16 2.08,3.946666 0,2.32 -0.88,5.146667 -2.08,6.666667 -1.30667,1.68 -2.88,2.32 -5.62667,2.32 h -0.4 l -3.41333,-0.106667 c 3.09333,-2.88 3.09333,-2.88 4.29333,-7.706666 z"
       id="path77" />
    <path
       d="m 283.18362,80.835008 c -1.06666,0 -2.77333,0.773333 -4.34666,1.946667 -1.70667,1.28 -2.90667,4.053333 -2.90667,6.719999 0,1.6 0.90667,2.64 2.32,2.64 0.74667,0 1.52,-0.266666 2.72,-0.906666 1.33333,-0.746667 2.21333,-1.413334 2.69333,-2.026667 1.06667,-1.466667 1.92,-4.08 1.92,-5.92 0,-1.44 -0.98666,-2.453333 -2.4,-2.453333 z m -1.38666,1.253333 c 1.06666,0 1.73333,1.013334 1.73333,2.64 0,1.146667 -0.37333,2.506667 -1.01333,3.813333 -0.77334,1.52 -1.73334,2.346667 -2.74667,2.346667 -1.09333,0 -1.78667,-0.986667 -1.78667,-2.506667 0,-3.093333 1.94667,-6.293333 3.81334,-6.293333 z"
       id="path79" />
    <path
       d="m 294.91691,85.955008 c 0.10667,-0.586667 0.24,-1.093333 0.34667,-1.52 0.13333,-0.506667 0.26667,-1.013333 0.4,-1.493333 l 0.13333,-0.586667 c 0.48,-0.133333 0.50667,-0.133333 1.36,-1.493333 -0.13333,0 -0.48,0 -3.09333,0.05333 -1.62667,0.02667 -2.10667,0.106667 -2.88,0.586667 -1.28,0.773333 -2.18667,1.546666 -2.74667,2.266666 -0.8,1.066667 -1.76,4.24 -1.76,5.893333 0,0.666667 0.16,1.146667 0.58667,1.733334 -1.62667,1.413333 -2.10667,1.813333 -3.06667,2.64 -1.33333,1.173333 -1.94666,2.053333 -1.94666,2.8 0,0.986666 1.14666,1.546666 3.2,1.546666 2.45333,0 4.37333,-0.693333 6.16,-2.24 1.14666,-0.986666 1.41333,-1.546666 1.97333,-4.186666 z m -3.49333,7.306666 c -0.34667,1.626667 -0.58667,2.213334 -1.06667,2.72 -0.58666,0.693334 -1.68,1.013334 -3.25333,1.013334 -1.73333,0 -2.66667,-0.453334 -2.66667,-1.333334 0,-1.093333 0.74667,-1.76 8.13334,-7.44 z m -2.02667,-3.493333 c -0.48,-0.48 -0.66666,-0.906667 -0.66666,-1.546667 0,-0.613333 0.13333,-1.28 0.61333,-2.853333 0.48,-1.6 0.85333,-2.293333 1.46667,-2.666666 0.48,-0.32 1.06666,-0.373334 3.73333,-0.373334 h 0.85333 c -1.12,0.826667 -1.25333,0.933334 -1.49333,1.333334 -0.21333,0.346666 -0.50667,1.36 -1.09333,3.599999 -0.45334,0.293334 -0.53334,0.373334 -0.88,0.613334 -0.64,0.453333 -1.25334,0.933333 -1.84,1.386666 z"
       id="path81" />
  </g>
</svg>
