<?xml version="1.0" encoding="UTF-8" standalone="no"?>
<svg
   xmlns:dc="http://purl.org/dc/elements/1.1/"
   xmlns:cc="http://creativecommons.org/ns#"
   xmlns:rdf="http://www.w3.org/1999/02/22-rdf-syntax-ns#"
   xmlns:svg="http://www.w3.org/2000/svg"
   xmlns="http://www.w3.org/2000/svg"
   viewBox="159.531 4.86792 225.039 92.4349"
   version="1.1"
   id="svg2">
  <metadata
     id="metadata11">
    <rdf:RDF>
      <cc:Work
         rdf:about="">
        <dc:format>image/svg+xml</dc:format>
        <dc:type
           rdf:resource="http://purl.org/dc/dcmitype/StillImage" />
      </cc:Work>
    </rdf:RDF>
  </metadata>
  <defs
     id="defs9" />
  <g
     aria-label="The Quick BrownFox Jumps OverThe Lazy Dog"
     id="text4521"
     style="font-style:normal;font-variant:normal;font-weight:normal;font-stretch:normal;font-size:26.6667px;line-height:125%;font-family:Verdana, sans-serif;font-variant-ligatures:normal;font-variant-caps:normal;font-variant-numeric:normal;font-feature-settings:normal;text-align:left;letter-spacing:0px;word-spacing:0px;writing-mode:lr-tb;text-anchor:start;fill:#000000;fill-opacity:1;stroke:none;stroke-width:1px;stroke-linecap:butt;stroke-linejoin:miter;stroke-opacity:1">
    <path
       d="m 175.96299,8.0319822 h -6.92708 V 25.128336 h -2.57813 V 8.0319822 H 159.5307 V 5.7403156 h 16.43229 z"
       id="path13" />
    <path
       d="m 190.5333,25.128336 h -2.44791 v -8.28125 q 0,-1.002604 -0.11719,-1.875 -0.11719,-0.885416 -0.42969,-1.380208 -0.32552,-0.546875 -0.9375,-0.807292 -0.61198,-0.273437 -1.58854,-0.273437 -1.0026,0 -2.09635,0.494791 -1.09375,0.494792 -2.09636,1.263021 v 10.859375 h -2.44791 V 4.8679198 h 2.44791 v 7.3307292 q 1.14584,-0.950521 2.36979,-1.484375 1.22396,-0.533854 2.51302,-0.533854 2.35678,0 3.59375,1.41927 1.23698,1.419271 1.23698,4.088542 z"
       id="path15" />
    <path
       d="m 207.42132,18.110107 h -10.71614 q 0,1.341146 0.40364,2.34375 0.40365,0.989583 1.10677,1.627604 0.67709,0.625 1.60157,0.9375 0.9375,0.3125 2.05729,0.3125 1.48437,0 2.98177,-0.585937 1.51042,-0.598959 2.14844,-1.171875 h 0.1302 v 2.66927 q -1.23697,0.520834 -2.52604,0.872396 -1.28906,0.351563 -2.70833,0.351563 -3.61979,0 -5.65104,-1.953125 -2.03125,-1.966146 -2.03125,-5.572917 0,-3.567708 1.9401,-5.664062 1.95313,-2.096354 5.13021,-2.096354 2.94271,0 4.53125,1.71875 1.60156,1.71875 1.60156,4.882812 z m -2.38281,-1.875 q -0.013,-1.927083 -0.97656,-2.981771 -0.95052,-1.054687 -2.90365,-1.054687 -1.96614,0 -3.13802,1.158854 -1.15885,1.158854 -1.3151,2.877604 z"
       id="path17" />
    <path
       d="m 237.99424,29.88094 q -0.78125,0.195313 -1.54948,0.273437 -0.75521,0.09115 -1.54948,0.09115 -2.26562,0 -3.64583,-1.25 -1.36719,-1.236979 -1.48438,-3.554687 -0.3125,0.05208 -0.61198,0.0651 -0.28645,0.02604 -0.55989,0.02604 -2.04427,0 -3.72396,-0.677084 -1.66667,-0.677083 -2.83854,-1.966145 -1.17188,-1.289063 -1.8099,-3.164063 -0.625,-1.875 -0.625,-4.283854 0,-2.369791 0.625,-4.244791 0.625,-1.8880212 1.82292,-3.229167 1.14583,-1.2760416 2.83854,-1.9531249 1.70573,-0.6770833 3.71094,-0.6770833 2.08333,0 3.73698,0.6901041 1.66666,0.6770833 2.82552,1.9401041 1.18489,1.3020833 1.80989,3.190104 0.63803,1.888021 0.63803,4.283854 0,3.554688 -1.45834,5.989583 -1.44531,2.434896 -3.89323,3.411459 0.0521,1.484375 0.70313,2.304687 0.65104,0.820313 2.36979,0.820313 0.53385,0 1.26302,-0.169271 0.74219,-0.15625 1.05469,-0.286459 h 0.35156 z m -3.07292,-14.440104 q 0,-3.776041 -1.6927,-5.8203122 -1.69271,-2.0572916 -4.6224,-2.0572916 -2.95573,0 -4.64844,2.0572916 -1.67968,2.0442712 -1.67968,5.8203122 0,3.815104 1.71875,5.846354 1.71875,2.018229 4.60937,2.018229 2.89062,0 4.59635,-2.018229 1.71875,-2.03125 1.71875,-5.846354 z"
       id="path19" />
    <path
       d="m 253.55414,25.128336 h -2.44792 v -1.614583 q -1.23698,0.976562 -2.36979,1.497395 -1.13282,0.520834 -2.5,0.520834 -2.29167,0 -3.56771,-1.393229 -1.27604,-1.40625 -1.27604,-4.114584 v -9.440104 h 2.44791 v 8.28125 q 0,1.106771 0.10417,1.901042 0.10417,0.78125 0.44271,1.341146 0.35156,0.572916 0.91146,0.833333 0.55989,0.260417 1.6276,0.260417 0.95052,0 2.07031,-0.494792 1.13282,-0.494792 2.10938,-1.263021 V 10.584065 h 2.44792 z"
       id="path21" />
    <path
       d="m 261.00205,8.1491697 h -2.76041 V 5.6101073 h 2.76041 z M 260.8458,25.128336 h -2.44791 V 10.584065 h 2.44791 z"
       id="path23" />
    <path
       d="m 276.44476,24.216878 q -1.22396,0.585937 -2.33073,0.911458 -1.09375,0.325521 -2.33073,0.325521 -1.57552,0 -2.89062,-0.455729 -1.3151,-0.46875 -2.2526,-1.40625 -0.95053,-0.9375 -1.47136,-2.369792 -0.52083,-1.432292 -0.52083,-3.346354 0,-3.567708 1.95312,-5.598958 1.96615,-2.03125 5.18229,-2.03125 1.25,0 2.44792,0.351562 1.21094,0.351563 2.21354,0.859375 v 2.721354 h -0.13021 q -1.11979,-0.872395 -2.3177,-1.341145 -1.1849,-0.46875 -2.31771,-0.46875 -2.08334,0 -3.29427,1.40625 -1.19792,1.393229 -1.19792,4.101562 0,2.630208 1.17188,4.049479 1.18489,1.40625 3.32031,1.40625 0.74219,0 1.51041,-0.195312 0.76823,-0.195313 1.38021,-0.507813 0.53386,-0.273437 1.00261,-0.572917 0.46875,-0.3125 0.74218,-0.533854 h 0.13021 z"
       id="path25" />
    <path
       d="m 292.78591,25.128336 h -3.22917 l -5.83333,-6.367187 -1.58855,1.510416 v 4.856771 h -2.44791 V 4.8679198 h 2.44791 V 17.862711 l 7.07032,-7.278646 h 3.08593 l -6.75781,6.71875 z"
       id="path27" />
    <path
       d="m 319.55673,19.164794 q 0,1.445313 -0.54687,2.552084 -0.54688,1.106771 -1.47136,1.822916 -1.09375,0.859375 -2.40885,1.223959 -1.30208,0.364583 -3.32031,0.364583 h -6.875 V 5.7403156 h 5.74218 q 2.1224,0 3.17709,0.15625 1.05468,0.15625 2.01823,0.6510416 1.0677,0.5598958 1.54948,1.4453125 0.48177,0.8723958 0.48177,2.0963543 0,1.380208 -0.70313,2.356771 -0.70312,0.963541 -1.875,1.549479 v 0.104166 q 1.96615,0.403646 3.09896,1.731771 1.13281,1.315104 1.13281,3.333333 z m -4.33594,-8.736979 q 0,-0.7031245 -0.23437,-1.1848953 -0.23438,-0.4817709 -0.75521,-0.78125 -0.61198,-0.3515625 -1.48437,-0.4296875 -0.8724,-0.091146 -2.16146,-0.091146 h -3.07292 v 5.5989586 h 3.33333 q 1.21094,0 1.92709,-0.117188 0.71614,-0.130208 1.32812,-0.520833 0.61198,-0.390625 0.85938,-1.002604 0.26041,-0.625 0.26041,-1.471355 z m 1.65365,8.841146 q 0,-1.171875 -0.35156,-1.861979 -0.35156,-0.690104 -1.27604,-1.171875 -0.625,-0.325521 -1.52344,-0.416667 -0.88542,-0.104166 -2.16146,-0.104166 h -4.04948 v 7.213541 h 3.41146 q 1.69271,0 2.77344,-0.169271 1.08073,-0.182291 1.77083,-0.651041 0.72917,-0.507813 1.06771,-1.158854 0.33854,-0.651042 0.33854,-1.679688 z"
       id="path29" />
    <path
       d="m 332.09579,13.253336 h -0.1302 q -0.54688,-0.130208 -1.06771,-0.182291 -0.50781,-0.0651 -1.21094,-0.0651 -1.13281,0 -2.1875,0.507813 -1.05469,0.494792 -2.03125,1.289062 v 10.325521 h -2.44792 V 10.584065 h 2.44792 v 2.148438 q 1.45833,-1.171875 2.5651,-1.653646 1.1198,-0.494792 2.27865,-0.494792 0.63802,0 0.92448,0.03906 0.28646,0.02604 0.85937,0.117187 z"
       id="path31" />
    <path
       d="m 346.79633,17.862711 q 0,3.554688 -1.82292,5.611979 -1.82292,2.057292 -4.88281,2.057292 -3.08594,0 -4.90886,-2.057292 -1.80989,-2.057291 -1.80989,-5.611979 0,-3.554687 1.80989,-5.611979 1.82292,-2.070312 4.90886,-2.070312 3.05989,0 4.88281,2.070312 1.82292,2.057292 1.82292,5.611979 z m -2.52605,0 q 0,-2.825521 -1.10677,-4.192708 -1.10677,-1.380208 -3.07291,-1.380208 -1.99219,0 -3.09896,1.380208 -1.09375,1.367187 -1.09375,4.192708 0,2.734375 1.10677,4.153646 1.10677,1.40625 3.08594,1.40625 1.95312,0 3.05989,-1.393229 1.11979,-1.40625 1.11979,-4.166667 z"
       id="path33" />
    <path
       d="m 368.87965,10.584065 -3.78906,14.544271 h -2.26562 l -3.73698,-11.210937 -3.71094,11.210937 h -2.2526 l -3.82813,-14.544271 h 2.55208 l 2.66927,11.263021 3.63282,-11.263021 h 2.01823 l 3.72395,11.263021 2.52605,-11.263021 z"
       id="path35" />
    <path
       d="m 384.56976,25.128336 h -2.44791 v -8.28125 q 0,-1.002604 -0.11719,-1.875 -0.11719,-0.885416 -0.42969,-1.380208 -0.32552,-0.546875 -0.9375,-0.807292 -0.61198,-0.273437 -1.58854,-0.273437 -1.0026,0 -2.09635,0.494791 -1.09375,0.494792 -2.09636,1.263021 V 25.128336 H 372.4083 V 10.584065 h 2.44792 v 1.614584 q 1.14583,-0.950521 2.36979,-1.484375 1.22396,-0.533854 2.51302,-0.533854 2.35677,0 3.59375,1.41927 1.23698,1.419271 1.23698,4.088542 z"
       id="path37" />
    <path
       d="m 174.51768,41.365318 h -9.80469 v 5.46875 h 8.42448 v 2.291667 h -8.42448 v 9.335937 h -2.57812 V 39.073651 h 12.38281 z"
       id="path39" />
    <path
       d="m 189.00987,51.196047 q 0,3.554687 -1.82292,5.611979 -1.82292,2.057292 -4.88281,2.057292 -3.08594,0 -4.90886,-2.057292 -1.80989,-2.057292 -1.80989,-5.611979 0,-3.554687 1.80989,-5.611979 1.82292,-2.070312 4.90886,-2.070312 3.05989,0 4.88281,2.070312 1.82292,2.057292 1.82292,5.611979 z m -2.52604,0 q 0,-2.825521 -1.10678,-4.192708 -1.10677,-1.380209 -3.07291,-1.380209 -1.99219,0 -3.09896,1.380209 -1.09375,1.367187 -1.09375,4.192708 0,2.734375 1.10677,4.153646 1.10677,1.40625 3.08594,1.40625 1.95312,0 3.05989,-1.393229 1.1198,-1.40625 1.1198,-4.166667 z"
       id="path41" />
    <path
       d="m 205.12966,58.461672 h -3.08594 l -4.1276,-5.585938 -4.15365,5.585938 h -2.85156 l 5.67708,-7.252604 -5.625,-7.291667 h 3.08594 l 4.10156,5.494792 4.11458,-5.494792 h 2.86459 l -5.71615,7.161459 z"
       id="path43" />
    <path
       d="m 224.99945,53.422609 q 0,2.552084 -1.5625,3.932292 -1.54948,1.380208 -4.16667,1.380208 -0.625,0 -1.66666,-0.117187 -1.04167,-0.104167 -1.7448,-0.260417 v -2.408854 h 0.14323 q 0.53386,0.182292 1.31511,0.377604 0.78125,0.195313 1.60156,0.195313 1.19792,0 1.90104,-0.273438 0.71615,-0.273437 1.05469,-0.78125 0.35156,-0.520833 0.44271,-1.276041 0.10416,-0.755209 0.10416,-1.744792 V 41.130943 h -4.10156 v -2.057292 h 6.67969 z"
       id="path45" />
    <path
       d="m 241.87445,58.461672 h -2.44792 v -1.614583 q -1.23698,0.976562 -2.36979,1.497395 -1.13281,0.520834 -2.5,0.520834 -2.29167,0 -3.56771,-1.393229 -1.27604,-1.40625 -1.27604,-4.114584 v -9.440104 h 2.44792 v 8.28125 q 0,1.106771 0.10416,1.901042 0.10417,0.78125 0.44271,1.341146 0.35156,0.572916 0.91146,0.833333 0.5599,0.260417 1.6276,0.260417 0.95052,0 2.07032,-0.494792 1.13281,-0.494792 2.10937,-1.263021 V 43.917401 h 2.44792 z"
       id="path47" />
    <path
       d="m 267.91611,58.461672 h -2.44791 v -8.28125 q 0,-0.9375 -0.0912,-1.809896 -0.0781,-0.872396 -0.35156,-1.393229 -0.29948,-0.559896 -0.85938,-0.846354 -0.55989,-0.286458 -1.61458,-0.286458 -1.02864,0 -2.05729,0.520833 -1.02865,0.507812 -2.05729,1.302083 0.0391,0.299479 0.0651,0.703125 0.026,0.390625 0.026,0.78125 v 9.309896 h -2.44791 v -8.28125 q 0,-0.963542 -0.0911,-1.822917 -0.0781,-0.872395 -0.35156,-1.393229 -0.29948,-0.559896 -0.85938,-0.833333 -0.55989,-0.286458 -1.61458,-0.286458 -1.0026,0 -2.01823,0.494791 -1.0026,0.494792 -2.00521,1.263021 v 10.859375 h -2.44791 V 43.917401 h 2.44791 v 1.614584 q 1.14584,-0.950521 2.27865,-1.484375 1.14583,-0.533854 2.43489,-0.533854 1.48438,0 2.51303,0.625 1.04166,0.624999 1.54947,1.73177 1.48438,-1.25 2.70834,-1.796875 1.22396,-0.559895 2.61719,-0.559895 2.39583,0 3.52864,1.458333 1.14583,1.445312 1.14583,4.049479 z"
       id="path49" />
    <path
       d="m 285.42914,51.013755 q 0,1.770834 -0.50782,3.242188 -0.50781,1.458333 -1.43229,2.473958 -0.85937,0.963542 -2.03125,1.497396 -1.15885,0.520833 -2.46094,0.520833 -1.13281,0 -2.05729,-0.247396 -0.91146,-0.247395 -1.86198,-0.768229 v 6.09375 h -2.44791 V 43.917401 h 2.44791 v 1.523438 q 0.97657,-0.820313 2.1875,-1.367188 1.22396,-0.559895 2.60417,-0.559895 2.63021,0 4.08854,1.992187 1.47136,1.979167 1.47136,5.507812 z m -2.52605,0.0651 q 0,-2.630209 -0.89843,-3.932292 -0.89844,-1.302083 -2.76042,-1.302083 -1.05469,0 -2.1224,0.455729 -1.0677,0.455729 -2.04427,1.197916 v 8.242188 q 1.04167,0.46875 1.78386,0.638021 0.75521,0.16927 1.70573,0.16927 2.04427,0 3.1901,-1.380208 1.14583,-1.380208 1.14583,-4.088541 z"
       id="path51" />
    <path
       d="m 299.63487,54.268964 q 0,1.992187 -1.65365,3.268229 -1.64062,1.276041 -4.49219,1.276041 -1.61458,0 -2.96875,-0.377604 -1.34114,-0.390625 -2.2526,-0.846354 V 54.84188 h 0.13021 q 1.15885,0.872396 2.57812,1.393229 1.41927,0.507813 2.72136,0.507813 1.61458,0 2.52604,-0.520833 0.91146,-0.520834 0.91146,-1.640625 0,-0.859375 -0.49479,-1.302084 -0.4948,-0.442708 -1.90105,-0.755208 -0.52083,-0.117188 -1.36718,-0.273438 -0.83334,-0.15625 -1.52344,-0.338541 -1.91406,-0.507813 -2.72136,-1.484375 -0.79427,-0.989583 -0.79427,-2.421875 0,-0.898438 0.36459,-1.692708 0.3776,-0.794271 1.13281,-1.419271 0.72917,-0.611979 1.84896,-0.963542 1.13281,-0.364583 2.52604,-0.364583 1.30208,0 2.63021,0.325521 1.34114,0.3125 2.22656,0.768229 v 2.617187 h -0.13021 q -0.9375,-0.690104 -2.27864,-1.158854 -1.34115,-0.481771 -2.63021,-0.481771 -1.34115,0 -2.26563,0.520834 -0.92448,0.507812 -0.92448,1.523437 0,0.898438 0.5599,1.354167 0.54687,0.455729 1.77083,0.742187 0.67709,0.15625 1.51042,0.3125 0.84635,0.15625 1.40625,0.286459 1.70573,0.390625 2.63021,1.341145 0.92448,0.963542 0.92448,2.552084 z"
       id="path53" />
    <path
       d="m 327.1609,41.300214 q 1.18489,1.302083 1.80989,3.190104 0.63803,1.888021 0.63803,4.283854 0,2.395833 -0.65105,4.296875 -0.63802,1.888021 -1.79687,3.151042 -1.19792,1.315104 -2.83854,1.979166 -1.62761,0.664063 -3.72396,0.664063 -2.04427,0 -3.72396,-0.677084 -1.66667,-0.677083 -2.83854,-1.966145 -1.17188,-1.289063 -1.8099,-3.164063 -0.625,-1.875 -0.625,-4.283854 0,-2.369792 0.625,-4.244792 0.625,-1.88802 1.82292,-3.229166 1.14583,-1.276042 2.83854,-1.953125 1.70573,-0.677083 3.71094,-0.677083 2.08333,0 3.73698,0.690104 1.66666,0.677083 2.82552,1.940104 z m -0.23438,7.473958 q 0,-3.776042 -1.6927,-5.820312 -1.69271,-2.057292 -4.6224,-2.057292 -2.95573,0 -4.64844,2.057292 -1.67969,2.04427 -1.67969,5.820312 0,3.815104 1.71875,5.846354 1.71875,2.018229 4.60938,2.018229 2.89062,0 4.59635,-2.018229 1.71875,-2.03125 1.71875,-5.846354 z"
       id="path55" />
    <path
       d="m 346.08018,43.917401 -5.88542,14.544271 h -2.46093 l -5.84636,-14.544271 h 2.65625 l 4.50521,11.575521 4.46615,-11.575521 z"
       id="path57" />
    <path
       d="m 361.22341,51.443443 h -10.71615 q 0,1.341146 0.40365,2.34375 0.40364,0.989583 1.10677,1.627604 0.67708,0.625 1.60156,0.9375 0.9375,0.3125 2.05729,0.3125 1.48438,0 2.98177,-0.585938 1.51042,-0.598958 2.14844,-1.171875 h 0.13021 v 2.669271 q -1.23698,0.520834 -2.52604,0.872396 -1.28906,0.351562 -2.70833,0.351562 -3.6198,0 -5.65105,-1.953124 -2.03125,-1.966146 -2.03125,-5.572917 0,-3.567708 1.94011,-5.664062 1.95312,-2.096354 5.13021,-2.096354 2.9427,0 4.53125,1.718749 1.60156,1.71875 1.60156,4.882813 z m -2.38281,-1.875 q -0.013,-1.927083 -0.97657,-2.981771 -0.95052,-1.054687 -2.90364,-1.054687 -1.96615,0 -3.13802,1.158854 -1.15886,1.158854 -1.31511,2.877604 z"
       id="path59" />
    <path
       d="m 374.00986,46.586672 h -0.13021 q -0.54688,-0.130208 -1.06771,-0.182292 -0.50781,-0.0651 -1.21094,-0.0651 -1.13281,0 -2.1875,0.507813 -1.05468,0.494791 -2.03125,1.289062 v 10.325521 h -2.44791 V 43.917401 h 2.44791 v 2.148438 q 1.45834,-1.171875 2.56511,-1.653646 1.11979,-0.494792 2.27864,-0.494792 0.63802,0 0.92448,0.03906 0.28646,0.02604 0.85938,0.117187 z"
       id="path61" />
    <path
       d="m 175.96299,74.698654 h -6.92708 v 17.096354 h -2.57813 V 74.698654 h -6.92708 v -2.291667 h 16.43229 z"
       id="path63" />
    <path
       d="m 190.5333,91.795008 h -2.44791 v -8.28125 q 0,-1.002604 -0.11719,-1.875 -0.11719,-0.885417 -0.42969,-1.380208 -0.32552,-0.546875 -0.9375,-0.807292 -0.61198,-0.273437 -1.58854,-0.273437 -1.0026,0 -2.09635,0.494791 -1.09375,0.494792 -2.09636,1.263021 v 10.859375 h -2.44791 V 71.534592 h 2.44791 v 7.330729 q 1.14584,-0.950521 2.36979,-1.484375 1.22396,-0.533855 2.51302,-0.533855 2.35678,0 3.59375,1.419271 1.23698,1.419271 1.23698,4.088542 z"
       id="path65" />
    <path
       d="m 207.42132,84.776779 h -10.71614 q 0,1.341146 0.40364,2.34375 0.40365,0.989583 1.10677,1.627604 0.67709,0.625 1.60157,0.9375 0.9375,0.3125 2.05729,0.3125 1.48437,0 2.98177,-0.585938 1.51042,-0.598958 2.14844,-1.171875 h 0.1302 v 2.669271 q -1.23697,0.520833 -2.52604,0.872396 -1.28906,0.351562 -2.70833,0.351562 -3.61979,0 -5.65104,-1.953125 -2.03125,-1.966145 -2.03125,-5.572916 0,-3.567708 1.9401,-5.664062 1.95313,-2.096355 5.13021,-2.096355 2.94271,0 4.53125,1.71875 1.60156,1.71875 1.60156,4.882813 z m -2.38281,-1.875 q -0.013,-1.927084 -0.97656,-2.981771 -0.95052,-1.054687 -2.90365,-1.054687 -1.96614,0 -3.13802,1.158854 -1.15885,1.158854 -1.3151,2.877604 z"
       id="path67" />
    <path
       d="M 232.9682,91.795008 H 220.70257 V 72.406987 h 2.57813 v 17.096354 h 9.6875 z"
       id="path69" />
    <path
       d="m 246.65309,91.795008 h -2.43489 v -1.549479 q -0.32553,0.221354 -0.88542,0.625 -0.54688,0.390625 -1.06771,0.625 -0.61198,0.299479 -1.40625,0.494791 -0.79427,0.208334 -1.86198,0.208334 -1.96614,0 -3.33333,-1.302084 -1.36719,-1.302083 -1.36719,-3.320312 0,-1.653646 0.70313,-2.669271 0.71614,-1.028646 2.03125,-1.614583 1.32812,-0.585938 3.1901,-0.794271 1.86198,-0.208333 3.9974,-0.3125 v -0.377604 q 0,-0.833334 -0.29948,-1.380209 -0.28646,-0.546875 -0.83334,-0.859375 -0.52083,-0.299479 -1.25,-0.403645 -0.72916,-0.104167 -1.52343,-0.104167 -0.96355,0 -2.14844,0.260417 -1.1849,0.247395 -2.44792,0.729166 h -0.13021 v -2.486979 q 0.71615,-0.195312 2.07032,-0.429687 1.35416,-0.234375 2.66927,-0.234375 1.53645,0 2.66927,0.260416 1.14583,0.247396 1.97916,0.859375 0.82032,0.598959 1.25,1.549479 0.42969,0.950521 0.42969,2.356771 z M 244.2182,88.214279 V 84.1648 q -1.1198,0.0651 -2.64323,0.195312 -1.51042,0.130208 -2.39584,0.377604 -1.05468,0.299479 -1.70573,0.9375 -0.65104,0.625 -0.65104,1.731771 0,1.25 0.75521,1.888021 0.75521,0.625 2.30469,0.625 1.28906,0 2.35677,-0.494792 1.06771,-0.507812 1.97917,-1.210937 z"
       id="path71" />
    <path
       d="m 261.91351,91.795008 h -11.74479 v -1.809896 l 8.47656,-10.690104 h -8.29427 v -2.044271 h 11.34114 v 1.744792 l -8.51562,10.729166 h 8.73698 z"
       id="path73" />
    <path
       d="m 277.95518,77.250737 -8.48958,19.908854 h -2.61719 l 2.70833,-6.067708 -5.79427,-13.841146 h 2.65625 l 4.46615,10.78125 4.50521,-10.78125 z"
       id="path75" />
    <path
       d="m 307.10883,82.120529 q 0,2.643229 -1.15886,4.791666 -1.14583,2.148438 -3.05989,3.333334 -1.32813,0.820312 -2.96875,1.184895 -1.62761,0.364584 -4.29688,0.364584 h -4.89583 V 72.406987 h 4.84375 q 2.83854,0 4.50521,0.416667 1.67968,0.403646 2.83854,1.119792 1.97916,1.236979 3.08593,3.29427 1.10678,2.057292 1.10678,4.882813 z m -2.69532,-0.03906 q 0,-2.278646 -0.79427,-3.841145 -0.79427,-1.5625 -2.36979,-2.460938 -1.14583,-0.651042 -2.4349,-0.898437 -1.28906,-0.260417 -3.08593,-0.260417 h -2.42188 v 14.960937 h 2.42188 q 1.86198,0 3.24218,-0.273437 1.39323,-0.273438 2.55209,-1.015625 1.44531,-0.92448 2.16146,-2.434896 0.72916,-1.510417 0.72916,-3.776042 z"
       id="path77" />
    <path
       d="m 323.47601,84.529383 q 0,3.554687 -1.82291,5.611979 -1.82292,2.057292 -4.88282,2.057292 -3.08593,0 -4.90885,-2.057292 -1.8099,-2.057292 -1.8099,-5.611979 0,-3.554688 1.8099,-5.611979 1.82292,-2.070313 4.90885,-2.070313 3.0599,0 4.88282,2.070313 1.82291,2.057291 1.82291,5.611979 z m -2.52604,0 q 0,-2.825521 -1.10677,-4.192708 -1.10677,-1.380209 -3.07292,-1.380209 -1.99218,0 -3.09895,1.380209 -1.09375,1.367187 -1.09375,4.192708 0,2.734375 1.10677,4.153646 1.10677,1.40625 3.08593,1.40625 1.95313,0 3.0599,-1.39323 1.11979,-1.40625 1.11979,-4.166666 z"
       id="path79" />
    <path
       d="m 339.06195,90.141362 q 0,3.697916 -1.67969,5.429687 -1.67969,1.731771 -5.16927,1.731771 -1.15886,0 -2.26563,-0.169271 -1.09375,-0.15625 -2.16146,-0.455729 v -2.5 h 0.13021 q 0.59896,0.234375 1.90104,0.572917 1.30209,0.351562 2.60417,0.351562 1.25,0 2.07031,-0.299479 0.82032,-0.299479 1.27604,-0.833333 0.45573,-0.507813 0.65105,-1.223958 0.19531,-0.716146 0.19531,-1.601563 v -1.328125 q -1.10677,0.885417 -2.1224,1.328125 -1.0026,0.429688 -2.5651,0.429688 -2.60417,0 -4.14063,-1.875 -1.52343,-1.888021 -1.52343,-5.3125 0,-1.875 0.52083,-3.229167 0.53385,-1.367187 1.44531,-2.356771 0.84636,-0.924479 2.05729,-1.432291 1.21094,-0.520834 2.40886,-0.520834 1.26302,0 2.10937,0.260417 0.85938,0.247396 1.8099,0.768229 l 0.15625,-0.625 h 2.29167 z m -2.44792,-2.34375 v -7.929687 q -0.97656,-0.442709 -1.82292,-0.625 -0.83333,-0.195313 -1.66666,-0.195313 -2.01823,0 -3.17709,1.354167 -1.15885,1.354166 -1.15885,3.932291 0,2.447917 0.85937,3.710938 0.85938,1.263021 2.85157,1.263021 1.0677,0 2.13541,-0.403646 1.08073,-0.416667 1.97917,-1.106771 z"
       id="path81" />
  </g>
</svg>
